G04 #@! TF.GenerationSoftware,KiCad,Pcbnew,7.0.7-7.0.7~ubuntu22.04.1*
G04 #@! TF.CreationDate,2023-10-11T23:06:47+02:00*
G04 #@! TF.ProjectId,RP2040-VCO,52503230-3430-42d5-9643-4f2e6b696361,rev?*
G04 #@! TF.SameCoordinates,Original*
G04 #@! TF.FileFunction,Legend,Top*
G04 #@! TF.FilePolarity,Positive*
%FSLAX46Y46*%
G04 Gerber Fmt 4.6, Leading zero omitted, Abs format (unit mm)*
G04 Created by KiCad (PCBNEW 7.0.7-7.0.7~ubuntu22.04.1) date 2023-10-11 23:06:47*
%MOMM*%
%LPD*%
G01*
G04 APERTURE LIST*
%ADD10C,0.150000*%
%ADD11C,0.120000*%
%ADD12R,1.930000X1.830000*%
%ADD13C,2.130000*%
%ADD14C,4.000000*%
%ADD15C,1.800000*%
%ADD16C,1.500000*%
%ADD17C,1.524000*%
%ADD18C,3.200000*%
%ADD19O,3.200000X5.000000*%
%ADD20R,1.700000X1.700000*%
%ADD21O,1.700000X1.700000*%
G04 APERTURE END LIST*
D10*
X80171428Y-100544819D02*
X79838095Y-100068628D01*
X79600000Y-100544819D02*
X79600000Y-99544819D01*
X79600000Y-99544819D02*
X79980952Y-99544819D01*
X79980952Y-99544819D02*
X80076190Y-99592438D01*
X80076190Y-99592438D02*
X80123809Y-99640057D01*
X80123809Y-99640057D02*
X80171428Y-99735295D01*
X80171428Y-99735295D02*
X80171428Y-99878152D01*
X80171428Y-99878152D02*
X80123809Y-99973390D01*
X80123809Y-99973390D02*
X80076190Y-100021009D01*
X80076190Y-100021009D02*
X79980952Y-100068628D01*
X79980952Y-100068628D02*
X79600000Y-100068628D01*
X80600000Y-100544819D02*
X80600000Y-99544819D01*
X80600000Y-99544819D02*
X80980952Y-99544819D01*
X80980952Y-99544819D02*
X81076190Y-99592438D01*
X81076190Y-99592438D02*
X81123809Y-99640057D01*
X81123809Y-99640057D02*
X81171428Y-99735295D01*
X81171428Y-99735295D02*
X81171428Y-99878152D01*
X81171428Y-99878152D02*
X81123809Y-99973390D01*
X81123809Y-99973390D02*
X81076190Y-100021009D01*
X81076190Y-100021009D02*
X80980952Y-100068628D01*
X80980952Y-100068628D02*
X80600000Y-100068628D01*
X81552381Y-99640057D02*
X81600000Y-99592438D01*
X81600000Y-99592438D02*
X81695238Y-99544819D01*
X81695238Y-99544819D02*
X81933333Y-99544819D01*
X81933333Y-99544819D02*
X82028571Y-99592438D01*
X82028571Y-99592438D02*
X82076190Y-99640057D01*
X82076190Y-99640057D02*
X82123809Y-99735295D01*
X82123809Y-99735295D02*
X82123809Y-99830533D01*
X82123809Y-99830533D02*
X82076190Y-99973390D01*
X82076190Y-99973390D02*
X81504762Y-100544819D01*
X81504762Y-100544819D02*
X82123809Y-100544819D01*
X82742857Y-99544819D02*
X82838095Y-99544819D01*
X82838095Y-99544819D02*
X82933333Y-99592438D01*
X82933333Y-99592438D02*
X82980952Y-99640057D01*
X82980952Y-99640057D02*
X83028571Y-99735295D01*
X83028571Y-99735295D02*
X83076190Y-99925771D01*
X83076190Y-99925771D02*
X83076190Y-100163866D01*
X83076190Y-100163866D02*
X83028571Y-100354342D01*
X83028571Y-100354342D02*
X82980952Y-100449580D01*
X82980952Y-100449580D02*
X82933333Y-100497200D01*
X82933333Y-100497200D02*
X82838095Y-100544819D01*
X82838095Y-100544819D02*
X82742857Y-100544819D01*
X82742857Y-100544819D02*
X82647619Y-100497200D01*
X82647619Y-100497200D02*
X82600000Y-100449580D01*
X82600000Y-100449580D02*
X82552381Y-100354342D01*
X82552381Y-100354342D02*
X82504762Y-100163866D01*
X82504762Y-100163866D02*
X82504762Y-99925771D01*
X82504762Y-99925771D02*
X82552381Y-99735295D01*
X82552381Y-99735295D02*
X82600000Y-99640057D01*
X82600000Y-99640057D02*
X82647619Y-99592438D01*
X82647619Y-99592438D02*
X82742857Y-99544819D01*
X83933333Y-99878152D02*
X83933333Y-100544819D01*
X83695238Y-99497200D02*
X83457143Y-100211485D01*
X83457143Y-100211485D02*
X84076190Y-100211485D01*
X84647619Y-99544819D02*
X84742857Y-99544819D01*
X84742857Y-99544819D02*
X84838095Y-99592438D01*
X84838095Y-99592438D02*
X84885714Y-99640057D01*
X84885714Y-99640057D02*
X84933333Y-99735295D01*
X84933333Y-99735295D02*
X84980952Y-99925771D01*
X84980952Y-99925771D02*
X84980952Y-100163866D01*
X84980952Y-100163866D02*
X84933333Y-100354342D01*
X84933333Y-100354342D02*
X84885714Y-100449580D01*
X84885714Y-100449580D02*
X84838095Y-100497200D01*
X84838095Y-100497200D02*
X84742857Y-100544819D01*
X84742857Y-100544819D02*
X84647619Y-100544819D01*
X84647619Y-100544819D02*
X84552381Y-100497200D01*
X84552381Y-100497200D02*
X84504762Y-100449580D01*
X84504762Y-100449580D02*
X84457143Y-100354342D01*
X84457143Y-100354342D02*
X84409524Y-100163866D01*
X84409524Y-100163866D02*
X84409524Y-99925771D01*
X84409524Y-99925771D02*
X84457143Y-99735295D01*
X84457143Y-99735295D02*
X84504762Y-99640057D01*
X84504762Y-99640057D02*
X84552381Y-99592438D01*
X84552381Y-99592438D02*
X84647619Y-99544819D01*
X86028572Y-99544819D02*
X86361905Y-100544819D01*
X86361905Y-100544819D02*
X86695238Y-99544819D01*
X87600000Y-100449580D02*
X87552381Y-100497200D01*
X87552381Y-100497200D02*
X87409524Y-100544819D01*
X87409524Y-100544819D02*
X87314286Y-100544819D01*
X87314286Y-100544819D02*
X87171429Y-100497200D01*
X87171429Y-100497200D02*
X87076191Y-100401961D01*
X87076191Y-100401961D02*
X87028572Y-100306723D01*
X87028572Y-100306723D02*
X86980953Y-100116247D01*
X86980953Y-100116247D02*
X86980953Y-99973390D01*
X86980953Y-99973390D02*
X87028572Y-99782914D01*
X87028572Y-99782914D02*
X87076191Y-99687676D01*
X87076191Y-99687676D02*
X87171429Y-99592438D01*
X87171429Y-99592438D02*
X87314286Y-99544819D01*
X87314286Y-99544819D02*
X87409524Y-99544819D01*
X87409524Y-99544819D02*
X87552381Y-99592438D01*
X87552381Y-99592438D02*
X87600000Y-99640057D01*
X88219048Y-99544819D02*
X88409524Y-99544819D01*
X88409524Y-99544819D02*
X88504762Y-99592438D01*
X88504762Y-99592438D02*
X88600000Y-99687676D01*
X88600000Y-99687676D02*
X88647619Y-99878152D01*
X88647619Y-99878152D02*
X88647619Y-100211485D01*
X88647619Y-100211485D02*
X88600000Y-100401961D01*
X88600000Y-100401961D02*
X88504762Y-100497200D01*
X88504762Y-100497200D02*
X88409524Y-100544819D01*
X88409524Y-100544819D02*
X88219048Y-100544819D01*
X88219048Y-100544819D02*
X88123810Y-100497200D01*
X88123810Y-100497200D02*
X88028572Y-100401961D01*
X88028572Y-100401961D02*
X87980953Y-100211485D01*
X87980953Y-100211485D02*
X87980953Y-99878152D01*
X87980953Y-99878152D02*
X88028572Y-99687676D01*
X88028572Y-99687676D02*
X88123810Y-99592438D01*
X88123810Y-99592438D02*
X88219048Y-99544819D01*
X77838095Y-101154819D02*
X78171428Y-102154819D01*
X78171428Y-102154819D02*
X78504761Y-101154819D01*
X79361904Y-102154819D02*
X78790476Y-102154819D01*
X79076190Y-102154819D02*
X79076190Y-101154819D01*
X79076190Y-101154819D02*
X78980952Y-101297676D01*
X78980952Y-101297676D02*
X78885714Y-101392914D01*
X78885714Y-101392914D02*
X78790476Y-101440533D01*
X79790476Y-102059580D02*
X79838095Y-102107200D01*
X79838095Y-102107200D02*
X79790476Y-102154819D01*
X79790476Y-102154819D02*
X79742857Y-102107200D01*
X79742857Y-102107200D02*
X79790476Y-102059580D01*
X79790476Y-102059580D02*
X79790476Y-102154819D01*
X80219047Y-101250057D02*
X80266666Y-101202438D01*
X80266666Y-101202438D02*
X80361904Y-101154819D01*
X80361904Y-101154819D02*
X80599999Y-101154819D01*
X80599999Y-101154819D02*
X80695237Y-101202438D01*
X80695237Y-101202438D02*
X80742856Y-101250057D01*
X80742856Y-101250057D02*
X80790475Y-101345295D01*
X80790475Y-101345295D02*
X80790475Y-101440533D01*
X80790475Y-101440533D02*
X80742856Y-101583390D01*
X80742856Y-101583390D02*
X80171428Y-102154819D01*
X80171428Y-102154819D02*
X80790475Y-102154819D01*
X82314285Y-101631009D02*
X82457142Y-101678628D01*
X82457142Y-101678628D02*
X82504761Y-101726247D01*
X82504761Y-101726247D02*
X82552380Y-101821485D01*
X82552380Y-101821485D02*
X82552380Y-101964342D01*
X82552380Y-101964342D02*
X82504761Y-102059580D01*
X82504761Y-102059580D02*
X82457142Y-102107200D01*
X82457142Y-102107200D02*
X82361904Y-102154819D01*
X82361904Y-102154819D02*
X81980952Y-102154819D01*
X81980952Y-102154819D02*
X81980952Y-101154819D01*
X81980952Y-101154819D02*
X82314285Y-101154819D01*
X82314285Y-101154819D02*
X82409523Y-101202438D01*
X82409523Y-101202438D02*
X82457142Y-101250057D01*
X82457142Y-101250057D02*
X82504761Y-101345295D01*
X82504761Y-101345295D02*
X82504761Y-101440533D01*
X82504761Y-101440533D02*
X82457142Y-101535771D01*
X82457142Y-101535771D02*
X82409523Y-101583390D01*
X82409523Y-101583390D02*
X82314285Y-101631009D01*
X82314285Y-101631009D02*
X81980952Y-101631009D01*
X83123809Y-102154819D02*
X83028571Y-102107200D01*
X83028571Y-102107200D02*
X82980952Y-102011961D01*
X82980952Y-102011961D02*
X82980952Y-101154819D01*
X83885714Y-102107200D02*
X83790476Y-102154819D01*
X83790476Y-102154819D02*
X83600000Y-102154819D01*
X83600000Y-102154819D02*
X83504762Y-102107200D01*
X83504762Y-102107200D02*
X83457143Y-102011961D01*
X83457143Y-102011961D02*
X83457143Y-101631009D01*
X83457143Y-101631009D02*
X83504762Y-101535771D01*
X83504762Y-101535771D02*
X83600000Y-101488152D01*
X83600000Y-101488152D02*
X83790476Y-101488152D01*
X83790476Y-101488152D02*
X83885714Y-101535771D01*
X83885714Y-101535771D02*
X83933333Y-101631009D01*
X83933333Y-101631009D02*
X83933333Y-101726247D01*
X83933333Y-101726247D02*
X83457143Y-101821485D01*
X84742857Y-102107200D02*
X84647619Y-102154819D01*
X84647619Y-102154819D02*
X84457143Y-102154819D01*
X84457143Y-102154819D02*
X84361905Y-102107200D01*
X84361905Y-102107200D02*
X84314286Y-102011961D01*
X84314286Y-102011961D02*
X84314286Y-101631009D01*
X84314286Y-101631009D02*
X84361905Y-101535771D01*
X84361905Y-101535771D02*
X84457143Y-101488152D01*
X84457143Y-101488152D02*
X84647619Y-101488152D01*
X84647619Y-101488152D02*
X84742857Y-101535771D01*
X84742857Y-101535771D02*
X84790476Y-101631009D01*
X84790476Y-101631009D02*
X84790476Y-101726247D01*
X84790476Y-101726247D02*
X84314286Y-101821485D01*
X85219048Y-101488152D02*
X85219048Y-102488152D01*
X85219048Y-101535771D02*
X85314286Y-101488152D01*
X85314286Y-101488152D02*
X85504762Y-101488152D01*
X85504762Y-101488152D02*
X85600000Y-101535771D01*
X85600000Y-101535771D02*
X85647619Y-101583390D01*
X85647619Y-101583390D02*
X85695238Y-101678628D01*
X85695238Y-101678628D02*
X85695238Y-101964342D01*
X85695238Y-101964342D02*
X85647619Y-102059580D01*
X85647619Y-102059580D02*
X85600000Y-102107200D01*
X85600000Y-102107200D02*
X85504762Y-102154819D01*
X85504762Y-102154819D02*
X85314286Y-102154819D01*
X85314286Y-102154819D02*
X85219048Y-102107200D01*
X86076191Y-102107200D02*
X86219048Y-102154819D01*
X86219048Y-102154819D02*
X86457143Y-102154819D01*
X86457143Y-102154819D02*
X86552381Y-102107200D01*
X86552381Y-102107200D02*
X86600000Y-102059580D01*
X86600000Y-102059580D02*
X86647619Y-101964342D01*
X86647619Y-101964342D02*
X86647619Y-101869104D01*
X86647619Y-101869104D02*
X86600000Y-101773866D01*
X86600000Y-101773866D02*
X86552381Y-101726247D01*
X86552381Y-101726247D02*
X86457143Y-101678628D01*
X86457143Y-101678628D02*
X86266667Y-101631009D01*
X86266667Y-101631009D02*
X86171429Y-101583390D01*
X86171429Y-101583390D02*
X86123810Y-101535771D01*
X86123810Y-101535771D02*
X86076191Y-101440533D01*
X86076191Y-101440533D02*
X86076191Y-101345295D01*
X86076191Y-101345295D02*
X86123810Y-101250057D01*
X86123810Y-101250057D02*
X86171429Y-101202438D01*
X86171429Y-101202438D02*
X86266667Y-101154819D01*
X86266667Y-101154819D02*
X86504762Y-101154819D01*
X86504762Y-101154819D02*
X86647619Y-101202438D01*
X87219048Y-102154819D02*
X87123810Y-102107200D01*
X87123810Y-102107200D02*
X87076191Y-102059580D01*
X87076191Y-102059580D02*
X87028572Y-101964342D01*
X87028572Y-101964342D02*
X87028572Y-101678628D01*
X87028572Y-101678628D02*
X87076191Y-101583390D01*
X87076191Y-101583390D02*
X87123810Y-101535771D01*
X87123810Y-101535771D02*
X87219048Y-101488152D01*
X87219048Y-101488152D02*
X87361905Y-101488152D01*
X87361905Y-101488152D02*
X87457143Y-101535771D01*
X87457143Y-101535771D02*
X87504762Y-101583390D01*
X87504762Y-101583390D02*
X87552381Y-101678628D01*
X87552381Y-101678628D02*
X87552381Y-101964342D01*
X87552381Y-101964342D02*
X87504762Y-102059580D01*
X87504762Y-102059580D02*
X87457143Y-102107200D01*
X87457143Y-102107200D02*
X87361905Y-102154819D01*
X87361905Y-102154819D02*
X87219048Y-102154819D01*
X88409524Y-101488152D02*
X88409524Y-102154819D01*
X87980953Y-101488152D02*
X87980953Y-102011961D01*
X87980953Y-102011961D02*
X88028572Y-102107200D01*
X88028572Y-102107200D02*
X88123810Y-102154819D01*
X88123810Y-102154819D02*
X88266667Y-102154819D01*
X88266667Y-102154819D02*
X88361905Y-102107200D01*
X88361905Y-102107200D02*
X88409524Y-102059580D01*
X88885715Y-101488152D02*
X88885715Y-102154819D01*
X88885715Y-101583390D02*
X88933334Y-101535771D01*
X88933334Y-101535771D02*
X89028572Y-101488152D01*
X89028572Y-101488152D02*
X89171429Y-101488152D01*
X89171429Y-101488152D02*
X89266667Y-101535771D01*
X89266667Y-101535771D02*
X89314286Y-101631009D01*
X89314286Y-101631009D02*
X89314286Y-102154819D01*
X90219048Y-102154819D02*
X90219048Y-101154819D01*
X90219048Y-102107200D02*
X90123810Y-102154819D01*
X90123810Y-102154819D02*
X89933334Y-102154819D01*
X89933334Y-102154819D02*
X89838096Y-102107200D01*
X89838096Y-102107200D02*
X89790477Y-102059580D01*
X89790477Y-102059580D02*
X89742858Y-101964342D01*
X89742858Y-101964342D02*
X89742858Y-101678628D01*
X89742858Y-101678628D02*
X89790477Y-101583390D01*
X89790477Y-101583390D02*
X89838096Y-101535771D01*
X89838096Y-101535771D02*
X89933334Y-101488152D01*
X89933334Y-101488152D02*
X90123810Y-101488152D01*
X90123810Y-101488152D02*
X90219048Y-101535771D01*
X82385714Y-102860057D02*
X82433333Y-102812438D01*
X82433333Y-102812438D02*
X82528571Y-102764819D01*
X82528571Y-102764819D02*
X82766666Y-102764819D01*
X82766666Y-102764819D02*
X82861904Y-102812438D01*
X82861904Y-102812438D02*
X82909523Y-102860057D01*
X82909523Y-102860057D02*
X82957142Y-102955295D01*
X82957142Y-102955295D02*
X82957142Y-103050533D01*
X82957142Y-103050533D02*
X82909523Y-103193390D01*
X82909523Y-103193390D02*
X82338095Y-103764819D01*
X82338095Y-103764819D02*
X82957142Y-103764819D01*
X83576190Y-102764819D02*
X83671428Y-102764819D01*
X83671428Y-102764819D02*
X83766666Y-102812438D01*
X83766666Y-102812438D02*
X83814285Y-102860057D01*
X83814285Y-102860057D02*
X83861904Y-102955295D01*
X83861904Y-102955295D02*
X83909523Y-103145771D01*
X83909523Y-103145771D02*
X83909523Y-103383866D01*
X83909523Y-103383866D02*
X83861904Y-103574342D01*
X83861904Y-103574342D02*
X83814285Y-103669580D01*
X83814285Y-103669580D02*
X83766666Y-103717200D01*
X83766666Y-103717200D02*
X83671428Y-103764819D01*
X83671428Y-103764819D02*
X83576190Y-103764819D01*
X83576190Y-103764819D02*
X83480952Y-103717200D01*
X83480952Y-103717200D02*
X83433333Y-103669580D01*
X83433333Y-103669580D02*
X83385714Y-103574342D01*
X83385714Y-103574342D02*
X83338095Y-103383866D01*
X83338095Y-103383866D02*
X83338095Y-103145771D01*
X83338095Y-103145771D02*
X83385714Y-102955295D01*
X83385714Y-102955295D02*
X83433333Y-102860057D01*
X83433333Y-102860057D02*
X83480952Y-102812438D01*
X83480952Y-102812438D02*
X83576190Y-102764819D01*
X84290476Y-102860057D02*
X84338095Y-102812438D01*
X84338095Y-102812438D02*
X84433333Y-102764819D01*
X84433333Y-102764819D02*
X84671428Y-102764819D01*
X84671428Y-102764819D02*
X84766666Y-102812438D01*
X84766666Y-102812438D02*
X84814285Y-102860057D01*
X84814285Y-102860057D02*
X84861904Y-102955295D01*
X84861904Y-102955295D02*
X84861904Y-103050533D01*
X84861904Y-103050533D02*
X84814285Y-103193390D01*
X84814285Y-103193390D02*
X84242857Y-103764819D01*
X84242857Y-103764819D02*
X84861904Y-103764819D01*
X85195238Y-102764819D02*
X85814285Y-102764819D01*
X85814285Y-102764819D02*
X85480952Y-103145771D01*
X85480952Y-103145771D02*
X85623809Y-103145771D01*
X85623809Y-103145771D02*
X85719047Y-103193390D01*
X85719047Y-103193390D02*
X85766666Y-103241009D01*
X85766666Y-103241009D02*
X85814285Y-103336247D01*
X85814285Y-103336247D02*
X85814285Y-103574342D01*
X85814285Y-103574342D02*
X85766666Y-103669580D01*
X85766666Y-103669580D02*
X85719047Y-103717200D01*
X85719047Y-103717200D02*
X85623809Y-103764819D01*
X85623809Y-103764819D02*
X85338095Y-103764819D01*
X85338095Y-103764819D02*
X85242857Y-103717200D01*
X85242857Y-103717200D02*
X85195238Y-103669580D01*
X80361904Y-105654819D02*
X80361904Y-104654819D01*
X80361904Y-105035771D02*
X80457142Y-104988152D01*
X80457142Y-104988152D02*
X80647618Y-104988152D01*
X80647618Y-104988152D02*
X80742856Y-105035771D01*
X80742856Y-105035771D02*
X80790475Y-105083390D01*
X80790475Y-105083390D02*
X80838094Y-105178628D01*
X80838094Y-105178628D02*
X80838094Y-105464342D01*
X80838094Y-105464342D02*
X80790475Y-105559580D01*
X80790475Y-105559580D02*
X80742856Y-105607200D01*
X80742856Y-105607200D02*
X80647618Y-105654819D01*
X80647618Y-105654819D02*
X80457142Y-105654819D01*
X80457142Y-105654819D02*
X80361904Y-105607200D01*
X81409523Y-105654819D02*
X81314285Y-105607200D01*
X81314285Y-105607200D02*
X81266666Y-105559580D01*
X81266666Y-105559580D02*
X81219047Y-105464342D01*
X81219047Y-105464342D02*
X81219047Y-105178628D01*
X81219047Y-105178628D02*
X81266666Y-105083390D01*
X81266666Y-105083390D02*
X81314285Y-105035771D01*
X81314285Y-105035771D02*
X81409523Y-104988152D01*
X81409523Y-104988152D02*
X81552380Y-104988152D01*
X81552380Y-104988152D02*
X81647618Y-105035771D01*
X81647618Y-105035771D02*
X81695237Y-105083390D01*
X81695237Y-105083390D02*
X81742856Y-105178628D01*
X81742856Y-105178628D02*
X81742856Y-105464342D01*
X81742856Y-105464342D02*
X81695237Y-105559580D01*
X81695237Y-105559580D02*
X81647618Y-105607200D01*
X81647618Y-105607200D02*
X81552380Y-105654819D01*
X81552380Y-105654819D02*
X81409523Y-105654819D01*
X82599999Y-105654819D02*
X82599999Y-105131009D01*
X82599999Y-105131009D02*
X82552380Y-105035771D01*
X82552380Y-105035771D02*
X82457142Y-104988152D01*
X82457142Y-104988152D02*
X82266666Y-104988152D01*
X82266666Y-104988152D02*
X82171428Y-105035771D01*
X82599999Y-105607200D02*
X82504761Y-105654819D01*
X82504761Y-105654819D02*
X82266666Y-105654819D01*
X82266666Y-105654819D02*
X82171428Y-105607200D01*
X82171428Y-105607200D02*
X82123809Y-105511961D01*
X82123809Y-105511961D02*
X82123809Y-105416723D01*
X82123809Y-105416723D02*
X82171428Y-105321485D01*
X82171428Y-105321485D02*
X82266666Y-105273866D01*
X82266666Y-105273866D02*
X82504761Y-105273866D01*
X82504761Y-105273866D02*
X82599999Y-105226247D01*
X83076190Y-105654819D02*
X83076190Y-104988152D01*
X83076190Y-105178628D02*
X83123809Y-105083390D01*
X83123809Y-105083390D02*
X83171428Y-105035771D01*
X83171428Y-105035771D02*
X83266666Y-104988152D01*
X83266666Y-104988152D02*
X83361904Y-104988152D01*
X84123809Y-105654819D02*
X84123809Y-104654819D01*
X84123809Y-105607200D02*
X84028571Y-105654819D01*
X84028571Y-105654819D02*
X83838095Y-105654819D01*
X83838095Y-105654819D02*
X83742857Y-105607200D01*
X83742857Y-105607200D02*
X83695238Y-105559580D01*
X83695238Y-105559580D02*
X83647619Y-105464342D01*
X83647619Y-105464342D02*
X83647619Y-105178628D01*
X83647619Y-105178628D02*
X83695238Y-105083390D01*
X83695238Y-105083390D02*
X83742857Y-105035771D01*
X83742857Y-105035771D02*
X83838095Y-104988152D01*
X83838095Y-104988152D02*
X84028571Y-104988152D01*
X84028571Y-104988152D02*
X84123809Y-105035771D01*
X85885714Y-105654819D02*
X85314286Y-105654819D01*
X85600000Y-105654819D02*
X85600000Y-104654819D01*
X85600000Y-104654819D02*
X85504762Y-104797676D01*
X85504762Y-104797676D02*
X85409524Y-104892914D01*
X85409524Y-104892914D02*
X85314286Y-104940533D01*
X87028571Y-104607200D02*
X86171429Y-105892914D01*
X87314286Y-104750057D02*
X87361905Y-104702438D01*
X87361905Y-104702438D02*
X87457143Y-104654819D01*
X87457143Y-104654819D02*
X87695238Y-104654819D01*
X87695238Y-104654819D02*
X87790476Y-104702438D01*
X87790476Y-104702438D02*
X87838095Y-104750057D01*
X87838095Y-104750057D02*
X87885714Y-104845295D01*
X87885714Y-104845295D02*
X87885714Y-104940533D01*
X87885714Y-104940533D02*
X87838095Y-105083390D01*
X87838095Y-105083390D02*
X87266667Y-105654819D01*
X87266667Y-105654819D02*
X87885714Y-105654819D01*
X84636666Y-134134819D02*
X84636666Y-134849104D01*
X84636666Y-134849104D02*
X84589047Y-134991961D01*
X84589047Y-134991961D02*
X84493809Y-135087200D01*
X84493809Y-135087200D02*
X84350952Y-135134819D01*
X84350952Y-135134819D02*
X84255714Y-135134819D01*
X85017619Y-134134819D02*
X85684285Y-134134819D01*
X85684285Y-134134819D02*
X85255714Y-135134819D01*
X74636666Y-134134819D02*
X74636666Y-134849104D01*
X74636666Y-134849104D02*
X74589047Y-134991961D01*
X74589047Y-134991961D02*
X74493809Y-135087200D01*
X74493809Y-135087200D02*
X74350952Y-135134819D01*
X74350952Y-135134819D02*
X74255714Y-135134819D01*
X75541428Y-134134819D02*
X75350952Y-134134819D01*
X75350952Y-134134819D02*
X75255714Y-134182438D01*
X75255714Y-134182438D02*
X75208095Y-134230057D01*
X75208095Y-134230057D02*
X75112857Y-134372914D01*
X75112857Y-134372914D02*
X75065238Y-134563390D01*
X75065238Y-134563390D02*
X75065238Y-134944342D01*
X75065238Y-134944342D02*
X75112857Y-135039580D01*
X75112857Y-135039580D02*
X75160476Y-135087200D01*
X75160476Y-135087200D02*
X75255714Y-135134819D01*
X75255714Y-135134819D02*
X75446190Y-135134819D01*
X75446190Y-135134819D02*
X75541428Y-135087200D01*
X75541428Y-135087200D02*
X75589047Y-135039580D01*
X75589047Y-135039580D02*
X75636666Y-134944342D01*
X75636666Y-134944342D02*
X75636666Y-134706247D01*
X75636666Y-134706247D02*
X75589047Y-134611009D01*
X75589047Y-134611009D02*
X75541428Y-134563390D01*
X75541428Y-134563390D02*
X75446190Y-134515771D01*
X75446190Y-134515771D02*
X75255714Y-134515771D01*
X75255714Y-134515771D02*
X75160476Y-134563390D01*
X75160476Y-134563390D02*
X75112857Y-134611009D01*
X75112857Y-134611009D02*
X75065238Y-134706247D01*
X74636666Y-119634819D02*
X74636666Y-120349104D01*
X74636666Y-120349104D02*
X74589047Y-120491961D01*
X74589047Y-120491961D02*
X74493809Y-120587200D01*
X74493809Y-120587200D02*
X74350952Y-120634819D01*
X74350952Y-120634819D02*
X74255714Y-120634819D01*
X75636666Y-120634819D02*
X75065238Y-120634819D01*
X75350952Y-120634819D02*
X75350952Y-119634819D01*
X75350952Y-119634819D02*
X75255714Y-119777676D01*
X75255714Y-119777676D02*
X75160476Y-119872914D01*
X75160476Y-119872914D02*
X75065238Y-119920533D01*
X90954819Y-46211904D02*
X90954819Y-45640476D01*
X91954819Y-45926190D02*
X90954819Y-45926190D01*
X90954819Y-45307142D02*
X91764342Y-45307142D01*
X91764342Y-45307142D02*
X91859580Y-45259523D01*
X91859580Y-45259523D02*
X91907200Y-45211904D01*
X91907200Y-45211904D02*
X91954819Y-45116666D01*
X91954819Y-45116666D02*
X91954819Y-44926190D01*
X91954819Y-44926190D02*
X91907200Y-44830952D01*
X91907200Y-44830952D02*
X91859580Y-44783333D01*
X91859580Y-44783333D02*
X91764342Y-44735714D01*
X91764342Y-44735714D02*
X90954819Y-44735714D01*
X91954819Y-44259523D02*
X90954819Y-44259523D01*
X90954819Y-44259523D02*
X91954819Y-43688095D01*
X91954819Y-43688095D02*
X90954819Y-43688095D01*
X91431009Y-43211904D02*
X91431009Y-42878571D01*
X91954819Y-42735714D02*
X91954819Y-43211904D01*
X91954819Y-43211904D02*
X90954819Y-43211904D01*
X90954819Y-43211904D02*
X90954819Y-42735714D01*
X91954819Y-41783333D02*
X91954819Y-42354761D01*
X91954819Y-42069047D02*
X90954819Y-42069047D01*
X90954819Y-42069047D02*
X91097676Y-42164285D01*
X91097676Y-42164285D02*
X91192914Y-42259523D01*
X91192914Y-42259523D02*
X91240533Y-42354761D01*
X87666667Y-130907200D02*
X87809524Y-130954819D01*
X87809524Y-130954819D02*
X88047619Y-130954819D01*
X88047619Y-130954819D02*
X88142857Y-130907200D01*
X88142857Y-130907200D02*
X88190476Y-130859580D01*
X88190476Y-130859580D02*
X88238095Y-130764342D01*
X88238095Y-130764342D02*
X88238095Y-130669104D01*
X88238095Y-130669104D02*
X88190476Y-130573866D01*
X88190476Y-130573866D02*
X88142857Y-130526247D01*
X88142857Y-130526247D02*
X88047619Y-130478628D01*
X88047619Y-130478628D02*
X87857143Y-130431009D01*
X87857143Y-130431009D02*
X87761905Y-130383390D01*
X87761905Y-130383390D02*
X87714286Y-130335771D01*
X87714286Y-130335771D02*
X87666667Y-130240533D01*
X87666667Y-130240533D02*
X87666667Y-130145295D01*
X87666667Y-130145295D02*
X87714286Y-130050057D01*
X87714286Y-130050057D02*
X87761905Y-130002438D01*
X87761905Y-130002438D02*
X87857143Y-129954819D01*
X87857143Y-129954819D02*
X88095238Y-129954819D01*
X88095238Y-129954819D02*
X88238095Y-130002438D01*
X88571429Y-129954819D02*
X88809524Y-130954819D01*
X88809524Y-130954819D02*
X89000000Y-130240533D01*
X89000000Y-130240533D02*
X89190476Y-130954819D01*
X89190476Y-130954819D02*
X89428572Y-129954819D01*
X90333333Y-130954819D02*
X89761905Y-130954819D01*
X90047619Y-130954819D02*
X90047619Y-129954819D01*
X90047619Y-129954819D02*
X89952381Y-130097676D01*
X89952381Y-130097676D02*
X89857143Y-130192914D01*
X89857143Y-130192914D02*
X89761905Y-130240533D01*
X87436779Y-122388866D02*
X88198684Y-122388866D01*
X87817731Y-122769819D02*
X87817731Y-122007914D01*
X85238095Y-96454819D02*
X85238095Y-95454819D01*
X85238095Y-95931009D02*
X85809523Y-95931009D01*
X85809523Y-96454819D02*
X85809523Y-95454819D01*
X86238095Y-95550057D02*
X86285714Y-95502438D01*
X86285714Y-95502438D02*
X86380952Y-95454819D01*
X86380952Y-95454819D02*
X86619047Y-95454819D01*
X86619047Y-95454819D02*
X86714285Y-95502438D01*
X86714285Y-95502438D02*
X86761904Y-95550057D01*
X86761904Y-95550057D02*
X86809523Y-95645295D01*
X86809523Y-95645295D02*
X86809523Y-95740533D01*
X86809523Y-95740533D02*
X86761904Y-95883390D01*
X86761904Y-95883390D02*
X86190476Y-96454819D01*
X86190476Y-96454819D02*
X86809523Y-96454819D01*
X84933333Y-120554819D02*
X84600000Y-120078628D01*
X84361905Y-120554819D02*
X84361905Y-119554819D01*
X84361905Y-119554819D02*
X84742857Y-119554819D01*
X84742857Y-119554819D02*
X84838095Y-119602438D01*
X84838095Y-119602438D02*
X84885714Y-119650057D01*
X84885714Y-119650057D02*
X84933333Y-119745295D01*
X84933333Y-119745295D02*
X84933333Y-119888152D01*
X84933333Y-119888152D02*
X84885714Y-119983390D01*
X84885714Y-119983390D02*
X84838095Y-120031009D01*
X84838095Y-120031009D02*
X84742857Y-120078628D01*
X84742857Y-120078628D02*
X84361905Y-120078628D01*
X85266667Y-119554819D02*
X85933333Y-119554819D01*
X85933333Y-119554819D02*
X85504762Y-120554819D01*
X91859580Y-66664285D02*
X91907200Y-66711904D01*
X91907200Y-66711904D02*
X91954819Y-66854761D01*
X91954819Y-66854761D02*
X91954819Y-66949999D01*
X91954819Y-66949999D02*
X91907200Y-67092856D01*
X91907200Y-67092856D02*
X91811961Y-67188094D01*
X91811961Y-67188094D02*
X91716723Y-67235713D01*
X91716723Y-67235713D02*
X91526247Y-67283332D01*
X91526247Y-67283332D02*
X91383390Y-67283332D01*
X91383390Y-67283332D02*
X91192914Y-67235713D01*
X91192914Y-67235713D02*
X91097676Y-67188094D01*
X91097676Y-67188094D02*
X91002438Y-67092856D01*
X91002438Y-67092856D02*
X90954819Y-66949999D01*
X90954819Y-66949999D02*
X90954819Y-66854761D01*
X90954819Y-66854761D02*
X91002438Y-66711904D01*
X91002438Y-66711904D02*
X91050057Y-66664285D01*
X91954819Y-66235713D02*
X90954819Y-66235713D01*
X91431009Y-66235713D02*
X91431009Y-65664285D01*
X91954819Y-65664285D02*
X90954819Y-65664285D01*
X90954819Y-64997618D02*
X90954819Y-64807142D01*
X90954819Y-64807142D02*
X91002438Y-64711904D01*
X91002438Y-64711904D02*
X91097676Y-64616666D01*
X91097676Y-64616666D02*
X91288152Y-64569047D01*
X91288152Y-64569047D02*
X91621485Y-64569047D01*
X91621485Y-64569047D02*
X91811961Y-64616666D01*
X91811961Y-64616666D02*
X91907200Y-64711904D01*
X91907200Y-64711904D02*
X91954819Y-64807142D01*
X91954819Y-64807142D02*
X91954819Y-64997618D01*
X91954819Y-64997618D02*
X91907200Y-65092856D01*
X91907200Y-65092856D02*
X91811961Y-65188094D01*
X91811961Y-65188094D02*
X91621485Y-65235713D01*
X91621485Y-65235713D02*
X91288152Y-65235713D01*
X91288152Y-65235713D02*
X91097676Y-65188094D01*
X91097676Y-65188094D02*
X91002438Y-65092856D01*
X91002438Y-65092856D02*
X90954819Y-64997618D01*
X91954819Y-63569047D02*
X91478628Y-63902380D01*
X91954819Y-64140475D02*
X90954819Y-64140475D01*
X90954819Y-64140475D02*
X90954819Y-63759523D01*
X90954819Y-63759523D02*
X91002438Y-63664285D01*
X91002438Y-63664285D02*
X91050057Y-63616666D01*
X91050057Y-63616666D02*
X91145295Y-63569047D01*
X91145295Y-63569047D02*
X91288152Y-63569047D01*
X91288152Y-63569047D02*
X91383390Y-63616666D01*
X91383390Y-63616666D02*
X91431009Y-63664285D01*
X91431009Y-63664285D02*
X91478628Y-63759523D01*
X91478628Y-63759523D02*
X91478628Y-64140475D01*
X91954819Y-63140475D02*
X90954819Y-63140475D01*
X90954819Y-63140475D02*
X90954819Y-62902380D01*
X90954819Y-62902380D02*
X91002438Y-62759523D01*
X91002438Y-62759523D02*
X91097676Y-62664285D01*
X91097676Y-62664285D02*
X91192914Y-62616666D01*
X91192914Y-62616666D02*
X91383390Y-62569047D01*
X91383390Y-62569047D02*
X91526247Y-62569047D01*
X91526247Y-62569047D02*
X91716723Y-62616666D01*
X91716723Y-62616666D02*
X91811961Y-62664285D01*
X91811961Y-62664285D02*
X91907200Y-62759523D01*
X91907200Y-62759523D02*
X91954819Y-62902380D01*
X91954819Y-62902380D02*
X91954819Y-63140475D01*
X91954819Y-61616666D02*
X91954819Y-62188094D01*
X91954819Y-61902380D02*
X90954819Y-61902380D01*
X90954819Y-61902380D02*
X91097676Y-61997618D01*
X91097676Y-61997618D02*
X91192914Y-62092856D01*
X91192914Y-62092856D02*
X91240533Y-62188094D01*
X90854819Y-119742857D02*
X90378628Y-120076190D01*
X90854819Y-120314285D02*
X89854819Y-120314285D01*
X89854819Y-120314285D02*
X89854819Y-119933333D01*
X89854819Y-119933333D02*
X89902438Y-119838095D01*
X89902438Y-119838095D02*
X89950057Y-119790476D01*
X89950057Y-119790476D02*
X90045295Y-119742857D01*
X90045295Y-119742857D02*
X90188152Y-119742857D01*
X90188152Y-119742857D02*
X90283390Y-119790476D01*
X90283390Y-119790476D02*
X90331009Y-119838095D01*
X90331009Y-119838095D02*
X90378628Y-119933333D01*
X90378628Y-119933333D02*
X90378628Y-120314285D01*
X90854819Y-118790476D02*
X90854819Y-119361904D01*
X90854819Y-119076190D02*
X89854819Y-119076190D01*
X89854819Y-119076190D02*
X89997676Y-119171428D01*
X89997676Y-119171428D02*
X90092914Y-119266666D01*
X90092914Y-119266666D02*
X90140533Y-119361904D01*
X89854819Y-118457142D02*
X89854819Y-117790476D01*
X89854819Y-117790476D02*
X90854819Y-118219047D01*
X91954819Y-86428570D02*
X90954819Y-86428570D01*
X91954819Y-85952380D02*
X90954819Y-85952380D01*
X90954819Y-85952380D02*
X91954819Y-85380952D01*
X91954819Y-85380952D02*
X90954819Y-85380952D01*
X90954819Y-85047618D02*
X91954819Y-84714285D01*
X91954819Y-84714285D02*
X90954819Y-84380952D01*
X91954819Y-83523809D02*
X91954819Y-84095237D01*
X91954819Y-83809523D02*
X90954819Y-83809523D01*
X90954819Y-83809523D02*
X91097676Y-83904761D01*
X91097676Y-83904761D02*
X91192914Y-83999999D01*
X91192914Y-83999999D02*
X91240533Y-84095237D01*
D11*
X84500000Y-135580000D02*
X84500000Y-146080000D01*
X87940000Y-132600000D02*
X87940000Y-133400000D01*
X87940000Y-132600000D02*
X88800000Y-132600000D01*
X88500000Y-146080000D02*
X84500000Y-146080000D01*
X88650000Y-135580000D02*
X84500000Y-135580000D01*
X93500000Y-135580000D02*
X89350000Y-135580000D01*
X93500000Y-135580000D02*
X93500000Y-146080000D01*
X93500000Y-146080000D02*
X89500000Y-146080000D01*
X90800000Y-140080000D02*
G75*
G03*
X90800000Y-140080000I-1800000J0D01*
G01*
X74500000Y-135580000D02*
X74500000Y-146080000D01*
X77940000Y-132600000D02*
X77940000Y-133400000D01*
X77940000Y-132600000D02*
X78800000Y-132600000D01*
X78500000Y-146080000D02*
X74500000Y-146080000D01*
X78650000Y-135580000D02*
X74500000Y-135580000D01*
X83500000Y-135580000D02*
X79350000Y-135580000D01*
X83500000Y-135580000D02*
X83500000Y-146080000D01*
X83500000Y-146080000D02*
X79500000Y-146080000D01*
X80800000Y-140080000D02*
G75*
G03*
X80800000Y-140080000I-1800000J0D01*
G01*
X74500000Y-121080000D02*
X74500000Y-131580000D01*
X77940000Y-118100000D02*
X77940000Y-118900000D01*
X77940000Y-118100000D02*
X78800000Y-118100000D01*
X78500000Y-131580000D02*
X74500000Y-131580000D01*
X78650000Y-121080000D02*
X74500000Y-121080000D01*
X83500000Y-121080000D02*
X79350000Y-121080000D01*
X83500000Y-121080000D02*
X83500000Y-131580000D01*
X83500000Y-131580000D02*
X79500000Y-131580000D01*
X80800000Y-125580000D02*
G75*
G03*
X80800000Y-125580000I-1800000J0D01*
G01*
X79030000Y-49120000D02*
X80629000Y-49120000D01*
X79030000Y-49120000D02*
X79030000Y-45255000D01*
X82371000Y-49120000D02*
X83130000Y-49120000D01*
X84871000Y-49120000D02*
X85630000Y-49120000D01*
X87370000Y-49120000D02*
X88970000Y-49120000D01*
X88970000Y-49120000D02*
X88970000Y-45255000D01*
X79030000Y-40745000D02*
X79030000Y-36880000D01*
X88970000Y-40745000D02*
X88970000Y-36880000D01*
X79030000Y-36880000D02*
X88970000Y-36880000D01*
X85250000Y-121750000D02*
X92750000Y-121750000D01*
X85250000Y-129250000D02*
X85250000Y-121750000D01*
X85250000Y-129250000D02*
X92750000Y-129250000D01*
X92750000Y-129250000D02*
X92750000Y-121750000D01*
X88127064Y-120835000D02*
X87672936Y-120835000D01*
X88127064Y-119365000D02*
X87672936Y-119365000D01*
X90985000Y-115945000D02*
X77015000Y-115945000D01*
X90985000Y-107055000D02*
X90985000Y-115945000D01*
X87175000Y-111500000D02*
X85905000Y-114675000D01*
X85905000Y-114675000D02*
X82095000Y-114675000D01*
X85905000Y-108325000D02*
X87175000Y-111500000D01*
X82095000Y-114675000D02*
X80825000Y-111500000D01*
X82095000Y-108325000D02*
X85905000Y-108325000D01*
X80825000Y-111500000D02*
X82095000Y-108325000D01*
X77015000Y-115945000D02*
X77015000Y-107055000D01*
X77015000Y-107055000D02*
X90985000Y-107055000D01*
X87702654Y-111500000D02*
G75*
G03*
X87702654Y-111500000I-3702654J0D01*
G01*
X78990000Y-69620000D02*
X80589000Y-69620000D01*
X78990000Y-69620000D02*
X78990000Y-65755000D01*
X82331000Y-69620000D02*
X83090000Y-69620000D01*
X84831000Y-69620000D02*
X85590000Y-69620000D01*
X87330000Y-69620000D02*
X88930000Y-69620000D01*
X88930000Y-69620000D02*
X88930000Y-65755000D01*
X78990000Y-61245000D02*
X78990000Y-57380000D01*
X88930000Y-61245000D02*
X88930000Y-57380000D01*
X78990000Y-57380000D02*
X88930000Y-57380000D01*
X91165000Y-119327064D02*
X91165000Y-118872936D01*
X92635000Y-119327064D02*
X92635000Y-118872936D01*
X79030000Y-90170000D02*
X80629000Y-90170000D01*
X79030000Y-90170000D02*
X79030000Y-86305000D01*
X82371000Y-90170000D02*
X83130000Y-90170000D01*
X84871000Y-90170000D02*
X85630000Y-90170000D01*
X87370000Y-90170000D02*
X88970000Y-90170000D01*
X88970000Y-90170000D02*
X88970000Y-86305000D01*
X79030000Y-81795000D02*
X79030000Y-77930000D01*
X88970000Y-81795000D02*
X88970000Y-77930000D01*
X79030000Y-77930000D02*
X88970000Y-77930000D01*
%LPC*%
D12*
X89000000Y-133600000D03*
D13*
X89000000Y-145000000D03*
X89000000Y-136700000D03*
D12*
X79000000Y-133600000D03*
D13*
X79000000Y-145000000D03*
X79000000Y-136700000D03*
D12*
X79000000Y-119100000D03*
D13*
X79000000Y-130500000D03*
X79000000Y-122200000D03*
D14*
X79600000Y-43000000D03*
X88400000Y-43000000D03*
D15*
X81500000Y-50000000D03*
X84000000Y-50000000D03*
X86500000Y-50000000D03*
D16*
X86460000Y-125500000D03*
D17*
X86460000Y-128040000D03*
X86460000Y-122960000D03*
X91540000Y-128040000D03*
X91540000Y-122960000D03*
X89000000Y-128200000D03*
X89000000Y-122800000D03*
D18*
X90500000Y-96000000D03*
G36*
G01*
X89500000Y-119650000D02*
X89500000Y-120550000D01*
G75*
G02*
X89250000Y-120800000I-250000J0D01*
G01*
X88550000Y-120800000D01*
G75*
G02*
X88300000Y-120550000I0J250000D01*
G01*
X88300000Y-119650000D01*
G75*
G02*
X88550000Y-119400000I250000J0D01*
G01*
X89250000Y-119400000D01*
G75*
G02*
X89500000Y-119650000I0J-250000D01*
G01*
G37*
G36*
G01*
X87500000Y-119650000D02*
X87500000Y-120550000D01*
G75*
G02*
X87250000Y-120800000I-250000J0D01*
G01*
X86550000Y-120800000D01*
G75*
G02*
X86300000Y-120550000I0J250000D01*
G01*
X86300000Y-119650000D01*
G75*
G02*
X86550000Y-119400000I250000J0D01*
G01*
X87250000Y-119400000D01*
G75*
G02*
X87500000Y-119650000I0J-250000D01*
G01*
G37*
D19*
X88700000Y-111500000D03*
X84000000Y-111500000D03*
X79300000Y-111500000D03*
D14*
X79560000Y-63500000D03*
X88360000Y-63500000D03*
D15*
X81460000Y-70500000D03*
X83960000Y-70500000D03*
X86460000Y-70500000D03*
G36*
G01*
X92350000Y-120700000D02*
X91450000Y-120700000D01*
G75*
G02*
X91200000Y-120450000I0J250000D01*
G01*
X91200000Y-119750000D01*
G75*
G02*
X91450000Y-119500000I250000J0D01*
G01*
X92350000Y-119500000D01*
G75*
G02*
X92600000Y-119750000I0J-250000D01*
G01*
X92600000Y-120450000D01*
G75*
G02*
X92350000Y-120700000I-250000J0D01*
G01*
G37*
G36*
G01*
X92350000Y-118700000D02*
X91450000Y-118700000D01*
G75*
G02*
X91200000Y-118450000I0J250000D01*
G01*
X91200000Y-117750000D01*
G75*
G02*
X91450000Y-117500000I250000J0D01*
G01*
X92350000Y-117500000D01*
G75*
G02*
X92600000Y-117750000I0J-250000D01*
G01*
X92600000Y-118450000D01*
G75*
G02*
X92350000Y-118700000I-250000J0D01*
G01*
G37*
D14*
X79600000Y-84050000D03*
X88400000Y-84050000D03*
D15*
X81500000Y-91050000D03*
X84000000Y-91050000D03*
X86500000Y-91050000D03*
D20*
X92200000Y-49500000D03*
D21*
X92200000Y-52040000D03*
X92200000Y-54580000D03*
X92200000Y-57120000D03*
X92200000Y-59660000D03*
X92200000Y-62200000D03*
D20*
X75750000Y-67800000D03*
D21*
X75750000Y-70340000D03*
X75750000Y-72880000D03*
X75750000Y-75420000D03*
X75750000Y-77960000D03*
X75750000Y-80500000D03*
X75750000Y-83040000D03*
X75750000Y-85580000D03*
%LPD*%
M02*
