G04 #@! TF.GenerationSoftware,KiCad,Pcbnew,8.0.6-8.0.6-0~ubuntu22.04.1*
G04 #@! TF.CreationDate,2025-04-15T21:33:46+01:00*
G04 #@! TF.ProjectId,RP2040-VCO,52503230-3430-42d5-9643-4f2e6b696361,rev?*
G04 #@! TF.SameCoordinates,Original*
G04 #@! TF.FileFunction,Copper,L2,Bot*
G04 #@! TF.FilePolarity,Positive*
%FSLAX46Y46*%
G04 Gerber Fmt 4.6, Leading zero omitted, Abs format (unit mm)*
G04 Created by KiCad (PCBNEW 8.0.6-8.0.6-0~ubuntu22.04.1) date 2025-04-15 21:33:46*
%MOMM*%
%LPD*%
G01*
G04 APERTURE LIST*
G04 #@! TA.AperFunction,ComponentPad*
%ADD10R,1.930000X1.830000*%
G04 #@! TD*
G04 #@! TA.AperFunction,ComponentPad*
%ADD11C,2.130000*%
G04 #@! TD*
G04 #@! TA.AperFunction,WasherPad*
%ADD12C,4.000000*%
G04 #@! TD*
G04 #@! TA.AperFunction,ComponentPad*
%ADD13C,1.800000*%
G04 #@! TD*
G04 #@! TA.AperFunction,WasherPad*
%ADD14C,1.500000*%
G04 #@! TD*
G04 #@! TA.AperFunction,ComponentPad*
%ADD15C,1.524000*%
G04 #@! TD*
G04 #@! TA.AperFunction,ComponentPad*
%ADD16O,3.200000X5.000000*%
G04 #@! TD*
G04 #@! TA.AperFunction,ComponentPad*
%ADD17R,1.700000X1.700000*%
G04 #@! TD*
G04 #@! TA.AperFunction,ComponentPad*
%ADD18O,1.700000X1.700000*%
G04 #@! TD*
G04 #@! TA.AperFunction,ViaPad*
%ADD19C,0.800000*%
G04 #@! TD*
G04 #@! TA.AperFunction,Conductor*
%ADD20C,0.300000*%
G04 #@! TD*
G04 APERTURE END LIST*
D10*
X89000000Y-133600000D03*
D11*
X89000000Y-145000000D03*
X89000000Y-136700000D03*
D10*
X79000000Y-133600000D03*
D11*
X79000000Y-145000000D03*
X79000000Y-136700000D03*
D10*
X79000000Y-119100000D03*
D11*
X79000000Y-130500000D03*
X79000000Y-122200000D03*
D12*
X79600000Y-43000000D03*
X88400000Y-43000000D03*
D13*
X81500000Y-50000000D03*
X84000000Y-50000000D03*
X86500000Y-50000000D03*
D14*
X86460000Y-125500000D03*
D15*
X86460000Y-128040000D03*
X86460000Y-122960000D03*
X91540000Y-128040000D03*
X91540000Y-122960000D03*
X89000000Y-128200000D03*
X89000000Y-122800000D03*
D16*
X88700000Y-111500000D03*
X84000000Y-111500000D03*
X79300000Y-111500000D03*
D12*
X79560000Y-63500000D03*
X88360000Y-63500000D03*
D13*
X81460000Y-70500000D03*
X83960000Y-70500000D03*
X86460000Y-70500000D03*
D12*
X79600000Y-84050000D03*
X88400000Y-84050000D03*
D13*
X81500000Y-91050000D03*
X84000000Y-91050000D03*
X86500000Y-91050000D03*
D17*
X92200000Y-49500000D03*
D18*
X92200000Y-52040000D03*
X92200000Y-54580000D03*
X92200000Y-57120000D03*
X92200000Y-59660000D03*
X92200000Y-62200000D03*
D17*
X75750000Y-67800000D03*
D18*
X75750000Y-70340000D03*
X75750000Y-72880000D03*
X75750000Y-75420000D03*
X75750000Y-77960000D03*
X75750000Y-80500000D03*
X75750000Y-83040000D03*
X75750000Y-85580000D03*
D19*
X82000000Y-66600000D03*
X82000000Y-67500000D03*
X81500000Y-117800000D03*
X91900000Y-116800000D03*
D20*
X78700000Y-117800000D02*
X74500000Y-113600000D01*
X81500000Y-117800000D02*
X78700000Y-117800000D01*
X74500000Y-86830000D02*
X75750000Y-85580000D01*
X74500000Y-113600000D02*
X74500000Y-86830000D01*
X81500000Y-50000000D02*
X82750000Y-51250000D01*
X88200000Y-88800000D02*
X88200000Y-89000000D01*
X92200000Y-62200000D02*
X92200000Y-64760000D01*
X82750000Y-52750000D02*
X92200000Y-62200000D01*
X82750000Y-69210000D02*
X81460000Y-70500000D01*
X88200000Y-89000000D02*
X88200000Y-106600000D01*
X85710489Y-86310489D02*
X88200000Y-88800000D01*
X90750000Y-86450000D02*
X90750000Y-66210000D01*
X88200000Y-89000000D02*
X90750000Y-86450000D01*
X90750000Y-66210000D02*
X92200000Y-64760000D01*
X91900000Y-110300000D02*
X91900000Y-116800000D01*
X82750000Y-51250000D02*
X82750000Y-69210000D01*
X82750000Y-51250000D02*
X82750000Y-52750000D01*
X88200000Y-106600000D02*
X91900000Y-110300000D01*
X82000000Y-82800000D02*
X82000000Y-88782924D01*
X80250489Y-90532435D02*
X80250489Y-106150489D01*
X75750000Y-80500000D02*
X79700000Y-80500000D01*
X79700000Y-80500000D02*
X82000000Y-82800000D01*
X83350489Y-117050489D02*
X85740489Y-117050489D01*
X82000000Y-88782924D02*
X80250489Y-90532435D01*
X91540000Y-122850000D02*
X91540000Y-122960000D01*
X81600000Y-115300000D02*
X83350489Y-117050489D01*
X85740489Y-117050489D02*
X91540000Y-122850000D01*
X80250489Y-106150489D02*
X81600000Y-107500000D01*
X81600000Y-107500000D02*
X81600000Y-115300000D01*
X82750489Y-80250489D02*
X80460000Y-77960000D01*
X82750489Y-105550489D02*
X82750489Y-80250489D01*
X80460000Y-77960000D02*
X75750000Y-77960000D01*
X88700000Y-111500000D02*
X82750489Y-105550489D01*
X77500000Y-111500000D02*
X79300000Y-111500000D01*
X76949511Y-84239511D02*
X76949511Y-99249511D01*
X76949511Y-99249511D02*
X76949511Y-110949511D01*
X76949511Y-110949511D02*
X77500000Y-111500000D01*
X75750000Y-83040000D02*
X76949511Y-84239511D01*
G04 #@! TA.AperFunction,Conductor*
G36*
X93916621Y-36545502D02*
G01*
X93963114Y-36599158D01*
X93974500Y-36651500D01*
X93974500Y-146348500D01*
X93954498Y-146416621D01*
X93900842Y-146463114D01*
X93848500Y-146474500D01*
X90037947Y-146474500D01*
X89969826Y-146454498D01*
X89923333Y-146400842D01*
X89913229Y-146330568D01*
X89942723Y-146265988D01*
X89956117Y-146252689D01*
X90116073Y-146116073D01*
X90276922Y-145927743D01*
X90276925Y-145927740D01*
X90406334Y-145716563D01*
X90501115Y-145487742D01*
X90558934Y-145246911D01*
X90578366Y-145000000D01*
X90558934Y-144753089D01*
X90501115Y-144512258D01*
X90406334Y-144283437D01*
X90276925Y-144072260D01*
X90276922Y-144072256D01*
X90116073Y-143883926D01*
X89927743Y-143723077D01*
X89927741Y-143723076D01*
X89927740Y-143723075D01*
X89716563Y-143593666D01*
X89487742Y-143498885D01*
X89246911Y-143441066D01*
X89246912Y-143441066D01*
X89000000Y-143421634D01*
X88753088Y-143441066D01*
X88512257Y-143498885D01*
X88283438Y-143593665D01*
X88072258Y-143723076D01*
X88072256Y-143723077D01*
X87883926Y-143883926D01*
X87723077Y-144072256D01*
X87723076Y-144072258D01*
X87593665Y-144283438D01*
X87498885Y-144512257D01*
X87441066Y-144753088D01*
X87421634Y-145000000D01*
X87441066Y-145246911D01*
X87498885Y-145487742D01*
X87593665Y-145716561D01*
X87723076Y-145927741D01*
X87723077Y-145927743D01*
X87883926Y-146116073D01*
X88043883Y-146252689D01*
X88082693Y-146312139D01*
X88083199Y-146383134D01*
X88045243Y-146443133D01*
X87980875Y-146473086D01*
X87962053Y-146474500D01*
X80037947Y-146474500D01*
X79969826Y-146454498D01*
X79923333Y-146400842D01*
X79913229Y-146330568D01*
X79942723Y-146265988D01*
X79956117Y-146252689D01*
X80116073Y-146116073D01*
X80276922Y-145927743D01*
X80276925Y-145927740D01*
X80406334Y-145716563D01*
X80501115Y-145487742D01*
X80558934Y-145246911D01*
X80578366Y-145000000D01*
X80558934Y-144753089D01*
X80501115Y-144512258D01*
X80406334Y-144283437D01*
X80276925Y-144072260D01*
X80276922Y-144072256D01*
X80116073Y-143883926D01*
X79927743Y-143723077D01*
X79927741Y-143723076D01*
X79927740Y-143723075D01*
X79716563Y-143593666D01*
X79487742Y-143498885D01*
X79246911Y-143441066D01*
X79246912Y-143441066D01*
X79000000Y-143421634D01*
X78753088Y-143441066D01*
X78512257Y-143498885D01*
X78283438Y-143593665D01*
X78072258Y-143723076D01*
X78072256Y-143723077D01*
X77883926Y-143883926D01*
X77723077Y-144072256D01*
X77723076Y-144072258D01*
X77593665Y-144283438D01*
X77498885Y-144512257D01*
X77441066Y-144753088D01*
X77421634Y-145000000D01*
X77441066Y-145246911D01*
X77498885Y-145487742D01*
X77593665Y-145716561D01*
X77723076Y-145927741D01*
X77723077Y-145927743D01*
X77883926Y-146116073D01*
X78043883Y-146252689D01*
X78082693Y-146312139D01*
X78083199Y-146383134D01*
X78045243Y-146443133D01*
X77980875Y-146473086D01*
X77962053Y-146474500D01*
X74151500Y-146474500D01*
X74083379Y-146454498D01*
X74036886Y-146400842D01*
X74025500Y-146348500D01*
X74025500Y-130500000D01*
X77421634Y-130500000D01*
X77441066Y-130746911D01*
X77498885Y-130987742D01*
X77593665Y-131216561D01*
X77723076Y-131427741D01*
X77723077Y-131427743D01*
X77883926Y-131616073D01*
X78072256Y-131776922D01*
X78072260Y-131776925D01*
X78283437Y-131906334D01*
X78351656Y-131934591D01*
X78406937Y-131979140D01*
X78429358Y-132046503D01*
X78411800Y-132115294D01*
X78359838Y-132163672D01*
X78303438Y-132177000D01*
X77986402Y-132177000D01*
X77925906Y-132183505D01*
X77789035Y-132234555D01*
X77789034Y-132234555D01*
X77672095Y-132322095D01*
X77584555Y-132439034D01*
X77584555Y-132439035D01*
X77533505Y-132575906D01*
X77527000Y-132636402D01*
X77527000Y-133346000D01*
X78444951Y-133346000D01*
X78413442Y-133422069D01*
X78390000Y-133539920D01*
X78390000Y-133660080D01*
X78413442Y-133777931D01*
X78444951Y-133854000D01*
X77527000Y-133854000D01*
X77527000Y-134563597D01*
X77533505Y-134624093D01*
X77584555Y-134760964D01*
X77584555Y-134760965D01*
X77672095Y-134877904D01*
X77789034Y-134965444D01*
X77925906Y-135016494D01*
X77986402Y-135022999D01*
X77986415Y-135023000D01*
X78303438Y-135023000D01*
X78371559Y-135043002D01*
X78418052Y-135096658D01*
X78428156Y-135166932D01*
X78398662Y-135231512D01*
X78351656Y-135265408D01*
X78328243Y-135275106D01*
X78283438Y-135293665D01*
X78072258Y-135423076D01*
X78072256Y-135423077D01*
X77883926Y-135583926D01*
X77723077Y-135772256D01*
X77723076Y-135772258D01*
X77593665Y-135983438D01*
X77498885Y-136212257D01*
X77441066Y-136453088D01*
X77421634Y-136700000D01*
X77441066Y-136946911D01*
X77498885Y-137187742D01*
X77593665Y-137416561D01*
X77723076Y-137627741D01*
X77723077Y-137627743D01*
X77883926Y-137816073D01*
X78072256Y-137976922D01*
X78072260Y-137976925D01*
X78283437Y-138106334D01*
X78512258Y-138201115D01*
X78753089Y-138258934D01*
X79000000Y-138278366D01*
X79246911Y-138258934D01*
X79487742Y-138201115D01*
X79716563Y-138106334D01*
X79927740Y-137976925D01*
X80116073Y-137816073D01*
X80276925Y-137627740D01*
X80406334Y-137416563D01*
X80501115Y-137187742D01*
X80558934Y-136946911D01*
X80578366Y-136700000D01*
X87421634Y-136700000D01*
X87441066Y-136946911D01*
X87498885Y-137187742D01*
X87593665Y-137416561D01*
X87723076Y-137627741D01*
X87723077Y-137627743D01*
X87883926Y-137816073D01*
X88072256Y-137976922D01*
X88072260Y-137976925D01*
X88283437Y-138106334D01*
X88512258Y-138201115D01*
X88753089Y-138258934D01*
X89000000Y-138278366D01*
X89246911Y-138258934D01*
X89487742Y-138201115D01*
X89716563Y-138106334D01*
X89927740Y-137976925D01*
X90116073Y-137816073D01*
X90276925Y-137627740D01*
X90406334Y-137416563D01*
X90501115Y-137187742D01*
X90558934Y-136946911D01*
X90578366Y-136700000D01*
X90558934Y-136453089D01*
X90501115Y-136212258D01*
X90406334Y-135983437D01*
X90276925Y-135772260D01*
X90276922Y-135772256D01*
X90116073Y-135583926D01*
X89927743Y-135423077D01*
X89927741Y-135423076D01*
X89927740Y-135423075D01*
X89716563Y-135293666D01*
X89648343Y-135265408D01*
X89593063Y-135220860D01*
X89570642Y-135153497D01*
X89588200Y-135084706D01*
X89640162Y-135036328D01*
X89696562Y-135023000D01*
X90013585Y-135023000D01*
X90013597Y-135022999D01*
X90074093Y-135016494D01*
X90210964Y-134965444D01*
X90210965Y-134965444D01*
X90327904Y-134877904D01*
X90415444Y-134760965D01*
X90415444Y-134760964D01*
X90466494Y-134624093D01*
X90472999Y-134563597D01*
X90473000Y-134563585D01*
X90473000Y-133854000D01*
X89555049Y-133854000D01*
X89586558Y-133777931D01*
X89610000Y-133660080D01*
X89610000Y-133539920D01*
X89586558Y-133422069D01*
X89555049Y-133346000D01*
X90473000Y-133346000D01*
X90473000Y-132636414D01*
X90472999Y-132636402D01*
X90466494Y-132575906D01*
X90415444Y-132439035D01*
X90415444Y-132439034D01*
X90327904Y-132322095D01*
X90210965Y-132234555D01*
X90074093Y-132183505D01*
X90013597Y-132177000D01*
X89254000Y-132177000D01*
X89254000Y-133044950D01*
X89177931Y-133013442D01*
X89060080Y-132990000D01*
X88939920Y-132990000D01*
X88822069Y-133013442D01*
X88746000Y-133044950D01*
X88746000Y-132177000D01*
X87986402Y-132177000D01*
X87925906Y-132183505D01*
X87789035Y-132234555D01*
X87789034Y-132234555D01*
X87672095Y-132322095D01*
X87584555Y-132439034D01*
X87584555Y-132439035D01*
X87533505Y-132575906D01*
X87527000Y-132636402D01*
X87527000Y-133346000D01*
X88444951Y-133346000D01*
X88413442Y-133422069D01*
X88390000Y-133539920D01*
X88390000Y-133660080D01*
X88413442Y-133777931D01*
X88444951Y-133854000D01*
X87527000Y-133854000D01*
X87527000Y-134563597D01*
X87533505Y-134624093D01*
X87584555Y-134760964D01*
X87584555Y-134760965D01*
X87672095Y-134877904D01*
X87789034Y-134965444D01*
X87925906Y-135016494D01*
X87986402Y-135022999D01*
X87986415Y-135023000D01*
X88303438Y-135023000D01*
X88371559Y-135043002D01*
X88418052Y-135096658D01*
X88428156Y-135166932D01*
X88398662Y-135231512D01*
X88351656Y-135265408D01*
X88328243Y-135275106D01*
X88283438Y-135293665D01*
X88072258Y-135423076D01*
X88072256Y-135423077D01*
X87883926Y-135583926D01*
X87723077Y-135772256D01*
X87723076Y-135772258D01*
X87593665Y-135983438D01*
X87498885Y-136212257D01*
X87441066Y-136453088D01*
X87421634Y-136700000D01*
X80578366Y-136700000D01*
X80558934Y-136453089D01*
X80501115Y-136212258D01*
X80406334Y-135983437D01*
X80276925Y-135772260D01*
X80276922Y-135772256D01*
X80116073Y-135583926D01*
X79927743Y-135423077D01*
X79927741Y-135423076D01*
X79927740Y-135423075D01*
X79716563Y-135293666D01*
X79648343Y-135265408D01*
X79593063Y-135220860D01*
X79570642Y-135153497D01*
X79588200Y-135084706D01*
X79640162Y-135036328D01*
X79696562Y-135023000D01*
X80013585Y-135023000D01*
X80013597Y-135022999D01*
X80074093Y-135016494D01*
X80210964Y-134965444D01*
X80210965Y-134965444D01*
X80327904Y-134877904D01*
X80415444Y-134760965D01*
X80415444Y-134760964D01*
X80466494Y-134624093D01*
X80472999Y-134563597D01*
X80473000Y-134563585D01*
X80473000Y-133854000D01*
X79555049Y-133854000D01*
X79586558Y-133777931D01*
X79610000Y-133660080D01*
X79610000Y-133539920D01*
X79586558Y-133422069D01*
X79555049Y-133346000D01*
X80473000Y-133346000D01*
X80473000Y-132636414D01*
X80472999Y-132636402D01*
X80466494Y-132575906D01*
X80415444Y-132439035D01*
X80415444Y-132439034D01*
X80327904Y-132322095D01*
X80210965Y-132234555D01*
X80074093Y-132183505D01*
X80013597Y-132177000D01*
X79696562Y-132177000D01*
X79628441Y-132156998D01*
X79581948Y-132103342D01*
X79571844Y-132033068D01*
X79601338Y-131968488D01*
X79648343Y-131934591D01*
X79716563Y-131906334D01*
X79927740Y-131776925D01*
X80116073Y-131616073D01*
X80276925Y-131427740D01*
X80406334Y-131216563D01*
X80501115Y-130987742D01*
X80558934Y-130746911D01*
X80578366Y-130500000D01*
X80558934Y-130253089D01*
X80501115Y-130012258D01*
X80406334Y-129783437D01*
X80276925Y-129572260D01*
X80276922Y-129572256D01*
X80116073Y-129383926D01*
X79927743Y-129223077D01*
X79927741Y-129223076D01*
X79927740Y-129223075D01*
X79716563Y-129093666D01*
X79487742Y-128998885D01*
X79246911Y-128941066D01*
X79246912Y-128941066D01*
X79000000Y-128921634D01*
X78753088Y-128941066D01*
X78512257Y-128998885D01*
X78283438Y-129093665D01*
X78072258Y-129223076D01*
X78072256Y-129223077D01*
X77883926Y-129383926D01*
X77723077Y-129572256D01*
X77723076Y-129572258D01*
X77593665Y-129783438D01*
X77498885Y-130012257D01*
X77441066Y-130253088D01*
X77421634Y-130500000D01*
X74025500Y-130500000D01*
X74025500Y-114360950D01*
X74045502Y-114292829D01*
X74099158Y-114246336D01*
X74169432Y-114236232D01*
X74234012Y-114265726D01*
X74240595Y-114271855D01*
X77645728Y-117676988D01*
X77679754Y-117739300D01*
X77674689Y-117810115D01*
X77657501Y-117841592D01*
X77584555Y-117939034D01*
X77584555Y-117939035D01*
X77533505Y-118075906D01*
X77527000Y-118136402D01*
X77527000Y-118846000D01*
X78444951Y-118846000D01*
X78413442Y-118922069D01*
X78390000Y-119039920D01*
X78390000Y-119160080D01*
X78413442Y-119277931D01*
X78444951Y-119354000D01*
X77527000Y-119354000D01*
X77527000Y-120063597D01*
X77533505Y-120124093D01*
X77584555Y-120260964D01*
X77584555Y-120260965D01*
X77672095Y-120377904D01*
X77789034Y-120465444D01*
X77925906Y-120516494D01*
X77986402Y-120522999D01*
X77986415Y-120523000D01*
X78303438Y-120523000D01*
X78371559Y-120543002D01*
X78418052Y-120596658D01*
X78428156Y-120666932D01*
X78398662Y-120731512D01*
X78351656Y-120765408D01*
X78328243Y-120775106D01*
X78283438Y-120793665D01*
X78072258Y-120923076D01*
X78072256Y-120923077D01*
X77883926Y-121083926D01*
X77723077Y-121272256D01*
X77723076Y-121272258D01*
X77593665Y-121483438D01*
X77498885Y-121712257D01*
X77464493Y-121855511D01*
X77441066Y-121953089D01*
X77421634Y-122200000D01*
X77441066Y-122446911D01*
X77498885Y-122687742D01*
X77593666Y-122916563D01*
X77660622Y-123025826D01*
X77723076Y-123127741D01*
X77723077Y-123127743D01*
X77883926Y-123316073D01*
X78052443Y-123460000D01*
X78072260Y-123476925D01*
X78283437Y-123606334D01*
X78512258Y-123701115D01*
X78753089Y-123758934D01*
X79000000Y-123778366D01*
X79246911Y-123758934D01*
X79487742Y-123701115D01*
X79716563Y-123606334D01*
X79927740Y-123476925D01*
X80116073Y-123316073D01*
X80276925Y-123127740D01*
X80406334Y-122916563D01*
X80501115Y-122687742D01*
X80558934Y-122446911D01*
X80578366Y-122200000D01*
X80558934Y-121953089D01*
X80501115Y-121712258D01*
X80406334Y-121483437D01*
X80276925Y-121272260D01*
X80276922Y-121272256D01*
X80116073Y-121083926D01*
X79927743Y-120923077D01*
X79927741Y-120923076D01*
X79927740Y-120923075D01*
X79716563Y-120793666D01*
X79648343Y-120765408D01*
X79593063Y-120720860D01*
X79570642Y-120653497D01*
X79588200Y-120584706D01*
X79640162Y-120536328D01*
X79696562Y-120523000D01*
X80013585Y-120523000D01*
X80013597Y-120522999D01*
X80074093Y-120516494D01*
X80210964Y-120465444D01*
X80210965Y-120465444D01*
X80327904Y-120377904D01*
X80415444Y-120260965D01*
X80415444Y-120260964D01*
X80466494Y-120124093D01*
X80472999Y-120063597D01*
X80473000Y-120063585D01*
X80473000Y-119354000D01*
X79555049Y-119354000D01*
X79586558Y-119277931D01*
X79610000Y-119160080D01*
X79610000Y-119039920D01*
X79586558Y-118922069D01*
X79555049Y-118846000D01*
X80473000Y-118846000D01*
X80473000Y-118584500D01*
X80493002Y-118516379D01*
X80546658Y-118469886D01*
X80599000Y-118458500D01*
X80819776Y-118458500D01*
X80887897Y-118478502D01*
X80893834Y-118482562D01*
X81043248Y-118591118D01*
X81217712Y-118668794D01*
X81404513Y-118708500D01*
X81595487Y-118708500D01*
X81782288Y-118668794D01*
X81956752Y-118591118D01*
X82111253Y-118478866D01*
X82152376Y-118433194D01*
X82239034Y-118336951D01*
X82239035Y-118336949D01*
X82239040Y-118336944D01*
X82334527Y-118171556D01*
X82393542Y-117989928D01*
X82413504Y-117800000D01*
X82393542Y-117610072D01*
X82334527Y-117428444D01*
X82239040Y-117263056D01*
X82239038Y-117263054D01*
X82239034Y-117263048D01*
X82111255Y-117121135D01*
X81956752Y-117008882D01*
X81782288Y-116931206D01*
X81595487Y-116891500D01*
X81404513Y-116891500D01*
X81217711Y-116931206D01*
X81043247Y-117008882D01*
X80893837Y-117117436D01*
X80826969Y-117141294D01*
X80819776Y-117141500D01*
X79024950Y-117141500D01*
X78956829Y-117121498D01*
X78935855Y-117104595D01*
X75195405Y-113364145D01*
X75161379Y-113301833D01*
X75158500Y-113275050D01*
X75158500Y-87154950D01*
X75178502Y-87086829D01*
X75195400Y-87065859D01*
X75321899Y-86939359D01*
X75384209Y-86905336D01*
X75431725Y-86904174D01*
X75637431Y-86938500D01*
X75637436Y-86938500D01*
X75862565Y-86938500D01*
X75862569Y-86938500D01*
X76084635Y-86901444D01*
X76124099Y-86887895D01*
X76195021Y-86884694D01*
X76256418Y-86920345D01*
X76288793Y-86983530D01*
X76291011Y-87007068D01*
X76291011Y-111014371D01*
X76316317Y-111141588D01*
X76365956Y-111261428D01*
X76438020Y-111369280D01*
X77080231Y-112011491D01*
X77080233Y-112011492D01*
X77080236Y-112011495D01*
X77135501Y-112048421D01*
X77181029Y-112102897D01*
X77191500Y-112153186D01*
X77191500Y-112538200D01*
X77227575Y-112812223D01*
X77299112Y-113079204D01*
X77299113Y-113079206D01*
X77299114Y-113079209D01*
X77404886Y-113334567D01*
X77404887Y-113334568D01*
X77404892Y-113334578D01*
X77543082Y-113573929D01*
X77711344Y-113793214D01*
X77711353Y-113793224D01*
X77906775Y-113988646D01*
X77906785Y-113988655D01*
X77906786Y-113988656D01*
X78126067Y-114156915D01*
X78365433Y-114295114D01*
X78620791Y-114400886D01*
X78887769Y-114472423D01*
X78887775Y-114472423D01*
X78887776Y-114472424D01*
X78919222Y-114476563D01*
X79161802Y-114508500D01*
X79161809Y-114508500D01*
X79438191Y-114508500D01*
X79438198Y-114508500D01*
X79712231Y-114472423D01*
X79979209Y-114400886D01*
X80234567Y-114295114D01*
X80473933Y-114156915D01*
X80693214Y-113988656D01*
X80693606Y-113988264D01*
X80726405Y-113955466D01*
X80788717Y-113921440D01*
X80859532Y-113926505D01*
X80916368Y-113969052D01*
X80941179Y-114035572D01*
X80941500Y-114044561D01*
X80941500Y-115364860D01*
X80966806Y-115492077D01*
X81016445Y-115611917D01*
X81088509Y-115719769D01*
X82838999Y-117470258D01*
X82930720Y-117561979D01*
X83038572Y-117634044D01*
X83158412Y-117683683D01*
X83285632Y-117708989D01*
X85415539Y-117708989D01*
X85483660Y-117728991D01*
X85504634Y-117745894D01*
X89069984Y-121311244D01*
X89104010Y-121373556D01*
X89098945Y-121444371D01*
X89056398Y-121501207D01*
X88991871Y-121525859D01*
X88778634Y-121544515D01*
X88778628Y-121544516D01*
X88563976Y-121602031D01*
X88563972Y-121602033D01*
X88362575Y-121695946D01*
X88299394Y-121740184D01*
X88875052Y-122315841D01*
X88807007Y-122334075D01*
X88692993Y-122399901D01*
X88599901Y-122492993D01*
X88534075Y-122607007D01*
X88515842Y-122675051D01*
X87940185Y-122099394D01*
X87895946Y-122162575D01*
X87806890Y-122353556D01*
X87759972Y-122406841D01*
X87691695Y-122426302D01*
X87623735Y-122405760D01*
X87578501Y-122353557D01*
X87564053Y-122322575D01*
X87564051Y-122322571D01*
X87519815Y-122259395D01*
X87519813Y-122259395D01*
X86944157Y-122835051D01*
X86925925Y-122767007D01*
X86860099Y-122652993D01*
X86767007Y-122559901D01*
X86652993Y-122494075D01*
X86584947Y-122475841D01*
X87160603Y-121900185D01*
X87160603Y-121900184D01*
X87097425Y-121855946D01*
X86896027Y-121762033D01*
X86896023Y-121762031D01*
X86681374Y-121704517D01*
X86460000Y-121685149D01*
X86238625Y-121704517D01*
X86023976Y-121762031D01*
X86023972Y-121762033D01*
X85822575Y-121855946D01*
X85759394Y-121900185D01*
X86335051Y-122475842D01*
X86267007Y-122494075D01*
X86152993Y-122559901D01*
X86059901Y-122652993D01*
X85994075Y-122767007D01*
X85975842Y-122835051D01*
X85400185Y-122259394D01*
X85355946Y-122322575D01*
X85262033Y-122523972D01*
X85262031Y-122523976D01*
X85204517Y-122738625D01*
X85185149Y-122960000D01*
X85204517Y-123181374D01*
X85262031Y-123396023D01*
X85262033Y-123396027D01*
X85355946Y-123597425D01*
X85400184Y-123660603D01*
X85400185Y-123660603D01*
X85975841Y-123084947D01*
X85994075Y-123152993D01*
X86059901Y-123267007D01*
X86152993Y-123360099D01*
X86267007Y-123425925D01*
X86335051Y-123444157D01*
X85759395Y-124019813D01*
X85759395Y-124019814D01*
X85822575Y-124064053D01*
X85822574Y-124064053D01*
X85947162Y-124122149D01*
X86000447Y-124169066D01*
X86019908Y-124237343D01*
X85999366Y-124305303D01*
X85947162Y-124350539D01*
X85828346Y-124405944D01*
X85647965Y-124532248D01*
X85647959Y-124532253D01*
X85492253Y-124687959D01*
X85492248Y-124687965D01*
X85365944Y-124868346D01*
X85272881Y-125067920D01*
X85272880Y-125067924D01*
X85215885Y-125280629D01*
X85196693Y-125500000D01*
X85215885Y-125719371D01*
X85272880Y-125932076D01*
X85365944Y-126131654D01*
X85492251Y-126312038D01*
X85492254Y-126312042D01*
X85647957Y-126467745D01*
X85647961Y-126467748D01*
X85647962Y-126467749D01*
X85828346Y-126594056D01*
X85828351Y-126594058D01*
X85828351Y-126594059D01*
X85947161Y-126649460D01*
X86000447Y-126696377D01*
X86019908Y-126764654D01*
X85999367Y-126832614D01*
X85947163Y-126877849D01*
X85822577Y-126935945D01*
X85759394Y-126980185D01*
X86335051Y-127555842D01*
X86267007Y-127574075D01*
X86152993Y-127639901D01*
X86059901Y-127732993D01*
X85994075Y-127847007D01*
X85975842Y-127915051D01*
X85400185Y-127339394D01*
X85355946Y-127402575D01*
X85262033Y-127603972D01*
X85262031Y-127603976D01*
X85204517Y-127818625D01*
X85185149Y-128040000D01*
X85204517Y-128261374D01*
X85262031Y-128476023D01*
X85262033Y-128476027D01*
X85355946Y-128677425D01*
X85400184Y-128740603D01*
X85400185Y-128740603D01*
X85975841Y-128164947D01*
X85994075Y-128232993D01*
X86059901Y-128347007D01*
X86152993Y-128440099D01*
X86267007Y-128505925D01*
X86335051Y-128524157D01*
X85759395Y-129099813D01*
X85759395Y-129099814D01*
X85822575Y-129144053D01*
X85822574Y-129144053D01*
X86023972Y-129237966D01*
X86023976Y-129237968D01*
X86238625Y-129295482D01*
X86460000Y-129314850D01*
X86681374Y-129295482D01*
X86896023Y-129237968D01*
X86896027Y-129237966D01*
X87097425Y-129144053D01*
X87097426Y-129144052D01*
X87160603Y-129099814D01*
X87160603Y-129099812D01*
X86584948Y-128524157D01*
X86652993Y-128505925D01*
X86767007Y-128440099D01*
X86860099Y-128347007D01*
X86925925Y-128232993D01*
X86944157Y-128164948D01*
X87519812Y-128740603D01*
X87519814Y-128740603D01*
X87564052Y-128677426D01*
X87564057Y-128677418D01*
X87578224Y-128647037D01*
X87625140Y-128593751D01*
X87693417Y-128574289D01*
X87761377Y-128594830D01*
X87806614Y-128647035D01*
X87895511Y-128837675D01*
X87895512Y-128837677D01*
X88023016Y-129019772D01*
X88023020Y-129019777D01*
X88023023Y-129019781D01*
X88180219Y-129176977D01*
X88180223Y-129176980D01*
X88180227Y-129176983D01*
X88246055Y-129223076D01*
X88362323Y-129304488D01*
X88563804Y-129398440D01*
X88778537Y-129455978D01*
X89000000Y-129475353D01*
X89221463Y-129455978D01*
X89436196Y-129398440D01*
X89637677Y-129304488D01*
X89819781Y-129176977D01*
X89976977Y-129019781D01*
X90104488Y-128837677D01*
X90193110Y-128647625D01*
X90240026Y-128594342D01*
X90308303Y-128574881D01*
X90376263Y-128595423D01*
X90421498Y-128647626D01*
X90435508Y-128677669D01*
X90435512Y-128677677D01*
X90563016Y-128859772D01*
X90563020Y-128859777D01*
X90563023Y-128859781D01*
X90720219Y-129016977D01*
X90720223Y-129016980D01*
X90720227Y-129016983D01*
X90724226Y-129019783D01*
X90902323Y-129144488D01*
X91103804Y-129238440D01*
X91318537Y-129295978D01*
X91540000Y-129315353D01*
X91761463Y-129295978D01*
X91976196Y-129238440D01*
X92177677Y-129144488D01*
X92359781Y-129016977D01*
X92516977Y-128859781D01*
X92644488Y-128677677D01*
X92738440Y-128476196D01*
X92795978Y-128261463D01*
X92815353Y-128040000D01*
X92795978Y-127818537D01*
X92738440Y-127603804D01*
X92644488Y-127402324D01*
X92516977Y-127220219D01*
X92359781Y-127063023D01*
X92359777Y-127063020D01*
X92359772Y-127063016D01*
X92177677Y-126935512D01*
X92177675Y-126935511D01*
X91976199Y-126841561D01*
X91976193Y-126841559D01*
X91934074Y-126830273D01*
X91761463Y-126784022D01*
X91540000Y-126764647D01*
X91318537Y-126784022D01*
X91203463Y-126814856D01*
X91103806Y-126841559D01*
X91103801Y-126841561D01*
X90902323Y-126935512D01*
X90720222Y-127063020D01*
X90720216Y-127063025D01*
X90563025Y-127220216D01*
X90563020Y-127220222D01*
X90435512Y-127402323D01*
X90346890Y-127592373D01*
X90299972Y-127645658D01*
X90231695Y-127665119D01*
X90163735Y-127644577D01*
X90118500Y-127592373D01*
X90104488Y-127562324D01*
X89976977Y-127380219D01*
X89819781Y-127223023D01*
X89819777Y-127223020D01*
X89819772Y-127223016D01*
X89637677Y-127095512D01*
X89637675Y-127095511D01*
X89436199Y-127001561D01*
X89436193Y-127001559D01*
X89394074Y-126990273D01*
X89221463Y-126944022D01*
X89000000Y-126924647D01*
X88778537Y-126944022D01*
X88663463Y-126974856D01*
X88563806Y-127001559D01*
X88563801Y-127001561D01*
X88362323Y-127095512D01*
X88180222Y-127223020D01*
X88180216Y-127223025D01*
X88023025Y-127380216D01*
X88023020Y-127380222D01*
X87895509Y-127562326D01*
X87881221Y-127592967D01*
X87834302Y-127646251D01*
X87766025Y-127665710D01*
X87698065Y-127645166D01*
X87652833Y-127592964D01*
X87564051Y-127402571D01*
X87519815Y-127339395D01*
X87519813Y-127339395D01*
X86944157Y-127915051D01*
X86925925Y-127847007D01*
X86860099Y-127732993D01*
X86767007Y-127639901D01*
X86652993Y-127574075D01*
X86584947Y-127555841D01*
X87160603Y-126980185D01*
X87160603Y-126980184D01*
X87097425Y-126935946D01*
X86972837Y-126877850D01*
X86919552Y-126830933D01*
X86900091Y-126762655D01*
X86920633Y-126694695D01*
X86972837Y-126649460D01*
X87091654Y-126594056D01*
X87272038Y-126467749D01*
X87427749Y-126312038D01*
X87554056Y-126131654D01*
X87647120Y-125932076D01*
X87704115Y-125719371D01*
X87723307Y-125500000D01*
X87704115Y-125280629D01*
X87647120Y-125067924D01*
X87554056Y-124868347D01*
X87427749Y-124687962D01*
X87272038Y-124532251D01*
X87091654Y-124405944D01*
X86972837Y-124350539D01*
X86919552Y-124303622D01*
X86900091Y-124235345D01*
X86920633Y-124167385D01*
X86972838Y-124122149D01*
X87097421Y-124064055D01*
X87097426Y-124064052D01*
X87160603Y-124019814D01*
X87160603Y-124019812D01*
X86584948Y-123444157D01*
X86652993Y-123425925D01*
X86767007Y-123360099D01*
X86860099Y-123267007D01*
X86925925Y-123152993D01*
X86944157Y-123084948D01*
X87519812Y-123660603D01*
X87519814Y-123660603D01*
X87564052Y-123597426D01*
X87564055Y-123597421D01*
X87653109Y-123406444D01*
X87700026Y-123353158D01*
X87768303Y-123333697D01*
X87836263Y-123354239D01*
X87881498Y-123406442D01*
X87895943Y-123437420D01*
X87895946Y-123437425D01*
X87940184Y-123500603D01*
X87940185Y-123500603D01*
X88515841Y-122924947D01*
X88534075Y-122992993D01*
X88599901Y-123107007D01*
X88692993Y-123200099D01*
X88807007Y-123265925D01*
X88875051Y-123284157D01*
X88299395Y-123859813D01*
X88299395Y-123859814D01*
X88362575Y-123904053D01*
X88362574Y-123904053D01*
X88563972Y-123997966D01*
X88563976Y-123997968D01*
X88778625Y-124055482D01*
X89000000Y-124074850D01*
X89221374Y-124055482D01*
X89436023Y-123997968D01*
X89436027Y-123997966D01*
X89637425Y-123904053D01*
X89637426Y-123904052D01*
X89700603Y-123859814D01*
X89700603Y-123859812D01*
X89124948Y-123284157D01*
X89192993Y-123265925D01*
X89307007Y-123200099D01*
X89400099Y-123107007D01*
X89465925Y-122992993D01*
X89484158Y-122924947D01*
X90059813Y-123500603D01*
X90059814Y-123500603D01*
X90104052Y-123437426D01*
X90104057Y-123437418D01*
X90118224Y-123407037D01*
X90165140Y-123353751D01*
X90233417Y-123334289D01*
X90301377Y-123354830D01*
X90346614Y-123407035D01*
X90435511Y-123597675D01*
X90435512Y-123597677D01*
X90563016Y-123779772D01*
X90563020Y-123779777D01*
X90563023Y-123779781D01*
X90720219Y-123936977D01*
X90720223Y-123936980D01*
X90720227Y-123936983D01*
X90807320Y-123997966D01*
X90902323Y-124064488D01*
X91103804Y-124158440D01*
X91318537Y-124215978D01*
X91540000Y-124235353D01*
X91761463Y-124215978D01*
X91976196Y-124158440D01*
X92177677Y-124064488D01*
X92359781Y-123936977D01*
X92516977Y-123779781D01*
X92644488Y-123597677D01*
X92738440Y-123396196D01*
X92795978Y-123181463D01*
X92815353Y-122960000D01*
X92795978Y-122738537D01*
X92738440Y-122523804D01*
X92644488Y-122322324D01*
X92516977Y-122140219D01*
X92359781Y-121983023D01*
X92359777Y-121983020D01*
X92359772Y-121983016D01*
X92177677Y-121855512D01*
X92177675Y-121855511D01*
X91976199Y-121761561D01*
X91976193Y-121761559D01*
X91896420Y-121740184D01*
X91761463Y-121704022D01*
X91540000Y-121684647D01*
X91539999Y-121684647D01*
X91383267Y-121698358D01*
X91313663Y-121684368D01*
X91283192Y-121661932D01*
X86160262Y-116539002D01*
X86160258Y-116538998D01*
X86052406Y-116466934D01*
X85959485Y-116428445D01*
X85932569Y-116417296D01*
X85932566Y-116417295D01*
X85805349Y-116391989D01*
X85805346Y-116391989D01*
X83675438Y-116391989D01*
X83607317Y-116371987D01*
X83586343Y-116355084D01*
X82295405Y-115064145D01*
X82261379Y-115001833D01*
X82258500Y-114975050D01*
X82258500Y-113943853D01*
X82278502Y-113875732D01*
X82332158Y-113829239D01*
X82402432Y-113819135D01*
X82467012Y-113848629D01*
X82473595Y-113854758D01*
X82607101Y-113988264D01*
X82607115Y-113988277D01*
X82826343Y-114156498D01*
X83065642Y-114294657D01*
X83065653Y-114294662D01*
X83320952Y-114400411D01*
X83587871Y-114471931D01*
X83587874Y-114471932D01*
X83746000Y-114492749D01*
X83746000Y-112580702D01*
X83807007Y-112615925D01*
X83934174Y-112650000D01*
X84065826Y-112650000D01*
X84192993Y-112615925D01*
X84254000Y-112580702D01*
X84254000Y-114492749D01*
X84412125Y-114471932D01*
X84412128Y-114471931D01*
X84679047Y-114400411D01*
X84934346Y-114294662D01*
X84934357Y-114294657D01*
X85173656Y-114156498D01*
X85392884Y-113988277D01*
X85392898Y-113988264D01*
X85588264Y-113792898D01*
X85588277Y-113792884D01*
X85756498Y-113573656D01*
X85894657Y-113334357D01*
X85894662Y-113334346D01*
X86000411Y-113079047D01*
X86071932Y-112812125D01*
X86107999Y-112538168D01*
X86108000Y-112538159D01*
X86108000Y-111754000D01*
X84500000Y-111754000D01*
X84500000Y-111246000D01*
X86108000Y-111246000D01*
X86108000Y-110461841D01*
X86107999Y-110461831D01*
X86071932Y-110187876D01*
X86052835Y-110116604D01*
X86054525Y-110045627D01*
X86094319Y-109986831D01*
X86159583Y-109958883D01*
X86229597Y-109970656D01*
X86263637Y-109994897D01*
X86563738Y-110294998D01*
X86597764Y-110357310D01*
X86599565Y-110400538D01*
X86591500Y-110461797D01*
X86591500Y-112538200D01*
X86627575Y-112812223D01*
X86699112Y-113079204D01*
X86699113Y-113079206D01*
X86699114Y-113079209D01*
X86804886Y-113334567D01*
X86804887Y-113334568D01*
X86804892Y-113334578D01*
X86943082Y-113573929D01*
X87111344Y-113793214D01*
X87111353Y-113793224D01*
X87306775Y-113988646D01*
X87306785Y-113988655D01*
X87306786Y-113988656D01*
X87526067Y-114156915D01*
X87765433Y-114295114D01*
X88020791Y-114400886D01*
X88287769Y-114472423D01*
X88287775Y-114472423D01*
X88287776Y-114472424D01*
X88319222Y-114476563D01*
X88561802Y-114508500D01*
X88561809Y-114508500D01*
X88838191Y-114508500D01*
X88838198Y-114508500D01*
X89112231Y-114472423D01*
X89379209Y-114400886D01*
X89634567Y-114295114D01*
X89873933Y-114156915D01*
X90093214Y-113988656D01*
X90288656Y-113793214D01*
X90456915Y-113573933D01*
X90595114Y-113334567D01*
X90700886Y-113079209D01*
X90772423Y-112812231D01*
X90808500Y-112538198D01*
X90808500Y-110461802D01*
X90808123Y-110458940D01*
X90808255Y-110458089D01*
X90808230Y-110457693D01*
X90808318Y-110457687D01*
X90819062Y-110388793D01*
X90866190Y-110335694D01*
X90934544Y-110316504D01*
X91002422Y-110337315D01*
X91022140Y-110353400D01*
X91204595Y-110535855D01*
X91238621Y-110598167D01*
X91241500Y-110624950D01*
X91241500Y-116125240D01*
X91221498Y-116193361D01*
X91209136Y-116209550D01*
X91160965Y-116263048D01*
X91160958Y-116263058D01*
X91065476Y-116428438D01*
X91065473Y-116428445D01*
X91006457Y-116610072D01*
X90986496Y-116800000D01*
X91006457Y-116989927D01*
X91036526Y-117082470D01*
X91065473Y-117171556D01*
X91065476Y-117171561D01*
X91160958Y-117336941D01*
X91160965Y-117336951D01*
X91288744Y-117478864D01*
X91288747Y-117478866D01*
X91443248Y-117591118D01*
X91617712Y-117668794D01*
X91804513Y-117708500D01*
X91995487Y-117708500D01*
X92182288Y-117668794D01*
X92356752Y-117591118D01*
X92511253Y-117478866D01*
X92639040Y-117336944D01*
X92734527Y-117171556D01*
X92793542Y-116989928D01*
X92813504Y-116800000D01*
X92793542Y-116610072D01*
X92734527Y-116428444D01*
X92639040Y-116263056D01*
X92639038Y-116263054D01*
X92639034Y-116263048D01*
X92590864Y-116209550D01*
X92560146Y-116145543D01*
X92558500Y-116125240D01*
X92558500Y-110235142D01*
X92558499Y-110235139D01*
X92533194Y-110107923D01*
X92483555Y-109988083D01*
X92438592Y-109920791D01*
X92411491Y-109880231D01*
X92411490Y-109880230D01*
X92411487Y-109880226D01*
X88895405Y-106364144D01*
X88861379Y-106301832D01*
X88858500Y-106275049D01*
X88858500Y-97271719D01*
X88878502Y-97203598D01*
X88932158Y-97157105D01*
X89002432Y-97147001D01*
X89067012Y-97176495D01*
X89084463Y-97195016D01*
X89105729Y-97222731D01*
X89105744Y-97222748D01*
X89277251Y-97394255D01*
X89277256Y-97394259D01*
X89277262Y-97394265D01*
X89469711Y-97541936D01*
X89469714Y-97541938D01*
X89679775Y-97663217D01*
X89679779Y-97663218D01*
X89679788Y-97663224D01*
X89903900Y-97756054D01*
X90138211Y-97818838D01*
X90138215Y-97818838D01*
X90138217Y-97818839D01*
X90200202Y-97826999D01*
X90378712Y-97850500D01*
X90378719Y-97850500D01*
X90621281Y-97850500D01*
X90621288Y-97850500D01*
X90838637Y-97821885D01*
X90861782Y-97818839D01*
X90861782Y-97818838D01*
X90861789Y-97818838D01*
X91096100Y-97756054D01*
X91320212Y-97663224D01*
X91530289Y-97541936D01*
X91722738Y-97394265D01*
X91894265Y-97222738D01*
X92041936Y-97030289D01*
X92163224Y-96820212D01*
X92256054Y-96596100D01*
X92318838Y-96361789D01*
X92350500Y-96121288D01*
X92350500Y-95878712D01*
X92318838Y-95638211D01*
X92256054Y-95403900D01*
X92163224Y-95179788D01*
X92163218Y-95179779D01*
X92163217Y-95179775D01*
X92041938Y-94969714D01*
X92041936Y-94969711D01*
X91894265Y-94777262D01*
X91894259Y-94777256D01*
X91894255Y-94777251D01*
X91722748Y-94605744D01*
X91722742Y-94605739D01*
X91722738Y-94605735D01*
X91530289Y-94458064D01*
X91530288Y-94458063D01*
X91530285Y-94458061D01*
X91320224Y-94336782D01*
X91320216Y-94336778D01*
X91320212Y-94336776D01*
X91096100Y-94243946D01*
X91096097Y-94243945D01*
X91096095Y-94243944D01*
X90861782Y-94181160D01*
X90621290Y-94149500D01*
X90621288Y-94149500D01*
X90378712Y-94149500D01*
X90378709Y-94149500D01*
X90138217Y-94181160D01*
X89903904Y-94243944D01*
X89903900Y-94243946D01*
X89679786Y-94336777D01*
X89679775Y-94336782D01*
X89469714Y-94458061D01*
X89277262Y-94605735D01*
X89277251Y-94605744D01*
X89105744Y-94777251D01*
X89105732Y-94777264D01*
X89084462Y-94804985D01*
X89027123Y-94846852D01*
X88956252Y-94851073D01*
X88894350Y-94816308D01*
X88861069Y-94753595D01*
X88858500Y-94728280D01*
X88858500Y-89324950D01*
X88878502Y-89256829D01*
X88895405Y-89235855D01*
X89673286Y-88457974D01*
X91261491Y-86869769D01*
X91333555Y-86761917D01*
X91383195Y-86642077D01*
X91408500Y-86514856D01*
X91408500Y-86385143D01*
X91408500Y-66534950D01*
X91428502Y-66466829D01*
X91445405Y-66445855D01*
X92000818Y-65890442D01*
X92711491Y-65179769D01*
X92783555Y-65071917D01*
X92833195Y-64952077D01*
X92858500Y-64824856D01*
X92858500Y-64695143D01*
X92858500Y-63463391D01*
X92878502Y-63395270D01*
X92924530Y-63352578D01*
X92945576Y-63341189D01*
X93123240Y-63202906D01*
X93275722Y-63037268D01*
X93398860Y-62848791D01*
X93489296Y-62642616D01*
X93544564Y-62424368D01*
X93563156Y-62200000D01*
X93544564Y-61975632D01*
X93489296Y-61757384D01*
X93398860Y-61551209D01*
X93285577Y-61377816D01*
X93275724Y-61362734D01*
X93275720Y-61362729D01*
X93123237Y-61197091D01*
X93041382Y-61133381D01*
X92945576Y-61058811D01*
X92912319Y-61040813D01*
X92861929Y-60990802D01*
X92846576Y-60921485D01*
X92871136Y-60854872D01*
X92912320Y-60819186D01*
X92945576Y-60801189D01*
X93123240Y-60662906D01*
X93275722Y-60497268D01*
X93398860Y-60308791D01*
X93489296Y-60102616D01*
X93544564Y-59884368D01*
X93563156Y-59660000D01*
X93544564Y-59435632D01*
X93489296Y-59217384D01*
X93398860Y-59011209D01*
X93392140Y-59000924D01*
X93275724Y-58822734D01*
X93275720Y-58822729D01*
X93123237Y-58657091D01*
X93041382Y-58593381D01*
X92945576Y-58518811D01*
X92912319Y-58500813D01*
X92861929Y-58450802D01*
X92846576Y-58381485D01*
X92871136Y-58314872D01*
X92912320Y-58279186D01*
X92945576Y-58261189D01*
X93123240Y-58122906D01*
X93275722Y-57957268D01*
X93398860Y-57768791D01*
X93489296Y-57562616D01*
X93544564Y-57344368D01*
X93563156Y-57120000D01*
X93544564Y-56895632D01*
X93489296Y-56677384D01*
X93398860Y-56471209D01*
X93392140Y-56460924D01*
X93275724Y-56282734D01*
X93275720Y-56282729D01*
X93123237Y-56117091D01*
X93041382Y-56053381D01*
X92945576Y-55978811D01*
X92912319Y-55960813D01*
X92861929Y-55910802D01*
X92846576Y-55841485D01*
X92871136Y-55774872D01*
X92912320Y-55739186D01*
X92945576Y-55721189D01*
X93123240Y-55582906D01*
X93275722Y-55417268D01*
X93398860Y-55228791D01*
X93489296Y-55022616D01*
X93544564Y-54804368D01*
X93563156Y-54580000D01*
X93544564Y-54355632D01*
X93489296Y-54137384D01*
X93398860Y-53931209D01*
X93392140Y-53920924D01*
X93275724Y-53742734D01*
X93275720Y-53742729D01*
X93123237Y-53577091D01*
X93041382Y-53513381D01*
X92945576Y-53438811D01*
X92912319Y-53420813D01*
X92861929Y-53370802D01*
X92846576Y-53301485D01*
X92871136Y-53234872D01*
X92912320Y-53199186D01*
X92945576Y-53181189D01*
X93123240Y-53042906D01*
X93275722Y-52877268D01*
X93398860Y-52688791D01*
X93489296Y-52482616D01*
X93544564Y-52264368D01*
X93563156Y-52040000D01*
X93544564Y-51815632D01*
X93489296Y-51597384D01*
X93398860Y-51391209D01*
X93364020Y-51337882D01*
X93275724Y-51202734D01*
X93275714Y-51202722D01*
X93132159Y-51046782D01*
X93100737Y-50983117D01*
X93108723Y-50912571D01*
X93153582Y-50857542D01*
X93180827Y-50843388D01*
X93295965Y-50800444D01*
X93412904Y-50712904D01*
X93500444Y-50595965D01*
X93500444Y-50595964D01*
X93551494Y-50459093D01*
X93557999Y-50398597D01*
X93558000Y-50398585D01*
X93558000Y-49754000D01*
X92630703Y-49754000D01*
X92665925Y-49692993D01*
X92700000Y-49565826D01*
X92700000Y-49434174D01*
X92665925Y-49307007D01*
X92630703Y-49246000D01*
X93558000Y-49246000D01*
X93558000Y-48601414D01*
X93557999Y-48601402D01*
X93551494Y-48540906D01*
X93500444Y-48404035D01*
X93500444Y-48404034D01*
X93412904Y-48287095D01*
X93295965Y-48199555D01*
X93159093Y-48148505D01*
X93098597Y-48142000D01*
X92454000Y-48142000D01*
X92454000Y-49069297D01*
X92392993Y-49034075D01*
X92265826Y-49000000D01*
X92134174Y-49000000D01*
X92007007Y-49034075D01*
X91946000Y-49069297D01*
X91946000Y-48142000D01*
X91301402Y-48142000D01*
X91240906Y-48148505D01*
X91104035Y-48199555D01*
X91104034Y-48199555D01*
X90987095Y-48287095D01*
X90899555Y-48404034D01*
X90899555Y-48404035D01*
X90848505Y-48540906D01*
X90842000Y-48601402D01*
X90842000Y-49246000D01*
X91769297Y-49246000D01*
X91734075Y-49307007D01*
X91700000Y-49434174D01*
X91700000Y-49565826D01*
X91734075Y-49692993D01*
X91769297Y-49754000D01*
X90842000Y-49754000D01*
X90842000Y-50398597D01*
X90848505Y-50459093D01*
X90899555Y-50595964D01*
X90899555Y-50595965D01*
X90987095Y-50712904D01*
X91104034Y-50800444D01*
X91219172Y-50843388D01*
X91276008Y-50885935D01*
X91300819Y-50952455D01*
X91285728Y-51021829D01*
X91267841Y-51046782D01*
X91124280Y-51202729D01*
X91124275Y-51202734D01*
X91001141Y-51391206D01*
X90910703Y-51597386D01*
X90910702Y-51597387D01*
X90855437Y-51815624D01*
X90836844Y-52040000D01*
X90855437Y-52264375D01*
X90910702Y-52482612D01*
X90910703Y-52482613D01*
X91001141Y-52688793D01*
X91124275Y-52877265D01*
X91124279Y-52877270D01*
X91276762Y-53042908D01*
X91331331Y-53085381D01*
X91454424Y-53181189D01*
X91487680Y-53199186D01*
X91538071Y-53249200D01*
X91553423Y-53318516D01*
X91528862Y-53385129D01*
X91487680Y-53420813D01*
X91454426Y-53438810D01*
X91454424Y-53438811D01*
X91276762Y-53577091D01*
X91124279Y-53742729D01*
X91124275Y-53742734D01*
X91001141Y-53931206D01*
X90910703Y-54137386D01*
X90910702Y-54137387D01*
X90855437Y-54355624D01*
X90855436Y-54355630D01*
X90855436Y-54355632D01*
X90838928Y-54554855D01*
X90836844Y-54580000D01*
X90855437Y-54804375D01*
X90910702Y-55022612D01*
X90910703Y-55022613D01*
X91001141Y-55228793D01*
X91124275Y-55417265D01*
X91124279Y-55417270D01*
X91276762Y-55582908D01*
X91331331Y-55625381D01*
X91454424Y-55721189D01*
X91487680Y-55739186D01*
X91538071Y-55789200D01*
X91553423Y-55858516D01*
X91528862Y-55925129D01*
X91487680Y-55960813D01*
X91454426Y-55978810D01*
X91454424Y-55978811D01*
X91276762Y-56117091D01*
X91124279Y-56282729D01*
X91124275Y-56282734D01*
X91001141Y-56471206D01*
X90910703Y-56677386D01*
X90910702Y-56677387D01*
X90855437Y-56895624D01*
X90836844Y-57120000D01*
X90855437Y-57344375D01*
X90910702Y-57562612D01*
X90910703Y-57562613D01*
X91001141Y-57768793D01*
X91124275Y-57957265D01*
X91124279Y-57957270D01*
X91276762Y-58122908D01*
X91331331Y-58165381D01*
X91454424Y-58261189D01*
X91487680Y-58279186D01*
X91538071Y-58329200D01*
X91553423Y-58398516D01*
X91528862Y-58465129D01*
X91487680Y-58500813D01*
X91454426Y-58518810D01*
X91454424Y-58518811D01*
X91276762Y-58657091D01*
X91124279Y-58822729D01*
X91124275Y-58822734D01*
X91001141Y-59011206D01*
X90910703Y-59217386D01*
X90910702Y-59217387D01*
X90855437Y-59435624D01*
X90840499Y-59615885D01*
X90814939Y-59682121D01*
X90757627Y-59724024D01*
X90686758Y-59728290D01*
X90625834Y-59694574D01*
X83445405Y-52514145D01*
X83411379Y-52451833D01*
X83408500Y-52425050D01*
X83408500Y-51462600D01*
X83428502Y-51394479D01*
X83482158Y-51347986D01*
X83552432Y-51337882D01*
X83575411Y-51343426D01*
X83653049Y-51370080D01*
X83883288Y-51408500D01*
X83883292Y-51408500D01*
X84116708Y-51408500D01*
X84116712Y-51408500D01*
X84346951Y-51370080D01*
X84567727Y-51294287D01*
X84773017Y-51183190D01*
X84957220Y-51039818D01*
X85115314Y-50868083D01*
X85144814Y-50822928D01*
X85198816Y-50776841D01*
X85269164Y-50767265D01*
X85333521Y-50797241D01*
X85335421Y-50799434D01*
X85340796Y-50799991D01*
X86015841Y-50124946D01*
X86034075Y-50192993D01*
X86099901Y-50307007D01*
X86192993Y-50400099D01*
X86307007Y-50465925D01*
X86375051Y-50484157D01*
X85698680Y-51160528D01*
X85698681Y-51160529D01*
X85727249Y-51182765D01*
X85727258Y-51182771D01*
X85932474Y-51293827D01*
X85932477Y-51293829D01*
X86153167Y-51369592D01*
X86153176Y-51369594D01*
X86383334Y-51408000D01*
X86616666Y-51408000D01*
X86846823Y-51369594D01*
X86846832Y-51369592D01*
X87067522Y-51293829D01*
X87067525Y-51293827D01*
X87272738Y-51182772D01*
X87301317Y-51160528D01*
X86624947Y-50484158D01*
X86692993Y-50465925D01*
X86807007Y-50400099D01*
X86900099Y-50307007D01*
X86965925Y-50192993D01*
X86984158Y-50124947D01*
X87659203Y-50799991D01*
X87742544Y-50672427D01*
X87836273Y-50458747D01*
X87836275Y-50458743D01*
X87893555Y-50232549D01*
X87912825Y-50000000D01*
X87893555Y-49767450D01*
X87836275Y-49541256D01*
X87836273Y-49541252D01*
X87742547Y-49327578D01*
X87742540Y-49327566D01*
X87659202Y-49200007D01*
X86984157Y-49875051D01*
X86965925Y-49807007D01*
X86900099Y-49692993D01*
X86807007Y-49599901D01*
X86692993Y-49534075D01*
X86624947Y-49515841D01*
X87301318Y-48839470D01*
X87272743Y-48817229D01*
X87272741Y-48817228D01*
X87067525Y-48706172D01*
X87067522Y-48706170D01*
X86846832Y-48630407D01*
X86846823Y-48630405D01*
X86616666Y-48592000D01*
X86383334Y-48592000D01*
X86153176Y-48630405D01*
X86153167Y-48630407D01*
X85932477Y-48706170D01*
X85932474Y-48706172D01*
X85727259Y-48817227D01*
X85698681Y-48839470D01*
X85698680Y-48839470D01*
X86375052Y-49515842D01*
X86307007Y-49534075D01*
X86192993Y-49599901D01*
X86099901Y-49692993D01*
X86034075Y-49807007D01*
X86015842Y-49875052D01*
X85340796Y-49200006D01*
X85327258Y-49201411D01*
X85301775Y-49223159D01*
X85231427Y-49232734D01*
X85167070Y-49202756D01*
X85144814Y-49177070D01*
X85115314Y-49131916D01*
X84957225Y-48960186D01*
X84957221Y-48960182D01*
X84802130Y-48839470D01*
X84773017Y-48816810D01*
X84567727Y-48705713D01*
X84567724Y-48705712D01*
X84567723Y-48705711D01*
X84346955Y-48629921D01*
X84346948Y-48629919D01*
X84248411Y-48613476D01*
X84116712Y-48591500D01*
X83883288Y-48591500D01*
X83768066Y-48610727D01*
X83653051Y-48629919D01*
X83653044Y-48629921D01*
X83432276Y-48705711D01*
X83432273Y-48705713D01*
X83226985Y-48816809D01*
X83226983Y-48816810D01*
X83042778Y-48960182D01*
X83042774Y-48960186D01*
X82884685Y-49131916D01*
X82855483Y-49176615D01*
X82801480Y-49222704D01*
X82731132Y-49232279D01*
X82666774Y-49202302D01*
X82644517Y-49176615D01*
X82615314Y-49131916D01*
X82457225Y-48960186D01*
X82457221Y-48960182D01*
X82302130Y-48839470D01*
X82273017Y-48816810D01*
X82067727Y-48705713D01*
X82067724Y-48705712D01*
X82067723Y-48705711D01*
X81846955Y-48629921D01*
X81846948Y-48629919D01*
X81748411Y-48613476D01*
X81616712Y-48591500D01*
X81383288Y-48591500D01*
X81268066Y-48610727D01*
X81153051Y-48629919D01*
X81153044Y-48629921D01*
X80932276Y-48705711D01*
X80932273Y-48705713D01*
X80726985Y-48816809D01*
X80726983Y-48816810D01*
X80542778Y-48960182D01*
X80542774Y-48960186D01*
X80384685Y-49131916D01*
X80257015Y-49327331D01*
X80163252Y-49541089D01*
X80163249Y-49541096D01*
X80105950Y-49767366D01*
X80086673Y-50000000D01*
X80105950Y-50232633D01*
X80163249Y-50458903D01*
X80163252Y-50458910D01*
X80257015Y-50672668D01*
X80384685Y-50868083D01*
X80542774Y-51039813D01*
X80542778Y-51039817D01*
X80551727Y-51046782D01*
X80726983Y-51183190D01*
X80932273Y-51294287D01*
X81153049Y-51370080D01*
X81383288Y-51408500D01*
X81383292Y-51408500D01*
X81616708Y-51408500D01*
X81616712Y-51408500D01*
X81846951Y-51370080D01*
X81846964Y-51370075D01*
X81850837Y-51369095D01*
X81921784Y-51371753D01*
X81970880Y-51402140D01*
X82054595Y-51485855D01*
X82088621Y-51548167D01*
X82091500Y-51574950D01*
X82091500Y-62424469D01*
X82071498Y-62492590D01*
X82017842Y-62539083D01*
X81947568Y-62549187D01*
X81882988Y-62519693D01*
X81851492Y-62478117D01*
X81777065Y-62319952D01*
X81762562Y-62289131D01*
X81705998Y-62200000D01*
X81593437Y-62022631D01*
X81392236Y-61779421D01*
X81386727Y-61774248D01*
X81162140Y-61563346D01*
X81145431Y-61551206D01*
X80906781Y-61377817D01*
X80864385Y-61354509D01*
X80630179Y-61225753D01*
X80336702Y-61109557D01*
X80030975Y-61031060D01*
X80030970Y-61031059D01*
X80030965Y-61031058D01*
X80030967Y-61031058D01*
X79717835Y-60991501D01*
X79717824Y-60991500D01*
X79717821Y-60991500D01*
X79402179Y-60991500D01*
X79402176Y-60991500D01*
X79402164Y-60991501D01*
X79089033Y-61031058D01*
X78783301Y-61109556D01*
X78489821Y-61225753D01*
X78213218Y-61377817D01*
X77957861Y-61563345D01*
X77957860Y-61563345D01*
X77727763Y-61779421D01*
X77526562Y-62022631D01*
X77357443Y-62289121D01*
X77357436Y-62289135D01*
X77223044Y-62574732D01*
X77223039Y-62574745D01*
X77125507Y-62874919D01*
X77125504Y-62874932D01*
X77066359Y-63184975D01*
X77066357Y-63184992D01*
X77046540Y-63499993D01*
X77046540Y-63500006D01*
X77066357Y-63815007D01*
X77066359Y-63815024D01*
X77125504Y-64125067D01*
X77125507Y-64125080D01*
X77223039Y-64425254D01*
X77223044Y-64425267D01*
X77268508Y-64521882D01*
X77357438Y-64710869D01*
X77357440Y-64710872D01*
X77357443Y-64710878D01*
X77526562Y-64977368D01*
X77727763Y-65220578D01*
X77727766Y-65220580D01*
X77727767Y-65220582D01*
X77957860Y-65436654D01*
X78213221Y-65622184D01*
X78489821Y-65774247D01*
X78783298Y-65890443D01*
X79089025Y-65968940D01*
X79089033Y-65968941D01*
X79089032Y-65968941D01*
X79253129Y-65989670D01*
X79402179Y-66008500D01*
X79402183Y-66008500D01*
X79717817Y-66008500D01*
X79717821Y-66008500D01*
X80030975Y-65968940D01*
X80336702Y-65890443D01*
X80630179Y-65774247D01*
X80906779Y-65622184D01*
X81162140Y-65436654D01*
X81392233Y-65220582D01*
X81593432Y-64977375D01*
X81593434Y-64977370D01*
X81593437Y-64977368D01*
X81762556Y-64710878D01*
X81762562Y-64710869D01*
X81851492Y-64521881D01*
X81898594Y-64468761D01*
X81966939Y-64449538D01*
X82034827Y-64470317D01*
X82080704Y-64524500D01*
X82091500Y-64575530D01*
X82091500Y-68885048D01*
X82071498Y-68953169D01*
X82054595Y-68974144D01*
X81930879Y-69097859D01*
X81868567Y-69131884D01*
X81810859Y-69130909D01*
X81806959Y-69129921D01*
X81730021Y-69117082D01*
X81576712Y-69091500D01*
X81343288Y-69091500D01*
X81230110Y-69110386D01*
X81113051Y-69129919D01*
X81113044Y-69129921D01*
X80892276Y-69205711D01*
X80892273Y-69205713D01*
X80805168Y-69252852D01*
X80686985Y-69316809D01*
X80686983Y-69316810D01*
X80502778Y-69460182D01*
X80502774Y-69460186D01*
X80344685Y-69631916D01*
X80217015Y-69827331D01*
X80123252Y-70041089D01*
X80123249Y-70041096D01*
X80065950Y-70267366D01*
X80046673Y-70500000D01*
X80065950Y-70732633D01*
X80123249Y-70958903D01*
X80123252Y-70958910D01*
X80217015Y-71172668D01*
X80344685Y-71368083D01*
X80502774Y-71539813D01*
X80502778Y-71539817D01*
X80565123Y-71588342D01*
X80686983Y-71683190D01*
X80892273Y-71794287D01*
X81113049Y-71870080D01*
X81343288Y-71908500D01*
X81343292Y-71908500D01*
X81576708Y-71908500D01*
X81576712Y-71908500D01*
X81806951Y-71870080D01*
X82027727Y-71794287D01*
X82233017Y-71683190D01*
X82417220Y-71539818D01*
X82575314Y-71368083D01*
X82604517Y-71323383D01*
X82658519Y-71277296D01*
X82728867Y-71267720D01*
X82793225Y-71297696D01*
X82815481Y-71323382D01*
X82844686Y-71368083D01*
X82844687Y-71368084D01*
X83002774Y-71539813D01*
X83002778Y-71539817D01*
X83065123Y-71588342D01*
X83186983Y-71683190D01*
X83392273Y-71794287D01*
X83613049Y-71870080D01*
X83843288Y-71908500D01*
X83843292Y-71908500D01*
X84076708Y-71908500D01*
X84076712Y-71908500D01*
X84306951Y-71870080D01*
X84527727Y-71794287D01*
X84733017Y-71683190D01*
X84917220Y-71539818D01*
X85075314Y-71368083D01*
X85104814Y-71322928D01*
X85158816Y-71276841D01*
X85229164Y-71267265D01*
X85293521Y-71297241D01*
X85295421Y-71299434D01*
X85300796Y-71299991D01*
X85975841Y-70624946D01*
X85994075Y-70692993D01*
X86059901Y-70807007D01*
X86152993Y-70900099D01*
X86267007Y-70965925D01*
X86335051Y-70984157D01*
X85658680Y-71660528D01*
X85658681Y-71660529D01*
X85687249Y-71682765D01*
X85687258Y-71682771D01*
X85892474Y-71793827D01*
X85892477Y-71793829D01*
X86113167Y-71869592D01*
X86113176Y-71869594D01*
X86343334Y-71908000D01*
X86576666Y-71908000D01*
X86806823Y-71869594D01*
X86806832Y-71869592D01*
X87027522Y-71793829D01*
X87027525Y-71793827D01*
X87232738Y-71682772D01*
X87261317Y-71660528D01*
X86584947Y-70984158D01*
X86652993Y-70965925D01*
X86767007Y-70900099D01*
X86860099Y-70807007D01*
X86925925Y-70692993D01*
X86944158Y-70624947D01*
X87619203Y-71299991D01*
X87702544Y-71172427D01*
X87796273Y-70958747D01*
X87796275Y-70958743D01*
X87853555Y-70732549D01*
X87872825Y-70500000D01*
X87853555Y-70267450D01*
X87796275Y-70041256D01*
X87796273Y-70041252D01*
X87702547Y-69827578D01*
X87702540Y-69827566D01*
X87619202Y-69700007D01*
X86944157Y-70375051D01*
X86925925Y-70307007D01*
X86860099Y-70192993D01*
X86767007Y-70099901D01*
X86652993Y-70034075D01*
X86584947Y-70015841D01*
X87261318Y-69339470D01*
X87232743Y-69317229D01*
X87232741Y-69317228D01*
X87027525Y-69206172D01*
X87027522Y-69206170D01*
X86806832Y-69130407D01*
X86806823Y-69130405D01*
X86576666Y-69092000D01*
X86343334Y-69092000D01*
X86113176Y-69130405D01*
X86113167Y-69130407D01*
X85892477Y-69206170D01*
X85892474Y-69206172D01*
X85687259Y-69317227D01*
X85658681Y-69339470D01*
X85658680Y-69339470D01*
X86335052Y-70015842D01*
X86267007Y-70034075D01*
X86152993Y-70099901D01*
X86059901Y-70192993D01*
X85994075Y-70307007D01*
X85975842Y-70375052D01*
X85300796Y-69700006D01*
X85287258Y-69701411D01*
X85261775Y-69723159D01*
X85191427Y-69732734D01*
X85127070Y-69702756D01*
X85104814Y-69677070D01*
X85075314Y-69631916D01*
X84917225Y-69460186D01*
X84917221Y-69460182D01*
X84825118Y-69388496D01*
X84733017Y-69316810D01*
X84527727Y-69205713D01*
X84527724Y-69205712D01*
X84527723Y-69205711D01*
X84306955Y-69129921D01*
X84306948Y-69129919D01*
X84208411Y-69113476D01*
X84076712Y-69091500D01*
X83843288Y-69091500D01*
X83730110Y-69110386D01*
X83613051Y-69129919D01*
X83613049Y-69129920D01*
X83599046Y-69134726D01*
X83575410Y-69142841D01*
X83504485Y-69146040D01*
X83443090Y-69110386D01*
X83410717Y-69047200D01*
X83408500Y-69023667D01*
X83408500Y-54643950D01*
X83428502Y-54575829D01*
X83482158Y-54529336D01*
X83552432Y-54519232D01*
X83617012Y-54548726D01*
X83623595Y-54554855D01*
X90842988Y-61774248D01*
X90877014Y-61836560D01*
X90876038Y-61894273D01*
X90855436Y-61975628D01*
X90836844Y-62200000D01*
X90846784Y-62319952D01*
X90832475Y-62389492D01*
X90782842Y-62440257D01*
X90713643Y-62456129D01*
X90646847Y-62432070D01*
X90607206Y-62384005D01*
X90577065Y-62319952D01*
X90562562Y-62289131D01*
X90505998Y-62200000D01*
X90393437Y-62022631D01*
X90192236Y-61779421D01*
X90186727Y-61774248D01*
X89962140Y-61563346D01*
X89945431Y-61551206D01*
X89706781Y-61377817D01*
X89664385Y-61354509D01*
X89430179Y-61225753D01*
X89136702Y-61109557D01*
X88830975Y-61031060D01*
X88830970Y-61031059D01*
X88830965Y-61031058D01*
X88830967Y-61031058D01*
X88517835Y-60991501D01*
X88517824Y-60991500D01*
X88517821Y-60991500D01*
X88202179Y-60991500D01*
X88202176Y-60991500D01*
X88202164Y-60991501D01*
X87889033Y-61031058D01*
X87583301Y-61109556D01*
X87289821Y-61225753D01*
X87013218Y-61377817D01*
X86757861Y-61563345D01*
X86757860Y-61563345D01*
X86527763Y-61779421D01*
X86326562Y-62022631D01*
X86157443Y-62289121D01*
X86157436Y-62289135D01*
X86023044Y-62574732D01*
X86023039Y-62574745D01*
X85925507Y-62874919D01*
X85925504Y-62874932D01*
X85866359Y-63184975D01*
X85866357Y-63184992D01*
X85846540Y-63499993D01*
X85846540Y-63500006D01*
X85866357Y-63815007D01*
X85866359Y-63815024D01*
X85925504Y-64125067D01*
X85925507Y-64125080D01*
X86023039Y-64425254D01*
X86023044Y-64425267D01*
X86068508Y-64521882D01*
X86157438Y-64710869D01*
X86157440Y-64710872D01*
X86157443Y-64710878D01*
X86326562Y-64977368D01*
X86527763Y-65220578D01*
X86527766Y-65220580D01*
X86527767Y-65220582D01*
X86757860Y-65436654D01*
X87013221Y-65622184D01*
X87289821Y-65774247D01*
X87583298Y-65890443D01*
X87889025Y-65968940D01*
X87889033Y-65968941D01*
X87889032Y-65968941D01*
X88053129Y-65989670D01*
X88202179Y-66008500D01*
X88202183Y-66008500D01*
X88517817Y-66008500D01*
X88517821Y-66008500D01*
X88830975Y-65968940D01*
X89136702Y-65890443D01*
X89430179Y-65774247D01*
X89706779Y-65622184D01*
X89962140Y-65436654D01*
X90192233Y-65220582D01*
X90393432Y-64977375D01*
X90393434Y-64977370D01*
X90393437Y-64977368D01*
X90562556Y-64710878D01*
X90562562Y-64710869D01*
X90696956Y-64425266D01*
X90794495Y-64125072D01*
X90853641Y-63815020D01*
X90873460Y-63500000D01*
X90867331Y-63402588D01*
X90853642Y-63184992D01*
X90853641Y-63184989D01*
X90853641Y-63184980D01*
X90821704Y-63017563D01*
X90828587Y-62946904D01*
X90872580Y-62891180D01*
X90939716Y-62868087D01*
X91008679Y-62884956D01*
X91050955Y-62925039D01*
X91124279Y-63037270D01*
X91276762Y-63202908D01*
X91331331Y-63245381D01*
X91454424Y-63341189D01*
X91475468Y-63352577D01*
X91525859Y-63402588D01*
X91541500Y-63463391D01*
X91541500Y-64435049D01*
X91521498Y-64503170D01*
X91504595Y-64524144D01*
X90238515Y-65790223D01*
X90238510Y-65790229D01*
X90171551Y-65890442D01*
X90171547Y-65890448D01*
X90166445Y-65898081D01*
X90116807Y-66017919D01*
X90116806Y-66017922D01*
X90091500Y-66145139D01*
X90091500Y-81930981D01*
X90071498Y-81999102D01*
X90017842Y-82045595D01*
X89947568Y-82055699D01*
X89891439Y-82032917D01*
X89746781Y-81927817D01*
X89661283Y-81880814D01*
X89470179Y-81775753D01*
X89176702Y-81659557D01*
X88870975Y-81581060D01*
X88870970Y-81581059D01*
X88870965Y-81581058D01*
X88870967Y-81581058D01*
X88557835Y-81541501D01*
X88557824Y-81541500D01*
X88557821Y-81541500D01*
X88242179Y-81541500D01*
X88242176Y-81541500D01*
X88242164Y-81541501D01*
X87929033Y-81581058D01*
X87623301Y-81659556D01*
X87623299Y-81659556D01*
X87623298Y-81659557D01*
X87458867Y-81724660D01*
X87329821Y-81775753D01*
X87053218Y-81927817D01*
X86797861Y-82113345D01*
X86797860Y-82113345D01*
X86567763Y-82329421D01*
X86366562Y-82572631D01*
X86197443Y-82839121D01*
X86197436Y-82839135D01*
X86063044Y-83124732D01*
X86063039Y-83124745D01*
X85965507Y-83424919D01*
X85965504Y-83424932D01*
X85906359Y-83734975D01*
X85906357Y-83734992D01*
X85886540Y-84049993D01*
X85886540Y-84050006D01*
X85906357Y-84365007D01*
X85906359Y-84365024D01*
X85965504Y-84675067D01*
X85965507Y-84675080D01*
X86063039Y-84975254D01*
X86063044Y-84975266D01*
X86197438Y-85260869D01*
X86197440Y-85260872D01*
X86197443Y-85260878D01*
X86366562Y-85527368D01*
X86567763Y-85770578D01*
X86567766Y-85770580D01*
X86567767Y-85770582D01*
X86695701Y-85890720D01*
X86797860Y-85986654D01*
X87052429Y-86171609D01*
X87053221Y-86172184D01*
X87329821Y-86324247D01*
X87623298Y-86440443D01*
X87929025Y-86518940D01*
X87929033Y-86518941D01*
X87929032Y-86518941D01*
X88093129Y-86539670D01*
X88242179Y-86558500D01*
X88242183Y-86558500D01*
X88557817Y-86558500D01*
X88557821Y-86558500D01*
X88870975Y-86518940D01*
X89176702Y-86440443D01*
X89470179Y-86324247D01*
X89746779Y-86172184D01*
X89746778Y-86172184D01*
X89747825Y-86171609D01*
X89817155Y-86156319D01*
X89883746Y-86180939D01*
X89926455Y-86237653D01*
X89931723Y-86308454D01*
X89897876Y-86370863D01*
X88389094Y-87879645D01*
X88326782Y-87913671D01*
X88255967Y-87908606D01*
X88210904Y-87879645D01*
X87201032Y-86869773D01*
X86130258Y-85798998D01*
X86022406Y-85726934D01*
X85902569Y-85677296D01*
X85902566Y-85677295D01*
X85775349Y-85651989D01*
X85775346Y-85651989D01*
X85645632Y-85651989D01*
X85645628Y-85651989D01*
X85518411Y-85677295D01*
X85518408Y-85677296D01*
X85398571Y-85726934D01*
X85290721Y-85798997D01*
X85290715Y-85799002D01*
X85199002Y-85890715D01*
X85198997Y-85890721D01*
X85126934Y-85998571D01*
X85077296Y-86118408D01*
X85077295Y-86118411D01*
X85051989Y-86245628D01*
X85051989Y-86375349D01*
X85077295Y-86502566D01*
X85077296Y-86502569D01*
X85100463Y-86558500D01*
X85126934Y-86622406D01*
X85198998Y-86730258D01*
X85199001Y-86730261D01*
X85199002Y-86730262D01*
X87504595Y-89035854D01*
X87538620Y-89098166D01*
X87541500Y-89124949D01*
X87541500Y-89818673D01*
X87521498Y-89886794D01*
X87467842Y-89933287D01*
X87397568Y-89943391D01*
X87338110Y-89918105D01*
X87272748Y-89867232D01*
X87067525Y-89756172D01*
X87067522Y-89756170D01*
X86846832Y-89680407D01*
X86846823Y-89680405D01*
X86616666Y-89642000D01*
X86383334Y-89642000D01*
X86153176Y-89680405D01*
X86153167Y-89680407D01*
X85932477Y-89756170D01*
X85932474Y-89756172D01*
X85727259Y-89867227D01*
X85698681Y-89889470D01*
X85698680Y-89889470D01*
X86375052Y-90565842D01*
X86307007Y-90584075D01*
X86192993Y-90649901D01*
X86099901Y-90742993D01*
X86034075Y-90857007D01*
X86015842Y-90925052D01*
X85340796Y-90250006D01*
X85327258Y-90251411D01*
X85301775Y-90273159D01*
X85231427Y-90282734D01*
X85167070Y-90252756D01*
X85144814Y-90227070D01*
X85115314Y-90181916D01*
X84957225Y-90010186D01*
X84957221Y-90010182D01*
X84798692Y-89886794D01*
X84773017Y-89866810D01*
X84567727Y-89755713D01*
X84567724Y-89755712D01*
X84567723Y-89755711D01*
X84346955Y-89679921D01*
X84346948Y-89679919D01*
X84248411Y-89663476D01*
X84116712Y-89641500D01*
X83883288Y-89641500D01*
X83768066Y-89660727D01*
X83653051Y-89679919D01*
X83653044Y-89679921D01*
X83575901Y-89706405D01*
X83504977Y-89709605D01*
X83443581Y-89673953D01*
X83411207Y-89610768D01*
X83408989Y-89587232D01*
X83408989Y-80185634D01*
X83408988Y-80185629D01*
X83404790Y-80164525D01*
X83404789Y-80164519D01*
X83383686Y-80058418D01*
X83383685Y-80058417D01*
X83383684Y-80058416D01*
X83383684Y-80058412D01*
X83334044Y-79938572D01*
X83261980Y-79830720D01*
X80879769Y-77448509D01*
X80771917Y-77376445D01*
X80652080Y-77326807D01*
X80652077Y-77326806D01*
X80524860Y-77301500D01*
X80524857Y-77301500D01*
X77010705Y-77301500D01*
X76942584Y-77281498D01*
X76905222Y-77244415D01*
X76825724Y-77122735D01*
X76825720Y-77122729D01*
X76673237Y-76957091D01*
X76591382Y-76893381D01*
X76495576Y-76818811D01*
X76461792Y-76800528D01*
X76411402Y-76750516D01*
X76396050Y-76681199D01*
X76420610Y-76614586D01*
X76461793Y-76578901D01*
X76495300Y-76560767D01*
X76495301Y-76560767D01*
X76672902Y-76422534D01*
X76825325Y-76256958D01*
X76948419Y-76068548D01*
X77038820Y-75862456D01*
X77038823Y-75862449D01*
X77086544Y-75674000D01*
X76180703Y-75674000D01*
X76215925Y-75612993D01*
X76250000Y-75485826D01*
X76250000Y-75354174D01*
X76215925Y-75227007D01*
X76180703Y-75166000D01*
X77086544Y-75166000D01*
X77086544Y-75165999D01*
X77038823Y-74977550D01*
X77038820Y-74977543D01*
X76948419Y-74771451D01*
X76825325Y-74583041D01*
X76672902Y-74417465D01*
X76495301Y-74279232D01*
X76495300Y-74279231D01*
X76461791Y-74261097D01*
X76411401Y-74211083D01*
X76396050Y-74141766D01*
X76420612Y-74075153D01*
X76461790Y-74039472D01*
X76495576Y-74021189D01*
X76673240Y-73882906D01*
X76825722Y-73717268D01*
X76948860Y-73528791D01*
X77039296Y-73322616D01*
X77094564Y-73104368D01*
X77113156Y-72880000D01*
X77094564Y-72655632D01*
X77039296Y-72437384D01*
X76948860Y-72231209D01*
X76942140Y-72220924D01*
X76825724Y-72042734D01*
X76825720Y-72042729D01*
X76709570Y-71916559D01*
X76673240Y-71877094D01*
X76673239Y-71877093D01*
X76673237Y-71877091D01*
X76566262Y-71793829D01*
X76495576Y-71738811D01*
X76462319Y-71720813D01*
X76411929Y-71670802D01*
X76396576Y-71601485D01*
X76421136Y-71534872D01*
X76462320Y-71499186D01*
X76495576Y-71481189D01*
X76673240Y-71342906D01*
X76825722Y-71177268D01*
X76948860Y-70988791D01*
X77039296Y-70782616D01*
X77094564Y-70564368D01*
X77113156Y-70340000D01*
X77094564Y-70115632D01*
X77090580Y-70099901D01*
X77039297Y-69897387D01*
X77039296Y-69897386D01*
X77039296Y-69897384D01*
X76948860Y-69691209D01*
X76910122Y-69631916D01*
X76825724Y-69502734D01*
X76825719Y-69502729D01*
X76786551Y-69460182D01*
X76682524Y-69347179D01*
X76651103Y-69283514D01*
X76659090Y-69212968D01*
X76703948Y-69157939D01*
X76731183Y-69143789D01*
X76846204Y-69100889D01*
X76858079Y-69092000D01*
X76963261Y-69013261D01*
X77050887Y-68896207D01*
X77050887Y-68896206D01*
X77050889Y-68896204D01*
X77101989Y-68759201D01*
X77108500Y-68698638D01*
X77108500Y-66901362D01*
X77108499Y-66901350D01*
X77101990Y-66840803D01*
X77101988Y-66840795D01*
X77050889Y-66703797D01*
X77050887Y-66703792D01*
X76963261Y-66586738D01*
X76846207Y-66499112D01*
X76846202Y-66499110D01*
X76709204Y-66448011D01*
X76709196Y-66448009D01*
X76648649Y-66441500D01*
X76648638Y-66441500D01*
X74851362Y-66441500D01*
X74851350Y-66441500D01*
X74790803Y-66448009D01*
X74790795Y-66448011D01*
X74653797Y-66499110D01*
X74653792Y-66499112D01*
X74536738Y-66586738D01*
X74449112Y-66703792D01*
X74449110Y-66703797D01*
X74398011Y-66840795D01*
X74398009Y-66840803D01*
X74391500Y-66901350D01*
X74391500Y-68698649D01*
X74398009Y-68759196D01*
X74398011Y-68759204D01*
X74449110Y-68896202D01*
X74449112Y-68896207D01*
X74536738Y-69013261D01*
X74653791Y-69100886D01*
X74653792Y-69100886D01*
X74653796Y-69100889D01*
X74768810Y-69143787D01*
X74825642Y-69186332D01*
X74850453Y-69252852D01*
X74835362Y-69322226D01*
X74817475Y-69347179D01*
X74674280Y-69502729D01*
X74674275Y-69502734D01*
X74551141Y-69691206D01*
X74460703Y-69897386D01*
X74460702Y-69897387D01*
X74405437Y-70115624D01*
X74405436Y-70115630D01*
X74405436Y-70115632D01*
X74386844Y-70340000D01*
X74400102Y-70500000D01*
X74405437Y-70564375D01*
X74460702Y-70782612D01*
X74460703Y-70782613D01*
X74460704Y-70782616D01*
X74537960Y-70958743D01*
X74551141Y-70988793D01*
X74674275Y-71177265D01*
X74674279Y-71177270D01*
X74802539Y-71316596D01*
X74808789Y-71323385D01*
X74826762Y-71342908D01*
X74859107Y-71368083D01*
X75004424Y-71481189D01*
X75037680Y-71499186D01*
X75088071Y-71549200D01*
X75103423Y-71618516D01*
X75078862Y-71685129D01*
X75037680Y-71720813D01*
X75004426Y-71738810D01*
X75004424Y-71738811D01*
X74826762Y-71877091D01*
X74674279Y-72042729D01*
X74674275Y-72042734D01*
X74551141Y-72231206D01*
X74460703Y-72437386D01*
X74460702Y-72437387D01*
X74405437Y-72655624D01*
X74386844Y-72880000D01*
X74405437Y-73104375D01*
X74460702Y-73322612D01*
X74460703Y-73322613D01*
X74551141Y-73528793D01*
X74674275Y-73717265D01*
X74674279Y-73717270D01*
X74826762Y-73882908D01*
X74881331Y-73925381D01*
X75004424Y-74021189D01*
X75038205Y-74039470D01*
X75088596Y-74089482D01*
X75103949Y-74158799D01*
X75079389Y-74225412D01*
X75038209Y-74261096D01*
X75004704Y-74279228D01*
X75004698Y-74279232D01*
X74827097Y-74417465D01*
X74674674Y-74583041D01*
X74551580Y-74771451D01*
X74461179Y-74977543D01*
X74461176Y-74977550D01*
X74413455Y-75165999D01*
X74413456Y-75166000D01*
X75319297Y-75166000D01*
X75284075Y-75227007D01*
X75250000Y-75354174D01*
X75250000Y-75485826D01*
X75284075Y-75612993D01*
X75319297Y-75674000D01*
X74413455Y-75674000D01*
X74461176Y-75862449D01*
X74461179Y-75862456D01*
X74551580Y-76068548D01*
X74674674Y-76256958D01*
X74827097Y-76422534D01*
X75004698Y-76560767D01*
X75004704Y-76560771D01*
X75038207Y-76578902D01*
X75088597Y-76628915D01*
X75103949Y-76698232D01*
X75079388Y-76764845D01*
X75038207Y-76800528D01*
X75004430Y-76818807D01*
X75004424Y-76818811D01*
X74826762Y-76957091D01*
X74674279Y-77122729D01*
X74674275Y-77122734D01*
X74551141Y-77311206D01*
X74460703Y-77517386D01*
X74460702Y-77517387D01*
X74405437Y-77735624D01*
X74386844Y-77960000D01*
X74405437Y-78184375D01*
X74460702Y-78402612D01*
X74460703Y-78402613D01*
X74551141Y-78608793D01*
X74674275Y-78797265D01*
X74674279Y-78797270D01*
X74826762Y-78962908D01*
X74881331Y-79005381D01*
X75004424Y-79101189D01*
X75037680Y-79119186D01*
X75088071Y-79169200D01*
X75103423Y-79238516D01*
X75078862Y-79305129D01*
X75037680Y-79340813D01*
X75004426Y-79358810D01*
X75004424Y-79358811D01*
X74826762Y-79497091D01*
X74674279Y-79662729D01*
X74674275Y-79662734D01*
X74551141Y-79851206D01*
X74460703Y-80057386D01*
X74460702Y-80057387D01*
X74405437Y-80275624D01*
X74386844Y-80500000D01*
X74405437Y-80724375D01*
X74460702Y-80942612D01*
X74460703Y-80942613D01*
X74551141Y-81148793D01*
X74674275Y-81337265D01*
X74674279Y-81337270D01*
X74826762Y-81502908D01*
X74875933Y-81541179D01*
X75004424Y-81641189D01*
X75037680Y-81659186D01*
X75088071Y-81709200D01*
X75103423Y-81778516D01*
X75078862Y-81845129D01*
X75037680Y-81880813D01*
X75004426Y-81898810D01*
X75004424Y-81898811D01*
X74826762Y-82037091D01*
X74674279Y-82202729D01*
X74674275Y-82202734D01*
X74551141Y-82391206D01*
X74460703Y-82597386D01*
X74460702Y-82597387D01*
X74405437Y-82815624D01*
X74405436Y-82815630D01*
X74405436Y-82815632D01*
X74386844Y-83040000D01*
X74393865Y-83124734D01*
X74405437Y-83264375D01*
X74460702Y-83482612D01*
X74460703Y-83482613D01*
X74551141Y-83688793D01*
X74674275Y-83877265D01*
X74674279Y-83877270D01*
X74826762Y-84042908D01*
X74835865Y-84049993D01*
X75004424Y-84181189D01*
X75037680Y-84199186D01*
X75088071Y-84249200D01*
X75103423Y-84318516D01*
X75078862Y-84385129D01*
X75037680Y-84420814D01*
X75004426Y-84438810D01*
X75004424Y-84438811D01*
X74826762Y-84577091D01*
X74674279Y-84742729D01*
X74674275Y-84742734D01*
X74551141Y-84931206D01*
X74460703Y-85137386D01*
X74460702Y-85137387D01*
X74405437Y-85355624D01*
X74386844Y-85580000D01*
X74405436Y-85804369D01*
X74426038Y-85885723D01*
X74423370Y-85956670D01*
X74392989Y-86005749D01*
X74240596Y-86158143D01*
X74178284Y-86192168D01*
X74107468Y-86187104D01*
X74050632Y-86144557D01*
X74025821Y-86078037D01*
X74025500Y-86069048D01*
X74025500Y-42999993D01*
X77086540Y-42999993D01*
X77086540Y-43000006D01*
X77106357Y-43315007D01*
X77106359Y-43315024D01*
X77165504Y-43625067D01*
X77165507Y-43625080D01*
X77263039Y-43925254D01*
X77263044Y-43925266D01*
X77397438Y-44210869D01*
X77397440Y-44210872D01*
X77397443Y-44210878D01*
X77566562Y-44477368D01*
X77767763Y-44720578D01*
X77767766Y-44720580D01*
X77767767Y-44720582D01*
X77997860Y-44936654D01*
X78253221Y-45122184D01*
X78529821Y-45274247D01*
X78823298Y-45390443D01*
X79129025Y-45468940D01*
X79129033Y-45468941D01*
X79129032Y-45468941D01*
X79293129Y-45489670D01*
X79442179Y-45508500D01*
X79442183Y-45508500D01*
X79757817Y-45508500D01*
X79757821Y-45508500D01*
X80070975Y-45468940D01*
X80376702Y-45390443D01*
X80670179Y-45274247D01*
X80946779Y-45122184D01*
X81202140Y-44936654D01*
X81432233Y-44720582D01*
X81633432Y-44477375D01*
X81633434Y-44477370D01*
X81633437Y-44477368D01*
X81802556Y-44210878D01*
X81802562Y-44210869D01*
X81936956Y-43925266D01*
X82034495Y-43625072D01*
X82093641Y-43315020D01*
X82113460Y-43000000D01*
X82113460Y-42999993D01*
X85886540Y-42999993D01*
X85886540Y-43000006D01*
X85906357Y-43315007D01*
X85906359Y-43315024D01*
X85965504Y-43625067D01*
X85965507Y-43625080D01*
X86063039Y-43925254D01*
X86063044Y-43925266D01*
X86197438Y-44210869D01*
X86197440Y-44210872D01*
X86197443Y-44210878D01*
X86366562Y-44477368D01*
X86567763Y-44720578D01*
X86567766Y-44720580D01*
X86567767Y-44720582D01*
X86797860Y-44936654D01*
X87053221Y-45122184D01*
X87329821Y-45274247D01*
X87623298Y-45390443D01*
X87929025Y-45468940D01*
X87929033Y-45468941D01*
X87929032Y-45468941D01*
X88093129Y-45489670D01*
X88242179Y-45508500D01*
X88242183Y-45508500D01*
X88557817Y-45508500D01*
X88557821Y-45508500D01*
X88870975Y-45468940D01*
X89176702Y-45390443D01*
X89470179Y-45274247D01*
X89746779Y-45122184D01*
X90002140Y-44936654D01*
X90232233Y-44720582D01*
X90433432Y-44477375D01*
X90433434Y-44477370D01*
X90433437Y-44477368D01*
X90602556Y-44210878D01*
X90602562Y-44210869D01*
X90736956Y-43925266D01*
X90834495Y-43625072D01*
X90893641Y-43315020D01*
X90913460Y-43000000D01*
X90893641Y-42684980D01*
X90834495Y-42374928D01*
X90736956Y-42074734D01*
X90602562Y-41789131D01*
X90602556Y-41789121D01*
X90433437Y-41522631D01*
X90232236Y-41279421D01*
X90002139Y-41063345D01*
X89746781Y-40877817D01*
X89704385Y-40854509D01*
X89470179Y-40725753D01*
X89176702Y-40609557D01*
X88870975Y-40531060D01*
X88870970Y-40531059D01*
X88870965Y-40531058D01*
X88870967Y-40531058D01*
X88557835Y-40491501D01*
X88557824Y-40491500D01*
X88557821Y-40491500D01*
X88242179Y-40491500D01*
X88242176Y-40491500D01*
X88242164Y-40491501D01*
X87929033Y-40531058D01*
X87623301Y-40609556D01*
X87329821Y-40725753D01*
X87053218Y-40877817D01*
X86797861Y-41063345D01*
X86797860Y-41063345D01*
X86567763Y-41279421D01*
X86366562Y-41522631D01*
X86197443Y-41789121D01*
X86197436Y-41789135D01*
X86063044Y-42074732D01*
X86063039Y-42074745D01*
X85965507Y-42374919D01*
X85965504Y-42374932D01*
X85906359Y-42684975D01*
X85906357Y-42684992D01*
X85886540Y-42999993D01*
X82113460Y-42999993D01*
X82093641Y-42684980D01*
X82034495Y-42374928D01*
X81936956Y-42074734D01*
X81802562Y-41789131D01*
X81802556Y-41789121D01*
X81633437Y-41522631D01*
X81432236Y-41279421D01*
X81202139Y-41063345D01*
X80946781Y-40877817D01*
X80904385Y-40854509D01*
X80670179Y-40725753D01*
X80376702Y-40609557D01*
X80070975Y-40531060D01*
X80070970Y-40531059D01*
X80070965Y-40531058D01*
X80070967Y-40531058D01*
X79757835Y-40491501D01*
X79757824Y-40491500D01*
X79757821Y-40491500D01*
X79442179Y-40491500D01*
X79442176Y-40491500D01*
X79442164Y-40491501D01*
X79129033Y-40531058D01*
X78823301Y-40609556D01*
X78529821Y-40725753D01*
X78253218Y-40877817D01*
X77997861Y-41063345D01*
X77997860Y-41063345D01*
X77767763Y-41279421D01*
X77566562Y-41522631D01*
X77397443Y-41789121D01*
X77397436Y-41789135D01*
X77263044Y-42074732D01*
X77263039Y-42074745D01*
X77165507Y-42374919D01*
X77165504Y-42374932D01*
X77106359Y-42684975D01*
X77106357Y-42684992D01*
X77086540Y-42999993D01*
X74025500Y-42999993D01*
X74025500Y-36651500D01*
X74045502Y-36583379D01*
X74099158Y-36536886D01*
X74151500Y-36525500D01*
X93848500Y-36525500D01*
X93916621Y-36545502D01*
G37*
G04 #@! TD.AperFunction*
G04 #@! TA.AperFunction,Conductor*
G36*
X81075889Y-92393591D02*
G01*
X81153049Y-92420080D01*
X81383288Y-92458500D01*
X81383292Y-92458500D01*
X81616708Y-92458500D01*
X81616712Y-92458500D01*
X81846951Y-92420080D01*
X81925077Y-92393258D01*
X81996001Y-92390058D01*
X82057397Y-92425711D01*
X82089771Y-92488896D01*
X82091989Y-92512432D01*
X82091989Y-105615349D01*
X82117295Y-105742566D01*
X82166934Y-105862406D01*
X82238998Y-105970258D01*
X82239002Y-105970262D01*
X84605102Y-108336362D01*
X84639128Y-108398674D01*
X84634063Y-108469489D01*
X84591516Y-108526325D01*
X84524996Y-108551136D01*
X84483396Y-108547164D01*
X84412126Y-108528067D01*
X84254000Y-108507249D01*
X84254000Y-110419297D01*
X84192993Y-110384075D01*
X84065826Y-110350000D01*
X83934174Y-110350000D01*
X83807007Y-110384075D01*
X83746000Y-110419297D01*
X83746000Y-108507250D01*
X83745999Y-108507249D01*
X83587874Y-108528067D01*
X83320952Y-108599588D01*
X83065653Y-108705337D01*
X83065642Y-108705342D01*
X82826343Y-108843501D01*
X82607115Y-109011722D01*
X82607101Y-109011735D01*
X82473595Y-109145242D01*
X82411283Y-109179268D01*
X82340468Y-109174203D01*
X82283632Y-109131656D01*
X82258821Y-109065136D01*
X82258500Y-109056147D01*
X82258500Y-107435142D01*
X82258499Y-107435139D01*
X82233194Y-107307923D01*
X82183555Y-107188083D01*
X82111491Y-107080231D01*
X80945894Y-105914634D01*
X80911868Y-105852322D01*
X80908989Y-105825539D01*
X80908989Y-92512767D01*
X80928991Y-92444646D01*
X80982647Y-92398153D01*
X81052921Y-92388049D01*
X81075889Y-92393591D01*
G37*
G04 #@! TD.AperFunction*
G04 #@! TA.AperFunction,Conductor*
G36*
X86034075Y-91242993D02*
G01*
X86099901Y-91357007D01*
X86192993Y-91450099D01*
X86307007Y-91515925D01*
X86375051Y-91534157D01*
X85698680Y-92210528D01*
X85698681Y-92210529D01*
X85727249Y-92232765D01*
X85727258Y-92232771D01*
X85932474Y-92343827D01*
X85932477Y-92343829D01*
X86153167Y-92419592D01*
X86153176Y-92419594D01*
X86383334Y-92458000D01*
X86616666Y-92458000D01*
X86846823Y-92419594D01*
X86846832Y-92419592D01*
X87067522Y-92343829D01*
X87067525Y-92343827D01*
X87272749Y-92232766D01*
X87338109Y-92181895D01*
X87404151Y-92155838D01*
X87473797Y-92169623D01*
X87524933Y-92218873D01*
X87541500Y-92281326D01*
X87541500Y-106664860D01*
X87566806Y-106792077D01*
X87616445Y-106911917D01*
X87688509Y-107019769D01*
X87688513Y-107019773D01*
X88946599Y-108277859D01*
X88980625Y-108340171D01*
X88975560Y-108410986D01*
X88933013Y-108467822D01*
X88866493Y-108492633D01*
X88841073Y-108491878D01*
X88838207Y-108491501D01*
X88838204Y-108491500D01*
X88838198Y-108491500D01*
X88561802Y-108491500D01*
X88561799Y-108491500D01*
X88287776Y-108527575D01*
X88020795Y-108599112D01*
X88020791Y-108599114D01*
X87765431Y-108704887D01*
X87765421Y-108704892D01*
X87526070Y-108843082D01*
X87379643Y-108955439D01*
X87313845Y-109005928D01*
X87303514Y-109013855D01*
X87302662Y-109012744D01*
X87243611Y-109040124D01*
X87173280Y-109030425D01*
X87135867Y-109004607D01*
X83445894Y-105314634D01*
X83411868Y-105252322D01*
X83408989Y-105225539D01*
X83408989Y-92512767D01*
X83428991Y-92444646D01*
X83482647Y-92398153D01*
X83552921Y-92388049D01*
X83575889Y-92393591D01*
X83653049Y-92420080D01*
X83883288Y-92458500D01*
X83883292Y-92458500D01*
X84116708Y-92458500D01*
X84116712Y-92458500D01*
X84346951Y-92420080D01*
X84567727Y-92344287D01*
X84773017Y-92233190D01*
X84957220Y-92089818D01*
X85115314Y-91918083D01*
X85144814Y-91872928D01*
X85198816Y-91826841D01*
X85269164Y-91817265D01*
X85333521Y-91847241D01*
X85335421Y-91849434D01*
X85340796Y-91849991D01*
X86015841Y-91174946D01*
X86034075Y-91242993D01*
G37*
G04 #@! TD.AperFunction*
M02*
