G04 #@! TF.GenerationSoftware,KiCad,Pcbnew,8.0.6-8.0.6-0~ubuntu22.04.1*
G04 #@! TF.CreationDate,2025-04-15T21:33:45+01:00*
G04 #@! TF.ProjectId,RP2040-VCO,52503230-3430-42d5-9643-4f2e6b696361,rev?*
G04 #@! TF.SameCoordinates,Original*
G04 #@! TF.FileFunction,Copper,L1,Top*
G04 #@! TF.FilePolarity,Positive*
%FSLAX46Y46*%
G04 Gerber Fmt 4.6, Leading zero omitted, Abs format (unit mm)*
G04 Created by KiCad (PCBNEW 8.0.6-8.0.6-0~ubuntu22.04.1) date 2025-04-15 21:33:45*
%MOMM*%
%LPD*%
G01*
G04 APERTURE LIST*
G04 #@! TA.AperFunction,ComponentPad*
%ADD10R,1.930000X1.830000*%
G04 #@! TD*
G04 #@! TA.AperFunction,ComponentPad*
%ADD11C,2.130000*%
G04 #@! TD*
G04 #@! TA.AperFunction,WasherPad*
%ADD12C,4.000000*%
G04 #@! TD*
G04 #@! TA.AperFunction,ComponentPad*
%ADD13C,1.800000*%
G04 #@! TD*
G04 #@! TA.AperFunction,WasherPad*
%ADD14C,1.500000*%
G04 #@! TD*
G04 #@! TA.AperFunction,ComponentPad*
%ADD15C,1.524000*%
G04 #@! TD*
G04 #@! TA.AperFunction,ComponentPad*
%ADD16O,3.200000X5.000000*%
G04 #@! TD*
G04 #@! TA.AperFunction,ComponentPad*
%ADD17R,1.700000X1.700000*%
G04 #@! TD*
G04 #@! TA.AperFunction,ComponentPad*
%ADD18O,1.700000X1.700000*%
G04 #@! TD*
G04 #@! TA.AperFunction,ViaPad*
%ADD19C,0.800000*%
G04 #@! TD*
G04 #@! TA.AperFunction,Conductor*
%ADD20C,0.300000*%
G04 #@! TD*
G04 APERTURE END LIST*
D10*
X89000000Y-133600000D03*
D11*
X89000000Y-145000000D03*
X89000000Y-136700000D03*
D10*
X79000000Y-133600000D03*
D11*
X79000000Y-145000000D03*
X79000000Y-136700000D03*
D10*
X79000000Y-119100000D03*
D11*
X79000000Y-130500000D03*
X79000000Y-122200000D03*
D12*
X79600000Y-43000000D03*
X88400000Y-43000000D03*
D13*
X81500000Y-50000000D03*
X84000000Y-50000000D03*
X86500000Y-50000000D03*
D14*
X86460000Y-125500000D03*
D15*
X86460000Y-128040000D03*
X86460000Y-122960000D03*
X91540000Y-128040000D03*
X91540000Y-122960000D03*
X89000000Y-128200000D03*
X89000000Y-122800000D03*
G04 #@! TA.AperFunction,SMDPad,CuDef*
G36*
G01*
X89500000Y-119650000D02*
X89500000Y-120550000D01*
G75*
G02*
X89250000Y-120800000I-250000J0D01*
G01*
X88550000Y-120800000D01*
G75*
G02*
X88300000Y-120550000I0J250000D01*
G01*
X88300000Y-119650000D01*
G75*
G02*
X88550000Y-119400000I250000J0D01*
G01*
X89250000Y-119400000D01*
G75*
G02*
X89500000Y-119650000I0J-250000D01*
G01*
G37*
G04 #@! TD.AperFunction*
G04 #@! TA.AperFunction,SMDPad,CuDef*
G36*
G01*
X87500000Y-119650000D02*
X87500000Y-120550000D01*
G75*
G02*
X87250000Y-120800000I-250000J0D01*
G01*
X86550000Y-120800000D01*
G75*
G02*
X86300000Y-120550000I0J250000D01*
G01*
X86300000Y-119650000D01*
G75*
G02*
X86550000Y-119400000I250000J0D01*
G01*
X87250000Y-119400000D01*
G75*
G02*
X87500000Y-119650000I0J-250000D01*
G01*
G37*
G04 #@! TD.AperFunction*
D16*
X88700000Y-111500000D03*
X84000000Y-111500000D03*
X79300000Y-111500000D03*
D12*
X79560000Y-63500000D03*
X88360000Y-63500000D03*
D13*
X81460000Y-70500000D03*
X83960000Y-70500000D03*
X86460000Y-70500000D03*
G04 #@! TA.AperFunction,SMDPad,CuDef*
G36*
G01*
X92350000Y-120700000D02*
X91450000Y-120700000D01*
G75*
G02*
X91200000Y-120450000I0J250000D01*
G01*
X91200000Y-119750000D01*
G75*
G02*
X91450000Y-119500000I250000J0D01*
G01*
X92350000Y-119500000D01*
G75*
G02*
X92600000Y-119750000I0J-250000D01*
G01*
X92600000Y-120450000D01*
G75*
G02*
X92350000Y-120700000I-250000J0D01*
G01*
G37*
G04 #@! TD.AperFunction*
G04 #@! TA.AperFunction,SMDPad,CuDef*
G36*
G01*
X92350000Y-118700000D02*
X91450000Y-118700000D01*
G75*
G02*
X91200000Y-118450000I0J250000D01*
G01*
X91200000Y-117750000D01*
G75*
G02*
X91450000Y-117500000I250000J0D01*
G01*
X92350000Y-117500000D01*
G75*
G02*
X92600000Y-117750000I0J-250000D01*
G01*
X92600000Y-118450000D01*
G75*
G02*
X92350000Y-118700000I-250000J0D01*
G01*
G37*
G04 #@! TD.AperFunction*
D12*
X79600000Y-84050000D03*
X88400000Y-84050000D03*
D13*
X81500000Y-91050000D03*
X84000000Y-91050000D03*
X86500000Y-91050000D03*
D17*
X92200000Y-49500000D03*
D18*
X92200000Y-52040000D03*
X92200000Y-54580000D03*
X92200000Y-57120000D03*
X92200000Y-59660000D03*
X92200000Y-62200000D03*
D17*
X75750000Y-67800000D03*
D18*
X75750000Y-70340000D03*
X75750000Y-72880000D03*
X75750000Y-75420000D03*
X75750000Y-77960000D03*
X75750000Y-80500000D03*
X75750000Y-83040000D03*
X75750000Y-85580000D03*
D19*
X82000000Y-66600000D03*
X82000000Y-67500000D03*
X81500000Y-117800000D03*
X91900000Y-116800000D03*
D20*
X86900000Y-120100000D02*
X83800000Y-120100000D01*
X83800000Y-120100000D02*
X81500000Y-117800000D01*
X92200000Y-59660000D02*
X90710000Y-61150000D01*
X90710000Y-77682894D02*
X81500000Y-86892894D01*
X90710000Y-61150000D02*
X90710000Y-77682894D01*
X81500000Y-86892894D02*
X81500000Y-91050000D01*
X91900000Y-116800000D02*
X91900000Y-118100000D01*
X79900000Y-87300000D02*
X82100000Y-85100000D01*
X77200000Y-128700000D02*
X77200000Y-88100000D01*
X79000000Y-130500000D02*
X77200000Y-128700000D01*
X82100000Y-74150000D02*
X75750000Y-67800000D01*
X82100000Y-85100000D02*
X82100000Y-74150000D01*
X78000000Y-87300000D02*
X79900000Y-87300000D01*
X77200000Y-88100000D02*
X78000000Y-87300000D01*
X90967919Y-57120000D02*
X83960000Y-64127919D01*
X92200000Y-57120000D02*
X90967919Y-57120000D01*
X83960000Y-64127919D02*
X83960000Y-70500000D01*
X84000000Y-85100000D02*
X84000000Y-91050000D01*
X93400000Y-53240000D02*
X93400000Y-75700000D01*
X93400000Y-75700000D02*
X87709511Y-81390489D01*
X92200000Y-52040000D02*
X93400000Y-53240000D01*
X87709511Y-81390489D02*
X84000000Y-85100000D01*
X74550489Y-140550489D02*
X74550489Y-74079511D01*
X74550489Y-74079511D02*
X75750000Y-72880000D01*
X79000000Y-145000000D02*
X74550489Y-140550489D01*
X89000000Y-145000000D02*
X87046786Y-143046786D01*
X75900000Y-87126366D02*
X76949511Y-86076855D01*
X87046786Y-143046786D02*
X77753214Y-143046786D01*
X76949511Y-86076855D02*
X76949511Y-71539511D01*
X77753214Y-143046786D02*
X75900000Y-141193572D01*
X75900000Y-141193572D02*
X75900000Y-87126366D01*
X76949511Y-71539511D02*
X75750000Y-70340000D01*
X92200000Y-54580000D02*
X88580000Y-54580000D01*
X88580000Y-54580000D02*
X84000000Y-50000000D01*
X91900000Y-120100000D02*
X91540000Y-120460000D01*
X91540000Y-120460000D02*
X91540000Y-122960000D01*
X91540000Y-128040000D02*
X91540000Y-122960000D01*
X90200000Y-127000000D02*
X89000000Y-128200000D01*
X88900000Y-120100000D02*
X90200000Y-121400000D01*
X90200000Y-121400000D02*
X90200000Y-127000000D01*
G04 #@! TA.AperFunction,Conductor*
G36*
X93892532Y-76242894D02*
G01*
X93949368Y-76285441D01*
X93974179Y-76351961D01*
X93974500Y-76360950D01*
X93974500Y-146348500D01*
X93954498Y-146416621D01*
X93900842Y-146463114D01*
X93848500Y-146474500D01*
X90037947Y-146474500D01*
X89969826Y-146454498D01*
X89923333Y-146400842D01*
X89913229Y-146330568D01*
X89942723Y-146265988D01*
X89956117Y-146252689D01*
X90116073Y-146116073D01*
X90276922Y-145927743D01*
X90276925Y-145927740D01*
X90406334Y-145716563D01*
X90501115Y-145487742D01*
X90558934Y-145246911D01*
X90578366Y-145000000D01*
X90558934Y-144753089D01*
X90501115Y-144512258D01*
X90406334Y-144283437D01*
X90276925Y-144072260D01*
X90141004Y-143913117D01*
X90116073Y-143883926D01*
X89927743Y-143723077D01*
X89927741Y-143723076D01*
X89927740Y-143723075D01*
X89716563Y-143593666D01*
X89487742Y-143498885D01*
X89246911Y-143441066D01*
X89246912Y-143441066D01*
X89000000Y-143421634D01*
X88753088Y-143441066D01*
X88514654Y-143498309D01*
X88443746Y-143494762D01*
X88396145Y-143464885D01*
X87466559Y-142535299D01*
X87466555Y-142535295D01*
X87358703Y-142463231D01*
X87238866Y-142413593D01*
X87238863Y-142413592D01*
X87111646Y-142388286D01*
X87111643Y-142388286D01*
X78078163Y-142388286D01*
X78010042Y-142368284D01*
X77989068Y-142351381D01*
X76595405Y-140957717D01*
X76561379Y-140895405D01*
X76558500Y-140868622D01*
X76558500Y-129293950D01*
X76578502Y-129225829D01*
X76632158Y-129179336D01*
X76702432Y-129169232D01*
X76767012Y-129198726D01*
X76773595Y-129204855D01*
X77464885Y-129896145D01*
X77498911Y-129958457D01*
X77498309Y-130014654D01*
X77441066Y-130253088D01*
X77421634Y-130500000D01*
X77441066Y-130746911D01*
X77498885Y-130987742D01*
X77593665Y-131216561D01*
X77723076Y-131427741D01*
X77723077Y-131427743D01*
X77883926Y-131616073D01*
X78072256Y-131776922D01*
X78072260Y-131776925D01*
X78283437Y-131906334D01*
X78351656Y-131934591D01*
X78406937Y-131979140D01*
X78429358Y-132046503D01*
X78411800Y-132115294D01*
X78359838Y-132163672D01*
X78303438Y-132177000D01*
X77986402Y-132177000D01*
X77925906Y-132183505D01*
X77789035Y-132234555D01*
X77789034Y-132234555D01*
X77672095Y-132322095D01*
X77584555Y-132439034D01*
X77584555Y-132439035D01*
X77533505Y-132575906D01*
X77527000Y-132636402D01*
X77527000Y-133346000D01*
X78444951Y-133346000D01*
X78413442Y-133422069D01*
X78390000Y-133539920D01*
X78390000Y-133660080D01*
X78413442Y-133777931D01*
X78444951Y-133854000D01*
X77527000Y-133854000D01*
X77527000Y-134563597D01*
X77533505Y-134624093D01*
X77584555Y-134760964D01*
X77584555Y-134760965D01*
X77672095Y-134877904D01*
X77789034Y-134965444D01*
X77925906Y-135016494D01*
X77986402Y-135022999D01*
X77986415Y-135023000D01*
X78303438Y-135023000D01*
X78371559Y-135043002D01*
X78418052Y-135096658D01*
X78428156Y-135166932D01*
X78398662Y-135231512D01*
X78351656Y-135265408D01*
X78328243Y-135275106D01*
X78283438Y-135293665D01*
X78072258Y-135423076D01*
X78072256Y-135423077D01*
X77883926Y-135583926D01*
X77723077Y-135772256D01*
X77723076Y-135772258D01*
X77593665Y-135983438D01*
X77498885Y-136212257D01*
X77441066Y-136453088D01*
X77421634Y-136700000D01*
X77441066Y-136946911D01*
X77498885Y-137187742D01*
X77593665Y-137416561D01*
X77723076Y-137627741D01*
X77723077Y-137627743D01*
X77883926Y-137816073D01*
X78072256Y-137976922D01*
X78072260Y-137976925D01*
X78283437Y-138106334D01*
X78512258Y-138201115D01*
X78753089Y-138258934D01*
X79000000Y-138278366D01*
X79246911Y-138258934D01*
X79487742Y-138201115D01*
X79716563Y-138106334D01*
X79927740Y-137976925D01*
X80116073Y-137816073D01*
X80276925Y-137627740D01*
X80406334Y-137416563D01*
X80501115Y-137187742D01*
X80558934Y-136946911D01*
X80578366Y-136700000D01*
X87421634Y-136700000D01*
X87441066Y-136946911D01*
X87498885Y-137187742D01*
X87593665Y-137416561D01*
X87723076Y-137627741D01*
X87723077Y-137627743D01*
X87883926Y-137816073D01*
X88072256Y-137976922D01*
X88072260Y-137976925D01*
X88283437Y-138106334D01*
X88512258Y-138201115D01*
X88753089Y-138258934D01*
X89000000Y-138278366D01*
X89246911Y-138258934D01*
X89487742Y-138201115D01*
X89716563Y-138106334D01*
X89927740Y-137976925D01*
X90116073Y-137816073D01*
X90276925Y-137627740D01*
X90406334Y-137416563D01*
X90501115Y-137187742D01*
X90558934Y-136946911D01*
X90578366Y-136700000D01*
X90558934Y-136453089D01*
X90501115Y-136212258D01*
X90406334Y-135983437D01*
X90276925Y-135772260D01*
X90276922Y-135772256D01*
X90116073Y-135583926D01*
X89927743Y-135423077D01*
X89927741Y-135423076D01*
X89927740Y-135423075D01*
X89716563Y-135293666D01*
X89648343Y-135265408D01*
X89593063Y-135220860D01*
X89570642Y-135153497D01*
X89588200Y-135084706D01*
X89640162Y-135036328D01*
X89696562Y-135023000D01*
X90013585Y-135023000D01*
X90013597Y-135022999D01*
X90074093Y-135016494D01*
X90210964Y-134965444D01*
X90210965Y-134965444D01*
X90327904Y-134877904D01*
X90415444Y-134760965D01*
X90415444Y-134760964D01*
X90466494Y-134624093D01*
X90472999Y-134563597D01*
X90473000Y-134563585D01*
X90473000Y-133854000D01*
X89555049Y-133854000D01*
X89586558Y-133777931D01*
X89610000Y-133660080D01*
X89610000Y-133539920D01*
X89586558Y-133422069D01*
X89555049Y-133346000D01*
X90473000Y-133346000D01*
X90473000Y-132636414D01*
X90472999Y-132636402D01*
X90466494Y-132575906D01*
X90415444Y-132439035D01*
X90415444Y-132439034D01*
X90327904Y-132322095D01*
X90210965Y-132234555D01*
X90074093Y-132183505D01*
X90013597Y-132177000D01*
X89254000Y-132177000D01*
X89254000Y-133044950D01*
X89177931Y-133013442D01*
X89060080Y-132990000D01*
X88939920Y-132990000D01*
X88822069Y-133013442D01*
X88746000Y-133044950D01*
X88746000Y-132177000D01*
X87986402Y-132177000D01*
X87925906Y-132183505D01*
X87789035Y-132234555D01*
X87789034Y-132234555D01*
X87672095Y-132322095D01*
X87584555Y-132439034D01*
X87584555Y-132439035D01*
X87533505Y-132575906D01*
X87527000Y-132636402D01*
X87527000Y-133346000D01*
X88444951Y-133346000D01*
X88413442Y-133422069D01*
X88390000Y-133539920D01*
X88390000Y-133660080D01*
X88413442Y-133777931D01*
X88444951Y-133854000D01*
X87527000Y-133854000D01*
X87527000Y-134563597D01*
X87533505Y-134624093D01*
X87584555Y-134760964D01*
X87584555Y-134760965D01*
X87672095Y-134877904D01*
X87789034Y-134965444D01*
X87925906Y-135016494D01*
X87986402Y-135022999D01*
X87986415Y-135023000D01*
X88303438Y-135023000D01*
X88371559Y-135043002D01*
X88418052Y-135096658D01*
X88428156Y-135166932D01*
X88398662Y-135231512D01*
X88351656Y-135265408D01*
X88328243Y-135275106D01*
X88283438Y-135293665D01*
X88072258Y-135423076D01*
X88072256Y-135423077D01*
X87883926Y-135583926D01*
X87723077Y-135772256D01*
X87723076Y-135772258D01*
X87593665Y-135983438D01*
X87498885Y-136212257D01*
X87441066Y-136453088D01*
X87421634Y-136700000D01*
X80578366Y-136700000D01*
X80558934Y-136453089D01*
X80501115Y-136212258D01*
X80406334Y-135983437D01*
X80276925Y-135772260D01*
X80276922Y-135772256D01*
X80116073Y-135583926D01*
X79927743Y-135423077D01*
X79927741Y-135423076D01*
X79927740Y-135423075D01*
X79716563Y-135293666D01*
X79648343Y-135265408D01*
X79593063Y-135220860D01*
X79570642Y-135153497D01*
X79588200Y-135084706D01*
X79640162Y-135036328D01*
X79696562Y-135023000D01*
X80013585Y-135023000D01*
X80013597Y-135022999D01*
X80074093Y-135016494D01*
X80210964Y-134965444D01*
X80210965Y-134965444D01*
X80327904Y-134877904D01*
X80415444Y-134760965D01*
X80415444Y-134760964D01*
X80466494Y-134624093D01*
X80472999Y-134563597D01*
X80473000Y-134563585D01*
X80473000Y-133854000D01*
X79555049Y-133854000D01*
X79586558Y-133777931D01*
X79610000Y-133660080D01*
X79610000Y-133539920D01*
X79586558Y-133422069D01*
X79555049Y-133346000D01*
X80473000Y-133346000D01*
X80473000Y-132636414D01*
X80472999Y-132636402D01*
X80466494Y-132575906D01*
X80415444Y-132439035D01*
X80415444Y-132439034D01*
X80327904Y-132322095D01*
X80210965Y-132234555D01*
X80074093Y-132183505D01*
X80013597Y-132177000D01*
X79696562Y-132177000D01*
X79628441Y-132156998D01*
X79581948Y-132103342D01*
X79571844Y-132033068D01*
X79601338Y-131968488D01*
X79648343Y-131934591D01*
X79716563Y-131906334D01*
X79927740Y-131776925D01*
X80116073Y-131616073D01*
X80276925Y-131427740D01*
X80406334Y-131216563D01*
X80501115Y-130987742D01*
X80558934Y-130746911D01*
X80578366Y-130500000D01*
X80558934Y-130253089D01*
X80501115Y-130012258D01*
X80406334Y-129783437D01*
X80276925Y-129572260D01*
X80276922Y-129572256D01*
X80116073Y-129383926D01*
X79927743Y-129223077D01*
X79927741Y-129223076D01*
X79927740Y-129223075D01*
X79716563Y-129093666D01*
X79487742Y-128998885D01*
X79246911Y-128941066D01*
X79246912Y-128941066D01*
X79000000Y-128921634D01*
X78753088Y-128941066D01*
X78514654Y-128998309D01*
X78443746Y-128994762D01*
X78396145Y-128964885D01*
X77895405Y-128464145D01*
X77861379Y-128401833D01*
X77858500Y-128375050D01*
X77858500Y-123567671D01*
X77878502Y-123499550D01*
X77932158Y-123453057D01*
X78002432Y-123442953D01*
X78066329Y-123471860D01*
X78072260Y-123476925D01*
X78283437Y-123606334D01*
X78512258Y-123701115D01*
X78753089Y-123758934D01*
X79000000Y-123778366D01*
X79246911Y-123758934D01*
X79487742Y-123701115D01*
X79716563Y-123606334D01*
X79927740Y-123476925D01*
X80116073Y-123316073D01*
X80276925Y-123127740D01*
X80406334Y-122916563D01*
X80501115Y-122687742D01*
X80558934Y-122446911D01*
X80578366Y-122200000D01*
X80558934Y-121953089D01*
X80501115Y-121712258D01*
X80406334Y-121483437D01*
X80276925Y-121272260D01*
X80276922Y-121272256D01*
X80116073Y-121083926D01*
X79927743Y-120923077D01*
X79927741Y-120923076D01*
X79927740Y-120923075D01*
X79716563Y-120793666D01*
X79648343Y-120765408D01*
X79593063Y-120720860D01*
X79570642Y-120653497D01*
X79588200Y-120584706D01*
X79640162Y-120536328D01*
X79696562Y-120523000D01*
X80013585Y-120523000D01*
X80013597Y-120522999D01*
X80074093Y-120516494D01*
X80210964Y-120465444D01*
X80210965Y-120465444D01*
X80327904Y-120377904D01*
X80415444Y-120260965D01*
X80415444Y-120260964D01*
X80466494Y-120124093D01*
X80472999Y-120063597D01*
X80473000Y-120063585D01*
X80473000Y-119354000D01*
X79555049Y-119354000D01*
X79586558Y-119277931D01*
X79610000Y-119160080D01*
X79610000Y-119039920D01*
X79586558Y-118922069D01*
X79555049Y-118846000D01*
X80473000Y-118846000D01*
X80473000Y-118308420D01*
X80493002Y-118240299D01*
X80546658Y-118193806D01*
X80616932Y-118183702D01*
X80681512Y-118213196D01*
X80708117Y-118245417D01*
X80742833Y-118305548D01*
X80760958Y-118336941D01*
X80760965Y-118336951D01*
X80888744Y-118478864D01*
X80918584Y-118500544D01*
X81043248Y-118591118D01*
X81217712Y-118668794D01*
X81404513Y-118708500D01*
X81425050Y-118708500D01*
X81493171Y-118728502D01*
X81514145Y-118745405D01*
X83380226Y-120611487D01*
X83380230Y-120611490D01*
X83380231Y-120611491D01*
X83424494Y-120641066D01*
X83440973Y-120652077D01*
X83440973Y-120652078D01*
X83488078Y-120683552D01*
X83488080Y-120683553D01*
X83488083Y-120683555D01*
X83607923Y-120733194D01*
X83735143Y-120758500D01*
X85729045Y-120758500D01*
X85797166Y-120778502D01*
X85843659Y-120832158D01*
X85848649Y-120844867D01*
X85857883Y-120872734D01*
X85857884Y-120872736D01*
X85857885Y-120872738D01*
X85909964Y-120957171D01*
X85950970Y-121023652D01*
X85950975Y-121023658D01*
X86076341Y-121149024D01*
X86076347Y-121149029D01*
X86076348Y-121149030D01*
X86227262Y-121242115D01*
X86395574Y-121297887D01*
X86499455Y-121308500D01*
X87300544Y-121308499D01*
X87404426Y-121297887D01*
X87572738Y-121242115D01*
X87723652Y-121149030D01*
X87758984Y-121113698D01*
X87810905Y-121061778D01*
X87873217Y-121027752D01*
X87944032Y-121032817D01*
X87989095Y-121061778D01*
X88076341Y-121149024D01*
X88076347Y-121149029D01*
X88076348Y-121149030D01*
X88227262Y-121242115D01*
X88395574Y-121297887D01*
X88499455Y-121308500D01*
X88702390Y-121308499D01*
X88770509Y-121328501D01*
X88817002Y-121382156D01*
X88827107Y-121452430D01*
X88797614Y-121517011D01*
X88737888Y-121555395D01*
X88735000Y-121556206D01*
X88563977Y-121602031D01*
X88563972Y-121602033D01*
X88362575Y-121695946D01*
X88299394Y-121740184D01*
X88875052Y-122315841D01*
X88807007Y-122334075D01*
X88692993Y-122399901D01*
X88599901Y-122492993D01*
X88534075Y-122607007D01*
X88515842Y-122675051D01*
X87940185Y-122099394D01*
X87895946Y-122162575D01*
X87806890Y-122353556D01*
X87759972Y-122406841D01*
X87691695Y-122426302D01*
X87623735Y-122405760D01*
X87578501Y-122353557D01*
X87564053Y-122322575D01*
X87564051Y-122322571D01*
X87519815Y-122259395D01*
X87519813Y-122259395D01*
X86944157Y-122835051D01*
X86925925Y-122767007D01*
X86860099Y-122652993D01*
X86767007Y-122559901D01*
X86652993Y-122494075D01*
X86584947Y-122475841D01*
X87160603Y-121900185D01*
X87160603Y-121900184D01*
X87097425Y-121855946D01*
X86896027Y-121762033D01*
X86896023Y-121762031D01*
X86681374Y-121704517D01*
X86460000Y-121685149D01*
X86238625Y-121704517D01*
X86023976Y-121762031D01*
X86023972Y-121762033D01*
X85822575Y-121855946D01*
X85759394Y-121900185D01*
X86335051Y-122475842D01*
X86267007Y-122494075D01*
X86152993Y-122559901D01*
X86059901Y-122652993D01*
X85994075Y-122767007D01*
X85975842Y-122835051D01*
X85400185Y-122259394D01*
X85355946Y-122322575D01*
X85262033Y-122523972D01*
X85262031Y-122523976D01*
X85204517Y-122738625D01*
X85185149Y-122960000D01*
X85204517Y-123181374D01*
X85262031Y-123396023D01*
X85262033Y-123396027D01*
X85355946Y-123597425D01*
X85400184Y-123660603D01*
X85400185Y-123660603D01*
X85975841Y-123084947D01*
X85994075Y-123152993D01*
X86059901Y-123267007D01*
X86152993Y-123360099D01*
X86267007Y-123425925D01*
X86335051Y-123444157D01*
X85759395Y-124019813D01*
X85759395Y-124019814D01*
X85822575Y-124064053D01*
X85822574Y-124064053D01*
X85947162Y-124122149D01*
X86000447Y-124169066D01*
X86019908Y-124237343D01*
X85999366Y-124305303D01*
X85947162Y-124350539D01*
X85828346Y-124405944D01*
X85647965Y-124532248D01*
X85647959Y-124532253D01*
X85492253Y-124687959D01*
X85492248Y-124687965D01*
X85365944Y-124868346D01*
X85272881Y-125067920D01*
X85272880Y-125067924D01*
X85215885Y-125280629D01*
X85196693Y-125500000D01*
X85215885Y-125719371D01*
X85272880Y-125932076D01*
X85365944Y-126131654D01*
X85492251Y-126312038D01*
X85492254Y-126312042D01*
X85647957Y-126467745D01*
X85647961Y-126467748D01*
X85647962Y-126467749D01*
X85828346Y-126594056D01*
X85828351Y-126594058D01*
X85828351Y-126594059D01*
X85947161Y-126649460D01*
X86000447Y-126696377D01*
X86019908Y-126764654D01*
X85999367Y-126832614D01*
X85947163Y-126877849D01*
X85822577Y-126935945D01*
X85759394Y-126980185D01*
X86335051Y-127555842D01*
X86267007Y-127574075D01*
X86152993Y-127639901D01*
X86059901Y-127732993D01*
X85994075Y-127847007D01*
X85975842Y-127915051D01*
X85400185Y-127339394D01*
X85355946Y-127402575D01*
X85262033Y-127603972D01*
X85262031Y-127603976D01*
X85204517Y-127818625D01*
X85185149Y-128040000D01*
X85204517Y-128261374D01*
X85262031Y-128476023D01*
X85262033Y-128476027D01*
X85355946Y-128677425D01*
X85400184Y-128740603D01*
X85400185Y-128740603D01*
X85975841Y-128164947D01*
X85994075Y-128232993D01*
X86059901Y-128347007D01*
X86152993Y-128440099D01*
X86267007Y-128505925D01*
X86335051Y-128524157D01*
X85759395Y-129099813D01*
X85759395Y-129099814D01*
X85822575Y-129144053D01*
X85822574Y-129144053D01*
X86023972Y-129237966D01*
X86023976Y-129237968D01*
X86238625Y-129295482D01*
X86460000Y-129314850D01*
X86681374Y-129295482D01*
X86896023Y-129237968D01*
X86896027Y-129237966D01*
X87097425Y-129144053D01*
X87097426Y-129144052D01*
X87160603Y-129099814D01*
X87160603Y-129099812D01*
X86584948Y-128524157D01*
X86652993Y-128505925D01*
X86767007Y-128440099D01*
X86860099Y-128347007D01*
X86925925Y-128232993D01*
X86944157Y-128164948D01*
X87519812Y-128740603D01*
X87519814Y-128740603D01*
X87564052Y-128677426D01*
X87564057Y-128677418D01*
X87578224Y-128647037D01*
X87625140Y-128593751D01*
X87693417Y-128574289D01*
X87761377Y-128594830D01*
X87806614Y-128647035D01*
X87895511Y-128837675D01*
X87895512Y-128837677D01*
X88023016Y-129019772D01*
X88023020Y-129019777D01*
X88023023Y-129019781D01*
X88180219Y-129176977D01*
X88180223Y-129176980D01*
X88180227Y-129176983D01*
X88267320Y-129237966D01*
X88362323Y-129304488D01*
X88563804Y-129398440D01*
X88778537Y-129455978D01*
X89000000Y-129475353D01*
X89221463Y-129455978D01*
X89436196Y-129398440D01*
X89637677Y-129304488D01*
X89819781Y-129176977D01*
X89976977Y-129019781D01*
X90104488Y-128837677D01*
X90193110Y-128647625D01*
X90240026Y-128594342D01*
X90308303Y-128574881D01*
X90376263Y-128595423D01*
X90421498Y-128647626D01*
X90435508Y-128677669D01*
X90435512Y-128677677D01*
X90563016Y-128859772D01*
X90563020Y-128859777D01*
X90563023Y-128859781D01*
X90720219Y-129016977D01*
X90720223Y-129016980D01*
X90720227Y-129016983D01*
X90824124Y-129089732D01*
X90902323Y-129144488D01*
X91103804Y-129238440D01*
X91318537Y-129295978D01*
X91540000Y-129315353D01*
X91761463Y-129295978D01*
X91976196Y-129238440D01*
X92177677Y-129144488D01*
X92359781Y-129016977D01*
X92516977Y-128859781D01*
X92644488Y-128677677D01*
X92738440Y-128476196D01*
X92795978Y-128261463D01*
X92815353Y-128040000D01*
X92795978Y-127818537D01*
X92738440Y-127603804D01*
X92644488Y-127402324D01*
X92516977Y-127220219D01*
X92359781Y-127063023D01*
X92359780Y-127063022D01*
X92252229Y-126987713D01*
X92207901Y-126932255D01*
X92198500Y-126884500D01*
X92198500Y-124115498D01*
X92218502Y-124047377D01*
X92252227Y-124012286D01*
X92359781Y-123936977D01*
X92516977Y-123779781D01*
X92644488Y-123597677D01*
X92738440Y-123396196D01*
X92795978Y-123181463D01*
X92815353Y-122960000D01*
X92795978Y-122738537D01*
X92738440Y-122523804D01*
X92644488Y-122322324D01*
X92516977Y-122140219D01*
X92359781Y-121983023D01*
X92359780Y-121983022D01*
X92252229Y-121907713D01*
X92207901Y-121852255D01*
X92198500Y-121804500D01*
X92198500Y-121334499D01*
X92218502Y-121266378D01*
X92272158Y-121219885D01*
X92324500Y-121208499D01*
X92400544Y-121208499D01*
X92504426Y-121197887D01*
X92672738Y-121142115D01*
X92823652Y-121049030D01*
X92949030Y-120923652D01*
X93042115Y-120772738D01*
X93097887Y-120604426D01*
X93108500Y-120500545D01*
X93108499Y-119699456D01*
X93107181Y-119686558D01*
X93097887Y-119595574D01*
X93064751Y-119495574D01*
X93042115Y-119427262D01*
X92949030Y-119276348D01*
X92949029Y-119276347D01*
X92949024Y-119276341D01*
X92861778Y-119189095D01*
X92827752Y-119126783D01*
X92832817Y-119055968D01*
X92861778Y-119010905D01*
X92949024Y-118923658D01*
X92949030Y-118923652D01*
X93042115Y-118772738D01*
X93097887Y-118604426D01*
X93108500Y-118500545D01*
X93108499Y-117699456D01*
X93097887Y-117595574D01*
X93042115Y-117427262D01*
X92949030Y-117276348D01*
X92949028Y-117276346D01*
X92949024Y-117276341D01*
X92818463Y-117145780D01*
X92820172Y-117144070D01*
X92785816Y-117095557D01*
X92782623Y-117024632D01*
X92785151Y-117015749D01*
X92793542Y-116989928D01*
X92813504Y-116800000D01*
X92793542Y-116610072D01*
X92734527Y-116428444D01*
X92639040Y-116263056D01*
X92639038Y-116263054D01*
X92639034Y-116263048D01*
X92511255Y-116121135D01*
X92356752Y-116008882D01*
X92182288Y-115931206D01*
X91995487Y-115891500D01*
X91804513Y-115891500D01*
X91617711Y-115931206D01*
X91443247Y-116008882D01*
X91288744Y-116121135D01*
X91160965Y-116263048D01*
X91160958Y-116263058D01*
X91065476Y-116428438D01*
X91065473Y-116428445D01*
X91006457Y-116610072D01*
X90986496Y-116800000D01*
X91006457Y-116989926D01*
X91014839Y-117015723D01*
X91016865Y-117086691D01*
X90981346Y-117145591D01*
X90981537Y-117145782D01*
X90980767Y-117146551D01*
X90980202Y-117147489D01*
X90977681Y-117149637D01*
X90850971Y-117276346D01*
X90850970Y-117276347D01*
X90757885Y-117427262D01*
X90702113Y-117595572D01*
X90702112Y-117595579D01*
X90691500Y-117699446D01*
X90691500Y-118500544D01*
X90702112Y-118604425D01*
X90757885Y-118772738D01*
X90850970Y-118923652D01*
X90850975Y-118923658D01*
X90938222Y-119010905D01*
X90972248Y-119073217D01*
X90967183Y-119144032D01*
X90938222Y-119189095D01*
X90850975Y-119276341D01*
X90850970Y-119276347D01*
X90757885Y-119427262D01*
X90702113Y-119595572D01*
X90702112Y-119595579D01*
X90691500Y-119699446D01*
X90691500Y-120500544D01*
X90702113Y-120604426D01*
X90716484Y-120647797D01*
X90718924Y-120718752D01*
X90682615Y-120779762D01*
X90619086Y-120811457D01*
X90548506Y-120803774D01*
X90507784Y-120776524D01*
X90045404Y-120314144D01*
X90011378Y-120251832D01*
X90008499Y-120225049D01*
X90008499Y-119599455D01*
X89997887Y-119495574D01*
X89975251Y-119427262D01*
X89942115Y-119327262D01*
X89849030Y-119176348D01*
X89849029Y-119176347D01*
X89849024Y-119176341D01*
X89723658Y-119050975D01*
X89723652Y-119050970D01*
X89683724Y-119026342D01*
X89572738Y-118957885D01*
X89469428Y-118923652D01*
X89404427Y-118902113D01*
X89404420Y-118902112D01*
X89300553Y-118891500D01*
X88499455Y-118891500D01*
X88395574Y-118902112D01*
X88227261Y-118957885D01*
X88076347Y-119050970D01*
X88076341Y-119050975D01*
X87989095Y-119138222D01*
X87926783Y-119172248D01*
X87855968Y-119167183D01*
X87810905Y-119138222D01*
X87723658Y-119050975D01*
X87723652Y-119050970D01*
X87683724Y-119026342D01*
X87572738Y-118957885D01*
X87469428Y-118923652D01*
X87404427Y-118902113D01*
X87404420Y-118902112D01*
X87300553Y-118891500D01*
X86499455Y-118891500D01*
X86395574Y-118902112D01*
X86227261Y-118957885D01*
X86076347Y-119050970D01*
X86076341Y-119050975D01*
X85950975Y-119176341D01*
X85950970Y-119176347D01*
X85857883Y-119327265D01*
X85848649Y-119355133D01*
X85808235Y-119413505D01*
X85742679Y-119440760D01*
X85729045Y-119441500D01*
X84124950Y-119441500D01*
X84056829Y-119421498D01*
X84035855Y-119404595D01*
X82442969Y-117811709D01*
X82408943Y-117749397D01*
X82406754Y-117735784D01*
X82393542Y-117610074D01*
X82393541Y-117610069D01*
X82388831Y-117595574D01*
X82334527Y-117428444D01*
X82239040Y-117263056D01*
X82239038Y-117263054D01*
X82239034Y-117263048D01*
X82111255Y-117121135D01*
X81956752Y-117008882D01*
X81782288Y-116931206D01*
X81595487Y-116891500D01*
X81404513Y-116891500D01*
X81217711Y-116931206D01*
X81043247Y-117008882D01*
X80888744Y-117121135D01*
X80760965Y-117263048D01*
X80760958Y-117263058D01*
X80665476Y-117428438D01*
X80665473Y-117428445D01*
X80606457Y-117610072D01*
X80586214Y-117802680D01*
X80559201Y-117868337D01*
X80500979Y-117908967D01*
X80430034Y-117911670D01*
X80368890Y-117875588D01*
X80360036Y-117865019D01*
X80327904Y-117822095D01*
X80210965Y-117734555D01*
X80074093Y-117683505D01*
X80013597Y-117677000D01*
X79254000Y-117677000D01*
X79254000Y-118544950D01*
X79177931Y-118513442D01*
X79060080Y-118490000D01*
X78939920Y-118490000D01*
X78822069Y-118513442D01*
X78746000Y-118544950D01*
X78746000Y-117677000D01*
X77984500Y-117677000D01*
X77916379Y-117656998D01*
X77869886Y-117603342D01*
X77858500Y-117551000D01*
X77858500Y-114207106D01*
X77878502Y-114138985D01*
X77932158Y-114092492D01*
X78002432Y-114082388D01*
X78061204Y-114107144D01*
X78126065Y-114156914D01*
X78126067Y-114156915D01*
X78365433Y-114295114D01*
X78620791Y-114400886D01*
X78887769Y-114472423D01*
X78887775Y-114472423D01*
X78887776Y-114472424D01*
X78919222Y-114476563D01*
X79161802Y-114508500D01*
X79161809Y-114508500D01*
X79438191Y-114508500D01*
X79438198Y-114508500D01*
X79712231Y-114472423D01*
X79979209Y-114400886D01*
X80234567Y-114295114D01*
X80473933Y-114156915D01*
X80693214Y-113988656D01*
X80888656Y-113793214D01*
X81056915Y-113573933D01*
X81195114Y-113334567D01*
X81300886Y-113079209D01*
X81372423Y-112812231D01*
X81408500Y-112538198D01*
X81408500Y-110461831D01*
X81892000Y-110461831D01*
X81892000Y-111246000D01*
X83500000Y-111246000D01*
X83500000Y-111754000D01*
X81892000Y-111754000D01*
X81892000Y-112538168D01*
X81928067Y-112812125D01*
X81999588Y-113079047D01*
X82105337Y-113334346D01*
X82105342Y-113334357D01*
X82243501Y-113573656D01*
X82411722Y-113792884D01*
X82411735Y-113792898D01*
X82607101Y-113988264D01*
X82607115Y-113988277D01*
X82826343Y-114156498D01*
X83065642Y-114294657D01*
X83065653Y-114294662D01*
X83320952Y-114400411D01*
X83587871Y-114471931D01*
X83587874Y-114471932D01*
X83746000Y-114492749D01*
X83746000Y-112580702D01*
X83807007Y-112615925D01*
X83934174Y-112650000D01*
X84065826Y-112650000D01*
X84192993Y-112615925D01*
X84254000Y-112580702D01*
X84254000Y-114492749D01*
X84412125Y-114471932D01*
X84412128Y-114471931D01*
X84679047Y-114400411D01*
X84934346Y-114294662D01*
X84934357Y-114294657D01*
X85173656Y-114156498D01*
X85392884Y-113988277D01*
X85392898Y-113988264D01*
X85588264Y-113792898D01*
X85588277Y-113792884D01*
X85756498Y-113573656D01*
X85894657Y-113334357D01*
X85894662Y-113334346D01*
X86000411Y-113079047D01*
X86071932Y-112812125D01*
X86107999Y-112538168D01*
X86108000Y-112538159D01*
X86108000Y-111754000D01*
X84500000Y-111754000D01*
X84500000Y-111246000D01*
X86108000Y-111246000D01*
X86108000Y-110461841D01*
X86107999Y-110461831D01*
X86107995Y-110461799D01*
X86591500Y-110461799D01*
X86591500Y-112538200D01*
X86627575Y-112812223D01*
X86699112Y-113079204D01*
X86699113Y-113079206D01*
X86699114Y-113079209D01*
X86804886Y-113334567D01*
X86804887Y-113334568D01*
X86804892Y-113334578D01*
X86943082Y-113573929D01*
X87111344Y-113793214D01*
X87111353Y-113793224D01*
X87306775Y-113988646D01*
X87306785Y-113988655D01*
X87526070Y-114156917D01*
X87714865Y-114265918D01*
X87765433Y-114295114D01*
X88020791Y-114400886D01*
X88287769Y-114472423D01*
X88287775Y-114472423D01*
X88287776Y-114472424D01*
X88319222Y-114476563D01*
X88561802Y-114508500D01*
X88561809Y-114508500D01*
X88838191Y-114508500D01*
X88838198Y-114508500D01*
X89112231Y-114472423D01*
X89379209Y-114400886D01*
X89634567Y-114295114D01*
X89873933Y-114156915D01*
X90093214Y-113988656D01*
X90288656Y-113793214D01*
X90456915Y-113573933D01*
X90595114Y-113334567D01*
X90700886Y-113079209D01*
X90772423Y-112812231D01*
X90808500Y-112538198D01*
X90808500Y-110461802D01*
X90772423Y-110187769D01*
X90700886Y-109920791D01*
X90595114Y-109665433D01*
X90565918Y-109614865D01*
X90456917Y-109426070D01*
X90288897Y-109207101D01*
X90288656Y-109206786D01*
X90288655Y-109206785D01*
X90288646Y-109206775D01*
X90093224Y-109011353D01*
X90093214Y-109011344D01*
X89873929Y-108843082D01*
X89634578Y-108704892D01*
X89634573Y-108704889D01*
X89634567Y-108704886D01*
X89379209Y-108599114D01*
X89379206Y-108599113D01*
X89379204Y-108599112D01*
X89159918Y-108540355D01*
X89112231Y-108527577D01*
X89112229Y-108527576D01*
X89112223Y-108527575D01*
X88838200Y-108491500D01*
X88838198Y-108491500D01*
X88561802Y-108491500D01*
X88561799Y-108491500D01*
X88287776Y-108527575D01*
X88020795Y-108599112D01*
X88020791Y-108599114D01*
X87765431Y-108704887D01*
X87765421Y-108704892D01*
X87526070Y-108843082D01*
X87306785Y-109011344D01*
X87306775Y-109011353D01*
X87111353Y-109206775D01*
X87111344Y-109206785D01*
X86943082Y-109426070D01*
X86804892Y-109665421D01*
X86804887Y-109665431D01*
X86804886Y-109665433D01*
X86804795Y-109665653D01*
X86699114Y-109920791D01*
X86699112Y-109920795D01*
X86627575Y-110187776D01*
X86591500Y-110461799D01*
X86107995Y-110461799D01*
X86071932Y-110187874D01*
X86000411Y-109920952D01*
X85894662Y-109665653D01*
X85894657Y-109665642D01*
X85756498Y-109426343D01*
X85588277Y-109207115D01*
X85588264Y-109207101D01*
X85392898Y-109011735D01*
X85392884Y-109011722D01*
X85173656Y-108843501D01*
X84934357Y-108705342D01*
X84934346Y-108705337D01*
X84679047Y-108599588D01*
X84412125Y-108528067D01*
X84254000Y-108507249D01*
X84254000Y-110419297D01*
X84192993Y-110384075D01*
X84065826Y-110350000D01*
X83934174Y-110350000D01*
X83807007Y-110384075D01*
X83746000Y-110419297D01*
X83746000Y-108507250D01*
X83745999Y-108507249D01*
X83587874Y-108528067D01*
X83320952Y-108599588D01*
X83065653Y-108705337D01*
X83065642Y-108705342D01*
X82826343Y-108843501D01*
X82607115Y-109011722D01*
X82607101Y-109011735D01*
X82411735Y-109207101D01*
X82411722Y-109207115D01*
X82243501Y-109426343D01*
X82105342Y-109665642D01*
X82105337Y-109665653D01*
X81999588Y-109920952D01*
X81928067Y-110187874D01*
X81892000Y-110461831D01*
X81408500Y-110461831D01*
X81408500Y-110461802D01*
X81372423Y-110187769D01*
X81300886Y-109920791D01*
X81195114Y-109665433D01*
X81165918Y-109614865D01*
X81056917Y-109426070D01*
X80888897Y-109207101D01*
X80888656Y-109206786D01*
X80888655Y-109206785D01*
X80888646Y-109206775D01*
X80693224Y-109011353D01*
X80693214Y-109011344D01*
X80473929Y-108843082D01*
X80234578Y-108704892D01*
X80234573Y-108704889D01*
X80234567Y-108704886D01*
X79979209Y-108599114D01*
X79979206Y-108599113D01*
X79979204Y-108599112D01*
X79759918Y-108540355D01*
X79712231Y-108527577D01*
X79712229Y-108527576D01*
X79712223Y-108527575D01*
X79438200Y-108491500D01*
X79438198Y-108491500D01*
X79161802Y-108491500D01*
X79161799Y-108491500D01*
X78887776Y-108527575D01*
X78620795Y-108599112D01*
X78620791Y-108599114D01*
X78365431Y-108704887D01*
X78365421Y-108704892D01*
X78126066Y-108843084D01*
X78061203Y-108892856D01*
X77994983Y-108918456D01*
X77925434Y-108904191D01*
X77874639Y-108854589D01*
X77858500Y-108792893D01*
X77858500Y-95878709D01*
X88649500Y-95878709D01*
X88649500Y-96121290D01*
X88681160Y-96361782D01*
X88743944Y-96596095D01*
X88743945Y-96596097D01*
X88743946Y-96596100D01*
X88836776Y-96820212D01*
X88836777Y-96820213D01*
X88836782Y-96820224D01*
X88958061Y-97030285D01*
X88958063Y-97030288D01*
X88958064Y-97030289D01*
X89105735Y-97222738D01*
X89105739Y-97222742D01*
X89105744Y-97222748D01*
X89277251Y-97394255D01*
X89277256Y-97394259D01*
X89277262Y-97394265D01*
X89469711Y-97541936D01*
X89469714Y-97541938D01*
X89679775Y-97663217D01*
X89679779Y-97663218D01*
X89679788Y-97663224D01*
X89903900Y-97756054D01*
X90138211Y-97818838D01*
X90138215Y-97818838D01*
X90138217Y-97818839D01*
X90200202Y-97826999D01*
X90378712Y-97850500D01*
X90378719Y-97850500D01*
X90621281Y-97850500D01*
X90621288Y-97850500D01*
X90838637Y-97821885D01*
X90861782Y-97818839D01*
X90861782Y-97818838D01*
X90861789Y-97818838D01*
X91096100Y-97756054D01*
X91320212Y-97663224D01*
X91530289Y-97541936D01*
X91722738Y-97394265D01*
X91894265Y-97222738D01*
X92041936Y-97030289D01*
X92163224Y-96820212D01*
X92256054Y-96596100D01*
X92318838Y-96361789D01*
X92350500Y-96121288D01*
X92350500Y-95878712D01*
X92318838Y-95638211D01*
X92256054Y-95403900D01*
X92163224Y-95179788D01*
X92163218Y-95179779D01*
X92163217Y-95179775D01*
X92041938Y-94969714D01*
X92041936Y-94969711D01*
X91894265Y-94777262D01*
X91894259Y-94777256D01*
X91894255Y-94777251D01*
X91722748Y-94605744D01*
X91722742Y-94605739D01*
X91722738Y-94605735D01*
X91530289Y-94458064D01*
X91530288Y-94458063D01*
X91530285Y-94458061D01*
X91320224Y-94336782D01*
X91320216Y-94336778D01*
X91320212Y-94336776D01*
X91096100Y-94243946D01*
X91096097Y-94243945D01*
X91096095Y-94243944D01*
X90861782Y-94181160D01*
X90621290Y-94149500D01*
X90621288Y-94149500D01*
X90378712Y-94149500D01*
X90378709Y-94149500D01*
X90138217Y-94181160D01*
X89903904Y-94243944D01*
X89903900Y-94243946D01*
X89679786Y-94336777D01*
X89679775Y-94336782D01*
X89469714Y-94458061D01*
X89277262Y-94605735D01*
X89277251Y-94605744D01*
X89105744Y-94777251D01*
X89105735Y-94777262D01*
X88958061Y-94969714D01*
X88836782Y-95179775D01*
X88836777Y-95179786D01*
X88743946Y-95403900D01*
X88743944Y-95403904D01*
X88681160Y-95638217D01*
X88649500Y-95878709D01*
X77858500Y-95878709D01*
X77858500Y-88424950D01*
X77878502Y-88356829D01*
X77895405Y-88335855D01*
X78235855Y-87995405D01*
X78298167Y-87961379D01*
X78324950Y-87958500D01*
X79964857Y-87958500D01*
X80092077Y-87933194D01*
X80211917Y-87883555D01*
X80319769Y-87811491D01*
X80626405Y-87504855D01*
X80688717Y-87470829D01*
X80759532Y-87475894D01*
X80816368Y-87518441D01*
X80841179Y-87584961D01*
X80841500Y-87593950D01*
X80841500Y-89729756D01*
X80821498Y-89797877D01*
X80775471Y-89840569D01*
X80726985Y-89866809D01*
X80726983Y-89866810D01*
X80542778Y-90010182D01*
X80542774Y-90010186D01*
X80384685Y-90181916D01*
X80257015Y-90377331D01*
X80163252Y-90591089D01*
X80163249Y-90591096D01*
X80105950Y-90817366D01*
X80086673Y-91050000D01*
X80105950Y-91282633D01*
X80163249Y-91508903D01*
X80163252Y-91508910D01*
X80257015Y-91722668D01*
X80384685Y-91918083D01*
X80542774Y-92089813D01*
X80542778Y-92089817D01*
X80608650Y-92141087D01*
X80726983Y-92233190D01*
X80932273Y-92344287D01*
X81153049Y-92420080D01*
X81383288Y-92458500D01*
X81383292Y-92458500D01*
X81616708Y-92458500D01*
X81616712Y-92458500D01*
X81846951Y-92420080D01*
X82067727Y-92344287D01*
X82273017Y-92233190D01*
X82457220Y-92089818D01*
X82615314Y-91918083D01*
X82644517Y-91873383D01*
X82698519Y-91827296D01*
X82768867Y-91817720D01*
X82833225Y-91847696D01*
X82855481Y-91873382D01*
X82884686Y-91918083D01*
X82884687Y-91918084D01*
X83042774Y-92089813D01*
X83042778Y-92089817D01*
X83108650Y-92141087D01*
X83226983Y-92233190D01*
X83432273Y-92344287D01*
X83653049Y-92420080D01*
X83883288Y-92458500D01*
X83883292Y-92458500D01*
X84116708Y-92458500D01*
X84116712Y-92458500D01*
X84346951Y-92420080D01*
X84567727Y-92344287D01*
X84773017Y-92233190D01*
X84957220Y-92089818D01*
X85115314Y-91918083D01*
X85144814Y-91872928D01*
X85198816Y-91826841D01*
X85269164Y-91817265D01*
X85333521Y-91847241D01*
X85335421Y-91849434D01*
X85340796Y-91849991D01*
X86015841Y-91174946D01*
X86034075Y-91242993D01*
X86099901Y-91357007D01*
X86192993Y-91450099D01*
X86307007Y-91515925D01*
X86375051Y-91534157D01*
X85698680Y-92210528D01*
X85698681Y-92210529D01*
X85727249Y-92232765D01*
X85727258Y-92232771D01*
X85932474Y-92343827D01*
X85932477Y-92343829D01*
X86153167Y-92419592D01*
X86153176Y-92419594D01*
X86383334Y-92458000D01*
X86616666Y-92458000D01*
X86846823Y-92419594D01*
X86846832Y-92419592D01*
X87067522Y-92343829D01*
X87067525Y-92343827D01*
X87272738Y-92232772D01*
X87301317Y-92210528D01*
X86624947Y-91534158D01*
X86692993Y-91515925D01*
X86807007Y-91450099D01*
X86900099Y-91357007D01*
X86965925Y-91242993D01*
X86984158Y-91174947D01*
X87659203Y-91849991D01*
X87742544Y-91722427D01*
X87836273Y-91508747D01*
X87836275Y-91508743D01*
X87893555Y-91282549D01*
X87912825Y-91050000D01*
X87893555Y-90817450D01*
X87836275Y-90591256D01*
X87836273Y-90591252D01*
X87742547Y-90377578D01*
X87742540Y-90377566D01*
X87659202Y-90250007D01*
X86984157Y-90925051D01*
X86965925Y-90857007D01*
X86900099Y-90742993D01*
X86807007Y-90649901D01*
X86692993Y-90584075D01*
X86624947Y-90565841D01*
X87301318Y-89889470D01*
X87272743Y-89867229D01*
X87272741Y-89867228D01*
X87067525Y-89756172D01*
X87067522Y-89756170D01*
X86846832Y-89680407D01*
X86846823Y-89680405D01*
X86616666Y-89642000D01*
X86383334Y-89642000D01*
X86153176Y-89680405D01*
X86153167Y-89680407D01*
X85932477Y-89756170D01*
X85932474Y-89756172D01*
X85727259Y-89867227D01*
X85698681Y-89889470D01*
X85698680Y-89889470D01*
X86375052Y-90565842D01*
X86307007Y-90584075D01*
X86192993Y-90649901D01*
X86099901Y-90742993D01*
X86034075Y-90857007D01*
X86015842Y-90925052D01*
X85340796Y-90250006D01*
X85327258Y-90251411D01*
X85301775Y-90273159D01*
X85231427Y-90282734D01*
X85167070Y-90252756D01*
X85144814Y-90227070D01*
X85115314Y-90181916D01*
X84957225Y-90010186D01*
X84957221Y-90010182D01*
X84802130Y-89889470D01*
X84773017Y-89866810D01*
X84743345Y-89850752D01*
X84724529Y-89840569D01*
X84674139Y-89790555D01*
X84658500Y-89729756D01*
X84658500Y-85424949D01*
X84678502Y-85356828D01*
X84695400Y-85335858D01*
X85699620Y-84331638D01*
X85761932Y-84297613D01*
X85832747Y-84302678D01*
X85889583Y-84345225D01*
X85912483Y-84397124D01*
X85965504Y-84675067D01*
X85965507Y-84675080D01*
X86063039Y-84975254D01*
X86063044Y-84975266D01*
X86197438Y-85260869D01*
X86197440Y-85260872D01*
X86197443Y-85260878D01*
X86366562Y-85527368D01*
X86567763Y-85770578D01*
X86797860Y-85986654D01*
X87011275Y-86141709D01*
X87053221Y-86172184D01*
X87329821Y-86324247D01*
X87623298Y-86440443D01*
X87929025Y-86518940D01*
X87929033Y-86518941D01*
X87929032Y-86518941D01*
X88093129Y-86539670D01*
X88242179Y-86558500D01*
X88242183Y-86558500D01*
X88557817Y-86558500D01*
X88557821Y-86558500D01*
X88870975Y-86518940D01*
X89176702Y-86440443D01*
X89470179Y-86324247D01*
X89746779Y-86172184D01*
X90002140Y-85986654D01*
X90232233Y-85770582D01*
X90433432Y-85527375D01*
X90433434Y-85527370D01*
X90433437Y-85527368D01*
X90602556Y-85260878D01*
X90602562Y-85260869D01*
X90736956Y-84975266D01*
X90834495Y-84675072D01*
X90893641Y-84365020D01*
X90893642Y-84365007D01*
X90913460Y-84050006D01*
X90913460Y-84049993D01*
X90893642Y-83734992D01*
X90893640Y-83734975D01*
X90834495Y-83424928D01*
X90736956Y-83124734D01*
X90602562Y-82839131D01*
X90602556Y-82839121D01*
X90433437Y-82572631D01*
X90232236Y-82329421D01*
X90002139Y-82113345D01*
X89746781Y-81927817D01*
X89704385Y-81904509D01*
X89470179Y-81775753D01*
X89176702Y-81659557D01*
X88870975Y-81581060D01*
X88870974Y-81581059D01*
X88870967Y-81581058D01*
X88752562Y-81566100D01*
X88687486Y-81537718D01*
X88648085Y-81478658D01*
X88646869Y-81407672D01*
X88679258Y-81352001D01*
X93759405Y-76271855D01*
X93821717Y-76237829D01*
X93892532Y-76242894D01*
G37*
G04 #@! TD.AperFunction*
G04 #@! TA.AperFunction,Conductor*
G36*
X88534075Y-122992993D02*
G01*
X88599901Y-123107007D01*
X88692993Y-123200099D01*
X88807007Y-123265925D01*
X88875050Y-123284157D01*
X88299395Y-123859812D01*
X88299395Y-123859814D01*
X88362575Y-123904053D01*
X88362574Y-123904053D01*
X88563972Y-123997966D01*
X88563976Y-123997968D01*
X88778625Y-124055482D01*
X89000000Y-124074850D01*
X89221374Y-124055482D01*
X89382889Y-124012205D01*
X89453865Y-124013895D01*
X89512661Y-124053689D01*
X89540609Y-124118954D01*
X89541500Y-124133912D01*
X89541500Y-126675050D01*
X89521498Y-126743171D01*
X89504599Y-126764140D01*
X89390891Y-126877849D01*
X89354337Y-126914403D01*
X89292025Y-126948428D01*
X89232633Y-126947014D01*
X89221471Y-126944023D01*
X89221468Y-126944022D01*
X89000000Y-126924647D01*
X88778537Y-126944022D01*
X88663463Y-126974856D01*
X88563806Y-127001559D01*
X88563801Y-127001561D01*
X88362323Y-127095512D01*
X88180222Y-127223020D01*
X88180216Y-127223025D01*
X88023025Y-127380216D01*
X88023020Y-127380222D01*
X87895509Y-127562326D01*
X87881221Y-127592967D01*
X87834302Y-127646251D01*
X87766025Y-127665710D01*
X87698065Y-127645166D01*
X87652833Y-127592964D01*
X87564051Y-127402571D01*
X87519815Y-127339395D01*
X87519813Y-127339395D01*
X86944157Y-127915051D01*
X86925925Y-127847007D01*
X86860099Y-127732993D01*
X86767007Y-127639901D01*
X86652993Y-127574075D01*
X86584947Y-127555841D01*
X87160603Y-126980185D01*
X87160603Y-126980184D01*
X87097425Y-126935946D01*
X86972837Y-126877850D01*
X86919552Y-126830933D01*
X86900091Y-126762655D01*
X86920633Y-126694695D01*
X86972837Y-126649460D01*
X87091654Y-126594056D01*
X87272038Y-126467749D01*
X87427749Y-126312038D01*
X87554056Y-126131654D01*
X87647120Y-125932076D01*
X87704115Y-125719371D01*
X87723307Y-125500000D01*
X87704115Y-125280629D01*
X87647120Y-125067924D01*
X87554056Y-124868347D01*
X87427749Y-124687962D01*
X87272038Y-124532251D01*
X87091654Y-124405944D01*
X86972837Y-124350539D01*
X86919552Y-124303622D01*
X86900091Y-124235345D01*
X86920633Y-124167385D01*
X86972838Y-124122149D01*
X87097421Y-124064055D01*
X87097426Y-124064052D01*
X87160603Y-124019814D01*
X87160603Y-124019812D01*
X86584948Y-123444157D01*
X86652993Y-123425925D01*
X86767007Y-123360099D01*
X86860099Y-123267007D01*
X86925925Y-123152993D01*
X86944157Y-123084948D01*
X87519812Y-123660603D01*
X87519814Y-123660603D01*
X87564052Y-123597426D01*
X87564055Y-123597421D01*
X87653109Y-123406444D01*
X87700026Y-123353158D01*
X87768303Y-123333697D01*
X87836263Y-123354239D01*
X87881498Y-123406442D01*
X87895943Y-123437420D01*
X87895946Y-123437425D01*
X87940184Y-123500603D01*
X87940185Y-123500603D01*
X88515841Y-122924947D01*
X88534075Y-122992993D01*
G37*
G04 #@! TD.AperFunction*
G04 #@! TA.AperFunction,Conductor*
G36*
X85765861Y-63357482D02*
G01*
X85822697Y-63400029D01*
X85847508Y-63466549D01*
X85847581Y-63483444D01*
X85846639Y-63498418D01*
X85846541Y-63499993D01*
X85846540Y-63500001D01*
X85846540Y-63500006D01*
X85866357Y-63815007D01*
X85866359Y-63815024D01*
X85925504Y-64125067D01*
X85925507Y-64125080D01*
X86023039Y-64425254D01*
X86023044Y-64425266D01*
X86157438Y-64710869D01*
X86157440Y-64710872D01*
X86157443Y-64710878D01*
X86326562Y-64977368D01*
X86527763Y-65220578D01*
X86527766Y-65220580D01*
X86527767Y-65220582D01*
X86757860Y-65436654D01*
X87013221Y-65622184D01*
X87289821Y-65774247D01*
X87583298Y-65890443D01*
X87889025Y-65968940D01*
X87889033Y-65968941D01*
X87889032Y-65968941D01*
X88053129Y-65989670D01*
X88202179Y-66008500D01*
X88202183Y-66008500D01*
X88517817Y-66008500D01*
X88517821Y-66008500D01*
X88830975Y-65968940D01*
X89136702Y-65890443D01*
X89430179Y-65774247D01*
X89706779Y-65622184D01*
X89851440Y-65517081D01*
X89918307Y-65493224D01*
X89987458Y-65509304D01*
X90036938Y-65560218D01*
X90051500Y-65619018D01*
X90051500Y-77357944D01*
X90031498Y-77426065D01*
X90014595Y-77447039D01*
X82973595Y-84488039D01*
X82911283Y-84522065D01*
X82840468Y-84517000D01*
X82783632Y-84474453D01*
X82758821Y-84407933D01*
X82758500Y-84398944D01*
X82758500Y-74085142D01*
X82758499Y-74085139D01*
X82733194Y-73957923D01*
X82683555Y-73838083D01*
X82611491Y-73730231D01*
X80947357Y-72066097D01*
X80913331Y-72003785D01*
X80918396Y-71932970D01*
X80960943Y-71876134D01*
X81027463Y-71851323D01*
X81077362Y-71857828D01*
X81113049Y-71870080D01*
X81343288Y-71908500D01*
X81343292Y-71908500D01*
X81576708Y-71908500D01*
X81576712Y-71908500D01*
X81806951Y-71870080D01*
X82027727Y-71794287D01*
X82233017Y-71683190D01*
X82417220Y-71539818D01*
X82575314Y-71368083D01*
X82604517Y-71323383D01*
X82658519Y-71277296D01*
X82728867Y-71267720D01*
X82793225Y-71297696D01*
X82815481Y-71323382D01*
X82844686Y-71368083D01*
X82844687Y-71368084D01*
X83002774Y-71539813D01*
X83002778Y-71539817D01*
X83065123Y-71588342D01*
X83186983Y-71683190D01*
X83392273Y-71794287D01*
X83613049Y-71870080D01*
X83843288Y-71908500D01*
X83843292Y-71908500D01*
X84076708Y-71908500D01*
X84076712Y-71908500D01*
X84306951Y-71870080D01*
X84527727Y-71794287D01*
X84733017Y-71683190D01*
X84917220Y-71539818D01*
X85075314Y-71368083D01*
X85104814Y-71322928D01*
X85158816Y-71276841D01*
X85229164Y-71267265D01*
X85293521Y-71297241D01*
X85295421Y-71299434D01*
X85300796Y-71299991D01*
X85975841Y-70624946D01*
X85994075Y-70692993D01*
X86059901Y-70807007D01*
X86152993Y-70900099D01*
X86267007Y-70965925D01*
X86335051Y-70984157D01*
X85658680Y-71660528D01*
X85658681Y-71660529D01*
X85687249Y-71682765D01*
X85687258Y-71682771D01*
X85892474Y-71793827D01*
X85892477Y-71793829D01*
X86113167Y-71869592D01*
X86113176Y-71869594D01*
X86343334Y-71908000D01*
X86576666Y-71908000D01*
X86806823Y-71869594D01*
X86806832Y-71869592D01*
X87027522Y-71793829D01*
X87027525Y-71793827D01*
X87232738Y-71682772D01*
X87261317Y-71660528D01*
X86584947Y-70984158D01*
X86652993Y-70965925D01*
X86767007Y-70900099D01*
X86860099Y-70807007D01*
X86925925Y-70692993D01*
X86944158Y-70624947D01*
X87619203Y-71299991D01*
X87702544Y-71172427D01*
X87796273Y-70958747D01*
X87796275Y-70958743D01*
X87853555Y-70732549D01*
X87872825Y-70500000D01*
X87853555Y-70267450D01*
X87796275Y-70041256D01*
X87796273Y-70041252D01*
X87702547Y-69827578D01*
X87702540Y-69827566D01*
X87619202Y-69700007D01*
X86944157Y-70375051D01*
X86925925Y-70307007D01*
X86860099Y-70192993D01*
X86767007Y-70099901D01*
X86652993Y-70034075D01*
X86584947Y-70015841D01*
X87261318Y-69339470D01*
X87232743Y-69317229D01*
X87232741Y-69317228D01*
X87027525Y-69206172D01*
X87027522Y-69206170D01*
X86806832Y-69130407D01*
X86806823Y-69130405D01*
X86576666Y-69092000D01*
X86343334Y-69092000D01*
X86113176Y-69130405D01*
X86113167Y-69130407D01*
X85892477Y-69206170D01*
X85892474Y-69206172D01*
X85687259Y-69317227D01*
X85658681Y-69339470D01*
X85658680Y-69339470D01*
X86335052Y-70015842D01*
X86267007Y-70034075D01*
X86152993Y-70099901D01*
X86059901Y-70192993D01*
X85994075Y-70307007D01*
X85975842Y-70375052D01*
X85300796Y-69700006D01*
X85287258Y-69701411D01*
X85261775Y-69723159D01*
X85191427Y-69732734D01*
X85127070Y-69702756D01*
X85104814Y-69677070D01*
X85075314Y-69631916D01*
X84917225Y-69460186D01*
X84917221Y-69460182D01*
X84825118Y-69388496D01*
X84733017Y-69316810D01*
X84703345Y-69300752D01*
X84684529Y-69290569D01*
X84634139Y-69240555D01*
X84618500Y-69179756D01*
X84618500Y-64452868D01*
X84638502Y-64384747D01*
X84655395Y-64363783D01*
X85632737Y-63386440D01*
X85695046Y-63352418D01*
X85765861Y-63357482D01*
G37*
G04 #@! TD.AperFunction*
G04 #@! TA.AperFunction,Conductor*
G36*
X93916621Y-36545502D02*
G01*
X93963114Y-36599158D01*
X93974500Y-36651500D01*
X93974500Y-52579051D01*
X93954498Y-52647172D01*
X93900842Y-52693665D01*
X93830568Y-52703769D01*
X93765988Y-52674275D01*
X93759405Y-52668146D01*
X93557010Y-52465751D01*
X93522984Y-52403439D01*
X93523960Y-52345726D01*
X93544564Y-52264368D01*
X93563156Y-52040000D01*
X93544564Y-51815632D01*
X93489296Y-51597384D01*
X93398860Y-51391209D01*
X93369716Y-51346601D01*
X93275724Y-51202734D01*
X93275714Y-51202722D01*
X93132159Y-51046782D01*
X93100737Y-50983117D01*
X93108723Y-50912571D01*
X93153582Y-50857542D01*
X93180827Y-50843388D01*
X93295965Y-50800444D01*
X93412904Y-50712904D01*
X93500444Y-50595965D01*
X93500444Y-50595964D01*
X93551494Y-50459093D01*
X93557999Y-50398597D01*
X93558000Y-50398585D01*
X93558000Y-49754000D01*
X92630703Y-49754000D01*
X92665925Y-49692993D01*
X92700000Y-49565826D01*
X92700000Y-49434174D01*
X92665925Y-49307007D01*
X92630703Y-49246000D01*
X93558000Y-49246000D01*
X93558000Y-48601414D01*
X93557999Y-48601402D01*
X93551494Y-48540906D01*
X93500444Y-48404035D01*
X93500444Y-48404034D01*
X93412904Y-48287095D01*
X93295965Y-48199555D01*
X93159093Y-48148505D01*
X93098597Y-48142000D01*
X92454000Y-48142000D01*
X92454000Y-49069297D01*
X92392993Y-49034075D01*
X92265826Y-49000000D01*
X92134174Y-49000000D01*
X92007007Y-49034075D01*
X91946000Y-49069297D01*
X91946000Y-48142000D01*
X91301402Y-48142000D01*
X91240906Y-48148505D01*
X91104035Y-48199555D01*
X91104034Y-48199555D01*
X90987095Y-48287095D01*
X90899555Y-48404034D01*
X90899555Y-48404035D01*
X90848505Y-48540906D01*
X90842000Y-48601402D01*
X90842000Y-49246000D01*
X91769297Y-49246000D01*
X91734075Y-49307007D01*
X91700000Y-49434174D01*
X91700000Y-49565826D01*
X91734075Y-49692993D01*
X91769297Y-49754000D01*
X90842000Y-49754000D01*
X90842000Y-50398597D01*
X90848505Y-50459093D01*
X90899555Y-50595964D01*
X90899555Y-50595965D01*
X90987095Y-50712904D01*
X91104034Y-50800444D01*
X91219172Y-50843388D01*
X91276008Y-50885935D01*
X91300819Y-50952455D01*
X91285728Y-51021829D01*
X91267841Y-51046782D01*
X91124280Y-51202729D01*
X91124275Y-51202734D01*
X91001141Y-51391206D01*
X90910703Y-51597386D01*
X90910702Y-51597387D01*
X90855437Y-51815624D01*
X90836844Y-52040000D01*
X90855437Y-52264375D01*
X90910702Y-52482612D01*
X90910703Y-52482613D01*
X90910704Y-52482616D01*
X90992084Y-52668146D01*
X91001141Y-52688793D01*
X91124275Y-52877265D01*
X91124279Y-52877270D01*
X91276762Y-53042908D01*
X91331331Y-53085381D01*
X91454424Y-53181189D01*
X91487680Y-53199186D01*
X91538071Y-53249200D01*
X91553423Y-53318516D01*
X91528862Y-53385129D01*
X91487680Y-53420814D01*
X91454426Y-53438810D01*
X91454424Y-53438811D01*
X91276762Y-53577091D01*
X91124279Y-53742729D01*
X91124275Y-53742735D01*
X91044778Y-53864415D01*
X90990774Y-53910504D01*
X90939295Y-53921500D01*
X88904950Y-53921500D01*
X88836829Y-53901498D01*
X88815855Y-53884595D01*
X86552018Y-51620758D01*
X86517992Y-51558446D01*
X86523057Y-51487631D01*
X86565604Y-51430795D01*
X86620375Y-51407381D01*
X86846823Y-51369594D01*
X86846832Y-51369592D01*
X87067522Y-51293829D01*
X87067525Y-51293827D01*
X87272738Y-51182772D01*
X87301317Y-51160527D01*
X86624947Y-50484157D01*
X86692993Y-50465925D01*
X86807007Y-50400099D01*
X86900099Y-50307007D01*
X86965925Y-50192993D01*
X86984158Y-50124947D01*
X87659203Y-50799991D01*
X87742544Y-50672427D01*
X87836273Y-50458747D01*
X87836275Y-50458743D01*
X87893555Y-50232549D01*
X87912825Y-50000000D01*
X87893555Y-49767450D01*
X87836275Y-49541256D01*
X87836273Y-49541252D01*
X87742547Y-49327578D01*
X87742540Y-49327566D01*
X87659202Y-49200007D01*
X86984157Y-49875051D01*
X86965925Y-49807007D01*
X86900099Y-49692993D01*
X86807007Y-49599901D01*
X86692993Y-49534075D01*
X86624947Y-49515841D01*
X87301318Y-48839470D01*
X87272743Y-48817229D01*
X87272741Y-48817228D01*
X87067525Y-48706172D01*
X87067522Y-48706170D01*
X86846832Y-48630407D01*
X86846823Y-48630405D01*
X86616666Y-48592000D01*
X86383334Y-48592000D01*
X86153176Y-48630405D01*
X86153167Y-48630407D01*
X85932477Y-48706170D01*
X85932474Y-48706172D01*
X85727259Y-48817227D01*
X85698681Y-48839470D01*
X85698680Y-48839470D01*
X86375052Y-49515842D01*
X86307007Y-49534075D01*
X86192993Y-49599901D01*
X86099901Y-49692993D01*
X86034075Y-49807007D01*
X86015842Y-49875052D01*
X85340796Y-49200006D01*
X85327258Y-49201411D01*
X85301775Y-49223159D01*
X85231427Y-49232734D01*
X85167070Y-49202756D01*
X85144814Y-49177070D01*
X85115314Y-49131916D01*
X84957225Y-48960186D01*
X84957221Y-48960182D01*
X84802130Y-48839470D01*
X84773017Y-48816810D01*
X84567727Y-48705713D01*
X84567724Y-48705712D01*
X84567723Y-48705711D01*
X84346955Y-48629921D01*
X84346948Y-48629919D01*
X84248411Y-48613476D01*
X84116712Y-48591500D01*
X83883288Y-48591500D01*
X83768066Y-48610727D01*
X83653051Y-48629919D01*
X83653044Y-48629921D01*
X83432276Y-48705711D01*
X83432273Y-48705713D01*
X83226985Y-48816809D01*
X83226983Y-48816810D01*
X83042778Y-48960182D01*
X83042774Y-48960186D01*
X82884685Y-49131916D01*
X82855483Y-49176615D01*
X82801480Y-49222704D01*
X82731132Y-49232279D01*
X82666774Y-49202302D01*
X82644517Y-49176615D01*
X82615314Y-49131916D01*
X82457225Y-48960186D01*
X82457221Y-48960182D01*
X82302130Y-48839470D01*
X82273017Y-48816810D01*
X82067727Y-48705713D01*
X82067724Y-48705712D01*
X82067723Y-48705711D01*
X81846955Y-48629921D01*
X81846948Y-48629919D01*
X81748411Y-48613476D01*
X81616712Y-48591500D01*
X81383288Y-48591500D01*
X81268066Y-48610727D01*
X81153051Y-48629919D01*
X81153044Y-48629921D01*
X80932276Y-48705711D01*
X80932273Y-48705713D01*
X80726985Y-48816809D01*
X80726983Y-48816810D01*
X80542778Y-48960182D01*
X80542774Y-48960186D01*
X80384685Y-49131916D01*
X80257015Y-49327331D01*
X80163252Y-49541089D01*
X80163249Y-49541096D01*
X80105950Y-49767366D01*
X80086673Y-50000000D01*
X80105950Y-50232633D01*
X80163249Y-50458903D01*
X80163252Y-50458910D01*
X80257015Y-50672668D01*
X80384685Y-50868083D01*
X80542774Y-51039813D01*
X80542778Y-51039817D01*
X80551727Y-51046782D01*
X80726983Y-51183190D01*
X80932273Y-51294287D01*
X81153049Y-51370080D01*
X81383288Y-51408500D01*
X81383292Y-51408500D01*
X81616708Y-51408500D01*
X81616712Y-51408500D01*
X81846951Y-51370080D01*
X82067727Y-51294287D01*
X82273017Y-51183190D01*
X82457220Y-51039818D01*
X82615314Y-50868083D01*
X82644517Y-50823383D01*
X82698519Y-50777296D01*
X82768867Y-50767720D01*
X82833225Y-50797696D01*
X82855481Y-50823382D01*
X82884686Y-50868083D01*
X82884687Y-50868084D01*
X83042774Y-51039813D01*
X83042778Y-51039817D01*
X83051727Y-51046782D01*
X83226983Y-51183190D01*
X83432273Y-51294287D01*
X83653049Y-51370080D01*
X83883288Y-51408500D01*
X83883292Y-51408500D01*
X84116708Y-51408500D01*
X84116712Y-51408500D01*
X84346951Y-51370080D01*
X84346964Y-51370075D01*
X84350837Y-51369095D01*
X84421784Y-51371753D01*
X84470880Y-51402140D01*
X88160231Y-55091491D01*
X88268083Y-55163555D01*
X88387923Y-55213194D01*
X88515143Y-55238500D01*
X90939295Y-55238500D01*
X91007416Y-55258502D01*
X91044778Y-55295585D01*
X91124275Y-55417264D01*
X91124279Y-55417270D01*
X91276762Y-55582908D01*
X91331331Y-55625381D01*
X91454424Y-55721189D01*
X91487680Y-55739186D01*
X91538071Y-55789200D01*
X91553423Y-55858516D01*
X91528862Y-55925129D01*
X91487680Y-55960814D01*
X91454426Y-55978810D01*
X91454424Y-55978811D01*
X91276762Y-56117091D01*
X91124279Y-56282729D01*
X91124275Y-56282735D01*
X91044778Y-56404415D01*
X90990774Y-56450504D01*
X90939295Y-56461500D01*
X90903058Y-56461500D01*
X90775841Y-56486806D01*
X90775838Y-56486807D01*
X90656001Y-56536445D01*
X90548151Y-56608508D01*
X90548145Y-56608513D01*
X83448512Y-63708145D01*
X83448503Y-63708155D01*
X83391931Y-63792824D01*
X83391931Y-63792825D01*
X83376446Y-63815999D01*
X83326807Y-63935838D01*
X83326806Y-63935841D01*
X83301500Y-64063058D01*
X83301500Y-69179756D01*
X83281498Y-69247877D01*
X83235471Y-69290569D01*
X83186985Y-69316809D01*
X83186983Y-69316810D01*
X83002778Y-69460182D01*
X83002774Y-69460186D01*
X82844685Y-69631916D01*
X82815483Y-69676615D01*
X82761480Y-69722704D01*
X82691132Y-69732279D01*
X82626774Y-69702302D01*
X82604517Y-69676615D01*
X82575314Y-69631916D01*
X82417225Y-69460186D01*
X82417221Y-69460182D01*
X82325118Y-69388496D01*
X82233017Y-69316810D01*
X82027727Y-69205713D01*
X82027724Y-69205712D01*
X82027723Y-69205711D01*
X81806955Y-69129921D01*
X81806948Y-69129919D01*
X81708411Y-69113476D01*
X81576712Y-69091500D01*
X81343288Y-69091500D01*
X81228066Y-69110727D01*
X81113051Y-69129919D01*
X81113044Y-69129921D01*
X80892276Y-69205711D01*
X80892273Y-69205713D01*
X80805168Y-69252852D01*
X80686985Y-69316809D01*
X80686983Y-69316810D01*
X80502778Y-69460182D01*
X80502774Y-69460186D01*
X80344685Y-69631916D01*
X80217015Y-69827331D01*
X80123252Y-70041089D01*
X80123249Y-70041096D01*
X80065950Y-70267366D01*
X80065949Y-70267372D01*
X80065949Y-70267374D01*
X80062796Y-70305425D01*
X80046673Y-70500000D01*
X80065949Y-70732627D01*
X80106912Y-70894386D01*
X80104244Y-70965333D01*
X80063643Y-71023574D01*
X79998000Y-71050620D01*
X79928155Y-71037883D01*
X79895672Y-71014412D01*
X77145405Y-68264145D01*
X77111379Y-68201833D01*
X77108500Y-68175050D01*
X77108500Y-66901367D01*
X77108499Y-66901350D01*
X77101990Y-66840803D01*
X77101988Y-66840795D01*
X77050889Y-66703797D01*
X77050887Y-66703792D01*
X76963261Y-66586738D01*
X76846207Y-66499112D01*
X76846202Y-66499110D01*
X76709204Y-66448011D01*
X76709196Y-66448009D01*
X76648649Y-66441500D01*
X76648638Y-66441500D01*
X74851362Y-66441500D01*
X74851350Y-66441500D01*
X74790803Y-66448009D01*
X74790795Y-66448011D01*
X74653797Y-66499110D01*
X74653792Y-66499112D01*
X74536738Y-66586738D01*
X74449112Y-66703792D01*
X74449110Y-66703797D01*
X74398011Y-66840795D01*
X74398009Y-66840803D01*
X74391500Y-66901350D01*
X74391500Y-68698649D01*
X74398009Y-68759196D01*
X74398011Y-68759204D01*
X74449110Y-68896202D01*
X74449112Y-68896207D01*
X74536738Y-69013261D01*
X74653791Y-69100886D01*
X74653792Y-69100886D01*
X74653796Y-69100889D01*
X74768810Y-69143787D01*
X74825642Y-69186332D01*
X74850453Y-69252852D01*
X74835362Y-69322226D01*
X74817475Y-69347179D01*
X74674280Y-69502729D01*
X74674275Y-69502734D01*
X74551141Y-69691206D01*
X74460703Y-69897386D01*
X74460702Y-69897387D01*
X74405437Y-70115624D01*
X74405436Y-70115630D01*
X74405436Y-70115632D01*
X74386844Y-70340000D01*
X74400102Y-70500000D01*
X74405437Y-70564375D01*
X74460702Y-70782612D01*
X74460703Y-70782613D01*
X74460704Y-70782616D01*
X74541110Y-70965925D01*
X74551141Y-70988793D01*
X74674275Y-71177265D01*
X74674279Y-71177270D01*
X74802539Y-71316596D01*
X74808789Y-71323385D01*
X74826762Y-71342908D01*
X74832585Y-71347440D01*
X75004424Y-71481189D01*
X75037680Y-71499186D01*
X75088071Y-71549200D01*
X75103423Y-71618516D01*
X75078862Y-71685129D01*
X75037680Y-71720814D01*
X75004426Y-71738810D01*
X75004424Y-71738811D01*
X74826762Y-71877091D01*
X74674279Y-72042729D01*
X74674275Y-72042734D01*
X74551141Y-72231206D01*
X74460703Y-72437386D01*
X74460702Y-72437387D01*
X74405437Y-72655624D01*
X74386844Y-72880000D01*
X74405436Y-73104369D01*
X74426038Y-73185723D01*
X74423370Y-73256670D01*
X74392989Y-73305749D01*
X74240596Y-73458143D01*
X74178284Y-73492168D01*
X74107468Y-73487104D01*
X74050632Y-73444557D01*
X74025821Y-73378037D01*
X74025500Y-73369048D01*
X74025500Y-63499993D01*
X77046540Y-63499993D01*
X77046540Y-63500006D01*
X77066357Y-63815007D01*
X77066359Y-63815024D01*
X77125504Y-64125067D01*
X77125507Y-64125080D01*
X77223039Y-64425254D01*
X77223044Y-64425266D01*
X77357438Y-64710869D01*
X77357440Y-64710872D01*
X77357443Y-64710878D01*
X77526562Y-64977368D01*
X77727763Y-65220578D01*
X77727766Y-65220580D01*
X77727767Y-65220582D01*
X77957860Y-65436654D01*
X78213221Y-65622184D01*
X78489821Y-65774247D01*
X78783298Y-65890443D01*
X79089025Y-65968940D01*
X79089033Y-65968941D01*
X79089032Y-65968941D01*
X79253129Y-65989670D01*
X79402179Y-66008500D01*
X79402183Y-66008500D01*
X79717817Y-66008500D01*
X79717821Y-66008500D01*
X80030975Y-65968940D01*
X80336702Y-65890443D01*
X80630179Y-65774247D01*
X80906779Y-65622184D01*
X81162140Y-65436654D01*
X81392233Y-65220582D01*
X81593432Y-64977375D01*
X81593434Y-64977370D01*
X81593437Y-64977368D01*
X81762556Y-64710878D01*
X81762562Y-64710869D01*
X81896956Y-64425266D01*
X81994495Y-64125072D01*
X82053641Y-63815020D01*
X82055037Y-63792826D01*
X82073460Y-63500006D01*
X82073460Y-63499993D01*
X82053642Y-63184992D01*
X82053640Y-63184975D01*
X82046060Y-63145238D01*
X81994495Y-62874928D01*
X81896956Y-62574734D01*
X81762562Y-62289131D01*
X81762556Y-62289121D01*
X81593437Y-62022631D01*
X81392236Y-61779421D01*
X81162139Y-61563345D01*
X80906781Y-61377817D01*
X80864385Y-61354509D01*
X80630179Y-61225753D01*
X80336702Y-61109557D01*
X80030975Y-61031060D01*
X80030970Y-61031059D01*
X80030965Y-61031058D01*
X80030967Y-61031058D01*
X79717835Y-60991501D01*
X79717824Y-60991500D01*
X79717821Y-60991500D01*
X79402179Y-60991500D01*
X79402176Y-60991500D01*
X79402164Y-60991501D01*
X79089033Y-61031058D01*
X78783301Y-61109556D01*
X78489821Y-61225753D01*
X78213218Y-61377817D01*
X77957861Y-61563345D01*
X77957860Y-61563345D01*
X77727763Y-61779421D01*
X77526562Y-62022631D01*
X77357443Y-62289121D01*
X77357436Y-62289135D01*
X77223044Y-62574732D01*
X77223039Y-62574745D01*
X77125507Y-62874919D01*
X77125504Y-62874932D01*
X77066359Y-63184975D01*
X77066357Y-63184992D01*
X77046540Y-63499993D01*
X74025500Y-63499993D01*
X74025500Y-42999993D01*
X77086540Y-42999993D01*
X77086540Y-43000006D01*
X77106357Y-43315007D01*
X77106359Y-43315024D01*
X77165504Y-43625067D01*
X77165507Y-43625080D01*
X77263039Y-43925254D01*
X77263044Y-43925266D01*
X77397438Y-44210869D01*
X77397440Y-44210872D01*
X77397443Y-44210878D01*
X77566562Y-44477368D01*
X77767763Y-44720578D01*
X77767766Y-44720580D01*
X77767767Y-44720582D01*
X77997860Y-44936654D01*
X78253221Y-45122184D01*
X78529821Y-45274247D01*
X78823298Y-45390443D01*
X79129025Y-45468940D01*
X79129033Y-45468941D01*
X79129032Y-45468941D01*
X79293129Y-45489670D01*
X79442179Y-45508500D01*
X79442183Y-45508500D01*
X79757817Y-45508500D01*
X79757821Y-45508500D01*
X80070975Y-45468940D01*
X80376702Y-45390443D01*
X80670179Y-45274247D01*
X80946779Y-45122184D01*
X81202140Y-44936654D01*
X81432233Y-44720582D01*
X81633432Y-44477375D01*
X81633434Y-44477370D01*
X81633437Y-44477368D01*
X81802556Y-44210878D01*
X81802562Y-44210869D01*
X81936956Y-43925266D01*
X82034495Y-43625072D01*
X82093641Y-43315020D01*
X82113460Y-43000000D01*
X82113460Y-42999993D01*
X85886540Y-42999993D01*
X85886540Y-43000006D01*
X85906357Y-43315007D01*
X85906359Y-43315024D01*
X85965504Y-43625067D01*
X85965507Y-43625080D01*
X86063039Y-43925254D01*
X86063044Y-43925266D01*
X86197438Y-44210869D01*
X86197440Y-44210872D01*
X86197443Y-44210878D01*
X86366562Y-44477368D01*
X86567763Y-44720578D01*
X86567766Y-44720580D01*
X86567767Y-44720582D01*
X86797860Y-44936654D01*
X87053221Y-45122184D01*
X87329821Y-45274247D01*
X87623298Y-45390443D01*
X87929025Y-45468940D01*
X87929033Y-45468941D01*
X87929032Y-45468941D01*
X88093129Y-45489670D01*
X88242179Y-45508500D01*
X88242183Y-45508500D01*
X88557817Y-45508500D01*
X88557821Y-45508500D01*
X88870975Y-45468940D01*
X89176702Y-45390443D01*
X89470179Y-45274247D01*
X89746779Y-45122184D01*
X90002140Y-44936654D01*
X90232233Y-44720582D01*
X90433432Y-44477375D01*
X90433434Y-44477370D01*
X90433437Y-44477368D01*
X90602556Y-44210878D01*
X90602562Y-44210869D01*
X90736956Y-43925266D01*
X90834495Y-43625072D01*
X90893641Y-43315020D01*
X90913460Y-43000000D01*
X90893641Y-42684980D01*
X90834495Y-42374928D01*
X90736956Y-42074734D01*
X90602562Y-41789131D01*
X90602556Y-41789121D01*
X90433437Y-41522631D01*
X90232236Y-41279421D01*
X90002139Y-41063345D01*
X89746781Y-40877817D01*
X89704385Y-40854509D01*
X89470179Y-40725753D01*
X89176702Y-40609557D01*
X88870975Y-40531060D01*
X88870970Y-40531059D01*
X88870965Y-40531058D01*
X88870967Y-40531058D01*
X88557835Y-40491501D01*
X88557824Y-40491500D01*
X88557821Y-40491500D01*
X88242179Y-40491500D01*
X88242176Y-40491500D01*
X88242164Y-40491501D01*
X87929033Y-40531058D01*
X87623301Y-40609556D01*
X87329821Y-40725753D01*
X87053218Y-40877817D01*
X86797861Y-41063345D01*
X86797860Y-41063345D01*
X86567763Y-41279421D01*
X86366562Y-41522631D01*
X86197443Y-41789121D01*
X86197436Y-41789135D01*
X86063044Y-42074732D01*
X86063039Y-42074745D01*
X85965507Y-42374919D01*
X85965504Y-42374932D01*
X85906359Y-42684975D01*
X85906357Y-42684992D01*
X85886540Y-42999993D01*
X82113460Y-42999993D01*
X82093641Y-42684980D01*
X82034495Y-42374928D01*
X81936956Y-42074734D01*
X81802562Y-41789131D01*
X81802556Y-41789121D01*
X81633437Y-41522631D01*
X81432236Y-41279421D01*
X81202139Y-41063345D01*
X80946781Y-40877817D01*
X80904385Y-40854509D01*
X80670179Y-40725753D01*
X80376702Y-40609557D01*
X80070975Y-40531060D01*
X80070970Y-40531059D01*
X80070965Y-40531058D01*
X80070967Y-40531058D01*
X79757835Y-40491501D01*
X79757824Y-40491500D01*
X79757821Y-40491500D01*
X79442179Y-40491500D01*
X79442176Y-40491500D01*
X79442164Y-40491501D01*
X79129033Y-40531058D01*
X78823301Y-40609556D01*
X78529821Y-40725753D01*
X78253218Y-40877817D01*
X77997861Y-41063345D01*
X77997860Y-41063345D01*
X77767763Y-41279421D01*
X77566562Y-41522631D01*
X77397443Y-41789121D01*
X77397436Y-41789135D01*
X77263044Y-42074732D01*
X77263039Y-42074745D01*
X77165507Y-42374919D01*
X77165504Y-42374932D01*
X77106359Y-42684975D01*
X77106357Y-42684992D01*
X77086540Y-42999993D01*
X74025500Y-42999993D01*
X74025500Y-36651500D01*
X74045502Y-36583379D01*
X74099158Y-36536886D01*
X74151500Y-36525500D01*
X93848500Y-36525500D01*
X93916621Y-36545502D01*
G37*
G04 #@! TD.AperFunction*
M02*
