G04 #@! TF.GenerationSoftware,KiCad,Pcbnew,7.0.7-7.0.7~ubuntu22.04.1*
G04 #@! TF.CreationDate,2023-10-11T23:06:47+02:00*
G04 #@! TF.ProjectId,RP2040-VCO,52503230-3430-42d5-9643-4f2e6b696361,rev?*
G04 #@! TF.SameCoordinates,Original*
G04 #@! TF.FileFunction,Soldermask,Top*
G04 #@! TF.FilePolarity,Negative*
%FSLAX46Y46*%
G04 Gerber Fmt 4.6, Leading zero omitted, Abs format (unit mm)*
G04 Created by KiCad (PCBNEW 7.0.7-7.0.7~ubuntu22.04.1) date 2023-10-11 23:06:47*
%MOMM*%
%LPD*%
G01*
G04 APERTURE LIST*
%ADD10R,1.930000X1.830000*%
%ADD11C,2.130000*%
%ADD12C,4.000000*%
%ADD13C,1.800000*%
%ADD14C,1.500000*%
%ADD15C,1.524000*%
%ADD16C,3.200000*%
%ADD17O,3.200000X5.000000*%
%ADD18R,1.700000X1.700000*%
%ADD19O,1.700000X1.700000*%
G04 APERTURE END LIST*
D10*
X89000000Y-133600000D03*
D11*
X89000000Y-145000000D03*
X89000000Y-136700000D03*
D10*
X79000000Y-133600000D03*
D11*
X79000000Y-145000000D03*
X79000000Y-136700000D03*
D10*
X79000000Y-119100000D03*
D11*
X79000000Y-130500000D03*
X79000000Y-122200000D03*
D12*
X79600000Y-43000000D03*
X88400000Y-43000000D03*
D13*
X81500000Y-50000000D03*
X84000000Y-50000000D03*
X86500000Y-50000000D03*
D14*
X86460000Y-125500000D03*
D15*
X86460000Y-128040000D03*
X86460000Y-122960000D03*
X91540000Y-128040000D03*
X91540000Y-122960000D03*
X89000000Y-128200000D03*
X89000000Y-122800000D03*
D16*
X90500000Y-96000000D03*
G36*
G01*
X89500000Y-119650000D02*
X89500000Y-120550000D01*
G75*
G02*
X89250000Y-120800000I-250000J0D01*
G01*
X88550000Y-120800000D01*
G75*
G02*
X88300000Y-120550000I0J250000D01*
G01*
X88300000Y-119650000D01*
G75*
G02*
X88550000Y-119400000I250000J0D01*
G01*
X89250000Y-119400000D01*
G75*
G02*
X89500000Y-119650000I0J-250000D01*
G01*
G37*
G36*
G01*
X87500000Y-119650000D02*
X87500000Y-120550000D01*
G75*
G02*
X87250000Y-120800000I-250000J0D01*
G01*
X86550000Y-120800000D01*
G75*
G02*
X86300000Y-120550000I0J250000D01*
G01*
X86300000Y-119650000D01*
G75*
G02*
X86550000Y-119400000I250000J0D01*
G01*
X87250000Y-119400000D01*
G75*
G02*
X87500000Y-119650000I0J-250000D01*
G01*
G37*
D17*
X88700000Y-111500000D03*
X84000000Y-111500000D03*
X79300000Y-111500000D03*
D12*
X79560000Y-63500000D03*
X88360000Y-63500000D03*
D13*
X81460000Y-70500000D03*
X83960000Y-70500000D03*
X86460000Y-70500000D03*
G36*
G01*
X92350000Y-120700000D02*
X91450000Y-120700000D01*
G75*
G02*
X91200000Y-120450000I0J250000D01*
G01*
X91200000Y-119750000D01*
G75*
G02*
X91450000Y-119500000I250000J0D01*
G01*
X92350000Y-119500000D01*
G75*
G02*
X92600000Y-119750000I0J-250000D01*
G01*
X92600000Y-120450000D01*
G75*
G02*
X92350000Y-120700000I-250000J0D01*
G01*
G37*
G36*
G01*
X92350000Y-118700000D02*
X91450000Y-118700000D01*
G75*
G02*
X91200000Y-118450000I0J250000D01*
G01*
X91200000Y-117750000D01*
G75*
G02*
X91450000Y-117500000I250000J0D01*
G01*
X92350000Y-117500000D01*
G75*
G02*
X92600000Y-117750000I0J-250000D01*
G01*
X92600000Y-118450000D01*
G75*
G02*
X92350000Y-118700000I-250000J0D01*
G01*
G37*
D12*
X79600000Y-84050000D03*
X88400000Y-84050000D03*
D13*
X81500000Y-91050000D03*
X84000000Y-91050000D03*
X86500000Y-91050000D03*
D18*
X92200000Y-49500000D03*
D19*
X92200000Y-52040000D03*
X92200000Y-54580000D03*
X92200000Y-57120000D03*
X92200000Y-59660000D03*
X92200000Y-62200000D03*
D18*
X75750000Y-67800000D03*
D19*
X75750000Y-70340000D03*
X75750000Y-72880000D03*
X75750000Y-75420000D03*
X75750000Y-77960000D03*
X75750000Y-80500000D03*
X75750000Y-83040000D03*
X75750000Y-85580000D03*
M02*
