G04 #@! TF.GenerationSoftware,KiCad,Pcbnew,7.0.7-7.0.7~ubuntu22.04.1*
G04 #@! TF.CreationDate,2023-10-11T21:50:40+02:00*
G04 #@! TF.ProjectId,RP2040-VCO,52503230-3430-42d5-9643-4f2e6b696361,rev?*
G04 #@! TF.SameCoordinates,Original*
G04 #@! TF.FileFunction,Legend,Bot*
G04 #@! TF.FilePolarity,Positive*
%FSLAX46Y46*%
G04 Gerber Fmt 4.6, Leading zero omitted, Abs format (unit mm)*
G04 Created by KiCad (PCBNEW 7.0.7-7.0.7~ubuntu22.04.1) date 2023-10-11 21:50:40*
%MOMM*%
%LPD*%
G01*
G04 APERTURE LIST*
%ADD10C,0.150000*%
%ADD11C,0.300000*%
%ADD12O,6.700000X4.200000*%
G04 APERTURE END LIST*
D10*
X122857143Y-98731009D02*
X123190476Y-98731009D01*
X123190476Y-99254819D02*
X123190476Y-98254819D01*
X123190476Y-98254819D02*
X122714286Y-98254819D01*
X122333333Y-99254819D02*
X122333333Y-98588152D01*
X122333333Y-98778628D02*
X122285714Y-98683390D01*
X122285714Y-98683390D02*
X122238095Y-98635771D01*
X122238095Y-98635771D02*
X122142857Y-98588152D01*
X122142857Y-98588152D02*
X122047619Y-98588152D01*
X121571428Y-99254819D02*
X121666666Y-99207200D01*
X121666666Y-99207200D02*
X121714285Y-99159580D01*
X121714285Y-99159580D02*
X121761904Y-99064342D01*
X121761904Y-99064342D02*
X121761904Y-98778628D01*
X121761904Y-98778628D02*
X121714285Y-98683390D01*
X121714285Y-98683390D02*
X121666666Y-98635771D01*
X121666666Y-98635771D02*
X121571428Y-98588152D01*
X121571428Y-98588152D02*
X121428571Y-98588152D01*
X121428571Y-98588152D02*
X121333333Y-98635771D01*
X121333333Y-98635771D02*
X121285714Y-98683390D01*
X121285714Y-98683390D02*
X121238095Y-98778628D01*
X121238095Y-98778628D02*
X121238095Y-99064342D01*
X121238095Y-99064342D02*
X121285714Y-99159580D01*
X121285714Y-99159580D02*
X121333333Y-99207200D01*
X121333333Y-99207200D02*
X121428571Y-99254819D01*
X121428571Y-99254819D02*
X121571428Y-99254819D01*
X120809523Y-98588152D02*
X120809523Y-99254819D01*
X120809523Y-98683390D02*
X120761904Y-98635771D01*
X120761904Y-98635771D02*
X120666666Y-98588152D01*
X120666666Y-98588152D02*
X120523809Y-98588152D01*
X120523809Y-98588152D02*
X120428571Y-98635771D01*
X120428571Y-98635771D02*
X120380952Y-98731009D01*
X120380952Y-98731009D02*
X120380952Y-99254819D01*
X120047618Y-98588152D02*
X119666666Y-98588152D01*
X119904761Y-98254819D02*
X119904761Y-99111961D01*
X119904761Y-99111961D02*
X119857142Y-99207200D01*
X119857142Y-99207200D02*
X119761904Y-99254819D01*
X119761904Y-99254819D02*
X119666666Y-99254819D01*
D11*
X112678328Y-66071428D02*
X113749757Y-66071428D01*
X113749757Y-66071428D02*
X113964042Y-65999999D01*
X113964042Y-65999999D02*
X114106900Y-65857142D01*
X114106900Y-65857142D02*
X114178328Y-65642856D01*
X114178328Y-65642856D02*
X114178328Y-65499999D01*
X114178328Y-67499999D02*
X114178328Y-66785713D01*
X114178328Y-66785713D02*
X112678328Y-66785713D01*
X114035471Y-68857142D02*
X114106900Y-68785714D01*
X114106900Y-68785714D02*
X114178328Y-68571428D01*
X114178328Y-68571428D02*
X114178328Y-68428571D01*
X114178328Y-68428571D02*
X114106900Y-68214285D01*
X114106900Y-68214285D02*
X113964042Y-68071428D01*
X113964042Y-68071428D02*
X113821185Y-67999999D01*
X113821185Y-67999999D02*
X113535471Y-67928571D01*
X113535471Y-67928571D02*
X113321185Y-67928571D01*
X113321185Y-67928571D02*
X113035471Y-67999999D01*
X113035471Y-67999999D02*
X112892614Y-68071428D01*
X112892614Y-68071428D02*
X112749757Y-68214285D01*
X112749757Y-68214285D02*
X112678328Y-68428571D01*
X112678328Y-68428571D02*
X112678328Y-68571428D01*
X112678328Y-68571428D02*
X112749757Y-68785714D01*
X112749757Y-68785714D02*
X112821185Y-68857142D01*
X112678328Y-69928571D02*
X113749757Y-69928571D01*
X113749757Y-69928571D02*
X113964042Y-69857142D01*
X113964042Y-69857142D02*
X114106900Y-69714285D01*
X114106900Y-69714285D02*
X114178328Y-69499999D01*
X114178328Y-69499999D02*
X114178328Y-69357142D01*
X114178328Y-71357142D02*
X114178328Y-70642856D01*
X114178328Y-70642856D02*
X112678328Y-70642856D01*
X114035471Y-72714285D02*
X114106900Y-72642857D01*
X114106900Y-72642857D02*
X114178328Y-72428571D01*
X114178328Y-72428571D02*
X114178328Y-72285714D01*
X114178328Y-72285714D02*
X114106900Y-72071428D01*
X114106900Y-72071428D02*
X113964042Y-71928571D01*
X113964042Y-71928571D02*
X113821185Y-71857142D01*
X113821185Y-71857142D02*
X113535471Y-71785714D01*
X113535471Y-71785714D02*
X113321185Y-71785714D01*
X113321185Y-71785714D02*
X113035471Y-71857142D01*
X113035471Y-71857142D02*
X112892614Y-71928571D01*
X112892614Y-71928571D02*
X112749757Y-72071428D01*
X112749757Y-72071428D02*
X112678328Y-72285714D01*
X112678328Y-72285714D02*
X112678328Y-72428571D01*
X112678328Y-72428571D02*
X112749757Y-72642857D01*
X112749757Y-72642857D02*
X112821185Y-72714285D01*
X112678328Y-73785714D02*
X113749757Y-73785714D01*
X113749757Y-73785714D02*
X113964042Y-73714285D01*
X113964042Y-73714285D02*
X114106900Y-73571428D01*
X114106900Y-73571428D02*
X114178328Y-73357142D01*
X114178328Y-73357142D02*
X114178328Y-73214285D01*
X114178328Y-75214285D02*
X114178328Y-74499999D01*
X114178328Y-74499999D02*
X112678328Y-74499999D01*
X114035471Y-76571428D02*
X114106900Y-76500000D01*
X114106900Y-76500000D02*
X114178328Y-76285714D01*
X114178328Y-76285714D02*
X114178328Y-76142857D01*
X114178328Y-76142857D02*
X114106900Y-75928571D01*
X114106900Y-75928571D02*
X113964042Y-75785714D01*
X113964042Y-75785714D02*
X113821185Y-75714285D01*
X113821185Y-75714285D02*
X113535471Y-75642857D01*
X113535471Y-75642857D02*
X113321185Y-75642857D01*
X113321185Y-75642857D02*
X113035471Y-75714285D01*
X113035471Y-75714285D02*
X112892614Y-75785714D01*
X112892614Y-75785714D02*
X112749757Y-75928571D01*
X112749757Y-75928571D02*
X112678328Y-76142857D01*
X112678328Y-76142857D02*
X112678328Y-76285714D01*
X112678328Y-76285714D02*
X112749757Y-76500000D01*
X112749757Y-76500000D02*
X112821185Y-76571428D01*
X112678328Y-77642857D02*
X113749757Y-77642857D01*
X113749757Y-77642857D02*
X113964042Y-77571428D01*
X113964042Y-77571428D02*
X114106900Y-77428571D01*
X114106900Y-77428571D02*
X114178328Y-77214285D01*
X114178328Y-77214285D02*
X114178328Y-77071428D01*
X114178328Y-79071428D02*
X114178328Y-78357142D01*
X114178328Y-78357142D02*
X112678328Y-78357142D01*
X114035471Y-80428571D02*
X114106900Y-80357143D01*
X114106900Y-80357143D02*
X114178328Y-80142857D01*
X114178328Y-80142857D02*
X114178328Y-80000000D01*
X114178328Y-80000000D02*
X114106900Y-79785714D01*
X114106900Y-79785714D02*
X113964042Y-79642857D01*
X113964042Y-79642857D02*
X113821185Y-79571428D01*
X113821185Y-79571428D02*
X113535471Y-79500000D01*
X113535471Y-79500000D02*
X113321185Y-79500000D01*
X113321185Y-79500000D02*
X113035471Y-79571428D01*
X113035471Y-79571428D02*
X112892614Y-79642857D01*
X112892614Y-79642857D02*
X112749757Y-79785714D01*
X112749757Y-79785714D02*
X112678328Y-80000000D01*
X112678328Y-80000000D02*
X112678328Y-80142857D01*
X112678328Y-80142857D02*
X112749757Y-80357143D01*
X112749757Y-80357143D02*
X112821185Y-80428571D01*
D10*
X125428571Y-94644819D02*
X125761904Y-94168628D01*
X125999999Y-94644819D02*
X125999999Y-93644819D01*
X125999999Y-93644819D02*
X125619047Y-93644819D01*
X125619047Y-93644819D02*
X125523809Y-93692438D01*
X125523809Y-93692438D02*
X125476190Y-93740057D01*
X125476190Y-93740057D02*
X125428571Y-93835295D01*
X125428571Y-93835295D02*
X125428571Y-93978152D01*
X125428571Y-93978152D02*
X125476190Y-94073390D01*
X125476190Y-94073390D02*
X125523809Y-94121009D01*
X125523809Y-94121009D02*
X125619047Y-94168628D01*
X125619047Y-94168628D02*
X125999999Y-94168628D01*
X124999999Y-94644819D02*
X124999999Y-93644819D01*
X124999999Y-93644819D02*
X124619047Y-93644819D01*
X124619047Y-93644819D02*
X124523809Y-93692438D01*
X124523809Y-93692438D02*
X124476190Y-93740057D01*
X124476190Y-93740057D02*
X124428571Y-93835295D01*
X124428571Y-93835295D02*
X124428571Y-93978152D01*
X124428571Y-93978152D02*
X124476190Y-94073390D01*
X124476190Y-94073390D02*
X124523809Y-94121009D01*
X124523809Y-94121009D02*
X124619047Y-94168628D01*
X124619047Y-94168628D02*
X124999999Y-94168628D01*
X124047618Y-93740057D02*
X123999999Y-93692438D01*
X123999999Y-93692438D02*
X123904761Y-93644819D01*
X123904761Y-93644819D02*
X123666666Y-93644819D01*
X123666666Y-93644819D02*
X123571428Y-93692438D01*
X123571428Y-93692438D02*
X123523809Y-93740057D01*
X123523809Y-93740057D02*
X123476190Y-93835295D01*
X123476190Y-93835295D02*
X123476190Y-93930533D01*
X123476190Y-93930533D02*
X123523809Y-94073390D01*
X123523809Y-94073390D02*
X124095237Y-94644819D01*
X124095237Y-94644819D02*
X123476190Y-94644819D01*
X122857142Y-93644819D02*
X122761904Y-93644819D01*
X122761904Y-93644819D02*
X122666666Y-93692438D01*
X122666666Y-93692438D02*
X122619047Y-93740057D01*
X122619047Y-93740057D02*
X122571428Y-93835295D01*
X122571428Y-93835295D02*
X122523809Y-94025771D01*
X122523809Y-94025771D02*
X122523809Y-94263866D01*
X122523809Y-94263866D02*
X122571428Y-94454342D01*
X122571428Y-94454342D02*
X122619047Y-94549580D01*
X122619047Y-94549580D02*
X122666666Y-94597200D01*
X122666666Y-94597200D02*
X122761904Y-94644819D01*
X122761904Y-94644819D02*
X122857142Y-94644819D01*
X122857142Y-94644819D02*
X122952380Y-94597200D01*
X122952380Y-94597200D02*
X122999999Y-94549580D01*
X122999999Y-94549580D02*
X123047618Y-94454342D01*
X123047618Y-94454342D02*
X123095237Y-94263866D01*
X123095237Y-94263866D02*
X123095237Y-94025771D01*
X123095237Y-94025771D02*
X123047618Y-93835295D01*
X123047618Y-93835295D02*
X122999999Y-93740057D01*
X122999999Y-93740057D02*
X122952380Y-93692438D01*
X122952380Y-93692438D02*
X122857142Y-93644819D01*
X121666666Y-93978152D02*
X121666666Y-94644819D01*
X121904761Y-93597200D02*
X122142856Y-94311485D01*
X122142856Y-94311485D02*
X121523809Y-94311485D01*
X120952380Y-93644819D02*
X120857142Y-93644819D01*
X120857142Y-93644819D02*
X120761904Y-93692438D01*
X120761904Y-93692438D02*
X120714285Y-93740057D01*
X120714285Y-93740057D02*
X120666666Y-93835295D01*
X120666666Y-93835295D02*
X120619047Y-94025771D01*
X120619047Y-94025771D02*
X120619047Y-94263866D01*
X120619047Y-94263866D02*
X120666666Y-94454342D01*
X120666666Y-94454342D02*
X120714285Y-94549580D01*
X120714285Y-94549580D02*
X120761904Y-94597200D01*
X120761904Y-94597200D02*
X120857142Y-94644819D01*
X120857142Y-94644819D02*
X120952380Y-94644819D01*
X120952380Y-94644819D02*
X121047618Y-94597200D01*
X121047618Y-94597200D02*
X121095237Y-94549580D01*
X121095237Y-94549580D02*
X121142856Y-94454342D01*
X121142856Y-94454342D02*
X121190475Y-94263866D01*
X121190475Y-94263866D02*
X121190475Y-94025771D01*
X121190475Y-94025771D02*
X121142856Y-93835295D01*
X121142856Y-93835295D02*
X121095237Y-93740057D01*
X121095237Y-93740057D02*
X121047618Y-93692438D01*
X121047618Y-93692438D02*
X120952380Y-93644819D01*
X119571427Y-93644819D02*
X119238094Y-94644819D01*
X119238094Y-94644819D02*
X118904761Y-93644819D01*
X117999999Y-94549580D02*
X118047618Y-94597200D01*
X118047618Y-94597200D02*
X118190475Y-94644819D01*
X118190475Y-94644819D02*
X118285713Y-94644819D01*
X118285713Y-94644819D02*
X118428570Y-94597200D01*
X118428570Y-94597200D02*
X118523808Y-94501961D01*
X118523808Y-94501961D02*
X118571427Y-94406723D01*
X118571427Y-94406723D02*
X118619046Y-94216247D01*
X118619046Y-94216247D02*
X118619046Y-94073390D01*
X118619046Y-94073390D02*
X118571427Y-93882914D01*
X118571427Y-93882914D02*
X118523808Y-93787676D01*
X118523808Y-93787676D02*
X118428570Y-93692438D01*
X118428570Y-93692438D02*
X118285713Y-93644819D01*
X118285713Y-93644819D02*
X118190475Y-93644819D01*
X118190475Y-93644819D02*
X118047618Y-93692438D01*
X118047618Y-93692438D02*
X117999999Y-93740057D01*
X117380951Y-93644819D02*
X117190475Y-93644819D01*
X117190475Y-93644819D02*
X117095237Y-93692438D01*
X117095237Y-93692438D02*
X116999999Y-93787676D01*
X116999999Y-93787676D02*
X116952380Y-93978152D01*
X116952380Y-93978152D02*
X116952380Y-94311485D01*
X116952380Y-94311485D02*
X116999999Y-94501961D01*
X116999999Y-94501961D02*
X117095237Y-94597200D01*
X117095237Y-94597200D02*
X117190475Y-94644819D01*
X117190475Y-94644819D02*
X117380951Y-94644819D01*
X117380951Y-94644819D02*
X117476189Y-94597200D01*
X117476189Y-94597200D02*
X117571427Y-94501961D01*
X117571427Y-94501961D02*
X117619046Y-94311485D01*
X117619046Y-94311485D02*
X117619046Y-93978152D01*
X117619046Y-93978152D02*
X117571427Y-93787676D01*
X117571427Y-93787676D02*
X117476189Y-93692438D01*
X117476189Y-93692438D02*
X117380951Y-93644819D01*
X127761904Y-95254819D02*
X127428571Y-96254819D01*
X127428571Y-96254819D02*
X127095238Y-95254819D01*
X126238095Y-96254819D02*
X126809523Y-96254819D01*
X126523809Y-96254819D02*
X126523809Y-95254819D01*
X126523809Y-95254819D02*
X126619047Y-95397676D01*
X126619047Y-95397676D02*
X126714285Y-95492914D01*
X126714285Y-95492914D02*
X126809523Y-95540533D01*
X125809523Y-96159580D02*
X125761904Y-96207200D01*
X125761904Y-96207200D02*
X125809523Y-96254819D01*
X125809523Y-96254819D02*
X125857142Y-96207200D01*
X125857142Y-96207200D02*
X125809523Y-96159580D01*
X125809523Y-96159580D02*
X125809523Y-96254819D01*
X125380952Y-95350057D02*
X125333333Y-95302438D01*
X125333333Y-95302438D02*
X125238095Y-95254819D01*
X125238095Y-95254819D02*
X125000000Y-95254819D01*
X125000000Y-95254819D02*
X124904762Y-95302438D01*
X124904762Y-95302438D02*
X124857143Y-95350057D01*
X124857143Y-95350057D02*
X124809524Y-95445295D01*
X124809524Y-95445295D02*
X124809524Y-95540533D01*
X124809524Y-95540533D02*
X124857143Y-95683390D01*
X124857143Y-95683390D02*
X125428571Y-96254819D01*
X125428571Y-96254819D02*
X124809524Y-96254819D01*
X123285714Y-95731009D02*
X123142857Y-95778628D01*
X123142857Y-95778628D02*
X123095238Y-95826247D01*
X123095238Y-95826247D02*
X123047619Y-95921485D01*
X123047619Y-95921485D02*
X123047619Y-96064342D01*
X123047619Y-96064342D02*
X123095238Y-96159580D01*
X123095238Y-96159580D02*
X123142857Y-96207200D01*
X123142857Y-96207200D02*
X123238095Y-96254819D01*
X123238095Y-96254819D02*
X123619047Y-96254819D01*
X123619047Y-96254819D02*
X123619047Y-95254819D01*
X123619047Y-95254819D02*
X123285714Y-95254819D01*
X123285714Y-95254819D02*
X123190476Y-95302438D01*
X123190476Y-95302438D02*
X123142857Y-95350057D01*
X123142857Y-95350057D02*
X123095238Y-95445295D01*
X123095238Y-95445295D02*
X123095238Y-95540533D01*
X123095238Y-95540533D02*
X123142857Y-95635771D01*
X123142857Y-95635771D02*
X123190476Y-95683390D01*
X123190476Y-95683390D02*
X123285714Y-95731009D01*
X123285714Y-95731009D02*
X123619047Y-95731009D01*
X122476190Y-96254819D02*
X122571428Y-96207200D01*
X122571428Y-96207200D02*
X122619047Y-96111961D01*
X122619047Y-96111961D02*
X122619047Y-95254819D01*
X121714285Y-96207200D02*
X121809523Y-96254819D01*
X121809523Y-96254819D02*
X121999999Y-96254819D01*
X121999999Y-96254819D02*
X122095237Y-96207200D01*
X122095237Y-96207200D02*
X122142856Y-96111961D01*
X122142856Y-96111961D02*
X122142856Y-95731009D01*
X122142856Y-95731009D02*
X122095237Y-95635771D01*
X122095237Y-95635771D02*
X121999999Y-95588152D01*
X121999999Y-95588152D02*
X121809523Y-95588152D01*
X121809523Y-95588152D02*
X121714285Y-95635771D01*
X121714285Y-95635771D02*
X121666666Y-95731009D01*
X121666666Y-95731009D02*
X121666666Y-95826247D01*
X121666666Y-95826247D02*
X122142856Y-95921485D01*
X120857142Y-96207200D02*
X120952380Y-96254819D01*
X120952380Y-96254819D02*
X121142856Y-96254819D01*
X121142856Y-96254819D02*
X121238094Y-96207200D01*
X121238094Y-96207200D02*
X121285713Y-96111961D01*
X121285713Y-96111961D02*
X121285713Y-95731009D01*
X121285713Y-95731009D02*
X121238094Y-95635771D01*
X121238094Y-95635771D02*
X121142856Y-95588152D01*
X121142856Y-95588152D02*
X120952380Y-95588152D01*
X120952380Y-95588152D02*
X120857142Y-95635771D01*
X120857142Y-95635771D02*
X120809523Y-95731009D01*
X120809523Y-95731009D02*
X120809523Y-95826247D01*
X120809523Y-95826247D02*
X121285713Y-95921485D01*
X120380951Y-95588152D02*
X120380951Y-96588152D01*
X120380951Y-95635771D02*
X120285713Y-95588152D01*
X120285713Y-95588152D02*
X120095237Y-95588152D01*
X120095237Y-95588152D02*
X119999999Y-95635771D01*
X119999999Y-95635771D02*
X119952380Y-95683390D01*
X119952380Y-95683390D02*
X119904761Y-95778628D01*
X119904761Y-95778628D02*
X119904761Y-96064342D01*
X119904761Y-96064342D02*
X119952380Y-96159580D01*
X119952380Y-96159580D02*
X119999999Y-96207200D01*
X119999999Y-96207200D02*
X120095237Y-96254819D01*
X120095237Y-96254819D02*
X120285713Y-96254819D01*
X120285713Y-96254819D02*
X120380951Y-96207200D01*
X119523808Y-96207200D02*
X119380951Y-96254819D01*
X119380951Y-96254819D02*
X119142856Y-96254819D01*
X119142856Y-96254819D02*
X119047618Y-96207200D01*
X119047618Y-96207200D02*
X118999999Y-96159580D01*
X118999999Y-96159580D02*
X118952380Y-96064342D01*
X118952380Y-96064342D02*
X118952380Y-95969104D01*
X118952380Y-95969104D02*
X118999999Y-95873866D01*
X118999999Y-95873866D02*
X119047618Y-95826247D01*
X119047618Y-95826247D02*
X119142856Y-95778628D01*
X119142856Y-95778628D02*
X119333332Y-95731009D01*
X119333332Y-95731009D02*
X119428570Y-95683390D01*
X119428570Y-95683390D02*
X119476189Y-95635771D01*
X119476189Y-95635771D02*
X119523808Y-95540533D01*
X119523808Y-95540533D02*
X119523808Y-95445295D01*
X119523808Y-95445295D02*
X119476189Y-95350057D01*
X119476189Y-95350057D02*
X119428570Y-95302438D01*
X119428570Y-95302438D02*
X119333332Y-95254819D01*
X119333332Y-95254819D02*
X119095237Y-95254819D01*
X119095237Y-95254819D02*
X118952380Y-95302438D01*
X118380951Y-96254819D02*
X118476189Y-96207200D01*
X118476189Y-96207200D02*
X118523808Y-96159580D01*
X118523808Y-96159580D02*
X118571427Y-96064342D01*
X118571427Y-96064342D02*
X118571427Y-95778628D01*
X118571427Y-95778628D02*
X118523808Y-95683390D01*
X118523808Y-95683390D02*
X118476189Y-95635771D01*
X118476189Y-95635771D02*
X118380951Y-95588152D01*
X118380951Y-95588152D02*
X118238094Y-95588152D01*
X118238094Y-95588152D02*
X118142856Y-95635771D01*
X118142856Y-95635771D02*
X118095237Y-95683390D01*
X118095237Y-95683390D02*
X118047618Y-95778628D01*
X118047618Y-95778628D02*
X118047618Y-96064342D01*
X118047618Y-96064342D02*
X118095237Y-96159580D01*
X118095237Y-96159580D02*
X118142856Y-96207200D01*
X118142856Y-96207200D02*
X118238094Y-96254819D01*
X118238094Y-96254819D02*
X118380951Y-96254819D01*
X117190475Y-95588152D02*
X117190475Y-96254819D01*
X117619046Y-95588152D02*
X117619046Y-96111961D01*
X117619046Y-96111961D02*
X117571427Y-96207200D01*
X117571427Y-96207200D02*
X117476189Y-96254819D01*
X117476189Y-96254819D02*
X117333332Y-96254819D01*
X117333332Y-96254819D02*
X117238094Y-96207200D01*
X117238094Y-96207200D02*
X117190475Y-96159580D01*
X116714284Y-95588152D02*
X116714284Y-96254819D01*
X116714284Y-95683390D02*
X116666665Y-95635771D01*
X116666665Y-95635771D02*
X116571427Y-95588152D01*
X116571427Y-95588152D02*
X116428570Y-95588152D01*
X116428570Y-95588152D02*
X116333332Y-95635771D01*
X116333332Y-95635771D02*
X116285713Y-95731009D01*
X116285713Y-95731009D02*
X116285713Y-96254819D01*
X115380951Y-96254819D02*
X115380951Y-95254819D01*
X115380951Y-96207200D02*
X115476189Y-96254819D01*
X115476189Y-96254819D02*
X115666665Y-96254819D01*
X115666665Y-96254819D02*
X115761903Y-96207200D01*
X115761903Y-96207200D02*
X115809522Y-96159580D01*
X115809522Y-96159580D02*
X115857141Y-96064342D01*
X115857141Y-96064342D02*
X115857141Y-95778628D01*
X115857141Y-95778628D02*
X115809522Y-95683390D01*
X115809522Y-95683390D02*
X115761903Y-95635771D01*
X115761903Y-95635771D02*
X115666665Y-95588152D01*
X115666665Y-95588152D02*
X115476189Y-95588152D01*
X115476189Y-95588152D02*
X115380951Y-95635771D01*
X123214285Y-96960057D02*
X123166666Y-96912438D01*
X123166666Y-96912438D02*
X123071428Y-96864819D01*
X123071428Y-96864819D02*
X122833333Y-96864819D01*
X122833333Y-96864819D02*
X122738095Y-96912438D01*
X122738095Y-96912438D02*
X122690476Y-96960057D01*
X122690476Y-96960057D02*
X122642857Y-97055295D01*
X122642857Y-97055295D02*
X122642857Y-97150533D01*
X122642857Y-97150533D02*
X122690476Y-97293390D01*
X122690476Y-97293390D02*
X123261904Y-97864819D01*
X123261904Y-97864819D02*
X122642857Y-97864819D01*
X122023809Y-96864819D02*
X121928571Y-96864819D01*
X121928571Y-96864819D02*
X121833333Y-96912438D01*
X121833333Y-96912438D02*
X121785714Y-96960057D01*
X121785714Y-96960057D02*
X121738095Y-97055295D01*
X121738095Y-97055295D02*
X121690476Y-97245771D01*
X121690476Y-97245771D02*
X121690476Y-97483866D01*
X121690476Y-97483866D02*
X121738095Y-97674342D01*
X121738095Y-97674342D02*
X121785714Y-97769580D01*
X121785714Y-97769580D02*
X121833333Y-97817200D01*
X121833333Y-97817200D02*
X121928571Y-97864819D01*
X121928571Y-97864819D02*
X122023809Y-97864819D01*
X122023809Y-97864819D02*
X122119047Y-97817200D01*
X122119047Y-97817200D02*
X122166666Y-97769580D01*
X122166666Y-97769580D02*
X122214285Y-97674342D01*
X122214285Y-97674342D02*
X122261904Y-97483866D01*
X122261904Y-97483866D02*
X122261904Y-97245771D01*
X122261904Y-97245771D02*
X122214285Y-97055295D01*
X122214285Y-97055295D02*
X122166666Y-96960057D01*
X122166666Y-96960057D02*
X122119047Y-96912438D01*
X122119047Y-96912438D02*
X122023809Y-96864819D01*
X121309523Y-96960057D02*
X121261904Y-96912438D01*
X121261904Y-96912438D02*
X121166666Y-96864819D01*
X121166666Y-96864819D02*
X120928571Y-96864819D01*
X120928571Y-96864819D02*
X120833333Y-96912438D01*
X120833333Y-96912438D02*
X120785714Y-96960057D01*
X120785714Y-96960057D02*
X120738095Y-97055295D01*
X120738095Y-97055295D02*
X120738095Y-97150533D01*
X120738095Y-97150533D02*
X120785714Y-97293390D01*
X120785714Y-97293390D02*
X121357142Y-97864819D01*
X121357142Y-97864819D02*
X120738095Y-97864819D01*
X120404761Y-96864819D02*
X119785714Y-96864819D01*
X119785714Y-96864819D02*
X120119047Y-97245771D01*
X120119047Y-97245771D02*
X119976190Y-97245771D01*
X119976190Y-97245771D02*
X119880952Y-97293390D01*
X119880952Y-97293390D02*
X119833333Y-97341009D01*
X119833333Y-97341009D02*
X119785714Y-97436247D01*
X119785714Y-97436247D02*
X119785714Y-97674342D01*
X119785714Y-97674342D02*
X119833333Y-97769580D01*
X119833333Y-97769580D02*
X119880952Y-97817200D01*
X119880952Y-97817200D02*
X119976190Y-97864819D01*
X119976190Y-97864819D02*
X120261904Y-97864819D01*
X120261904Y-97864819D02*
X120357142Y-97817200D01*
X120357142Y-97817200D02*
X120404761Y-97769580D01*
%LPC*%
D12*
X116500000Y-30000000D03*
X126500000Y-152500000D03*
%LPD*%
M02*
