G04 #@! TF.GenerationSoftware,KiCad,Pcbnew,8.0.6-8.0.6-0~ubuntu22.04.1*
G04 #@! TF.CreationDate,2025-04-15T21:33:21+01:00*
G04 #@! TF.ProjectId,RP2040-VCO,52503230-3430-42d5-9643-4f2e6b696361,rev?*
G04 #@! TF.SameCoordinates,Original*
G04 #@! TF.FileFunction,Copper,L2,Bot*
G04 #@! TF.FilePolarity,Positive*
%FSLAX46Y46*%
G04 Gerber Fmt 4.6, Leading zero omitted, Abs format (unit mm)*
G04 Created by KiCad (PCBNEW 8.0.6-8.0.6-0~ubuntu22.04.1) date 2025-04-15 21:33:21*
%MOMM*%
%LPD*%
G01*
G04 APERTURE LIST*
G04 #@! TA.AperFunction,ComponentPad*
%ADD10O,6.700000X4.200000*%
G04 #@! TD*
G04 #@! TA.AperFunction,ViaPad*
%ADD11C,8.000000*%
G04 #@! TD*
G04 #@! TA.AperFunction,ViaPad*
%ADD12C,8.500000*%
G04 #@! TD*
G04 #@! TA.AperFunction,ViaPad*
%ADD13C,7.800000*%
G04 #@! TD*
G04 APERTURE END LIST*
D10*
X116500000Y-30000000D03*
X126500000Y-152500000D03*
D11*
X116500000Y-140000000D03*
X126500000Y-140000000D03*
D12*
X121500000Y-63000000D03*
D13*
X126500000Y-125500000D03*
D12*
X121500000Y-83500000D03*
X121500000Y-42500000D03*
X121600000Y-111600000D03*
D11*
X116500000Y-125500000D03*
G04 #@! TA.AperFunction,Conductor*
G36*
X131417539Y-27045185D02*
G01*
X131463294Y-27097989D01*
X131474500Y-27149500D01*
X131474500Y-155350500D01*
X131454815Y-155417539D01*
X131402011Y-155463294D01*
X131350500Y-155474500D01*
X111649500Y-155474500D01*
X111582461Y-155454815D01*
X111536706Y-155402011D01*
X111525500Y-155350500D01*
X111525499Y-152250000D01*
X122661716Y-152250000D01*
X123770898Y-152250000D01*
X123750000Y-152381947D01*
X123750000Y-152618053D01*
X123770898Y-152750000D01*
X122661716Y-152750000D01*
X122682694Y-152936189D01*
X122682696Y-152936201D01*
X122747678Y-153220910D01*
X122747681Y-153220918D01*
X122844129Y-153496548D01*
X122970831Y-153759648D01*
X123126199Y-154006914D01*
X123308274Y-154235230D01*
X123514769Y-154441725D01*
X123743085Y-154623800D01*
X123990351Y-154779168D01*
X124253451Y-154905870D01*
X124529081Y-155002318D01*
X124529089Y-155002321D01*
X124813798Y-155067303D01*
X124813812Y-155067306D01*
X125103980Y-155099999D01*
X125103984Y-155100000D01*
X126250000Y-155100000D01*
X126250000Y-154000000D01*
X126750000Y-154000000D01*
X126750000Y-155100000D01*
X127896016Y-155100000D01*
X127896019Y-155099999D01*
X128186187Y-155067306D01*
X128186201Y-155067303D01*
X128470910Y-155002321D01*
X128470918Y-155002318D01*
X128746548Y-154905870D01*
X129009648Y-154779168D01*
X129256914Y-154623800D01*
X129485230Y-154441725D01*
X129691725Y-154235230D01*
X129873800Y-154006914D01*
X130029168Y-153759648D01*
X130155870Y-153496548D01*
X130252318Y-153220918D01*
X130252321Y-153220910D01*
X130317303Y-152936201D01*
X130317305Y-152936189D01*
X130338284Y-152750000D01*
X129229102Y-152750000D01*
X129250000Y-152618053D01*
X129250000Y-152381947D01*
X129229102Y-152250000D01*
X130338284Y-152250000D01*
X130317305Y-152063810D01*
X130317303Y-152063798D01*
X130252321Y-151779089D01*
X130252318Y-151779081D01*
X130155870Y-151503451D01*
X130029168Y-151240351D01*
X129873800Y-150993085D01*
X129691725Y-150764769D01*
X129485230Y-150558274D01*
X129256914Y-150376199D01*
X129009648Y-150220831D01*
X128746548Y-150094129D01*
X128470918Y-149997681D01*
X128470910Y-149997678D01*
X128186201Y-149932696D01*
X128186187Y-149932693D01*
X127896019Y-149900000D01*
X126750000Y-149900000D01*
X126750000Y-151000000D01*
X126250000Y-151000000D01*
X126250000Y-149900000D01*
X125103980Y-149900000D01*
X124813812Y-149932693D01*
X124813798Y-149932696D01*
X124529089Y-149997678D01*
X124529081Y-149997681D01*
X124253451Y-150094129D01*
X123990351Y-150220831D01*
X123743085Y-150376199D01*
X123514769Y-150558274D01*
X123308274Y-150764769D01*
X123126199Y-150993085D01*
X122970831Y-151240351D01*
X122844129Y-151503451D01*
X122747681Y-151779081D01*
X122747678Y-151779089D01*
X122682696Y-152063798D01*
X122682694Y-152063810D01*
X122661716Y-152250000D01*
X111525499Y-152250000D01*
X111525499Y-150989439D01*
X111525500Y-29750000D01*
X112661716Y-29750000D01*
X113770898Y-29750000D01*
X113750000Y-29881947D01*
X113750000Y-30118053D01*
X113770898Y-30250000D01*
X112661716Y-30250000D01*
X112682694Y-30436189D01*
X112682696Y-30436201D01*
X112747678Y-30720910D01*
X112747681Y-30720918D01*
X112844129Y-30996548D01*
X112970831Y-31259648D01*
X113126199Y-31506914D01*
X113308274Y-31735230D01*
X113514769Y-31941725D01*
X113743085Y-32123800D01*
X113990351Y-32279168D01*
X114253451Y-32405870D01*
X114529081Y-32502318D01*
X114529089Y-32502321D01*
X114813798Y-32567303D01*
X114813812Y-32567306D01*
X115103980Y-32599999D01*
X115103984Y-32600000D01*
X116250000Y-32600000D01*
X116250000Y-31500000D01*
X116750000Y-31500000D01*
X116750000Y-32600000D01*
X117896016Y-32600000D01*
X117896019Y-32599999D01*
X118186187Y-32567306D01*
X118186201Y-32567303D01*
X118470910Y-32502321D01*
X118470918Y-32502318D01*
X118746548Y-32405870D01*
X119009648Y-32279168D01*
X119256914Y-32123800D01*
X119485230Y-31941725D01*
X119691725Y-31735230D01*
X119873800Y-31506914D01*
X120029168Y-31259648D01*
X120155870Y-30996548D01*
X120252318Y-30720918D01*
X120252321Y-30720910D01*
X120317303Y-30436201D01*
X120317305Y-30436189D01*
X120338284Y-30250000D01*
X119229102Y-30250000D01*
X119250000Y-30118053D01*
X119250000Y-29881947D01*
X119229102Y-29750000D01*
X120338284Y-29750000D01*
X120317305Y-29563810D01*
X120317303Y-29563798D01*
X120252321Y-29279089D01*
X120252318Y-29279081D01*
X120155870Y-29003451D01*
X120029168Y-28740351D01*
X119873800Y-28493085D01*
X119691725Y-28264769D01*
X119485230Y-28058274D01*
X119256914Y-27876199D01*
X119009648Y-27720831D01*
X118746548Y-27594129D01*
X118470918Y-27497681D01*
X118470910Y-27497678D01*
X118186201Y-27432696D01*
X118186187Y-27432693D01*
X117896019Y-27400000D01*
X116750000Y-27400000D01*
X116750000Y-28500000D01*
X116250000Y-28500000D01*
X116250000Y-27400000D01*
X115103980Y-27400000D01*
X114813812Y-27432693D01*
X114813798Y-27432696D01*
X114529089Y-27497678D01*
X114529081Y-27497681D01*
X114253451Y-27594129D01*
X113990351Y-27720831D01*
X113743085Y-27876199D01*
X113514769Y-28058274D01*
X113308274Y-28264769D01*
X113126199Y-28493085D01*
X112970831Y-28740351D01*
X112844129Y-29003451D01*
X112747681Y-29279081D01*
X112747678Y-29279089D01*
X112682696Y-29563798D01*
X112682694Y-29563810D01*
X112661716Y-29750000D01*
X111525500Y-29750000D01*
X111525500Y-27149500D01*
X111545185Y-27082461D01*
X111597989Y-27036706D01*
X111649500Y-27025500D01*
X131350500Y-27025500D01*
X131417539Y-27045185D01*
G37*
G04 #@! TD.AperFunction*
M02*
