G04 #@! TF.GenerationSoftware,KiCad,Pcbnew,7.0.7-7.0.7~ubuntu22.04.1*
G04 #@! TF.CreationDate,2023-10-11T21:50:40+02:00*
G04 #@! TF.ProjectId,RP2040-VCO,52503230-3430-42d5-9643-4f2e6b696361,rev?*
G04 #@! TF.SameCoordinates,Original*
G04 #@! TF.FileFunction,Copper,L2,Bot*
G04 #@! TF.FilePolarity,Positive*
%FSLAX46Y46*%
G04 Gerber Fmt 4.6, Leading zero omitted, Abs format (unit mm)*
G04 Created by KiCad (PCBNEW 7.0.7-7.0.7~ubuntu22.04.1) date 2023-10-11 21:50:40*
%MOMM*%
%LPD*%
G01*
G04 APERTURE LIST*
G04 #@! TA.AperFunction,ComponentPad*
%ADD10O,6.700000X4.200000*%
G04 #@! TD*
G04 #@! TA.AperFunction,ViaPad*
%ADD11C,8.000000*%
G04 #@! TD*
G04 #@! TA.AperFunction,ViaPad*
%ADD12C,8.500000*%
G04 #@! TD*
G04 #@! TA.AperFunction,ViaPad*
%ADD13C,7.800000*%
G04 #@! TD*
G04 APERTURE END LIST*
D10*
X116500000Y-30000000D03*
X126500000Y-152500000D03*
D11*
X116500000Y-140000000D03*
X126500000Y-140000000D03*
D12*
X121500000Y-63000000D03*
D13*
X126500000Y-125500000D03*
D12*
X121500000Y-83500000D03*
X121500000Y-42500000D03*
X121600000Y-111600000D03*
D11*
X116500000Y-125500000D03*
G04 #@! TA.AperFunction,Conductor*
G36*
X131417539Y-27045185D02*
G01*
X131463294Y-27097989D01*
X131474500Y-27149500D01*
X131474500Y-155350500D01*
X131454815Y-155417539D01*
X131402011Y-155463294D01*
X131350500Y-155474500D01*
X111649500Y-155474500D01*
X111582461Y-155454815D01*
X111536706Y-155402011D01*
X111525500Y-155350500D01*
X111525499Y-152249999D01*
X122657668Y-152249999D01*
X122657669Y-152250000D01*
X123626000Y-152250000D01*
X123693039Y-152269685D01*
X123738794Y-152322489D01*
X123750000Y-152374000D01*
X123750000Y-152626000D01*
X123730315Y-152693039D01*
X123677511Y-152738794D01*
X123626000Y-152750000D01*
X122662027Y-152750000D01*
X122675886Y-152899574D01*
X122675887Y-152899580D01*
X122744500Y-153212876D01*
X122851096Y-153515371D01*
X122994054Y-153802469D01*
X122994061Y-153802480D01*
X123171216Y-154069833D01*
X123379879Y-154313385D01*
X123379884Y-154313390D01*
X123616893Y-154529453D01*
X123616903Y-154529461D01*
X123878657Y-154714753D01*
X123878683Y-154714769D01*
X124161232Y-154866495D01*
X124161242Y-154866499D01*
X124460296Y-154982355D01*
X124771342Y-155060586D01*
X124771348Y-155060588D01*
X125089632Y-155100000D01*
X126249999Y-155100000D01*
X126250000Y-154124000D01*
X126269685Y-154056961D01*
X126322489Y-154011206D01*
X126374000Y-154000000D01*
X126626000Y-154000000D01*
X126693039Y-154019685D01*
X126738794Y-154072489D01*
X126750000Y-154124000D01*
X126750000Y-155100000D01*
X127830103Y-155100000D01*
X128070115Y-155085197D01*
X128385378Y-155026264D01*
X128385380Y-155026263D01*
X128691011Y-154929035D01*
X128982381Y-154794984D01*
X129255054Y-154626153D01*
X129255065Y-154626145D01*
X129504937Y-154425074D01*
X129728203Y-154194824D01*
X129921487Y-153938874D01*
X129921489Y-153938871D01*
X130081843Y-153661129D01*
X130081853Y-153661109D01*
X130206859Y-153365771D01*
X130206867Y-153365748D01*
X130294630Y-153057290D01*
X130294631Y-153057285D01*
X130342331Y-152750000D01*
X129374000Y-152750000D01*
X129306961Y-152730315D01*
X129261206Y-152677511D01*
X129250000Y-152626000D01*
X129250000Y-152374000D01*
X129269685Y-152306961D01*
X129322489Y-152261206D01*
X129374000Y-152250000D01*
X130337973Y-152250000D01*
X130337973Y-152249999D01*
X130324113Y-152100425D01*
X130324112Y-152100419D01*
X130255499Y-151787123D01*
X130148903Y-151484628D01*
X130005945Y-151197530D01*
X130005938Y-151197519D01*
X129828783Y-150930166D01*
X129620120Y-150686614D01*
X129620115Y-150686609D01*
X129383106Y-150470546D01*
X129383096Y-150470538D01*
X129121342Y-150285246D01*
X129121316Y-150285230D01*
X128838767Y-150133504D01*
X128838757Y-150133500D01*
X128539703Y-150017644D01*
X128228657Y-149939413D01*
X128228651Y-149939411D01*
X127910368Y-149900000D01*
X126750000Y-149900000D01*
X126750000Y-150876000D01*
X126730315Y-150943039D01*
X126677511Y-150988794D01*
X126626000Y-151000000D01*
X126374000Y-151000000D01*
X126306961Y-150980315D01*
X126261206Y-150927511D01*
X126250000Y-150876000D01*
X126250000Y-149900000D01*
X125169897Y-149900000D01*
X124929884Y-149914802D01*
X124614621Y-149973735D01*
X124614619Y-149973736D01*
X124308988Y-150070964D01*
X124017618Y-150205015D01*
X123744945Y-150373846D01*
X123744934Y-150373854D01*
X123495062Y-150574925D01*
X123271796Y-150805175D01*
X123078512Y-151061125D01*
X123078510Y-151061128D01*
X122918156Y-151338870D01*
X122918146Y-151338890D01*
X122793140Y-151634228D01*
X122793132Y-151634251D01*
X122705369Y-151942709D01*
X122705368Y-151942714D01*
X122657668Y-152249999D01*
X111525499Y-152249999D01*
X111525499Y-150994929D01*
X111525500Y-29749999D01*
X112657668Y-29749999D01*
X112657669Y-29750000D01*
X113626000Y-29750000D01*
X113693039Y-29769685D01*
X113738794Y-29822489D01*
X113750000Y-29874000D01*
X113750000Y-30126000D01*
X113730315Y-30193039D01*
X113677511Y-30238794D01*
X113626000Y-30250000D01*
X112662027Y-30250000D01*
X112675886Y-30399574D01*
X112675887Y-30399580D01*
X112744500Y-30712876D01*
X112851096Y-31015371D01*
X112994054Y-31302469D01*
X112994061Y-31302480D01*
X113171216Y-31569833D01*
X113379879Y-31813385D01*
X113379884Y-31813390D01*
X113616893Y-32029453D01*
X113616903Y-32029461D01*
X113878657Y-32214753D01*
X113878683Y-32214769D01*
X114161232Y-32366495D01*
X114161242Y-32366499D01*
X114460296Y-32482355D01*
X114771342Y-32560586D01*
X114771348Y-32560588D01*
X115089632Y-32600000D01*
X116250000Y-32600000D01*
X116250000Y-31624000D01*
X116269685Y-31556961D01*
X116322489Y-31511206D01*
X116374000Y-31500000D01*
X116626000Y-31500000D01*
X116693039Y-31519685D01*
X116738794Y-31572489D01*
X116750000Y-31624000D01*
X116750000Y-32600000D01*
X117830103Y-32600000D01*
X118070115Y-32585197D01*
X118385378Y-32526264D01*
X118385380Y-32526263D01*
X118691011Y-32429035D01*
X118982381Y-32294984D01*
X119255054Y-32126153D01*
X119255065Y-32126145D01*
X119504937Y-31925074D01*
X119728203Y-31694824D01*
X119921487Y-31438874D01*
X119921489Y-31438871D01*
X120081843Y-31161129D01*
X120081853Y-31161109D01*
X120206859Y-30865771D01*
X120206867Y-30865748D01*
X120294630Y-30557290D01*
X120294631Y-30557285D01*
X120342331Y-30250000D01*
X119374000Y-30250000D01*
X119306961Y-30230315D01*
X119261206Y-30177511D01*
X119250000Y-30126000D01*
X119250000Y-29874000D01*
X119269685Y-29806961D01*
X119322489Y-29761206D01*
X119374000Y-29750000D01*
X120337973Y-29750000D01*
X120337973Y-29749999D01*
X120324113Y-29600425D01*
X120324112Y-29600419D01*
X120255499Y-29287123D01*
X120148903Y-28984628D01*
X120005945Y-28697530D01*
X120005938Y-28697519D01*
X119828783Y-28430166D01*
X119620120Y-28186614D01*
X119620115Y-28186609D01*
X119383106Y-27970546D01*
X119383096Y-27970538D01*
X119121342Y-27785246D01*
X119121316Y-27785230D01*
X118838767Y-27633504D01*
X118838757Y-27633500D01*
X118539703Y-27517644D01*
X118228657Y-27439413D01*
X118228651Y-27439411D01*
X117910368Y-27400000D01*
X116750000Y-27400000D01*
X116750000Y-28376000D01*
X116730315Y-28443039D01*
X116677511Y-28488794D01*
X116626000Y-28500000D01*
X116374000Y-28500000D01*
X116306961Y-28480315D01*
X116261206Y-28427511D01*
X116250000Y-28376000D01*
X116250000Y-27400000D01*
X115169897Y-27400000D01*
X114929884Y-27414802D01*
X114614621Y-27473735D01*
X114614619Y-27473736D01*
X114308988Y-27570964D01*
X114017618Y-27705015D01*
X113744945Y-27873846D01*
X113744934Y-27873854D01*
X113495062Y-28074925D01*
X113271796Y-28305175D01*
X113078512Y-28561125D01*
X113078510Y-28561128D01*
X112918156Y-28838870D01*
X112918146Y-28838890D01*
X112793140Y-29134228D01*
X112793132Y-29134251D01*
X112705369Y-29442709D01*
X112705368Y-29442714D01*
X112657668Y-29749999D01*
X111525500Y-29749999D01*
X111525500Y-27149500D01*
X111545185Y-27082461D01*
X111597989Y-27036706D01*
X111649500Y-27025500D01*
X131350500Y-27025500D01*
X131417539Y-27045185D01*
G37*
G04 #@! TD.AperFunction*
M02*
