%TF.GenerationSoftware,KiCad,Pcbnew,7.0.7-7.0.7~ubuntu22.04.1*%
%TF.CreationDate,2023-10-11T21:50:40+02:00*%
%TF.ProjectId,RP2040-VCO,52503230-3430-42d5-9643-4f2e6b696361,rev?*%
%TF.SameCoordinates,Original*%
%TF.FileFunction,Drillmap*%
%TF.FilePolarity,Positive*%
%FSLAX45Y45*%
G04 Gerber Fmt 4.5, Leading zero omitted, Abs format (unit mm)*
G04 Created by KiCad (PCBNEW 7.0.7-7.0.7~ubuntu22.04.1) date 2023-10-11 21:50:40*
%MOMM*%
%LPD*%
G01*
G04 APERTURE LIST*
%ADD10C,0.050000*%
%ADD11C,0.200000*%
G04 APERTURE END LIST*
D10*
X13150000Y-2700000D02*
X13150000Y-15550000D01*
X11150000Y-15550000D02*
X11150000Y-15100000D01*
X11150000Y-2700000D02*
X11150000Y-15100000D01*
X13150000Y-15550000D02*
X11150000Y-15550000D01*
X11150000Y-2700000D02*
X13150000Y-2700000D01*
D11*
X11408277Y-15863984D02*
X11408277Y-15663984D01*
X11408277Y-15663984D02*
X11455896Y-15663984D01*
X11455896Y-15663984D02*
X11484467Y-15673508D01*
X11484467Y-15673508D02*
X11503515Y-15692555D01*
X11503515Y-15692555D02*
X11513039Y-15711603D01*
X11513039Y-15711603D02*
X11522562Y-15749698D01*
X11522562Y-15749698D02*
X11522562Y-15778269D01*
X11522562Y-15778269D02*
X11513039Y-15816365D01*
X11513039Y-15816365D02*
X11503515Y-15835412D01*
X11503515Y-15835412D02*
X11484467Y-15854460D01*
X11484467Y-15854460D02*
X11455896Y-15863984D01*
X11455896Y-15863984D02*
X11408277Y-15863984D01*
X11608277Y-15863984D02*
X11608277Y-15730650D01*
X11608277Y-15768746D02*
X11617800Y-15749698D01*
X11617800Y-15749698D02*
X11627324Y-15740174D01*
X11627324Y-15740174D02*
X11646372Y-15730650D01*
X11646372Y-15730650D02*
X11665420Y-15730650D01*
X11732086Y-15863984D02*
X11732086Y-15730650D01*
X11732086Y-15663984D02*
X11722562Y-15673508D01*
X11722562Y-15673508D02*
X11732086Y-15683031D01*
X11732086Y-15683031D02*
X11741610Y-15673508D01*
X11741610Y-15673508D02*
X11732086Y-15663984D01*
X11732086Y-15663984D02*
X11732086Y-15683031D01*
X11855896Y-15863984D02*
X11836848Y-15854460D01*
X11836848Y-15854460D02*
X11827324Y-15835412D01*
X11827324Y-15835412D02*
X11827324Y-15663984D01*
X11960658Y-15863984D02*
X11941610Y-15854460D01*
X11941610Y-15854460D02*
X11932086Y-15835412D01*
X11932086Y-15835412D02*
X11932086Y-15663984D01*
X12189229Y-15863984D02*
X12189229Y-15663984D01*
X12189229Y-15663984D02*
X12255896Y-15806841D01*
X12255896Y-15806841D02*
X12322562Y-15663984D01*
X12322562Y-15663984D02*
X12322562Y-15863984D01*
X12503515Y-15863984D02*
X12503515Y-15759222D01*
X12503515Y-15759222D02*
X12493991Y-15740174D01*
X12493991Y-15740174D02*
X12474943Y-15730650D01*
X12474943Y-15730650D02*
X12436848Y-15730650D01*
X12436848Y-15730650D02*
X12417800Y-15740174D01*
X12503515Y-15854460D02*
X12484467Y-15863984D01*
X12484467Y-15863984D02*
X12436848Y-15863984D01*
X12436848Y-15863984D02*
X12417800Y-15854460D01*
X12417800Y-15854460D02*
X12408277Y-15835412D01*
X12408277Y-15835412D02*
X12408277Y-15816365D01*
X12408277Y-15816365D02*
X12417800Y-15797317D01*
X12417800Y-15797317D02*
X12436848Y-15787793D01*
X12436848Y-15787793D02*
X12484467Y-15787793D01*
X12484467Y-15787793D02*
X12503515Y-15778269D01*
X12598753Y-15730650D02*
X12598753Y-15930650D01*
X12598753Y-15740174D02*
X12617800Y-15730650D01*
X12617800Y-15730650D02*
X12655896Y-15730650D01*
X12655896Y-15730650D02*
X12674943Y-15740174D01*
X12674943Y-15740174D02*
X12684467Y-15749698D01*
X12684467Y-15749698D02*
X12693991Y-15768746D01*
X12693991Y-15768746D02*
X12693991Y-15825888D01*
X12693991Y-15825888D02*
X12684467Y-15844936D01*
X12684467Y-15844936D02*
X12674943Y-15854460D01*
X12674943Y-15854460D02*
X12655896Y-15863984D01*
X12655896Y-15863984D02*
X12617800Y-15863984D01*
X12617800Y-15863984D02*
X12598753Y-15854460D01*
X12779705Y-15844936D02*
X12789229Y-15854460D01*
X12789229Y-15854460D02*
X12779705Y-15863984D01*
X12779705Y-15863984D02*
X12770181Y-15854460D01*
X12770181Y-15854460D02*
X12779705Y-15844936D01*
X12779705Y-15844936D02*
X12779705Y-15863984D01*
X12779705Y-15740174D02*
X12789229Y-15749698D01*
X12789229Y-15749698D02*
X12779705Y-15759222D01*
X12779705Y-15759222D02*
X12770181Y-15749698D01*
X12770181Y-15749698D02*
X12779705Y-15740174D01*
X12779705Y-15740174D02*
X12779705Y-15759222D01*
M02*
