%TF.GenerationSoftware,KiCad,Pcbnew,8.0.6-8.0.6-0~ubuntu22.04.1*%
%TF.CreationDate,2025-04-15T21:33:21+01:00*%
%TF.ProjectId,RP2040-VCO,52503230-3430-42d5-9643-4f2e6b696361,rev?*%
%TF.SameCoordinates,Original*%
%TF.FileFunction,Drillmap*%
%TF.FilePolarity,Positive*%
%FSLAX45Y45*%
G04 Gerber Fmt 4.5, Leading zero omitted, Abs format (unit mm)*
G04 Created by KiCad (PCBNEW 8.0.6-8.0.6-0~ubuntu22.04.1) date 2025-04-15 21:33:21*
%MOMM*%
%LPD*%
G01*
G04 APERTURE LIST*
%ADD10C,0.050000*%
%ADD11C,0.200000*%
%ADD12C,0.300000*%
%ADD13C,0.100000*%
%ADD14C,0.570000*%
%ADD15C,0.620000*%
%ADD16C,0.680000*%
%ADD17C,0.700000*%
G04 APERTURE END LIST*
D10*
X13150000Y-2700000D02*
X13150000Y-15550000D01*
X11150000Y-15550000D02*
X11150000Y-15100000D01*
X11150000Y-2700000D02*
X11150000Y-15100000D01*
X13150000Y-15550000D02*
X11150000Y-15550000D01*
X11150000Y-2700000D02*
X13150000Y-2700000D01*
D11*
D12*
X11500000Y-2850000D02*
X11800000Y-3150000D01*
X11800000Y-2850000D02*
X11500000Y-3150000D01*
D13*
X11525000Y-3150000D02*
X11775000Y-3150000D01*
X11775000Y-2850000D02*
G75*
G02*
X11775000Y-3150000I0J-150000D01*
G01*
X11775000Y-2850000D02*
X11525000Y-2850000D01*
X11525000Y-2850000D02*
G75*
G03*
X11525000Y-3150000I0J-150000D01*
G01*
D12*
X12500000Y-15100000D02*
X12800000Y-15400000D01*
X12800000Y-15100000D02*
X12500000Y-15400000D01*
D13*
X12525000Y-15400000D02*
X12775000Y-15400000D01*
X12775000Y-15100000D02*
G75*
G02*
X12775000Y-15400000I0J-150000D01*
G01*
X12775000Y-15100000D02*
X12525000Y-15100000D01*
X12525000Y-15100000D02*
G75*
G03*
X12525000Y-15400000I0J-150000D01*
G01*
D14*
X12935000Y-12550000D02*
G75*
G02*
X12365000Y-12550000I-285000J0D01*
G01*
X12365000Y-12550000D02*
G75*
G02*
X12935000Y-12550000I285000J0D01*
G01*
D15*
X11650000Y-12240000D02*
X11650000Y-12860000D01*
X11340000Y-12550000D02*
X11960000Y-12550000D01*
X11650000Y-13690000D02*
X11650000Y-14310000D01*
X11340000Y-14000000D02*
X11960000Y-14000000D01*
X12650000Y-13690000D02*
X12650000Y-14310000D01*
X12340000Y-14000000D02*
X12960000Y-14000000D01*
D16*
X12400419Y-11400419D02*
X12400419Y-10919581D01*
X11919581Y-10919581D01*
X11919581Y-11400419D01*
X12400419Y-11400419D01*
D17*
X12150000Y-4600000D02*
X12500000Y-4250000D01*
X12150000Y-3900000D01*
X11800000Y-4250000D01*
X12150000Y-4600000D01*
X12150000Y-6650000D02*
X12500000Y-6300000D01*
X12150000Y-5950000D01*
X11800000Y-6300000D01*
X12150000Y-6650000D01*
X12150000Y-8700000D02*
X12500000Y-8350000D01*
X12150000Y-8000000D01*
X11800000Y-8350000D01*
X12150000Y-8700000D01*
D11*
X11408277Y-15863984D02*
X11408277Y-15663984D01*
X11408277Y-15663984D02*
X11455896Y-15663984D01*
X11455896Y-15663984D02*
X11484467Y-15673508D01*
X11484467Y-15673508D02*
X11503515Y-15692555D01*
X11503515Y-15692555D02*
X11513039Y-15711603D01*
X11513039Y-15711603D02*
X11522562Y-15749698D01*
X11522562Y-15749698D02*
X11522562Y-15778269D01*
X11522562Y-15778269D02*
X11513039Y-15816365D01*
X11513039Y-15816365D02*
X11503515Y-15835412D01*
X11503515Y-15835412D02*
X11484467Y-15854460D01*
X11484467Y-15854460D02*
X11455896Y-15863984D01*
X11455896Y-15863984D02*
X11408277Y-15863984D01*
X11608277Y-15863984D02*
X11608277Y-15730650D01*
X11608277Y-15768746D02*
X11617800Y-15749698D01*
X11617800Y-15749698D02*
X11627324Y-15740174D01*
X11627324Y-15740174D02*
X11646372Y-15730650D01*
X11646372Y-15730650D02*
X11665420Y-15730650D01*
X11732086Y-15863984D02*
X11732086Y-15730650D01*
X11732086Y-15663984D02*
X11722562Y-15673508D01*
X11722562Y-15673508D02*
X11732086Y-15683031D01*
X11732086Y-15683031D02*
X11741610Y-15673508D01*
X11741610Y-15673508D02*
X11732086Y-15663984D01*
X11732086Y-15663984D02*
X11732086Y-15683031D01*
X11855896Y-15863984D02*
X11836848Y-15854460D01*
X11836848Y-15854460D02*
X11827324Y-15835412D01*
X11827324Y-15835412D02*
X11827324Y-15663984D01*
X11960658Y-15863984D02*
X11941610Y-15854460D01*
X11941610Y-15854460D02*
X11932086Y-15835412D01*
X11932086Y-15835412D02*
X11932086Y-15663984D01*
X12189229Y-15863984D02*
X12189229Y-15663984D01*
X12189229Y-15663984D02*
X12255896Y-15806841D01*
X12255896Y-15806841D02*
X12322562Y-15663984D01*
X12322562Y-15663984D02*
X12322562Y-15863984D01*
X12503515Y-15863984D02*
X12503515Y-15759222D01*
X12503515Y-15759222D02*
X12493991Y-15740174D01*
X12493991Y-15740174D02*
X12474943Y-15730650D01*
X12474943Y-15730650D02*
X12436848Y-15730650D01*
X12436848Y-15730650D02*
X12417800Y-15740174D01*
X12503515Y-15854460D02*
X12484467Y-15863984D01*
X12484467Y-15863984D02*
X12436848Y-15863984D01*
X12436848Y-15863984D02*
X12417800Y-15854460D01*
X12417800Y-15854460D02*
X12408277Y-15835412D01*
X12408277Y-15835412D02*
X12408277Y-15816365D01*
X12408277Y-15816365D02*
X12417800Y-15797317D01*
X12417800Y-15797317D02*
X12436848Y-15787793D01*
X12436848Y-15787793D02*
X12484467Y-15787793D01*
X12484467Y-15787793D02*
X12503515Y-15778269D01*
X12598753Y-15730650D02*
X12598753Y-15930650D01*
X12598753Y-15740174D02*
X12617800Y-15730650D01*
X12617800Y-15730650D02*
X12655896Y-15730650D01*
X12655896Y-15730650D02*
X12674943Y-15740174D01*
X12674943Y-15740174D02*
X12684467Y-15749698D01*
X12684467Y-15749698D02*
X12693991Y-15768746D01*
X12693991Y-15768746D02*
X12693991Y-15825888D01*
X12693991Y-15825888D02*
X12684467Y-15844936D01*
X12684467Y-15844936D02*
X12674943Y-15854460D01*
X12674943Y-15854460D02*
X12655896Y-15863984D01*
X12655896Y-15863984D02*
X12617800Y-15863984D01*
X12617800Y-15863984D02*
X12598753Y-15854460D01*
X12779705Y-15844936D02*
X12789229Y-15854460D01*
X12789229Y-15854460D02*
X12779705Y-15863984D01*
X12779705Y-15863984D02*
X12770181Y-15854460D01*
X12770181Y-15854460D02*
X12779705Y-15844936D01*
X12779705Y-15844936D02*
X12779705Y-15863984D01*
X12779705Y-15740174D02*
X12789229Y-15749698D01*
X12789229Y-15749698D02*
X12779705Y-15759222D01*
X12779705Y-15759222D02*
X12770181Y-15749698D01*
X12770181Y-15749698D02*
X12779705Y-15740174D01*
X12779705Y-15740174D02*
X12779705Y-15759222D01*
X10947500Y-16092500D02*
X11147500Y-16292500D01*
X11147500Y-16092500D02*
X10947500Y-16292500D01*
X11389229Y-16083984D02*
X11513039Y-16083984D01*
X11513039Y-16083984D02*
X11446372Y-16160174D01*
X11446372Y-16160174D02*
X11474943Y-16160174D01*
X11474943Y-16160174D02*
X11493991Y-16169698D01*
X11493991Y-16169698D02*
X11503515Y-16179222D01*
X11503515Y-16179222D02*
X11513039Y-16198269D01*
X11513039Y-16198269D02*
X11513039Y-16245888D01*
X11513039Y-16245888D02*
X11503515Y-16264936D01*
X11503515Y-16264936D02*
X11493991Y-16274460D01*
X11493991Y-16274460D02*
X11474943Y-16283984D01*
X11474943Y-16283984D02*
X11417800Y-16283984D01*
X11417800Y-16283984D02*
X11398753Y-16274460D01*
X11398753Y-16274460D02*
X11389229Y-16264936D01*
X11598753Y-16264936D02*
X11608277Y-16274460D01*
X11608277Y-16274460D02*
X11598753Y-16283984D01*
X11598753Y-16283984D02*
X11589229Y-16274460D01*
X11589229Y-16274460D02*
X11598753Y-16264936D01*
X11598753Y-16264936D02*
X11598753Y-16283984D01*
X11732086Y-16083984D02*
X11751134Y-16083984D01*
X11751134Y-16083984D02*
X11770181Y-16093508D01*
X11770181Y-16093508D02*
X11779705Y-16103031D01*
X11779705Y-16103031D02*
X11789229Y-16122079D01*
X11789229Y-16122079D02*
X11798753Y-16160174D01*
X11798753Y-16160174D02*
X11798753Y-16207793D01*
X11798753Y-16207793D02*
X11789229Y-16245888D01*
X11789229Y-16245888D02*
X11779705Y-16264936D01*
X11779705Y-16264936D02*
X11770181Y-16274460D01*
X11770181Y-16274460D02*
X11751134Y-16283984D01*
X11751134Y-16283984D02*
X11732086Y-16283984D01*
X11732086Y-16283984D02*
X11713039Y-16274460D01*
X11713039Y-16274460D02*
X11703515Y-16264936D01*
X11703515Y-16264936D02*
X11693991Y-16245888D01*
X11693991Y-16245888D02*
X11684467Y-16207793D01*
X11684467Y-16207793D02*
X11684467Y-16160174D01*
X11684467Y-16160174D02*
X11693991Y-16122079D01*
X11693991Y-16122079D02*
X11703515Y-16103031D01*
X11703515Y-16103031D02*
X11713039Y-16093508D01*
X11713039Y-16093508D02*
X11732086Y-16083984D01*
X11922562Y-16083984D02*
X11941610Y-16083984D01*
X11941610Y-16083984D02*
X11960658Y-16093508D01*
X11960658Y-16093508D02*
X11970181Y-16103031D01*
X11970181Y-16103031D02*
X11979705Y-16122079D01*
X11979705Y-16122079D02*
X11989229Y-16160174D01*
X11989229Y-16160174D02*
X11989229Y-16207793D01*
X11989229Y-16207793D02*
X11979705Y-16245888D01*
X11979705Y-16245888D02*
X11970181Y-16264936D01*
X11970181Y-16264936D02*
X11960658Y-16274460D01*
X11960658Y-16274460D02*
X11941610Y-16283984D01*
X11941610Y-16283984D02*
X11922562Y-16283984D01*
X11922562Y-16283984D02*
X11903515Y-16274460D01*
X11903515Y-16274460D02*
X11893991Y-16264936D01*
X11893991Y-16264936D02*
X11884467Y-16245888D01*
X11884467Y-16245888D02*
X11874943Y-16207793D01*
X11874943Y-16207793D02*
X11874943Y-16160174D01*
X11874943Y-16160174D02*
X11884467Y-16122079D01*
X11884467Y-16122079D02*
X11893991Y-16103031D01*
X11893991Y-16103031D02*
X11903515Y-16093508D01*
X11903515Y-16093508D02*
X11922562Y-16083984D01*
X12113039Y-16083984D02*
X12132086Y-16083984D01*
X12132086Y-16083984D02*
X12151134Y-16093508D01*
X12151134Y-16093508D02*
X12160658Y-16103031D01*
X12160658Y-16103031D02*
X12170181Y-16122079D01*
X12170181Y-16122079D02*
X12179705Y-16160174D01*
X12179705Y-16160174D02*
X12179705Y-16207793D01*
X12179705Y-16207793D02*
X12170181Y-16245888D01*
X12170181Y-16245888D02*
X12160658Y-16264936D01*
X12160658Y-16264936D02*
X12151134Y-16274460D01*
X12151134Y-16274460D02*
X12132086Y-16283984D01*
X12132086Y-16283984D02*
X12113039Y-16283984D01*
X12113039Y-16283984D02*
X12093991Y-16274460D01*
X12093991Y-16274460D02*
X12084467Y-16264936D01*
X12084467Y-16264936D02*
X12074943Y-16245888D01*
X12074943Y-16245888D02*
X12065420Y-16207793D01*
X12065420Y-16207793D02*
X12065420Y-16160174D01*
X12065420Y-16160174D02*
X12074943Y-16122079D01*
X12074943Y-16122079D02*
X12084467Y-16103031D01*
X12084467Y-16103031D02*
X12093991Y-16093508D01*
X12093991Y-16093508D02*
X12113039Y-16083984D01*
X12265420Y-16283984D02*
X12265420Y-16150650D01*
X12265420Y-16169698D02*
X12274943Y-16160174D01*
X12274943Y-16160174D02*
X12293991Y-16150650D01*
X12293991Y-16150650D02*
X12322562Y-16150650D01*
X12322562Y-16150650D02*
X12341610Y-16160174D01*
X12341610Y-16160174D02*
X12351134Y-16179222D01*
X12351134Y-16179222D02*
X12351134Y-16283984D01*
X12351134Y-16179222D02*
X12360658Y-16160174D01*
X12360658Y-16160174D02*
X12379705Y-16150650D01*
X12379705Y-16150650D02*
X12408277Y-16150650D01*
X12408277Y-16150650D02*
X12427324Y-16160174D01*
X12427324Y-16160174D02*
X12436848Y-16179222D01*
X12436848Y-16179222D02*
X12436848Y-16283984D01*
X12532086Y-16283984D02*
X12532086Y-16150650D01*
X12532086Y-16169698D02*
X12541610Y-16160174D01*
X12541610Y-16160174D02*
X12560658Y-16150650D01*
X12560658Y-16150650D02*
X12589229Y-16150650D01*
X12589229Y-16150650D02*
X12608277Y-16160174D01*
X12608277Y-16160174D02*
X12617801Y-16179222D01*
X12617801Y-16179222D02*
X12617801Y-16283984D01*
X12617801Y-16179222D02*
X12627324Y-16160174D01*
X12627324Y-16160174D02*
X12646372Y-16150650D01*
X12646372Y-16150650D02*
X12674943Y-16150650D01*
X12674943Y-16150650D02*
X12693991Y-16160174D01*
X12693991Y-16160174D02*
X12703515Y-16179222D01*
X12703515Y-16179222D02*
X12703515Y-16283984D01*
X13093991Y-16074460D02*
X12922563Y-16331603D01*
X13351134Y-16083984D02*
X13370182Y-16083984D01*
X13370182Y-16083984D02*
X13389229Y-16093508D01*
X13389229Y-16093508D02*
X13398753Y-16103031D01*
X13398753Y-16103031D02*
X13408277Y-16122079D01*
X13408277Y-16122079D02*
X13417801Y-16160174D01*
X13417801Y-16160174D02*
X13417801Y-16207793D01*
X13417801Y-16207793D02*
X13408277Y-16245888D01*
X13408277Y-16245888D02*
X13398753Y-16264936D01*
X13398753Y-16264936D02*
X13389229Y-16274460D01*
X13389229Y-16274460D02*
X13370182Y-16283984D01*
X13370182Y-16283984D02*
X13351134Y-16283984D01*
X13351134Y-16283984D02*
X13332086Y-16274460D01*
X13332086Y-16274460D02*
X13322563Y-16264936D01*
X13322563Y-16264936D02*
X13313039Y-16245888D01*
X13313039Y-16245888D02*
X13303515Y-16207793D01*
X13303515Y-16207793D02*
X13303515Y-16160174D01*
X13303515Y-16160174D02*
X13313039Y-16122079D01*
X13313039Y-16122079D02*
X13322563Y-16103031D01*
X13322563Y-16103031D02*
X13332086Y-16093508D01*
X13332086Y-16093508D02*
X13351134Y-16083984D01*
X13503515Y-16264936D02*
X13513039Y-16274460D01*
X13513039Y-16274460D02*
X13503515Y-16283984D01*
X13503515Y-16283984D02*
X13493991Y-16274460D01*
X13493991Y-16274460D02*
X13503515Y-16264936D01*
X13503515Y-16264936D02*
X13503515Y-16283984D01*
X13703515Y-16283984D02*
X13589229Y-16283984D01*
X13646372Y-16283984D02*
X13646372Y-16083984D01*
X13646372Y-16083984D02*
X13627324Y-16112555D01*
X13627324Y-16112555D02*
X13608277Y-16131603D01*
X13608277Y-16131603D02*
X13589229Y-16141127D01*
X13893991Y-16283984D02*
X13779705Y-16283984D01*
X13836848Y-16283984D02*
X13836848Y-16083984D01*
X13836848Y-16083984D02*
X13817801Y-16112555D01*
X13817801Y-16112555D02*
X13798753Y-16131603D01*
X13798753Y-16131603D02*
X13779705Y-16141127D01*
X14008277Y-16169698D02*
X13989229Y-16160174D01*
X13989229Y-16160174D02*
X13979705Y-16150650D01*
X13979705Y-16150650D02*
X13970182Y-16131603D01*
X13970182Y-16131603D02*
X13970182Y-16122079D01*
X13970182Y-16122079D02*
X13979705Y-16103031D01*
X13979705Y-16103031D02*
X13989229Y-16093508D01*
X13989229Y-16093508D02*
X14008277Y-16083984D01*
X14008277Y-16083984D02*
X14046372Y-16083984D01*
X14046372Y-16083984D02*
X14065420Y-16093508D01*
X14065420Y-16093508D02*
X14074944Y-16103031D01*
X14074944Y-16103031D02*
X14084467Y-16122079D01*
X14084467Y-16122079D02*
X14084467Y-16131603D01*
X14084467Y-16131603D02*
X14074944Y-16150650D01*
X14074944Y-16150650D02*
X14065420Y-16160174D01*
X14065420Y-16160174D02*
X14046372Y-16169698D01*
X14046372Y-16169698D02*
X14008277Y-16169698D01*
X14008277Y-16169698D02*
X13989229Y-16179222D01*
X13989229Y-16179222D02*
X13979705Y-16188746D01*
X13979705Y-16188746D02*
X13970182Y-16207793D01*
X13970182Y-16207793D02*
X13970182Y-16245888D01*
X13970182Y-16245888D02*
X13979705Y-16264936D01*
X13979705Y-16264936D02*
X13989229Y-16274460D01*
X13989229Y-16274460D02*
X14008277Y-16283984D01*
X14008277Y-16283984D02*
X14046372Y-16283984D01*
X14046372Y-16283984D02*
X14065420Y-16274460D01*
X14065420Y-16274460D02*
X14074944Y-16264936D01*
X14074944Y-16264936D02*
X14084467Y-16245888D01*
X14084467Y-16245888D02*
X14084467Y-16207793D01*
X14084467Y-16207793D02*
X14074944Y-16188746D01*
X14074944Y-16188746D02*
X14065420Y-16179222D01*
X14065420Y-16179222D02*
X14046372Y-16169698D01*
X14274944Y-16283984D02*
X14160658Y-16283984D01*
X14217801Y-16283984D02*
X14217801Y-16083984D01*
X14217801Y-16083984D02*
X14198753Y-16112555D01*
X14198753Y-16112555D02*
X14179705Y-16131603D01*
X14179705Y-16131603D02*
X14160658Y-16141127D01*
X14351134Y-16083984D02*
X14351134Y-16122079D01*
X14427325Y-16083984D02*
X14427325Y-16122079D01*
X14722563Y-16360174D02*
X14713039Y-16350650D01*
X14713039Y-16350650D02*
X14693991Y-16322079D01*
X14693991Y-16322079D02*
X14684467Y-16303031D01*
X14684467Y-16303031D02*
X14674944Y-16274460D01*
X14674944Y-16274460D02*
X14665420Y-16226841D01*
X14665420Y-16226841D02*
X14665420Y-16188746D01*
X14665420Y-16188746D02*
X14674944Y-16141127D01*
X14674944Y-16141127D02*
X14684467Y-16112555D01*
X14684467Y-16112555D02*
X14693991Y-16093508D01*
X14693991Y-16093508D02*
X14713039Y-16064936D01*
X14713039Y-16064936D02*
X14722563Y-16055412D01*
X14836848Y-16083984D02*
X14855896Y-16083984D01*
X14855896Y-16083984D02*
X14874944Y-16093508D01*
X14874944Y-16093508D02*
X14884467Y-16103031D01*
X14884467Y-16103031D02*
X14893991Y-16122079D01*
X14893991Y-16122079D02*
X14903515Y-16160174D01*
X14903515Y-16160174D02*
X14903515Y-16207793D01*
X14903515Y-16207793D02*
X14893991Y-16245888D01*
X14893991Y-16245888D02*
X14884467Y-16264936D01*
X14884467Y-16264936D02*
X14874944Y-16274460D01*
X14874944Y-16274460D02*
X14855896Y-16283984D01*
X14855896Y-16283984D02*
X14836848Y-16283984D01*
X14836848Y-16283984D02*
X14817801Y-16274460D01*
X14817801Y-16274460D02*
X14808277Y-16264936D01*
X14808277Y-16264936D02*
X14798753Y-16245888D01*
X14798753Y-16245888D02*
X14789229Y-16207793D01*
X14789229Y-16207793D02*
X14789229Y-16160174D01*
X14789229Y-16160174D02*
X14798753Y-16122079D01*
X14798753Y-16122079D02*
X14808277Y-16103031D01*
X14808277Y-16103031D02*
X14817801Y-16093508D01*
X14817801Y-16093508D02*
X14836848Y-16083984D01*
X15141610Y-16283984D02*
X15141610Y-16083984D01*
X15227325Y-16283984D02*
X15227325Y-16179222D01*
X15227325Y-16179222D02*
X15217801Y-16160174D01*
X15217801Y-16160174D02*
X15198753Y-16150650D01*
X15198753Y-16150650D02*
X15170182Y-16150650D01*
X15170182Y-16150650D02*
X15151134Y-16160174D01*
X15151134Y-16160174D02*
X15141610Y-16169698D01*
X15351134Y-16283984D02*
X15332087Y-16274460D01*
X15332087Y-16274460D02*
X15322563Y-16264936D01*
X15322563Y-16264936D02*
X15313039Y-16245888D01*
X15313039Y-16245888D02*
X15313039Y-16188746D01*
X15313039Y-16188746D02*
X15322563Y-16169698D01*
X15322563Y-16169698D02*
X15332087Y-16160174D01*
X15332087Y-16160174D02*
X15351134Y-16150650D01*
X15351134Y-16150650D02*
X15379706Y-16150650D01*
X15379706Y-16150650D02*
X15398753Y-16160174D01*
X15398753Y-16160174D02*
X15408277Y-16169698D01*
X15408277Y-16169698D02*
X15417801Y-16188746D01*
X15417801Y-16188746D02*
X15417801Y-16245888D01*
X15417801Y-16245888D02*
X15408277Y-16264936D01*
X15408277Y-16264936D02*
X15398753Y-16274460D01*
X15398753Y-16274460D02*
X15379706Y-16283984D01*
X15379706Y-16283984D02*
X15351134Y-16283984D01*
X15532087Y-16283984D02*
X15513039Y-16274460D01*
X15513039Y-16274460D02*
X15503515Y-16255412D01*
X15503515Y-16255412D02*
X15503515Y-16083984D01*
X15684468Y-16274460D02*
X15665420Y-16283984D01*
X15665420Y-16283984D02*
X15627325Y-16283984D01*
X15627325Y-16283984D02*
X15608277Y-16274460D01*
X15608277Y-16274460D02*
X15598753Y-16255412D01*
X15598753Y-16255412D02*
X15598753Y-16179222D01*
X15598753Y-16179222D02*
X15608277Y-16160174D01*
X15608277Y-16160174D02*
X15627325Y-16150650D01*
X15627325Y-16150650D02*
X15665420Y-16150650D01*
X15665420Y-16150650D02*
X15684468Y-16160174D01*
X15684468Y-16160174D02*
X15693991Y-16179222D01*
X15693991Y-16179222D02*
X15693991Y-16198269D01*
X15693991Y-16198269D02*
X15598753Y-16217317D01*
X15770182Y-16274460D02*
X15789229Y-16283984D01*
X15789229Y-16283984D02*
X15827325Y-16283984D01*
X15827325Y-16283984D02*
X15846372Y-16274460D01*
X15846372Y-16274460D02*
X15855896Y-16255412D01*
X15855896Y-16255412D02*
X15855896Y-16245888D01*
X15855896Y-16245888D02*
X15846372Y-16226841D01*
X15846372Y-16226841D02*
X15827325Y-16217317D01*
X15827325Y-16217317D02*
X15798753Y-16217317D01*
X15798753Y-16217317D02*
X15779706Y-16207793D01*
X15779706Y-16207793D02*
X15770182Y-16188746D01*
X15770182Y-16188746D02*
X15770182Y-16179222D01*
X15770182Y-16179222D02*
X15779706Y-16160174D01*
X15779706Y-16160174D02*
X15798753Y-16150650D01*
X15798753Y-16150650D02*
X15827325Y-16150650D01*
X15827325Y-16150650D02*
X15846372Y-16160174D01*
X16093991Y-16207793D02*
X16246372Y-16207793D01*
X16170182Y-16283984D02*
X16170182Y-16131603D01*
X16484468Y-16103031D02*
X16493991Y-16093508D01*
X16493991Y-16093508D02*
X16513039Y-16083984D01*
X16513039Y-16083984D02*
X16560658Y-16083984D01*
X16560658Y-16083984D02*
X16579706Y-16093508D01*
X16579706Y-16093508D02*
X16589230Y-16103031D01*
X16589230Y-16103031D02*
X16598753Y-16122079D01*
X16598753Y-16122079D02*
X16598753Y-16141127D01*
X16598753Y-16141127D02*
X16589230Y-16169698D01*
X16589230Y-16169698D02*
X16474944Y-16283984D01*
X16474944Y-16283984D02*
X16598753Y-16283984D01*
X16827325Y-16274460D02*
X16846373Y-16283984D01*
X16846373Y-16283984D02*
X16884468Y-16283984D01*
X16884468Y-16283984D02*
X16903515Y-16274460D01*
X16903515Y-16274460D02*
X16913039Y-16255412D01*
X16913039Y-16255412D02*
X16913039Y-16245888D01*
X16913039Y-16245888D02*
X16903515Y-16226841D01*
X16903515Y-16226841D02*
X16884468Y-16217317D01*
X16884468Y-16217317D02*
X16855896Y-16217317D01*
X16855896Y-16217317D02*
X16836849Y-16207793D01*
X16836849Y-16207793D02*
X16827325Y-16188746D01*
X16827325Y-16188746D02*
X16827325Y-16179222D01*
X16827325Y-16179222D02*
X16836849Y-16160174D01*
X16836849Y-16160174D02*
X16855896Y-16150650D01*
X16855896Y-16150650D02*
X16884468Y-16150650D01*
X16884468Y-16150650D02*
X16903515Y-16160174D01*
X17027325Y-16283984D02*
X17008277Y-16274460D01*
X17008277Y-16274460D02*
X16998754Y-16255412D01*
X16998754Y-16255412D02*
X16998754Y-16083984D01*
X17132087Y-16283984D02*
X17113039Y-16274460D01*
X17113039Y-16274460D02*
X17103515Y-16264936D01*
X17103515Y-16264936D02*
X17093992Y-16245888D01*
X17093992Y-16245888D02*
X17093992Y-16188746D01*
X17093992Y-16188746D02*
X17103515Y-16169698D01*
X17103515Y-16169698D02*
X17113039Y-16160174D01*
X17113039Y-16160174D02*
X17132087Y-16150650D01*
X17132087Y-16150650D02*
X17160658Y-16150650D01*
X17160658Y-16150650D02*
X17179706Y-16160174D01*
X17179706Y-16160174D02*
X17189230Y-16169698D01*
X17189230Y-16169698D02*
X17198754Y-16188746D01*
X17198754Y-16188746D02*
X17198754Y-16245888D01*
X17198754Y-16245888D02*
X17189230Y-16264936D01*
X17189230Y-16264936D02*
X17179706Y-16274460D01*
X17179706Y-16274460D02*
X17160658Y-16283984D01*
X17160658Y-16283984D02*
X17132087Y-16283984D01*
X17255896Y-16150650D02*
X17332087Y-16150650D01*
X17284468Y-16083984D02*
X17284468Y-16255412D01*
X17284468Y-16255412D02*
X17293992Y-16274460D01*
X17293992Y-16274460D02*
X17313039Y-16283984D01*
X17313039Y-16283984D02*
X17332087Y-16283984D01*
X17389230Y-16274460D02*
X17408277Y-16283984D01*
X17408277Y-16283984D02*
X17446373Y-16283984D01*
X17446373Y-16283984D02*
X17465420Y-16274460D01*
X17465420Y-16274460D02*
X17474944Y-16255412D01*
X17474944Y-16255412D02*
X17474944Y-16245888D01*
X17474944Y-16245888D02*
X17465420Y-16226841D01*
X17465420Y-16226841D02*
X17446373Y-16217317D01*
X17446373Y-16217317D02*
X17417801Y-16217317D01*
X17417801Y-16217317D02*
X17398754Y-16207793D01*
X17398754Y-16207793D02*
X17389230Y-16188746D01*
X17389230Y-16188746D02*
X17389230Y-16179222D01*
X17389230Y-16179222D02*
X17398754Y-16160174D01*
X17398754Y-16160174D02*
X17417801Y-16150650D01*
X17417801Y-16150650D02*
X17446373Y-16150650D01*
X17446373Y-16150650D02*
X17465420Y-16160174D01*
X17541611Y-16360174D02*
X17551135Y-16350650D01*
X17551135Y-16350650D02*
X17570182Y-16322079D01*
X17570182Y-16322079D02*
X17579706Y-16303031D01*
X17579706Y-16303031D02*
X17589230Y-16274460D01*
X17589230Y-16274460D02*
X17598754Y-16226841D01*
X17598754Y-16226841D02*
X17598754Y-16188746D01*
X17598754Y-16188746D02*
X17589230Y-16141127D01*
X17589230Y-16141127D02*
X17579706Y-16112555D01*
X17579706Y-16112555D02*
X17570182Y-16093508D01*
X17570182Y-16093508D02*
X17551135Y-16064936D01*
X17551135Y-16064936D02*
X17541611Y-16055412D01*
X11147500Y-16512500D02*
G75*
G02*
X10947500Y-16512500I-100000J0D01*
G01*
X10947500Y-16512500D02*
G75*
G02*
X11147500Y-16512500I100000J0D01*
G01*
X11503515Y-16403984D02*
X11408277Y-16403984D01*
X11408277Y-16403984D02*
X11398753Y-16499222D01*
X11398753Y-16499222D02*
X11408277Y-16489698D01*
X11408277Y-16489698D02*
X11427324Y-16480174D01*
X11427324Y-16480174D02*
X11474943Y-16480174D01*
X11474943Y-16480174D02*
X11493991Y-16489698D01*
X11493991Y-16489698D02*
X11503515Y-16499222D01*
X11503515Y-16499222D02*
X11513039Y-16518269D01*
X11513039Y-16518269D02*
X11513039Y-16565888D01*
X11513039Y-16565888D02*
X11503515Y-16584936D01*
X11503515Y-16584936D02*
X11493991Y-16594460D01*
X11493991Y-16594460D02*
X11474943Y-16603984D01*
X11474943Y-16603984D02*
X11427324Y-16603984D01*
X11427324Y-16603984D02*
X11408277Y-16594460D01*
X11408277Y-16594460D02*
X11398753Y-16584936D01*
X11598753Y-16584936D02*
X11608277Y-16594460D01*
X11608277Y-16594460D02*
X11598753Y-16603984D01*
X11598753Y-16603984D02*
X11589229Y-16594460D01*
X11589229Y-16594460D02*
X11598753Y-16584936D01*
X11598753Y-16584936D02*
X11598753Y-16603984D01*
X11674943Y-16403984D02*
X11808277Y-16403984D01*
X11808277Y-16403984D02*
X11722562Y-16603984D01*
X11922562Y-16403984D02*
X11941610Y-16403984D01*
X11941610Y-16403984D02*
X11960658Y-16413508D01*
X11960658Y-16413508D02*
X11970181Y-16423031D01*
X11970181Y-16423031D02*
X11979705Y-16442079D01*
X11979705Y-16442079D02*
X11989229Y-16480174D01*
X11989229Y-16480174D02*
X11989229Y-16527793D01*
X11989229Y-16527793D02*
X11979705Y-16565888D01*
X11979705Y-16565888D02*
X11970181Y-16584936D01*
X11970181Y-16584936D02*
X11960658Y-16594460D01*
X11960658Y-16594460D02*
X11941610Y-16603984D01*
X11941610Y-16603984D02*
X11922562Y-16603984D01*
X11922562Y-16603984D02*
X11903515Y-16594460D01*
X11903515Y-16594460D02*
X11893991Y-16584936D01*
X11893991Y-16584936D02*
X11884467Y-16565888D01*
X11884467Y-16565888D02*
X11874943Y-16527793D01*
X11874943Y-16527793D02*
X11874943Y-16480174D01*
X11874943Y-16480174D02*
X11884467Y-16442079D01*
X11884467Y-16442079D02*
X11893991Y-16423031D01*
X11893991Y-16423031D02*
X11903515Y-16413508D01*
X11903515Y-16413508D02*
X11922562Y-16403984D01*
X12113039Y-16403984D02*
X12132086Y-16403984D01*
X12132086Y-16403984D02*
X12151134Y-16413508D01*
X12151134Y-16413508D02*
X12160658Y-16423031D01*
X12160658Y-16423031D02*
X12170181Y-16442079D01*
X12170181Y-16442079D02*
X12179705Y-16480174D01*
X12179705Y-16480174D02*
X12179705Y-16527793D01*
X12179705Y-16527793D02*
X12170181Y-16565888D01*
X12170181Y-16565888D02*
X12160658Y-16584936D01*
X12160658Y-16584936D02*
X12151134Y-16594460D01*
X12151134Y-16594460D02*
X12132086Y-16603984D01*
X12132086Y-16603984D02*
X12113039Y-16603984D01*
X12113039Y-16603984D02*
X12093991Y-16594460D01*
X12093991Y-16594460D02*
X12084467Y-16584936D01*
X12084467Y-16584936D02*
X12074943Y-16565888D01*
X12074943Y-16565888D02*
X12065420Y-16527793D01*
X12065420Y-16527793D02*
X12065420Y-16480174D01*
X12065420Y-16480174D02*
X12074943Y-16442079D01*
X12074943Y-16442079D02*
X12084467Y-16423031D01*
X12084467Y-16423031D02*
X12093991Y-16413508D01*
X12093991Y-16413508D02*
X12113039Y-16403984D01*
X12265420Y-16603984D02*
X12265420Y-16470650D01*
X12265420Y-16489698D02*
X12274943Y-16480174D01*
X12274943Y-16480174D02*
X12293991Y-16470650D01*
X12293991Y-16470650D02*
X12322562Y-16470650D01*
X12322562Y-16470650D02*
X12341610Y-16480174D01*
X12341610Y-16480174D02*
X12351134Y-16499222D01*
X12351134Y-16499222D02*
X12351134Y-16603984D01*
X12351134Y-16499222D02*
X12360658Y-16480174D01*
X12360658Y-16480174D02*
X12379705Y-16470650D01*
X12379705Y-16470650D02*
X12408277Y-16470650D01*
X12408277Y-16470650D02*
X12427324Y-16480174D01*
X12427324Y-16480174D02*
X12436848Y-16499222D01*
X12436848Y-16499222D02*
X12436848Y-16603984D01*
X12532086Y-16603984D02*
X12532086Y-16470650D01*
X12532086Y-16489698D02*
X12541610Y-16480174D01*
X12541610Y-16480174D02*
X12560658Y-16470650D01*
X12560658Y-16470650D02*
X12589229Y-16470650D01*
X12589229Y-16470650D02*
X12608277Y-16480174D01*
X12608277Y-16480174D02*
X12617801Y-16499222D01*
X12617801Y-16499222D02*
X12617801Y-16603984D01*
X12617801Y-16499222D02*
X12627324Y-16480174D01*
X12627324Y-16480174D02*
X12646372Y-16470650D01*
X12646372Y-16470650D02*
X12674943Y-16470650D01*
X12674943Y-16470650D02*
X12693991Y-16480174D01*
X12693991Y-16480174D02*
X12703515Y-16499222D01*
X12703515Y-16499222D02*
X12703515Y-16603984D01*
X13093991Y-16394460D02*
X12922563Y-16651603D01*
X13351134Y-16403984D02*
X13370182Y-16403984D01*
X13370182Y-16403984D02*
X13389229Y-16413508D01*
X13389229Y-16413508D02*
X13398753Y-16423031D01*
X13398753Y-16423031D02*
X13408277Y-16442079D01*
X13408277Y-16442079D02*
X13417801Y-16480174D01*
X13417801Y-16480174D02*
X13417801Y-16527793D01*
X13417801Y-16527793D02*
X13408277Y-16565888D01*
X13408277Y-16565888D02*
X13398753Y-16584936D01*
X13398753Y-16584936D02*
X13389229Y-16594460D01*
X13389229Y-16594460D02*
X13370182Y-16603984D01*
X13370182Y-16603984D02*
X13351134Y-16603984D01*
X13351134Y-16603984D02*
X13332086Y-16594460D01*
X13332086Y-16594460D02*
X13322563Y-16584936D01*
X13322563Y-16584936D02*
X13313039Y-16565888D01*
X13313039Y-16565888D02*
X13303515Y-16527793D01*
X13303515Y-16527793D02*
X13303515Y-16480174D01*
X13303515Y-16480174D02*
X13313039Y-16442079D01*
X13313039Y-16442079D02*
X13322563Y-16423031D01*
X13322563Y-16423031D02*
X13332086Y-16413508D01*
X13332086Y-16413508D02*
X13351134Y-16403984D01*
X13503515Y-16584936D02*
X13513039Y-16594460D01*
X13513039Y-16594460D02*
X13503515Y-16603984D01*
X13503515Y-16603984D02*
X13493991Y-16594460D01*
X13493991Y-16594460D02*
X13503515Y-16584936D01*
X13503515Y-16584936D02*
X13503515Y-16603984D01*
X13589229Y-16423031D02*
X13598753Y-16413508D01*
X13598753Y-16413508D02*
X13617801Y-16403984D01*
X13617801Y-16403984D02*
X13665420Y-16403984D01*
X13665420Y-16403984D02*
X13684467Y-16413508D01*
X13684467Y-16413508D02*
X13693991Y-16423031D01*
X13693991Y-16423031D02*
X13703515Y-16442079D01*
X13703515Y-16442079D02*
X13703515Y-16461127D01*
X13703515Y-16461127D02*
X13693991Y-16489698D01*
X13693991Y-16489698D02*
X13579705Y-16603984D01*
X13579705Y-16603984D02*
X13703515Y-16603984D01*
X13779705Y-16423031D02*
X13789229Y-16413508D01*
X13789229Y-16413508D02*
X13808277Y-16403984D01*
X13808277Y-16403984D02*
X13855896Y-16403984D01*
X13855896Y-16403984D02*
X13874944Y-16413508D01*
X13874944Y-16413508D02*
X13884467Y-16423031D01*
X13884467Y-16423031D02*
X13893991Y-16442079D01*
X13893991Y-16442079D02*
X13893991Y-16461127D01*
X13893991Y-16461127D02*
X13884467Y-16489698D01*
X13884467Y-16489698D02*
X13770182Y-16603984D01*
X13770182Y-16603984D02*
X13893991Y-16603984D01*
X14065420Y-16470650D02*
X14065420Y-16603984D01*
X14017801Y-16394460D02*
X13970182Y-16537317D01*
X13970182Y-16537317D02*
X14093991Y-16537317D01*
X14255896Y-16470650D02*
X14255896Y-16603984D01*
X14208277Y-16394460D02*
X14160658Y-16537317D01*
X14160658Y-16537317D02*
X14284467Y-16537317D01*
X14351134Y-16403984D02*
X14351134Y-16442079D01*
X14427325Y-16403984D02*
X14427325Y-16442079D01*
X14722563Y-16680174D02*
X14713039Y-16670650D01*
X14713039Y-16670650D02*
X14693991Y-16642079D01*
X14693991Y-16642079D02*
X14684467Y-16623031D01*
X14684467Y-16623031D02*
X14674944Y-16594460D01*
X14674944Y-16594460D02*
X14665420Y-16546841D01*
X14665420Y-16546841D02*
X14665420Y-16508746D01*
X14665420Y-16508746D02*
X14674944Y-16461127D01*
X14674944Y-16461127D02*
X14684467Y-16432555D01*
X14684467Y-16432555D02*
X14693991Y-16413508D01*
X14693991Y-16413508D02*
X14713039Y-16384936D01*
X14713039Y-16384936D02*
X14722563Y-16375412D01*
X14903515Y-16603984D02*
X14789229Y-16603984D01*
X14846372Y-16603984D02*
X14846372Y-16403984D01*
X14846372Y-16403984D02*
X14827325Y-16432555D01*
X14827325Y-16432555D02*
X14808277Y-16451603D01*
X14808277Y-16451603D02*
X14789229Y-16461127D01*
X15141610Y-16603984D02*
X15141610Y-16403984D01*
X15227325Y-16603984D02*
X15227325Y-16499222D01*
X15227325Y-16499222D02*
X15217801Y-16480174D01*
X15217801Y-16480174D02*
X15198753Y-16470650D01*
X15198753Y-16470650D02*
X15170182Y-16470650D01*
X15170182Y-16470650D02*
X15151134Y-16480174D01*
X15151134Y-16480174D02*
X15141610Y-16489698D01*
X15351134Y-16603984D02*
X15332087Y-16594460D01*
X15332087Y-16594460D02*
X15322563Y-16584936D01*
X15322563Y-16584936D02*
X15313039Y-16565888D01*
X15313039Y-16565888D02*
X15313039Y-16508746D01*
X15313039Y-16508746D02*
X15322563Y-16489698D01*
X15322563Y-16489698D02*
X15332087Y-16480174D01*
X15332087Y-16480174D02*
X15351134Y-16470650D01*
X15351134Y-16470650D02*
X15379706Y-16470650D01*
X15379706Y-16470650D02*
X15398753Y-16480174D01*
X15398753Y-16480174D02*
X15408277Y-16489698D01*
X15408277Y-16489698D02*
X15417801Y-16508746D01*
X15417801Y-16508746D02*
X15417801Y-16565888D01*
X15417801Y-16565888D02*
X15408277Y-16584936D01*
X15408277Y-16584936D02*
X15398753Y-16594460D01*
X15398753Y-16594460D02*
X15379706Y-16603984D01*
X15379706Y-16603984D02*
X15351134Y-16603984D01*
X15532087Y-16603984D02*
X15513039Y-16594460D01*
X15513039Y-16594460D02*
X15503515Y-16575412D01*
X15503515Y-16575412D02*
X15503515Y-16403984D01*
X15684468Y-16594460D02*
X15665420Y-16603984D01*
X15665420Y-16603984D02*
X15627325Y-16603984D01*
X15627325Y-16603984D02*
X15608277Y-16594460D01*
X15608277Y-16594460D02*
X15598753Y-16575412D01*
X15598753Y-16575412D02*
X15598753Y-16499222D01*
X15598753Y-16499222D02*
X15608277Y-16480174D01*
X15608277Y-16480174D02*
X15627325Y-16470650D01*
X15627325Y-16470650D02*
X15665420Y-16470650D01*
X15665420Y-16470650D02*
X15684468Y-16480174D01*
X15684468Y-16480174D02*
X15693991Y-16499222D01*
X15693991Y-16499222D02*
X15693991Y-16518269D01*
X15693991Y-16518269D02*
X15598753Y-16537317D01*
X15760658Y-16680174D02*
X15770182Y-16670650D01*
X15770182Y-16670650D02*
X15789229Y-16642079D01*
X15789229Y-16642079D02*
X15798753Y-16623031D01*
X15798753Y-16623031D02*
X15808277Y-16594460D01*
X15808277Y-16594460D02*
X15817801Y-16546841D01*
X15817801Y-16546841D02*
X15817801Y-16508746D01*
X15817801Y-16508746D02*
X15808277Y-16461127D01*
X15808277Y-16461127D02*
X15798753Y-16432555D01*
X15798753Y-16432555D02*
X15789229Y-16413508D01*
X15789229Y-16413508D02*
X15770182Y-16384936D01*
X15770182Y-16384936D02*
X15760658Y-16375412D01*
X11047500Y-16732500D02*
X11047500Y-16932500D01*
X10947500Y-16832500D02*
X11147500Y-16832500D01*
X11493991Y-16723984D02*
X11455896Y-16723984D01*
X11455896Y-16723984D02*
X11436848Y-16733508D01*
X11436848Y-16733508D02*
X11427324Y-16743031D01*
X11427324Y-16743031D02*
X11408277Y-16771603D01*
X11408277Y-16771603D02*
X11398753Y-16809698D01*
X11398753Y-16809698D02*
X11398753Y-16885889D01*
X11398753Y-16885889D02*
X11408277Y-16904936D01*
X11408277Y-16904936D02*
X11417800Y-16914460D01*
X11417800Y-16914460D02*
X11436848Y-16923984D01*
X11436848Y-16923984D02*
X11474943Y-16923984D01*
X11474943Y-16923984D02*
X11493991Y-16914460D01*
X11493991Y-16914460D02*
X11503515Y-16904936D01*
X11503515Y-16904936D02*
X11513039Y-16885889D01*
X11513039Y-16885889D02*
X11513039Y-16838270D01*
X11513039Y-16838270D02*
X11503515Y-16819222D01*
X11503515Y-16819222D02*
X11493991Y-16809698D01*
X11493991Y-16809698D02*
X11474943Y-16800174D01*
X11474943Y-16800174D02*
X11436848Y-16800174D01*
X11436848Y-16800174D02*
X11417800Y-16809698D01*
X11417800Y-16809698D02*
X11408277Y-16819222D01*
X11408277Y-16819222D02*
X11398753Y-16838270D01*
X11598753Y-16904936D02*
X11608277Y-16914460D01*
X11608277Y-16914460D02*
X11598753Y-16923984D01*
X11598753Y-16923984D02*
X11589229Y-16914460D01*
X11589229Y-16914460D02*
X11598753Y-16904936D01*
X11598753Y-16904936D02*
X11598753Y-16923984D01*
X11684467Y-16743031D02*
X11693991Y-16733508D01*
X11693991Y-16733508D02*
X11713039Y-16723984D01*
X11713039Y-16723984D02*
X11760658Y-16723984D01*
X11760658Y-16723984D02*
X11779705Y-16733508D01*
X11779705Y-16733508D02*
X11789229Y-16743031D01*
X11789229Y-16743031D02*
X11798753Y-16762079D01*
X11798753Y-16762079D02*
X11798753Y-16781127D01*
X11798753Y-16781127D02*
X11789229Y-16809698D01*
X11789229Y-16809698D02*
X11674943Y-16923984D01*
X11674943Y-16923984D02*
X11798753Y-16923984D01*
X11922562Y-16723984D02*
X11941610Y-16723984D01*
X11941610Y-16723984D02*
X11960658Y-16733508D01*
X11960658Y-16733508D02*
X11970181Y-16743031D01*
X11970181Y-16743031D02*
X11979705Y-16762079D01*
X11979705Y-16762079D02*
X11989229Y-16800174D01*
X11989229Y-16800174D02*
X11989229Y-16847793D01*
X11989229Y-16847793D02*
X11979705Y-16885889D01*
X11979705Y-16885889D02*
X11970181Y-16904936D01*
X11970181Y-16904936D02*
X11960658Y-16914460D01*
X11960658Y-16914460D02*
X11941610Y-16923984D01*
X11941610Y-16923984D02*
X11922562Y-16923984D01*
X11922562Y-16923984D02*
X11903515Y-16914460D01*
X11903515Y-16914460D02*
X11893991Y-16904936D01*
X11893991Y-16904936D02*
X11884467Y-16885889D01*
X11884467Y-16885889D02*
X11874943Y-16847793D01*
X11874943Y-16847793D02*
X11874943Y-16800174D01*
X11874943Y-16800174D02*
X11884467Y-16762079D01*
X11884467Y-16762079D02*
X11893991Y-16743031D01*
X11893991Y-16743031D02*
X11903515Y-16733508D01*
X11903515Y-16733508D02*
X11922562Y-16723984D01*
X12113039Y-16723984D02*
X12132086Y-16723984D01*
X12132086Y-16723984D02*
X12151134Y-16733508D01*
X12151134Y-16733508D02*
X12160658Y-16743031D01*
X12160658Y-16743031D02*
X12170181Y-16762079D01*
X12170181Y-16762079D02*
X12179705Y-16800174D01*
X12179705Y-16800174D02*
X12179705Y-16847793D01*
X12179705Y-16847793D02*
X12170181Y-16885889D01*
X12170181Y-16885889D02*
X12160658Y-16904936D01*
X12160658Y-16904936D02*
X12151134Y-16914460D01*
X12151134Y-16914460D02*
X12132086Y-16923984D01*
X12132086Y-16923984D02*
X12113039Y-16923984D01*
X12113039Y-16923984D02*
X12093991Y-16914460D01*
X12093991Y-16914460D02*
X12084467Y-16904936D01*
X12084467Y-16904936D02*
X12074943Y-16885889D01*
X12074943Y-16885889D02*
X12065420Y-16847793D01*
X12065420Y-16847793D02*
X12065420Y-16800174D01*
X12065420Y-16800174D02*
X12074943Y-16762079D01*
X12074943Y-16762079D02*
X12084467Y-16743031D01*
X12084467Y-16743031D02*
X12093991Y-16733508D01*
X12093991Y-16733508D02*
X12113039Y-16723984D01*
X12265420Y-16923984D02*
X12265420Y-16790650D01*
X12265420Y-16809698D02*
X12274943Y-16800174D01*
X12274943Y-16800174D02*
X12293991Y-16790650D01*
X12293991Y-16790650D02*
X12322562Y-16790650D01*
X12322562Y-16790650D02*
X12341610Y-16800174D01*
X12341610Y-16800174D02*
X12351134Y-16819222D01*
X12351134Y-16819222D02*
X12351134Y-16923984D01*
X12351134Y-16819222D02*
X12360658Y-16800174D01*
X12360658Y-16800174D02*
X12379705Y-16790650D01*
X12379705Y-16790650D02*
X12408277Y-16790650D01*
X12408277Y-16790650D02*
X12427324Y-16800174D01*
X12427324Y-16800174D02*
X12436848Y-16819222D01*
X12436848Y-16819222D02*
X12436848Y-16923984D01*
X12532086Y-16923984D02*
X12532086Y-16790650D01*
X12532086Y-16809698D02*
X12541610Y-16800174D01*
X12541610Y-16800174D02*
X12560658Y-16790650D01*
X12560658Y-16790650D02*
X12589229Y-16790650D01*
X12589229Y-16790650D02*
X12608277Y-16800174D01*
X12608277Y-16800174D02*
X12617801Y-16819222D01*
X12617801Y-16819222D02*
X12617801Y-16923984D01*
X12617801Y-16819222D02*
X12627324Y-16800174D01*
X12627324Y-16800174D02*
X12646372Y-16790650D01*
X12646372Y-16790650D02*
X12674943Y-16790650D01*
X12674943Y-16790650D02*
X12693991Y-16800174D01*
X12693991Y-16800174D02*
X12703515Y-16819222D01*
X12703515Y-16819222D02*
X12703515Y-16923984D01*
X13093991Y-16714460D02*
X12922563Y-16971603D01*
X13351134Y-16723984D02*
X13370182Y-16723984D01*
X13370182Y-16723984D02*
X13389229Y-16733508D01*
X13389229Y-16733508D02*
X13398753Y-16743031D01*
X13398753Y-16743031D02*
X13408277Y-16762079D01*
X13408277Y-16762079D02*
X13417801Y-16800174D01*
X13417801Y-16800174D02*
X13417801Y-16847793D01*
X13417801Y-16847793D02*
X13408277Y-16885889D01*
X13408277Y-16885889D02*
X13398753Y-16904936D01*
X13398753Y-16904936D02*
X13389229Y-16914460D01*
X13389229Y-16914460D02*
X13370182Y-16923984D01*
X13370182Y-16923984D02*
X13351134Y-16923984D01*
X13351134Y-16923984D02*
X13332086Y-16914460D01*
X13332086Y-16914460D02*
X13322563Y-16904936D01*
X13322563Y-16904936D02*
X13313039Y-16885889D01*
X13313039Y-16885889D02*
X13303515Y-16847793D01*
X13303515Y-16847793D02*
X13303515Y-16800174D01*
X13303515Y-16800174D02*
X13313039Y-16762079D01*
X13313039Y-16762079D02*
X13322563Y-16743031D01*
X13322563Y-16743031D02*
X13332086Y-16733508D01*
X13332086Y-16733508D02*
X13351134Y-16723984D01*
X13503515Y-16904936D02*
X13513039Y-16914460D01*
X13513039Y-16914460D02*
X13503515Y-16923984D01*
X13503515Y-16923984D02*
X13493991Y-16914460D01*
X13493991Y-16914460D02*
X13503515Y-16904936D01*
X13503515Y-16904936D02*
X13503515Y-16923984D01*
X13589229Y-16743031D02*
X13598753Y-16733508D01*
X13598753Y-16733508D02*
X13617801Y-16723984D01*
X13617801Y-16723984D02*
X13665420Y-16723984D01*
X13665420Y-16723984D02*
X13684467Y-16733508D01*
X13684467Y-16733508D02*
X13693991Y-16743031D01*
X13693991Y-16743031D02*
X13703515Y-16762079D01*
X13703515Y-16762079D02*
X13703515Y-16781127D01*
X13703515Y-16781127D02*
X13693991Y-16809698D01*
X13693991Y-16809698D02*
X13579705Y-16923984D01*
X13579705Y-16923984D02*
X13703515Y-16923984D01*
X13874944Y-16790650D02*
X13874944Y-16923984D01*
X13827324Y-16714460D02*
X13779705Y-16857317D01*
X13779705Y-16857317D02*
X13903515Y-16857317D01*
X14065420Y-16790650D02*
X14065420Y-16923984D01*
X14017801Y-16714460D02*
X13970182Y-16857317D01*
X13970182Y-16857317D02*
X14093991Y-16857317D01*
X14274944Y-16923984D02*
X14160658Y-16923984D01*
X14217801Y-16923984D02*
X14217801Y-16723984D01*
X14217801Y-16723984D02*
X14198753Y-16752555D01*
X14198753Y-16752555D02*
X14179705Y-16771603D01*
X14179705Y-16771603D02*
X14160658Y-16781127D01*
X14351134Y-16723984D02*
X14351134Y-16762079D01*
X14427325Y-16723984D02*
X14427325Y-16762079D01*
X14722563Y-17000174D02*
X14713039Y-16990650D01*
X14713039Y-16990650D02*
X14693991Y-16962079D01*
X14693991Y-16962079D02*
X14684467Y-16943031D01*
X14684467Y-16943031D02*
X14674944Y-16914460D01*
X14674944Y-16914460D02*
X14665420Y-16866841D01*
X14665420Y-16866841D02*
X14665420Y-16828746D01*
X14665420Y-16828746D02*
X14674944Y-16781127D01*
X14674944Y-16781127D02*
X14684467Y-16752555D01*
X14684467Y-16752555D02*
X14693991Y-16733508D01*
X14693991Y-16733508D02*
X14713039Y-16704936D01*
X14713039Y-16704936D02*
X14722563Y-16695412D01*
X14779706Y-16723984D02*
X14903515Y-16723984D01*
X14903515Y-16723984D02*
X14836848Y-16800174D01*
X14836848Y-16800174D02*
X14865420Y-16800174D01*
X14865420Y-16800174D02*
X14884467Y-16809698D01*
X14884467Y-16809698D02*
X14893991Y-16819222D01*
X14893991Y-16819222D02*
X14903515Y-16838270D01*
X14903515Y-16838270D02*
X14903515Y-16885889D01*
X14903515Y-16885889D02*
X14893991Y-16904936D01*
X14893991Y-16904936D02*
X14884467Y-16914460D01*
X14884467Y-16914460D02*
X14865420Y-16923984D01*
X14865420Y-16923984D02*
X14808277Y-16923984D01*
X14808277Y-16923984D02*
X14789229Y-16914460D01*
X14789229Y-16914460D02*
X14779706Y-16904936D01*
X15141610Y-16923984D02*
X15141610Y-16723984D01*
X15227325Y-16923984D02*
X15227325Y-16819222D01*
X15227325Y-16819222D02*
X15217801Y-16800174D01*
X15217801Y-16800174D02*
X15198753Y-16790650D01*
X15198753Y-16790650D02*
X15170182Y-16790650D01*
X15170182Y-16790650D02*
X15151134Y-16800174D01*
X15151134Y-16800174D02*
X15141610Y-16809698D01*
X15351134Y-16923984D02*
X15332087Y-16914460D01*
X15332087Y-16914460D02*
X15322563Y-16904936D01*
X15322563Y-16904936D02*
X15313039Y-16885889D01*
X15313039Y-16885889D02*
X15313039Y-16828746D01*
X15313039Y-16828746D02*
X15322563Y-16809698D01*
X15322563Y-16809698D02*
X15332087Y-16800174D01*
X15332087Y-16800174D02*
X15351134Y-16790650D01*
X15351134Y-16790650D02*
X15379706Y-16790650D01*
X15379706Y-16790650D02*
X15398753Y-16800174D01*
X15398753Y-16800174D02*
X15408277Y-16809698D01*
X15408277Y-16809698D02*
X15417801Y-16828746D01*
X15417801Y-16828746D02*
X15417801Y-16885889D01*
X15417801Y-16885889D02*
X15408277Y-16904936D01*
X15408277Y-16904936D02*
X15398753Y-16914460D01*
X15398753Y-16914460D02*
X15379706Y-16923984D01*
X15379706Y-16923984D02*
X15351134Y-16923984D01*
X15532087Y-16923984D02*
X15513039Y-16914460D01*
X15513039Y-16914460D02*
X15503515Y-16895412D01*
X15503515Y-16895412D02*
X15503515Y-16723984D01*
X15684468Y-16914460D02*
X15665420Y-16923984D01*
X15665420Y-16923984D02*
X15627325Y-16923984D01*
X15627325Y-16923984D02*
X15608277Y-16914460D01*
X15608277Y-16914460D02*
X15598753Y-16895412D01*
X15598753Y-16895412D02*
X15598753Y-16819222D01*
X15598753Y-16819222D02*
X15608277Y-16800174D01*
X15608277Y-16800174D02*
X15627325Y-16790650D01*
X15627325Y-16790650D02*
X15665420Y-16790650D01*
X15665420Y-16790650D02*
X15684468Y-16800174D01*
X15684468Y-16800174D02*
X15693991Y-16819222D01*
X15693991Y-16819222D02*
X15693991Y-16838270D01*
X15693991Y-16838270D02*
X15598753Y-16857317D01*
X15770182Y-16914460D02*
X15789229Y-16923984D01*
X15789229Y-16923984D02*
X15827325Y-16923984D01*
X15827325Y-16923984D02*
X15846372Y-16914460D01*
X15846372Y-16914460D02*
X15855896Y-16895412D01*
X15855896Y-16895412D02*
X15855896Y-16885889D01*
X15855896Y-16885889D02*
X15846372Y-16866841D01*
X15846372Y-16866841D02*
X15827325Y-16857317D01*
X15827325Y-16857317D02*
X15798753Y-16857317D01*
X15798753Y-16857317D02*
X15779706Y-16847793D01*
X15779706Y-16847793D02*
X15770182Y-16828746D01*
X15770182Y-16828746D02*
X15770182Y-16819222D01*
X15770182Y-16819222D02*
X15779706Y-16800174D01*
X15779706Y-16800174D02*
X15798753Y-16790650D01*
X15798753Y-16790650D02*
X15827325Y-16790650D01*
X15827325Y-16790650D02*
X15846372Y-16800174D01*
X15922563Y-17000174D02*
X15932087Y-16990650D01*
X15932087Y-16990650D02*
X15951134Y-16962079D01*
X15951134Y-16962079D02*
X15960658Y-16943031D01*
X15960658Y-16943031D02*
X15970182Y-16914460D01*
X15970182Y-16914460D02*
X15979706Y-16866841D01*
X15979706Y-16866841D02*
X15979706Y-16828746D01*
X15979706Y-16828746D02*
X15970182Y-16781127D01*
X15970182Y-16781127D02*
X15960658Y-16752555D01*
X15960658Y-16752555D02*
X15951134Y-16733508D01*
X15951134Y-16733508D02*
X15932087Y-16704936D01*
X15932087Y-16704936D02*
X15922563Y-16695412D01*
X11118211Y-17223211D02*
X11118211Y-17081789D01*
X10976789Y-17081789D01*
X10976789Y-17223211D01*
X11118211Y-17223211D01*
X11493991Y-17043984D02*
X11455896Y-17043984D01*
X11455896Y-17043984D02*
X11436848Y-17053508D01*
X11436848Y-17053508D02*
X11427324Y-17063031D01*
X11427324Y-17063031D02*
X11408277Y-17091603D01*
X11408277Y-17091603D02*
X11398753Y-17129698D01*
X11398753Y-17129698D02*
X11398753Y-17205889D01*
X11398753Y-17205889D02*
X11408277Y-17224936D01*
X11408277Y-17224936D02*
X11417800Y-17234460D01*
X11417800Y-17234460D02*
X11436848Y-17243984D01*
X11436848Y-17243984D02*
X11474943Y-17243984D01*
X11474943Y-17243984D02*
X11493991Y-17234460D01*
X11493991Y-17234460D02*
X11503515Y-17224936D01*
X11503515Y-17224936D02*
X11513039Y-17205889D01*
X11513039Y-17205889D02*
X11513039Y-17158270D01*
X11513039Y-17158270D02*
X11503515Y-17139222D01*
X11503515Y-17139222D02*
X11493991Y-17129698D01*
X11493991Y-17129698D02*
X11474943Y-17120174D01*
X11474943Y-17120174D02*
X11436848Y-17120174D01*
X11436848Y-17120174D02*
X11417800Y-17129698D01*
X11417800Y-17129698D02*
X11408277Y-17139222D01*
X11408277Y-17139222D02*
X11398753Y-17158270D01*
X11598753Y-17224936D02*
X11608277Y-17234460D01*
X11608277Y-17234460D02*
X11598753Y-17243984D01*
X11598753Y-17243984D02*
X11589229Y-17234460D01*
X11589229Y-17234460D02*
X11598753Y-17224936D01*
X11598753Y-17224936D02*
X11598753Y-17243984D01*
X11722562Y-17129698D02*
X11703515Y-17120174D01*
X11703515Y-17120174D02*
X11693991Y-17110650D01*
X11693991Y-17110650D02*
X11684467Y-17091603D01*
X11684467Y-17091603D02*
X11684467Y-17082079D01*
X11684467Y-17082079D02*
X11693991Y-17063031D01*
X11693991Y-17063031D02*
X11703515Y-17053508D01*
X11703515Y-17053508D02*
X11722562Y-17043984D01*
X11722562Y-17043984D02*
X11760658Y-17043984D01*
X11760658Y-17043984D02*
X11779705Y-17053508D01*
X11779705Y-17053508D02*
X11789229Y-17063031D01*
X11789229Y-17063031D02*
X11798753Y-17082079D01*
X11798753Y-17082079D02*
X11798753Y-17091603D01*
X11798753Y-17091603D02*
X11789229Y-17110650D01*
X11789229Y-17110650D02*
X11779705Y-17120174D01*
X11779705Y-17120174D02*
X11760658Y-17129698D01*
X11760658Y-17129698D02*
X11722562Y-17129698D01*
X11722562Y-17129698D02*
X11703515Y-17139222D01*
X11703515Y-17139222D02*
X11693991Y-17148746D01*
X11693991Y-17148746D02*
X11684467Y-17167793D01*
X11684467Y-17167793D02*
X11684467Y-17205889D01*
X11684467Y-17205889D02*
X11693991Y-17224936D01*
X11693991Y-17224936D02*
X11703515Y-17234460D01*
X11703515Y-17234460D02*
X11722562Y-17243984D01*
X11722562Y-17243984D02*
X11760658Y-17243984D01*
X11760658Y-17243984D02*
X11779705Y-17234460D01*
X11779705Y-17234460D02*
X11789229Y-17224936D01*
X11789229Y-17224936D02*
X11798753Y-17205889D01*
X11798753Y-17205889D02*
X11798753Y-17167793D01*
X11798753Y-17167793D02*
X11789229Y-17148746D01*
X11789229Y-17148746D02*
X11779705Y-17139222D01*
X11779705Y-17139222D02*
X11760658Y-17129698D01*
X11922562Y-17043984D02*
X11941610Y-17043984D01*
X11941610Y-17043984D02*
X11960658Y-17053508D01*
X11960658Y-17053508D02*
X11970181Y-17063031D01*
X11970181Y-17063031D02*
X11979705Y-17082079D01*
X11979705Y-17082079D02*
X11989229Y-17120174D01*
X11989229Y-17120174D02*
X11989229Y-17167793D01*
X11989229Y-17167793D02*
X11979705Y-17205889D01*
X11979705Y-17205889D02*
X11970181Y-17224936D01*
X11970181Y-17224936D02*
X11960658Y-17234460D01*
X11960658Y-17234460D02*
X11941610Y-17243984D01*
X11941610Y-17243984D02*
X11922562Y-17243984D01*
X11922562Y-17243984D02*
X11903515Y-17234460D01*
X11903515Y-17234460D02*
X11893991Y-17224936D01*
X11893991Y-17224936D02*
X11884467Y-17205889D01*
X11884467Y-17205889D02*
X11874943Y-17167793D01*
X11874943Y-17167793D02*
X11874943Y-17120174D01*
X11874943Y-17120174D02*
X11884467Y-17082079D01*
X11884467Y-17082079D02*
X11893991Y-17063031D01*
X11893991Y-17063031D02*
X11903515Y-17053508D01*
X11903515Y-17053508D02*
X11922562Y-17043984D01*
X12113039Y-17043984D02*
X12132086Y-17043984D01*
X12132086Y-17043984D02*
X12151134Y-17053508D01*
X12151134Y-17053508D02*
X12160658Y-17063031D01*
X12160658Y-17063031D02*
X12170181Y-17082079D01*
X12170181Y-17082079D02*
X12179705Y-17120174D01*
X12179705Y-17120174D02*
X12179705Y-17167793D01*
X12179705Y-17167793D02*
X12170181Y-17205889D01*
X12170181Y-17205889D02*
X12160658Y-17224936D01*
X12160658Y-17224936D02*
X12151134Y-17234460D01*
X12151134Y-17234460D02*
X12132086Y-17243984D01*
X12132086Y-17243984D02*
X12113039Y-17243984D01*
X12113039Y-17243984D02*
X12093991Y-17234460D01*
X12093991Y-17234460D02*
X12084467Y-17224936D01*
X12084467Y-17224936D02*
X12074943Y-17205889D01*
X12074943Y-17205889D02*
X12065420Y-17167793D01*
X12065420Y-17167793D02*
X12065420Y-17120174D01*
X12065420Y-17120174D02*
X12074943Y-17082079D01*
X12074943Y-17082079D02*
X12084467Y-17063031D01*
X12084467Y-17063031D02*
X12093991Y-17053508D01*
X12093991Y-17053508D02*
X12113039Y-17043984D01*
X12265420Y-17243984D02*
X12265420Y-17110650D01*
X12265420Y-17129698D02*
X12274943Y-17120174D01*
X12274943Y-17120174D02*
X12293991Y-17110650D01*
X12293991Y-17110650D02*
X12322562Y-17110650D01*
X12322562Y-17110650D02*
X12341610Y-17120174D01*
X12341610Y-17120174D02*
X12351134Y-17139222D01*
X12351134Y-17139222D02*
X12351134Y-17243984D01*
X12351134Y-17139222D02*
X12360658Y-17120174D01*
X12360658Y-17120174D02*
X12379705Y-17110650D01*
X12379705Y-17110650D02*
X12408277Y-17110650D01*
X12408277Y-17110650D02*
X12427324Y-17120174D01*
X12427324Y-17120174D02*
X12436848Y-17139222D01*
X12436848Y-17139222D02*
X12436848Y-17243984D01*
X12532086Y-17243984D02*
X12532086Y-17110650D01*
X12532086Y-17129698D02*
X12541610Y-17120174D01*
X12541610Y-17120174D02*
X12560658Y-17110650D01*
X12560658Y-17110650D02*
X12589229Y-17110650D01*
X12589229Y-17110650D02*
X12608277Y-17120174D01*
X12608277Y-17120174D02*
X12617801Y-17139222D01*
X12617801Y-17139222D02*
X12617801Y-17243984D01*
X12617801Y-17139222D02*
X12627324Y-17120174D01*
X12627324Y-17120174D02*
X12646372Y-17110650D01*
X12646372Y-17110650D02*
X12674943Y-17110650D01*
X12674943Y-17110650D02*
X12693991Y-17120174D01*
X12693991Y-17120174D02*
X12703515Y-17139222D01*
X12703515Y-17139222D02*
X12703515Y-17243984D01*
X13093991Y-17034460D02*
X12922563Y-17291603D01*
X13351134Y-17043984D02*
X13370182Y-17043984D01*
X13370182Y-17043984D02*
X13389229Y-17053508D01*
X13389229Y-17053508D02*
X13398753Y-17063031D01*
X13398753Y-17063031D02*
X13408277Y-17082079D01*
X13408277Y-17082079D02*
X13417801Y-17120174D01*
X13417801Y-17120174D02*
X13417801Y-17167793D01*
X13417801Y-17167793D02*
X13408277Y-17205889D01*
X13408277Y-17205889D02*
X13398753Y-17224936D01*
X13398753Y-17224936D02*
X13389229Y-17234460D01*
X13389229Y-17234460D02*
X13370182Y-17243984D01*
X13370182Y-17243984D02*
X13351134Y-17243984D01*
X13351134Y-17243984D02*
X13332086Y-17234460D01*
X13332086Y-17234460D02*
X13322563Y-17224936D01*
X13322563Y-17224936D02*
X13313039Y-17205889D01*
X13313039Y-17205889D02*
X13303515Y-17167793D01*
X13303515Y-17167793D02*
X13303515Y-17120174D01*
X13303515Y-17120174D02*
X13313039Y-17082079D01*
X13313039Y-17082079D02*
X13322563Y-17063031D01*
X13322563Y-17063031D02*
X13332086Y-17053508D01*
X13332086Y-17053508D02*
X13351134Y-17043984D01*
X13503515Y-17224936D02*
X13513039Y-17234460D01*
X13513039Y-17234460D02*
X13503515Y-17243984D01*
X13503515Y-17243984D02*
X13493991Y-17234460D01*
X13493991Y-17234460D02*
X13503515Y-17224936D01*
X13503515Y-17224936D02*
X13503515Y-17243984D01*
X13589229Y-17063031D02*
X13598753Y-17053508D01*
X13598753Y-17053508D02*
X13617801Y-17043984D01*
X13617801Y-17043984D02*
X13665420Y-17043984D01*
X13665420Y-17043984D02*
X13684467Y-17053508D01*
X13684467Y-17053508D02*
X13693991Y-17063031D01*
X13693991Y-17063031D02*
X13703515Y-17082079D01*
X13703515Y-17082079D02*
X13703515Y-17101127D01*
X13703515Y-17101127D02*
X13693991Y-17129698D01*
X13693991Y-17129698D02*
X13579705Y-17243984D01*
X13579705Y-17243984D02*
X13703515Y-17243984D01*
X13874944Y-17043984D02*
X13836848Y-17043984D01*
X13836848Y-17043984D02*
X13817801Y-17053508D01*
X13817801Y-17053508D02*
X13808277Y-17063031D01*
X13808277Y-17063031D02*
X13789229Y-17091603D01*
X13789229Y-17091603D02*
X13779705Y-17129698D01*
X13779705Y-17129698D02*
X13779705Y-17205889D01*
X13779705Y-17205889D02*
X13789229Y-17224936D01*
X13789229Y-17224936D02*
X13798753Y-17234460D01*
X13798753Y-17234460D02*
X13817801Y-17243984D01*
X13817801Y-17243984D02*
X13855896Y-17243984D01*
X13855896Y-17243984D02*
X13874944Y-17234460D01*
X13874944Y-17234460D02*
X13884467Y-17224936D01*
X13884467Y-17224936D02*
X13893991Y-17205889D01*
X13893991Y-17205889D02*
X13893991Y-17158270D01*
X13893991Y-17158270D02*
X13884467Y-17139222D01*
X13884467Y-17139222D02*
X13874944Y-17129698D01*
X13874944Y-17129698D02*
X13855896Y-17120174D01*
X13855896Y-17120174D02*
X13817801Y-17120174D01*
X13817801Y-17120174D02*
X13798753Y-17129698D01*
X13798753Y-17129698D02*
X13789229Y-17139222D01*
X13789229Y-17139222D02*
X13779705Y-17158270D01*
X13960658Y-17043984D02*
X14093991Y-17043984D01*
X14093991Y-17043984D02*
X14008277Y-17243984D01*
X14151134Y-17043984D02*
X14284467Y-17043984D01*
X14284467Y-17043984D02*
X14198753Y-17243984D01*
X14351134Y-17043984D02*
X14351134Y-17082079D01*
X14427325Y-17043984D02*
X14427325Y-17082079D01*
X14722563Y-17320174D02*
X14713039Y-17310650D01*
X14713039Y-17310650D02*
X14693991Y-17282079D01*
X14693991Y-17282079D02*
X14684467Y-17263031D01*
X14684467Y-17263031D02*
X14674944Y-17234460D01*
X14674944Y-17234460D02*
X14665420Y-17186841D01*
X14665420Y-17186841D02*
X14665420Y-17148746D01*
X14665420Y-17148746D02*
X14674944Y-17101127D01*
X14674944Y-17101127D02*
X14684467Y-17072555D01*
X14684467Y-17072555D02*
X14693991Y-17053508D01*
X14693991Y-17053508D02*
X14713039Y-17024936D01*
X14713039Y-17024936D02*
X14722563Y-17015412D01*
X14903515Y-17243984D02*
X14789229Y-17243984D01*
X14846372Y-17243984D02*
X14846372Y-17043984D01*
X14846372Y-17043984D02*
X14827325Y-17072555D01*
X14827325Y-17072555D02*
X14808277Y-17091603D01*
X14808277Y-17091603D02*
X14789229Y-17101127D01*
X15141610Y-17243984D02*
X15141610Y-17043984D01*
X15227325Y-17243984D02*
X15227325Y-17139222D01*
X15227325Y-17139222D02*
X15217801Y-17120174D01*
X15217801Y-17120174D02*
X15198753Y-17110650D01*
X15198753Y-17110650D02*
X15170182Y-17110650D01*
X15170182Y-17110650D02*
X15151134Y-17120174D01*
X15151134Y-17120174D02*
X15141610Y-17129698D01*
X15351134Y-17243984D02*
X15332087Y-17234460D01*
X15332087Y-17234460D02*
X15322563Y-17224936D01*
X15322563Y-17224936D02*
X15313039Y-17205889D01*
X15313039Y-17205889D02*
X15313039Y-17148746D01*
X15313039Y-17148746D02*
X15322563Y-17129698D01*
X15322563Y-17129698D02*
X15332087Y-17120174D01*
X15332087Y-17120174D02*
X15351134Y-17110650D01*
X15351134Y-17110650D02*
X15379706Y-17110650D01*
X15379706Y-17110650D02*
X15398753Y-17120174D01*
X15398753Y-17120174D02*
X15408277Y-17129698D01*
X15408277Y-17129698D02*
X15417801Y-17148746D01*
X15417801Y-17148746D02*
X15417801Y-17205889D01*
X15417801Y-17205889D02*
X15408277Y-17224936D01*
X15408277Y-17224936D02*
X15398753Y-17234460D01*
X15398753Y-17234460D02*
X15379706Y-17243984D01*
X15379706Y-17243984D02*
X15351134Y-17243984D01*
X15532087Y-17243984D02*
X15513039Y-17234460D01*
X15513039Y-17234460D02*
X15503515Y-17215412D01*
X15503515Y-17215412D02*
X15503515Y-17043984D01*
X15684468Y-17234460D02*
X15665420Y-17243984D01*
X15665420Y-17243984D02*
X15627325Y-17243984D01*
X15627325Y-17243984D02*
X15608277Y-17234460D01*
X15608277Y-17234460D02*
X15598753Y-17215412D01*
X15598753Y-17215412D02*
X15598753Y-17139222D01*
X15598753Y-17139222D02*
X15608277Y-17120174D01*
X15608277Y-17120174D02*
X15627325Y-17110650D01*
X15627325Y-17110650D02*
X15665420Y-17110650D01*
X15665420Y-17110650D02*
X15684468Y-17120174D01*
X15684468Y-17120174D02*
X15693991Y-17139222D01*
X15693991Y-17139222D02*
X15693991Y-17158270D01*
X15693991Y-17158270D02*
X15598753Y-17177317D01*
X15760658Y-17320174D02*
X15770182Y-17310650D01*
X15770182Y-17310650D02*
X15789229Y-17282079D01*
X15789229Y-17282079D02*
X15798753Y-17263031D01*
X15798753Y-17263031D02*
X15808277Y-17234460D01*
X15808277Y-17234460D02*
X15817801Y-17186841D01*
X15817801Y-17186841D02*
X15817801Y-17148746D01*
X15817801Y-17148746D02*
X15808277Y-17101127D01*
X15808277Y-17101127D02*
X15798753Y-17072555D01*
X15798753Y-17072555D02*
X15789229Y-17053508D01*
X15789229Y-17053508D02*
X15770182Y-17024936D01*
X15770182Y-17024936D02*
X15760658Y-17015412D01*
X11047500Y-17572500D02*
X11147500Y-17472500D01*
X11047500Y-17372500D01*
X10947500Y-17472500D01*
X11047500Y-17572500D01*
X11389229Y-17363984D02*
X11522562Y-17363984D01*
X11522562Y-17363984D02*
X11436848Y-17563984D01*
X11598753Y-17544936D02*
X11608277Y-17554460D01*
X11608277Y-17554460D02*
X11598753Y-17563984D01*
X11598753Y-17563984D02*
X11589229Y-17554460D01*
X11589229Y-17554460D02*
X11598753Y-17544936D01*
X11598753Y-17544936D02*
X11598753Y-17563984D01*
X11732086Y-17363984D02*
X11751134Y-17363984D01*
X11751134Y-17363984D02*
X11770181Y-17373508D01*
X11770181Y-17373508D02*
X11779705Y-17383031D01*
X11779705Y-17383031D02*
X11789229Y-17402079D01*
X11789229Y-17402079D02*
X11798753Y-17440174D01*
X11798753Y-17440174D02*
X11798753Y-17487793D01*
X11798753Y-17487793D02*
X11789229Y-17525889D01*
X11789229Y-17525889D02*
X11779705Y-17544936D01*
X11779705Y-17544936D02*
X11770181Y-17554460D01*
X11770181Y-17554460D02*
X11751134Y-17563984D01*
X11751134Y-17563984D02*
X11732086Y-17563984D01*
X11732086Y-17563984D02*
X11713039Y-17554460D01*
X11713039Y-17554460D02*
X11703515Y-17544936D01*
X11703515Y-17544936D02*
X11693991Y-17525889D01*
X11693991Y-17525889D02*
X11684467Y-17487793D01*
X11684467Y-17487793D02*
X11684467Y-17440174D01*
X11684467Y-17440174D02*
X11693991Y-17402079D01*
X11693991Y-17402079D02*
X11703515Y-17383031D01*
X11703515Y-17383031D02*
X11713039Y-17373508D01*
X11713039Y-17373508D02*
X11732086Y-17363984D01*
X11922562Y-17363984D02*
X11941610Y-17363984D01*
X11941610Y-17363984D02*
X11960658Y-17373508D01*
X11960658Y-17373508D02*
X11970181Y-17383031D01*
X11970181Y-17383031D02*
X11979705Y-17402079D01*
X11979705Y-17402079D02*
X11989229Y-17440174D01*
X11989229Y-17440174D02*
X11989229Y-17487793D01*
X11989229Y-17487793D02*
X11979705Y-17525889D01*
X11979705Y-17525889D02*
X11970181Y-17544936D01*
X11970181Y-17544936D02*
X11960658Y-17554460D01*
X11960658Y-17554460D02*
X11941610Y-17563984D01*
X11941610Y-17563984D02*
X11922562Y-17563984D01*
X11922562Y-17563984D02*
X11903515Y-17554460D01*
X11903515Y-17554460D02*
X11893991Y-17544936D01*
X11893991Y-17544936D02*
X11884467Y-17525889D01*
X11884467Y-17525889D02*
X11874943Y-17487793D01*
X11874943Y-17487793D02*
X11874943Y-17440174D01*
X11874943Y-17440174D02*
X11884467Y-17402079D01*
X11884467Y-17402079D02*
X11893991Y-17383031D01*
X11893991Y-17383031D02*
X11903515Y-17373508D01*
X11903515Y-17373508D02*
X11922562Y-17363984D01*
X12113039Y-17363984D02*
X12132086Y-17363984D01*
X12132086Y-17363984D02*
X12151134Y-17373508D01*
X12151134Y-17373508D02*
X12160658Y-17383031D01*
X12160658Y-17383031D02*
X12170181Y-17402079D01*
X12170181Y-17402079D02*
X12179705Y-17440174D01*
X12179705Y-17440174D02*
X12179705Y-17487793D01*
X12179705Y-17487793D02*
X12170181Y-17525889D01*
X12170181Y-17525889D02*
X12160658Y-17544936D01*
X12160658Y-17544936D02*
X12151134Y-17554460D01*
X12151134Y-17554460D02*
X12132086Y-17563984D01*
X12132086Y-17563984D02*
X12113039Y-17563984D01*
X12113039Y-17563984D02*
X12093991Y-17554460D01*
X12093991Y-17554460D02*
X12084467Y-17544936D01*
X12084467Y-17544936D02*
X12074943Y-17525889D01*
X12074943Y-17525889D02*
X12065420Y-17487793D01*
X12065420Y-17487793D02*
X12065420Y-17440174D01*
X12065420Y-17440174D02*
X12074943Y-17402079D01*
X12074943Y-17402079D02*
X12084467Y-17383031D01*
X12084467Y-17383031D02*
X12093991Y-17373508D01*
X12093991Y-17373508D02*
X12113039Y-17363984D01*
X12265420Y-17563984D02*
X12265420Y-17430650D01*
X12265420Y-17449698D02*
X12274943Y-17440174D01*
X12274943Y-17440174D02*
X12293991Y-17430650D01*
X12293991Y-17430650D02*
X12322562Y-17430650D01*
X12322562Y-17430650D02*
X12341610Y-17440174D01*
X12341610Y-17440174D02*
X12351134Y-17459222D01*
X12351134Y-17459222D02*
X12351134Y-17563984D01*
X12351134Y-17459222D02*
X12360658Y-17440174D01*
X12360658Y-17440174D02*
X12379705Y-17430650D01*
X12379705Y-17430650D02*
X12408277Y-17430650D01*
X12408277Y-17430650D02*
X12427324Y-17440174D01*
X12427324Y-17440174D02*
X12436848Y-17459222D01*
X12436848Y-17459222D02*
X12436848Y-17563984D01*
X12532086Y-17563984D02*
X12532086Y-17430650D01*
X12532086Y-17449698D02*
X12541610Y-17440174D01*
X12541610Y-17440174D02*
X12560658Y-17430650D01*
X12560658Y-17430650D02*
X12589229Y-17430650D01*
X12589229Y-17430650D02*
X12608277Y-17440174D01*
X12608277Y-17440174D02*
X12617801Y-17459222D01*
X12617801Y-17459222D02*
X12617801Y-17563984D01*
X12617801Y-17459222D02*
X12627324Y-17440174D01*
X12627324Y-17440174D02*
X12646372Y-17430650D01*
X12646372Y-17430650D02*
X12674943Y-17430650D01*
X12674943Y-17430650D02*
X12693991Y-17440174D01*
X12693991Y-17440174D02*
X12703515Y-17459222D01*
X12703515Y-17459222D02*
X12703515Y-17563984D01*
X13093991Y-17354460D02*
X12922563Y-17611603D01*
X13351134Y-17363984D02*
X13370182Y-17363984D01*
X13370182Y-17363984D02*
X13389229Y-17373508D01*
X13389229Y-17373508D02*
X13398753Y-17383031D01*
X13398753Y-17383031D02*
X13408277Y-17402079D01*
X13408277Y-17402079D02*
X13417801Y-17440174D01*
X13417801Y-17440174D02*
X13417801Y-17487793D01*
X13417801Y-17487793D02*
X13408277Y-17525889D01*
X13408277Y-17525889D02*
X13398753Y-17544936D01*
X13398753Y-17544936D02*
X13389229Y-17554460D01*
X13389229Y-17554460D02*
X13370182Y-17563984D01*
X13370182Y-17563984D02*
X13351134Y-17563984D01*
X13351134Y-17563984D02*
X13332086Y-17554460D01*
X13332086Y-17554460D02*
X13322563Y-17544936D01*
X13322563Y-17544936D02*
X13313039Y-17525889D01*
X13313039Y-17525889D02*
X13303515Y-17487793D01*
X13303515Y-17487793D02*
X13303515Y-17440174D01*
X13303515Y-17440174D02*
X13313039Y-17402079D01*
X13313039Y-17402079D02*
X13322563Y-17383031D01*
X13322563Y-17383031D02*
X13332086Y-17373508D01*
X13332086Y-17373508D02*
X13351134Y-17363984D01*
X13503515Y-17544936D02*
X13513039Y-17554460D01*
X13513039Y-17554460D02*
X13503515Y-17563984D01*
X13503515Y-17563984D02*
X13493991Y-17554460D01*
X13493991Y-17554460D02*
X13503515Y-17544936D01*
X13503515Y-17544936D02*
X13503515Y-17563984D01*
X13589229Y-17383031D02*
X13598753Y-17373508D01*
X13598753Y-17373508D02*
X13617801Y-17363984D01*
X13617801Y-17363984D02*
X13665420Y-17363984D01*
X13665420Y-17363984D02*
X13684467Y-17373508D01*
X13684467Y-17373508D02*
X13693991Y-17383031D01*
X13693991Y-17383031D02*
X13703515Y-17402079D01*
X13703515Y-17402079D02*
X13703515Y-17421127D01*
X13703515Y-17421127D02*
X13693991Y-17449698D01*
X13693991Y-17449698D02*
X13579705Y-17563984D01*
X13579705Y-17563984D02*
X13703515Y-17563984D01*
X13770182Y-17363984D02*
X13903515Y-17363984D01*
X13903515Y-17363984D02*
X13817801Y-17563984D01*
X14074944Y-17363984D02*
X13979705Y-17363984D01*
X13979705Y-17363984D02*
X13970182Y-17459222D01*
X13970182Y-17459222D02*
X13979705Y-17449698D01*
X13979705Y-17449698D02*
X13998753Y-17440174D01*
X13998753Y-17440174D02*
X14046372Y-17440174D01*
X14046372Y-17440174D02*
X14065420Y-17449698D01*
X14065420Y-17449698D02*
X14074944Y-17459222D01*
X14074944Y-17459222D02*
X14084467Y-17478270D01*
X14084467Y-17478270D02*
X14084467Y-17525889D01*
X14084467Y-17525889D02*
X14074944Y-17544936D01*
X14074944Y-17544936D02*
X14065420Y-17554460D01*
X14065420Y-17554460D02*
X14046372Y-17563984D01*
X14046372Y-17563984D02*
X13998753Y-17563984D01*
X13998753Y-17563984D02*
X13979705Y-17554460D01*
X13979705Y-17554460D02*
X13970182Y-17544936D01*
X14255896Y-17363984D02*
X14217801Y-17363984D01*
X14217801Y-17363984D02*
X14198753Y-17373508D01*
X14198753Y-17373508D02*
X14189229Y-17383031D01*
X14189229Y-17383031D02*
X14170182Y-17411603D01*
X14170182Y-17411603D02*
X14160658Y-17449698D01*
X14160658Y-17449698D02*
X14160658Y-17525889D01*
X14160658Y-17525889D02*
X14170182Y-17544936D01*
X14170182Y-17544936D02*
X14179705Y-17554460D01*
X14179705Y-17554460D02*
X14198753Y-17563984D01*
X14198753Y-17563984D02*
X14236848Y-17563984D01*
X14236848Y-17563984D02*
X14255896Y-17554460D01*
X14255896Y-17554460D02*
X14265420Y-17544936D01*
X14265420Y-17544936D02*
X14274944Y-17525889D01*
X14274944Y-17525889D02*
X14274944Y-17478270D01*
X14274944Y-17478270D02*
X14265420Y-17459222D01*
X14265420Y-17459222D02*
X14255896Y-17449698D01*
X14255896Y-17449698D02*
X14236848Y-17440174D01*
X14236848Y-17440174D02*
X14198753Y-17440174D01*
X14198753Y-17440174D02*
X14179705Y-17449698D01*
X14179705Y-17449698D02*
X14170182Y-17459222D01*
X14170182Y-17459222D02*
X14160658Y-17478270D01*
X14351134Y-17363984D02*
X14351134Y-17402079D01*
X14427325Y-17363984D02*
X14427325Y-17402079D01*
X14722563Y-17640174D02*
X14713039Y-17630650D01*
X14713039Y-17630650D02*
X14693991Y-17602079D01*
X14693991Y-17602079D02*
X14684467Y-17583031D01*
X14684467Y-17583031D02*
X14674944Y-17554460D01*
X14674944Y-17554460D02*
X14665420Y-17506841D01*
X14665420Y-17506841D02*
X14665420Y-17468746D01*
X14665420Y-17468746D02*
X14674944Y-17421127D01*
X14674944Y-17421127D02*
X14684467Y-17392555D01*
X14684467Y-17392555D02*
X14693991Y-17373508D01*
X14693991Y-17373508D02*
X14713039Y-17344936D01*
X14713039Y-17344936D02*
X14722563Y-17335412D01*
X14779706Y-17363984D02*
X14903515Y-17363984D01*
X14903515Y-17363984D02*
X14836848Y-17440174D01*
X14836848Y-17440174D02*
X14865420Y-17440174D01*
X14865420Y-17440174D02*
X14884467Y-17449698D01*
X14884467Y-17449698D02*
X14893991Y-17459222D01*
X14893991Y-17459222D02*
X14903515Y-17478270D01*
X14903515Y-17478270D02*
X14903515Y-17525889D01*
X14903515Y-17525889D02*
X14893991Y-17544936D01*
X14893991Y-17544936D02*
X14884467Y-17554460D01*
X14884467Y-17554460D02*
X14865420Y-17563984D01*
X14865420Y-17563984D02*
X14808277Y-17563984D01*
X14808277Y-17563984D02*
X14789229Y-17554460D01*
X14789229Y-17554460D02*
X14779706Y-17544936D01*
X15141610Y-17563984D02*
X15141610Y-17363984D01*
X15227325Y-17563984D02*
X15227325Y-17459222D01*
X15227325Y-17459222D02*
X15217801Y-17440174D01*
X15217801Y-17440174D02*
X15198753Y-17430650D01*
X15198753Y-17430650D02*
X15170182Y-17430650D01*
X15170182Y-17430650D02*
X15151134Y-17440174D01*
X15151134Y-17440174D02*
X15141610Y-17449698D01*
X15351134Y-17563984D02*
X15332087Y-17554460D01*
X15332087Y-17554460D02*
X15322563Y-17544936D01*
X15322563Y-17544936D02*
X15313039Y-17525889D01*
X15313039Y-17525889D02*
X15313039Y-17468746D01*
X15313039Y-17468746D02*
X15322563Y-17449698D01*
X15322563Y-17449698D02*
X15332087Y-17440174D01*
X15332087Y-17440174D02*
X15351134Y-17430650D01*
X15351134Y-17430650D02*
X15379706Y-17430650D01*
X15379706Y-17430650D02*
X15398753Y-17440174D01*
X15398753Y-17440174D02*
X15408277Y-17449698D01*
X15408277Y-17449698D02*
X15417801Y-17468746D01*
X15417801Y-17468746D02*
X15417801Y-17525889D01*
X15417801Y-17525889D02*
X15408277Y-17544936D01*
X15408277Y-17544936D02*
X15398753Y-17554460D01*
X15398753Y-17554460D02*
X15379706Y-17563984D01*
X15379706Y-17563984D02*
X15351134Y-17563984D01*
X15532087Y-17563984D02*
X15513039Y-17554460D01*
X15513039Y-17554460D02*
X15503515Y-17535412D01*
X15503515Y-17535412D02*
X15503515Y-17363984D01*
X15684468Y-17554460D02*
X15665420Y-17563984D01*
X15665420Y-17563984D02*
X15627325Y-17563984D01*
X15627325Y-17563984D02*
X15608277Y-17554460D01*
X15608277Y-17554460D02*
X15598753Y-17535412D01*
X15598753Y-17535412D02*
X15598753Y-17459222D01*
X15598753Y-17459222D02*
X15608277Y-17440174D01*
X15608277Y-17440174D02*
X15627325Y-17430650D01*
X15627325Y-17430650D02*
X15665420Y-17430650D01*
X15665420Y-17430650D02*
X15684468Y-17440174D01*
X15684468Y-17440174D02*
X15693991Y-17459222D01*
X15693991Y-17459222D02*
X15693991Y-17478270D01*
X15693991Y-17478270D02*
X15598753Y-17497317D01*
X15770182Y-17554460D02*
X15789229Y-17563984D01*
X15789229Y-17563984D02*
X15827325Y-17563984D01*
X15827325Y-17563984D02*
X15846372Y-17554460D01*
X15846372Y-17554460D02*
X15855896Y-17535412D01*
X15855896Y-17535412D02*
X15855896Y-17525889D01*
X15855896Y-17525889D02*
X15846372Y-17506841D01*
X15846372Y-17506841D02*
X15827325Y-17497317D01*
X15827325Y-17497317D02*
X15798753Y-17497317D01*
X15798753Y-17497317D02*
X15779706Y-17487793D01*
X15779706Y-17487793D02*
X15770182Y-17468746D01*
X15770182Y-17468746D02*
X15770182Y-17459222D01*
X15770182Y-17459222D02*
X15779706Y-17440174D01*
X15779706Y-17440174D02*
X15798753Y-17430650D01*
X15798753Y-17430650D02*
X15827325Y-17430650D01*
X15827325Y-17430650D02*
X15846372Y-17440174D01*
X15922563Y-17640174D02*
X15932087Y-17630650D01*
X15932087Y-17630650D02*
X15951134Y-17602079D01*
X15951134Y-17602079D02*
X15960658Y-17583031D01*
X15960658Y-17583031D02*
X15970182Y-17554460D01*
X15970182Y-17554460D02*
X15979706Y-17506841D01*
X15979706Y-17506841D02*
X15979706Y-17468746D01*
X15979706Y-17468746D02*
X15970182Y-17421127D01*
X15970182Y-17421127D02*
X15960658Y-17392555D01*
X15960658Y-17392555D02*
X15951134Y-17373508D01*
X15951134Y-17373508D02*
X15932087Y-17344936D01*
X15932087Y-17344936D02*
X15922563Y-17335412D01*
M02*
