%TF.GenerationSoftware,KiCad,Pcbnew,7.0.1.1-36-gbcf78dbe24-dirty-deb11*%
%TF.CreationDate,Date%
%TF.ProjectId,RP2040-VCO,52503230-3430-42d5-9643-4f2e6b696361,rev?*%
%TF.SameCoordinates,Original*%
%TF.FileFunction,Drillmap*%
%TF.FilePolarity,Positive*%
%FSLAX45Y45*%
G04 Gerber Fmt 4.5, Leading zero omitted, Abs format (unit mm)*
G04 Created by KiCad*
%MOMM*%
%LPD*%
G01*
G04 APERTURE LIST*
%ADD10C,0.050000*%
%ADD11C,0.200000*%
%ADD12C,0.100000*%
%ADD13C,0.320000*%
G04 APERTURE END LIST*
D10*
X9400000Y-3650000D02*
X9400000Y-14650000D01*
X7400000Y-3650000D02*
X9400000Y-3650000D01*
X7400000Y-3650000D02*
X7400000Y-14650000D01*
X7400000Y-14650000D02*
X9400000Y-14650000D01*
D11*
D12*
X8596000Y-12500000D02*
X8696000Y-12600000D01*
X8696000Y-12500000D02*
X8596000Y-12600000D01*
D11*
X8056000Y-6350000D02*
G75*
G03*
X8056000Y-6350000I-100000J0D01*
G01*
X8060000Y-4300000D02*
G75*
G03*
X8060000Y-4300000I-100000J0D01*
G01*
X8060000Y-8405000D02*
G75*
G03*
X8060000Y-8405000I-100000J0D01*
G01*
X8936000Y-6350000D02*
G75*
G03*
X8936000Y-6350000I-100000J0D01*
G01*
X8940000Y-4300000D02*
G75*
G03*
X8940000Y-4300000I-100000J0D01*
G01*
X8940000Y-8405000D02*
G75*
G03*
X8940000Y-8405000I-100000J0D01*
G01*
D13*
X9050000Y-9440000D02*
X9050000Y-9760000D01*
X8890000Y-9600000D02*
X9210000Y-9600000D01*
D11*
X7645119Y-14965024D02*
X7645119Y-14765024D01*
X7645119Y-14765024D02*
X7692738Y-14765024D01*
X7692738Y-14765024D02*
X7721309Y-14774548D01*
X7721309Y-14774548D02*
X7740357Y-14793595D01*
X7740357Y-14793595D02*
X7749881Y-14812643D01*
X7749881Y-14812643D02*
X7759405Y-14850738D01*
X7759405Y-14850738D02*
X7759405Y-14879309D01*
X7759405Y-14879309D02*
X7749881Y-14917405D01*
X7749881Y-14917405D02*
X7740357Y-14936452D01*
X7740357Y-14936452D02*
X7721309Y-14955500D01*
X7721309Y-14955500D02*
X7692738Y-14965024D01*
X7692738Y-14965024D02*
X7645119Y-14965024D01*
X7845119Y-14965024D02*
X7845119Y-14831690D01*
X7845119Y-14869786D02*
X7854643Y-14850738D01*
X7854643Y-14850738D02*
X7864167Y-14841214D01*
X7864167Y-14841214D02*
X7883214Y-14831690D01*
X7883214Y-14831690D02*
X7902262Y-14831690D01*
X7968928Y-14965024D02*
X7968928Y-14831690D01*
X7968928Y-14765024D02*
X7959405Y-14774548D01*
X7959405Y-14774548D02*
X7968928Y-14784071D01*
X7968928Y-14784071D02*
X7978452Y-14774548D01*
X7978452Y-14774548D02*
X7968928Y-14765024D01*
X7968928Y-14765024D02*
X7968928Y-14784071D01*
X8092738Y-14965024D02*
X8073690Y-14955500D01*
X8073690Y-14955500D02*
X8064167Y-14936452D01*
X8064167Y-14936452D02*
X8064167Y-14765024D01*
X8197500Y-14965024D02*
X8178452Y-14955500D01*
X8178452Y-14955500D02*
X8168928Y-14936452D01*
X8168928Y-14936452D02*
X8168928Y-14765024D01*
X8426071Y-14965024D02*
X8426071Y-14765024D01*
X8426071Y-14765024D02*
X8492738Y-14907881D01*
X8492738Y-14907881D02*
X8559405Y-14765024D01*
X8559405Y-14765024D02*
X8559405Y-14965024D01*
X8740357Y-14965024D02*
X8740357Y-14860262D01*
X8740357Y-14860262D02*
X8730833Y-14841214D01*
X8730833Y-14841214D02*
X8711786Y-14831690D01*
X8711786Y-14831690D02*
X8673690Y-14831690D01*
X8673690Y-14831690D02*
X8654643Y-14841214D01*
X8740357Y-14955500D02*
X8721310Y-14965024D01*
X8721310Y-14965024D02*
X8673690Y-14965024D01*
X8673690Y-14965024D02*
X8654643Y-14955500D01*
X8654643Y-14955500D02*
X8645119Y-14936452D01*
X8645119Y-14936452D02*
X8645119Y-14917405D01*
X8645119Y-14917405D02*
X8654643Y-14898357D01*
X8654643Y-14898357D02*
X8673690Y-14888833D01*
X8673690Y-14888833D02*
X8721310Y-14888833D01*
X8721310Y-14888833D02*
X8740357Y-14879309D01*
X8835595Y-14831690D02*
X8835595Y-15031690D01*
X8835595Y-14841214D02*
X8854643Y-14831690D01*
X8854643Y-14831690D02*
X8892738Y-14831690D01*
X8892738Y-14831690D02*
X8911786Y-14841214D01*
X8911786Y-14841214D02*
X8921310Y-14850738D01*
X8921310Y-14850738D02*
X8930833Y-14869786D01*
X8930833Y-14869786D02*
X8930833Y-14926928D01*
X8930833Y-14926928D02*
X8921310Y-14945976D01*
X8921310Y-14945976D02*
X8911786Y-14955500D01*
X8911786Y-14955500D02*
X8892738Y-14965024D01*
X8892738Y-14965024D02*
X8854643Y-14965024D01*
X8854643Y-14965024D02*
X8835595Y-14955500D01*
X9016548Y-14945976D02*
X9026071Y-14955500D01*
X9026071Y-14955500D02*
X9016548Y-14965024D01*
X9016548Y-14965024D02*
X9007024Y-14955500D01*
X9007024Y-14955500D02*
X9016548Y-14945976D01*
X9016548Y-14945976D02*
X9016548Y-14965024D01*
X9016548Y-14841214D02*
X9026071Y-14850738D01*
X9026071Y-14850738D02*
X9016548Y-14860262D01*
X9016548Y-14860262D02*
X9007024Y-14850738D01*
X9007024Y-14850738D02*
X9016548Y-14841214D01*
X9016548Y-14841214D02*
X9016548Y-14860262D01*
D12*
X7297500Y-15242500D02*
X7397500Y-15342500D01*
X7397500Y-15242500D02*
X7297500Y-15342500D01*
D11*
X7749881Y-15385024D02*
X7635595Y-15385024D01*
X7692738Y-15385024D02*
X7692738Y-15185024D01*
X7692738Y-15185024D02*
X7673690Y-15213595D01*
X7673690Y-15213595D02*
X7654643Y-15232643D01*
X7654643Y-15232643D02*
X7635595Y-15242167D01*
X7835595Y-15365976D02*
X7845119Y-15375500D01*
X7845119Y-15375500D02*
X7835595Y-15385024D01*
X7835595Y-15385024D02*
X7826071Y-15375500D01*
X7826071Y-15375500D02*
X7835595Y-15365976D01*
X7835595Y-15365976D02*
X7835595Y-15385024D01*
X7968928Y-15185024D02*
X7987976Y-15185024D01*
X7987976Y-15185024D02*
X8007024Y-15194548D01*
X8007024Y-15194548D02*
X8016548Y-15204071D01*
X8016548Y-15204071D02*
X8026071Y-15223119D01*
X8026071Y-15223119D02*
X8035595Y-15261214D01*
X8035595Y-15261214D02*
X8035595Y-15308833D01*
X8035595Y-15308833D02*
X8026071Y-15346928D01*
X8026071Y-15346928D02*
X8016548Y-15365976D01*
X8016548Y-15365976D02*
X8007024Y-15375500D01*
X8007024Y-15375500D02*
X7987976Y-15385024D01*
X7987976Y-15385024D02*
X7968928Y-15385024D01*
X7968928Y-15385024D02*
X7949881Y-15375500D01*
X7949881Y-15375500D02*
X7940357Y-15365976D01*
X7940357Y-15365976D02*
X7930833Y-15346928D01*
X7930833Y-15346928D02*
X7921309Y-15308833D01*
X7921309Y-15308833D02*
X7921309Y-15261214D01*
X7921309Y-15261214D02*
X7930833Y-15223119D01*
X7930833Y-15223119D02*
X7940357Y-15204071D01*
X7940357Y-15204071D02*
X7949881Y-15194548D01*
X7949881Y-15194548D02*
X7968928Y-15185024D01*
X8159405Y-15185024D02*
X8178452Y-15185024D01*
X8178452Y-15185024D02*
X8197500Y-15194548D01*
X8197500Y-15194548D02*
X8207024Y-15204071D01*
X8207024Y-15204071D02*
X8216548Y-15223119D01*
X8216548Y-15223119D02*
X8226071Y-15261214D01*
X8226071Y-15261214D02*
X8226071Y-15308833D01*
X8226071Y-15308833D02*
X8216548Y-15346928D01*
X8216548Y-15346928D02*
X8207024Y-15365976D01*
X8207024Y-15365976D02*
X8197500Y-15375500D01*
X8197500Y-15375500D02*
X8178452Y-15385024D01*
X8178452Y-15385024D02*
X8159405Y-15385024D01*
X8159405Y-15385024D02*
X8140357Y-15375500D01*
X8140357Y-15375500D02*
X8130833Y-15365976D01*
X8130833Y-15365976D02*
X8121309Y-15346928D01*
X8121309Y-15346928D02*
X8111786Y-15308833D01*
X8111786Y-15308833D02*
X8111786Y-15261214D01*
X8111786Y-15261214D02*
X8121309Y-15223119D01*
X8121309Y-15223119D02*
X8130833Y-15204071D01*
X8130833Y-15204071D02*
X8140357Y-15194548D01*
X8140357Y-15194548D02*
X8159405Y-15185024D01*
X8349881Y-15185024D02*
X8368929Y-15185024D01*
X8368929Y-15185024D02*
X8387976Y-15194548D01*
X8387976Y-15194548D02*
X8397500Y-15204071D01*
X8397500Y-15204071D02*
X8407024Y-15223119D01*
X8407024Y-15223119D02*
X8416548Y-15261214D01*
X8416548Y-15261214D02*
X8416548Y-15308833D01*
X8416548Y-15308833D02*
X8407024Y-15346928D01*
X8407024Y-15346928D02*
X8397500Y-15365976D01*
X8397500Y-15365976D02*
X8387976Y-15375500D01*
X8387976Y-15375500D02*
X8368929Y-15385024D01*
X8368929Y-15385024D02*
X8349881Y-15385024D01*
X8349881Y-15385024D02*
X8330833Y-15375500D01*
X8330833Y-15375500D02*
X8321309Y-15365976D01*
X8321309Y-15365976D02*
X8311786Y-15346928D01*
X8311786Y-15346928D02*
X8302262Y-15308833D01*
X8302262Y-15308833D02*
X8302262Y-15261214D01*
X8302262Y-15261214D02*
X8311786Y-15223119D01*
X8311786Y-15223119D02*
X8321309Y-15204071D01*
X8321309Y-15204071D02*
X8330833Y-15194548D01*
X8330833Y-15194548D02*
X8349881Y-15185024D01*
X8502262Y-15385024D02*
X8502262Y-15251690D01*
X8502262Y-15270738D02*
X8511786Y-15261214D01*
X8511786Y-15261214D02*
X8530833Y-15251690D01*
X8530833Y-15251690D02*
X8559405Y-15251690D01*
X8559405Y-15251690D02*
X8578452Y-15261214D01*
X8578452Y-15261214D02*
X8587976Y-15280262D01*
X8587976Y-15280262D02*
X8587976Y-15385024D01*
X8587976Y-15280262D02*
X8597500Y-15261214D01*
X8597500Y-15261214D02*
X8616548Y-15251690D01*
X8616548Y-15251690D02*
X8645119Y-15251690D01*
X8645119Y-15251690D02*
X8664167Y-15261214D01*
X8664167Y-15261214D02*
X8673691Y-15280262D01*
X8673691Y-15280262D02*
X8673691Y-15385024D01*
X8768929Y-15385024D02*
X8768929Y-15251690D01*
X8768929Y-15270738D02*
X8778452Y-15261214D01*
X8778452Y-15261214D02*
X8797500Y-15251690D01*
X8797500Y-15251690D02*
X8826072Y-15251690D01*
X8826072Y-15251690D02*
X8845119Y-15261214D01*
X8845119Y-15261214D02*
X8854643Y-15280262D01*
X8854643Y-15280262D02*
X8854643Y-15385024D01*
X8854643Y-15280262D02*
X8864167Y-15261214D01*
X8864167Y-15261214D02*
X8883214Y-15251690D01*
X8883214Y-15251690D02*
X8911786Y-15251690D01*
X8911786Y-15251690D02*
X8930833Y-15261214D01*
X8930833Y-15261214D02*
X8940357Y-15280262D01*
X8940357Y-15280262D02*
X8940357Y-15385024D01*
X9330833Y-15175500D02*
X9159405Y-15432643D01*
X9587976Y-15185024D02*
X9607024Y-15185024D01*
X9607024Y-15185024D02*
X9626072Y-15194548D01*
X9626072Y-15194548D02*
X9635595Y-15204071D01*
X9635595Y-15204071D02*
X9645119Y-15223119D01*
X9645119Y-15223119D02*
X9654643Y-15261214D01*
X9654643Y-15261214D02*
X9654643Y-15308833D01*
X9654643Y-15308833D02*
X9645119Y-15346928D01*
X9645119Y-15346928D02*
X9635595Y-15365976D01*
X9635595Y-15365976D02*
X9626072Y-15375500D01*
X9626072Y-15375500D02*
X9607024Y-15385024D01*
X9607024Y-15385024D02*
X9587976Y-15385024D01*
X9587976Y-15385024D02*
X9568929Y-15375500D01*
X9568929Y-15375500D02*
X9559405Y-15365976D01*
X9559405Y-15365976D02*
X9549881Y-15346928D01*
X9549881Y-15346928D02*
X9540357Y-15308833D01*
X9540357Y-15308833D02*
X9540357Y-15261214D01*
X9540357Y-15261214D02*
X9549881Y-15223119D01*
X9549881Y-15223119D02*
X9559405Y-15204071D01*
X9559405Y-15204071D02*
X9568929Y-15194548D01*
X9568929Y-15194548D02*
X9587976Y-15185024D01*
X9740357Y-15365976D02*
X9749881Y-15375500D01*
X9749881Y-15375500D02*
X9740357Y-15385024D01*
X9740357Y-15385024D02*
X9730834Y-15375500D01*
X9730834Y-15375500D02*
X9740357Y-15365976D01*
X9740357Y-15365976D02*
X9740357Y-15385024D01*
X9873691Y-15185024D02*
X9892738Y-15185024D01*
X9892738Y-15185024D02*
X9911786Y-15194548D01*
X9911786Y-15194548D02*
X9921310Y-15204071D01*
X9921310Y-15204071D02*
X9930834Y-15223119D01*
X9930834Y-15223119D02*
X9940357Y-15261214D01*
X9940357Y-15261214D02*
X9940357Y-15308833D01*
X9940357Y-15308833D02*
X9930834Y-15346928D01*
X9930834Y-15346928D02*
X9921310Y-15365976D01*
X9921310Y-15365976D02*
X9911786Y-15375500D01*
X9911786Y-15375500D02*
X9892738Y-15385024D01*
X9892738Y-15385024D02*
X9873691Y-15385024D01*
X9873691Y-15385024D02*
X9854643Y-15375500D01*
X9854643Y-15375500D02*
X9845119Y-15365976D01*
X9845119Y-15365976D02*
X9835595Y-15346928D01*
X9835595Y-15346928D02*
X9826072Y-15308833D01*
X9826072Y-15308833D02*
X9826072Y-15261214D01*
X9826072Y-15261214D02*
X9835595Y-15223119D01*
X9835595Y-15223119D02*
X9845119Y-15204071D01*
X9845119Y-15204071D02*
X9854643Y-15194548D01*
X9854643Y-15194548D02*
X9873691Y-15185024D01*
X10007024Y-15185024D02*
X10130834Y-15185024D01*
X10130834Y-15185024D02*
X10064167Y-15261214D01*
X10064167Y-15261214D02*
X10092738Y-15261214D01*
X10092738Y-15261214D02*
X10111786Y-15270738D01*
X10111786Y-15270738D02*
X10121310Y-15280262D01*
X10121310Y-15280262D02*
X10130834Y-15299309D01*
X10130834Y-15299309D02*
X10130834Y-15346928D01*
X10130834Y-15346928D02*
X10121310Y-15365976D01*
X10121310Y-15365976D02*
X10111786Y-15375500D01*
X10111786Y-15375500D02*
X10092738Y-15385024D01*
X10092738Y-15385024D02*
X10035595Y-15385024D01*
X10035595Y-15385024D02*
X10016548Y-15375500D01*
X10016548Y-15375500D02*
X10007024Y-15365976D01*
X10226072Y-15385024D02*
X10264167Y-15385024D01*
X10264167Y-15385024D02*
X10283215Y-15375500D01*
X10283215Y-15375500D02*
X10292738Y-15365976D01*
X10292738Y-15365976D02*
X10311786Y-15337405D01*
X10311786Y-15337405D02*
X10321310Y-15299309D01*
X10321310Y-15299309D02*
X10321310Y-15223119D01*
X10321310Y-15223119D02*
X10311786Y-15204071D01*
X10311786Y-15204071D02*
X10302262Y-15194548D01*
X10302262Y-15194548D02*
X10283215Y-15185024D01*
X10283215Y-15185024D02*
X10245119Y-15185024D01*
X10245119Y-15185024D02*
X10226072Y-15194548D01*
X10226072Y-15194548D02*
X10216548Y-15204071D01*
X10216548Y-15204071D02*
X10207024Y-15223119D01*
X10207024Y-15223119D02*
X10207024Y-15270738D01*
X10207024Y-15270738D02*
X10216548Y-15289786D01*
X10216548Y-15289786D02*
X10226072Y-15299309D01*
X10226072Y-15299309D02*
X10245119Y-15308833D01*
X10245119Y-15308833D02*
X10283215Y-15308833D01*
X10283215Y-15308833D02*
X10302262Y-15299309D01*
X10302262Y-15299309D02*
X10311786Y-15289786D01*
X10311786Y-15289786D02*
X10321310Y-15270738D01*
X10492738Y-15251690D02*
X10492738Y-15385024D01*
X10445119Y-15175500D02*
X10397500Y-15318357D01*
X10397500Y-15318357D02*
X10521310Y-15318357D01*
X10587976Y-15185024D02*
X10587976Y-15223119D01*
X10664167Y-15185024D02*
X10664167Y-15223119D01*
X10959405Y-15461214D02*
X10949881Y-15451690D01*
X10949881Y-15451690D02*
X10930834Y-15423119D01*
X10930834Y-15423119D02*
X10921310Y-15404071D01*
X10921310Y-15404071D02*
X10911786Y-15375500D01*
X10911786Y-15375500D02*
X10902262Y-15327881D01*
X10902262Y-15327881D02*
X10902262Y-15289786D01*
X10902262Y-15289786D02*
X10911786Y-15242167D01*
X10911786Y-15242167D02*
X10921310Y-15213595D01*
X10921310Y-15213595D02*
X10930834Y-15194548D01*
X10930834Y-15194548D02*
X10949881Y-15165976D01*
X10949881Y-15165976D02*
X10959405Y-15156452D01*
X11140357Y-15385024D02*
X11026072Y-15385024D01*
X11083215Y-15385024D02*
X11083215Y-15185024D01*
X11083215Y-15185024D02*
X11064167Y-15213595D01*
X11064167Y-15213595D02*
X11045119Y-15232643D01*
X11045119Y-15232643D02*
X11026072Y-15242167D01*
X11378453Y-15385024D02*
X11378453Y-15185024D01*
X11464167Y-15385024D02*
X11464167Y-15280262D01*
X11464167Y-15280262D02*
X11454643Y-15261214D01*
X11454643Y-15261214D02*
X11435596Y-15251690D01*
X11435596Y-15251690D02*
X11407024Y-15251690D01*
X11407024Y-15251690D02*
X11387976Y-15261214D01*
X11387976Y-15261214D02*
X11378453Y-15270738D01*
X11587976Y-15385024D02*
X11568929Y-15375500D01*
X11568929Y-15375500D02*
X11559405Y-15365976D01*
X11559405Y-15365976D02*
X11549881Y-15346928D01*
X11549881Y-15346928D02*
X11549881Y-15289786D01*
X11549881Y-15289786D02*
X11559405Y-15270738D01*
X11559405Y-15270738D02*
X11568929Y-15261214D01*
X11568929Y-15261214D02*
X11587976Y-15251690D01*
X11587976Y-15251690D02*
X11616548Y-15251690D01*
X11616548Y-15251690D02*
X11635596Y-15261214D01*
X11635596Y-15261214D02*
X11645119Y-15270738D01*
X11645119Y-15270738D02*
X11654643Y-15289786D01*
X11654643Y-15289786D02*
X11654643Y-15346928D01*
X11654643Y-15346928D02*
X11645119Y-15365976D01*
X11645119Y-15365976D02*
X11635596Y-15375500D01*
X11635596Y-15375500D02*
X11616548Y-15385024D01*
X11616548Y-15385024D02*
X11587976Y-15385024D01*
X11768929Y-15385024D02*
X11749881Y-15375500D01*
X11749881Y-15375500D02*
X11740357Y-15356452D01*
X11740357Y-15356452D02*
X11740357Y-15185024D01*
X11921310Y-15375500D02*
X11902262Y-15385024D01*
X11902262Y-15385024D02*
X11864167Y-15385024D01*
X11864167Y-15385024D02*
X11845119Y-15375500D01*
X11845119Y-15375500D02*
X11835596Y-15356452D01*
X11835596Y-15356452D02*
X11835596Y-15280262D01*
X11835596Y-15280262D02*
X11845119Y-15261214D01*
X11845119Y-15261214D02*
X11864167Y-15251690D01*
X11864167Y-15251690D02*
X11902262Y-15251690D01*
X11902262Y-15251690D02*
X11921310Y-15261214D01*
X11921310Y-15261214D02*
X11930834Y-15280262D01*
X11930834Y-15280262D02*
X11930834Y-15299309D01*
X11930834Y-15299309D02*
X11835596Y-15318357D01*
X11997500Y-15461214D02*
X12007024Y-15451690D01*
X12007024Y-15451690D02*
X12026072Y-15423119D01*
X12026072Y-15423119D02*
X12035596Y-15404071D01*
X12035596Y-15404071D02*
X12045119Y-15375500D01*
X12045119Y-15375500D02*
X12054643Y-15327881D01*
X12054643Y-15327881D02*
X12054643Y-15289786D01*
X12054643Y-15289786D02*
X12045119Y-15242167D01*
X12045119Y-15242167D02*
X12035596Y-15213595D01*
X12035596Y-15213595D02*
X12026072Y-15194548D01*
X12026072Y-15194548D02*
X12007024Y-15165976D01*
X12007024Y-15165976D02*
X11997500Y-15156452D01*
X12359405Y-15461214D02*
X12349881Y-15451690D01*
X12349881Y-15451690D02*
X12330834Y-15423119D01*
X12330834Y-15423119D02*
X12321310Y-15404071D01*
X12321310Y-15404071D02*
X12311786Y-15375500D01*
X12311786Y-15375500D02*
X12302262Y-15327881D01*
X12302262Y-15327881D02*
X12302262Y-15289786D01*
X12302262Y-15289786D02*
X12311786Y-15242167D01*
X12311786Y-15242167D02*
X12321310Y-15213595D01*
X12321310Y-15213595D02*
X12330834Y-15194548D01*
X12330834Y-15194548D02*
X12349881Y-15165976D01*
X12349881Y-15165976D02*
X12359405Y-15156452D01*
X12435596Y-15251690D02*
X12435596Y-15385024D01*
X12435596Y-15270738D02*
X12445119Y-15261214D01*
X12445119Y-15261214D02*
X12464167Y-15251690D01*
X12464167Y-15251690D02*
X12492738Y-15251690D01*
X12492738Y-15251690D02*
X12511786Y-15261214D01*
X12511786Y-15261214D02*
X12521310Y-15280262D01*
X12521310Y-15280262D02*
X12521310Y-15385024D01*
X12645119Y-15385024D02*
X12626072Y-15375500D01*
X12626072Y-15375500D02*
X12616548Y-15365976D01*
X12616548Y-15365976D02*
X12607024Y-15346928D01*
X12607024Y-15346928D02*
X12607024Y-15289786D01*
X12607024Y-15289786D02*
X12616548Y-15270738D01*
X12616548Y-15270738D02*
X12626072Y-15261214D01*
X12626072Y-15261214D02*
X12645119Y-15251690D01*
X12645119Y-15251690D02*
X12673691Y-15251690D01*
X12673691Y-15251690D02*
X12692738Y-15261214D01*
X12692738Y-15261214D02*
X12702262Y-15270738D01*
X12702262Y-15270738D02*
X12711786Y-15289786D01*
X12711786Y-15289786D02*
X12711786Y-15346928D01*
X12711786Y-15346928D02*
X12702262Y-15365976D01*
X12702262Y-15365976D02*
X12692738Y-15375500D01*
X12692738Y-15375500D02*
X12673691Y-15385024D01*
X12673691Y-15385024D02*
X12645119Y-15385024D01*
X12768929Y-15251690D02*
X12845119Y-15251690D01*
X12797500Y-15185024D02*
X12797500Y-15356452D01*
X12797500Y-15356452D02*
X12807024Y-15375500D01*
X12807024Y-15375500D02*
X12826072Y-15385024D01*
X12826072Y-15385024D02*
X12845119Y-15385024D01*
X13064167Y-15251690D02*
X13064167Y-15451690D01*
X13064167Y-15261214D02*
X13083215Y-15251690D01*
X13083215Y-15251690D02*
X13121310Y-15251690D01*
X13121310Y-15251690D02*
X13140358Y-15261214D01*
X13140358Y-15261214D02*
X13149881Y-15270738D01*
X13149881Y-15270738D02*
X13159405Y-15289786D01*
X13159405Y-15289786D02*
X13159405Y-15346928D01*
X13159405Y-15346928D02*
X13149881Y-15365976D01*
X13149881Y-15365976D02*
X13140358Y-15375500D01*
X13140358Y-15375500D02*
X13121310Y-15385024D01*
X13121310Y-15385024D02*
X13083215Y-15385024D01*
X13083215Y-15385024D02*
X13064167Y-15375500D01*
X13273691Y-15385024D02*
X13254643Y-15375500D01*
X13254643Y-15375500D02*
X13245119Y-15356452D01*
X13245119Y-15356452D02*
X13245119Y-15185024D01*
X13435596Y-15385024D02*
X13435596Y-15280262D01*
X13435596Y-15280262D02*
X13426072Y-15261214D01*
X13426072Y-15261214D02*
X13407024Y-15251690D01*
X13407024Y-15251690D02*
X13368929Y-15251690D01*
X13368929Y-15251690D02*
X13349881Y-15261214D01*
X13435596Y-15375500D02*
X13416548Y-15385024D01*
X13416548Y-15385024D02*
X13368929Y-15385024D01*
X13368929Y-15385024D02*
X13349881Y-15375500D01*
X13349881Y-15375500D02*
X13340358Y-15356452D01*
X13340358Y-15356452D02*
X13340358Y-15337405D01*
X13340358Y-15337405D02*
X13349881Y-15318357D01*
X13349881Y-15318357D02*
X13368929Y-15308833D01*
X13368929Y-15308833D02*
X13416548Y-15308833D01*
X13416548Y-15308833D02*
X13435596Y-15299309D01*
X13502262Y-15251690D02*
X13578453Y-15251690D01*
X13530834Y-15185024D02*
X13530834Y-15356452D01*
X13530834Y-15356452D02*
X13540358Y-15375500D01*
X13540358Y-15375500D02*
X13559405Y-15385024D01*
X13559405Y-15385024D02*
X13578453Y-15385024D01*
X13721310Y-15375500D02*
X13702262Y-15385024D01*
X13702262Y-15385024D02*
X13664167Y-15385024D01*
X13664167Y-15385024D02*
X13645119Y-15375500D01*
X13645119Y-15375500D02*
X13635596Y-15356452D01*
X13635596Y-15356452D02*
X13635596Y-15280262D01*
X13635596Y-15280262D02*
X13645119Y-15261214D01*
X13645119Y-15261214D02*
X13664167Y-15251690D01*
X13664167Y-15251690D02*
X13702262Y-15251690D01*
X13702262Y-15251690D02*
X13721310Y-15261214D01*
X13721310Y-15261214D02*
X13730834Y-15280262D01*
X13730834Y-15280262D02*
X13730834Y-15299309D01*
X13730834Y-15299309D02*
X13635596Y-15318357D01*
X13902262Y-15385024D02*
X13902262Y-15185024D01*
X13902262Y-15375500D02*
X13883215Y-15385024D01*
X13883215Y-15385024D02*
X13845119Y-15385024D01*
X13845119Y-15385024D02*
X13826072Y-15375500D01*
X13826072Y-15375500D02*
X13816548Y-15365976D01*
X13816548Y-15365976D02*
X13807024Y-15346928D01*
X13807024Y-15346928D02*
X13807024Y-15289786D01*
X13807024Y-15289786D02*
X13816548Y-15270738D01*
X13816548Y-15270738D02*
X13826072Y-15261214D01*
X13826072Y-15261214D02*
X13845119Y-15251690D01*
X13845119Y-15251690D02*
X13883215Y-15251690D01*
X13883215Y-15251690D02*
X13902262Y-15261214D01*
X13978453Y-15461214D02*
X13987977Y-15451690D01*
X13987977Y-15451690D02*
X14007024Y-15423119D01*
X14007024Y-15423119D02*
X14016548Y-15404071D01*
X14016548Y-15404071D02*
X14026072Y-15375500D01*
X14026072Y-15375500D02*
X14035596Y-15327881D01*
X14035596Y-15327881D02*
X14035596Y-15289786D01*
X14035596Y-15289786D02*
X14026072Y-15242167D01*
X14026072Y-15242167D02*
X14016548Y-15213595D01*
X14016548Y-15213595D02*
X14007024Y-15194548D01*
X14007024Y-15194548D02*
X13987977Y-15165976D01*
X13987977Y-15165976D02*
X13978453Y-15156452D01*
X7397500Y-15556500D02*
G75*
G03*
X7397500Y-15556500I-100000J0D01*
G01*
X7635595Y-15468071D02*
X7645119Y-15458548D01*
X7645119Y-15458548D02*
X7664167Y-15449024D01*
X7664167Y-15449024D02*
X7711786Y-15449024D01*
X7711786Y-15449024D02*
X7730833Y-15458548D01*
X7730833Y-15458548D02*
X7740357Y-15468071D01*
X7740357Y-15468071D02*
X7749881Y-15487119D01*
X7749881Y-15487119D02*
X7749881Y-15506167D01*
X7749881Y-15506167D02*
X7740357Y-15534738D01*
X7740357Y-15534738D02*
X7626071Y-15649024D01*
X7626071Y-15649024D02*
X7749881Y-15649024D01*
X7835595Y-15629976D02*
X7845119Y-15639500D01*
X7845119Y-15639500D02*
X7835595Y-15649024D01*
X7835595Y-15649024D02*
X7826071Y-15639500D01*
X7826071Y-15639500D02*
X7835595Y-15629976D01*
X7835595Y-15629976D02*
X7835595Y-15649024D01*
X7968928Y-15449024D02*
X7987976Y-15449024D01*
X7987976Y-15449024D02*
X8007024Y-15458548D01*
X8007024Y-15458548D02*
X8016548Y-15468071D01*
X8016548Y-15468071D02*
X8026071Y-15487119D01*
X8026071Y-15487119D02*
X8035595Y-15525214D01*
X8035595Y-15525214D02*
X8035595Y-15572833D01*
X8035595Y-15572833D02*
X8026071Y-15610928D01*
X8026071Y-15610928D02*
X8016548Y-15629976D01*
X8016548Y-15629976D02*
X8007024Y-15639500D01*
X8007024Y-15639500D02*
X7987976Y-15649024D01*
X7987976Y-15649024D02*
X7968928Y-15649024D01*
X7968928Y-15649024D02*
X7949881Y-15639500D01*
X7949881Y-15639500D02*
X7940357Y-15629976D01*
X7940357Y-15629976D02*
X7930833Y-15610928D01*
X7930833Y-15610928D02*
X7921309Y-15572833D01*
X7921309Y-15572833D02*
X7921309Y-15525214D01*
X7921309Y-15525214D02*
X7930833Y-15487119D01*
X7930833Y-15487119D02*
X7940357Y-15468071D01*
X7940357Y-15468071D02*
X7949881Y-15458548D01*
X7949881Y-15458548D02*
X7968928Y-15449024D01*
X8159405Y-15449024D02*
X8178452Y-15449024D01*
X8178452Y-15449024D02*
X8197500Y-15458548D01*
X8197500Y-15458548D02*
X8207024Y-15468071D01*
X8207024Y-15468071D02*
X8216548Y-15487119D01*
X8216548Y-15487119D02*
X8226071Y-15525214D01*
X8226071Y-15525214D02*
X8226071Y-15572833D01*
X8226071Y-15572833D02*
X8216548Y-15610928D01*
X8216548Y-15610928D02*
X8207024Y-15629976D01*
X8207024Y-15629976D02*
X8197500Y-15639500D01*
X8197500Y-15639500D02*
X8178452Y-15649024D01*
X8178452Y-15649024D02*
X8159405Y-15649024D01*
X8159405Y-15649024D02*
X8140357Y-15639500D01*
X8140357Y-15639500D02*
X8130833Y-15629976D01*
X8130833Y-15629976D02*
X8121309Y-15610928D01*
X8121309Y-15610928D02*
X8111786Y-15572833D01*
X8111786Y-15572833D02*
X8111786Y-15525214D01*
X8111786Y-15525214D02*
X8121309Y-15487119D01*
X8121309Y-15487119D02*
X8130833Y-15468071D01*
X8130833Y-15468071D02*
X8140357Y-15458548D01*
X8140357Y-15458548D02*
X8159405Y-15449024D01*
X8349881Y-15449024D02*
X8368929Y-15449024D01*
X8368929Y-15449024D02*
X8387976Y-15458548D01*
X8387976Y-15458548D02*
X8397500Y-15468071D01*
X8397500Y-15468071D02*
X8407024Y-15487119D01*
X8407024Y-15487119D02*
X8416548Y-15525214D01*
X8416548Y-15525214D02*
X8416548Y-15572833D01*
X8416548Y-15572833D02*
X8407024Y-15610928D01*
X8407024Y-15610928D02*
X8397500Y-15629976D01*
X8397500Y-15629976D02*
X8387976Y-15639500D01*
X8387976Y-15639500D02*
X8368929Y-15649024D01*
X8368929Y-15649024D02*
X8349881Y-15649024D01*
X8349881Y-15649024D02*
X8330833Y-15639500D01*
X8330833Y-15639500D02*
X8321309Y-15629976D01*
X8321309Y-15629976D02*
X8311786Y-15610928D01*
X8311786Y-15610928D02*
X8302262Y-15572833D01*
X8302262Y-15572833D02*
X8302262Y-15525214D01*
X8302262Y-15525214D02*
X8311786Y-15487119D01*
X8311786Y-15487119D02*
X8321309Y-15468071D01*
X8321309Y-15468071D02*
X8330833Y-15458548D01*
X8330833Y-15458548D02*
X8349881Y-15449024D01*
X8502262Y-15649024D02*
X8502262Y-15515690D01*
X8502262Y-15534738D02*
X8511786Y-15525214D01*
X8511786Y-15525214D02*
X8530833Y-15515690D01*
X8530833Y-15515690D02*
X8559405Y-15515690D01*
X8559405Y-15515690D02*
X8578452Y-15525214D01*
X8578452Y-15525214D02*
X8587976Y-15544262D01*
X8587976Y-15544262D02*
X8587976Y-15649024D01*
X8587976Y-15544262D02*
X8597500Y-15525214D01*
X8597500Y-15525214D02*
X8616548Y-15515690D01*
X8616548Y-15515690D02*
X8645119Y-15515690D01*
X8645119Y-15515690D02*
X8664167Y-15525214D01*
X8664167Y-15525214D02*
X8673691Y-15544262D01*
X8673691Y-15544262D02*
X8673691Y-15649024D01*
X8768929Y-15649024D02*
X8768929Y-15515690D01*
X8768929Y-15534738D02*
X8778452Y-15525214D01*
X8778452Y-15525214D02*
X8797500Y-15515690D01*
X8797500Y-15515690D02*
X8826072Y-15515690D01*
X8826072Y-15515690D02*
X8845119Y-15525214D01*
X8845119Y-15525214D02*
X8854643Y-15544262D01*
X8854643Y-15544262D02*
X8854643Y-15649024D01*
X8854643Y-15544262D02*
X8864167Y-15525214D01*
X8864167Y-15525214D02*
X8883214Y-15515690D01*
X8883214Y-15515690D02*
X8911786Y-15515690D01*
X8911786Y-15515690D02*
X8930833Y-15525214D01*
X8930833Y-15525214D02*
X8940357Y-15544262D01*
X8940357Y-15544262D02*
X8940357Y-15649024D01*
X9330833Y-15439500D02*
X9159405Y-15696643D01*
X9587976Y-15449024D02*
X9607024Y-15449024D01*
X9607024Y-15449024D02*
X9626072Y-15458548D01*
X9626072Y-15458548D02*
X9635595Y-15468071D01*
X9635595Y-15468071D02*
X9645119Y-15487119D01*
X9645119Y-15487119D02*
X9654643Y-15525214D01*
X9654643Y-15525214D02*
X9654643Y-15572833D01*
X9654643Y-15572833D02*
X9645119Y-15610928D01*
X9645119Y-15610928D02*
X9635595Y-15629976D01*
X9635595Y-15629976D02*
X9626072Y-15639500D01*
X9626072Y-15639500D02*
X9607024Y-15649024D01*
X9607024Y-15649024D02*
X9587976Y-15649024D01*
X9587976Y-15649024D02*
X9568929Y-15639500D01*
X9568929Y-15639500D02*
X9559405Y-15629976D01*
X9559405Y-15629976D02*
X9549881Y-15610928D01*
X9549881Y-15610928D02*
X9540357Y-15572833D01*
X9540357Y-15572833D02*
X9540357Y-15525214D01*
X9540357Y-15525214D02*
X9549881Y-15487119D01*
X9549881Y-15487119D02*
X9559405Y-15468071D01*
X9559405Y-15468071D02*
X9568929Y-15458548D01*
X9568929Y-15458548D02*
X9587976Y-15449024D01*
X9740357Y-15629976D02*
X9749881Y-15639500D01*
X9749881Y-15639500D02*
X9740357Y-15649024D01*
X9740357Y-15649024D02*
X9730834Y-15639500D01*
X9730834Y-15639500D02*
X9740357Y-15629976D01*
X9740357Y-15629976D02*
X9740357Y-15649024D01*
X9873691Y-15449024D02*
X9892738Y-15449024D01*
X9892738Y-15449024D02*
X9911786Y-15458548D01*
X9911786Y-15458548D02*
X9921310Y-15468071D01*
X9921310Y-15468071D02*
X9930834Y-15487119D01*
X9930834Y-15487119D02*
X9940357Y-15525214D01*
X9940357Y-15525214D02*
X9940357Y-15572833D01*
X9940357Y-15572833D02*
X9930834Y-15610928D01*
X9930834Y-15610928D02*
X9921310Y-15629976D01*
X9921310Y-15629976D02*
X9911786Y-15639500D01*
X9911786Y-15639500D02*
X9892738Y-15649024D01*
X9892738Y-15649024D02*
X9873691Y-15649024D01*
X9873691Y-15649024D02*
X9854643Y-15639500D01*
X9854643Y-15639500D02*
X9845119Y-15629976D01*
X9845119Y-15629976D02*
X9835595Y-15610928D01*
X9835595Y-15610928D02*
X9826072Y-15572833D01*
X9826072Y-15572833D02*
X9826072Y-15525214D01*
X9826072Y-15525214D02*
X9835595Y-15487119D01*
X9835595Y-15487119D02*
X9845119Y-15468071D01*
X9845119Y-15468071D02*
X9854643Y-15458548D01*
X9854643Y-15458548D02*
X9873691Y-15449024D01*
X10007024Y-15449024D02*
X10140357Y-15449024D01*
X10140357Y-15449024D02*
X10054643Y-15649024D01*
X10245119Y-15534738D02*
X10226072Y-15525214D01*
X10226072Y-15525214D02*
X10216548Y-15515690D01*
X10216548Y-15515690D02*
X10207024Y-15496643D01*
X10207024Y-15496643D02*
X10207024Y-15487119D01*
X10207024Y-15487119D02*
X10216548Y-15468071D01*
X10216548Y-15468071D02*
X10226072Y-15458548D01*
X10226072Y-15458548D02*
X10245119Y-15449024D01*
X10245119Y-15449024D02*
X10283215Y-15449024D01*
X10283215Y-15449024D02*
X10302262Y-15458548D01*
X10302262Y-15458548D02*
X10311786Y-15468071D01*
X10311786Y-15468071D02*
X10321310Y-15487119D01*
X10321310Y-15487119D02*
X10321310Y-15496643D01*
X10321310Y-15496643D02*
X10311786Y-15515690D01*
X10311786Y-15515690D02*
X10302262Y-15525214D01*
X10302262Y-15525214D02*
X10283215Y-15534738D01*
X10283215Y-15534738D02*
X10245119Y-15534738D01*
X10245119Y-15534738D02*
X10226072Y-15544262D01*
X10226072Y-15544262D02*
X10216548Y-15553786D01*
X10216548Y-15553786D02*
X10207024Y-15572833D01*
X10207024Y-15572833D02*
X10207024Y-15610928D01*
X10207024Y-15610928D02*
X10216548Y-15629976D01*
X10216548Y-15629976D02*
X10226072Y-15639500D01*
X10226072Y-15639500D02*
X10245119Y-15649024D01*
X10245119Y-15649024D02*
X10283215Y-15649024D01*
X10283215Y-15649024D02*
X10302262Y-15639500D01*
X10302262Y-15639500D02*
X10311786Y-15629976D01*
X10311786Y-15629976D02*
X10321310Y-15610928D01*
X10321310Y-15610928D02*
X10321310Y-15572833D01*
X10321310Y-15572833D02*
X10311786Y-15553786D01*
X10311786Y-15553786D02*
X10302262Y-15544262D01*
X10302262Y-15544262D02*
X10283215Y-15534738D01*
X10387976Y-15449024D02*
X10521310Y-15449024D01*
X10521310Y-15449024D02*
X10435595Y-15649024D01*
X10587976Y-15449024D02*
X10587976Y-15487119D01*
X10664167Y-15449024D02*
X10664167Y-15487119D01*
X10959405Y-15725214D02*
X10949881Y-15715690D01*
X10949881Y-15715690D02*
X10930834Y-15687119D01*
X10930834Y-15687119D02*
X10921310Y-15668071D01*
X10921310Y-15668071D02*
X10911786Y-15639500D01*
X10911786Y-15639500D02*
X10902262Y-15591881D01*
X10902262Y-15591881D02*
X10902262Y-15553786D01*
X10902262Y-15553786D02*
X10911786Y-15506167D01*
X10911786Y-15506167D02*
X10921310Y-15477595D01*
X10921310Y-15477595D02*
X10930834Y-15458548D01*
X10930834Y-15458548D02*
X10949881Y-15429976D01*
X10949881Y-15429976D02*
X10959405Y-15420452D01*
X11121310Y-15449024D02*
X11083215Y-15449024D01*
X11083215Y-15449024D02*
X11064167Y-15458548D01*
X11064167Y-15458548D02*
X11054643Y-15468071D01*
X11054643Y-15468071D02*
X11035596Y-15496643D01*
X11035596Y-15496643D02*
X11026072Y-15534738D01*
X11026072Y-15534738D02*
X11026072Y-15610928D01*
X11026072Y-15610928D02*
X11035596Y-15629976D01*
X11035596Y-15629976D02*
X11045119Y-15639500D01*
X11045119Y-15639500D02*
X11064167Y-15649024D01*
X11064167Y-15649024D02*
X11102262Y-15649024D01*
X11102262Y-15649024D02*
X11121310Y-15639500D01*
X11121310Y-15639500D02*
X11130834Y-15629976D01*
X11130834Y-15629976D02*
X11140357Y-15610928D01*
X11140357Y-15610928D02*
X11140357Y-15563309D01*
X11140357Y-15563309D02*
X11130834Y-15544262D01*
X11130834Y-15544262D02*
X11121310Y-15534738D01*
X11121310Y-15534738D02*
X11102262Y-15525214D01*
X11102262Y-15525214D02*
X11064167Y-15525214D01*
X11064167Y-15525214D02*
X11045119Y-15534738D01*
X11045119Y-15534738D02*
X11035596Y-15544262D01*
X11035596Y-15544262D02*
X11026072Y-15563309D01*
X11378453Y-15649024D02*
X11378453Y-15449024D01*
X11464167Y-15649024D02*
X11464167Y-15544262D01*
X11464167Y-15544262D02*
X11454643Y-15525214D01*
X11454643Y-15525214D02*
X11435596Y-15515690D01*
X11435596Y-15515690D02*
X11407024Y-15515690D01*
X11407024Y-15515690D02*
X11387976Y-15525214D01*
X11387976Y-15525214D02*
X11378453Y-15534738D01*
X11587976Y-15649024D02*
X11568929Y-15639500D01*
X11568929Y-15639500D02*
X11559405Y-15629976D01*
X11559405Y-15629976D02*
X11549881Y-15610928D01*
X11549881Y-15610928D02*
X11549881Y-15553786D01*
X11549881Y-15553786D02*
X11559405Y-15534738D01*
X11559405Y-15534738D02*
X11568929Y-15525214D01*
X11568929Y-15525214D02*
X11587976Y-15515690D01*
X11587976Y-15515690D02*
X11616548Y-15515690D01*
X11616548Y-15515690D02*
X11635596Y-15525214D01*
X11635596Y-15525214D02*
X11645119Y-15534738D01*
X11645119Y-15534738D02*
X11654643Y-15553786D01*
X11654643Y-15553786D02*
X11654643Y-15610928D01*
X11654643Y-15610928D02*
X11645119Y-15629976D01*
X11645119Y-15629976D02*
X11635596Y-15639500D01*
X11635596Y-15639500D02*
X11616548Y-15649024D01*
X11616548Y-15649024D02*
X11587976Y-15649024D01*
X11768929Y-15649024D02*
X11749881Y-15639500D01*
X11749881Y-15639500D02*
X11740357Y-15620452D01*
X11740357Y-15620452D02*
X11740357Y-15449024D01*
X11921310Y-15639500D02*
X11902262Y-15649024D01*
X11902262Y-15649024D02*
X11864167Y-15649024D01*
X11864167Y-15649024D02*
X11845119Y-15639500D01*
X11845119Y-15639500D02*
X11835596Y-15620452D01*
X11835596Y-15620452D02*
X11835596Y-15544262D01*
X11835596Y-15544262D02*
X11845119Y-15525214D01*
X11845119Y-15525214D02*
X11864167Y-15515690D01*
X11864167Y-15515690D02*
X11902262Y-15515690D01*
X11902262Y-15515690D02*
X11921310Y-15525214D01*
X11921310Y-15525214D02*
X11930834Y-15544262D01*
X11930834Y-15544262D02*
X11930834Y-15563309D01*
X11930834Y-15563309D02*
X11835596Y-15582357D01*
X12007024Y-15639500D02*
X12026072Y-15649024D01*
X12026072Y-15649024D02*
X12064167Y-15649024D01*
X12064167Y-15649024D02*
X12083215Y-15639500D01*
X12083215Y-15639500D02*
X12092738Y-15620452D01*
X12092738Y-15620452D02*
X12092738Y-15610928D01*
X12092738Y-15610928D02*
X12083215Y-15591881D01*
X12083215Y-15591881D02*
X12064167Y-15582357D01*
X12064167Y-15582357D02*
X12035596Y-15582357D01*
X12035596Y-15582357D02*
X12016548Y-15572833D01*
X12016548Y-15572833D02*
X12007024Y-15553786D01*
X12007024Y-15553786D02*
X12007024Y-15544262D01*
X12007024Y-15544262D02*
X12016548Y-15525214D01*
X12016548Y-15525214D02*
X12035596Y-15515690D01*
X12035596Y-15515690D02*
X12064167Y-15515690D01*
X12064167Y-15515690D02*
X12083215Y-15525214D01*
X12159405Y-15725214D02*
X12168929Y-15715690D01*
X12168929Y-15715690D02*
X12187977Y-15687119D01*
X12187977Y-15687119D02*
X12197500Y-15668071D01*
X12197500Y-15668071D02*
X12207024Y-15639500D01*
X12207024Y-15639500D02*
X12216548Y-15591881D01*
X12216548Y-15591881D02*
X12216548Y-15553786D01*
X12216548Y-15553786D02*
X12207024Y-15506167D01*
X12207024Y-15506167D02*
X12197500Y-15477595D01*
X12197500Y-15477595D02*
X12187977Y-15458548D01*
X12187977Y-15458548D02*
X12168929Y-15429976D01*
X12168929Y-15429976D02*
X12159405Y-15420452D01*
X12521310Y-15725214D02*
X12511786Y-15715690D01*
X12511786Y-15715690D02*
X12492738Y-15687119D01*
X12492738Y-15687119D02*
X12483215Y-15668071D01*
X12483215Y-15668071D02*
X12473691Y-15639500D01*
X12473691Y-15639500D02*
X12464167Y-15591881D01*
X12464167Y-15591881D02*
X12464167Y-15553786D01*
X12464167Y-15553786D02*
X12473691Y-15506167D01*
X12473691Y-15506167D02*
X12483215Y-15477595D01*
X12483215Y-15477595D02*
X12492738Y-15458548D01*
X12492738Y-15458548D02*
X12511786Y-15429976D01*
X12511786Y-15429976D02*
X12521310Y-15420452D01*
X12597500Y-15515690D02*
X12597500Y-15649024D01*
X12597500Y-15534738D02*
X12607024Y-15525214D01*
X12607024Y-15525214D02*
X12626072Y-15515690D01*
X12626072Y-15515690D02*
X12654643Y-15515690D01*
X12654643Y-15515690D02*
X12673691Y-15525214D01*
X12673691Y-15525214D02*
X12683215Y-15544262D01*
X12683215Y-15544262D02*
X12683215Y-15649024D01*
X12807024Y-15649024D02*
X12787977Y-15639500D01*
X12787977Y-15639500D02*
X12778453Y-15629976D01*
X12778453Y-15629976D02*
X12768929Y-15610928D01*
X12768929Y-15610928D02*
X12768929Y-15553786D01*
X12768929Y-15553786D02*
X12778453Y-15534738D01*
X12778453Y-15534738D02*
X12787977Y-15525214D01*
X12787977Y-15525214D02*
X12807024Y-15515690D01*
X12807024Y-15515690D02*
X12835596Y-15515690D01*
X12835596Y-15515690D02*
X12854643Y-15525214D01*
X12854643Y-15525214D02*
X12864167Y-15534738D01*
X12864167Y-15534738D02*
X12873691Y-15553786D01*
X12873691Y-15553786D02*
X12873691Y-15610928D01*
X12873691Y-15610928D02*
X12864167Y-15629976D01*
X12864167Y-15629976D02*
X12854643Y-15639500D01*
X12854643Y-15639500D02*
X12835596Y-15649024D01*
X12835596Y-15649024D02*
X12807024Y-15649024D01*
X12930834Y-15515690D02*
X13007024Y-15515690D01*
X12959405Y-15449024D02*
X12959405Y-15620452D01*
X12959405Y-15620452D02*
X12968929Y-15639500D01*
X12968929Y-15639500D02*
X12987977Y-15649024D01*
X12987977Y-15649024D02*
X13007024Y-15649024D01*
X13226072Y-15515690D02*
X13226072Y-15715690D01*
X13226072Y-15525214D02*
X13245119Y-15515690D01*
X13245119Y-15515690D02*
X13283215Y-15515690D01*
X13283215Y-15515690D02*
X13302262Y-15525214D01*
X13302262Y-15525214D02*
X13311786Y-15534738D01*
X13311786Y-15534738D02*
X13321310Y-15553786D01*
X13321310Y-15553786D02*
X13321310Y-15610928D01*
X13321310Y-15610928D02*
X13311786Y-15629976D01*
X13311786Y-15629976D02*
X13302262Y-15639500D01*
X13302262Y-15639500D02*
X13283215Y-15649024D01*
X13283215Y-15649024D02*
X13245119Y-15649024D01*
X13245119Y-15649024D02*
X13226072Y-15639500D01*
X13435596Y-15649024D02*
X13416548Y-15639500D01*
X13416548Y-15639500D02*
X13407024Y-15620452D01*
X13407024Y-15620452D02*
X13407024Y-15449024D01*
X13597500Y-15649024D02*
X13597500Y-15544262D01*
X13597500Y-15544262D02*
X13587977Y-15525214D01*
X13587977Y-15525214D02*
X13568929Y-15515690D01*
X13568929Y-15515690D02*
X13530834Y-15515690D01*
X13530834Y-15515690D02*
X13511786Y-15525214D01*
X13597500Y-15639500D02*
X13578453Y-15649024D01*
X13578453Y-15649024D02*
X13530834Y-15649024D01*
X13530834Y-15649024D02*
X13511786Y-15639500D01*
X13511786Y-15639500D02*
X13502262Y-15620452D01*
X13502262Y-15620452D02*
X13502262Y-15601405D01*
X13502262Y-15601405D02*
X13511786Y-15582357D01*
X13511786Y-15582357D02*
X13530834Y-15572833D01*
X13530834Y-15572833D02*
X13578453Y-15572833D01*
X13578453Y-15572833D02*
X13597500Y-15563309D01*
X13664167Y-15515690D02*
X13740358Y-15515690D01*
X13692739Y-15449024D02*
X13692739Y-15620452D01*
X13692739Y-15620452D02*
X13702262Y-15639500D01*
X13702262Y-15639500D02*
X13721310Y-15649024D01*
X13721310Y-15649024D02*
X13740358Y-15649024D01*
X13883215Y-15639500D02*
X13864167Y-15649024D01*
X13864167Y-15649024D02*
X13826072Y-15649024D01*
X13826072Y-15649024D02*
X13807024Y-15639500D01*
X13807024Y-15639500D02*
X13797500Y-15620452D01*
X13797500Y-15620452D02*
X13797500Y-15544262D01*
X13797500Y-15544262D02*
X13807024Y-15525214D01*
X13807024Y-15525214D02*
X13826072Y-15515690D01*
X13826072Y-15515690D02*
X13864167Y-15515690D01*
X13864167Y-15515690D02*
X13883215Y-15525214D01*
X13883215Y-15525214D02*
X13892739Y-15544262D01*
X13892739Y-15544262D02*
X13892739Y-15563309D01*
X13892739Y-15563309D02*
X13797500Y-15582357D01*
X14064167Y-15649024D02*
X14064167Y-15449024D01*
X14064167Y-15639500D02*
X14045120Y-15649024D01*
X14045120Y-15649024D02*
X14007024Y-15649024D01*
X14007024Y-15649024D02*
X13987977Y-15639500D01*
X13987977Y-15639500D02*
X13978453Y-15629976D01*
X13978453Y-15629976D02*
X13968929Y-15610928D01*
X13968929Y-15610928D02*
X13968929Y-15553786D01*
X13968929Y-15553786D02*
X13978453Y-15534738D01*
X13978453Y-15534738D02*
X13987977Y-15525214D01*
X13987977Y-15525214D02*
X14007024Y-15515690D01*
X14007024Y-15515690D02*
X14045120Y-15515690D01*
X14045120Y-15515690D02*
X14064167Y-15525214D01*
X14140358Y-15725214D02*
X14149881Y-15715690D01*
X14149881Y-15715690D02*
X14168929Y-15687119D01*
X14168929Y-15687119D02*
X14178453Y-15668071D01*
X14178453Y-15668071D02*
X14187977Y-15639500D01*
X14187977Y-15639500D02*
X14197500Y-15591881D01*
X14197500Y-15591881D02*
X14197500Y-15553786D01*
X14197500Y-15553786D02*
X14187977Y-15506167D01*
X14187977Y-15506167D02*
X14178453Y-15477595D01*
X14178453Y-15477595D02*
X14168929Y-15458548D01*
X14168929Y-15458548D02*
X14149881Y-15429976D01*
X14149881Y-15429976D02*
X14140358Y-15420452D01*
X7297500Y-15776500D02*
X7297500Y-15976500D01*
X7197500Y-15876500D02*
X7397500Y-15876500D01*
X7626071Y-15769024D02*
X7749881Y-15769024D01*
X7749881Y-15769024D02*
X7683214Y-15845214D01*
X7683214Y-15845214D02*
X7711786Y-15845214D01*
X7711786Y-15845214D02*
X7730833Y-15854738D01*
X7730833Y-15854738D02*
X7740357Y-15864262D01*
X7740357Y-15864262D02*
X7749881Y-15883309D01*
X7749881Y-15883309D02*
X7749881Y-15930928D01*
X7749881Y-15930928D02*
X7740357Y-15949976D01*
X7740357Y-15949976D02*
X7730833Y-15959500D01*
X7730833Y-15959500D02*
X7711786Y-15969024D01*
X7711786Y-15969024D02*
X7654643Y-15969024D01*
X7654643Y-15969024D02*
X7635595Y-15959500D01*
X7635595Y-15959500D02*
X7626071Y-15949976D01*
X7835595Y-15949976D02*
X7845119Y-15959500D01*
X7845119Y-15959500D02*
X7835595Y-15969024D01*
X7835595Y-15969024D02*
X7826071Y-15959500D01*
X7826071Y-15959500D02*
X7835595Y-15949976D01*
X7835595Y-15949976D02*
X7835595Y-15969024D01*
X7921309Y-15788071D02*
X7930833Y-15778548D01*
X7930833Y-15778548D02*
X7949881Y-15769024D01*
X7949881Y-15769024D02*
X7997500Y-15769024D01*
X7997500Y-15769024D02*
X8016548Y-15778548D01*
X8016548Y-15778548D02*
X8026071Y-15788071D01*
X8026071Y-15788071D02*
X8035595Y-15807119D01*
X8035595Y-15807119D02*
X8035595Y-15826167D01*
X8035595Y-15826167D02*
X8026071Y-15854738D01*
X8026071Y-15854738D02*
X7911786Y-15969024D01*
X7911786Y-15969024D02*
X8035595Y-15969024D01*
X8159405Y-15769024D02*
X8178452Y-15769024D01*
X8178452Y-15769024D02*
X8197500Y-15778548D01*
X8197500Y-15778548D02*
X8207024Y-15788071D01*
X8207024Y-15788071D02*
X8216548Y-15807119D01*
X8216548Y-15807119D02*
X8226071Y-15845214D01*
X8226071Y-15845214D02*
X8226071Y-15892833D01*
X8226071Y-15892833D02*
X8216548Y-15930928D01*
X8216548Y-15930928D02*
X8207024Y-15949976D01*
X8207024Y-15949976D02*
X8197500Y-15959500D01*
X8197500Y-15959500D02*
X8178452Y-15969024D01*
X8178452Y-15969024D02*
X8159405Y-15969024D01*
X8159405Y-15969024D02*
X8140357Y-15959500D01*
X8140357Y-15959500D02*
X8130833Y-15949976D01*
X8130833Y-15949976D02*
X8121309Y-15930928D01*
X8121309Y-15930928D02*
X8111786Y-15892833D01*
X8111786Y-15892833D02*
X8111786Y-15845214D01*
X8111786Y-15845214D02*
X8121309Y-15807119D01*
X8121309Y-15807119D02*
X8130833Y-15788071D01*
X8130833Y-15788071D02*
X8140357Y-15778548D01*
X8140357Y-15778548D02*
X8159405Y-15769024D01*
X8349881Y-15769024D02*
X8368929Y-15769024D01*
X8368929Y-15769024D02*
X8387976Y-15778548D01*
X8387976Y-15778548D02*
X8397500Y-15788071D01*
X8397500Y-15788071D02*
X8407024Y-15807119D01*
X8407024Y-15807119D02*
X8416548Y-15845214D01*
X8416548Y-15845214D02*
X8416548Y-15892833D01*
X8416548Y-15892833D02*
X8407024Y-15930928D01*
X8407024Y-15930928D02*
X8397500Y-15949976D01*
X8397500Y-15949976D02*
X8387976Y-15959500D01*
X8387976Y-15959500D02*
X8368929Y-15969024D01*
X8368929Y-15969024D02*
X8349881Y-15969024D01*
X8349881Y-15969024D02*
X8330833Y-15959500D01*
X8330833Y-15959500D02*
X8321309Y-15949976D01*
X8321309Y-15949976D02*
X8311786Y-15930928D01*
X8311786Y-15930928D02*
X8302262Y-15892833D01*
X8302262Y-15892833D02*
X8302262Y-15845214D01*
X8302262Y-15845214D02*
X8311786Y-15807119D01*
X8311786Y-15807119D02*
X8321309Y-15788071D01*
X8321309Y-15788071D02*
X8330833Y-15778548D01*
X8330833Y-15778548D02*
X8349881Y-15769024D01*
X8502262Y-15969024D02*
X8502262Y-15835690D01*
X8502262Y-15854738D02*
X8511786Y-15845214D01*
X8511786Y-15845214D02*
X8530833Y-15835690D01*
X8530833Y-15835690D02*
X8559405Y-15835690D01*
X8559405Y-15835690D02*
X8578452Y-15845214D01*
X8578452Y-15845214D02*
X8587976Y-15864262D01*
X8587976Y-15864262D02*
X8587976Y-15969024D01*
X8587976Y-15864262D02*
X8597500Y-15845214D01*
X8597500Y-15845214D02*
X8616548Y-15835690D01*
X8616548Y-15835690D02*
X8645119Y-15835690D01*
X8645119Y-15835690D02*
X8664167Y-15845214D01*
X8664167Y-15845214D02*
X8673691Y-15864262D01*
X8673691Y-15864262D02*
X8673691Y-15969024D01*
X8768929Y-15969024D02*
X8768929Y-15835690D01*
X8768929Y-15854738D02*
X8778452Y-15845214D01*
X8778452Y-15845214D02*
X8797500Y-15835690D01*
X8797500Y-15835690D02*
X8826072Y-15835690D01*
X8826072Y-15835690D02*
X8845119Y-15845214D01*
X8845119Y-15845214D02*
X8854643Y-15864262D01*
X8854643Y-15864262D02*
X8854643Y-15969024D01*
X8854643Y-15864262D02*
X8864167Y-15845214D01*
X8864167Y-15845214D02*
X8883214Y-15835690D01*
X8883214Y-15835690D02*
X8911786Y-15835690D01*
X8911786Y-15835690D02*
X8930833Y-15845214D01*
X8930833Y-15845214D02*
X8940357Y-15864262D01*
X8940357Y-15864262D02*
X8940357Y-15969024D01*
X9330833Y-15759500D02*
X9159405Y-16016643D01*
X9587976Y-15769024D02*
X9607024Y-15769024D01*
X9607024Y-15769024D02*
X9626072Y-15778548D01*
X9626072Y-15778548D02*
X9635595Y-15788071D01*
X9635595Y-15788071D02*
X9645119Y-15807119D01*
X9645119Y-15807119D02*
X9654643Y-15845214D01*
X9654643Y-15845214D02*
X9654643Y-15892833D01*
X9654643Y-15892833D02*
X9645119Y-15930928D01*
X9645119Y-15930928D02*
X9635595Y-15949976D01*
X9635595Y-15949976D02*
X9626072Y-15959500D01*
X9626072Y-15959500D02*
X9607024Y-15969024D01*
X9607024Y-15969024D02*
X9587976Y-15969024D01*
X9587976Y-15969024D02*
X9568929Y-15959500D01*
X9568929Y-15959500D02*
X9559405Y-15949976D01*
X9559405Y-15949976D02*
X9549881Y-15930928D01*
X9549881Y-15930928D02*
X9540357Y-15892833D01*
X9540357Y-15892833D02*
X9540357Y-15845214D01*
X9540357Y-15845214D02*
X9549881Y-15807119D01*
X9549881Y-15807119D02*
X9559405Y-15788071D01*
X9559405Y-15788071D02*
X9568929Y-15778548D01*
X9568929Y-15778548D02*
X9587976Y-15769024D01*
X9740357Y-15949976D02*
X9749881Y-15959500D01*
X9749881Y-15959500D02*
X9740357Y-15969024D01*
X9740357Y-15969024D02*
X9730834Y-15959500D01*
X9730834Y-15959500D02*
X9740357Y-15949976D01*
X9740357Y-15949976D02*
X9740357Y-15969024D01*
X9940357Y-15969024D02*
X9826072Y-15969024D01*
X9883214Y-15969024D02*
X9883214Y-15769024D01*
X9883214Y-15769024D02*
X9864167Y-15797595D01*
X9864167Y-15797595D02*
X9845119Y-15816643D01*
X9845119Y-15816643D02*
X9826072Y-15826167D01*
X10016548Y-15788071D02*
X10026072Y-15778548D01*
X10026072Y-15778548D02*
X10045119Y-15769024D01*
X10045119Y-15769024D02*
X10092738Y-15769024D01*
X10092738Y-15769024D02*
X10111786Y-15778548D01*
X10111786Y-15778548D02*
X10121310Y-15788071D01*
X10121310Y-15788071D02*
X10130834Y-15807119D01*
X10130834Y-15807119D02*
X10130834Y-15826167D01*
X10130834Y-15826167D02*
X10121310Y-15854738D01*
X10121310Y-15854738D02*
X10007024Y-15969024D01*
X10007024Y-15969024D02*
X10130834Y-15969024D01*
X10302262Y-15769024D02*
X10264167Y-15769024D01*
X10264167Y-15769024D02*
X10245119Y-15778548D01*
X10245119Y-15778548D02*
X10235595Y-15788071D01*
X10235595Y-15788071D02*
X10216548Y-15816643D01*
X10216548Y-15816643D02*
X10207024Y-15854738D01*
X10207024Y-15854738D02*
X10207024Y-15930928D01*
X10207024Y-15930928D02*
X10216548Y-15949976D01*
X10216548Y-15949976D02*
X10226072Y-15959500D01*
X10226072Y-15959500D02*
X10245119Y-15969024D01*
X10245119Y-15969024D02*
X10283215Y-15969024D01*
X10283215Y-15969024D02*
X10302262Y-15959500D01*
X10302262Y-15959500D02*
X10311786Y-15949976D01*
X10311786Y-15949976D02*
X10321310Y-15930928D01*
X10321310Y-15930928D02*
X10321310Y-15883309D01*
X10321310Y-15883309D02*
X10311786Y-15864262D01*
X10311786Y-15864262D02*
X10302262Y-15854738D01*
X10302262Y-15854738D02*
X10283215Y-15845214D01*
X10283215Y-15845214D02*
X10245119Y-15845214D01*
X10245119Y-15845214D02*
X10226072Y-15854738D01*
X10226072Y-15854738D02*
X10216548Y-15864262D01*
X10216548Y-15864262D02*
X10207024Y-15883309D01*
X10445119Y-15769024D02*
X10464167Y-15769024D01*
X10464167Y-15769024D02*
X10483215Y-15778548D01*
X10483215Y-15778548D02*
X10492738Y-15788071D01*
X10492738Y-15788071D02*
X10502262Y-15807119D01*
X10502262Y-15807119D02*
X10511786Y-15845214D01*
X10511786Y-15845214D02*
X10511786Y-15892833D01*
X10511786Y-15892833D02*
X10502262Y-15930928D01*
X10502262Y-15930928D02*
X10492738Y-15949976D01*
X10492738Y-15949976D02*
X10483215Y-15959500D01*
X10483215Y-15959500D02*
X10464167Y-15969024D01*
X10464167Y-15969024D02*
X10445119Y-15969024D01*
X10445119Y-15969024D02*
X10426072Y-15959500D01*
X10426072Y-15959500D02*
X10416548Y-15949976D01*
X10416548Y-15949976D02*
X10407024Y-15930928D01*
X10407024Y-15930928D02*
X10397500Y-15892833D01*
X10397500Y-15892833D02*
X10397500Y-15845214D01*
X10397500Y-15845214D02*
X10407024Y-15807119D01*
X10407024Y-15807119D02*
X10416548Y-15788071D01*
X10416548Y-15788071D02*
X10426072Y-15778548D01*
X10426072Y-15778548D02*
X10445119Y-15769024D01*
X10587976Y-15769024D02*
X10587976Y-15807119D01*
X10664167Y-15769024D02*
X10664167Y-15807119D01*
X10959405Y-16045214D02*
X10949881Y-16035690D01*
X10949881Y-16035690D02*
X10930834Y-16007119D01*
X10930834Y-16007119D02*
X10921310Y-15988071D01*
X10921310Y-15988071D02*
X10911786Y-15959500D01*
X10911786Y-15959500D02*
X10902262Y-15911881D01*
X10902262Y-15911881D02*
X10902262Y-15873786D01*
X10902262Y-15873786D02*
X10911786Y-15826167D01*
X10911786Y-15826167D02*
X10921310Y-15797595D01*
X10921310Y-15797595D02*
X10930834Y-15778548D01*
X10930834Y-15778548D02*
X10949881Y-15749976D01*
X10949881Y-15749976D02*
X10959405Y-15740452D01*
X11140357Y-15969024D02*
X11026072Y-15969024D01*
X11083215Y-15969024D02*
X11083215Y-15769024D01*
X11083215Y-15769024D02*
X11064167Y-15797595D01*
X11064167Y-15797595D02*
X11045119Y-15816643D01*
X11045119Y-15816643D02*
X11026072Y-15826167D01*
X11378453Y-15969024D02*
X11378453Y-15769024D01*
X11464167Y-15969024D02*
X11464167Y-15864262D01*
X11464167Y-15864262D02*
X11454643Y-15845214D01*
X11454643Y-15845214D02*
X11435596Y-15835690D01*
X11435596Y-15835690D02*
X11407024Y-15835690D01*
X11407024Y-15835690D02*
X11387976Y-15845214D01*
X11387976Y-15845214D02*
X11378453Y-15854738D01*
X11587976Y-15969024D02*
X11568929Y-15959500D01*
X11568929Y-15959500D02*
X11559405Y-15949976D01*
X11559405Y-15949976D02*
X11549881Y-15930928D01*
X11549881Y-15930928D02*
X11549881Y-15873786D01*
X11549881Y-15873786D02*
X11559405Y-15854738D01*
X11559405Y-15854738D02*
X11568929Y-15845214D01*
X11568929Y-15845214D02*
X11587976Y-15835690D01*
X11587976Y-15835690D02*
X11616548Y-15835690D01*
X11616548Y-15835690D02*
X11635596Y-15845214D01*
X11635596Y-15845214D02*
X11645119Y-15854738D01*
X11645119Y-15854738D02*
X11654643Y-15873786D01*
X11654643Y-15873786D02*
X11654643Y-15930928D01*
X11654643Y-15930928D02*
X11645119Y-15949976D01*
X11645119Y-15949976D02*
X11635596Y-15959500D01*
X11635596Y-15959500D02*
X11616548Y-15969024D01*
X11616548Y-15969024D02*
X11587976Y-15969024D01*
X11768929Y-15969024D02*
X11749881Y-15959500D01*
X11749881Y-15959500D02*
X11740357Y-15940452D01*
X11740357Y-15940452D02*
X11740357Y-15769024D01*
X11921310Y-15959500D02*
X11902262Y-15969024D01*
X11902262Y-15969024D02*
X11864167Y-15969024D01*
X11864167Y-15969024D02*
X11845119Y-15959500D01*
X11845119Y-15959500D02*
X11835596Y-15940452D01*
X11835596Y-15940452D02*
X11835596Y-15864262D01*
X11835596Y-15864262D02*
X11845119Y-15845214D01*
X11845119Y-15845214D02*
X11864167Y-15835690D01*
X11864167Y-15835690D02*
X11902262Y-15835690D01*
X11902262Y-15835690D02*
X11921310Y-15845214D01*
X11921310Y-15845214D02*
X11930834Y-15864262D01*
X11930834Y-15864262D02*
X11930834Y-15883309D01*
X11930834Y-15883309D02*
X11835596Y-15902357D01*
X11997500Y-16045214D02*
X12007024Y-16035690D01*
X12007024Y-16035690D02*
X12026072Y-16007119D01*
X12026072Y-16007119D02*
X12035596Y-15988071D01*
X12035596Y-15988071D02*
X12045119Y-15959500D01*
X12045119Y-15959500D02*
X12054643Y-15911881D01*
X12054643Y-15911881D02*
X12054643Y-15873786D01*
X12054643Y-15873786D02*
X12045119Y-15826167D01*
X12045119Y-15826167D02*
X12035596Y-15797595D01*
X12035596Y-15797595D02*
X12026072Y-15778548D01*
X12026072Y-15778548D02*
X12007024Y-15749976D01*
X12007024Y-15749976D02*
X11997500Y-15740452D01*
X12359405Y-16045214D02*
X12349881Y-16035690D01*
X12349881Y-16035690D02*
X12330834Y-16007119D01*
X12330834Y-16007119D02*
X12321310Y-15988071D01*
X12321310Y-15988071D02*
X12311786Y-15959500D01*
X12311786Y-15959500D02*
X12302262Y-15911881D01*
X12302262Y-15911881D02*
X12302262Y-15873786D01*
X12302262Y-15873786D02*
X12311786Y-15826167D01*
X12311786Y-15826167D02*
X12321310Y-15797595D01*
X12321310Y-15797595D02*
X12330834Y-15778548D01*
X12330834Y-15778548D02*
X12349881Y-15749976D01*
X12349881Y-15749976D02*
X12359405Y-15740452D01*
X12435596Y-15835690D02*
X12435596Y-15969024D01*
X12435596Y-15854738D02*
X12445119Y-15845214D01*
X12445119Y-15845214D02*
X12464167Y-15835690D01*
X12464167Y-15835690D02*
X12492738Y-15835690D01*
X12492738Y-15835690D02*
X12511786Y-15845214D01*
X12511786Y-15845214D02*
X12521310Y-15864262D01*
X12521310Y-15864262D02*
X12521310Y-15969024D01*
X12645119Y-15969024D02*
X12626072Y-15959500D01*
X12626072Y-15959500D02*
X12616548Y-15949976D01*
X12616548Y-15949976D02*
X12607024Y-15930928D01*
X12607024Y-15930928D02*
X12607024Y-15873786D01*
X12607024Y-15873786D02*
X12616548Y-15854738D01*
X12616548Y-15854738D02*
X12626072Y-15845214D01*
X12626072Y-15845214D02*
X12645119Y-15835690D01*
X12645119Y-15835690D02*
X12673691Y-15835690D01*
X12673691Y-15835690D02*
X12692738Y-15845214D01*
X12692738Y-15845214D02*
X12702262Y-15854738D01*
X12702262Y-15854738D02*
X12711786Y-15873786D01*
X12711786Y-15873786D02*
X12711786Y-15930928D01*
X12711786Y-15930928D02*
X12702262Y-15949976D01*
X12702262Y-15949976D02*
X12692738Y-15959500D01*
X12692738Y-15959500D02*
X12673691Y-15969024D01*
X12673691Y-15969024D02*
X12645119Y-15969024D01*
X12768929Y-15835690D02*
X12845119Y-15835690D01*
X12797500Y-15769024D02*
X12797500Y-15940452D01*
X12797500Y-15940452D02*
X12807024Y-15959500D01*
X12807024Y-15959500D02*
X12826072Y-15969024D01*
X12826072Y-15969024D02*
X12845119Y-15969024D01*
X13064167Y-15835690D02*
X13064167Y-16035690D01*
X13064167Y-15845214D02*
X13083215Y-15835690D01*
X13083215Y-15835690D02*
X13121310Y-15835690D01*
X13121310Y-15835690D02*
X13140358Y-15845214D01*
X13140358Y-15845214D02*
X13149881Y-15854738D01*
X13149881Y-15854738D02*
X13159405Y-15873786D01*
X13159405Y-15873786D02*
X13159405Y-15930928D01*
X13159405Y-15930928D02*
X13149881Y-15949976D01*
X13149881Y-15949976D02*
X13140358Y-15959500D01*
X13140358Y-15959500D02*
X13121310Y-15969024D01*
X13121310Y-15969024D02*
X13083215Y-15969024D01*
X13083215Y-15969024D02*
X13064167Y-15959500D01*
X13273691Y-15969024D02*
X13254643Y-15959500D01*
X13254643Y-15959500D02*
X13245119Y-15940452D01*
X13245119Y-15940452D02*
X13245119Y-15769024D01*
X13435596Y-15969024D02*
X13435596Y-15864262D01*
X13435596Y-15864262D02*
X13426072Y-15845214D01*
X13426072Y-15845214D02*
X13407024Y-15835690D01*
X13407024Y-15835690D02*
X13368929Y-15835690D01*
X13368929Y-15835690D02*
X13349881Y-15845214D01*
X13435596Y-15959500D02*
X13416548Y-15969024D01*
X13416548Y-15969024D02*
X13368929Y-15969024D01*
X13368929Y-15969024D02*
X13349881Y-15959500D01*
X13349881Y-15959500D02*
X13340358Y-15940452D01*
X13340358Y-15940452D02*
X13340358Y-15921405D01*
X13340358Y-15921405D02*
X13349881Y-15902357D01*
X13349881Y-15902357D02*
X13368929Y-15892833D01*
X13368929Y-15892833D02*
X13416548Y-15892833D01*
X13416548Y-15892833D02*
X13435596Y-15883309D01*
X13502262Y-15835690D02*
X13578453Y-15835690D01*
X13530834Y-15769024D02*
X13530834Y-15940452D01*
X13530834Y-15940452D02*
X13540358Y-15959500D01*
X13540358Y-15959500D02*
X13559405Y-15969024D01*
X13559405Y-15969024D02*
X13578453Y-15969024D01*
X13721310Y-15959500D02*
X13702262Y-15969024D01*
X13702262Y-15969024D02*
X13664167Y-15969024D01*
X13664167Y-15969024D02*
X13645119Y-15959500D01*
X13645119Y-15959500D02*
X13635596Y-15940452D01*
X13635596Y-15940452D02*
X13635596Y-15864262D01*
X13635596Y-15864262D02*
X13645119Y-15845214D01*
X13645119Y-15845214D02*
X13664167Y-15835690D01*
X13664167Y-15835690D02*
X13702262Y-15835690D01*
X13702262Y-15835690D02*
X13721310Y-15845214D01*
X13721310Y-15845214D02*
X13730834Y-15864262D01*
X13730834Y-15864262D02*
X13730834Y-15883309D01*
X13730834Y-15883309D02*
X13635596Y-15902357D01*
X13902262Y-15969024D02*
X13902262Y-15769024D01*
X13902262Y-15959500D02*
X13883215Y-15969024D01*
X13883215Y-15969024D02*
X13845119Y-15969024D01*
X13845119Y-15969024D02*
X13826072Y-15959500D01*
X13826072Y-15959500D02*
X13816548Y-15949976D01*
X13816548Y-15949976D02*
X13807024Y-15930928D01*
X13807024Y-15930928D02*
X13807024Y-15873786D01*
X13807024Y-15873786D02*
X13816548Y-15854738D01*
X13816548Y-15854738D02*
X13826072Y-15845214D01*
X13826072Y-15845214D02*
X13845119Y-15835690D01*
X13845119Y-15835690D02*
X13883215Y-15835690D01*
X13883215Y-15835690D02*
X13902262Y-15845214D01*
X13978453Y-16045214D02*
X13987977Y-16035690D01*
X13987977Y-16035690D02*
X14007024Y-16007119D01*
X14007024Y-16007119D02*
X14016548Y-15988071D01*
X14016548Y-15988071D02*
X14026072Y-15959500D01*
X14026072Y-15959500D02*
X14035596Y-15911881D01*
X14035596Y-15911881D02*
X14035596Y-15873786D01*
X14035596Y-15873786D02*
X14026072Y-15826167D01*
X14026072Y-15826167D02*
X14016548Y-15797595D01*
X14016548Y-15797595D02*
X14007024Y-15778548D01*
X14007024Y-15778548D02*
X13987977Y-15749976D01*
X13987977Y-15749976D02*
X13978453Y-15740452D01*
M02*
