G04 #@! TF.GenerationSoftware,KiCad,Pcbnew,6.0.10+dfsg-1~bpo11+1*
G04 #@! TF.CreationDate,2023-02-18T13:34:48+00:00*
G04 #@! TF.ProjectId,RP2040-VCO,52503230-3430-42d5-9643-4f2e6b696361,rev?*
G04 #@! TF.SameCoordinates,Original*
G04 #@! TF.FileFunction,Legend,Top*
G04 #@! TF.FilePolarity,Positive*
%FSLAX46Y46*%
G04 Gerber Fmt 4.6, Leading zero omitted, Abs format (unit mm)*
G04 Created by KiCad (PCBNEW 6.0.10+dfsg-1~bpo11+1) date 2023-02-18 13:34:48*
%MOMM*%
%LPD*%
G01*
G04 APERTURE LIST*
%ADD10C,0.150000*%
%ADD11C,0.120000*%
%ADD12R,1.930000X1.830000*%
%ADD13C,2.130000*%
%ADD14C,4.000000*%
%ADD15C,1.800000*%
%ADD16C,1.500000*%
%ADD17C,1.524000*%
%ADD18O,3.200000X5.000000*%
%ADD19R,1.700000X1.700000*%
%ADD20O,1.700000X1.700000*%
G04 APERTURE END LIST*
D10*
X80071428Y-93842380D02*
X79738095Y-93366190D01*
X79500000Y-93842380D02*
X79500000Y-92842380D01*
X79880952Y-92842380D01*
X79976190Y-92890000D01*
X80023809Y-92937619D01*
X80071428Y-93032857D01*
X80071428Y-93175714D01*
X80023809Y-93270952D01*
X79976190Y-93318571D01*
X79880952Y-93366190D01*
X79500000Y-93366190D01*
X80500000Y-93842380D02*
X80500000Y-92842380D01*
X80880952Y-92842380D01*
X80976190Y-92890000D01*
X81023809Y-92937619D01*
X81071428Y-93032857D01*
X81071428Y-93175714D01*
X81023809Y-93270952D01*
X80976190Y-93318571D01*
X80880952Y-93366190D01*
X80500000Y-93366190D01*
X81452380Y-92937619D02*
X81500000Y-92890000D01*
X81595238Y-92842380D01*
X81833333Y-92842380D01*
X81928571Y-92890000D01*
X81976190Y-92937619D01*
X82023809Y-93032857D01*
X82023809Y-93128095D01*
X81976190Y-93270952D01*
X81404761Y-93842380D01*
X82023809Y-93842380D01*
X82642857Y-92842380D02*
X82738095Y-92842380D01*
X82833333Y-92890000D01*
X82880952Y-92937619D01*
X82928571Y-93032857D01*
X82976190Y-93223333D01*
X82976190Y-93461428D01*
X82928571Y-93651904D01*
X82880952Y-93747142D01*
X82833333Y-93794761D01*
X82738095Y-93842380D01*
X82642857Y-93842380D01*
X82547619Y-93794761D01*
X82500000Y-93747142D01*
X82452380Y-93651904D01*
X82404761Y-93461428D01*
X82404761Y-93223333D01*
X82452380Y-93032857D01*
X82500000Y-92937619D01*
X82547619Y-92890000D01*
X82642857Y-92842380D01*
X83833333Y-93175714D02*
X83833333Y-93842380D01*
X83595238Y-92794761D02*
X83357142Y-93509047D01*
X83976190Y-93509047D01*
X84547619Y-92842380D02*
X84642857Y-92842380D01*
X84738095Y-92890000D01*
X84785714Y-92937619D01*
X84833333Y-93032857D01*
X84880952Y-93223333D01*
X84880952Y-93461428D01*
X84833333Y-93651904D01*
X84785714Y-93747142D01*
X84738095Y-93794761D01*
X84642857Y-93842380D01*
X84547619Y-93842380D01*
X84452380Y-93794761D01*
X84404761Y-93747142D01*
X84357142Y-93651904D01*
X84309523Y-93461428D01*
X84309523Y-93223333D01*
X84357142Y-93032857D01*
X84404761Y-92937619D01*
X84452380Y-92890000D01*
X84547619Y-92842380D01*
X85928571Y-92842380D02*
X86261904Y-93842380D01*
X86595238Y-92842380D01*
X87500000Y-93747142D02*
X87452380Y-93794761D01*
X87309523Y-93842380D01*
X87214285Y-93842380D01*
X87071428Y-93794761D01*
X86976190Y-93699523D01*
X86928571Y-93604285D01*
X86880952Y-93413809D01*
X86880952Y-93270952D01*
X86928571Y-93080476D01*
X86976190Y-92985238D01*
X87071428Y-92890000D01*
X87214285Y-92842380D01*
X87309523Y-92842380D01*
X87452380Y-92890000D01*
X87500000Y-92937619D01*
X88119047Y-92842380D02*
X88309523Y-92842380D01*
X88404761Y-92890000D01*
X88500000Y-92985238D01*
X88547619Y-93175714D01*
X88547619Y-93509047D01*
X88500000Y-93699523D01*
X88404761Y-93794761D01*
X88309523Y-93842380D01*
X88119047Y-93842380D01*
X88023809Y-93794761D01*
X87928571Y-93699523D01*
X87880952Y-93509047D01*
X87880952Y-93175714D01*
X87928571Y-92985238D01*
X88023809Y-92890000D01*
X88119047Y-92842380D01*
X77738095Y-94452380D02*
X78071428Y-95452380D01*
X78404761Y-94452380D01*
X79261904Y-95452380D02*
X78690476Y-95452380D01*
X78976190Y-95452380D02*
X78976190Y-94452380D01*
X78880952Y-94595238D01*
X78785714Y-94690476D01*
X78690476Y-94738095D01*
X79690476Y-95357142D02*
X79738095Y-95404761D01*
X79690476Y-95452380D01*
X79642857Y-95404761D01*
X79690476Y-95357142D01*
X79690476Y-95452380D01*
X80357142Y-94452380D02*
X80452380Y-94452380D01*
X80547619Y-94500000D01*
X80595238Y-94547619D01*
X80642857Y-94642857D01*
X80690476Y-94833333D01*
X80690476Y-95071428D01*
X80642857Y-95261904D01*
X80595238Y-95357142D01*
X80547619Y-95404761D01*
X80452380Y-95452380D01*
X80357142Y-95452380D01*
X80261904Y-95404761D01*
X80214285Y-95357142D01*
X80166666Y-95261904D01*
X80119047Y-95071428D01*
X80119047Y-94833333D01*
X80166666Y-94642857D01*
X80214285Y-94547619D01*
X80261904Y-94500000D01*
X80357142Y-94452380D01*
X82214285Y-94928571D02*
X82357142Y-94976190D01*
X82404761Y-95023809D01*
X82452380Y-95119047D01*
X82452380Y-95261904D01*
X82404761Y-95357142D01*
X82357142Y-95404761D01*
X82261904Y-95452380D01*
X81880952Y-95452380D01*
X81880952Y-94452380D01*
X82214285Y-94452380D01*
X82309523Y-94500000D01*
X82357142Y-94547619D01*
X82404761Y-94642857D01*
X82404761Y-94738095D01*
X82357142Y-94833333D01*
X82309523Y-94880952D01*
X82214285Y-94928571D01*
X81880952Y-94928571D01*
X83023809Y-95452380D02*
X82928571Y-95404761D01*
X82880952Y-95309523D01*
X82880952Y-94452380D01*
X83785714Y-95404761D02*
X83690476Y-95452380D01*
X83500000Y-95452380D01*
X83404761Y-95404761D01*
X83357142Y-95309523D01*
X83357142Y-94928571D01*
X83404761Y-94833333D01*
X83500000Y-94785714D01*
X83690476Y-94785714D01*
X83785714Y-94833333D01*
X83833333Y-94928571D01*
X83833333Y-95023809D01*
X83357142Y-95119047D01*
X84642857Y-95404761D02*
X84547619Y-95452380D01*
X84357142Y-95452380D01*
X84261904Y-95404761D01*
X84214285Y-95309523D01*
X84214285Y-94928571D01*
X84261904Y-94833333D01*
X84357142Y-94785714D01*
X84547619Y-94785714D01*
X84642857Y-94833333D01*
X84690476Y-94928571D01*
X84690476Y-95023809D01*
X84214285Y-95119047D01*
X85119047Y-94785714D02*
X85119047Y-95785714D01*
X85119047Y-94833333D02*
X85214285Y-94785714D01*
X85404761Y-94785714D01*
X85500000Y-94833333D01*
X85547619Y-94880952D01*
X85595238Y-94976190D01*
X85595238Y-95261904D01*
X85547619Y-95357142D01*
X85500000Y-95404761D01*
X85404761Y-95452380D01*
X85214285Y-95452380D01*
X85119047Y-95404761D01*
X85976190Y-95404761D02*
X86119047Y-95452380D01*
X86357142Y-95452380D01*
X86452380Y-95404761D01*
X86500000Y-95357142D01*
X86547619Y-95261904D01*
X86547619Y-95166666D01*
X86500000Y-95071428D01*
X86452380Y-95023809D01*
X86357142Y-94976190D01*
X86166666Y-94928571D01*
X86071428Y-94880952D01*
X86023809Y-94833333D01*
X85976190Y-94738095D01*
X85976190Y-94642857D01*
X86023809Y-94547619D01*
X86071428Y-94500000D01*
X86166666Y-94452380D01*
X86404761Y-94452380D01*
X86547619Y-94500000D01*
X87119047Y-95452380D02*
X87023809Y-95404761D01*
X86976190Y-95357142D01*
X86928571Y-95261904D01*
X86928571Y-94976190D01*
X86976190Y-94880952D01*
X87023809Y-94833333D01*
X87119047Y-94785714D01*
X87261904Y-94785714D01*
X87357142Y-94833333D01*
X87404761Y-94880952D01*
X87452380Y-94976190D01*
X87452380Y-95261904D01*
X87404761Y-95357142D01*
X87357142Y-95404761D01*
X87261904Y-95452380D01*
X87119047Y-95452380D01*
X88309523Y-94785714D02*
X88309523Y-95452380D01*
X87880952Y-94785714D02*
X87880952Y-95309523D01*
X87928571Y-95404761D01*
X88023809Y-95452380D01*
X88166666Y-95452380D01*
X88261904Y-95404761D01*
X88309523Y-95357142D01*
X88785714Y-94785714D02*
X88785714Y-95452380D01*
X88785714Y-94880952D02*
X88833333Y-94833333D01*
X88928571Y-94785714D01*
X89071428Y-94785714D01*
X89166666Y-94833333D01*
X89214285Y-94928571D01*
X89214285Y-95452380D01*
X90119047Y-95452380D02*
X90119047Y-94452380D01*
X90119047Y-95404761D02*
X90023809Y-95452380D01*
X89833333Y-95452380D01*
X89738095Y-95404761D01*
X89690476Y-95357142D01*
X89642857Y-95261904D01*
X89642857Y-94976190D01*
X89690476Y-94880952D01*
X89738095Y-94833333D01*
X89833333Y-94785714D01*
X90023809Y-94785714D01*
X90119047Y-94833333D01*
X82285714Y-96157619D02*
X82333333Y-96110000D01*
X82428571Y-96062380D01*
X82666666Y-96062380D01*
X82761904Y-96110000D01*
X82809523Y-96157619D01*
X82857142Y-96252857D01*
X82857142Y-96348095D01*
X82809523Y-96490952D01*
X82238095Y-97062380D01*
X82857142Y-97062380D01*
X83476190Y-96062380D02*
X83571428Y-96062380D01*
X83666666Y-96110000D01*
X83714285Y-96157619D01*
X83761904Y-96252857D01*
X83809523Y-96443333D01*
X83809523Y-96681428D01*
X83761904Y-96871904D01*
X83714285Y-96967142D01*
X83666666Y-97014761D01*
X83571428Y-97062380D01*
X83476190Y-97062380D01*
X83380952Y-97014761D01*
X83333333Y-96967142D01*
X83285714Y-96871904D01*
X83238095Y-96681428D01*
X83238095Y-96443333D01*
X83285714Y-96252857D01*
X83333333Y-96157619D01*
X83380952Y-96110000D01*
X83476190Y-96062380D01*
X84190476Y-96157619D02*
X84238095Y-96110000D01*
X84333333Y-96062380D01*
X84571428Y-96062380D01*
X84666666Y-96110000D01*
X84714285Y-96157619D01*
X84761904Y-96252857D01*
X84761904Y-96348095D01*
X84714285Y-96490952D01*
X84142857Y-97062380D01*
X84761904Y-97062380D01*
X85095238Y-96062380D02*
X85714285Y-96062380D01*
X85380952Y-96443333D01*
X85523809Y-96443333D01*
X85619047Y-96490952D01*
X85666666Y-96538571D01*
X85714285Y-96633809D01*
X85714285Y-96871904D01*
X85666666Y-96967142D01*
X85619047Y-97014761D01*
X85523809Y-97062380D01*
X85238095Y-97062380D01*
X85142857Y-97014761D01*
X85095238Y-96967142D01*
X80261904Y-98952380D02*
X80261904Y-97952380D01*
X80261904Y-98333333D02*
X80357142Y-98285714D01*
X80547619Y-98285714D01*
X80642857Y-98333333D01*
X80690476Y-98380952D01*
X80738095Y-98476190D01*
X80738095Y-98761904D01*
X80690476Y-98857142D01*
X80642857Y-98904761D01*
X80547619Y-98952380D01*
X80357142Y-98952380D01*
X80261904Y-98904761D01*
X81309523Y-98952380D02*
X81214285Y-98904761D01*
X81166666Y-98857142D01*
X81119047Y-98761904D01*
X81119047Y-98476190D01*
X81166666Y-98380952D01*
X81214285Y-98333333D01*
X81309523Y-98285714D01*
X81452380Y-98285714D01*
X81547619Y-98333333D01*
X81595238Y-98380952D01*
X81642857Y-98476190D01*
X81642857Y-98761904D01*
X81595238Y-98857142D01*
X81547619Y-98904761D01*
X81452380Y-98952380D01*
X81309523Y-98952380D01*
X82500000Y-98952380D02*
X82500000Y-98428571D01*
X82452380Y-98333333D01*
X82357142Y-98285714D01*
X82166666Y-98285714D01*
X82071428Y-98333333D01*
X82500000Y-98904761D02*
X82404761Y-98952380D01*
X82166666Y-98952380D01*
X82071428Y-98904761D01*
X82023809Y-98809523D01*
X82023809Y-98714285D01*
X82071428Y-98619047D01*
X82166666Y-98571428D01*
X82404761Y-98571428D01*
X82500000Y-98523809D01*
X82976190Y-98952380D02*
X82976190Y-98285714D01*
X82976190Y-98476190D02*
X83023809Y-98380952D01*
X83071428Y-98333333D01*
X83166666Y-98285714D01*
X83261904Y-98285714D01*
X84023809Y-98952380D02*
X84023809Y-97952380D01*
X84023809Y-98904761D02*
X83928571Y-98952380D01*
X83738095Y-98952380D01*
X83642857Y-98904761D01*
X83595238Y-98857142D01*
X83547619Y-98761904D01*
X83547619Y-98476190D01*
X83595238Y-98380952D01*
X83642857Y-98333333D01*
X83738095Y-98285714D01*
X83928571Y-98285714D01*
X84023809Y-98333333D01*
X85785714Y-98952380D02*
X85214285Y-98952380D01*
X85500000Y-98952380D02*
X85500000Y-97952380D01*
X85404761Y-98095238D01*
X85309523Y-98190476D01*
X85214285Y-98238095D01*
X86928571Y-97904761D02*
X86071428Y-99190476D01*
X87214285Y-98047619D02*
X87261904Y-98000000D01*
X87357142Y-97952380D01*
X87595238Y-97952380D01*
X87690476Y-98000000D01*
X87738095Y-98047619D01*
X87785714Y-98142857D01*
X87785714Y-98238095D01*
X87738095Y-98380952D01*
X87166666Y-98952380D01*
X87785714Y-98952380D01*
X84636666Y-134132380D02*
X84636666Y-134846666D01*
X84589047Y-134989523D01*
X84493809Y-135084761D01*
X84350952Y-135132380D01*
X84255714Y-135132380D01*
X85017619Y-134132380D02*
X85636666Y-134132380D01*
X85303333Y-134513333D01*
X85446190Y-134513333D01*
X85541428Y-134560952D01*
X85589047Y-134608571D01*
X85636666Y-134703809D01*
X85636666Y-134941904D01*
X85589047Y-135037142D01*
X85541428Y-135084761D01*
X85446190Y-135132380D01*
X85160476Y-135132380D01*
X85065238Y-135084761D01*
X85017619Y-135037142D01*
X74636666Y-134132380D02*
X74636666Y-134846666D01*
X74589047Y-134989523D01*
X74493809Y-135084761D01*
X74350952Y-135132380D01*
X74255714Y-135132380D01*
X75636666Y-135132380D02*
X75065238Y-135132380D01*
X75350952Y-135132380D02*
X75350952Y-134132380D01*
X75255714Y-134275238D01*
X75160476Y-134370476D01*
X75065238Y-134418095D01*
X74636666Y-119632380D02*
X74636666Y-120346666D01*
X74589047Y-120489523D01*
X74493809Y-120584761D01*
X74350952Y-120632380D01*
X74255714Y-120632380D01*
X75255714Y-120060952D02*
X75160476Y-120013333D01*
X75112857Y-119965714D01*
X75065238Y-119870476D01*
X75065238Y-119822857D01*
X75112857Y-119727619D01*
X75160476Y-119680000D01*
X75255714Y-119632380D01*
X75446190Y-119632380D01*
X75541428Y-119680000D01*
X75589047Y-119727619D01*
X75636666Y-119822857D01*
X75636666Y-119870476D01*
X75589047Y-119965714D01*
X75541428Y-120013333D01*
X75446190Y-120060952D01*
X75255714Y-120060952D01*
X75160476Y-120108571D01*
X75112857Y-120156190D01*
X75065238Y-120251428D01*
X75065238Y-120441904D01*
X75112857Y-120537142D01*
X75160476Y-120584761D01*
X75255714Y-120632380D01*
X75446190Y-120632380D01*
X75541428Y-120584761D01*
X75589047Y-120537142D01*
X75636666Y-120441904D01*
X75636666Y-120251428D01*
X75589047Y-120156190D01*
X75541428Y-120108571D01*
X75446190Y-120060952D01*
X90952380Y-46211904D02*
X90952380Y-45640476D01*
X91952380Y-45926190D02*
X90952380Y-45926190D01*
X90952380Y-45307142D02*
X91761904Y-45307142D01*
X91857142Y-45259523D01*
X91904761Y-45211904D01*
X91952380Y-45116666D01*
X91952380Y-44926190D01*
X91904761Y-44830952D01*
X91857142Y-44783333D01*
X91761904Y-44735714D01*
X90952380Y-44735714D01*
X91952380Y-44259523D02*
X90952380Y-44259523D01*
X91952380Y-43688095D01*
X90952380Y-43688095D01*
X91428571Y-43211904D02*
X91428571Y-42878571D01*
X91952380Y-42735714D02*
X91952380Y-43211904D01*
X90952380Y-43211904D01*
X90952380Y-42735714D01*
X91952380Y-41783333D02*
X91952380Y-42354761D01*
X91952380Y-42069047D02*
X90952380Y-42069047D01*
X91095238Y-42164285D01*
X91190476Y-42259523D01*
X91238095Y-42354761D01*
X87666666Y-130904761D02*
X87809523Y-130952380D01*
X88047619Y-130952380D01*
X88142857Y-130904761D01*
X88190476Y-130857142D01*
X88238095Y-130761904D01*
X88238095Y-130666666D01*
X88190476Y-130571428D01*
X88142857Y-130523809D01*
X88047619Y-130476190D01*
X87857142Y-130428571D01*
X87761904Y-130380952D01*
X87714285Y-130333333D01*
X87666666Y-130238095D01*
X87666666Y-130142857D01*
X87714285Y-130047619D01*
X87761904Y-130000000D01*
X87857142Y-129952380D01*
X88095238Y-129952380D01*
X88238095Y-130000000D01*
X88571428Y-129952380D02*
X88809523Y-130952380D01*
X89000000Y-130238095D01*
X89190476Y-130952380D01*
X89428571Y-129952380D01*
X89761904Y-130047619D02*
X89809523Y-130000000D01*
X89904761Y-129952380D01*
X90142857Y-129952380D01*
X90238095Y-130000000D01*
X90285714Y-130047619D01*
X90333333Y-130142857D01*
X90333333Y-130238095D01*
X90285714Y-130380952D01*
X89714285Y-130952380D01*
X90333333Y-130952380D01*
X89833333Y-118302380D02*
X89500000Y-117826190D01*
X89261904Y-118302380D02*
X89261904Y-117302380D01*
X89642857Y-117302380D01*
X89738095Y-117350000D01*
X89785714Y-117397619D01*
X89833333Y-117492857D01*
X89833333Y-117635714D01*
X89785714Y-117730952D01*
X89738095Y-117778571D01*
X89642857Y-117826190D01*
X89261904Y-117826190D01*
X90309523Y-118302380D02*
X90500000Y-118302380D01*
X90595238Y-118254761D01*
X90642857Y-118207142D01*
X90738095Y-118064285D01*
X90785714Y-117873809D01*
X90785714Y-117492857D01*
X90738095Y-117397619D01*
X90690476Y-117350000D01*
X90595238Y-117302380D01*
X90404761Y-117302380D01*
X90309523Y-117350000D01*
X90261904Y-117397619D01*
X90214285Y-117492857D01*
X90214285Y-117730952D01*
X90261904Y-117826190D01*
X90309523Y-117873809D01*
X90404761Y-117921428D01*
X90595238Y-117921428D01*
X90690476Y-117873809D01*
X90738095Y-117826190D01*
X90785714Y-117730952D01*
X91857142Y-66664285D02*
X91904761Y-66711904D01*
X91952380Y-66854761D01*
X91952380Y-66950000D01*
X91904761Y-67092857D01*
X91809523Y-67188095D01*
X91714285Y-67235714D01*
X91523809Y-67283333D01*
X91380952Y-67283333D01*
X91190476Y-67235714D01*
X91095238Y-67188095D01*
X91000000Y-67092857D01*
X90952380Y-66950000D01*
X90952380Y-66854761D01*
X91000000Y-66711904D01*
X91047619Y-66664285D01*
X91952380Y-66235714D02*
X90952380Y-66235714D01*
X91428571Y-66235714D02*
X91428571Y-65664285D01*
X91952380Y-65664285D02*
X90952380Y-65664285D01*
X90952380Y-64997619D02*
X90952380Y-64807142D01*
X91000000Y-64711904D01*
X91095238Y-64616666D01*
X91285714Y-64569047D01*
X91619047Y-64569047D01*
X91809523Y-64616666D01*
X91904761Y-64711904D01*
X91952380Y-64807142D01*
X91952380Y-64997619D01*
X91904761Y-65092857D01*
X91809523Y-65188095D01*
X91619047Y-65235714D01*
X91285714Y-65235714D01*
X91095238Y-65188095D01*
X91000000Y-65092857D01*
X90952380Y-64997619D01*
X91952380Y-63569047D02*
X91476190Y-63902380D01*
X91952380Y-64140476D02*
X90952380Y-64140476D01*
X90952380Y-63759523D01*
X91000000Y-63664285D01*
X91047619Y-63616666D01*
X91142857Y-63569047D01*
X91285714Y-63569047D01*
X91380952Y-63616666D01*
X91428571Y-63664285D01*
X91476190Y-63759523D01*
X91476190Y-64140476D01*
X91952380Y-63140476D02*
X90952380Y-63140476D01*
X90952380Y-62902380D01*
X91000000Y-62759523D01*
X91095238Y-62664285D01*
X91190476Y-62616666D01*
X91380952Y-62569047D01*
X91523809Y-62569047D01*
X91714285Y-62616666D01*
X91809523Y-62664285D01*
X91904761Y-62759523D01*
X91952380Y-62902380D01*
X91952380Y-63140476D01*
X91952380Y-61616666D02*
X91952380Y-62188095D01*
X91952380Y-61902380D02*
X90952380Y-61902380D01*
X91095238Y-61997619D01*
X91190476Y-62092857D01*
X91238095Y-62188095D01*
X91952380Y-86428571D02*
X90952380Y-86428571D01*
X91952380Y-85952380D02*
X90952380Y-85952380D01*
X91952380Y-85380952D01*
X90952380Y-85380952D01*
X90952380Y-85047619D02*
X91952380Y-84714285D01*
X90952380Y-84380952D01*
X91952380Y-83523809D02*
X91952380Y-84095238D01*
X91952380Y-83809523D02*
X90952380Y-83809523D01*
X91095238Y-83904761D01*
X91190476Y-84000000D01*
X91238095Y-84095238D01*
D11*
X84500000Y-135580000D02*
X84500000Y-146080000D01*
X93500000Y-146080000D02*
X89500000Y-146080000D01*
X88650000Y-135580000D02*
X84500000Y-135580000D01*
X87940000Y-132600000D02*
X87940000Y-133400000D01*
X87940000Y-132600000D02*
X88800000Y-132600000D01*
X88500000Y-146080000D02*
X84500000Y-146080000D01*
X93500000Y-135580000D02*
X93500000Y-146080000D01*
X93500000Y-135580000D02*
X89350000Y-135580000D01*
X90800000Y-140080000D02*
G75*
G03*
X90800000Y-140080000I-1800000J0D01*
G01*
X74500000Y-135580000D02*
X74500000Y-146080000D01*
X83500000Y-146080000D02*
X79500000Y-146080000D01*
X78500000Y-146080000D02*
X74500000Y-146080000D01*
X77940000Y-132600000D02*
X77940000Y-133400000D01*
X83500000Y-135580000D02*
X79350000Y-135580000D01*
X83500000Y-135580000D02*
X83500000Y-146080000D01*
X77940000Y-132600000D02*
X78800000Y-132600000D01*
X78650000Y-135580000D02*
X74500000Y-135580000D01*
X80800000Y-140080000D02*
G75*
G03*
X80800000Y-140080000I-1800000J0D01*
G01*
X83500000Y-121080000D02*
X79350000Y-121080000D01*
X78650000Y-121080000D02*
X74500000Y-121080000D01*
X83500000Y-131580000D02*
X79500000Y-131580000D01*
X83500000Y-121080000D02*
X83500000Y-131580000D01*
X74500000Y-121080000D02*
X74500000Y-131580000D01*
X77940000Y-118100000D02*
X77940000Y-118900000D01*
X77940000Y-118100000D02*
X78800000Y-118100000D01*
X78500000Y-131580000D02*
X74500000Y-131580000D01*
X80800000Y-125580000D02*
G75*
G03*
X80800000Y-125580000I-1800000J0D01*
G01*
X79030000Y-49120000D02*
X79030000Y-45255000D01*
X88970000Y-49120000D02*
X88970000Y-45255000D01*
X82371000Y-49120000D02*
X83130000Y-49120000D01*
X84871000Y-49120000D02*
X85630000Y-49120000D01*
X88970000Y-40745000D02*
X88970000Y-36880000D01*
X79030000Y-36880000D02*
X88970000Y-36880000D01*
X87370000Y-49120000D02*
X88970000Y-49120000D01*
X79030000Y-40745000D02*
X79030000Y-36880000D01*
X79030000Y-49120000D02*
X80629000Y-49120000D01*
X85250000Y-121750000D02*
X92750000Y-121750000D01*
X85250000Y-129250000D02*
X92750000Y-129250000D01*
X85250000Y-129250000D02*
X85250000Y-121750000D01*
X92750000Y-129250000D02*
X92750000Y-121750000D01*
X89772936Y-118765000D02*
X90227064Y-118765000D01*
X89772936Y-120235000D02*
X90227064Y-120235000D01*
X80825000Y-111500000D02*
X82095000Y-108325000D01*
X87175000Y-111500000D02*
X85905000Y-114675000D01*
X82095000Y-108325000D02*
X85905000Y-108325000D01*
X90985000Y-107055000D02*
X90985000Y-115945000D01*
X82095000Y-114675000D02*
X80825000Y-111500000D01*
X90985000Y-115945000D02*
X77015000Y-115945000D01*
X85905000Y-108325000D02*
X87175000Y-111500000D01*
X85905000Y-114675000D02*
X82095000Y-114675000D01*
X77015000Y-115945000D02*
X77015000Y-107055000D01*
X77015000Y-107055000D02*
X90985000Y-107055000D01*
X87702654Y-111500000D02*
G75*
G03*
X87702654Y-111500000I-3702654J0D01*
G01*
X82331000Y-69620000D02*
X83090000Y-69620000D01*
X87330000Y-69620000D02*
X88930000Y-69620000D01*
X88930000Y-61245000D02*
X88930000Y-57380000D01*
X88930000Y-69620000D02*
X88930000Y-65755000D01*
X84831000Y-69620000D02*
X85590000Y-69620000D01*
X78990000Y-69620000D02*
X80589000Y-69620000D01*
X78990000Y-61245000D02*
X78990000Y-57380000D01*
X78990000Y-69620000D02*
X78990000Y-65755000D01*
X78990000Y-57380000D02*
X88930000Y-57380000D01*
X79030000Y-90170000D02*
X80629000Y-90170000D01*
X84871000Y-90170000D02*
X85630000Y-90170000D01*
X79030000Y-90170000D02*
X79030000Y-86305000D01*
X79030000Y-81795000D02*
X79030000Y-77930000D01*
X88970000Y-90170000D02*
X88970000Y-86305000D01*
X88970000Y-81795000D02*
X88970000Y-77930000D01*
X82371000Y-90170000D02*
X83130000Y-90170000D01*
X79030000Y-77930000D02*
X88970000Y-77930000D01*
X87370000Y-90170000D02*
X88970000Y-90170000D01*
%LPC*%
D12*
X89000000Y-133600000D03*
D13*
X89000000Y-145000000D03*
X89000000Y-136700000D03*
D12*
X79000000Y-133600000D03*
D13*
X79000000Y-145000000D03*
X79000000Y-136700000D03*
D12*
X79000000Y-119100000D03*
D13*
X79000000Y-130500000D03*
X79000000Y-122200000D03*
D14*
X88400000Y-43000000D03*
X79600000Y-43000000D03*
D15*
X86500000Y-50000000D03*
X84000000Y-50000000D03*
X81500000Y-50000000D03*
D16*
X86460000Y-125500000D03*
D17*
X86460000Y-128040000D03*
X86460000Y-122960000D03*
X91540000Y-128040000D03*
X91540000Y-122960000D03*
X89000000Y-122800000D03*
X89000000Y-128200000D03*
G36*
G01*
X88400000Y-119950000D02*
X88400000Y-119050000D01*
G75*
G02*
X88650000Y-118800000I250000J0D01*
G01*
X89350000Y-118800000D01*
G75*
G02*
X89600000Y-119050000I0J-250000D01*
G01*
X89600000Y-119950000D01*
G75*
G02*
X89350000Y-120200000I-250000J0D01*
G01*
X88650000Y-120200000D01*
G75*
G02*
X88400000Y-119950000I0J250000D01*
G01*
G37*
G36*
G01*
X90400000Y-119950000D02*
X90400000Y-119050000D01*
G75*
G02*
X90650000Y-118800000I250000J0D01*
G01*
X91350000Y-118800000D01*
G75*
G02*
X91600000Y-119050000I0J-250000D01*
G01*
X91600000Y-119950000D01*
G75*
G02*
X91350000Y-120200000I-250000J0D01*
G01*
X90650000Y-120200000D01*
G75*
G02*
X90400000Y-119950000I0J250000D01*
G01*
G37*
D18*
X88700000Y-111500000D03*
X84000000Y-111500000D03*
X79300000Y-111500000D03*
D14*
X79560000Y-63500000D03*
X88360000Y-63500000D03*
D15*
X86460000Y-70500000D03*
X83960000Y-70500000D03*
X81460000Y-70500000D03*
D14*
X88400000Y-84050000D03*
X79600000Y-84050000D03*
D15*
X86500000Y-91050000D03*
X84000000Y-91050000D03*
X81500000Y-91050000D03*
D19*
X75750000Y-49500000D03*
D20*
X75750000Y-52040000D03*
X75750000Y-54580000D03*
X75750000Y-57120000D03*
X75750000Y-59660000D03*
X75750000Y-62200000D03*
D19*
X75750000Y-67800000D03*
D20*
X75750000Y-70340000D03*
X75750000Y-72880000D03*
X75750000Y-75420000D03*
X75750000Y-77960000D03*
X75750000Y-80500000D03*
X75750000Y-83040000D03*
X75750000Y-85580000D03*
M02*
