G04 #@! TF.GenerationSoftware,KiCad,Pcbnew,6.0.10+dfsg-1~bpo11+1*
G04 #@! TF.CreationDate,2023-02-18T13:34:48+00:00*
G04 #@! TF.ProjectId,RP2040-VCO,52503230-3430-42d5-9643-4f2e6b696361,rev?*
G04 #@! TF.SameCoordinates,Original*
G04 #@! TF.FileFunction,Copper,L2,Bot*
G04 #@! TF.FilePolarity,Positive*
%FSLAX46Y46*%
G04 Gerber Fmt 4.6, Leading zero omitted, Abs format (unit mm)*
G04 Created by KiCad (PCBNEW 6.0.10+dfsg-1~bpo11+1) date 2023-02-18 13:34:48*
%MOMM*%
%LPD*%
G01*
G04 APERTURE LIST*
G04 #@! TA.AperFunction,ComponentPad*
%ADD10R,1.930000X1.830000*%
G04 #@! TD*
G04 #@! TA.AperFunction,ComponentPad*
%ADD11C,2.130000*%
G04 #@! TD*
G04 #@! TA.AperFunction,WasherPad*
%ADD12C,4.000000*%
G04 #@! TD*
G04 #@! TA.AperFunction,ComponentPad*
%ADD13C,1.800000*%
G04 #@! TD*
G04 #@! TA.AperFunction,WasherPad*
%ADD14C,1.500000*%
G04 #@! TD*
G04 #@! TA.AperFunction,ComponentPad*
%ADD15C,1.524000*%
G04 #@! TD*
G04 #@! TA.AperFunction,ComponentPad*
%ADD16O,3.200000X5.000000*%
G04 #@! TD*
G04 #@! TA.AperFunction,ComponentPad*
%ADD17R,1.700000X1.700000*%
G04 #@! TD*
G04 #@! TA.AperFunction,ComponentPad*
%ADD18O,1.700000X1.700000*%
G04 #@! TD*
G04 #@! TA.AperFunction,ViaPad*
%ADD19C,0.800000*%
G04 #@! TD*
G04 #@! TA.AperFunction,Conductor*
%ADD20C,0.300000*%
G04 #@! TD*
G04 APERTURE END LIST*
D10*
X89000000Y-133600000D03*
D11*
X89000000Y-145000000D03*
X89000000Y-136700000D03*
D10*
X79000000Y-133600000D03*
D11*
X79000000Y-145000000D03*
X79000000Y-136700000D03*
D10*
X79000000Y-119100000D03*
D11*
X79000000Y-130500000D03*
X79000000Y-122200000D03*
D12*
X88400000Y-43000000D03*
X79600000Y-43000000D03*
D13*
X86500000Y-50000000D03*
X84000000Y-50000000D03*
X81500000Y-50000000D03*
D14*
X86460000Y-125500000D03*
D15*
X86460000Y-128040000D03*
X86460000Y-122960000D03*
X91540000Y-128040000D03*
X91540000Y-122960000D03*
X89000000Y-122800000D03*
X89000000Y-128200000D03*
D16*
X88700000Y-111500000D03*
X84000000Y-111500000D03*
X79300000Y-111500000D03*
D12*
X79560000Y-63500000D03*
X88360000Y-63500000D03*
D13*
X86460000Y-70500000D03*
X83960000Y-70500000D03*
X81460000Y-70500000D03*
D12*
X88400000Y-84050000D03*
X79600000Y-84050000D03*
D13*
X86500000Y-91050000D03*
X84000000Y-91050000D03*
X81500000Y-91050000D03*
D17*
X75750000Y-49500000D03*
D18*
X75750000Y-52040000D03*
X75750000Y-54580000D03*
X75750000Y-57120000D03*
X75750000Y-59660000D03*
X75750000Y-62200000D03*
D17*
X75750000Y-67800000D03*
D18*
X75750000Y-70340000D03*
X75750000Y-72880000D03*
X75750000Y-75420000D03*
X75750000Y-77960000D03*
X75750000Y-80500000D03*
X75750000Y-83040000D03*
X75750000Y-85580000D03*
D19*
X82000000Y-66600000D03*
X82000000Y-67500000D03*
X81500000Y-117800000D03*
D20*
X78700000Y-117800000D02*
X74500000Y-113600000D01*
X81500000Y-117800000D02*
X78700000Y-117800000D01*
X74500000Y-86830000D02*
X75750000Y-85580000D01*
X74500000Y-113600000D02*
X74500000Y-86830000D01*
X85210489Y-69983413D02*
X85210489Y-89760489D01*
X75750000Y-59660000D02*
X74550489Y-60859511D01*
X74550489Y-60859511D02*
X74550489Y-62750489D01*
X85210489Y-89760489D02*
X86500000Y-91050000D01*
X81000000Y-69200000D02*
X84427076Y-69200000D01*
X74550489Y-62750489D02*
X81000000Y-69200000D01*
X84427076Y-69200000D02*
X85210489Y-69983413D01*
X86500000Y-51450000D02*
X75750000Y-62200000D01*
X86500000Y-50000000D02*
X86500000Y-51450000D01*
X79420000Y-54580000D02*
X75750000Y-54580000D01*
X84000000Y-50000000D02*
X79420000Y-54580000D01*
X82000000Y-82800000D02*
X82000000Y-88782924D01*
X80250489Y-90532435D02*
X80250489Y-106150489D01*
X75750000Y-80500000D02*
X79700000Y-80500000D01*
X79700000Y-80500000D02*
X82000000Y-82800000D01*
X83350489Y-117050489D02*
X85740489Y-117050489D01*
X82000000Y-88782924D02*
X80250489Y-90532435D01*
X91540000Y-122850000D02*
X91540000Y-122960000D01*
X81600000Y-115300000D02*
X83350489Y-117050489D01*
X85740489Y-117050489D02*
X91540000Y-122850000D01*
X80250489Y-106150489D02*
X81600000Y-107500000D01*
X81600000Y-107500000D02*
X81600000Y-115300000D01*
X82750489Y-80250489D02*
X80460000Y-77960000D01*
X82750489Y-105550489D02*
X82750489Y-80250489D01*
X80460000Y-77960000D02*
X75750000Y-77960000D01*
X88700000Y-111500000D02*
X82750489Y-105550489D01*
X77500000Y-111500000D02*
X79300000Y-111500000D01*
X76949511Y-84239511D02*
X76949511Y-99249511D01*
X76949511Y-99249511D02*
X76949511Y-110949511D01*
X76949511Y-110949511D02*
X77500000Y-111500000D01*
X75750000Y-83040000D02*
X76949511Y-84239511D01*
G04 #@! TA.AperFunction,Conductor*
G36*
X93433621Y-37028502D02*
G01*
X93480114Y-37082158D01*
X93491500Y-37134500D01*
X93491500Y-145865500D01*
X93471498Y-145933621D01*
X93417842Y-145980114D01*
X93365500Y-145991500D01*
X90462842Y-145991500D01*
X90394721Y-145971498D01*
X90348228Y-145917842D01*
X90338124Y-145847568D01*
X90355409Y-145799665D01*
X90403748Y-145720783D01*
X90406334Y-145716563D01*
X90501115Y-145487742D01*
X90521501Y-145402830D01*
X90557779Y-145251724D01*
X90557780Y-145251718D01*
X90558934Y-145246911D01*
X90578366Y-145000000D01*
X90558934Y-144753089D01*
X90557780Y-144748282D01*
X90557779Y-144748276D01*
X90502270Y-144517070D01*
X90501115Y-144512258D01*
X90406334Y-144283437D01*
X90276925Y-144072260D01*
X90116073Y-143883927D01*
X89927740Y-143723075D01*
X89716563Y-143593666D01*
X89711993Y-143591773D01*
X89711989Y-143591771D01*
X89492315Y-143500779D01*
X89492313Y-143500778D01*
X89487742Y-143498885D01*
X89402830Y-143478499D01*
X89251724Y-143442221D01*
X89251718Y-143442220D01*
X89246911Y-143441066D01*
X89000000Y-143421634D01*
X88753089Y-143441066D01*
X88748282Y-143442220D01*
X88748276Y-143442221D01*
X88597170Y-143478499D01*
X88512258Y-143498885D01*
X88507687Y-143500778D01*
X88507685Y-143500779D01*
X88288011Y-143591771D01*
X88288007Y-143591773D01*
X88283437Y-143593666D01*
X88072260Y-143723075D01*
X87883927Y-143883927D01*
X87723075Y-144072260D01*
X87593666Y-144283437D01*
X87498885Y-144512258D01*
X87497730Y-144517070D01*
X87442221Y-144748276D01*
X87442220Y-144748282D01*
X87441066Y-144753089D01*
X87421634Y-145000000D01*
X87441066Y-145246911D01*
X87442220Y-145251718D01*
X87442221Y-145251724D01*
X87478499Y-145402830D01*
X87498885Y-145487742D01*
X87593666Y-145716563D01*
X87596252Y-145720783D01*
X87644591Y-145799665D01*
X87663129Y-145868199D01*
X87641673Y-145935875D01*
X87587033Y-145981208D01*
X87537158Y-145991500D01*
X80462842Y-145991500D01*
X80394721Y-145971498D01*
X80348228Y-145917842D01*
X80338124Y-145847568D01*
X80355409Y-145799665D01*
X80403748Y-145720783D01*
X80406334Y-145716563D01*
X80501115Y-145487742D01*
X80521501Y-145402830D01*
X80557779Y-145251724D01*
X80557780Y-145251718D01*
X80558934Y-145246911D01*
X80578366Y-145000000D01*
X80558934Y-144753089D01*
X80557780Y-144748282D01*
X80557779Y-144748276D01*
X80502270Y-144517070D01*
X80501115Y-144512258D01*
X80406334Y-144283437D01*
X80276925Y-144072260D01*
X80116073Y-143883927D01*
X79927740Y-143723075D01*
X79716563Y-143593666D01*
X79711993Y-143591773D01*
X79711989Y-143591771D01*
X79492315Y-143500779D01*
X79492313Y-143500778D01*
X79487742Y-143498885D01*
X79402830Y-143478499D01*
X79251724Y-143442221D01*
X79251718Y-143442220D01*
X79246911Y-143441066D01*
X79000000Y-143421634D01*
X78753089Y-143441066D01*
X78748282Y-143442220D01*
X78748276Y-143442221D01*
X78597170Y-143478499D01*
X78512258Y-143498885D01*
X78507687Y-143500778D01*
X78507685Y-143500779D01*
X78288011Y-143591771D01*
X78288007Y-143591773D01*
X78283437Y-143593666D01*
X78072260Y-143723075D01*
X77883927Y-143883927D01*
X77723075Y-144072260D01*
X77593666Y-144283437D01*
X77498885Y-144512258D01*
X77497730Y-144517070D01*
X77442221Y-144748276D01*
X77442220Y-144748282D01*
X77441066Y-144753089D01*
X77421634Y-145000000D01*
X77441066Y-145246911D01*
X77442220Y-145251718D01*
X77442221Y-145251724D01*
X77478499Y-145402830D01*
X77498885Y-145487742D01*
X77593666Y-145716563D01*
X77596252Y-145720783D01*
X77644591Y-145799665D01*
X77663129Y-145868199D01*
X77641673Y-145935875D01*
X77587033Y-145981208D01*
X77537158Y-145991500D01*
X74634500Y-145991500D01*
X74566379Y-145971498D01*
X74519886Y-145917842D01*
X74508500Y-145865500D01*
X74508500Y-136700000D01*
X77421634Y-136700000D01*
X77441066Y-136946911D01*
X77442220Y-136951718D01*
X77442221Y-136951724D01*
X77478499Y-137102830D01*
X77498885Y-137187742D01*
X77593666Y-137416563D01*
X77723075Y-137627740D01*
X77883927Y-137816073D01*
X78072260Y-137976925D01*
X78283437Y-138106334D01*
X78288007Y-138108227D01*
X78288011Y-138108229D01*
X78507685Y-138199221D01*
X78512258Y-138201115D01*
X78597170Y-138221501D01*
X78748276Y-138257779D01*
X78748282Y-138257780D01*
X78753089Y-138258934D01*
X79000000Y-138278366D01*
X79246911Y-138258934D01*
X79251718Y-138257780D01*
X79251724Y-138257779D01*
X79402830Y-138221501D01*
X79487742Y-138201115D01*
X79492315Y-138199221D01*
X79711989Y-138108229D01*
X79711993Y-138108227D01*
X79716563Y-138106334D01*
X79927740Y-137976925D01*
X80116073Y-137816073D01*
X80276925Y-137627740D01*
X80406334Y-137416563D01*
X80501115Y-137187742D01*
X80521501Y-137102830D01*
X80557779Y-136951724D01*
X80557780Y-136951718D01*
X80558934Y-136946911D01*
X80578366Y-136700000D01*
X87421634Y-136700000D01*
X87441066Y-136946911D01*
X87442220Y-136951718D01*
X87442221Y-136951724D01*
X87478499Y-137102830D01*
X87498885Y-137187742D01*
X87593666Y-137416563D01*
X87723075Y-137627740D01*
X87883927Y-137816073D01*
X88072260Y-137976925D01*
X88283437Y-138106334D01*
X88288007Y-138108227D01*
X88288011Y-138108229D01*
X88507685Y-138199221D01*
X88512258Y-138201115D01*
X88597170Y-138221501D01*
X88748276Y-138257779D01*
X88748282Y-138257780D01*
X88753089Y-138258934D01*
X89000000Y-138278366D01*
X89246911Y-138258934D01*
X89251718Y-138257780D01*
X89251724Y-138257779D01*
X89402830Y-138221501D01*
X89487742Y-138201115D01*
X89492315Y-138199221D01*
X89711989Y-138108229D01*
X89711993Y-138108227D01*
X89716563Y-138106334D01*
X89927740Y-137976925D01*
X90116073Y-137816073D01*
X90276925Y-137627740D01*
X90406334Y-137416563D01*
X90501115Y-137187742D01*
X90521501Y-137102830D01*
X90557779Y-136951724D01*
X90557780Y-136951718D01*
X90558934Y-136946911D01*
X90578366Y-136700000D01*
X90558934Y-136453089D01*
X90557780Y-136448282D01*
X90557779Y-136448276D01*
X90502270Y-136217070D01*
X90501115Y-136212258D01*
X90406334Y-135983437D01*
X90276925Y-135772260D01*
X90116073Y-135583927D01*
X89927740Y-135423075D01*
X89716563Y-135293666D01*
X89648342Y-135265408D01*
X89593062Y-135220859D01*
X89570641Y-135153496D01*
X89588199Y-135084705D01*
X89640162Y-135036326D01*
X89696561Y-135022999D01*
X90009669Y-135022999D01*
X90016490Y-135022629D01*
X90067352Y-135017105D01*
X90082604Y-135013479D01*
X90203054Y-134968324D01*
X90218649Y-134959786D01*
X90320724Y-134883285D01*
X90333285Y-134870724D01*
X90409786Y-134768649D01*
X90418324Y-134753054D01*
X90463478Y-134632606D01*
X90467105Y-134617351D01*
X90472631Y-134566486D01*
X90473000Y-134559672D01*
X90473000Y-133872115D01*
X90468525Y-133856876D01*
X90467135Y-133855671D01*
X90459452Y-133854000D01*
X87545116Y-133854000D01*
X87529877Y-133858475D01*
X87528672Y-133859865D01*
X87527001Y-133867548D01*
X87527001Y-134559669D01*
X87527371Y-134566490D01*
X87532895Y-134617352D01*
X87536521Y-134632604D01*
X87581676Y-134753054D01*
X87590214Y-134768649D01*
X87666715Y-134870724D01*
X87679276Y-134883285D01*
X87781351Y-134959786D01*
X87796946Y-134968324D01*
X87917394Y-135013478D01*
X87932649Y-135017105D01*
X87983514Y-135022631D01*
X87990328Y-135023000D01*
X88303438Y-135023000D01*
X88371559Y-135043002D01*
X88418052Y-135096658D01*
X88428156Y-135166932D01*
X88398662Y-135231512D01*
X88351657Y-135265408D01*
X88323360Y-135277129D01*
X88288011Y-135291771D01*
X88288007Y-135291773D01*
X88283437Y-135293666D01*
X88072260Y-135423075D01*
X87883927Y-135583927D01*
X87723075Y-135772260D01*
X87593666Y-135983437D01*
X87498885Y-136212258D01*
X87497730Y-136217070D01*
X87442221Y-136448276D01*
X87442220Y-136448282D01*
X87441066Y-136453089D01*
X87421634Y-136700000D01*
X80578366Y-136700000D01*
X80558934Y-136453089D01*
X80557780Y-136448282D01*
X80557779Y-136448276D01*
X80502270Y-136217070D01*
X80501115Y-136212258D01*
X80406334Y-135983437D01*
X80276925Y-135772260D01*
X80116073Y-135583927D01*
X79927740Y-135423075D01*
X79716563Y-135293666D01*
X79648342Y-135265408D01*
X79593062Y-135220859D01*
X79570641Y-135153496D01*
X79588199Y-135084705D01*
X79640162Y-135036326D01*
X79696561Y-135022999D01*
X80009669Y-135022999D01*
X80016490Y-135022629D01*
X80067352Y-135017105D01*
X80082604Y-135013479D01*
X80203054Y-134968324D01*
X80218649Y-134959786D01*
X80320724Y-134883285D01*
X80333285Y-134870724D01*
X80409786Y-134768649D01*
X80418324Y-134753054D01*
X80463478Y-134632606D01*
X80467105Y-134617351D01*
X80472631Y-134566486D01*
X80473000Y-134559672D01*
X80473000Y-133872115D01*
X80468525Y-133856876D01*
X80467135Y-133855671D01*
X80459452Y-133854000D01*
X77545116Y-133854000D01*
X77529877Y-133858475D01*
X77528672Y-133859865D01*
X77527001Y-133867548D01*
X77527001Y-134559669D01*
X77527371Y-134566490D01*
X77532895Y-134617352D01*
X77536521Y-134632604D01*
X77581676Y-134753054D01*
X77590214Y-134768649D01*
X77666715Y-134870724D01*
X77679276Y-134883285D01*
X77781351Y-134959786D01*
X77796946Y-134968324D01*
X77917394Y-135013478D01*
X77932649Y-135017105D01*
X77983514Y-135022631D01*
X77990328Y-135023000D01*
X78303438Y-135023000D01*
X78371559Y-135043002D01*
X78418052Y-135096658D01*
X78428156Y-135166932D01*
X78398662Y-135231512D01*
X78351657Y-135265408D01*
X78323360Y-135277129D01*
X78288011Y-135291771D01*
X78288007Y-135291773D01*
X78283437Y-135293666D01*
X78072260Y-135423075D01*
X77883927Y-135583927D01*
X77723075Y-135772260D01*
X77593666Y-135983437D01*
X77498885Y-136212258D01*
X77497730Y-136217070D01*
X77442221Y-136448276D01*
X77442220Y-136448282D01*
X77441066Y-136453089D01*
X77421634Y-136700000D01*
X74508500Y-136700000D01*
X74508500Y-130500000D01*
X77421634Y-130500000D01*
X77441066Y-130746911D01*
X77442220Y-130751718D01*
X77442221Y-130751724D01*
X77478499Y-130902830D01*
X77498885Y-130987742D01*
X77593666Y-131216563D01*
X77723075Y-131427740D01*
X77883927Y-131616073D01*
X78072260Y-131776925D01*
X78283437Y-131906334D01*
X78351656Y-131934591D01*
X78351658Y-131934592D01*
X78406938Y-131979141D01*
X78429359Y-132046504D01*
X78411801Y-132115295D01*
X78359838Y-132163674D01*
X78303439Y-132177001D01*
X77990331Y-132177001D01*
X77983510Y-132177371D01*
X77932648Y-132182895D01*
X77917396Y-132186521D01*
X77796946Y-132231676D01*
X77781351Y-132240214D01*
X77679276Y-132316715D01*
X77666715Y-132329276D01*
X77590214Y-132431351D01*
X77581676Y-132446946D01*
X77536522Y-132567394D01*
X77532895Y-132582649D01*
X77527369Y-132633514D01*
X77527000Y-132640328D01*
X77527000Y-133327885D01*
X77531475Y-133343124D01*
X77532865Y-133344329D01*
X77540548Y-133346000D01*
X80454884Y-133346000D01*
X80470123Y-133341525D01*
X80471328Y-133340135D01*
X80472999Y-133332452D01*
X80472999Y-133327885D01*
X87527000Y-133327885D01*
X87531475Y-133343124D01*
X87532865Y-133344329D01*
X87540548Y-133346000D01*
X88727885Y-133346000D01*
X88743124Y-133341525D01*
X88744329Y-133340135D01*
X88746000Y-133332452D01*
X88746000Y-133327885D01*
X89254000Y-133327885D01*
X89258475Y-133343124D01*
X89259865Y-133344329D01*
X89267548Y-133346000D01*
X90454884Y-133346000D01*
X90470123Y-133341525D01*
X90471328Y-133340135D01*
X90472999Y-133332452D01*
X90472999Y-132640331D01*
X90472629Y-132633510D01*
X90467105Y-132582648D01*
X90463479Y-132567396D01*
X90418324Y-132446946D01*
X90409786Y-132431351D01*
X90333285Y-132329276D01*
X90320724Y-132316715D01*
X90218649Y-132240214D01*
X90203054Y-132231676D01*
X90082606Y-132186522D01*
X90067351Y-132182895D01*
X90016486Y-132177369D01*
X90009672Y-132177000D01*
X89272115Y-132177000D01*
X89256876Y-132181475D01*
X89255671Y-132182865D01*
X89254000Y-132190548D01*
X89254000Y-133327885D01*
X88746000Y-133327885D01*
X88746000Y-132195116D01*
X88741525Y-132179877D01*
X88740135Y-132178672D01*
X88732452Y-132177001D01*
X87990331Y-132177001D01*
X87983510Y-132177371D01*
X87932648Y-132182895D01*
X87917396Y-132186521D01*
X87796946Y-132231676D01*
X87781351Y-132240214D01*
X87679276Y-132316715D01*
X87666715Y-132329276D01*
X87590214Y-132431351D01*
X87581676Y-132446946D01*
X87536522Y-132567394D01*
X87532895Y-132582649D01*
X87527369Y-132633514D01*
X87527000Y-132640328D01*
X87527000Y-133327885D01*
X80472999Y-133327885D01*
X80472999Y-132640331D01*
X80472629Y-132633510D01*
X80467105Y-132582648D01*
X80463479Y-132567396D01*
X80418324Y-132446946D01*
X80409786Y-132431351D01*
X80333285Y-132329276D01*
X80320724Y-132316715D01*
X80218649Y-132240214D01*
X80203054Y-132231676D01*
X80082606Y-132186522D01*
X80067351Y-132182895D01*
X80016486Y-132177369D01*
X80009672Y-132177000D01*
X79696562Y-132177000D01*
X79628441Y-132156998D01*
X79581948Y-132103342D01*
X79571844Y-132033068D01*
X79601338Y-131968488D01*
X79648343Y-131934592D01*
X79676640Y-131922871D01*
X79711989Y-131908229D01*
X79711993Y-131908227D01*
X79716563Y-131906334D01*
X79927740Y-131776925D01*
X80116073Y-131616073D01*
X80276925Y-131427740D01*
X80406334Y-131216563D01*
X80501115Y-130987742D01*
X80521501Y-130902830D01*
X80557779Y-130751724D01*
X80557780Y-130751718D01*
X80558934Y-130746911D01*
X80578366Y-130500000D01*
X80558934Y-130253089D01*
X80557780Y-130248282D01*
X80557779Y-130248276D01*
X80502270Y-130017070D01*
X80501115Y-130012258D01*
X80406334Y-129783437D01*
X80276925Y-129572260D01*
X80116073Y-129383927D01*
X79927740Y-129223075D01*
X79724903Y-129098777D01*
X85765777Y-129098777D01*
X85775074Y-129110793D01*
X85818069Y-129140898D01*
X85827555Y-129146376D01*
X86018993Y-129235645D01*
X86029285Y-129239391D01*
X86233309Y-129294059D01*
X86244104Y-129295962D01*
X86454525Y-129314372D01*
X86465475Y-129314372D01*
X86675896Y-129295962D01*
X86686691Y-129294059D01*
X86818365Y-129258777D01*
X88305777Y-129258777D01*
X88315074Y-129270793D01*
X88358069Y-129300898D01*
X88367555Y-129306376D01*
X88558993Y-129395645D01*
X88569285Y-129399391D01*
X88773309Y-129454059D01*
X88784104Y-129455962D01*
X88994525Y-129474372D01*
X89005475Y-129474372D01*
X89215896Y-129455962D01*
X89226691Y-129454059D01*
X89430715Y-129399391D01*
X89441007Y-129395645D01*
X89632445Y-129306376D01*
X89641931Y-129300898D01*
X89685764Y-129270207D01*
X89694139Y-129259729D01*
X89687071Y-129246281D01*
X89012812Y-128572022D01*
X88998868Y-128564408D01*
X88997035Y-128564539D01*
X88990420Y-128568790D01*
X88312207Y-129247003D01*
X88305777Y-129258777D01*
X86818365Y-129258777D01*
X86890715Y-129239391D01*
X86901007Y-129235645D01*
X87092445Y-129146376D01*
X87101931Y-129140898D01*
X87145764Y-129110207D01*
X87154139Y-129099729D01*
X87147071Y-129086281D01*
X86472812Y-128412022D01*
X86458868Y-128404408D01*
X86457035Y-128404539D01*
X86450420Y-128408790D01*
X85772207Y-129087003D01*
X85765777Y-129098777D01*
X79724903Y-129098777D01*
X79716563Y-129093666D01*
X79711993Y-129091773D01*
X79711989Y-129091771D01*
X79492315Y-129000779D01*
X79492313Y-129000778D01*
X79487742Y-128998885D01*
X79402830Y-128978499D01*
X79251724Y-128942221D01*
X79251718Y-128942220D01*
X79246911Y-128941066D01*
X79000000Y-128921634D01*
X78753089Y-128941066D01*
X78748282Y-128942220D01*
X78748276Y-128942221D01*
X78597170Y-128978499D01*
X78512258Y-128998885D01*
X78507687Y-129000778D01*
X78507685Y-129000779D01*
X78288011Y-129091771D01*
X78288007Y-129091773D01*
X78283437Y-129093666D01*
X78072260Y-129223075D01*
X77883927Y-129383927D01*
X77723075Y-129572260D01*
X77593666Y-129783437D01*
X77498885Y-130012258D01*
X77497730Y-130017070D01*
X77442221Y-130248276D01*
X77442220Y-130248282D01*
X77441066Y-130253089D01*
X77421634Y-130500000D01*
X74508500Y-130500000D01*
X74508500Y-128045475D01*
X85185628Y-128045475D01*
X85204038Y-128255896D01*
X85205941Y-128266691D01*
X85260609Y-128470715D01*
X85264355Y-128481007D01*
X85353623Y-128672441D01*
X85359103Y-128681932D01*
X85389794Y-128725765D01*
X85400271Y-128734140D01*
X85413718Y-128727072D01*
X86087978Y-128052812D01*
X86094356Y-128041132D01*
X86824408Y-128041132D01*
X86824539Y-128042965D01*
X86828790Y-128049580D01*
X87507003Y-128727793D01*
X87518777Y-128734223D01*
X87530793Y-128724926D01*
X87560897Y-128681932D01*
X87566379Y-128672437D01*
X87578500Y-128646444D01*
X87625417Y-128593158D01*
X87693694Y-128573697D01*
X87761654Y-128594239D01*
X87806890Y-128646443D01*
X87893623Y-128832441D01*
X87899103Y-128841932D01*
X87929794Y-128885765D01*
X87940271Y-128894140D01*
X87953718Y-128887072D01*
X88627978Y-128212812D01*
X88634356Y-128201132D01*
X89364408Y-128201132D01*
X89364539Y-128202965D01*
X89368790Y-128209580D01*
X90047003Y-128887793D01*
X90058777Y-128894223D01*
X90070793Y-128884926D01*
X90100897Y-128841932D01*
X90106377Y-128832441D01*
X90192834Y-128647035D01*
X90239752Y-128593750D01*
X90308029Y-128574289D01*
X90375989Y-128594831D01*
X90421224Y-128647036D01*
X90433184Y-128672685D01*
X90433187Y-128672691D01*
X90435512Y-128677676D01*
X90438668Y-128682183D01*
X90438669Y-128682185D01*
X90475107Y-128734223D01*
X90563023Y-128859781D01*
X90720219Y-129016977D01*
X90724727Y-129020134D01*
X90724730Y-129020136D01*
X90800495Y-129073187D01*
X90902323Y-129144488D01*
X90907305Y-129146811D01*
X90907310Y-129146814D01*
X91097810Y-129235645D01*
X91103804Y-129238440D01*
X91109112Y-129239862D01*
X91109114Y-129239863D01*
X91135761Y-129247003D01*
X91318537Y-129295978D01*
X91540000Y-129315353D01*
X91761463Y-129295978D01*
X91944239Y-129247003D01*
X91970886Y-129239863D01*
X91970888Y-129239862D01*
X91976196Y-129238440D01*
X91982190Y-129235645D01*
X92172690Y-129146814D01*
X92172695Y-129146811D01*
X92177677Y-129144488D01*
X92279505Y-129073187D01*
X92355270Y-129020136D01*
X92355273Y-129020134D01*
X92359781Y-129016977D01*
X92516977Y-128859781D01*
X92604894Y-128734223D01*
X92641331Y-128682185D01*
X92641332Y-128682183D01*
X92644488Y-128677676D01*
X92646811Y-128672694D01*
X92646814Y-128672689D01*
X92736117Y-128481178D01*
X92736118Y-128481177D01*
X92738440Y-128476196D01*
X92795978Y-128261463D01*
X92815353Y-128040000D01*
X92795978Y-127818537D01*
X92749972Y-127646842D01*
X92739863Y-127609114D01*
X92739862Y-127609112D01*
X92738440Y-127603804D01*
X92733386Y-127592965D01*
X92646814Y-127407311D01*
X92646811Y-127407306D01*
X92644488Y-127402324D01*
X92641331Y-127397815D01*
X92520136Y-127224730D01*
X92520134Y-127224727D01*
X92516977Y-127220219D01*
X92359781Y-127063023D01*
X92355273Y-127059866D01*
X92355270Y-127059864D01*
X92270645Y-127000609D01*
X92177677Y-126935512D01*
X92172695Y-126933189D01*
X92172690Y-126933186D01*
X91981178Y-126843883D01*
X91981177Y-126843882D01*
X91976196Y-126841560D01*
X91970888Y-126840138D01*
X91970886Y-126840137D01*
X91905051Y-126822497D01*
X91761463Y-126784022D01*
X91540000Y-126764647D01*
X91318537Y-126784022D01*
X91174949Y-126822497D01*
X91109114Y-126840137D01*
X91109112Y-126840138D01*
X91103804Y-126841560D01*
X91098823Y-126843882D01*
X91098822Y-126843883D01*
X90907311Y-126933186D01*
X90907306Y-126933189D01*
X90902324Y-126935512D01*
X90897817Y-126938668D01*
X90897815Y-126938669D01*
X90724730Y-127059864D01*
X90724727Y-127059866D01*
X90720219Y-127063023D01*
X90563023Y-127220219D01*
X90559866Y-127224727D01*
X90559864Y-127224730D01*
X90438669Y-127397815D01*
X90435512Y-127402324D01*
X90433189Y-127407306D01*
X90433186Y-127407311D01*
X90346614Y-127592965D01*
X90299696Y-127646250D01*
X90231419Y-127665711D01*
X90163459Y-127645169D01*
X90118224Y-127592965D01*
X90106377Y-127567559D01*
X90100897Y-127558068D01*
X90070206Y-127514235D01*
X90059729Y-127505860D01*
X90046282Y-127512928D01*
X89372022Y-128187188D01*
X89364408Y-128201132D01*
X88634356Y-128201132D01*
X88635592Y-128198868D01*
X88635461Y-128197035D01*
X88631210Y-128190420D01*
X87952997Y-127512207D01*
X87941223Y-127505777D01*
X87929207Y-127515074D01*
X87899103Y-127558068D01*
X87893621Y-127567563D01*
X87881500Y-127593556D01*
X87834583Y-127646842D01*
X87766306Y-127666303D01*
X87698346Y-127645761D01*
X87653110Y-127593557D01*
X87566377Y-127407559D01*
X87560897Y-127398068D01*
X87530206Y-127354235D01*
X87519729Y-127345860D01*
X87506282Y-127352928D01*
X86832022Y-128027188D01*
X86824408Y-128041132D01*
X86094356Y-128041132D01*
X86095592Y-128038868D01*
X86095461Y-128037035D01*
X86091210Y-128030420D01*
X85412997Y-127352207D01*
X85401223Y-127345777D01*
X85389207Y-127355074D01*
X85359103Y-127398068D01*
X85353623Y-127407559D01*
X85264355Y-127598993D01*
X85260609Y-127609285D01*
X85205941Y-127813309D01*
X85204038Y-127824104D01*
X85185628Y-128034525D01*
X85185628Y-128045475D01*
X74508500Y-128045475D01*
X74508500Y-125500000D01*
X85196693Y-125500000D01*
X85215885Y-125719371D01*
X85272880Y-125932076D01*
X85275205Y-125937061D01*
X85363618Y-126126666D01*
X85363621Y-126126671D01*
X85365944Y-126131653D01*
X85492251Y-126312038D01*
X85647962Y-126467749D01*
X85828346Y-126594056D01*
X85833328Y-126596379D01*
X85833333Y-126596382D01*
X85947162Y-126649461D01*
X86000447Y-126696378D01*
X86019908Y-126764656D01*
X85999366Y-126832616D01*
X85947162Y-126877851D01*
X85827559Y-126933623D01*
X85818068Y-126939103D01*
X85774235Y-126969794D01*
X85765860Y-126980271D01*
X85772928Y-126993718D01*
X86447188Y-127667978D01*
X86461132Y-127675592D01*
X86462965Y-127675461D01*
X86469580Y-127671210D01*
X87000519Y-127140271D01*
X88305860Y-127140271D01*
X88312928Y-127153718D01*
X88987188Y-127827978D01*
X89001132Y-127835592D01*
X89002965Y-127835461D01*
X89009580Y-127831210D01*
X89687793Y-127152997D01*
X89694223Y-127141223D01*
X89684926Y-127129207D01*
X89641931Y-127099102D01*
X89632445Y-127093624D01*
X89441007Y-127004355D01*
X89430715Y-127000609D01*
X89226691Y-126945941D01*
X89215896Y-126944038D01*
X89005475Y-126925628D01*
X88994525Y-126925628D01*
X88784104Y-126944038D01*
X88773309Y-126945941D01*
X88569285Y-127000609D01*
X88558993Y-127004355D01*
X88367559Y-127093623D01*
X88358068Y-127099103D01*
X88314235Y-127129794D01*
X88305860Y-127140271D01*
X87000519Y-127140271D01*
X87147793Y-126992997D01*
X87154223Y-126981223D01*
X87144926Y-126969207D01*
X87101931Y-126939102D01*
X87092445Y-126933624D01*
X86972838Y-126877850D01*
X86919553Y-126830932D01*
X86900092Y-126762655D01*
X86920634Y-126694695D01*
X86972839Y-126649460D01*
X87086663Y-126596384D01*
X87086669Y-126596380D01*
X87091654Y-126594056D01*
X87272038Y-126467749D01*
X87427749Y-126312038D01*
X87554056Y-126131653D01*
X87556379Y-126126671D01*
X87556382Y-126126666D01*
X87644795Y-125937061D01*
X87647120Y-125932076D01*
X87704115Y-125719371D01*
X87723307Y-125500000D01*
X87704115Y-125280629D01*
X87647120Y-125067924D01*
X87603585Y-124974562D01*
X87556382Y-124873334D01*
X87556379Y-124873329D01*
X87554056Y-124868347D01*
X87427749Y-124687962D01*
X87272038Y-124532251D01*
X87091654Y-124405944D01*
X87086666Y-124403618D01*
X87086663Y-124403616D01*
X86972839Y-124350540D01*
X86919553Y-124303623D01*
X86900092Y-124235346D01*
X86920633Y-124167386D01*
X86972838Y-124122150D01*
X87092445Y-124066376D01*
X87101931Y-124060898D01*
X87145764Y-124030207D01*
X87154139Y-124019729D01*
X87147071Y-124006281D01*
X86472812Y-123332022D01*
X86458868Y-123324408D01*
X86457035Y-123324539D01*
X86450420Y-123328790D01*
X85772207Y-124007003D01*
X85765777Y-124018777D01*
X85775074Y-124030793D01*
X85818069Y-124060898D01*
X85827555Y-124066376D01*
X85947162Y-124122150D01*
X86000447Y-124169068D01*
X86019908Y-124237345D01*
X85999366Y-124305305D01*
X85947162Y-124350540D01*
X85833334Y-124403618D01*
X85833329Y-124403621D01*
X85828347Y-124405944D01*
X85823840Y-124409100D01*
X85823838Y-124409101D01*
X85652473Y-124529092D01*
X85652470Y-124529094D01*
X85647962Y-124532251D01*
X85492251Y-124687962D01*
X85365944Y-124868347D01*
X85363621Y-124873329D01*
X85363618Y-124873334D01*
X85316415Y-124974562D01*
X85272880Y-125067924D01*
X85215885Y-125280629D01*
X85196693Y-125500000D01*
X74508500Y-125500000D01*
X74508500Y-122200000D01*
X77421634Y-122200000D01*
X77441066Y-122446911D01*
X77442220Y-122451718D01*
X77442221Y-122451724D01*
X77478499Y-122602830D01*
X77498885Y-122687742D01*
X77500778Y-122692313D01*
X77500779Y-122692315D01*
X77522195Y-122744016D01*
X77593666Y-122916563D01*
X77723075Y-123127740D01*
X77883927Y-123316073D01*
X78072260Y-123476925D01*
X78283437Y-123606334D01*
X78288007Y-123608227D01*
X78288011Y-123608229D01*
X78507685Y-123699221D01*
X78512258Y-123701115D01*
X78597170Y-123721501D01*
X78748276Y-123757779D01*
X78748282Y-123757780D01*
X78753089Y-123758934D01*
X79000000Y-123778366D01*
X79246911Y-123758934D01*
X79251718Y-123757780D01*
X79251724Y-123757779D01*
X79402830Y-123721501D01*
X79487742Y-123701115D01*
X79492315Y-123699221D01*
X79711989Y-123608229D01*
X79711993Y-123608227D01*
X79716563Y-123606334D01*
X79927740Y-123476925D01*
X80116073Y-123316073D01*
X80276925Y-123127740D01*
X80376361Y-122965475D01*
X85185628Y-122965475D01*
X85204038Y-123175896D01*
X85205941Y-123186691D01*
X85260609Y-123390715D01*
X85264355Y-123401007D01*
X85353623Y-123592441D01*
X85359103Y-123601932D01*
X85389794Y-123645765D01*
X85400271Y-123654140D01*
X85413718Y-123647072D01*
X86087978Y-122972812D01*
X86095592Y-122958868D01*
X86095461Y-122957035D01*
X86091210Y-122950420D01*
X85412997Y-122272207D01*
X85401223Y-122265777D01*
X85389207Y-122275074D01*
X85359103Y-122318068D01*
X85353623Y-122327559D01*
X85264355Y-122518993D01*
X85260609Y-122529285D01*
X85205941Y-122733309D01*
X85204038Y-122744104D01*
X85185628Y-122954525D01*
X85185628Y-122965475D01*
X80376361Y-122965475D01*
X80406334Y-122916563D01*
X80477806Y-122744016D01*
X80499221Y-122692315D01*
X80499222Y-122692313D01*
X80501115Y-122687742D01*
X80521501Y-122602830D01*
X80557779Y-122451724D01*
X80557780Y-122451718D01*
X80558934Y-122446911D01*
X80578366Y-122200000D01*
X80558934Y-121953089D01*
X80557780Y-121948282D01*
X80557779Y-121948276D01*
X80546254Y-121900271D01*
X85765860Y-121900271D01*
X85772928Y-121913718D01*
X86447188Y-122587978D01*
X86461132Y-122595592D01*
X86462965Y-122595461D01*
X86469580Y-122591210D01*
X87147793Y-121912997D01*
X87154223Y-121901223D01*
X87144926Y-121889207D01*
X87101931Y-121859102D01*
X87092445Y-121853624D01*
X86901007Y-121764355D01*
X86890715Y-121760609D01*
X86686691Y-121705941D01*
X86675896Y-121704038D01*
X86465475Y-121685628D01*
X86454525Y-121685628D01*
X86244104Y-121704038D01*
X86233309Y-121705941D01*
X86029285Y-121760609D01*
X86018993Y-121764355D01*
X85827559Y-121853623D01*
X85818068Y-121859103D01*
X85774235Y-121889794D01*
X85765860Y-121900271D01*
X80546254Y-121900271D01*
X80521501Y-121797170D01*
X80501115Y-121712258D01*
X80499221Y-121707685D01*
X80408229Y-121488011D01*
X80408227Y-121488007D01*
X80406334Y-121483437D01*
X80276925Y-121272260D01*
X80116073Y-121083927D01*
X79927740Y-120923075D01*
X79716563Y-120793666D01*
X79648342Y-120765408D01*
X79593062Y-120720859D01*
X79570641Y-120653496D01*
X79588199Y-120584705D01*
X79640162Y-120536326D01*
X79696561Y-120522999D01*
X80009669Y-120522999D01*
X80016490Y-120522629D01*
X80067352Y-120517105D01*
X80082604Y-120513479D01*
X80203054Y-120468324D01*
X80218649Y-120459786D01*
X80320724Y-120383285D01*
X80333285Y-120370724D01*
X80409786Y-120268649D01*
X80418324Y-120253054D01*
X80463478Y-120132606D01*
X80467105Y-120117351D01*
X80472631Y-120066486D01*
X80473000Y-120059672D01*
X80473000Y-119372115D01*
X80468525Y-119356876D01*
X80467135Y-119355671D01*
X80459452Y-119354000D01*
X77545116Y-119354000D01*
X77529877Y-119358475D01*
X77528672Y-119359865D01*
X77527001Y-119367548D01*
X77527001Y-120059669D01*
X77527371Y-120066490D01*
X77532895Y-120117352D01*
X77536521Y-120132604D01*
X77581676Y-120253054D01*
X77590214Y-120268649D01*
X77666715Y-120370724D01*
X77679276Y-120383285D01*
X77781351Y-120459786D01*
X77796946Y-120468324D01*
X77917394Y-120513478D01*
X77932649Y-120517105D01*
X77983514Y-120522631D01*
X77990328Y-120523000D01*
X78303438Y-120523000D01*
X78371559Y-120543002D01*
X78418052Y-120596658D01*
X78428156Y-120666932D01*
X78398662Y-120731512D01*
X78351657Y-120765408D01*
X78323360Y-120777129D01*
X78288011Y-120791771D01*
X78288007Y-120791773D01*
X78283437Y-120793666D01*
X78072260Y-120923075D01*
X77883927Y-121083927D01*
X77723075Y-121272260D01*
X77593666Y-121483437D01*
X77591773Y-121488007D01*
X77591771Y-121488011D01*
X77500779Y-121707685D01*
X77498885Y-121712258D01*
X77478499Y-121797170D01*
X77442221Y-121948276D01*
X77442220Y-121948282D01*
X77441066Y-121953089D01*
X77421634Y-122200000D01*
X74508500Y-122200000D01*
X74508500Y-114843950D01*
X74528502Y-114775829D01*
X74582158Y-114729336D01*
X74652432Y-114719232D01*
X74717012Y-114748726D01*
X74723595Y-114754855D01*
X77645719Y-117676979D01*
X77679745Y-117739291D01*
X77674680Y-117810106D01*
X77657450Y-117841639D01*
X77590214Y-117931352D01*
X77581676Y-117946946D01*
X77536522Y-118067394D01*
X77532895Y-118082649D01*
X77527369Y-118133514D01*
X77527000Y-118140328D01*
X77527000Y-118827885D01*
X77531475Y-118843124D01*
X77532865Y-118844329D01*
X77540548Y-118846000D01*
X80454884Y-118846000D01*
X80470123Y-118841525D01*
X80471328Y-118840135D01*
X80472999Y-118832452D01*
X80472999Y-118584500D01*
X80493001Y-118516379D01*
X80546657Y-118469886D01*
X80598999Y-118458500D01*
X80819776Y-118458500D01*
X80887897Y-118478502D01*
X80893834Y-118482562D01*
X81043248Y-118591118D01*
X81049276Y-118593802D01*
X81049278Y-118593803D01*
X81211681Y-118666109D01*
X81217712Y-118668794D01*
X81311113Y-118688647D01*
X81398056Y-118707128D01*
X81398061Y-118707128D01*
X81404513Y-118708500D01*
X81595487Y-118708500D01*
X81601939Y-118707128D01*
X81601944Y-118707128D01*
X81688887Y-118688647D01*
X81782288Y-118668794D01*
X81788319Y-118666109D01*
X81950722Y-118593803D01*
X81950724Y-118593802D01*
X81956752Y-118591118D01*
X82111253Y-118478866D01*
X82129591Y-118458500D01*
X82234621Y-118341852D01*
X82234622Y-118341851D01*
X82239040Y-118336944D01*
X82334527Y-118171556D01*
X82393542Y-117989928D01*
X82413504Y-117800000D01*
X82404324Y-117712655D01*
X82394232Y-117616635D01*
X82394232Y-117616633D01*
X82393542Y-117610072D01*
X82334527Y-117428444D01*
X82239040Y-117263056D01*
X82111253Y-117121134D01*
X81956752Y-117008882D01*
X81950724Y-117006198D01*
X81950722Y-117006197D01*
X81788319Y-116933891D01*
X81788318Y-116933891D01*
X81782288Y-116931206D01*
X81688888Y-116911353D01*
X81601944Y-116892872D01*
X81601939Y-116892872D01*
X81595487Y-116891500D01*
X81404513Y-116891500D01*
X81398061Y-116892872D01*
X81398056Y-116892872D01*
X81311112Y-116911353D01*
X81217712Y-116931206D01*
X81211682Y-116933891D01*
X81211681Y-116933891D01*
X81049278Y-117006197D01*
X81049276Y-117006198D01*
X81043248Y-117008882D01*
X80894092Y-117117251D01*
X80893837Y-117117436D01*
X80826969Y-117141294D01*
X80819776Y-117141500D01*
X79024950Y-117141500D01*
X78956829Y-117121498D01*
X78935855Y-117104595D01*
X75195405Y-113364145D01*
X75161379Y-113301833D01*
X75158500Y-113275050D01*
X75158500Y-87154950D01*
X75178502Y-87086829D01*
X75195405Y-87065855D01*
X75323928Y-86937332D01*
X75386240Y-86903306D01*
X75438140Y-86902956D01*
X75588597Y-86933567D01*
X75593772Y-86933757D01*
X75593774Y-86933757D01*
X75806673Y-86941564D01*
X75806677Y-86941564D01*
X75811837Y-86941753D01*
X75816957Y-86941097D01*
X75816959Y-86941097D01*
X76028288Y-86914025D01*
X76028289Y-86914025D01*
X76033416Y-86913368D01*
X76038373Y-86911881D01*
X76038377Y-86911880D01*
X76128803Y-86884751D01*
X76199798Y-86884333D01*
X76259749Y-86922365D01*
X76289621Y-86986772D01*
X76291011Y-87005436D01*
X76291011Y-110867455D01*
X76290452Y-110879311D01*
X76288723Y-110887048D01*
X76288972Y-110894970D01*
X76290949Y-110957880D01*
X76291011Y-110961838D01*
X76291011Y-110990943D01*
X76291567Y-110995343D01*
X76292499Y-111007175D01*
X76293949Y-111053342D01*
X76296161Y-111060955D01*
X76296161Y-111060956D01*
X76299930Y-111073927D01*
X76303941Y-111093293D01*
X76306629Y-111114575D01*
X76309545Y-111121940D01*
X76309546Y-111121944D01*
X76323637Y-111157532D01*
X76327476Y-111168742D01*
X76340366Y-111213111D01*
X76351286Y-111231576D01*
X76359977Y-111249316D01*
X76367876Y-111269267D01*
X76395027Y-111306637D01*
X76401544Y-111316559D01*
X76421018Y-111349488D01*
X76421021Y-111349492D01*
X76425058Y-111356318D01*
X76440222Y-111371482D01*
X76453062Y-111386515D01*
X76465670Y-111403868D01*
X76501263Y-111433313D01*
X76510043Y-111441303D01*
X76976345Y-111907605D01*
X76984335Y-111916385D01*
X76988584Y-111923080D01*
X76994362Y-111928506D01*
X76994363Y-111928507D01*
X77040257Y-111971604D01*
X77043099Y-111974359D01*
X77063667Y-111994927D01*
X77067170Y-111997644D01*
X77076195Y-112005352D01*
X77109867Y-112036972D01*
X77116816Y-112040792D01*
X77126200Y-112045951D01*
X77176259Y-112096296D01*
X77191500Y-112156366D01*
X77191500Y-112472271D01*
X77191646Y-112474407D01*
X77191646Y-112474418D01*
X77192417Y-112485718D01*
X77206127Y-112686825D01*
X77206996Y-112691020D01*
X77206996Y-112691022D01*
X77211516Y-112712849D01*
X77264426Y-112968342D01*
X77360393Y-113239343D01*
X77492250Y-113494812D01*
X77494711Y-113498313D01*
X77494713Y-113498317D01*
X77507779Y-113516908D01*
X77657559Y-113730023D01*
X77676066Y-113749939D01*
X77776118Y-113857607D01*
X77853260Y-113940622D01*
X78075732Y-114122713D01*
X78320858Y-114272927D01*
X78324791Y-114274653D01*
X78324792Y-114274654D01*
X78343980Y-114283077D01*
X78584102Y-114388483D01*
X78588229Y-114389658D01*
X78588230Y-114389659D01*
X78722348Y-114427864D01*
X78860594Y-114467244D01*
X79073296Y-114497515D01*
X79140964Y-114507146D01*
X79140966Y-114507146D01*
X79145216Y-114507751D01*
X79149505Y-114507773D01*
X79149512Y-114507774D01*
X79428417Y-114509235D01*
X79428424Y-114509235D01*
X79432703Y-114509257D01*
X79436947Y-114508698D01*
X79436951Y-114508698D01*
X79590049Y-114488542D01*
X79717734Y-114471732D01*
X79734140Y-114467244D01*
X79798689Y-114449585D01*
X79995036Y-114395871D01*
X80017508Y-114386286D01*
X80255524Y-114284763D01*
X80255528Y-114284761D01*
X80259476Y-114283077D01*
X80384040Y-114208527D01*
X80502479Y-114137643D01*
X80502483Y-114137640D01*
X80506161Y-114135439D01*
X80730528Y-113955687D01*
X80730996Y-113955194D01*
X80793895Y-113924194D01*
X80864437Y-113932219D01*
X80919441Y-113977108D01*
X80941500Y-114048328D01*
X80941500Y-115217944D01*
X80940941Y-115229800D01*
X80939212Y-115237537D01*
X80939461Y-115245459D01*
X80941438Y-115308369D01*
X80941500Y-115312327D01*
X80941500Y-115341432D01*
X80942056Y-115345832D01*
X80942988Y-115357664D01*
X80944438Y-115403831D01*
X80946650Y-115411444D01*
X80946650Y-115411445D01*
X80950419Y-115424416D01*
X80954430Y-115443782D01*
X80957118Y-115465064D01*
X80960034Y-115472429D01*
X80960035Y-115472433D01*
X80974126Y-115508021D01*
X80977965Y-115519231D01*
X80990855Y-115563600D01*
X81001775Y-115582065D01*
X81010466Y-115599805D01*
X81018365Y-115619756D01*
X81045516Y-115657126D01*
X81052033Y-115667048D01*
X81071507Y-115699977D01*
X81071510Y-115699981D01*
X81075547Y-115706807D01*
X81090711Y-115721971D01*
X81103551Y-115737004D01*
X81116159Y-115754357D01*
X81151752Y-115783802D01*
X81160532Y-115791792D01*
X82826830Y-117458089D01*
X82834820Y-117466870D01*
X82834828Y-117466879D01*
X82839073Y-117473569D01*
X82844848Y-117478992D01*
X82890763Y-117522109D01*
X82893605Y-117524864D01*
X82914156Y-117545415D01*
X82917290Y-117547846D01*
X82917652Y-117548127D01*
X82926680Y-117555837D01*
X82960356Y-117587461D01*
X82967307Y-117591282D01*
X82967308Y-117591283D01*
X82979144Y-117597790D01*
X82995673Y-117608647D01*
X83006358Y-117616936D01*
X83006360Y-117616937D01*
X83012620Y-117621793D01*
X83055033Y-117640146D01*
X83065670Y-117645357D01*
X83106152Y-117667613D01*
X83113831Y-117669585D01*
X83113832Y-117669585D01*
X83126923Y-117672946D01*
X83145625Y-117679348D01*
X83165312Y-117687868D01*
X83173141Y-117689108D01*
X83210937Y-117695094D01*
X83222563Y-117697502D01*
X83259624Y-117707018D01*
X83259625Y-117707018D01*
X83267301Y-117708989D01*
X83288747Y-117708989D01*
X83308457Y-117710540D01*
X83329640Y-117713895D01*
X83375629Y-117709548D01*
X83387484Y-117708989D01*
X85415539Y-117708989D01*
X85483660Y-117728991D01*
X85504634Y-117745894D01*
X89069523Y-121310783D01*
X89103549Y-121373095D01*
X89098484Y-121443910D01*
X89055937Y-121500746D01*
X88991410Y-121525398D01*
X88778537Y-121544022D01*
X88667480Y-121573780D01*
X88569114Y-121600137D01*
X88569112Y-121600138D01*
X88563804Y-121601560D01*
X88558823Y-121603882D01*
X88558822Y-121603883D01*
X88367311Y-121693186D01*
X88367306Y-121693189D01*
X88362324Y-121695512D01*
X88357817Y-121698668D01*
X88357815Y-121698669D01*
X88184730Y-121819864D01*
X88184727Y-121819866D01*
X88180219Y-121823023D01*
X88023023Y-121980219D01*
X87895512Y-122162324D01*
X87893189Y-122167306D01*
X87893186Y-122167311D01*
X87806614Y-122352965D01*
X87759696Y-122406250D01*
X87691419Y-122425711D01*
X87623459Y-122405169D01*
X87578224Y-122352965D01*
X87566377Y-122327559D01*
X87560897Y-122318068D01*
X87530206Y-122274235D01*
X87519729Y-122265860D01*
X87506282Y-122272928D01*
X86832022Y-122947188D01*
X86824408Y-122961132D01*
X86824539Y-122962965D01*
X86828790Y-122969580D01*
X87507003Y-123647793D01*
X87518777Y-123654223D01*
X87530793Y-123644926D01*
X87560897Y-123601932D01*
X87566377Y-123592441D01*
X87652834Y-123407035D01*
X87699752Y-123353750D01*
X87768029Y-123334289D01*
X87835989Y-123354831D01*
X87881224Y-123407036D01*
X87893184Y-123432685D01*
X87893187Y-123432691D01*
X87895512Y-123437676D01*
X87898668Y-123442183D01*
X87898669Y-123442185D01*
X88011797Y-123603748D01*
X88023023Y-123619781D01*
X88180219Y-123776977D01*
X88184727Y-123780134D01*
X88184730Y-123780136D01*
X88189789Y-123783678D01*
X88362323Y-123904488D01*
X88367305Y-123906811D01*
X88367310Y-123906814D01*
X88438770Y-123940136D01*
X88563804Y-123998440D01*
X88569112Y-123999862D01*
X88569114Y-123999863D01*
X88595761Y-124007003D01*
X88778537Y-124055978D01*
X89000000Y-124075353D01*
X89221463Y-124055978D01*
X89404239Y-124007003D01*
X89430886Y-123999863D01*
X89430888Y-123999862D01*
X89436196Y-123998440D01*
X89561230Y-123940136D01*
X89632690Y-123906814D01*
X89632695Y-123906811D01*
X89637677Y-123904488D01*
X89810211Y-123783678D01*
X89815270Y-123780136D01*
X89815273Y-123780134D01*
X89819781Y-123776977D01*
X89976977Y-123619781D01*
X89988204Y-123603748D01*
X90101331Y-123442185D01*
X90101332Y-123442183D01*
X90104488Y-123437676D01*
X90106811Y-123432694D01*
X90106814Y-123432689D01*
X90118500Y-123407627D01*
X90165417Y-123354342D01*
X90233694Y-123334881D01*
X90301654Y-123355423D01*
X90346890Y-123407627D01*
X90433186Y-123592689D01*
X90433189Y-123592694D01*
X90435512Y-123597676D01*
X90438668Y-123602183D01*
X90438669Y-123602185D01*
X90548426Y-123758934D01*
X90563023Y-123779781D01*
X90720219Y-123936977D01*
X90724727Y-123940134D01*
X90724730Y-123940136D01*
X90800495Y-123993187D01*
X90902323Y-124064488D01*
X90907305Y-124066811D01*
X90907310Y-124066814D01*
X91098822Y-124156117D01*
X91103804Y-124158440D01*
X91109112Y-124159862D01*
X91109114Y-124159863D01*
X91143468Y-124169068D01*
X91318537Y-124215978D01*
X91540000Y-124235353D01*
X91761463Y-124215978D01*
X91936532Y-124169068D01*
X91970886Y-124159863D01*
X91970888Y-124159862D01*
X91976196Y-124158440D01*
X91981178Y-124156117D01*
X92172690Y-124066814D01*
X92172695Y-124066811D01*
X92177677Y-124064488D01*
X92279505Y-123993187D01*
X92355270Y-123940136D01*
X92355273Y-123940134D01*
X92359781Y-123936977D01*
X92516977Y-123779781D01*
X92531575Y-123758934D01*
X92641331Y-123602185D01*
X92641332Y-123602183D01*
X92644488Y-123597676D01*
X92646811Y-123592694D01*
X92646814Y-123592689D01*
X92736117Y-123401178D01*
X92736118Y-123401177D01*
X92738440Y-123396196D01*
X92749814Y-123353750D01*
X92794554Y-123186776D01*
X92795978Y-123181463D01*
X92815353Y-122960000D01*
X92795978Y-122738537D01*
X92738440Y-122523804D01*
X92712176Y-122467480D01*
X92646814Y-122327311D01*
X92646811Y-122327306D01*
X92644488Y-122322324D01*
X92641331Y-122317815D01*
X92520136Y-122144730D01*
X92520134Y-122144727D01*
X92516977Y-122140219D01*
X92359781Y-121983023D01*
X92355273Y-121979866D01*
X92355270Y-121979864D01*
X92279505Y-121926813D01*
X92177677Y-121855512D01*
X92172695Y-121853189D01*
X92172690Y-121853186D01*
X91981178Y-121763883D01*
X91981177Y-121763882D01*
X91976196Y-121761560D01*
X91970888Y-121760138D01*
X91970886Y-121760137D01*
X91905051Y-121742497D01*
X91761463Y-121704022D01*
X91540000Y-121684647D01*
X91383267Y-121698359D01*
X91313665Y-121684370D01*
X91283193Y-121661933D01*
X86264144Y-116642884D01*
X86256154Y-116634104D01*
X86256152Y-116634102D01*
X86251905Y-116627409D01*
X86200231Y-116578884D01*
X86197390Y-116576130D01*
X86176822Y-116555562D01*
X86173315Y-116552842D01*
X86164293Y-116545136D01*
X86136402Y-116518945D01*
X86130622Y-116513517D01*
X86123670Y-116509695D01*
X86111831Y-116503186D01*
X86095307Y-116492332D01*
X86084621Y-116484044D01*
X86078357Y-116479185D01*
X86071085Y-116476038D01*
X86071083Y-116476037D01*
X86035954Y-116460835D01*
X86025294Y-116455613D01*
X85991773Y-116437184D01*
X85991771Y-116437183D01*
X85984826Y-116433365D01*
X85964048Y-116428030D01*
X85945358Y-116421631D01*
X85925665Y-116413109D01*
X85880041Y-116405883D01*
X85868418Y-116403476D01*
X85840417Y-116396287D01*
X85823677Y-116391989D01*
X85802230Y-116391989D01*
X85782520Y-116390438D01*
X85769166Y-116388323D01*
X85761337Y-116387083D01*
X85715348Y-116391430D01*
X85703493Y-116391989D01*
X83675438Y-116391989D01*
X83607317Y-116371987D01*
X83586343Y-116355084D01*
X82295405Y-115064145D01*
X82261379Y-115001833D01*
X82258500Y-114975050D01*
X82258500Y-113943378D01*
X82278502Y-113875257D01*
X82332158Y-113828764D01*
X82402432Y-113818660D01*
X82467012Y-113848154D01*
X82476800Y-113857607D01*
X82550682Y-113937114D01*
X82556922Y-113942973D01*
X82772704Y-114119589D01*
X82779676Y-114124544D01*
X83017440Y-114270246D01*
X83025010Y-114274204D01*
X83280343Y-114386286D01*
X83288403Y-114389188D01*
X83556568Y-114465576D01*
X83564946Y-114467358D01*
X83728065Y-114490573D01*
X83742051Y-114488542D01*
X83746000Y-114475057D01*
X83746000Y-114474668D01*
X84254000Y-114474668D01*
X84258044Y-114488439D01*
X84271583Y-114490468D01*
X84413379Y-114471800D01*
X84421777Y-114470107D01*
X84690726Y-114396531D01*
X84698821Y-114393712D01*
X84955306Y-114284312D01*
X84962929Y-114280428D01*
X85202194Y-114137232D01*
X85209223Y-114132347D01*
X85426847Y-113957996D01*
X85433136Y-113952213D01*
X85625087Y-113749939D01*
X85630540Y-113743346D01*
X85793253Y-113516908D01*
X85797770Y-113509623D01*
X85928243Y-113263201D01*
X85931729Y-113255373D01*
X86027554Y-112993519D01*
X86029943Y-112985296D01*
X86089346Y-112712849D01*
X86090595Y-112704393D01*
X86107807Y-112485700D01*
X86108000Y-112480774D01*
X86108000Y-111772115D01*
X86103525Y-111756876D01*
X86102135Y-111755671D01*
X86094452Y-111754000D01*
X84272115Y-111754000D01*
X84256876Y-111758475D01*
X84255671Y-111759865D01*
X84254000Y-111767548D01*
X84254000Y-114474668D01*
X83746000Y-114474668D01*
X83746000Y-108525332D01*
X83741956Y-108511561D01*
X83728417Y-108509532D01*
X83586621Y-108528200D01*
X83578223Y-108529893D01*
X83309274Y-108603469D01*
X83301179Y-108606288D01*
X83044694Y-108715688D01*
X83037071Y-108719572D01*
X82797806Y-108862768D01*
X82790777Y-108867653D01*
X82573153Y-109042004D01*
X82566864Y-109047787D01*
X82475897Y-109143646D01*
X82414497Y-109179290D01*
X82343573Y-109176081D01*
X82285643Y-109135037D01*
X82259099Y-109069189D01*
X82258500Y-109056913D01*
X82258500Y-107582059D01*
X82259059Y-107570203D01*
X82260789Y-107562463D01*
X82258562Y-107491611D01*
X82258500Y-107487653D01*
X82258500Y-107458568D01*
X82257946Y-107454179D01*
X82257013Y-107442337D01*
X82255811Y-107404094D01*
X82255562Y-107396169D01*
X82249580Y-107375579D01*
X82245570Y-107356216D01*
X82243875Y-107342796D01*
X82243875Y-107342795D01*
X82242882Y-107334936D01*
X82239966Y-107327571D01*
X82239965Y-107327567D01*
X82225874Y-107291979D01*
X82222035Y-107280769D01*
X82209145Y-107236400D01*
X82198225Y-107217935D01*
X82189534Y-107200195D01*
X82181635Y-107180244D01*
X82154482Y-107142871D01*
X82147967Y-107132952D01*
X82128493Y-107100023D01*
X82128490Y-107100019D01*
X82124453Y-107093193D01*
X82109289Y-107078029D01*
X82096448Y-107062995D01*
X82088501Y-107052057D01*
X82083841Y-107045643D01*
X82048247Y-107016197D01*
X82039468Y-107008208D01*
X80945894Y-105914634D01*
X80911868Y-105852322D01*
X80908989Y-105825539D01*
X80908989Y-92514549D01*
X80928991Y-92446428D01*
X80982647Y-92399935D01*
X81052921Y-92389831D01*
X81079939Y-92396840D01*
X81100997Y-92404881D01*
X81110901Y-92407759D01*
X81327653Y-92451857D01*
X81337883Y-92453076D01*
X81558914Y-92461182D01*
X81569223Y-92460714D01*
X81788623Y-92432608D01*
X81798688Y-92430468D01*
X81929782Y-92391139D01*
X82000777Y-92390723D01*
X82060728Y-92428755D01*
X82090599Y-92493162D01*
X82091989Y-92511825D01*
X82091989Y-105468433D01*
X82091430Y-105480289D01*
X82089701Y-105488026D01*
X82089950Y-105495948D01*
X82091927Y-105558858D01*
X82091989Y-105562816D01*
X82091989Y-105591921D01*
X82092545Y-105596321D01*
X82093477Y-105608153D01*
X82094927Y-105654320D01*
X82097139Y-105661933D01*
X82097139Y-105661934D01*
X82100908Y-105674905D01*
X82104919Y-105694271D01*
X82107607Y-105715553D01*
X82110523Y-105722918D01*
X82110524Y-105722922D01*
X82124615Y-105758510D01*
X82128454Y-105769720D01*
X82141344Y-105814089D01*
X82152264Y-105832554D01*
X82160955Y-105850294D01*
X82168854Y-105870245D01*
X82196005Y-105907615D01*
X82202522Y-105917537D01*
X82221996Y-105950466D01*
X82221999Y-105950470D01*
X82226036Y-105957296D01*
X82241200Y-105972460D01*
X82254040Y-105987493D01*
X82266648Y-106004846D01*
X82302241Y-106034291D01*
X82311021Y-106042281D01*
X84603183Y-108334443D01*
X84637209Y-108396755D01*
X84632144Y-108467570D01*
X84589597Y-108524406D01*
X84523077Y-108549217D01*
X84479570Y-108544718D01*
X84443423Y-108534422D01*
X84435054Y-108532642D01*
X84271935Y-108509427D01*
X84257949Y-108511458D01*
X84254000Y-108524943D01*
X84254000Y-111227885D01*
X84258475Y-111243124D01*
X84259865Y-111244329D01*
X84267548Y-111246000D01*
X86089885Y-111246000D01*
X86105124Y-111241525D01*
X86106329Y-111240135D01*
X86108000Y-111232452D01*
X86108000Y-110529891D01*
X86107854Y-110525595D01*
X86093669Y-110317520D01*
X86092508Y-110309046D01*
X86051201Y-110109584D01*
X86056973Y-110038823D01*
X86100086Y-109982415D01*
X86166851Y-109958270D01*
X86236071Y-109974055D01*
X86263678Y-109994938D01*
X86564578Y-110295838D01*
X86598604Y-110358150D01*
X86601095Y-110394817D01*
X86591500Y-110516739D01*
X86591500Y-112472271D01*
X86591646Y-112474407D01*
X86591646Y-112474418D01*
X86592417Y-112485718D01*
X86606127Y-112686825D01*
X86606996Y-112691020D01*
X86606996Y-112691022D01*
X86611516Y-112712849D01*
X86664426Y-112968342D01*
X86760393Y-113239343D01*
X86892250Y-113494812D01*
X86894711Y-113498313D01*
X86894713Y-113498317D01*
X86907779Y-113516908D01*
X87057559Y-113730023D01*
X87076066Y-113749939D01*
X87176118Y-113857607D01*
X87253260Y-113940622D01*
X87475732Y-114122713D01*
X87720858Y-114272927D01*
X87724791Y-114274653D01*
X87724792Y-114274654D01*
X87743980Y-114283077D01*
X87984102Y-114388483D01*
X87988229Y-114389658D01*
X87988230Y-114389659D01*
X88122348Y-114427864D01*
X88260594Y-114467244D01*
X88473296Y-114497515D01*
X88540964Y-114507146D01*
X88540966Y-114507146D01*
X88545216Y-114507751D01*
X88549505Y-114507773D01*
X88549512Y-114507774D01*
X88828417Y-114509235D01*
X88828424Y-114509235D01*
X88832703Y-114509257D01*
X88836947Y-114508698D01*
X88836951Y-114508698D01*
X88990049Y-114488542D01*
X89117734Y-114471732D01*
X89134140Y-114467244D01*
X89198689Y-114449585D01*
X89395036Y-114395871D01*
X89417508Y-114386286D01*
X89655524Y-114284763D01*
X89655528Y-114284761D01*
X89659476Y-114283077D01*
X89784040Y-114208527D01*
X89902479Y-114137643D01*
X89902483Y-114137640D01*
X89906161Y-114135439D01*
X90130528Y-113955687D01*
X90328423Y-113747149D01*
X90496186Y-113513683D01*
X90630712Y-113259608D01*
X90729511Y-112989627D01*
X90790755Y-112708736D01*
X90808500Y-112483261D01*
X90808500Y-110527729D01*
X90808354Y-110525582D01*
X90794165Y-110317452D01*
X90794164Y-110317446D01*
X90793873Y-110313175D01*
X90735574Y-110031658D01*
X90639607Y-109760657D01*
X90507750Y-109505188D01*
X90342441Y-109269977D01*
X90217047Y-109135037D01*
X90149661Y-109062521D01*
X90149658Y-109062519D01*
X90146740Y-109059378D01*
X89924268Y-108877287D01*
X89679142Y-108727073D01*
X89661048Y-108719130D01*
X89419830Y-108613243D01*
X89415898Y-108611517D01*
X89397542Y-108606288D01*
X89277652Y-108572136D01*
X89139406Y-108532756D01*
X88926704Y-108502485D01*
X88859036Y-108492854D01*
X88859034Y-108492854D01*
X88854784Y-108492249D01*
X88850495Y-108492227D01*
X88850488Y-108492226D01*
X88571583Y-108490765D01*
X88571576Y-108490765D01*
X88567297Y-108490743D01*
X88563053Y-108491302D01*
X88563049Y-108491302D01*
X88437660Y-108507810D01*
X88282266Y-108528268D01*
X88278126Y-108529401D01*
X88278124Y-108529401D01*
X88222135Y-108544718D01*
X88004964Y-108604129D01*
X88001016Y-108605813D01*
X87744476Y-108715237D01*
X87744472Y-108715239D01*
X87740524Y-108716923D01*
X87615960Y-108791473D01*
X87497521Y-108862357D01*
X87497517Y-108862360D01*
X87493839Y-108864561D01*
X87490496Y-108867239D01*
X87490492Y-108867242D01*
X87480749Y-108875048D01*
X87305413Y-109015519D01*
X87239745Y-109042500D01*
X87169913Y-109029695D01*
X87137539Y-109006279D01*
X83445894Y-105314634D01*
X83411868Y-105252322D01*
X83408989Y-105225539D01*
X83408989Y-92515084D01*
X83428991Y-92446963D01*
X83482647Y-92400470D01*
X83552921Y-92390366D01*
X83579937Y-92397374D01*
X83600858Y-92405363D01*
X83600866Y-92405365D01*
X83605694Y-92407209D01*
X83610760Y-92408240D01*
X83610761Y-92408240D01*
X83663846Y-92419040D01*
X83832656Y-92453385D01*
X83963324Y-92458176D01*
X84058949Y-92461683D01*
X84058953Y-92461683D01*
X84064113Y-92461872D01*
X84069233Y-92461216D01*
X84069235Y-92461216D01*
X84180494Y-92446963D01*
X84293847Y-92432442D01*
X84298795Y-92430957D01*
X84298802Y-92430956D01*
X84510747Y-92367369D01*
X84515690Y-92365886D01*
X84520324Y-92363616D01*
X84719049Y-92266262D01*
X84719052Y-92266260D01*
X84723684Y-92263991D01*
X84912243Y-92129494D01*
X85076303Y-91966005D01*
X85145370Y-91869888D01*
X85201365Y-91826240D01*
X85272068Y-91819794D01*
X85335033Y-91852597D01*
X85355128Y-91877584D01*
X85356799Y-91880311D01*
X85356804Y-91880317D01*
X85359501Y-91884719D01*
X85511147Y-92059784D01*
X85689349Y-92207730D01*
X85889322Y-92324584D01*
X85894147Y-92326426D01*
X85894148Y-92326427D01*
X85968665Y-92354883D01*
X86105694Y-92407209D01*
X86110760Y-92408240D01*
X86110761Y-92408240D01*
X86163846Y-92419040D01*
X86332656Y-92453385D01*
X86463324Y-92458176D01*
X86558949Y-92461683D01*
X86558953Y-92461683D01*
X86564113Y-92461872D01*
X86569233Y-92461216D01*
X86569235Y-92461216D01*
X86680494Y-92446963D01*
X86793847Y-92432442D01*
X86798795Y-92430957D01*
X86798802Y-92430956D01*
X87010747Y-92367369D01*
X87015690Y-92365886D01*
X87020324Y-92363616D01*
X87219049Y-92266262D01*
X87219052Y-92266260D01*
X87223684Y-92263991D01*
X87412243Y-92129494D01*
X87576303Y-91966005D01*
X87711458Y-91777917D01*
X87814078Y-91570280D01*
X87881408Y-91348671D01*
X87911640Y-91119041D01*
X87913327Y-91050000D01*
X87907032Y-90973434D01*
X87894773Y-90824318D01*
X87894772Y-90824312D01*
X87894349Y-90819167D01*
X87837925Y-90594533D01*
X87835866Y-90589797D01*
X87747630Y-90386868D01*
X87747628Y-90386865D01*
X87745570Y-90382131D01*
X87619764Y-90187665D01*
X87595586Y-90161093D01*
X87516447Y-90074121D01*
X87463887Y-90016358D01*
X87459836Y-90013159D01*
X87459832Y-90013155D01*
X87286177Y-89876011D01*
X87286172Y-89876008D01*
X87282123Y-89872810D01*
X87277607Y-89870317D01*
X87277604Y-89870315D01*
X87083879Y-89763373D01*
X87083875Y-89763371D01*
X87079355Y-89760876D01*
X87074486Y-89759152D01*
X87074482Y-89759150D01*
X86865903Y-89685288D01*
X86865899Y-89685287D01*
X86861028Y-89683562D01*
X86855935Y-89682655D01*
X86855932Y-89682654D01*
X86638095Y-89643851D01*
X86638089Y-89643850D01*
X86633006Y-89642945D01*
X86560096Y-89642054D01*
X86406581Y-89640179D01*
X86406579Y-89640179D01*
X86401411Y-89640116D01*
X86172464Y-89675150D01*
X86163627Y-89678038D01*
X86158530Y-89679704D01*
X86087566Y-89681853D01*
X86030293Y-89649033D01*
X85905894Y-89524634D01*
X85871868Y-89462322D01*
X85868989Y-89435539D01*
X85868989Y-85126570D01*
X85888991Y-85058449D01*
X85942647Y-85011956D01*
X86012921Y-85001852D01*
X86077501Y-85031346D01*
X86108997Y-85072922D01*
X86195750Y-85257283D01*
X86195754Y-85257290D01*
X86197438Y-85260869D01*
X86366568Y-85527375D01*
X86567767Y-85770582D01*
X86797860Y-85986654D01*
X87053221Y-86172184D01*
X87329821Y-86324247D01*
X87333490Y-86325700D01*
X87333495Y-86325702D01*
X87619628Y-86438990D01*
X87623298Y-86440443D01*
X87929025Y-86518940D01*
X88242179Y-86558500D01*
X88557821Y-86558500D01*
X88870975Y-86518940D01*
X89176702Y-86440443D01*
X89180372Y-86438990D01*
X89466505Y-86325702D01*
X89466510Y-86325700D01*
X89470179Y-86324247D01*
X89746779Y-86172184D01*
X90002140Y-85986654D01*
X90232233Y-85770582D01*
X90433432Y-85527375D01*
X90602562Y-85260869D01*
X90604246Y-85257290D01*
X90604250Y-85257283D01*
X90735267Y-84978856D01*
X90735269Y-84978852D01*
X90736956Y-84975266D01*
X90834495Y-84675072D01*
X90893641Y-84365020D01*
X90913460Y-84050000D01*
X90893641Y-83734980D01*
X90834495Y-83424928D01*
X90736956Y-83124734D01*
X90716000Y-83080199D01*
X90604250Y-82842717D01*
X90604246Y-82842710D01*
X90602562Y-82839131D01*
X90433432Y-82572625D01*
X90232233Y-82329418D01*
X90002140Y-82113346D01*
X89746779Y-81927816D01*
X89710371Y-81907800D01*
X89473648Y-81777660D01*
X89473647Y-81777659D01*
X89470179Y-81775753D01*
X89466510Y-81774300D01*
X89466505Y-81774298D01*
X89180372Y-81661010D01*
X89180371Y-81661010D01*
X89176702Y-81659557D01*
X88870975Y-81581060D01*
X88557821Y-81541500D01*
X88242179Y-81541500D01*
X87929025Y-81581060D01*
X87623298Y-81659557D01*
X87619629Y-81661010D01*
X87619628Y-81661010D01*
X87333495Y-81774298D01*
X87333490Y-81774300D01*
X87329821Y-81775753D01*
X87326353Y-81777659D01*
X87326352Y-81777660D01*
X87089630Y-81907800D01*
X87053221Y-81927816D01*
X86797860Y-82113346D01*
X86567767Y-82329418D01*
X86366568Y-82572625D01*
X86197438Y-82839131D01*
X86195754Y-82842710D01*
X86195750Y-82842717D01*
X86108997Y-83027078D01*
X86061894Y-83080199D01*
X85993550Y-83099422D01*
X85925662Y-83078643D01*
X85879785Y-83024460D01*
X85868989Y-82973430D01*
X85868989Y-71965084D01*
X85888991Y-71896963D01*
X85942647Y-71850470D01*
X86012921Y-71840366D01*
X86039937Y-71847374D01*
X86060858Y-71855363D01*
X86060866Y-71855365D01*
X86065694Y-71857209D01*
X86070760Y-71858240D01*
X86070761Y-71858240D01*
X86082533Y-71860635D01*
X86292656Y-71903385D01*
X86423324Y-71908176D01*
X86518949Y-71911683D01*
X86518953Y-71911683D01*
X86524113Y-71911872D01*
X86529233Y-71911216D01*
X86529235Y-71911216D01*
X86640494Y-71896963D01*
X86753847Y-71882442D01*
X86758795Y-71880957D01*
X86758802Y-71880956D01*
X86970747Y-71817369D01*
X86975690Y-71815886D01*
X86981287Y-71813144D01*
X87179049Y-71716262D01*
X87179052Y-71716260D01*
X87183684Y-71713991D01*
X87372243Y-71579494D01*
X87536303Y-71416005D01*
X87671458Y-71227917D01*
X87682766Y-71205038D01*
X87771784Y-71024922D01*
X87771785Y-71024920D01*
X87774078Y-71020280D01*
X87841408Y-70798671D01*
X87871640Y-70569041D01*
X87873327Y-70500000D01*
X87859897Y-70336646D01*
X87854773Y-70274318D01*
X87854772Y-70274312D01*
X87854349Y-70269167D01*
X87826137Y-70156850D01*
X87799184Y-70049544D01*
X87799183Y-70049540D01*
X87797925Y-70044533D01*
X87781805Y-70007459D01*
X87707630Y-69836868D01*
X87707628Y-69836865D01*
X87705570Y-69832131D01*
X87579764Y-69637665D01*
X87570275Y-69627236D01*
X87458548Y-69504450D01*
X87423887Y-69466358D01*
X87419836Y-69463159D01*
X87419832Y-69463155D01*
X87246177Y-69326011D01*
X87246172Y-69326008D01*
X87242123Y-69322810D01*
X87237607Y-69320317D01*
X87237604Y-69320315D01*
X87043879Y-69213373D01*
X87043875Y-69213371D01*
X87039355Y-69210876D01*
X87034486Y-69209152D01*
X87034482Y-69209150D01*
X86825903Y-69135288D01*
X86825899Y-69135287D01*
X86821028Y-69133562D01*
X86815935Y-69132655D01*
X86815932Y-69132654D01*
X86598095Y-69093851D01*
X86598089Y-69093850D01*
X86593006Y-69092945D01*
X86520096Y-69092054D01*
X86366581Y-69090179D01*
X86366579Y-69090179D01*
X86361411Y-69090116D01*
X86132464Y-69125150D01*
X85912314Y-69197106D01*
X85907726Y-69199494D01*
X85907722Y-69199496D01*
X85748000Y-69282642D01*
X85706872Y-69304052D01*
X85702737Y-69307156D01*
X85702738Y-69307156D01*
X85654666Y-69343249D01*
X85588181Y-69368154D01*
X85518786Y-69353161D01*
X85489918Y-69331583D01*
X85253565Y-69095229D01*
X84950727Y-68792391D01*
X84942739Y-68783612D01*
X84938492Y-68776920D01*
X84886817Y-68728394D01*
X84883976Y-68725640D01*
X84863409Y-68705073D01*
X84859902Y-68702353D01*
X84850880Y-68694647D01*
X84822989Y-68668456D01*
X84817209Y-68663028D01*
X84810257Y-68659206D01*
X84798418Y-68652697D01*
X84781894Y-68641843D01*
X84771208Y-68633555D01*
X84764944Y-68628696D01*
X84757672Y-68625549D01*
X84757670Y-68625548D01*
X84722541Y-68610346D01*
X84711881Y-68605124D01*
X84678360Y-68586695D01*
X84678358Y-68586694D01*
X84671413Y-68582876D01*
X84650635Y-68577541D01*
X84631945Y-68571142D01*
X84612252Y-68562620D01*
X84566628Y-68555394D01*
X84555005Y-68552987D01*
X84527004Y-68545798D01*
X84510264Y-68541500D01*
X84488817Y-68541500D01*
X84469107Y-68539949D01*
X84455753Y-68537834D01*
X84447924Y-68536594D01*
X84401935Y-68540941D01*
X84390080Y-68541500D01*
X81324950Y-68541500D01*
X81256829Y-68521498D01*
X81235855Y-68504595D01*
X78891557Y-66160297D01*
X78857531Y-66097985D01*
X78862596Y-66027170D01*
X78905143Y-65970334D01*
X78971663Y-65945523D01*
X79011987Y-65949161D01*
X79085175Y-65967952D01*
X79085183Y-65967953D01*
X79089025Y-65968940D01*
X79402179Y-66008500D01*
X79717821Y-66008500D01*
X80030975Y-65968940D01*
X80336702Y-65890443D01*
X80340372Y-65888990D01*
X80626505Y-65775702D01*
X80626510Y-65775700D01*
X80630179Y-65774247D01*
X80906779Y-65622184D01*
X81162140Y-65436654D01*
X81392233Y-65220582D01*
X81593432Y-64977375D01*
X81762562Y-64710869D01*
X81764246Y-64707290D01*
X81764250Y-64707283D01*
X81895267Y-64428856D01*
X81895269Y-64428852D01*
X81896956Y-64425266D01*
X81994495Y-64125072D01*
X82053641Y-63815020D01*
X82073460Y-63500000D01*
X85846540Y-63500000D01*
X85866359Y-63815020D01*
X85925505Y-64125072D01*
X86023044Y-64425266D01*
X86024731Y-64428852D01*
X86024733Y-64428856D01*
X86155750Y-64707283D01*
X86155754Y-64707290D01*
X86157438Y-64710869D01*
X86326568Y-64977375D01*
X86527767Y-65220582D01*
X86757860Y-65436654D01*
X87013221Y-65622184D01*
X87289821Y-65774247D01*
X87293490Y-65775700D01*
X87293495Y-65775702D01*
X87579628Y-65888990D01*
X87583298Y-65890443D01*
X87889025Y-65968940D01*
X88202179Y-66008500D01*
X88517821Y-66008500D01*
X88830975Y-65968940D01*
X89136702Y-65890443D01*
X89140372Y-65888990D01*
X89426505Y-65775702D01*
X89426510Y-65775700D01*
X89430179Y-65774247D01*
X89706779Y-65622184D01*
X89962140Y-65436654D01*
X90192233Y-65220582D01*
X90393432Y-64977375D01*
X90562562Y-64710869D01*
X90564246Y-64707290D01*
X90564250Y-64707283D01*
X90695267Y-64428856D01*
X90695269Y-64428852D01*
X90696956Y-64425266D01*
X90794495Y-64125072D01*
X90853641Y-63815020D01*
X90873460Y-63500000D01*
X90853641Y-63184980D01*
X90794495Y-62874928D01*
X90696956Y-62574734D01*
X90592942Y-62353691D01*
X90564250Y-62292717D01*
X90564246Y-62292710D01*
X90562562Y-62289131D01*
X90393432Y-62022625D01*
X90192233Y-61779418D01*
X90186711Y-61774232D01*
X90153001Y-61742577D01*
X89962140Y-61563346D01*
X89706779Y-61377816D01*
X89430179Y-61225753D01*
X89426510Y-61224300D01*
X89426505Y-61224298D01*
X89140372Y-61111010D01*
X89140371Y-61111010D01*
X89136702Y-61109557D01*
X88830975Y-61031060D01*
X88517821Y-60991500D01*
X88202179Y-60991500D01*
X87889025Y-61031060D01*
X87583298Y-61109557D01*
X87579629Y-61111010D01*
X87579628Y-61111010D01*
X87293495Y-61224298D01*
X87293490Y-61224300D01*
X87289821Y-61225753D01*
X87013221Y-61377816D01*
X86757860Y-61563346D01*
X86566999Y-61742577D01*
X86533290Y-61774232D01*
X86527767Y-61779418D01*
X86326568Y-62022625D01*
X86157438Y-62289131D01*
X86155754Y-62292710D01*
X86155750Y-62292717D01*
X86127058Y-62353691D01*
X86023044Y-62574734D01*
X85925505Y-62874928D01*
X85866359Y-63184980D01*
X85846540Y-63500000D01*
X82073460Y-63500000D01*
X82053641Y-63184980D01*
X81994495Y-62874928D01*
X81896956Y-62574734D01*
X81792942Y-62353691D01*
X81764250Y-62292717D01*
X81764246Y-62292710D01*
X81762562Y-62289131D01*
X81593432Y-62022625D01*
X81392233Y-61779418D01*
X81386711Y-61774232D01*
X81353001Y-61742577D01*
X81162140Y-61563346D01*
X80906779Y-61377816D01*
X80630179Y-61225753D01*
X80626510Y-61224300D01*
X80626505Y-61224298D01*
X80340372Y-61111010D01*
X80340371Y-61111010D01*
X80336702Y-61109557D01*
X80030975Y-61031060D01*
X79717821Y-60991500D01*
X79402179Y-60991500D01*
X79089025Y-61031060D01*
X78783298Y-61109557D01*
X78779629Y-61111010D01*
X78779628Y-61111010D01*
X78493495Y-61224298D01*
X78493490Y-61224300D01*
X78489821Y-61225753D01*
X78213221Y-61377816D01*
X77957860Y-61563346D01*
X77766999Y-61742577D01*
X77733290Y-61774232D01*
X77727767Y-61779418D01*
X77526568Y-62022625D01*
X77357438Y-62289131D01*
X77355755Y-62292709D01*
X77355751Y-62292715D01*
X77352056Y-62300569D01*
X77304954Y-62353691D01*
X77236610Y-62372915D01*
X77168722Y-62352137D01*
X77122844Y-62297955D01*
X77112085Y-62243846D01*
X77113074Y-62203366D01*
X77113074Y-62203361D01*
X77113156Y-62200000D01*
X77094852Y-61977361D01*
X77073919Y-61894022D01*
X77076723Y-61823081D01*
X77107028Y-61774232D01*
X86907605Y-51973655D01*
X86916385Y-51965665D01*
X86916387Y-51965663D01*
X86923080Y-51961416D01*
X86971605Y-51909742D01*
X86974359Y-51906901D01*
X86994927Y-51886333D01*
X86997647Y-51882826D01*
X87005353Y-51873804D01*
X87031544Y-51845913D01*
X87036972Y-51840133D01*
X87046654Y-51822522D01*
X87047303Y-51821342D01*
X87058157Y-51804818D01*
X87066445Y-51794132D01*
X87071304Y-51787868D01*
X87074452Y-51780594D01*
X87089654Y-51745465D01*
X87094876Y-51734805D01*
X87113305Y-51701284D01*
X87113306Y-51701282D01*
X87117124Y-51694337D01*
X87122459Y-51673559D01*
X87128858Y-51654869D01*
X87137380Y-51635176D01*
X87144606Y-51589552D01*
X87147013Y-51577929D01*
X87156528Y-51540868D01*
X87158500Y-51533188D01*
X87158500Y-51511741D01*
X87160051Y-51492031D01*
X87162166Y-51478677D01*
X87163406Y-51470848D01*
X87159059Y-51424859D01*
X87158500Y-51413004D01*
X87158500Y-51323933D01*
X87178502Y-51255812D01*
X87219773Y-51215907D01*
X87223684Y-51213991D01*
X87227893Y-51210989D01*
X87227896Y-51210987D01*
X87292471Y-51164926D01*
X87412243Y-51079494D01*
X87576303Y-50916005D01*
X87597500Y-50886507D01*
X87601588Y-50880817D01*
X87711458Y-50727917D01*
X87714349Y-50722069D01*
X87811784Y-50524922D01*
X87811785Y-50524920D01*
X87814078Y-50520280D01*
X87881408Y-50298671D01*
X87911640Y-50069041D01*
X87913327Y-50000000D01*
X87907032Y-49923434D01*
X87894773Y-49774318D01*
X87894772Y-49774312D01*
X87894349Y-49769167D01*
X87860797Y-49635592D01*
X87839184Y-49549544D01*
X87839183Y-49549540D01*
X87837925Y-49544533D01*
X87745570Y-49332131D01*
X87619764Y-49137665D01*
X87463887Y-48966358D01*
X87459836Y-48963159D01*
X87459832Y-48963155D01*
X87286177Y-48826011D01*
X87286172Y-48826008D01*
X87282123Y-48822810D01*
X87277607Y-48820317D01*
X87277604Y-48820315D01*
X87083879Y-48713373D01*
X87083875Y-48713371D01*
X87079355Y-48710876D01*
X87074486Y-48709152D01*
X87074482Y-48709150D01*
X86865903Y-48635288D01*
X86865899Y-48635287D01*
X86861028Y-48633562D01*
X86855935Y-48632655D01*
X86855932Y-48632654D01*
X86638095Y-48593851D01*
X86638089Y-48593850D01*
X86633006Y-48592945D01*
X86560096Y-48592054D01*
X86406581Y-48590179D01*
X86406579Y-48590179D01*
X86401411Y-48590116D01*
X86172464Y-48625150D01*
X85952314Y-48697106D01*
X85947726Y-48699494D01*
X85947722Y-48699496D01*
X85751461Y-48801663D01*
X85746872Y-48804052D01*
X85742739Y-48807155D01*
X85742736Y-48807157D01*
X85683284Y-48851795D01*
X85561655Y-48943117D01*
X85401639Y-49110564D01*
X85354836Y-49179174D01*
X85299927Y-49224175D01*
X85229402Y-49232346D01*
X85165655Y-49201092D01*
X85144959Y-49176609D01*
X85122577Y-49142013D01*
X85122574Y-49142009D01*
X85119764Y-49137665D01*
X84963887Y-48966358D01*
X84959836Y-48963159D01*
X84959832Y-48963155D01*
X84786177Y-48826011D01*
X84786172Y-48826008D01*
X84782123Y-48822810D01*
X84777607Y-48820317D01*
X84777604Y-48820315D01*
X84583879Y-48713373D01*
X84583875Y-48713371D01*
X84579355Y-48710876D01*
X84574486Y-48709152D01*
X84574482Y-48709150D01*
X84365903Y-48635288D01*
X84365899Y-48635287D01*
X84361028Y-48633562D01*
X84355935Y-48632655D01*
X84355932Y-48632654D01*
X84138095Y-48593851D01*
X84138089Y-48593850D01*
X84133006Y-48592945D01*
X84060096Y-48592054D01*
X83906581Y-48590179D01*
X83906579Y-48590179D01*
X83901411Y-48590116D01*
X83672464Y-48625150D01*
X83452314Y-48697106D01*
X83447726Y-48699494D01*
X83447722Y-48699496D01*
X83251461Y-48801663D01*
X83246872Y-48804052D01*
X83242739Y-48807155D01*
X83242736Y-48807157D01*
X83183284Y-48851795D01*
X83061655Y-48943117D01*
X82901639Y-49110564D01*
X82898730Y-49114829D01*
X82898724Y-49114837D01*
X82850199Y-49185972D01*
X82795288Y-49230975D01*
X82724763Y-49239146D01*
X82663884Y-49210439D01*
X82658538Y-49205835D01*
X82648973Y-49210238D01*
X81859210Y-50000000D01*
X81500000Y-50359210D01*
X80710183Y-51149028D01*
X80703424Y-51161407D01*
X80708705Y-51168461D01*
X80885080Y-51271527D01*
X80894363Y-51275974D01*
X81101003Y-51354883D01*
X81110901Y-51357759D01*
X81327653Y-51401857D01*
X81337883Y-51403077D01*
X81365174Y-51404077D01*
X81432516Y-51426561D01*
X81477012Y-51481884D01*
X81484535Y-51552481D01*
X81449653Y-51619087D01*
X79184145Y-53884595D01*
X79121833Y-53918621D01*
X79095050Y-53921500D01*
X77010632Y-53921500D01*
X76942511Y-53901498D01*
X76904840Y-53863940D01*
X76832822Y-53752617D01*
X76832820Y-53752614D01*
X76830014Y-53748277D01*
X76679670Y-53583051D01*
X76675619Y-53579852D01*
X76675615Y-53579848D01*
X76508414Y-53447800D01*
X76508410Y-53447798D01*
X76504359Y-53444598D01*
X76463053Y-53421796D01*
X76413084Y-53371364D01*
X76398312Y-53301921D01*
X76423428Y-53235516D01*
X76450780Y-53208909D01*
X76494603Y-53177650D01*
X76629860Y-53081173D01*
X76788096Y-52923489D01*
X76918453Y-52742077D01*
X77017430Y-52541811D01*
X77082370Y-52328069D01*
X77111529Y-52106590D01*
X77113156Y-52040000D01*
X77094852Y-51817361D01*
X77040431Y-51600702D01*
X76951354Y-51395840D01*
X76830014Y-51208277D01*
X76826540Y-51204459D01*
X76826533Y-51204450D01*
X76682435Y-51046088D01*
X76651383Y-50982242D01*
X76659779Y-50911744D01*
X76704956Y-50856976D01*
X76731400Y-50843307D01*
X76838052Y-50803325D01*
X76853649Y-50794786D01*
X76955724Y-50718285D01*
X76968285Y-50705724D01*
X77044786Y-50603649D01*
X77053324Y-50588054D01*
X77098478Y-50467606D01*
X77102105Y-50452351D01*
X77107631Y-50401486D01*
X77108000Y-50394672D01*
X77108000Y-49970638D01*
X80087893Y-49970638D01*
X80100627Y-50191468D01*
X80102061Y-50201670D01*
X80150685Y-50417439D01*
X80153773Y-50427292D01*
X80236986Y-50632220D01*
X80241634Y-50641421D01*
X80330097Y-50785781D01*
X80340553Y-50795242D01*
X80349331Y-50791458D01*
X81127979Y-50012811D01*
X81135592Y-49998868D01*
X81135461Y-49997034D01*
X81131210Y-49990420D01*
X80353862Y-49213073D01*
X80342330Y-49206776D01*
X80330048Y-49216399D01*
X80274467Y-49297877D01*
X80269379Y-49306833D01*
X80176252Y-49507459D01*
X80172689Y-49517146D01*
X80113581Y-49730280D01*
X80111650Y-49740400D01*
X80088145Y-49960349D01*
X80087893Y-49970638D01*
X77108000Y-49970638D01*
X77108000Y-49772115D01*
X77103525Y-49756876D01*
X77102135Y-49755671D01*
X77094452Y-49754000D01*
X75622000Y-49754000D01*
X75553879Y-49733998D01*
X75507386Y-49680342D01*
X75496000Y-49628000D01*
X75496000Y-49227885D01*
X76004000Y-49227885D01*
X76008475Y-49243124D01*
X76009865Y-49244329D01*
X76017548Y-49246000D01*
X77089884Y-49246000D01*
X77105123Y-49241525D01*
X77106328Y-49240135D01*
X77107999Y-49232452D01*
X77107999Y-48840711D01*
X80705508Y-48840711D01*
X80712251Y-48853040D01*
X81487189Y-49627979D01*
X81501132Y-49635592D01*
X81502966Y-49635461D01*
X81509580Y-49631210D01*
X82288994Y-48851795D01*
X82296011Y-48838944D01*
X82288237Y-48828274D01*
X82285902Y-48826430D01*
X82277320Y-48820729D01*
X82083678Y-48713833D01*
X82074272Y-48709606D01*
X81865772Y-48635772D01*
X81855809Y-48633140D01*
X81638047Y-48594350D01*
X81627796Y-48593381D01*
X81406616Y-48590679D01*
X81396332Y-48591399D01*
X81177693Y-48624855D01*
X81167666Y-48627244D01*
X80957426Y-48695961D01*
X80947916Y-48699958D01*
X80751725Y-48802089D01*
X80743007Y-48807578D01*
X80713961Y-48829386D01*
X80705508Y-48840711D01*
X77107999Y-48840711D01*
X77107999Y-48605331D01*
X77107629Y-48598510D01*
X77102105Y-48547648D01*
X77098479Y-48532396D01*
X77053324Y-48411946D01*
X77044786Y-48396351D01*
X76968285Y-48294276D01*
X76955724Y-48281715D01*
X76853649Y-48205214D01*
X76838054Y-48196676D01*
X76717606Y-48151522D01*
X76702351Y-48147895D01*
X76651486Y-48142369D01*
X76644672Y-48142000D01*
X76022115Y-48142000D01*
X76006876Y-48146475D01*
X76005671Y-48147865D01*
X76004000Y-48155548D01*
X76004000Y-49227885D01*
X75496000Y-49227885D01*
X75496000Y-48160116D01*
X75491525Y-48144877D01*
X75490135Y-48143672D01*
X75482452Y-48142001D01*
X74855331Y-48142001D01*
X74848510Y-48142371D01*
X74797648Y-48147895D01*
X74782397Y-48151521D01*
X74678730Y-48190384D01*
X74607923Y-48195567D01*
X74545554Y-48161646D01*
X74511424Y-48099391D01*
X74508500Y-48072402D01*
X74508500Y-43000000D01*
X77086540Y-43000000D01*
X77106359Y-43315020D01*
X77165505Y-43625072D01*
X77263044Y-43925266D01*
X77264731Y-43928852D01*
X77264733Y-43928856D01*
X77395750Y-44207283D01*
X77395754Y-44207290D01*
X77397438Y-44210869D01*
X77566568Y-44477375D01*
X77767767Y-44720582D01*
X77997860Y-44936654D01*
X78253221Y-45122184D01*
X78529821Y-45274247D01*
X78533490Y-45275700D01*
X78533495Y-45275702D01*
X78819628Y-45388990D01*
X78823298Y-45390443D01*
X79129025Y-45468940D01*
X79442179Y-45508500D01*
X79757821Y-45508500D01*
X80070975Y-45468940D01*
X80376702Y-45390443D01*
X80380372Y-45388990D01*
X80666505Y-45275702D01*
X80666510Y-45275700D01*
X80670179Y-45274247D01*
X80946779Y-45122184D01*
X81202140Y-44936654D01*
X81432233Y-44720582D01*
X81633432Y-44477375D01*
X81802562Y-44210869D01*
X81804246Y-44207290D01*
X81804250Y-44207283D01*
X81935267Y-43928856D01*
X81935269Y-43928852D01*
X81936956Y-43925266D01*
X82034495Y-43625072D01*
X82093641Y-43315020D01*
X82113460Y-43000000D01*
X85886540Y-43000000D01*
X85906359Y-43315020D01*
X85965505Y-43625072D01*
X86063044Y-43925266D01*
X86064731Y-43928852D01*
X86064733Y-43928856D01*
X86195750Y-44207283D01*
X86195754Y-44207290D01*
X86197438Y-44210869D01*
X86366568Y-44477375D01*
X86567767Y-44720582D01*
X86797860Y-44936654D01*
X87053221Y-45122184D01*
X87329821Y-45274247D01*
X87333490Y-45275700D01*
X87333495Y-45275702D01*
X87619628Y-45388990D01*
X87623298Y-45390443D01*
X87929025Y-45468940D01*
X88242179Y-45508500D01*
X88557821Y-45508500D01*
X88870975Y-45468940D01*
X89176702Y-45390443D01*
X89180372Y-45388990D01*
X89466505Y-45275702D01*
X89466510Y-45275700D01*
X89470179Y-45274247D01*
X89746779Y-45122184D01*
X90002140Y-44936654D01*
X90232233Y-44720582D01*
X90433432Y-44477375D01*
X90602562Y-44210869D01*
X90604246Y-44207290D01*
X90604250Y-44207283D01*
X90735267Y-43928856D01*
X90735269Y-43928852D01*
X90736956Y-43925266D01*
X90834495Y-43625072D01*
X90893641Y-43315020D01*
X90913460Y-43000000D01*
X90893641Y-42684980D01*
X90834495Y-42374928D01*
X90736956Y-42074734D01*
X90735267Y-42071144D01*
X90604250Y-41792717D01*
X90604246Y-41792710D01*
X90602562Y-41789131D01*
X90433432Y-41522625D01*
X90232233Y-41279418D01*
X90002140Y-41063346D01*
X89746779Y-40877816D01*
X89470179Y-40725753D01*
X89466510Y-40724300D01*
X89466505Y-40724298D01*
X89180372Y-40611010D01*
X89180371Y-40611010D01*
X89176702Y-40609557D01*
X88870975Y-40531060D01*
X88557821Y-40491500D01*
X88242179Y-40491500D01*
X87929025Y-40531060D01*
X87623298Y-40609557D01*
X87619629Y-40611010D01*
X87619628Y-40611010D01*
X87333495Y-40724298D01*
X87333490Y-40724300D01*
X87329821Y-40725753D01*
X87053221Y-40877816D01*
X86797860Y-41063346D01*
X86567767Y-41279418D01*
X86366568Y-41522625D01*
X86197438Y-41789131D01*
X86195754Y-41792710D01*
X86195750Y-41792717D01*
X86064733Y-42071144D01*
X86063044Y-42074734D01*
X85965505Y-42374928D01*
X85906359Y-42684980D01*
X85886540Y-43000000D01*
X82113460Y-43000000D01*
X82093641Y-42684980D01*
X82034495Y-42374928D01*
X81936956Y-42074734D01*
X81935267Y-42071144D01*
X81804250Y-41792717D01*
X81804246Y-41792710D01*
X81802562Y-41789131D01*
X81633432Y-41522625D01*
X81432233Y-41279418D01*
X81202140Y-41063346D01*
X80946779Y-40877816D01*
X80670179Y-40725753D01*
X80666510Y-40724300D01*
X80666505Y-40724298D01*
X80380372Y-40611010D01*
X80380371Y-40611010D01*
X80376702Y-40609557D01*
X80070975Y-40531060D01*
X79757821Y-40491500D01*
X79442179Y-40491500D01*
X79129025Y-40531060D01*
X78823298Y-40609557D01*
X78819629Y-40611010D01*
X78819628Y-40611010D01*
X78533495Y-40724298D01*
X78533490Y-40724300D01*
X78529821Y-40725753D01*
X78253221Y-40877816D01*
X77997860Y-41063346D01*
X77767767Y-41279418D01*
X77566568Y-41522625D01*
X77397438Y-41789131D01*
X77395754Y-41792710D01*
X77395750Y-41792717D01*
X77264733Y-42071144D01*
X77263044Y-42074734D01*
X77165505Y-42374928D01*
X77106359Y-42684980D01*
X77086540Y-43000000D01*
X74508500Y-43000000D01*
X74508500Y-37134500D01*
X74528502Y-37066379D01*
X74582158Y-37019886D01*
X74634500Y-37008500D01*
X93365500Y-37008500D01*
X93433621Y-37028502D01*
G37*
G04 #@! TD.AperFunction*
G04 #@! TA.AperFunction,Conductor*
G36*
X74717012Y-63848726D02*
G01*
X74723595Y-63854855D01*
X80335877Y-69467137D01*
X80369903Y-69529449D01*
X80364838Y-69600264D01*
X80350871Y-69627236D01*
X80234469Y-69797875D01*
X80229376Y-69806841D01*
X80136252Y-70007459D01*
X80132689Y-70017146D01*
X80073581Y-70230280D01*
X80071650Y-70240400D01*
X80048145Y-70460349D01*
X80047893Y-70470638D01*
X80060627Y-70691468D01*
X80062061Y-70701670D01*
X80110685Y-70917439D01*
X80113773Y-70927292D01*
X80196986Y-71132220D01*
X80201634Y-71141421D01*
X80290097Y-71285781D01*
X80300553Y-71295242D01*
X80309331Y-71291458D01*
X81370905Y-70229885D01*
X81433217Y-70195859D01*
X81504033Y-70200924D01*
X81549095Y-70229885D01*
X82606303Y-71287092D01*
X82618314Y-71293651D01*
X82627244Y-71286829D01*
X82693519Y-71261370D01*
X82763037Y-71275783D01*
X82811165Y-71321117D01*
X82816802Y-71330315D01*
X82819501Y-71334719D01*
X82971147Y-71509784D01*
X83149349Y-71657730D01*
X83349322Y-71774584D01*
X83354147Y-71776426D01*
X83354148Y-71776427D01*
X83428665Y-71804883D01*
X83565694Y-71857209D01*
X83570760Y-71858240D01*
X83570761Y-71858240D01*
X83582533Y-71860635D01*
X83792656Y-71903385D01*
X83923324Y-71908176D01*
X84018949Y-71911683D01*
X84018953Y-71911683D01*
X84024113Y-71911872D01*
X84029233Y-71911216D01*
X84029235Y-71911216D01*
X84140494Y-71896963D01*
X84253847Y-71882442D01*
X84258795Y-71880957D01*
X84258802Y-71880956D01*
X84389782Y-71841660D01*
X84460777Y-71841244D01*
X84520728Y-71879276D01*
X84550599Y-71943683D01*
X84551989Y-71962346D01*
X84551989Y-89572899D01*
X84531987Y-89641020D01*
X84478331Y-89687513D01*
X84408057Y-89697617D01*
X84383928Y-89691671D01*
X84365909Y-89685290D01*
X84365904Y-89685289D01*
X84361028Y-89683562D01*
X84355935Y-89682655D01*
X84355932Y-89682654D01*
X84138095Y-89643851D01*
X84138089Y-89643850D01*
X84133006Y-89642945D01*
X84060096Y-89642054D01*
X83906581Y-89640179D01*
X83906579Y-89640179D01*
X83901411Y-89640116D01*
X83672464Y-89675150D01*
X83621918Y-89691671D01*
X83574134Y-89707289D01*
X83503170Y-89709440D01*
X83442308Y-89672884D01*
X83410872Y-89609226D01*
X83408989Y-89587524D01*
X83408989Y-80332549D01*
X83409548Y-80320692D01*
X83411278Y-80312952D01*
X83409051Y-80242088D01*
X83408989Y-80238130D01*
X83408989Y-80209057D01*
X83408436Y-80204678D01*
X83407503Y-80192835D01*
X83406301Y-80154578D01*
X83406301Y-80154577D01*
X83406052Y-80146658D01*
X83400068Y-80126060D01*
X83396060Y-80106707D01*
X83395621Y-80103232D01*
X83393371Y-80085425D01*
X83376364Y-80042471D01*
X83372518Y-80031236D01*
X83361847Y-79994505D01*
X83361846Y-79994502D01*
X83359634Y-79986889D01*
X83348714Y-79968424D01*
X83340023Y-79950684D01*
X83332124Y-79930733D01*
X83304971Y-79893360D01*
X83298456Y-79883441D01*
X83278982Y-79850512D01*
X83278979Y-79850508D01*
X83274942Y-79843682D01*
X83259778Y-79828518D01*
X83246937Y-79813484D01*
X83238990Y-79802546D01*
X83234330Y-79796132D01*
X83198736Y-79766686D01*
X83189957Y-79758697D01*
X80983655Y-77552395D01*
X80975665Y-77543615D01*
X80975663Y-77543613D01*
X80971416Y-77536920D01*
X80919742Y-77488395D01*
X80916901Y-77485641D01*
X80896333Y-77465073D01*
X80892826Y-77462353D01*
X80883804Y-77454647D01*
X80855913Y-77428456D01*
X80850133Y-77423028D01*
X80843181Y-77419206D01*
X80831342Y-77412697D01*
X80814818Y-77401843D01*
X80804132Y-77393555D01*
X80797868Y-77388696D01*
X80790596Y-77385549D01*
X80790594Y-77385548D01*
X80755465Y-77370346D01*
X80744805Y-77365124D01*
X80711284Y-77346695D01*
X80711282Y-77346694D01*
X80704337Y-77342876D01*
X80683559Y-77337541D01*
X80664869Y-77331142D01*
X80645176Y-77322620D01*
X80599552Y-77315394D01*
X80587929Y-77312987D01*
X80559928Y-77305798D01*
X80543188Y-77301500D01*
X80521741Y-77301500D01*
X80502031Y-77299949D01*
X80488677Y-77297834D01*
X80480848Y-77296594D01*
X80434859Y-77300941D01*
X80423004Y-77301500D01*
X77010632Y-77301500D01*
X76942511Y-77281498D01*
X76904840Y-77243940D01*
X76832822Y-77132617D01*
X76832820Y-77132614D01*
X76830014Y-77128277D01*
X76679670Y-76963051D01*
X76675619Y-76959852D01*
X76675615Y-76959848D01*
X76508414Y-76827800D01*
X76508410Y-76827798D01*
X76504359Y-76824598D01*
X76462569Y-76801529D01*
X76412598Y-76751097D01*
X76397826Y-76681654D01*
X76422942Y-76615248D01*
X76450294Y-76588641D01*
X76625328Y-76463792D01*
X76633200Y-76457139D01*
X76784052Y-76306812D01*
X76790730Y-76298965D01*
X76915003Y-76126020D01*
X76920313Y-76117183D01*
X77014670Y-75926267D01*
X77018469Y-75916672D01*
X77080377Y-75712910D01*
X77082555Y-75702837D01*
X77083986Y-75691962D01*
X77081775Y-75677778D01*
X77068617Y-75674000D01*
X75622000Y-75674000D01*
X75553879Y-75653998D01*
X75507386Y-75600342D01*
X75496000Y-75548000D01*
X75496000Y-75292000D01*
X75516002Y-75223879D01*
X75569658Y-75177386D01*
X75622000Y-75166000D01*
X77068344Y-75166000D01*
X77081875Y-75162027D01*
X77083180Y-75152947D01*
X77041214Y-74985875D01*
X77037894Y-74976124D01*
X76952972Y-74780814D01*
X76948105Y-74771739D01*
X76832426Y-74592926D01*
X76826136Y-74584757D01*
X76682806Y-74427240D01*
X76675273Y-74420215D01*
X76508139Y-74288222D01*
X76499556Y-74282520D01*
X76462602Y-74262120D01*
X76412631Y-74211687D01*
X76397859Y-74142245D01*
X76422975Y-74075839D01*
X76450327Y-74049232D01*
X76473797Y-74032491D01*
X76629860Y-73921173D01*
X76788096Y-73763489D01*
X76918453Y-73582077D01*
X77017430Y-73381811D01*
X77082370Y-73168069D01*
X77111529Y-72946590D01*
X77113156Y-72880000D01*
X77094852Y-72657361D01*
X77040431Y-72440702D01*
X76951354Y-72235840D01*
X76830014Y-72048277D01*
X76679670Y-71883051D01*
X76675619Y-71879852D01*
X76675615Y-71879848D01*
X76508414Y-71747800D01*
X76508410Y-71747798D01*
X76504359Y-71744598D01*
X76463053Y-71721796D01*
X76413084Y-71671364D01*
X76410966Y-71661406D01*
X80663423Y-71661406D01*
X80668704Y-71668461D01*
X80845080Y-71771527D01*
X80854363Y-71775974D01*
X81061003Y-71854883D01*
X81070901Y-71857759D01*
X81287653Y-71901857D01*
X81297883Y-71903076D01*
X81518914Y-71911182D01*
X81529223Y-71910714D01*
X81748623Y-71882608D01*
X81758688Y-71880468D01*
X81970557Y-71816905D01*
X81980152Y-71813144D01*
X82178778Y-71715838D01*
X82187636Y-71710559D01*
X82245097Y-71669572D01*
X82253497Y-71658874D01*
X82246510Y-71645721D01*
X81472811Y-70872021D01*
X81458868Y-70864408D01*
X81457034Y-70864539D01*
X81450420Y-70868790D01*
X80670180Y-71649031D01*
X80663423Y-71661406D01*
X76410966Y-71661406D01*
X76398312Y-71601921D01*
X76423428Y-71535516D01*
X76450780Y-71508909D01*
X76494603Y-71477650D01*
X76629860Y-71381173D01*
X76788096Y-71223489D01*
X76918453Y-71042077D01*
X76926932Y-71024922D01*
X77015136Y-70846453D01*
X77015137Y-70846451D01*
X77017430Y-70841811D01*
X77082370Y-70628069D01*
X77111529Y-70406590D01*
X77113156Y-70340000D01*
X77094852Y-70117361D01*
X77040431Y-69900702D01*
X76951354Y-69695840D01*
X76830014Y-69508277D01*
X76826532Y-69504450D01*
X76682798Y-69346488D01*
X76651746Y-69282642D01*
X76660141Y-69212143D01*
X76705317Y-69157375D01*
X76731761Y-69143706D01*
X76838297Y-69103767D01*
X76846705Y-69100615D01*
X76963261Y-69013261D01*
X77050615Y-68896705D01*
X77101745Y-68760316D01*
X77108500Y-68698134D01*
X77108500Y-66901866D01*
X77101745Y-66839684D01*
X77050615Y-66703295D01*
X76963261Y-66586739D01*
X76846705Y-66499385D01*
X76710316Y-66448255D01*
X76648134Y-66441500D01*
X74851866Y-66441500D01*
X74789684Y-66448255D01*
X74678730Y-66489850D01*
X74607923Y-66495033D01*
X74545554Y-66461112D01*
X74511424Y-66398857D01*
X74508500Y-66371868D01*
X74508500Y-63943950D01*
X74528502Y-63875829D01*
X74582158Y-63829336D01*
X74652432Y-63819232D01*
X74717012Y-63848726D01*
G37*
G04 #@! TD.AperFunction*
M02*
