M48
; DRILL file {KiCad 6.0.10+dfsg-1~bpo11+1} date Sat Feb 18 13:34:48 2023
; FORMAT={-:-/ absolute / metric / decimal}
; #@! TF.CreationDate,2023-02-18T13:34:48+00:00
; #@! TF.GenerationSoftware,Kicad,Pcbnew,6.0.10+dfsg-1~bpo11+1
; #@! TF.FileFunction,Plated,1,2,PTH
FMAT,2
METRIC
; #@! TA.AperFunction,Plated,PTH,ViaDrill
T1C0.400
; #@! TA.AperFunction,Plated,PTH,ComponentDrill
T2C1.000
; #@! TA.AperFunction,Plated,PTH,ComponentDrill
T3C1.220
; #@! TA.AperFunction,Plated,PTH,ComponentDrill
T4C1.420
; #@! TA.AperFunction,Plated,PTH,ComponentDrill
T5C1.430
%
G90
G05
T1
X81.5Y-117.8
X82.0Y-66.6
X82.0Y-67.5
T2
X75.75Y-49.5
X75.75Y-52.04
X75.75Y-54.58
X75.75Y-57.12
X75.75Y-59.66
X75.75Y-62.2
X75.75Y-67.8
X75.75Y-70.34
X75.75Y-72.88
X75.75Y-75.42
X75.75Y-77.96
X75.75Y-80.5
X75.75Y-83.04
X75.75Y-85.58
X81.46Y-70.5
X81.5Y-50.0
X81.5Y-91.05
X83.96Y-70.5
X84.0Y-50.0
X84.0Y-91.05
X86.46Y-70.5
X86.46Y-122.96
X86.46Y-128.04
X86.5Y-50.0
X86.5Y-91.05
X89.0Y-122.8
X89.0Y-128.2
X91.54Y-122.96
X91.54Y-128.04
T3
X79.0Y-119.1
X79.0Y-133.6
X89.0Y-133.6
T4
X79.0Y-122.2
X79.0Y-136.7
X89.0Y-136.7
T5
X79.0Y-130.5
X79.0Y-145.0
X89.0Y-145.0
T2
X79.3Y-112.15G85X79.3Y-110.85
G05
X84.0Y-112.15G85X84.0Y-110.85
G05
X88.7Y-112.15G85X88.7Y-110.85
G05
T0
M30
