%TF.GenerationSoftware,KiCad,Pcbnew,6.0.10+dfsg-1~bpo11+1*%
%TF.CreationDate,Date%
%TF.ProjectId,RP2040-VCO,52503230-3430-42d5-9643-4f2e6b696361,rev?*%
%TF.SameCoordinates,Original*%
%TF.FileFunction,Drillmap*%
%TF.FilePolarity,Positive*%
%FSLAX45Y45*%
G04 Gerber Fmt 4.5, Leading zero omitted, Abs format (unit mm)*
G04 Created by KiCad*
%MOMM*%
%LPD*%
G01*
G04 APERTURE LIST*
%ADD10C,0.050000*%
%ADD11C,0.200000*%
%ADD12C,0.040000*%
%ADD13C,0.100000*%
%ADD14C,0.122000*%
%ADD15C,0.142000*%
%ADD16C,0.143000*%
G04 APERTURE END LIST*
D10*
X9400000Y-3650000D02*
X9400000Y-14650000D01*
X7400000Y-3650000D02*
X9400000Y-3650000D01*
X7400000Y-3650000D02*
X7400000Y-14650000D01*
X7400000Y-14650000D02*
X9400000Y-14650000D01*
D11*
D12*
X8130000Y-11760000D02*
X8170000Y-11800000D01*
X8170000Y-11760000D02*
X8130000Y-11800000D01*
X8180000Y-6640000D02*
X8220000Y-6680000D01*
X8220000Y-6640000D02*
X8180000Y-6680000D01*
X8180000Y-6730000D02*
X8220000Y-6770000D01*
X8220000Y-6730000D02*
X8180000Y-6770000D01*
D13*
X7625000Y-4950000D02*
G75*
G03*
X7625000Y-4950000I-50000J0D01*
G01*
X7625000Y-5204000D02*
G75*
G03*
X7625000Y-5204000I-50000J0D01*
G01*
X7625000Y-5458000D02*
G75*
G03*
X7625000Y-5458000I-50000J0D01*
G01*
X7625000Y-5712000D02*
G75*
G03*
X7625000Y-5712000I-50000J0D01*
G01*
X7625000Y-5966000D02*
G75*
G03*
X7625000Y-5966000I-50000J0D01*
G01*
X7625000Y-6220000D02*
G75*
G03*
X7625000Y-6220000I-50000J0D01*
G01*
X7625000Y-6780000D02*
G75*
G03*
X7625000Y-6780000I-50000J0D01*
G01*
X7625000Y-7034000D02*
G75*
G03*
X7625000Y-7034000I-50000J0D01*
G01*
X7625000Y-7288000D02*
G75*
G03*
X7625000Y-7288000I-50000J0D01*
G01*
X7625000Y-7542000D02*
G75*
G03*
X7625000Y-7542000I-50000J0D01*
G01*
X7625000Y-7796000D02*
G75*
G03*
X7625000Y-7796000I-50000J0D01*
G01*
X7625000Y-8050000D02*
G75*
G03*
X7625000Y-8050000I-50000J0D01*
G01*
X7625000Y-8304000D02*
G75*
G03*
X7625000Y-8304000I-50000J0D01*
G01*
X7625000Y-8558000D02*
G75*
G03*
X7625000Y-8558000I-50000J0D01*
G01*
X7980000Y-11150000D02*
G75*
G03*
X7980000Y-11150000I-50000J0D01*
G01*
D11*
X7980000Y-11215000D02*
X7980000Y-11085000D01*
X7880000Y-11215000D02*
X7880000Y-11085000D01*
X7980000Y-11085000D02*
G75*
G03*
X7880000Y-11085000I-50000J0D01*
G01*
X7880000Y-11215000D02*
G75*
G03*
X7980000Y-11215000I50000J0D01*
G01*
D13*
X8196000Y-7050000D02*
G75*
G03*
X8196000Y-7050000I-50000J0D01*
G01*
X8200000Y-5000000D02*
G75*
G03*
X8200000Y-5000000I-50000J0D01*
G01*
X8200000Y-9105000D02*
G75*
G03*
X8200000Y-9105000I-50000J0D01*
G01*
X8446000Y-7050000D02*
G75*
G03*
X8446000Y-7050000I-50000J0D01*
G01*
X8450000Y-5000000D02*
G75*
G03*
X8450000Y-5000000I-50000J0D01*
G01*
X8450000Y-9105000D02*
G75*
G03*
X8450000Y-9105000I-50000J0D01*
G01*
X8450000Y-11150000D02*
G75*
G03*
X8450000Y-11150000I-50000J0D01*
G01*
D11*
X8450000Y-11215000D02*
X8450000Y-11085000D01*
X8350000Y-11215000D02*
X8350000Y-11085000D01*
X8450000Y-11085000D02*
G75*
G03*
X8350000Y-11085000I-50000J0D01*
G01*
X8350000Y-11215000D02*
G75*
G03*
X8450000Y-11215000I50000J0D01*
G01*
D13*
X8696000Y-7050000D02*
G75*
G03*
X8696000Y-7050000I-50000J0D01*
G01*
X8696000Y-12296000D02*
G75*
G03*
X8696000Y-12296000I-50000J0D01*
G01*
X8696000Y-12804000D02*
G75*
G03*
X8696000Y-12804000I-50000J0D01*
G01*
X8700000Y-5000000D02*
G75*
G03*
X8700000Y-5000000I-50000J0D01*
G01*
X8700000Y-9105000D02*
G75*
G03*
X8700000Y-9105000I-50000J0D01*
G01*
X8920000Y-11150000D02*
G75*
G03*
X8920000Y-11150000I-50000J0D01*
G01*
D11*
X8920000Y-11215000D02*
X8920000Y-11085000D01*
X8820000Y-11215000D02*
X8820000Y-11085000D01*
X8920000Y-11085000D02*
G75*
G03*
X8820000Y-11085000I-50000J0D01*
G01*
X8820000Y-11215000D02*
G75*
G03*
X8920000Y-11215000I50000J0D01*
G01*
D13*
X8950000Y-12280000D02*
G75*
G03*
X8950000Y-12280000I-50000J0D01*
G01*
X8950000Y-12820000D02*
G75*
G03*
X8950000Y-12820000I-50000J0D01*
G01*
X9204000Y-12296000D02*
G75*
G03*
X9204000Y-12296000I-50000J0D01*
G01*
X9204000Y-12804000D02*
G75*
G03*
X9204000Y-12804000I-50000J0D01*
G01*
D14*
X7900000Y-11849000D02*
X7900000Y-11971000D01*
X7839000Y-11910000D02*
X7961000Y-11910000D01*
X7900000Y-13299000D02*
X7900000Y-13421000D01*
X7839000Y-13360000D02*
X7961000Y-13360000D01*
X8900000Y-13299000D02*
X8900000Y-13421000D01*
X8839000Y-13360000D02*
X8961000Y-13360000D01*
D15*
X7950205Y-12270205D02*
X7950205Y-12169795D01*
X7849795Y-12169795D01*
X7849795Y-12270205D01*
X7950205Y-12270205D01*
X7950205Y-13720205D02*
X7950205Y-13619795D01*
X7849795Y-13619795D01*
X7849795Y-13720205D01*
X7950205Y-13720205D01*
X8950205Y-13720205D02*
X8950205Y-13619795D01*
X8849795Y-13619795D01*
X8849795Y-13720205D01*
X8950205Y-13720205D01*
D16*
X7900000Y-13121500D02*
X7971500Y-13050000D01*
X7900000Y-12978500D01*
X7828500Y-13050000D01*
X7900000Y-13121500D01*
X7900000Y-14571500D02*
X7971500Y-14500000D01*
X7900000Y-14428500D01*
X7828500Y-14500000D01*
X7900000Y-14571500D01*
X8900000Y-14571500D02*
X8971500Y-14500000D01*
X8900000Y-14428500D01*
X8828500Y-14500000D01*
X8900000Y-14571500D01*
D11*
X7655119Y-14962976D02*
X7655119Y-14762976D01*
X7702738Y-14762976D01*
X7731309Y-14772500D01*
X7750357Y-14791548D01*
X7759881Y-14810595D01*
X7769405Y-14848690D01*
X7769405Y-14877262D01*
X7759881Y-14915357D01*
X7750357Y-14934405D01*
X7731309Y-14953452D01*
X7702738Y-14962976D01*
X7655119Y-14962976D01*
X7855119Y-14962976D02*
X7855119Y-14829643D01*
X7855119Y-14867738D02*
X7864643Y-14848690D01*
X7874167Y-14839167D01*
X7893214Y-14829643D01*
X7912262Y-14829643D01*
X7978928Y-14962976D02*
X7978928Y-14829643D01*
X7978928Y-14762976D02*
X7969405Y-14772500D01*
X7978928Y-14782024D01*
X7988452Y-14772500D01*
X7978928Y-14762976D01*
X7978928Y-14782024D01*
X8102738Y-14962976D02*
X8083690Y-14953452D01*
X8074167Y-14934405D01*
X8074167Y-14762976D01*
X8207500Y-14962976D02*
X8188452Y-14953452D01*
X8178928Y-14934405D01*
X8178928Y-14762976D01*
X8436071Y-14962976D02*
X8436071Y-14762976D01*
X8502738Y-14905833D01*
X8569405Y-14762976D01*
X8569405Y-14962976D01*
X8750357Y-14962976D02*
X8750357Y-14858214D01*
X8740833Y-14839167D01*
X8721786Y-14829643D01*
X8683690Y-14829643D01*
X8664643Y-14839167D01*
X8750357Y-14953452D02*
X8731310Y-14962976D01*
X8683690Y-14962976D01*
X8664643Y-14953452D01*
X8655119Y-14934405D01*
X8655119Y-14915357D01*
X8664643Y-14896309D01*
X8683690Y-14886786D01*
X8731310Y-14886786D01*
X8750357Y-14877262D01*
X8845595Y-14829643D02*
X8845595Y-15029643D01*
X8845595Y-14839167D02*
X8864643Y-14829643D01*
X8902738Y-14829643D01*
X8921786Y-14839167D01*
X8931310Y-14848690D01*
X8940833Y-14867738D01*
X8940833Y-14924881D01*
X8931310Y-14943928D01*
X8921786Y-14953452D01*
X8902738Y-14962976D01*
X8864643Y-14962976D01*
X8845595Y-14953452D01*
X9026548Y-14943928D02*
X9036071Y-14953452D01*
X9026548Y-14962976D01*
X9017024Y-14953452D01*
X9026548Y-14943928D01*
X9026548Y-14962976D01*
X9026548Y-14839167D02*
X9036071Y-14848690D01*
X9026548Y-14858214D01*
X9017024Y-14848690D01*
X9026548Y-14839167D01*
X9026548Y-14858214D01*
D12*
X7357500Y-15272500D02*
X7397500Y-15312500D01*
X7397500Y-15272500D02*
X7357500Y-15312500D01*
D11*
X7693214Y-15182976D02*
X7712262Y-15182976D01*
X7731309Y-15192500D01*
X7740833Y-15202024D01*
X7750357Y-15221071D01*
X7759881Y-15259167D01*
X7759881Y-15306786D01*
X7750357Y-15344881D01*
X7740833Y-15363928D01*
X7731309Y-15373452D01*
X7712262Y-15382976D01*
X7693214Y-15382976D01*
X7674167Y-15373452D01*
X7664643Y-15363928D01*
X7655119Y-15344881D01*
X7645595Y-15306786D01*
X7645595Y-15259167D01*
X7655119Y-15221071D01*
X7664643Y-15202024D01*
X7674167Y-15192500D01*
X7693214Y-15182976D01*
X7845595Y-15363928D02*
X7855119Y-15373452D01*
X7845595Y-15382976D01*
X7836071Y-15373452D01*
X7845595Y-15363928D01*
X7845595Y-15382976D01*
X8026548Y-15249643D02*
X8026548Y-15382976D01*
X7978928Y-15173452D02*
X7931309Y-15316309D01*
X8055119Y-15316309D01*
X8169405Y-15182976D02*
X8188452Y-15182976D01*
X8207500Y-15192500D01*
X8217024Y-15202024D01*
X8226548Y-15221071D01*
X8236071Y-15259167D01*
X8236071Y-15306786D01*
X8226548Y-15344881D01*
X8217024Y-15363928D01*
X8207500Y-15373452D01*
X8188452Y-15382976D01*
X8169405Y-15382976D01*
X8150357Y-15373452D01*
X8140833Y-15363928D01*
X8131309Y-15344881D01*
X8121786Y-15306786D01*
X8121786Y-15259167D01*
X8131309Y-15221071D01*
X8140833Y-15202024D01*
X8150357Y-15192500D01*
X8169405Y-15182976D01*
X8359881Y-15182976D02*
X8378928Y-15182976D01*
X8397976Y-15192500D01*
X8407500Y-15202024D01*
X8417024Y-15221071D01*
X8426548Y-15259167D01*
X8426548Y-15306786D01*
X8417024Y-15344881D01*
X8407500Y-15363928D01*
X8397976Y-15373452D01*
X8378928Y-15382976D01*
X8359881Y-15382976D01*
X8340833Y-15373452D01*
X8331309Y-15363928D01*
X8321786Y-15344881D01*
X8312262Y-15306786D01*
X8312262Y-15259167D01*
X8321786Y-15221071D01*
X8331309Y-15202024D01*
X8340833Y-15192500D01*
X8359881Y-15182976D01*
X8512262Y-15382976D02*
X8512262Y-15249643D01*
X8512262Y-15268690D02*
X8521786Y-15259167D01*
X8540833Y-15249643D01*
X8569405Y-15249643D01*
X8588452Y-15259167D01*
X8597976Y-15278214D01*
X8597976Y-15382976D01*
X8597976Y-15278214D02*
X8607500Y-15259167D01*
X8626548Y-15249643D01*
X8655119Y-15249643D01*
X8674167Y-15259167D01*
X8683690Y-15278214D01*
X8683690Y-15382976D01*
X8778929Y-15382976D02*
X8778929Y-15249643D01*
X8778929Y-15268690D02*
X8788452Y-15259167D01*
X8807500Y-15249643D01*
X8836071Y-15249643D01*
X8855119Y-15259167D01*
X8864643Y-15278214D01*
X8864643Y-15382976D01*
X8864643Y-15278214D02*
X8874167Y-15259167D01*
X8893214Y-15249643D01*
X8921786Y-15249643D01*
X8940833Y-15259167D01*
X8950357Y-15278214D01*
X8950357Y-15382976D01*
X9340833Y-15173452D02*
X9169405Y-15430595D01*
X9597976Y-15182976D02*
X9617024Y-15182976D01*
X9636071Y-15192500D01*
X9645595Y-15202024D01*
X9655119Y-15221071D01*
X9664643Y-15259167D01*
X9664643Y-15306786D01*
X9655119Y-15344881D01*
X9645595Y-15363928D01*
X9636071Y-15373452D01*
X9617024Y-15382976D01*
X9597976Y-15382976D01*
X9578929Y-15373452D01*
X9569405Y-15363928D01*
X9559881Y-15344881D01*
X9550357Y-15306786D01*
X9550357Y-15259167D01*
X9559881Y-15221071D01*
X9569405Y-15202024D01*
X9578929Y-15192500D01*
X9597976Y-15182976D01*
X9750357Y-15363928D02*
X9759881Y-15373452D01*
X9750357Y-15382976D01*
X9740833Y-15373452D01*
X9750357Y-15363928D01*
X9750357Y-15382976D01*
X9883690Y-15182976D02*
X9902738Y-15182976D01*
X9921786Y-15192500D01*
X9931310Y-15202024D01*
X9940833Y-15221071D01*
X9950357Y-15259167D01*
X9950357Y-15306786D01*
X9940833Y-15344881D01*
X9931310Y-15363928D01*
X9921786Y-15373452D01*
X9902738Y-15382976D01*
X9883690Y-15382976D01*
X9864643Y-15373452D01*
X9855119Y-15363928D01*
X9845595Y-15344881D01*
X9836071Y-15306786D01*
X9836071Y-15259167D01*
X9845595Y-15221071D01*
X9855119Y-15202024D01*
X9864643Y-15192500D01*
X9883690Y-15182976D01*
X10140833Y-15382976D02*
X10026548Y-15382976D01*
X10083690Y-15382976D02*
X10083690Y-15182976D01*
X10064643Y-15211548D01*
X10045595Y-15230595D01*
X10026548Y-15240119D01*
X10321786Y-15182976D02*
X10226548Y-15182976D01*
X10217024Y-15278214D01*
X10226548Y-15268690D01*
X10245595Y-15259167D01*
X10293214Y-15259167D01*
X10312262Y-15268690D01*
X10321786Y-15278214D01*
X10331310Y-15297262D01*
X10331310Y-15344881D01*
X10321786Y-15363928D01*
X10312262Y-15373452D01*
X10293214Y-15382976D01*
X10245595Y-15382976D01*
X10226548Y-15373452D01*
X10217024Y-15363928D01*
X10397976Y-15182976D02*
X10531310Y-15182976D01*
X10445595Y-15382976D01*
X10597976Y-15182976D02*
X10597976Y-15221071D01*
X10674167Y-15182976D02*
X10674167Y-15221071D01*
X10969405Y-15459167D02*
X10959881Y-15449643D01*
X10940833Y-15421071D01*
X10931310Y-15402024D01*
X10921786Y-15373452D01*
X10912262Y-15325833D01*
X10912262Y-15287738D01*
X10921786Y-15240119D01*
X10931310Y-15211548D01*
X10940833Y-15192500D01*
X10959881Y-15163928D01*
X10969405Y-15154405D01*
X11026548Y-15182976D02*
X11150357Y-15182976D01*
X11083690Y-15259167D01*
X11112262Y-15259167D01*
X11131310Y-15268690D01*
X11140833Y-15278214D01*
X11150357Y-15297262D01*
X11150357Y-15344881D01*
X11140833Y-15363928D01*
X11131310Y-15373452D01*
X11112262Y-15382976D01*
X11055119Y-15382976D01*
X11036071Y-15373452D01*
X11026548Y-15363928D01*
X11388452Y-15382976D02*
X11388452Y-15182976D01*
X11474167Y-15382976D02*
X11474167Y-15278214D01*
X11464643Y-15259167D01*
X11445595Y-15249643D01*
X11417024Y-15249643D01*
X11397976Y-15259167D01*
X11388452Y-15268690D01*
X11597976Y-15382976D02*
X11578928Y-15373452D01*
X11569405Y-15363928D01*
X11559881Y-15344881D01*
X11559881Y-15287738D01*
X11569405Y-15268690D01*
X11578928Y-15259167D01*
X11597976Y-15249643D01*
X11626548Y-15249643D01*
X11645595Y-15259167D01*
X11655119Y-15268690D01*
X11664643Y-15287738D01*
X11664643Y-15344881D01*
X11655119Y-15363928D01*
X11645595Y-15373452D01*
X11626548Y-15382976D01*
X11597976Y-15382976D01*
X11778928Y-15382976D02*
X11759881Y-15373452D01*
X11750357Y-15354405D01*
X11750357Y-15182976D01*
X11931309Y-15373452D02*
X11912262Y-15382976D01*
X11874167Y-15382976D01*
X11855119Y-15373452D01*
X11845595Y-15354405D01*
X11845595Y-15278214D01*
X11855119Y-15259167D01*
X11874167Y-15249643D01*
X11912262Y-15249643D01*
X11931309Y-15259167D01*
X11940833Y-15278214D01*
X11940833Y-15297262D01*
X11845595Y-15316309D01*
X12017024Y-15373452D02*
X12036071Y-15382976D01*
X12074167Y-15382976D01*
X12093214Y-15373452D01*
X12102738Y-15354405D01*
X12102738Y-15344881D01*
X12093214Y-15325833D01*
X12074167Y-15316309D01*
X12045595Y-15316309D01*
X12026548Y-15306786D01*
X12017024Y-15287738D01*
X12017024Y-15278214D01*
X12026548Y-15259167D01*
X12045595Y-15249643D01*
X12074167Y-15249643D01*
X12093214Y-15259167D01*
X12169405Y-15459167D02*
X12178928Y-15449643D01*
X12197976Y-15421071D01*
X12207500Y-15402024D01*
X12217024Y-15373452D01*
X12226548Y-15325833D01*
X12226548Y-15287738D01*
X12217024Y-15240119D01*
X12207500Y-15211548D01*
X12197976Y-15192500D01*
X12178928Y-15163928D01*
X12169405Y-15154405D01*
D13*
X7397500Y-15556500D02*
G75*
G03*
X7397500Y-15556500I-50000J0D01*
G01*
D11*
X7759881Y-15646976D02*
X7645595Y-15646976D01*
X7702738Y-15646976D02*
X7702738Y-15446976D01*
X7683690Y-15475548D01*
X7664643Y-15494595D01*
X7645595Y-15504119D01*
X7845595Y-15627928D02*
X7855119Y-15637452D01*
X7845595Y-15646976D01*
X7836071Y-15637452D01*
X7845595Y-15627928D01*
X7845595Y-15646976D01*
X7978928Y-15446976D02*
X7997976Y-15446976D01*
X8017024Y-15456500D01*
X8026548Y-15466024D01*
X8036071Y-15485071D01*
X8045595Y-15523167D01*
X8045595Y-15570786D01*
X8036071Y-15608881D01*
X8026548Y-15627928D01*
X8017024Y-15637452D01*
X7997976Y-15646976D01*
X7978928Y-15646976D01*
X7959881Y-15637452D01*
X7950357Y-15627928D01*
X7940833Y-15608881D01*
X7931309Y-15570786D01*
X7931309Y-15523167D01*
X7940833Y-15485071D01*
X7950357Y-15466024D01*
X7959881Y-15456500D01*
X7978928Y-15446976D01*
X8169405Y-15446976D02*
X8188452Y-15446976D01*
X8207500Y-15456500D01*
X8217024Y-15466024D01*
X8226548Y-15485071D01*
X8236071Y-15523167D01*
X8236071Y-15570786D01*
X8226548Y-15608881D01*
X8217024Y-15627928D01*
X8207500Y-15637452D01*
X8188452Y-15646976D01*
X8169405Y-15646976D01*
X8150357Y-15637452D01*
X8140833Y-15627928D01*
X8131309Y-15608881D01*
X8121786Y-15570786D01*
X8121786Y-15523167D01*
X8131309Y-15485071D01*
X8140833Y-15466024D01*
X8150357Y-15456500D01*
X8169405Y-15446976D01*
X8359881Y-15446976D02*
X8378928Y-15446976D01*
X8397976Y-15456500D01*
X8407500Y-15466024D01*
X8417024Y-15485071D01*
X8426548Y-15523167D01*
X8426548Y-15570786D01*
X8417024Y-15608881D01*
X8407500Y-15627928D01*
X8397976Y-15637452D01*
X8378928Y-15646976D01*
X8359881Y-15646976D01*
X8340833Y-15637452D01*
X8331309Y-15627928D01*
X8321786Y-15608881D01*
X8312262Y-15570786D01*
X8312262Y-15523167D01*
X8321786Y-15485071D01*
X8331309Y-15466024D01*
X8340833Y-15456500D01*
X8359881Y-15446976D01*
X8512262Y-15646976D02*
X8512262Y-15513643D01*
X8512262Y-15532690D02*
X8521786Y-15523167D01*
X8540833Y-15513643D01*
X8569405Y-15513643D01*
X8588452Y-15523167D01*
X8597976Y-15542214D01*
X8597976Y-15646976D01*
X8597976Y-15542214D02*
X8607500Y-15523167D01*
X8626548Y-15513643D01*
X8655119Y-15513643D01*
X8674167Y-15523167D01*
X8683690Y-15542214D01*
X8683690Y-15646976D01*
X8778929Y-15646976D02*
X8778929Y-15513643D01*
X8778929Y-15532690D02*
X8788452Y-15523167D01*
X8807500Y-15513643D01*
X8836071Y-15513643D01*
X8855119Y-15523167D01*
X8864643Y-15542214D01*
X8864643Y-15646976D01*
X8864643Y-15542214D02*
X8874167Y-15523167D01*
X8893214Y-15513643D01*
X8921786Y-15513643D01*
X8940833Y-15523167D01*
X8950357Y-15542214D01*
X8950357Y-15646976D01*
X9340833Y-15437452D02*
X9169405Y-15694595D01*
X9597976Y-15446976D02*
X9617024Y-15446976D01*
X9636071Y-15456500D01*
X9645595Y-15466024D01*
X9655119Y-15485071D01*
X9664643Y-15523167D01*
X9664643Y-15570786D01*
X9655119Y-15608881D01*
X9645595Y-15627928D01*
X9636071Y-15637452D01*
X9617024Y-15646976D01*
X9597976Y-15646976D01*
X9578929Y-15637452D01*
X9569405Y-15627928D01*
X9559881Y-15608881D01*
X9550357Y-15570786D01*
X9550357Y-15523167D01*
X9559881Y-15485071D01*
X9569405Y-15466024D01*
X9578929Y-15456500D01*
X9597976Y-15446976D01*
X9750357Y-15627928D02*
X9759881Y-15637452D01*
X9750357Y-15646976D01*
X9740833Y-15637452D01*
X9750357Y-15627928D01*
X9750357Y-15646976D01*
X9883690Y-15446976D02*
X9902738Y-15446976D01*
X9921786Y-15456500D01*
X9931310Y-15466024D01*
X9940833Y-15485071D01*
X9950357Y-15523167D01*
X9950357Y-15570786D01*
X9940833Y-15608881D01*
X9931310Y-15627928D01*
X9921786Y-15637452D01*
X9902738Y-15646976D01*
X9883690Y-15646976D01*
X9864643Y-15637452D01*
X9855119Y-15627928D01*
X9845595Y-15608881D01*
X9836071Y-15570786D01*
X9836071Y-15523167D01*
X9845595Y-15485071D01*
X9855119Y-15466024D01*
X9864643Y-15456500D01*
X9883690Y-15446976D01*
X10017024Y-15446976D02*
X10140833Y-15446976D01*
X10074167Y-15523167D01*
X10102738Y-15523167D01*
X10121786Y-15532690D01*
X10131310Y-15542214D01*
X10140833Y-15561262D01*
X10140833Y-15608881D01*
X10131310Y-15627928D01*
X10121786Y-15637452D01*
X10102738Y-15646976D01*
X10045595Y-15646976D01*
X10026548Y-15637452D01*
X10017024Y-15627928D01*
X10236071Y-15646976D02*
X10274167Y-15646976D01*
X10293214Y-15637452D01*
X10302738Y-15627928D01*
X10321786Y-15599357D01*
X10331310Y-15561262D01*
X10331310Y-15485071D01*
X10321786Y-15466024D01*
X10312262Y-15456500D01*
X10293214Y-15446976D01*
X10255119Y-15446976D01*
X10236071Y-15456500D01*
X10226548Y-15466024D01*
X10217024Y-15485071D01*
X10217024Y-15532690D01*
X10226548Y-15551738D01*
X10236071Y-15561262D01*
X10255119Y-15570786D01*
X10293214Y-15570786D01*
X10312262Y-15561262D01*
X10321786Y-15551738D01*
X10331310Y-15532690D01*
X10502738Y-15513643D02*
X10502738Y-15646976D01*
X10455119Y-15437452D02*
X10407500Y-15580309D01*
X10531310Y-15580309D01*
X10597976Y-15446976D02*
X10597976Y-15485071D01*
X10674167Y-15446976D02*
X10674167Y-15485071D01*
X10969405Y-15723167D02*
X10959881Y-15713643D01*
X10940833Y-15685071D01*
X10931310Y-15666024D01*
X10921786Y-15637452D01*
X10912262Y-15589833D01*
X10912262Y-15551738D01*
X10921786Y-15504119D01*
X10931310Y-15475548D01*
X10940833Y-15456500D01*
X10959881Y-15427928D01*
X10969405Y-15418405D01*
X11036071Y-15466024D02*
X11045595Y-15456500D01*
X11064643Y-15446976D01*
X11112262Y-15446976D01*
X11131310Y-15456500D01*
X11140833Y-15466024D01*
X11150357Y-15485071D01*
X11150357Y-15504119D01*
X11140833Y-15532690D01*
X11026548Y-15646976D01*
X11150357Y-15646976D01*
X11245595Y-15646976D02*
X11283690Y-15646976D01*
X11302738Y-15637452D01*
X11312262Y-15627928D01*
X11331309Y-15599357D01*
X11340833Y-15561262D01*
X11340833Y-15485071D01*
X11331309Y-15466024D01*
X11321786Y-15456500D01*
X11302738Y-15446976D01*
X11264643Y-15446976D01*
X11245595Y-15456500D01*
X11236071Y-15466024D01*
X11226548Y-15485071D01*
X11226548Y-15532690D01*
X11236071Y-15551738D01*
X11245595Y-15561262D01*
X11264643Y-15570786D01*
X11302738Y-15570786D01*
X11321786Y-15561262D01*
X11331309Y-15551738D01*
X11340833Y-15532690D01*
X11578928Y-15646976D02*
X11578928Y-15446976D01*
X11664643Y-15646976D02*
X11664643Y-15542214D01*
X11655119Y-15523167D01*
X11636071Y-15513643D01*
X11607500Y-15513643D01*
X11588452Y-15523167D01*
X11578928Y-15532690D01*
X11788452Y-15646976D02*
X11769405Y-15637452D01*
X11759881Y-15627928D01*
X11750357Y-15608881D01*
X11750357Y-15551738D01*
X11759881Y-15532690D01*
X11769405Y-15523167D01*
X11788452Y-15513643D01*
X11817024Y-15513643D01*
X11836071Y-15523167D01*
X11845595Y-15532690D01*
X11855119Y-15551738D01*
X11855119Y-15608881D01*
X11845595Y-15627928D01*
X11836071Y-15637452D01*
X11817024Y-15646976D01*
X11788452Y-15646976D01*
X11969405Y-15646976D02*
X11950357Y-15637452D01*
X11940833Y-15618405D01*
X11940833Y-15446976D01*
X12121786Y-15637452D02*
X12102738Y-15646976D01*
X12064643Y-15646976D01*
X12045595Y-15637452D01*
X12036071Y-15618405D01*
X12036071Y-15542214D01*
X12045595Y-15523167D01*
X12064643Y-15513643D01*
X12102738Y-15513643D01*
X12121786Y-15523167D01*
X12131309Y-15542214D01*
X12131309Y-15561262D01*
X12036071Y-15580309D01*
X12207500Y-15637452D02*
X12226548Y-15646976D01*
X12264643Y-15646976D01*
X12283690Y-15637452D01*
X12293214Y-15618405D01*
X12293214Y-15608881D01*
X12283690Y-15589833D01*
X12264643Y-15580309D01*
X12236071Y-15580309D01*
X12217024Y-15570786D01*
X12207500Y-15551738D01*
X12207500Y-15542214D01*
X12217024Y-15523167D01*
X12236071Y-15513643D01*
X12264643Y-15513643D01*
X12283690Y-15523167D01*
X12531309Y-15570786D02*
X12683690Y-15570786D01*
X12607500Y-15646976D02*
X12607500Y-15494595D01*
X12912262Y-15446976D02*
X13036071Y-15446976D01*
X12969405Y-15523167D01*
X12997976Y-15523167D01*
X13017024Y-15532690D01*
X13026548Y-15542214D01*
X13036071Y-15561262D01*
X13036071Y-15608881D01*
X13026548Y-15627928D01*
X13017024Y-15637452D01*
X12997976Y-15646976D01*
X12940833Y-15646976D01*
X12921786Y-15637452D01*
X12912262Y-15627928D01*
X13264643Y-15637452D02*
X13283690Y-15646976D01*
X13321786Y-15646976D01*
X13340833Y-15637452D01*
X13350357Y-15618405D01*
X13350357Y-15608881D01*
X13340833Y-15589833D01*
X13321786Y-15580309D01*
X13293214Y-15580309D01*
X13274167Y-15570786D01*
X13264643Y-15551738D01*
X13264643Y-15542214D01*
X13274167Y-15523167D01*
X13293214Y-15513643D01*
X13321786Y-15513643D01*
X13340833Y-15523167D01*
X13464643Y-15646976D02*
X13445595Y-15637452D01*
X13436071Y-15618405D01*
X13436071Y-15446976D01*
X13569405Y-15646976D02*
X13550357Y-15637452D01*
X13540833Y-15627928D01*
X13531309Y-15608881D01*
X13531309Y-15551738D01*
X13540833Y-15532690D01*
X13550357Y-15523167D01*
X13569405Y-15513643D01*
X13597976Y-15513643D01*
X13617024Y-15523167D01*
X13626548Y-15532690D01*
X13636071Y-15551738D01*
X13636071Y-15608881D01*
X13626548Y-15627928D01*
X13617024Y-15637452D01*
X13597976Y-15646976D01*
X13569405Y-15646976D01*
X13693214Y-15513643D02*
X13769405Y-15513643D01*
X13721786Y-15446976D02*
X13721786Y-15618405D01*
X13731309Y-15637452D01*
X13750357Y-15646976D01*
X13769405Y-15646976D01*
X13826548Y-15637452D02*
X13845595Y-15646976D01*
X13883690Y-15646976D01*
X13902738Y-15637452D01*
X13912262Y-15618405D01*
X13912262Y-15608881D01*
X13902738Y-15589833D01*
X13883690Y-15580309D01*
X13855119Y-15580309D01*
X13836071Y-15570786D01*
X13826548Y-15551738D01*
X13826548Y-15542214D01*
X13836071Y-15523167D01*
X13855119Y-15513643D01*
X13883690Y-15513643D01*
X13902738Y-15523167D01*
X13978928Y-15723167D02*
X13988452Y-15713643D01*
X14007500Y-15685071D01*
X14017024Y-15666024D01*
X14026548Y-15637452D01*
X14036071Y-15589833D01*
X14036071Y-15551738D01*
X14026548Y-15504119D01*
X14017024Y-15475548D01*
X14007500Y-15456500D01*
X13988452Y-15427928D01*
X13978928Y-15418405D01*
D14*
X7336500Y-15759500D02*
X7336500Y-15881500D01*
X7275500Y-15820500D02*
X7397500Y-15820500D01*
D11*
X7759881Y-15910976D02*
X7645595Y-15910976D01*
X7702738Y-15910976D02*
X7702738Y-15710976D01*
X7683690Y-15739548D01*
X7664643Y-15758595D01*
X7645595Y-15768119D01*
X7845595Y-15891928D02*
X7855119Y-15901452D01*
X7845595Y-15910976D01*
X7836071Y-15901452D01*
X7845595Y-15891928D01*
X7845595Y-15910976D01*
X7931309Y-15730024D02*
X7940833Y-15720500D01*
X7959881Y-15710976D01*
X8007500Y-15710976D01*
X8026548Y-15720500D01*
X8036071Y-15730024D01*
X8045595Y-15749071D01*
X8045595Y-15768119D01*
X8036071Y-15796690D01*
X7921786Y-15910976D01*
X8045595Y-15910976D01*
X8121786Y-15730024D02*
X8131309Y-15720500D01*
X8150357Y-15710976D01*
X8197976Y-15710976D01*
X8217024Y-15720500D01*
X8226548Y-15730024D01*
X8236071Y-15749071D01*
X8236071Y-15768119D01*
X8226548Y-15796690D01*
X8112262Y-15910976D01*
X8236071Y-15910976D01*
X8359881Y-15710976D02*
X8378928Y-15710976D01*
X8397976Y-15720500D01*
X8407500Y-15730024D01*
X8417024Y-15749071D01*
X8426548Y-15787167D01*
X8426548Y-15834786D01*
X8417024Y-15872881D01*
X8407500Y-15891928D01*
X8397976Y-15901452D01*
X8378928Y-15910976D01*
X8359881Y-15910976D01*
X8340833Y-15901452D01*
X8331309Y-15891928D01*
X8321786Y-15872881D01*
X8312262Y-15834786D01*
X8312262Y-15787167D01*
X8321786Y-15749071D01*
X8331309Y-15730024D01*
X8340833Y-15720500D01*
X8359881Y-15710976D01*
X8512262Y-15910976D02*
X8512262Y-15777643D01*
X8512262Y-15796690D02*
X8521786Y-15787167D01*
X8540833Y-15777643D01*
X8569405Y-15777643D01*
X8588452Y-15787167D01*
X8597976Y-15806214D01*
X8597976Y-15910976D01*
X8597976Y-15806214D02*
X8607500Y-15787167D01*
X8626548Y-15777643D01*
X8655119Y-15777643D01*
X8674167Y-15787167D01*
X8683690Y-15806214D01*
X8683690Y-15910976D01*
X8778929Y-15910976D02*
X8778929Y-15777643D01*
X8778929Y-15796690D02*
X8788452Y-15787167D01*
X8807500Y-15777643D01*
X8836071Y-15777643D01*
X8855119Y-15787167D01*
X8864643Y-15806214D01*
X8864643Y-15910976D01*
X8864643Y-15806214D02*
X8874167Y-15787167D01*
X8893214Y-15777643D01*
X8921786Y-15777643D01*
X8940833Y-15787167D01*
X8950357Y-15806214D01*
X8950357Y-15910976D01*
X9340833Y-15701452D02*
X9169405Y-15958595D01*
X9597976Y-15710976D02*
X9617024Y-15710976D01*
X9636071Y-15720500D01*
X9645595Y-15730024D01*
X9655119Y-15749071D01*
X9664643Y-15787167D01*
X9664643Y-15834786D01*
X9655119Y-15872881D01*
X9645595Y-15891928D01*
X9636071Y-15901452D01*
X9617024Y-15910976D01*
X9597976Y-15910976D01*
X9578929Y-15901452D01*
X9569405Y-15891928D01*
X9559881Y-15872881D01*
X9550357Y-15834786D01*
X9550357Y-15787167D01*
X9559881Y-15749071D01*
X9569405Y-15730024D01*
X9578929Y-15720500D01*
X9597976Y-15710976D01*
X9750357Y-15891928D02*
X9759881Y-15901452D01*
X9750357Y-15910976D01*
X9740833Y-15901452D01*
X9750357Y-15891928D01*
X9750357Y-15910976D01*
X9883690Y-15710976D02*
X9902738Y-15710976D01*
X9921786Y-15720500D01*
X9931310Y-15730024D01*
X9940833Y-15749071D01*
X9950357Y-15787167D01*
X9950357Y-15834786D01*
X9940833Y-15872881D01*
X9931310Y-15891928D01*
X9921786Y-15901452D01*
X9902738Y-15910976D01*
X9883690Y-15910976D01*
X9864643Y-15901452D01*
X9855119Y-15891928D01*
X9845595Y-15872881D01*
X9836071Y-15834786D01*
X9836071Y-15787167D01*
X9845595Y-15749071D01*
X9855119Y-15730024D01*
X9864643Y-15720500D01*
X9883690Y-15710976D01*
X10121786Y-15777643D02*
X10121786Y-15910976D01*
X10074167Y-15701452D02*
X10026548Y-15844309D01*
X10150357Y-15844309D01*
X10255119Y-15796690D02*
X10236071Y-15787167D01*
X10226548Y-15777643D01*
X10217024Y-15758595D01*
X10217024Y-15749071D01*
X10226548Y-15730024D01*
X10236071Y-15720500D01*
X10255119Y-15710976D01*
X10293214Y-15710976D01*
X10312262Y-15720500D01*
X10321786Y-15730024D01*
X10331310Y-15749071D01*
X10331310Y-15758595D01*
X10321786Y-15777643D01*
X10312262Y-15787167D01*
X10293214Y-15796690D01*
X10255119Y-15796690D01*
X10236071Y-15806214D01*
X10226548Y-15815738D01*
X10217024Y-15834786D01*
X10217024Y-15872881D01*
X10226548Y-15891928D01*
X10236071Y-15901452D01*
X10255119Y-15910976D01*
X10293214Y-15910976D01*
X10312262Y-15901452D01*
X10321786Y-15891928D01*
X10331310Y-15872881D01*
X10331310Y-15834786D01*
X10321786Y-15815738D01*
X10312262Y-15806214D01*
X10293214Y-15796690D01*
X10455119Y-15710976D02*
X10474167Y-15710976D01*
X10493214Y-15720500D01*
X10502738Y-15730024D01*
X10512262Y-15749071D01*
X10521786Y-15787167D01*
X10521786Y-15834786D01*
X10512262Y-15872881D01*
X10502738Y-15891928D01*
X10493214Y-15901452D01*
X10474167Y-15910976D01*
X10455119Y-15910976D01*
X10436071Y-15901452D01*
X10426548Y-15891928D01*
X10417024Y-15872881D01*
X10407500Y-15834786D01*
X10407500Y-15787167D01*
X10417024Y-15749071D01*
X10426548Y-15730024D01*
X10436071Y-15720500D01*
X10455119Y-15710976D01*
X10597976Y-15710976D02*
X10597976Y-15749071D01*
X10674167Y-15710976D02*
X10674167Y-15749071D01*
X10969405Y-15987167D02*
X10959881Y-15977643D01*
X10940833Y-15949071D01*
X10931310Y-15930024D01*
X10921786Y-15901452D01*
X10912262Y-15853833D01*
X10912262Y-15815738D01*
X10921786Y-15768119D01*
X10931310Y-15739548D01*
X10940833Y-15720500D01*
X10959881Y-15691928D01*
X10969405Y-15682405D01*
X11026548Y-15710976D02*
X11150357Y-15710976D01*
X11083690Y-15787167D01*
X11112262Y-15787167D01*
X11131310Y-15796690D01*
X11140833Y-15806214D01*
X11150357Y-15825262D01*
X11150357Y-15872881D01*
X11140833Y-15891928D01*
X11131310Y-15901452D01*
X11112262Y-15910976D01*
X11055119Y-15910976D01*
X11036071Y-15901452D01*
X11026548Y-15891928D01*
X11388452Y-15910976D02*
X11388452Y-15710976D01*
X11474167Y-15910976D02*
X11474167Y-15806214D01*
X11464643Y-15787167D01*
X11445595Y-15777643D01*
X11417024Y-15777643D01*
X11397976Y-15787167D01*
X11388452Y-15796690D01*
X11597976Y-15910976D02*
X11578928Y-15901452D01*
X11569405Y-15891928D01*
X11559881Y-15872881D01*
X11559881Y-15815738D01*
X11569405Y-15796690D01*
X11578928Y-15787167D01*
X11597976Y-15777643D01*
X11626548Y-15777643D01*
X11645595Y-15787167D01*
X11655119Y-15796690D01*
X11664643Y-15815738D01*
X11664643Y-15872881D01*
X11655119Y-15891928D01*
X11645595Y-15901452D01*
X11626548Y-15910976D01*
X11597976Y-15910976D01*
X11778928Y-15910976D02*
X11759881Y-15901452D01*
X11750357Y-15882405D01*
X11750357Y-15710976D01*
X11931309Y-15901452D02*
X11912262Y-15910976D01*
X11874167Y-15910976D01*
X11855119Y-15901452D01*
X11845595Y-15882405D01*
X11845595Y-15806214D01*
X11855119Y-15787167D01*
X11874167Y-15777643D01*
X11912262Y-15777643D01*
X11931309Y-15787167D01*
X11940833Y-15806214D01*
X11940833Y-15825262D01*
X11845595Y-15844309D01*
X12017024Y-15901452D02*
X12036071Y-15910976D01*
X12074167Y-15910976D01*
X12093214Y-15901452D01*
X12102738Y-15882405D01*
X12102738Y-15872881D01*
X12093214Y-15853833D01*
X12074167Y-15844309D01*
X12045595Y-15844309D01*
X12026548Y-15834786D01*
X12017024Y-15815738D01*
X12017024Y-15806214D01*
X12026548Y-15787167D01*
X12045595Y-15777643D01*
X12074167Y-15777643D01*
X12093214Y-15787167D01*
X12169405Y-15987167D02*
X12178928Y-15977643D01*
X12197976Y-15949071D01*
X12207500Y-15930024D01*
X12217024Y-15901452D01*
X12226548Y-15853833D01*
X12226548Y-15815738D01*
X12217024Y-15768119D01*
X12207500Y-15739548D01*
X12197976Y-15720500D01*
X12178928Y-15691928D01*
X12169405Y-15682405D01*
D15*
X7376705Y-16134705D02*
X7376705Y-16034295D01*
X7276295Y-16034295D01*
X7276295Y-16134705D01*
X7376705Y-16134705D01*
D11*
X7759881Y-16174976D02*
X7645595Y-16174976D01*
X7702738Y-16174976D02*
X7702738Y-15974976D01*
X7683690Y-16003548D01*
X7664643Y-16022595D01*
X7645595Y-16032119D01*
X7845595Y-16155928D02*
X7855119Y-16165452D01*
X7845595Y-16174976D01*
X7836071Y-16165452D01*
X7845595Y-16155928D01*
X7845595Y-16174976D01*
X8026548Y-16041643D02*
X8026548Y-16174976D01*
X7978928Y-15965452D02*
X7931309Y-16108309D01*
X8055119Y-16108309D01*
X8121786Y-15994024D02*
X8131309Y-15984500D01*
X8150357Y-15974976D01*
X8197976Y-15974976D01*
X8217024Y-15984500D01*
X8226548Y-15994024D01*
X8236071Y-16013071D01*
X8236071Y-16032119D01*
X8226548Y-16060690D01*
X8112262Y-16174976D01*
X8236071Y-16174976D01*
X8359881Y-15974976D02*
X8378928Y-15974976D01*
X8397976Y-15984500D01*
X8407500Y-15994024D01*
X8417024Y-16013071D01*
X8426548Y-16051167D01*
X8426548Y-16098786D01*
X8417024Y-16136881D01*
X8407500Y-16155928D01*
X8397976Y-16165452D01*
X8378928Y-16174976D01*
X8359881Y-16174976D01*
X8340833Y-16165452D01*
X8331309Y-16155928D01*
X8321786Y-16136881D01*
X8312262Y-16098786D01*
X8312262Y-16051167D01*
X8321786Y-16013071D01*
X8331309Y-15994024D01*
X8340833Y-15984500D01*
X8359881Y-15974976D01*
X8512262Y-16174976D02*
X8512262Y-16041643D01*
X8512262Y-16060690D02*
X8521786Y-16051167D01*
X8540833Y-16041643D01*
X8569405Y-16041643D01*
X8588452Y-16051167D01*
X8597976Y-16070214D01*
X8597976Y-16174976D01*
X8597976Y-16070214D02*
X8607500Y-16051167D01*
X8626548Y-16041643D01*
X8655119Y-16041643D01*
X8674167Y-16051167D01*
X8683690Y-16070214D01*
X8683690Y-16174976D01*
X8778929Y-16174976D02*
X8778929Y-16041643D01*
X8778929Y-16060690D02*
X8788452Y-16051167D01*
X8807500Y-16041643D01*
X8836071Y-16041643D01*
X8855119Y-16051167D01*
X8864643Y-16070214D01*
X8864643Y-16174976D01*
X8864643Y-16070214D02*
X8874167Y-16051167D01*
X8893214Y-16041643D01*
X8921786Y-16041643D01*
X8940833Y-16051167D01*
X8950357Y-16070214D01*
X8950357Y-16174976D01*
X9340833Y-15965452D02*
X9169405Y-16222595D01*
X9597976Y-15974976D02*
X9617024Y-15974976D01*
X9636071Y-15984500D01*
X9645595Y-15994024D01*
X9655119Y-16013071D01*
X9664643Y-16051167D01*
X9664643Y-16098786D01*
X9655119Y-16136881D01*
X9645595Y-16155928D01*
X9636071Y-16165452D01*
X9617024Y-16174976D01*
X9597976Y-16174976D01*
X9578929Y-16165452D01*
X9569405Y-16155928D01*
X9559881Y-16136881D01*
X9550357Y-16098786D01*
X9550357Y-16051167D01*
X9559881Y-16013071D01*
X9569405Y-15994024D01*
X9578929Y-15984500D01*
X9597976Y-15974976D01*
X9750357Y-16155928D02*
X9759881Y-16165452D01*
X9750357Y-16174976D01*
X9740833Y-16165452D01*
X9750357Y-16155928D01*
X9750357Y-16174976D01*
X9883690Y-15974976D02*
X9902738Y-15974976D01*
X9921786Y-15984500D01*
X9931310Y-15994024D01*
X9940833Y-16013071D01*
X9950357Y-16051167D01*
X9950357Y-16098786D01*
X9940833Y-16136881D01*
X9931310Y-16155928D01*
X9921786Y-16165452D01*
X9902738Y-16174976D01*
X9883690Y-16174976D01*
X9864643Y-16165452D01*
X9855119Y-16155928D01*
X9845595Y-16136881D01*
X9836071Y-16098786D01*
X9836071Y-16051167D01*
X9845595Y-16013071D01*
X9855119Y-15994024D01*
X9864643Y-15984500D01*
X9883690Y-15974976D01*
X10131310Y-15974976D02*
X10036071Y-15974976D01*
X10026548Y-16070214D01*
X10036071Y-16060690D01*
X10055119Y-16051167D01*
X10102738Y-16051167D01*
X10121786Y-16060690D01*
X10131310Y-16070214D01*
X10140833Y-16089262D01*
X10140833Y-16136881D01*
X10131310Y-16155928D01*
X10121786Y-16165452D01*
X10102738Y-16174976D01*
X10055119Y-16174976D01*
X10036071Y-16165452D01*
X10026548Y-16155928D01*
X10321786Y-15974976D02*
X10226548Y-15974976D01*
X10217024Y-16070214D01*
X10226548Y-16060690D01*
X10245595Y-16051167D01*
X10293214Y-16051167D01*
X10312262Y-16060690D01*
X10321786Y-16070214D01*
X10331310Y-16089262D01*
X10331310Y-16136881D01*
X10321786Y-16155928D01*
X10312262Y-16165452D01*
X10293214Y-16174976D01*
X10245595Y-16174976D01*
X10226548Y-16165452D01*
X10217024Y-16155928D01*
X10426548Y-16174976D02*
X10464643Y-16174976D01*
X10483690Y-16165452D01*
X10493214Y-16155928D01*
X10512262Y-16127357D01*
X10521786Y-16089262D01*
X10521786Y-16013071D01*
X10512262Y-15994024D01*
X10502738Y-15984500D01*
X10483690Y-15974976D01*
X10445595Y-15974976D01*
X10426548Y-15984500D01*
X10417024Y-15994024D01*
X10407500Y-16013071D01*
X10407500Y-16060690D01*
X10417024Y-16079738D01*
X10426548Y-16089262D01*
X10445595Y-16098786D01*
X10483690Y-16098786D01*
X10502738Y-16089262D01*
X10512262Y-16079738D01*
X10521786Y-16060690D01*
X10597976Y-15974976D02*
X10597976Y-16013071D01*
X10674167Y-15974976D02*
X10674167Y-16013071D01*
X10969405Y-16251167D02*
X10959881Y-16241643D01*
X10940833Y-16213071D01*
X10931310Y-16194024D01*
X10921786Y-16165452D01*
X10912262Y-16117833D01*
X10912262Y-16079738D01*
X10921786Y-16032119D01*
X10931310Y-16003548D01*
X10940833Y-15984500D01*
X10959881Y-15955928D01*
X10969405Y-15946405D01*
X11026548Y-15974976D02*
X11150357Y-15974976D01*
X11083690Y-16051167D01*
X11112262Y-16051167D01*
X11131310Y-16060690D01*
X11140833Y-16070214D01*
X11150357Y-16089262D01*
X11150357Y-16136881D01*
X11140833Y-16155928D01*
X11131310Y-16165452D01*
X11112262Y-16174976D01*
X11055119Y-16174976D01*
X11036071Y-16165452D01*
X11026548Y-16155928D01*
X11388452Y-16174976D02*
X11388452Y-15974976D01*
X11474167Y-16174976D02*
X11474167Y-16070214D01*
X11464643Y-16051167D01*
X11445595Y-16041643D01*
X11417024Y-16041643D01*
X11397976Y-16051167D01*
X11388452Y-16060690D01*
X11597976Y-16174976D02*
X11578928Y-16165452D01*
X11569405Y-16155928D01*
X11559881Y-16136881D01*
X11559881Y-16079738D01*
X11569405Y-16060690D01*
X11578928Y-16051167D01*
X11597976Y-16041643D01*
X11626548Y-16041643D01*
X11645595Y-16051167D01*
X11655119Y-16060690D01*
X11664643Y-16079738D01*
X11664643Y-16136881D01*
X11655119Y-16155928D01*
X11645595Y-16165452D01*
X11626548Y-16174976D01*
X11597976Y-16174976D01*
X11778928Y-16174976D02*
X11759881Y-16165452D01*
X11750357Y-16146405D01*
X11750357Y-15974976D01*
X11931309Y-16165452D02*
X11912262Y-16174976D01*
X11874167Y-16174976D01*
X11855119Y-16165452D01*
X11845595Y-16146405D01*
X11845595Y-16070214D01*
X11855119Y-16051167D01*
X11874167Y-16041643D01*
X11912262Y-16041643D01*
X11931309Y-16051167D01*
X11940833Y-16070214D01*
X11940833Y-16089262D01*
X11845595Y-16108309D01*
X12017024Y-16165452D02*
X12036071Y-16174976D01*
X12074167Y-16174976D01*
X12093214Y-16165452D01*
X12102738Y-16146405D01*
X12102738Y-16136881D01*
X12093214Y-16117833D01*
X12074167Y-16108309D01*
X12045595Y-16108309D01*
X12026548Y-16098786D01*
X12017024Y-16079738D01*
X12017024Y-16070214D01*
X12026548Y-16051167D01*
X12045595Y-16041643D01*
X12074167Y-16041643D01*
X12093214Y-16051167D01*
X12169405Y-16251167D02*
X12178928Y-16241643D01*
X12197976Y-16213071D01*
X12207500Y-16194024D01*
X12217024Y-16165452D01*
X12226548Y-16117833D01*
X12226548Y-16079738D01*
X12217024Y-16032119D01*
X12207500Y-16003548D01*
X12197976Y-15984500D01*
X12178928Y-15955928D01*
X12169405Y-15946405D01*
D16*
X7326000Y-16420000D02*
X7397500Y-16348500D01*
X7326000Y-16277000D01*
X7254500Y-16348500D01*
X7326000Y-16420000D01*
D11*
X7759881Y-16438976D02*
X7645595Y-16438976D01*
X7702738Y-16438976D02*
X7702738Y-16238976D01*
X7683690Y-16267548D01*
X7664643Y-16286595D01*
X7645595Y-16296119D01*
X7845595Y-16419928D02*
X7855119Y-16429452D01*
X7845595Y-16438976D01*
X7836071Y-16429452D01*
X7845595Y-16419928D01*
X7845595Y-16438976D01*
X8026548Y-16305643D02*
X8026548Y-16438976D01*
X7978928Y-16229452D02*
X7931309Y-16372309D01*
X8055119Y-16372309D01*
X8112262Y-16238976D02*
X8236071Y-16238976D01*
X8169405Y-16315167D01*
X8197976Y-16315167D01*
X8217024Y-16324690D01*
X8226548Y-16334214D01*
X8236071Y-16353262D01*
X8236071Y-16400881D01*
X8226548Y-16419928D01*
X8217024Y-16429452D01*
X8197976Y-16438976D01*
X8140833Y-16438976D01*
X8121786Y-16429452D01*
X8112262Y-16419928D01*
X8359881Y-16238976D02*
X8378928Y-16238976D01*
X8397976Y-16248500D01*
X8407500Y-16258024D01*
X8417024Y-16277071D01*
X8426548Y-16315167D01*
X8426548Y-16362786D01*
X8417024Y-16400881D01*
X8407500Y-16419928D01*
X8397976Y-16429452D01*
X8378928Y-16438976D01*
X8359881Y-16438976D01*
X8340833Y-16429452D01*
X8331309Y-16419928D01*
X8321786Y-16400881D01*
X8312262Y-16362786D01*
X8312262Y-16315167D01*
X8321786Y-16277071D01*
X8331309Y-16258024D01*
X8340833Y-16248500D01*
X8359881Y-16238976D01*
X8512262Y-16438976D02*
X8512262Y-16305643D01*
X8512262Y-16324690D02*
X8521786Y-16315167D01*
X8540833Y-16305643D01*
X8569405Y-16305643D01*
X8588452Y-16315167D01*
X8597976Y-16334214D01*
X8597976Y-16438976D01*
X8597976Y-16334214D02*
X8607500Y-16315167D01*
X8626548Y-16305643D01*
X8655119Y-16305643D01*
X8674167Y-16315167D01*
X8683690Y-16334214D01*
X8683690Y-16438976D01*
X8778929Y-16438976D02*
X8778929Y-16305643D01*
X8778929Y-16324690D02*
X8788452Y-16315167D01*
X8807500Y-16305643D01*
X8836071Y-16305643D01*
X8855119Y-16315167D01*
X8864643Y-16334214D01*
X8864643Y-16438976D01*
X8864643Y-16334214D02*
X8874167Y-16315167D01*
X8893214Y-16305643D01*
X8921786Y-16305643D01*
X8940833Y-16315167D01*
X8950357Y-16334214D01*
X8950357Y-16438976D01*
X9340833Y-16229452D02*
X9169405Y-16486595D01*
X9597976Y-16238976D02*
X9617024Y-16238976D01*
X9636071Y-16248500D01*
X9645595Y-16258024D01*
X9655119Y-16277071D01*
X9664643Y-16315167D01*
X9664643Y-16362786D01*
X9655119Y-16400881D01*
X9645595Y-16419928D01*
X9636071Y-16429452D01*
X9617024Y-16438976D01*
X9597976Y-16438976D01*
X9578929Y-16429452D01*
X9569405Y-16419928D01*
X9559881Y-16400881D01*
X9550357Y-16362786D01*
X9550357Y-16315167D01*
X9559881Y-16277071D01*
X9569405Y-16258024D01*
X9578929Y-16248500D01*
X9597976Y-16238976D01*
X9750357Y-16419928D02*
X9759881Y-16429452D01*
X9750357Y-16438976D01*
X9740833Y-16429452D01*
X9750357Y-16419928D01*
X9750357Y-16438976D01*
X9883690Y-16238976D02*
X9902738Y-16238976D01*
X9921786Y-16248500D01*
X9931310Y-16258024D01*
X9940833Y-16277071D01*
X9950357Y-16315167D01*
X9950357Y-16362786D01*
X9940833Y-16400881D01*
X9931310Y-16419928D01*
X9921786Y-16429452D01*
X9902738Y-16438976D01*
X9883690Y-16438976D01*
X9864643Y-16429452D01*
X9855119Y-16419928D01*
X9845595Y-16400881D01*
X9836071Y-16362786D01*
X9836071Y-16315167D01*
X9845595Y-16277071D01*
X9855119Y-16258024D01*
X9864643Y-16248500D01*
X9883690Y-16238976D01*
X10131310Y-16238976D02*
X10036071Y-16238976D01*
X10026548Y-16334214D01*
X10036071Y-16324690D01*
X10055119Y-16315167D01*
X10102738Y-16315167D01*
X10121786Y-16324690D01*
X10131310Y-16334214D01*
X10140833Y-16353262D01*
X10140833Y-16400881D01*
X10131310Y-16419928D01*
X10121786Y-16429452D01*
X10102738Y-16438976D01*
X10055119Y-16438976D01*
X10036071Y-16429452D01*
X10026548Y-16419928D01*
X10312262Y-16238976D02*
X10274167Y-16238976D01*
X10255119Y-16248500D01*
X10245595Y-16258024D01*
X10226548Y-16286595D01*
X10217024Y-16324690D01*
X10217024Y-16400881D01*
X10226548Y-16419928D01*
X10236071Y-16429452D01*
X10255119Y-16438976D01*
X10293214Y-16438976D01*
X10312262Y-16429452D01*
X10321786Y-16419928D01*
X10331310Y-16400881D01*
X10331310Y-16353262D01*
X10321786Y-16334214D01*
X10312262Y-16324690D01*
X10293214Y-16315167D01*
X10255119Y-16315167D01*
X10236071Y-16324690D01*
X10226548Y-16334214D01*
X10217024Y-16353262D01*
X10397976Y-16238976D02*
X10521786Y-16238976D01*
X10455119Y-16315167D01*
X10483690Y-16315167D01*
X10502738Y-16324690D01*
X10512262Y-16334214D01*
X10521786Y-16353262D01*
X10521786Y-16400881D01*
X10512262Y-16419928D01*
X10502738Y-16429452D01*
X10483690Y-16438976D01*
X10426548Y-16438976D01*
X10407500Y-16429452D01*
X10397976Y-16419928D01*
X10597976Y-16238976D02*
X10597976Y-16277071D01*
X10674167Y-16238976D02*
X10674167Y-16277071D01*
X10969405Y-16515167D02*
X10959881Y-16505643D01*
X10940833Y-16477071D01*
X10931310Y-16458024D01*
X10921786Y-16429452D01*
X10912262Y-16381833D01*
X10912262Y-16343738D01*
X10921786Y-16296119D01*
X10931310Y-16267548D01*
X10940833Y-16248500D01*
X10959881Y-16219928D01*
X10969405Y-16210405D01*
X11026548Y-16238976D02*
X11150357Y-16238976D01*
X11083690Y-16315167D01*
X11112262Y-16315167D01*
X11131310Y-16324690D01*
X11140833Y-16334214D01*
X11150357Y-16353262D01*
X11150357Y-16400881D01*
X11140833Y-16419928D01*
X11131310Y-16429452D01*
X11112262Y-16438976D01*
X11055119Y-16438976D01*
X11036071Y-16429452D01*
X11026548Y-16419928D01*
X11388452Y-16438976D02*
X11388452Y-16238976D01*
X11474167Y-16438976D02*
X11474167Y-16334214D01*
X11464643Y-16315167D01*
X11445595Y-16305643D01*
X11417024Y-16305643D01*
X11397976Y-16315167D01*
X11388452Y-16324690D01*
X11597976Y-16438976D02*
X11578928Y-16429452D01*
X11569405Y-16419928D01*
X11559881Y-16400881D01*
X11559881Y-16343738D01*
X11569405Y-16324690D01*
X11578928Y-16315167D01*
X11597976Y-16305643D01*
X11626548Y-16305643D01*
X11645595Y-16315167D01*
X11655119Y-16324690D01*
X11664643Y-16343738D01*
X11664643Y-16400881D01*
X11655119Y-16419928D01*
X11645595Y-16429452D01*
X11626548Y-16438976D01*
X11597976Y-16438976D01*
X11778928Y-16438976D02*
X11759881Y-16429452D01*
X11750357Y-16410405D01*
X11750357Y-16238976D01*
X11931309Y-16429452D02*
X11912262Y-16438976D01*
X11874167Y-16438976D01*
X11855119Y-16429452D01*
X11845595Y-16410405D01*
X11845595Y-16334214D01*
X11855119Y-16315167D01*
X11874167Y-16305643D01*
X11912262Y-16305643D01*
X11931309Y-16315167D01*
X11940833Y-16334214D01*
X11940833Y-16353262D01*
X11845595Y-16372309D01*
X12017024Y-16429452D02*
X12036071Y-16438976D01*
X12074167Y-16438976D01*
X12093214Y-16429452D01*
X12102738Y-16410405D01*
X12102738Y-16400881D01*
X12093214Y-16381833D01*
X12074167Y-16372309D01*
X12045595Y-16372309D01*
X12026548Y-16362786D01*
X12017024Y-16343738D01*
X12017024Y-16334214D01*
X12026548Y-16315167D01*
X12045595Y-16305643D01*
X12074167Y-16305643D01*
X12093214Y-16315167D01*
X12169405Y-16515167D02*
X12178928Y-16505643D01*
X12197976Y-16477071D01*
X12207500Y-16458024D01*
X12217024Y-16429452D01*
X12226548Y-16381833D01*
X12226548Y-16343738D01*
X12217024Y-16296119D01*
X12207500Y-16267548D01*
X12197976Y-16248500D01*
X12178928Y-16219928D01*
X12169405Y-16210405D01*
M02*
