G04 #@! TF.GenerationSoftware,KiCad,Pcbnew,7.0.1.1-36-gbcf78dbe24-dirty-deb11*
G04 #@! TF.CreationDate,2023-04-09T19:20:54+00:00*
G04 #@! TF.ProjectId,RP2040-VCO,52503230-3430-42d5-9643-4f2e6b696361,rev?*
G04 #@! TF.SameCoordinates,Original*
G04 #@! TF.FileFunction,Legend,Top*
G04 #@! TF.FilePolarity,Positive*
%FSLAX46Y46*%
G04 Gerber Fmt 4.6, Leading zero omitted, Abs format (unit mm)*
G04 Created by KiCad (PCBNEW 7.0.1.1-36-gbcf78dbe24-dirty-deb11) date 2023-04-09 19:20:54*
%MOMM*%
%LPD*%
G01*
G04 APERTURE LIST*
%ADD10C,0.150000*%
%ADD11C,0.120000*%
%ADD12R,1.930000X1.830000*%
%ADD13C,2.130000*%
%ADD14C,4.000000*%
%ADD15C,1.800000*%
%ADD16C,1.500000*%
%ADD17C,1.524000*%
%ADD18C,3.200000*%
%ADD19O,3.200000X5.000000*%
%ADD20R,1.700000X1.700000*%
%ADD21O,1.700000X1.700000*%
G04 APERTURE END LIST*
D10*
X80171428Y-100542619D02*
X79838095Y-100066428D01*
X79600000Y-100542619D02*
X79600000Y-99542619D01*
X79600000Y-99542619D02*
X79980952Y-99542619D01*
X79980952Y-99542619D02*
X80076190Y-99590238D01*
X80076190Y-99590238D02*
X80123809Y-99637857D01*
X80123809Y-99637857D02*
X80171428Y-99733095D01*
X80171428Y-99733095D02*
X80171428Y-99875952D01*
X80171428Y-99875952D02*
X80123809Y-99971190D01*
X80123809Y-99971190D02*
X80076190Y-100018809D01*
X80076190Y-100018809D02*
X79980952Y-100066428D01*
X79980952Y-100066428D02*
X79600000Y-100066428D01*
X80600000Y-100542619D02*
X80600000Y-99542619D01*
X80600000Y-99542619D02*
X80980952Y-99542619D01*
X80980952Y-99542619D02*
X81076190Y-99590238D01*
X81076190Y-99590238D02*
X81123809Y-99637857D01*
X81123809Y-99637857D02*
X81171428Y-99733095D01*
X81171428Y-99733095D02*
X81171428Y-99875952D01*
X81171428Y-99875952D02*
X81123809Y-99971190D01*
X81123809Y-99971190D02*
X81076190Y-100018809D01*
X81076190Y-100018809D02*
X80980952Y-100066428D01*
X80980952Y-100066428D02*
X80600000Y-100066428D01*
X81552381Y-99637857D02*
X81600000Y-99590238D01*
X81600000Y-99590238D02*
X81695238Y-99542619D01*
X81695238Y-99542619D02*
X81933333Y-99542619D01*
X81933333Y-99542619D02*
X82028571Y-99590238D01*
X82028571Y-99590238D02*
X82076190Y-99637857D01*
X82076190Y-99637857D02*
X82123809Y-99733095D01*
X82123809Y-99733095D02*
X82123809Y-99828333D01*
X82123809Y-99828333D02*
X82076190Y-99971190D01*
X82076190Y-99971190D02*
X81504762Y-100542619D01*
X81504762Y-100542619D02*
X82123809Y-100542619D01*
X82742857Y-99542619D02*
X82838095Y-99542619D01*
X82838095Y-99542619D02*
X82933333Y-99590238D01*
X82933333Y-99590238D02*
X82980952Y-99637857D01*
X82980952Y-99637857D02*
X83028571Y-99733095D01*
X83028571Y-99733095D02*
X83076190Y-99923571D01*
X83076190Y-99923571D02*
X83076190Y-100161666D01*
X83076190Y-100161666D02*
X83028571Y-100352142D01*
X83028571Y-100352142D02*
X82980952Y-100447380D01*
X82980952Y-100447380D02*
X82933333Y-100495000D01*
X82933333Y-100495000D02*
X82838095Y-100542619D01*
X82838095Y-100542619D02*
X82742857Y-100542619D01*
X82742857Y-100542619D02*
X82647619Y-100495000D01*
X82647619Y-100495000D02*
X82600000Y-100447380D01*
X82600000Y-100447380D02*
X82552381Y-100352142D01*
X82552381Y-100352142D02*
X82504762Y-100161666D01*
X82504762Y-100161666D02*
X82504762Y-99923571D01*
X82504762Y-99923571D02*
X82552381Y-99733095D01*
X82552381Y-99733095D02*
X82600000Y-99637857D01*
X82600000Y-99637857D02*
X82647619Y-99590238D01*
X82647619Y-99590238D02*
X82742857Y-99542619D01*
X83933333Y-99875952D02*
X83933333Y-100542619D01*
X83695238Y-99495000D02*
X83457143Y-100209285D01*
X83457143Y-100209285D02*
X84076190Y-100209285D01*
X84647619Y-99542619D02*
X84742857Y-99542619D01*
X84742857Y-99542619D02*
X84838095Y-99590238D01*
X84838095Y-99590238D02*
X84885714Y-99637857D01*
X84885714Y-99637857D02*
X84933333Y-99733095D01*
X84933333Y-99733095D02*
X84980952Y-99923571D01*
X84980952Y-99923571D02*
X84980952Y-100161666D01*
X84980952Y-100161666D02*
X84933333Y-100352142D01*
X84933333Y-100352142D02*
X84885714Y-100447380D01*
X84885714Y-100447380D02*
X84838095Y-100495000D01*
X84838095Y-100495000D02*
X84742857Y-100542619D01*
X84742857Y-100542619D02*
X84647619Y-100542619D01*
X84647619Y-100542619D02*
X84552381Y-100495000D01*
X84552381Y-100495000D02*
X84504762Y-100447380D01*
X84504762Y-100447380D02*
X84457143Y-100352142D01*
X84457143Y-100352142D02*
X84409524Y-100161666D01*
X84409524Y-100161666D02*
X84409524Y-99923571D01*
X84409524Y-99923571D02*
X84457143Y-99733095D01*
X84457143Y-99733095D02*
X84504762Y-99637857D01*
X84504762Y-99637857D02*
X84552381Y-99590238D01*
X84552381Y-99590238D02*
X84647619Y-99542619D01*
X86028572Y-99542619D02*
X86361905Y-100542619D01*
X86361905Y-100542619D02*
X86695238Y-99542619D01*
X87600000Y-100447380D02*
X87552381Y-100495000D01*
X87552381Y-100495000D02*
X87409524Y-100542619D01*
X87409524Y-100542619D02*
X87314286Y-100542619D01*
X87314286Y-100542619D02*
X87171429Y-100495000D01*
X87171429Y-100495000D02*
X87076191Y-100399761D01*
X87076191Y-100399761D02*
X87028572Y-100304523D01*
X87028572Y-100304523D02*
X86980953Y-100114047D01*
X86980953Y-100114047D02*
X86980953Y-99971190D01*
X86980953Y-99971190D02*
X87028572Y-99780714D01*
X87028572Y-99780714D02*
X87076191Y-99685476D01*
X87076191Y-99685476D02*
X87171429Y-99590238D01*
X87171429Y-99590238D02*
X87314286Y-99542619D01*
X87314286Y-99542619D02*
X87409524Y-99542619D01*
X87409524Y-99542619D02*
X87552381Y-99590238D01*
X87552381Y-99590238D02*
X87600000Y-99637857D01*
X88219048Y-99542619D02*
X88409524Y-99542619D01*
X88409524Y-99542619D02*
X88504762Y-99590238D01*
X88504762Y-99590238D02*
X88600000Y-99685476D01*
X88600000Y-99685476D02*
X88647619Y-99875952D01*
X88647619Y-99875952D02*
X88647619Y-100209285D01*
X88647619Y-100209285D02*
X88600000Y-100399761D01*
X88600000Y-100399761D02*
X88504762Y-100495000D01*
X88504762Y-100495000D02*
X88409524Y-100542619D01*
X88409524Y-100542619D02*
X88219048Y-100542619D01*
X88219048Y-100542619D02*
X88123810Y-100495000D01*
X88123810Y-100495000D02*
X88028572Y-100399761D01*
X88028572Y-100399761D02*
X87980953Y-100209285D01*
X87980953Y-100209285D02*
X87980953Y-99875952D01*
X87980953Y-99875952D02*
X88028572Y-99685476D01*
X88028572Y-99685476D02*
X88123810Y-99590238D01*
X88123810Y-99590238D02*
X88219048Y-99542619D01*
X77838095Y-101162619D02*
X78171428Y-102162619D01*
X78171428Y-102162619D02*
X78504761Y-101162619D01*
X79361904Y-102162619D02*
X78790476Y-102162619D01*
X79076190Y-102162619D02*
X79076190Y-101162619D01*
X79076190Y-101162619D02*
X78980952Y-101305476D01*
X78980952Y-101305476D02*
X78885714Y-101400714D01*
X78885714Y-101400714D02*
X78790476Y-101448333D01*
X79790476Y-102067380D02*
X79838095Y-102115000D01*
X79838095Y-102115000D02*
X79790476Y-102162619D01*
X79790476Y-102162619D02*
X79742857Y-102115000D01*
X79742857Y-102115000D02*
X79790476Y-102067380D01*
X79790476Y-102067380D02*
X79790476Y-102162619D01*
X80790475Y-102162619D02*
X80219047Y-102162619D01*
X80504761Y-102162619D02*
X80504761Y-101162619D01*
X80504761Y-101162619D02*
X80409523Y-101305476D01*
X80409523Y-101305476D02*
X80314285Y-101400714D01*
X80314285Y-101400714D02*
X80219047Y-101448333D01*
X82314285Y-101638809D02*
X82457142Y-101686428D01*
X82457142Y-101686428D02*
X82504761Y-101734047D01*
X82504761Y-101734047D02*
X82552380Y-101829285D01*
X82552380Y-101829285D02*
X82552380Y-101972142D01*
X82552380Y-101972142D02*
X82504761Y-102067380D01*
X82504761Y-102067380D02*
X82457142Y-102115000D01*
X82457142Y-102115000D02*
X82361904Y-102162619D01*
X82361904Y-102162619D02*
X81980952Y-102162619D01*
X81980952Y-102162619D02*
X81980952Y-101162619D01*
X81980952Y-101162619D02*
X82314285Y-101162619D01*
X82314285Y-101162619D02*
X82409523Y-101210238D01*
X82409523Y-101210238D02*
X82457142Y-101257857D01*
X82457142Y-101257857D02*
X82504761Y-101353095D01*
X82504761Y-101353095D02*
X82504761Y-101448333D01*
X82504761Y-101448333D02*
X82457142Y-101543571D01*
X82457142Y-101543571D02*
X82409523Y-101591190D01*
X82409523Y-101591190D02*
X82314285Y-101638809D01*
X82314285Y-101638809D02*
X81980952Y-101638809D01*
X83123809Y-102162619D02*
X83028571Y-102115000D01*
X83028571Y-102115000D02*
X82980952Y-102019761D01*
X82980952Y-102019761D02*
X82980952Y-101162619D01*
X83885714Y-102115000D02*
X83790476Y-102162619D01*
X83790476Y-102162619D02*
X83600000Y-102162619D01*
X83600000Y-102162619D02*
X83504762Y-102115000D01*
X83504762Y-102115000D02*
X83457143Y-102019761D01*
X83457143Y-102019761D02*
X83457143Y-101638809D01*
X83457143Y-101638809D02*
X83504762Y-101543571D01*
X83504762Y-101543571D02*
X83600000Y-101495952D01*
X83600000Y-101495952D02*
X83790476Y-101495952D01*
X83790476Y-101495952D02*
X83885714Y-101543571D01*
X83885714Y-101543571D02*
X83933333Y-101638809D01*
X83933333Y-101638809D02*
X83933333Y-101734047D01*
X83933333Y-101734047D02*
X83457143Y-101829285D01*
X84742857Y-102115000D02*
X84647619Y-102162619D01*
X84647619Y-102162619D02*
X84457143Y-102162619D01*
X84457143Y-102162619D02*
X84361905Y-102115000D01*
X84361905Y-102115000D02*
X84314286Y-102019761D01*
X84314286Y-102019761D02*
X84314286Y-101638809D01*
X84314286Y-101638809D02*
X84361905Y-101543571D01*
X84361905Y-101543571D02*
X84457143Y-101495952D01*
X84457143Y-101495952D02*
X84647619Y-101495952D01*
X84647619Y-101495952D02*
X84742857Y-101543571D01*
X84742857Y-101543571D02*
X84790476Y-101638809D01*
X84790476Y-101638809D02*
X84790476Y-101734047D01*
X84790476Y-101734047D02*
X84314286Y-101829285D01*
X85219048Y-101495952D02*
X85219048Y-102495952D01*
X85219048Y-101543571D02*
X85314286Y-101495952D01*
X85314286Y-101495952D02*
X85504762Y-101495952D01*
X85504762Y-101495952D02*
X85600000Y-101543571D01*
X85600000Y-101543571D02*
X85647619Y-101591190D01*
X85647619Y-101591190D02*
X85695238Y-101686428D01*
X85695238Y-101686428D02*
X85695238Y-101972142D01*
X85695238Y-101972142D02*
X85647619Y-102067380D01*
X85647619Y-102067380D02*
X85600000Y-102115000D01*
X85600000Y-102115000D02*
X85504762Y-102162619D01*
X85504762Y-102162619D02*
X85314286Y-102162619D01*
X85314286Y-102162619D02*
X85219048Y-102115000D01*
X86076191Y-102115000D02*
X86219048Y-102162619D01*
X86219048Y-102162619D02*
X86457143Y-102162619D01*
X86457143Y-102162619D02*
X86552381Y-102115000D01*
X86552381Y-102115000D02*
X86600000Y-102067380D01*
X86600000Y-102067380D02*
X86647619Y-101972142D01*
X86647619Y-101972142D02*
X86647619Y-101876904D01*
X86647619Y-101876904D02*
X86600000Y-101781666D01*
X86600000Y-101781666D02*
X86552381Y-101734047D01*
X86552381Y-101734047D02*
X86457143Y-101686428D01*
X86457143Y-101686428D02*
X86266667Y-101638809D01*
X86266667Y-101638809D02*
X86171429Y-101591190D01*
X86171429Y-101591190D02*
X86123810Y-101543571D01*
X86123810Y-101543571D02*
X86076191Y-101448333D01*
X86076191Y-101448333D02*
X86076191Y-101353095D01*
X86076191Y-101353095D02*
X86123810Y-101257857D01*
X86123810Y-101257857D02*
X86171429Y-101210238D01*
X86171429Y-101210238D02*
X86266667Y-101162619D01*
X86266667Y-101162619D02*
X86504762Y-101162619D01*
X86504762Y-101162619D02*
X86647619Y-101210238D01*
X87219048Y-102162619D02*
X87123810Y-102115000D01*
X87123810Y-102115000D02*
X87076191Y-102067380D01*
X87076191Y-102067380D02*
X87028572Y-101972142D01*
X87028572Y-101972142D02*
X87028572Y-101686428D01*
X87028572Y-101686428D02*
X87076191Y-101591190D01*
X87076191Y-101591190D02*
X87123810Y-101543571D01*
X87123810Y-101543571D02*
X87219048Y-101495952D01*
X87219048Y-101495952D02*
X87361905Y-101495952D01*
X87361905Y-101495952D02*
X87457143Y-101543571D01*
X87457143Y-101543571D02*
X87504762Y-101591190D01*
X87504762Y-101591190D02*
X87552381Y-101686428D01*
X87552381Y-101686428D02*
X87552381Y-101972142D01*
X87552381Y-101972142D02*
X87504762Y-102067380D01*
X87504762Y-102067380D02*
X87457143Y-102115000D01*
X87457143Y-102115000D02*
X87361905Y-102162619D01*
X87361905Y-102162619D02*
X87219048Y-102162619D01*
X88409524Y-101495952D02*
X88409524Y-102162619D01*
X87980953Y-101495952D02*
X87980953Y-102019761D01*
X87980953Y-102019761D02*
X88028572Y-102115000D01*
X88028572Y-102115000D02*
X88123810Y-102162619D01*
X88123810Y-102162619D02*
X88266667Y-102162619D01*
X88266667Y-102162619D02*
X88361905Y-102115000D01*
X88361905Y-102115000D02*
X88409524Y-102067380D01*
X88885715Y-101495952D02*
X88885715Y-102162619D01*
X88885715Y-101591190D02*
X88933334Y-101543571D01*
X88933334Y-101543571D02*
X89028572Y-101495952D01*
X89028572Y-101495952D02*
X89171429Y-101495952D01*
X89171429Y-101495952D02*
X89266667Y-101543571D01*
X89266667Y-101543571D02*
X89314286Y-101638809D01*
X89314286Y-101638809D02*
X89314286Y-102162619D01*
X90219048Y-102162619D02*
X90219048Y-101162619D01*
X90219048Y-102115000D02*
X90123810Y-102162619D01*
X90123810Y-102162619D02*
X89933334Y-102162619D01*
X89933334Y-102162619D02*
X89838096Y-102115000D01*
X89838096Y-102115000D02*
X89790477Y-102067380D01*
X89790477Y-102067380D02*
X89742858Y-101972142D01*
X89742858Y-101972142D02*
X89742858Y-101686428D01*
X89742858Y-101686428D02*
X89790477Y-101591190D01*
X89790477Y-101591190D02*
X89838096Y-101543571D01*
X89838096Y-101543571D02*
X89933334Y-101495952D01*
X89933334Y-101495952D02*
X90123810Y-101495952D01*
X90123810Y-101495952D02*
X90219048Y-101543571D01*
X82385714Y-102877857D02*
X82433333Y-102830238D01*
X82433333Y-102830238D02*
X82528571Y-102782619D01*
X82528571Y-102782619D02*
X82766666Y-102782619D01*
X82766666Y-102782619D02*
X82861904Y-102830238D01*
X82861904Y-102830238D02*
X82909523Y-102877857D01*
X82909523Y-102877857D02*
X82957142Y-102973095D01*
X82957142Y-102973095D02*
X82957142Y-103068333D01*
X82957142Y-103068333D02*
X82909523Y-103211190D01*
X82909523Y-103211190D02*
X82338095Y-103782619D01*
X82338095Y-103782619D02*
X82957142Y-103782619D01*
X83576190Y-102782619D02*
X83671428Y-102782619D01*
X83671428Y-102782619D02*
X83766666Y-102830238D01*
X83766666Y-102830238D02*
X83814285Y-102877857D01*
X83814285Y-102877857D02*
X83861904Y-102973095D01*
X83861904Y-102973095D02*
X83909523Y-103163571D01*
X83909523Y-103163571D02*
X83909523Y-103401666D01*
X83909523Y-103401666D02*
X83861904Y-103592142D01*
X83861904Y-103592142D02*
X83814285Y-103687380D01*
X83814285Y-103687380D02*
X83766666Y-103735000D01*
X83766666Y-103735000D02*
X83671428Y-103782619D01*
X83671428Y-103782619D02*
X83576190Y-103782619D01*
X83576190Y-103782619D02*
X83480952Y-103735000D01*
X83480952Y-103735000D02*
X83433333Y-103687380D01*
X83433333Y-103687380D02*
X83385714Y-103592142D01*
X83385714Y-103592142D02*
X83338095Y-103401666D01*
X83338095Y-103401666D02*
X83338095Y-103163571D01*
X83338095Y-103163571D02*
X83385714Y-102973095D01*
X83385714Y-102973095D02*
X83433333Y-102877857D01*
X83433333Y-102877857D02*
X83480952Y-102830238D01*
X83480952Y-102830238D02*
X83576190Y-102782619D01*
X84290476Y-102877857D02*
X84338095Y-102830238D01*
X84338095Y-102830238D02*
X84433333Y-102782619D01*
X84433333Y-102782619D02*
X84671428Y-102782619D01*
X84671428Y-102782619D02*
X84766666Y-102830238D01*
X84766666Y-102830238D02*
X84814285Y-102877857D01*
X84814285Y-102877857D02*
X84861904Y-102973095D01*
X84861904Y-102973095D02*
X84861904Y-103068333D01*
X84861904Y-103068333D02*
X84814285Y-103211190D01*
X84814285Y-103211190D02*
X84242857Y-103782619D01*
X84242857Y-103782619D02*
X84861904Y-103782619D01*
X85195238Y-102782619D02*
X85814285Y-102782619D01*
X85814285Y-102782619D02*
X85480952Y-103163571D01*
X85480952Y-103163571D02*
X85623809Y-103163571D01*
X85623809Y-103163571D02*
X85719047Y-103211190D01*
X85719047Y-103211190D02*
X85766666Y-103258809D01*
X85766666Y-103258809D02*
X85814285Y-103354047D01*
X85814285Y-103354047D02*
X85814285Y-103592142D01*
X85814285Y-103592142D02*
X85766666Y-103687380D01*
X85766666Y-103687380D02*
X85719047Y-103735000D01*
X85719047Y-103735000D02*
X85623809Y-103782619D01*
X85623809Y-103782619D02*
X85338095Y-103782619D01*
X85338095Y-103782619D02*
X85242857Y-103735000D01*
X85242857Y-103735000D02*
X85195238Y-103687380D01*
X80361904Y-105662619D02*
X80361904Y-104662619D01*
X80361904Y-105043571D02*
X80457142Y-104995952D01*
X80457142Y-104995952D02*
X80647618Y-104995952D01*
X80647618Y-104995952D02*
X80742856Y-105043571D01*
X80742856Y-105043571D02*
X80790475Y-105091190D01*
X80790475Y-105091190D02*
X80838094Y-105186428D01*
X80838094Y-105186428D02*
X80838094Y-105472142D01*
X80838094Y-105472142D02*
X80790475Y-105567380D01*
X80790475Y-105567380D02*
X80742856Y-105615000D01*
X80742856Y-105615000D02*
X80647618Y-105662619D01*
X80647618Y-105662619D02*
X80457142Y-105662619D01*
X80457142Y-105662619D02*
X80361904Y-105615000D01*
X81409523Y-105662619D02*
X81314285Y-105615000D01*
X81314285Y-105615000D02*
X81266666Y-105567380D01*
X81266666Y-105567380D02*
X81219047Y-105472142D01*
X81219047Y-105472142D02*
X81219047Y-105186428D01*
X81219047Y-105186428D02*
X81266666Y-105091190D01*
X81266666Y-105091190D02*
X81314285Y-105043571D01*
X81314285Y-105043571D02*
X81409523Y-104995952D01*
X81409523Y-104995952D02*
X81552380Y-104995952D01*
X81552380Y-104995952D02*
X81647618Y-105043571D01*
X81647618Y-105043571D02*
X81695237Y-105091190D01*
X81695237Y-105091190D02*
X81742856Y-105186428D01*
X81742856Y-105186428D02*
X81742856Y-105472142D01*
X81742856Y-105472142D02*
X81695237Y-105567380D01*
X81695237Y-105567380D02*
X81647618Y-105615000D01*
X81647618Y-105615000D02*
X81552380Y-105662619D01*
X81552380Y-105662619D02*
X81409523Y-105662619D01*
X82599999Y-105662619D02*
X82599999Y-105138809D01*
X82599999Y-105138809D02*
X82552380Y-105043571D01*
X82552380Y-105043571D02*
X82457142Y-104995952D01*
X82457142Y-104995952D02*
X82266666Y-104995952D01*
X82266666Y-104995952D02*
X82171428Y-105043571D01*
X82599999Y-105615000D02*
X82504761Y-105662619D01*
X82504761Y-105662619D02*
X82266666Y-105662619D01*
X82266666Y-105662619D02*
X82171428Y-105615000D01*
X82171428Y-105615000D02*
X82123809Y-105519761D01*
X82123809Y-105519761D02*
X82123809Y-105424523D01*
X82123809Y-105424523D02*
X82171428Y-105329285D01*
X82171428Y-105329285D02*
X82266666Y-105281666D01*
X82266666Y-105281666D02*
X82504761Y-105281666D01*
X82504761Y-105281666D02*
X82599999Y-105234047D01*
X83076190Y-105662619D02*
X83076190Y-104995952D01*
X83076190Y-105186428D02*
X83123809Y-105091190D01*
X83123809Y-105091190D02*
X83171428Y-105043571D01*
X83171428Y-105043571D02*
X83266666Y-104995952D01*
X83266666Y-104995952D02*
X83361904Y-104995952D01*
X84123809Y-105662619D02*
X84123809Y-104662619D01*
X84123809Y-105615000D02*
X84028571Y-105662619D01*
X84028571Y-105662619D02*
X83838095Y-105662619D01*
X83838095Y-105662619D02*
X83742857Y-105615000D01*
X83742857Y-105615000D02*
X83695238Y-105567380D01*
X83695238Y-105567380D02*
X83647619Y-105472142D01*
X83647619Y-105472142D02*
X83647619Y-105186428D01*
X83647619Y-105186428D02*
X83695238Y-105091190D01*
X83695238Y-105091190D02*
X83742857Y-105043571D01*
X83742857Y-105043571D02*
X83838095Y-104995952D01*
X83838095Y-104995952D02*
X84028571Y-104995952D01*
X84028571Y-104995952D02*
X84123809Y-105043571D01*
X85885714Y-105662619D02*
X85314286Y-105662619D01*
X85600000Y-105662619D02*
X85600000Y-104662619D01*
X85600000Y-104662619D02*
X85504762Y-104805476D01*
X85504762Y-104805476D02*
X85409524Y-104900714D01*
X85409524Y-104900714D02*
X85314286Y-104948333D01*
X87028571Y-104615000D02*
X86171429Y-105900714D01*
X87314286Y-104757857D02*
X87361905Y-104710238D01*
X87361905Y-104710238D02*
X87457143Y-104662619D01*
X87457143Y-104662619D02*
X87695238Y-104662619D01*
X87695238Y-104662619D02*
X87790476Y-104710238D01*
X87790476Y-104710238D02*
X87838095Y-104757857D01*
X87838095Y-104757857D02*
X87885714Y-104853095D01*
X87885714Y-104853095D02*
X87885714Y-104948333D01*
X87885714Y-104948333D02*
X87838095Y-105091190D01*
X87838095Y-105091190D02*
X87266667Y-105662619D01*
X87266667Y-105662619D02*
X87885714Y-105662619D01*
X84636666Y-134142619D02*
X84636666Y-134856904D01*
X84636666Y-134856904D02*
X84589047Y-134999761D01*
X84589047Y-134999761D02*
X84493809Y-135095000D01*
X84493809Y-135095000D02*
X84350952Y-135142619D01*
X84350952Y-135142619D02*
X84255714Y-135142619D01*
X85017619Y-134142619D02*
X85684285Y-134142619D01*
X85684285Y-134142619D02*
X85255714Y-135142619D01*
X74636666Y-134142619D02*
X74636666Y-134856904D01*
X74636666Y-134856904D02*
X74589047Y-134999761D01*
X74589047Y-134999761D02*
X74493809Y-135095000D01*
X74493809Y-135095000D02*
X74350952Y-135142619D01*
X74350952Y-135142619D02*
X74255714Y-135142619D01*
X75541428Y-134142619D02*
X75350952Y-134142619D01*
X75350952Y-134142619D02*
X75255714Y-134190238D01*
X75255714Y-134190238D02*
X75208095Y-134237857D01*
X75208095Y-134237857D02*
X75112857Y-134380714D01*
X75112857Y-134380714D02*
X75065238Y-134571190D01*
X75065238Y-134571190D02*
X75065238Y-134952142D01*
X75065238Y-134952142D02*
X75112857Y-135047380D01*
X75112857Y-135047380D02*
X75160476Y-135095000D01*
X75160476Y-135095000D02*
X75255714Y-135142619D01*
X75255714Y-135142619D02*
X75446190Y-135142619D01*
X75446190Y-135142619D02*
X75541428Y-135095000D01*
X75541428Y-135095000D02*
X75589047Y-135047380D01*
X75589047Y-135047380D02*
X75636666Y-134952142D01*
X75636666Y-134952142D02*
X75636666Y-134714047D01*
X75636666Y-134714047D02*
X75589047Y-134618809D01*
X75589047Y-134618809D02*
X75541428Y-134571190D01*
X75541428Y-134571190D02*
X75446190Y-134523571D01*
X75446190Y-134523571D02*
X75255714Y-134523571D01*
X75255714Y-134523571D02*
X75160476Y-134571190D01*
X75160476Y-134571190D02*
X75112857Y-134618809D01*
X75112857Y-134618809D02*
X75065238Y-134714047D01*
X74636666Y-119642619D02*
X74636666Y-120356904D01*
X74636666Y-120356904D02*
X74589047Y-120499761D01*
X74589047Y-120499761D02*
X74493809Y-120595000D01*
X74493809Y-120595000D02*
X74350952Y-120642619D01*
X74350952Y-120642619D02*
X74255714Y-120642619D01*
X75636666Y-120642619D02*
X75065238Y-120642619D01*
X75350952Y-120642619D02*
X75350952Y-119642619D01*
X75350952Y-119642619D02*
X75255714Y-119785476D01*
X75255714Y-119785476D02*
X75160476Y-119880714D01*
X75160476Y-119880714D02*
X75065238Y-119928333D01*
X90962619Y-46211904D02*
X90962619Y-45640476D01*
X91962619Y-45926190D02*
X90962619Y-45926190D01*
X90962619Y-45307142D02*
X91772142Y-45307142D01*
X91772142Y-45307142D02*
X91867380Y-45259523D01*
X91867380Y-45259523D02*
X91915000Y-45211904D01*
X91915000Y-45211904D02*
X91962619Y-45116666D01*
X91962619Y-45116666D02*
X91962619Y-44926190D01*
X91962619Y-44926190D02*
X91915000Y-44830952D01*
X91915000Y-44830952D02*
X91867380Y-44783333D01*
X91867380Y-44783333D02*
X91772142Y-44735714D01*
X91772142Y-44735714D02*
X90962619Y-44735714D01*
X91962619Y-44259523D02*
X90962619Y-44259523D01*
X90962619Y-44259523D02*
X91962619Y-43688095D01*
X91962619Y-43688095D02*
X90962619Y-43688095D01*
X91438809Y-43211904D02*
X91438809Y-42878571D01*
X91962619Y-42735714D02*
X91962619Y-43211904D01*
X91962619Y-43211904D02*
X90962619Y-43211904D01*
X90962619Y-43211904D02*
X90962619Y-42735714D01*
X91962619Y-41783333D02*
X91962619Y-42354761D01*
X91962619Y-42069047D02*
X90962619Y-42069047D01*
X90962619Y-42069047D02*
X91105476Y-42164285D01*
X91105476Y-42164285D02*
X91200714Y-42259523D01*
X91200714Y-42259523D02*
X91248333Y-42354761D01*
X87666667Y-130915000D02*
X87809524Y-130962619D01*
X87809524Y-130962619D02*
X88047619Y-130962619D01*
X88047619Y-130962619D02*
X88142857Y-130915000D01*
X88142857Y-130915000D02*
X88190476Y-130867380D01*
X88190476Y-130867380D02*
X88238095Y-130772142D01*
X88238095Y-130772142D02*
X88238095Y-130676904D01*
X88238095Y-130676904D02*
X88190476Y-130581666D01*
X88190476Y-130581666D02*
X88142857Y-130534047D01*
X88142857Y-130534047D02*
X88047619Y-130486428D01*
X88047619Y-130486428D02*
X87857143Y-130438809D01*
X87857143Y-130438809D02*
X87761905Y-130391190D01*
X87761905Y-130391190D02*
X87714286Y-130343571D01*
X87714286Y-130343571D02*
X87666667Y-130248333D01*
X87666667Y-130248333D02*
X87666667Y-130153095D01*
X87666667Y-130153095D02*
X87714286Y-130057857D01*
X87714286Y-130057857D02*
X87761905Y-130010238D01*
X87761905Y-130010238D02*
X87857143Y-129962619D01*
X87857143Y-129962619D02*
X88095238Y-129962619D01*
X88095238Y-129962619D02*
X88238095Y-130010238D01*
X88571429Y-129962619D02*
X88809524Y-130962619D01*
X88809524Y-130962619D02*
X89000000Y-130248333D01*
X89000000Y-130248333D02*
X89190476Y-130962619D01*
X89190476Y-130962619D02*
X89428572Y-129962619D01*
X90333333Y-130962619D02*
X89761905Y-130962619D01*
X90047619Y-130962619D02*
X90047619Y-129962619D01*
X90047619Y-129962619D02*
X89952381Y-130105476D01*
X89952381Y-130105476D02*
X89857143Y-130200714D01*
X89857143Y-130200714D02*
X89761905Y-130248333D01*
X85238095Y-96462619D02*
X85238095Y-95462619D01*
X85238095Y-95938809D02*
X85809523Y-95938809D01*
X85809523Y-96462619D02*
X85809523Y-95462619D01*
X86238095Y-95557857D02*
X86285714Y-95510238D01*
X86285714Y-95510238D02*
X86380952Y-95462619D01*
X86380952Y-95462619D02*
X86619047Y-95462619D01*
X86619047Y-95462619D02*
X86714285Y-95510238D01*
X86714285Y-95510238D02*
X86761904Y-95557857D01*
X86761904Y-95557857D02*
X86809523Y-95653095D01*
X86809523Y-95653095D02*
X86809523Y-95748333D01*
X86809523Y-95748333D02*
X86761904Y-95891190D01*
X86761904Y-95891190D02*
X86190476Y-96462619D01*
X86190476Y-96462619D02*
X86809523Y-96462619D01*
X84933333Y-120562619D02*
X84600000Y-120086428D01*
X84361905Y-120562619D02*
X84361905Y-119562619D01*
X84361905Y-119562619D02*
X84742857Y-119562619D01*
X84742857Y-119562619D02*
X84838095Y-119610238D01*
X84838095Y-119610238D02*
X84885714Y-119657857D01*
X84885714Y-119657857D02*
X84933333Y-119753095D01*
X84933333Y-119753095D02*
X84933333Y-119895952D01*
X84933333Y-119895952D02*
X84885714Y-119991190D01*
X84885714Y-119991190D02*
X84838095Y-120038809D01*
X84838095Y-120038809D02*
X84742857Y-120086428D01*
X84742857Y-120086428D02*
X84361905Y-120086428D01*
X85266667Y-119562619D02*
X85933333Y-119562619D01*
X85933333Y-119562619D02*
X85504762Y-120562619D01*
X83957142Y-118462619D02*
X83623809Y-117986428D01*
X83385714Y-118462619D02*
X83385714Y-117462619D01*
X83385714Y-117462619D02*
X83766666Y-117462619D01*
X83766666Y-117462619D02*
X83861904Y-117510238D01*
X83861904Y-117510238D02*
X83909523Y-117557857D01*
X83909523Y-117557857D02*
X83957142Y-117653095D01*
X83957142Y-117653095D02*
X83957142Y-117795952D01*
X83957142Y-117795952D02*
X83909523Y-117891190D01*
X83909523Y-117891190D02*
X83861904Y-117938809D01*
X83861904Y-117938809D02*
X83766666Y-117986428D01*
X83766666Y-117986428D02*
X83385714Y-117986428D01*
X84909523Y-118462619D02*
X84338095Y-118462619D01*
X84623809Y-118462619D02*
X84623809Y-117462619D01*
X84623809Y-117462619D02*
X84528571Y-117605476D01*
X84528571Y-117605476D02*
X84433333Y-117700714D01*
X84433333Y-117700714D02*
X84338095Y-117748333D01*
X85242857Y-117462619D02*
X85909523Y-117462619D01*
X85909523Y-117462619D02*
X85480952Y-118462619D01*
X91867380Y-66664285D02*
X91915000Y-66711904D01*
X91915000Y-66711904D02*
X91962619Y-66854761D01*
X91962619Y-66854761D02*
X91962619Y-66949999D01*
X91962619Y-66949999D02*
X91915000Y-67092856D01*
X91915000Y-67092856D02*
X91819761Y-67188094D01*
X91819761Y-67188094D02*
X91724523Y-67235713D01*
X91724523Y-67235713D02*
X91534047Y-67283332D01*
X91534047Y-67283332D02*
X91391190Y-67283332D01*
X91391190Y-67283332D02*
X91200714Y-67235713D01*
X91200714Y-67235713D02*
X91105476Y-67188094D01*
X91105476Y-67188094D02*
X91010238Y-67092856D01*
X91010238Y-67092856D02*
X90962619Y-66949999D01*
X90962619Y-66949999D02*
X90962619Y-66854761D01*
X90962619Y-66854761D02*
X91010238Y-66711904D01*
X91010238Y-66711904D02*
X91057857Y-66664285D01*
X91962619Y-66235713D02*
X90962619Y-66235713D01*
X91438809Y-66235713D02*
X91438809Y-65664285D01*
X91962619Y-65664285D02*
X90962619Y-65664285D01*
X90962619Y-64997618D02*
X90962619Y-64807142D01*
X90962619Y-64807142D02*
X91010238Y-64711904D01*
X91010238Y-64711904D02*
X91105476Y-64616666D01*
X91105476Y-64616666D02*
X91295952Y-64569047D01*
X91295952Y-64569047D02*
X91629285Y-64569047D01*
X91629285Y-64569047D02*
X91819761Y-64616666D01*
X91819761Y-64616666D02*
X91915000Y-64711904D01*
X91915000Y-64711904D02*
X91962619Y-64807142D01*
X91962619Y-64807142D02*
X91962619Y-64997618D01*
X91962619Y-64997618D02*
X91915000Y-65092856D01*
X91915000Y-65092856D02*
X91819761Y-65188094D01*
X91819761Y-65188094D02*
X91629285Y-65235713D01*
X91629285Y-65235713D02*
X91295952Y-65235713D01*
X91295952Y-65235713D02*
X91105476Y-65188094D01*
X91105476Y-65188094D02*
X91010238Y-65092856D01*
X91010238Y-65092856D02*
X90962619Y-64997618D01*
X91962619Y-63569047D02*
X91486428Y-63902380D01*
X91962619Y-64140475D02*
X90962619Y-64140475D01*
X90962619Y-64140475D02*
X90962619Y-63759523D01*
X90962619Y-63759523D02*
X91010238Y-63664285D01*
X91010238Y-63664285D02*
X91057857Y-63616666D01*
X91057857Y-63616666D02*
X91153095Y-63569047D01*
X91153095Y-63569047D02*
X91295952Y-63569047D01*
X91295952Y-63569047D02*
X91391190Y-63616666D01*
X91391190Y-63616666D02*
X91438809Y-63664285D01*
X91438809Y-63664285D02*
X91486428Y-63759523D01*
X91486428Y-63759523D02*
X91486428Y-64140475D01*
X91962619Y-63140475D02*
X90962619Y-63140475D01*
X90962619Y-63140475D02*
X90962619Y-62902380D01*
X90962619Y-62902380D02*
X91010238Y-62759523D01*
X91010238Y-62759523D02*
X91105476Y-62664285D01*
X91105476Y-62664285D02*
X91200714Y-62616666D01*
X91200714Y-62616666D02*
X91391190Y-62569047D01*
X91391190Y-62569047D02*
X91534047Y-62569047D01*
X91534047Y-62569047D02*
X91724523Y-62616666D01*
X91724523Y-62616666D02*
X91819761Y-62664285D01*
X91819761Y-62664285D02*
X91915000Y-62759523D01*
X91915000Y-62759523D02*
X91962619Y-62902380D01*
X91962619Y-62902380D02*
X91962619Y-63140475D01*
X91962619Y-61616666D02*
X91962619Y-62188094D01*
X91962619Y-61902380D02*
X90962619Y-61902380D01*
X90962619Y-61902380D02*
X91105476Y-61997618D01*
X91105476Y-61997618D02*
X91200714Y-62092856D01*
X91200714Y-62092856D02*
X91248333Y-62188094D01*
X91962619Y-86428570D02*
X90962619Y-86428570D01*
X91962619Y-85952380D02*
X90962619Y-85952380D01*
X90962619Y-85952380D02*
X91962619Y-85380952D01*
X91962619Y-85380952D02*
X90962619Y-85380952D01*
X90962619Y-85047618D02*
X91962619Y-84714285D01*
X91962619Y-84714285D02*
X90962619Y-84380952D01*
X91962619Y-83523809D02*
X91962619Y-84095237D01*
X91962619Y-83809523D02*
X90962619Y-83809523D01*
X90962619Y-83809523D02*
X91105476Y-83904761D01*
X91105476Y-83904761D02*
X91200714Y-83999999D01*
X91200714Y-83999999D02*
X91248333Y-84095237D01*
D11*
X84500000Y-135580000D02*
X84500000Y-146080000D01*
X87940000Y-132600000D02*
X87940000Y-133400000D01*
X87940000Y-132600000D02*
X88800000Y-132600000D01*
X88500000Y-146080000D02*
X84500000Y-146080000D01*
X88650000Y-135580000D02*
X84500000Y-135580000D01*
X93500000Y-135580000D02*
X89350000Y-135580000D01*
X93500000Y-135580000D02*
X93500000Y-146080000D01*
X93500000Y-146080000D02*
X89500000Y-146080000D01*
X90800000Y-140080000D02*
G75*
G03*
X90800000Y-140080000I-1800000J0D01*
G01*
X74500000Y-135580000D02*
X74500000Y-146080000D01*
X77940000Y-132600000D02*
X77940000Y-133400000D01*
X77940000Y-132600000D02*
X78800000Y-132600000D01*
X78500000Y-146080000D02*
X74500000Y-146080000D01*
X78650000Y-135580000D02*
X74500000Y-135580000D01*
X83500000Y-135580000D02*
X79350000Y-135580000D01*
X83500000Y-135580000D02*
X83500000Y-146080000D01*
X83500000Y-146080000D02*
X79500000Y-146080000D01*
X80800000Y-140080000D02*
G75*
G03*
X80800000Y-140080000I-1800000J0D01*
G01*
X74500000Y-121080000D02*
X74500000Y-131580000D01*
X77940000Y-118100000D02*
X77940000Y-118900000D01*
X77940000Y-118100000D02*
X78800000Y-118100000D01*
X78500000Y-131580000D02*
X74500000Y-131580000D01*
X78650000Y-121080000D02*
X74500000Y-121080000D01*
X83500000Y-121080000D02*
X79350000Y-121080000D01*
X83500000Y-121080000D02*
X83500000Y-131580000D01*
X83500000Y-131580000D02*
X79500000Y-131580000D01*
X80800000Y-125580000D02*
G75*
G03*
X80800000Y-125580000I-1800000J0D01*
G01*
X79030000Y-49120000D02*
X80629000Y-49120000D01*
X79030000Y-49120000D02*
X79030000Y-45255000D01*
X82371000Y-49120000D02*
X83130000Y-49120000D01*
X84871000Y-49120000D02*
X85630000Y-49120000D01*
X87370000Y-49120000D02*
X88970000Y-49120000D01*
X88970000Y-49120000D02*
X88970000Y-45255000D01*
X79030000Y-40745000D02*
X79030000Y-36880000D01*
X88970000Y-40745000D02*
X88970000Y-36880000D01*
X79030000Y-36880000D02*
X88970000Y-36880000D01*
X85250000Y-121750000D02*
X92750000Y-121750000D01*
X85250000Y-129250000D02*
X85250000Y-121750000D01*
X85250000Y-129250000D02*
X92750000Y-129250000D01*
X92750000Y-129250000D02*
X92750000Y-121750000D01*
X88127064Y-120835000D02*
X87672936Y-120835000D01*
X88127064Y-119365000D02*
X87672936Y-119365000D01*
X88127064Y-118735000D02*
X87672936Y-118735000D01*
X88127064Y-117265000D02*
X87672936Y-117265000D01*
X90985000Y-115945000D02*
X77015000Y-115945000D01*
X90985000Y-107055000D02*
X90985000Y-115945000D01*
X87175000Y-111500000D02*
X85905000Y-114675000D01*
X85905000Y-114675000D02*
X82095000Y-114675000D01*
X85905000Y-108325000D02*
X87175000Y-111500000D01*
X82095000Y-114675000D02*
X80825000Y-111500000D01*
X82095000Y-108325000D02*
X85905000Y-108325000D01*
X80825000Y-111500000D02*
X82095000Y-108325000D01*
X77015000Y-115945000D02*
X77015000Y-107055000D01*
X77015000Y-107055000D02*
X90985000Y-107055000D01*
X87702654Y-111500000D02*
G75*
G03*
X87702654Y-111500000I-3702654J0D01*
G01*
X78990000Y-69620000D02*
X80589000Y-69620000D01*
X78990000Y-69620000D02*
X78990000Y-65755000D01*
X82331000Y-69620000D02*
X83090000Y-69620000D01*
X84831000Y-69620000D02*
X85590000Y-69620000D01*
X87330000Y-69620000D02*
X88930000Y-69620000D01*
X88930000Y-69620000D02*
X88930000Y-65755000D01*
X78990000Y-61245000D02*
X78990000Y-57380000D01*
X88930000Y-61245000D02*
X88930000Y-57380000D01*
X78990000Y-57380000D02*
X88930000Y-57380000D01*
X79030000Y-90170000D02*
X80629000Y-90170000D01*
X79030000Y-90170000D02*
X79030000Y-86305000D01*
X82371000Y-90170000D02*
X83130000Y-90170000D01*
X84871000Y-90170000D02*
X85630000Y-90170000D01*
X87370000Y-90170000D02*
X88970000Y-90170000D01*
X88970000Y-90170000D02*
X88970000Y-86305000D01*
X79030000Y-81795000D02*
X79030000Y-77930000D01*
X88970000Y-81795000D02*
X88970000Y-77930000D01*
X79030000Y-77930000D02*
X88970000Y-77930000D01*
%LPC*%
D12*
X89000000Y-133600000D03*
D13*
X89000000Y-145000000D03*
X89000000Y-136700000D03*
D12*
X79000000Y-133600000D03*
D13*
X79000000Y-145000000D03*
X79000000Y-136700000D03*
D12*
X79000000Y-119100000D03*
D13*
X79000000Y-130500000D03*
X79000000Y-122200000D03*
D14*
X79600000Y-43000000D03*
X88400000Y-43000000D03*
D15*
X86500000Y-50000000D03*
X84000000Y-50000000D03*
X81500000Y-50000000D03*
D16*
X86460000Y-125500000D03*
D17*
X86460000Y-128040000D03*
X86460000Y-122960000D03*
X91540000Y-128040000D03*
X91540000Y-122960000D03*
X89000000Y-122800000D03*
X89000000Y-128200000D03*
D18*
X90500000Y-96000000D03*
G36*
G01*
X89500000Y-119650000D02*
X89500000Y-120550000D01*
G75*
G02*
X89250000Y-120800000I-250000J0D01*
G01*
X88550000Y-120800000D01*
G75*
G02*
X88300000Y-120550000I0J250000D01*
G01*
X88300000Y-119650000D01*
G75*
G02*
X88550000Y-119400000I250000J0D01*
G01*
X89250000Y-119400000D01*
G75*
G02*
X89500000Y-119650000I0J-250000D01*
G01*
G37*
G36*
G01*
X87500000Y-119650000D02*
X87500000Y-120550000D01*
G75*
G02*
X87250000Y-120800000I-250000J0D01*
G01*
X86550000Y-120800000D01*
G75*
G02*
X86300000Y-120550000I0J250000D01*
G01*
X86300000Y-119650000D01*
G75*
G02*
X86550000Y-119400000I250000J0D01*
G01*
X87250000Y-119400000D01*
G75*
G02*
X87500000Y-119650000I0J-250000D01*
G01*
G37*
G36*
G01*
X89500000Y-117550000D02*
X89500000Y-118450000D01*
G75*
G02*
X89250000Y-118700000I-250000J0D01*
G01*
X88550000Y-118700000D01*
G75*
G02*
X88300000Y-118450000I0J250000D01*
G01*
X88300000Y-117550000D01*
G75*
G02*
X88550000Y-117300000I250000J0D01*
G01*
X89250000Y-117300000D01*
G75*
G02*
X89500000Y-117550000I0J-250000D01*
G01*
G37*
G36*
G01*
X87500000Y-117550000D02*
X87500000Y-118450000D01*
G75*
G02*
X87250000Y-118700000I-250000J0D01*
G01*
X86550000Y-118700000D01*
G75*
G02*
X86300000Y-118450000I0J250000D01*
G01*
X86300000Y-117550000D01*
G75*
G02*
X86550000Y-117300000I250000J0D01*
G01*
X87250000Y-117300000D01*
G75*
G02*
X87500000Y-117550000I0J-250000D01*
G01*
G37*
D19*
X88700000Y-111500000D03*
X84000000Y-111500000D03*
X79300000Y-111500000D03*
D14*
X79560000Y-63500000D03*
X88360000Y-63500000D03*
D15*
X86460000Y-70500000D03*
X83960000Y-70500000D03*
X81460000Y-70500000D03*
D14*
X79600000Y-84050000D03*
X88400000Y-84050000D03*
D15*
X86500000Y-91050000D03*
X84000000Y-91050000D03*
X81500000Y-91050000D03*
D20*
X92200000Y-49500000D03*
D21*
X92200000Y-52040000D03*
X92200000Y-54580000D03*
X92200000Y-57120000D03*
X92200000Y-59660000D03*
X92200000Y-62200000D03*
D20*
X75750000Y-67800000D03*
D21*
X75750000Y-70340000D03*
X75750000Y-72880000D03*
X75750000Y-75420000D03*
X75750000Y-77960000D03*
X75750000Y-80500000D03*
X75750000Y-83040000D03*
X75750000Y-85580000D03*
M02*
