G04 #@! TF.GenerationSoftware,KiCad,Pcbnew,7.0.5.1-1-g8f565ef7f0-dirty-deb11*
G04 #@! TF.CreationDate,2023-06-10T14:17:36+00:00*
G04 #@! TF.ProjectId,RP2040-VCO,52503230-3430-42d5-9643-4f2e6b696361,rev?*
G04 #@! TF.SameCoordinates,Original*
G04 #@! TF.FileFunction,Copper,L1,Top*
G04 #@! TF.FilePolarity,Positive*
%FSLAX46Y46*%
G04 Gerber Fmt 4.6, Leading zero omitted, Abs format (unit mm)*
G04 Created by KiCad (PCBNEW 7.0.5.1-1-g8f565ef7f0-dirty-deb11) date 2023-06-10 14:17:36*
%MOMM*%
%LPD*%
G01*
G04 APERTURE LIST*
G04 #@! TA.AperFunction,ComponentPad*
%ADD10R,1.930000X1.830000*%
G04 #@! TD*
G04 #@! TA.AperFunction,ComponentPad*
%ADD11C,2.130000*%
G04 #@! TD*
G04 #@! TA.AperFunction,WasherPad*
%ADD12C,4.000000*%
G04 #@! TD*
G04 #@! TA.AperFunction,ComponentPad*
%ADD13C,1.800000*%
G04 #@! TD*
G04 #@! TA.AperFunction,WasherPad*
%ADD14C,1.500000*%
G04 #@! TD*
G04 #@! TA.AperFunction,ComponentPad*
%ADD15C,1.524000*%
G04 #@! TD*
G04 #@! TA.AperFunction,ComponentPad*
%ADD16O,3.200000X5.000000*%
G04 #@! TD*
G04 #@! TA.AperFunction,ComponentPad*
%ADD17R,1.700000X1.700000*%
G04 #@! TD*
G04 #@! TA.AperFunction,ComponentPad*
%ADD18O,1.700000X1.700000*%
G04 #@! TD*
G04 #@! TA.AperFunction,ViaPad*
%ADD19C,0.800000*%
G04 #@! TD*
G04 #@! TA.AperFunction,Conductor*
%ADD20C,0.300000*%
G04 #@! TD*
G04 APERTURE END LIST*
D10*
X89000000Y-133600000D03*
D11*
X89000000Y-145000000D03*
X89000000Y-136700000D03*
D10*
X79000000Y-133600000D03*
D11*
X79000000Y-145000000D03*
X79000000Y-136700000D03*
D10*
X79000000Y-119100000D03*
D11*
X79000000Y-130500000D03*
X79000000Y-122200000D03*
D12*
X79600000Y-43000000D03*
X88400000Y-43000000D03*
D13*
X86500000Y-50000000D03*
X84000000Y-50000000D03*
X81500000Y-50000000D03*
D14*
X86460000Y-125500000D03*
D15*
X86460000Y-128040000D03*
X86460000Y-122960000D03*
X91540000Y-128040000D03*
X91540000Y-122960000D03*
X89000000Y-122800000D03*
X89000000Y-128200000D03*
G04 #@! TA.AperFunction,SMDPad,CuDef*
G36*
G01*
X89500000Y-119650000D02*
X89500000Y-120550000D01*
G75*
G02*
X89250000Y-120800000I-250000J0D01*
G01*
X88550000Y-120800000D01*
G75*
G02*
X88300000Y-120550000I0J250000D01*
G01*
X88300000Y-119650000D01*
G75*
G02*
X88550000Y-119400000I250000J0D01*
G01*
X89250000Y-119400000D01*
G75*
G02*
X89500000Y-119650000I0J-250000D01*
G01*
G37*
G04 #@! TD.AperFunction*
G04 #@! TA.AperFunction,SMDPad,CuDef*
G36*
G01*
X87500000Y-119650000D02*
X87500000Y-120550000D01*
G75*
G02*
X87250000Y-120800000I-250000J0D01*
G01*
X86550000Y-120800000D01*
G75*
G02*
X86300000Y-120550000I0J250000D01*
G01*
X86300000Y-119650000D01*
G75*
G02*
X86550000Y-119400000I250000J0D01*
G01*
X87250000Y-119400000D01*
G75*
G02*
X87500000Y-119650000I0J-250000D01*
G01*
G37*
G04 #@! TD.AperFunction*
G04 #@! TA.AperFunction,SMDPad,CuDef*
G36*
G01*
X89500000Y-117550000D02*
X89500000Y-118450000D01*
G75*
G02*
X89250000Y-118700000I-250000J0D01*
G01*
X88550000Y-118700000D01*
G75*
G02*
X88300000Y-118450000I0J250000D01*
G01*
X88300000Y-117550000D01*
G75*
G02*
X88550000Y-117300000I250000J0D01*
G01*
X89250000Y-117300000D01*
G75*
G02*
X89500000Y-117550000I0J-250000D01*
G01*
G37*
G04 #@! TD.AperFunction*
G04 #@! TA.AperFunction,SMDPad,CuDef*
G36*
G01*
X87500000Y-117550000D02*
X87500000Y-118450000D01*
G75*
G02*
X87250000Y-118700000I-250000J0D01*
G01*
X86550000Y-118700000D01*
G75*
G02*
X86300000Y-118450000I0J250000D01*
G01*
X86300000Y-117550000D01*
G75*
G02*
X86550000Y-117300000I250000J0D01*
G01*
X87250000Y-117300000D01*
G75*
G02*
X87500000Y-117550000I0J-250000D01*
G01*
G37*
G04 #@! TD.AperFunction*
D16*
X88700000Y-111500000D03*
X84000000Y-111500000D03*
X79300000Y-111500000D03*
D12*
X79560000Y-63500000D03*
X88360000Y-63500000D03*
D13*
X86460000Y-70500000D03*
X83960000Y-70500000D03*
X81460000Y-70500000D03*
D12*
X79600000Y-84050000D03*
X88400000Y-84050000D03*
D13*
X86500000Y-91050000D03*
X84000000Y-91050000D03*
X81500000Y-91050000D03*
D17*
X92200000Y-49500000D03*
D18*
X92200000Y-52040000D03*
X92200000Y-54580000D03*
X92200000Y-57120000D03*
X92200000Y-59660000D03*
X92200000Y-62200000D03*
D17*
X75750000Y-67800000D03*
D18*
X75750000Y-70340000D03*
X75750000Y-72880000D03*
X75750000Y-75420000D03*
X75750000Y-77960000D03*
X75750000Y-80500000D03*
X75750000Y-83040000D03*
X75750000Y-85580000D03*
D19*
X82000000Y-66600000D03*
X82000000Y-67500000D03*
X81500000Y-117800000D03*
X92300000Y-112400000D03*
D20*
X86900000Y-120100000D02*
X83800000Y-120100000D01*
X83800000Y-120100000D02*
X81500000Y-117800000D01*
X92300000Y-112600000D02*
X92300000Y-112400000D01*
X86900000Y-118000000D02*
X92300000Y-112600000D01*
X82000000Y-85200000D02*
X82000000Y-74050000D01*
X79000000Y-130500000D02*
X77350480Y-128850480D01*
X77350480Y-128850480D02*
X77350480Y-87949520D01*
X82000000Y-74050000D02*
X75750000Y-67800000D01*
X78800000Y-86500000D02*
X80700000Y-86500000D01*
X77350480Y-87949520D02*
X78800000Y-86500000D01*
X80700000Y-86500000D02*
X82000000Y-85200000D01*
X90967919Y-57120000D02*
X83960000Y-64127919D01*
X92200000Y-57120000D02*
X90967919Y-57120000D01*
X83960000Y-64127919D02*
X83960000Y-70500000D01*
X84000000Y-85100000D02*
X84000000Y-91050000D01*
X93400000Y-53240000D02*
X93400000Y-75700000D01*
X93400000Y-75700000D02*
X87709511Y-81390489D01*
X92200000Y-52040000D02*
X93400000Y-53240000D01*
X87709511Y-81390489D02*
X84000000Y-85100000D01*
X74550489Y-140550489D02*
X74550489Y-74079511D01*
X74550489Y-74079511D02*
X75750000Y-72880000D01*
X79000000Y-145000000D02*
X74550489Y-140550489D01*
X89000000Y-145000000D02*
X87046786Y-143046786D01*
X75900000Y-87126366D02*
X76949511Y-86076855D01*
X87046786Y-143046786D02*
X77753214Y-143046786D01*
X76949511Y-86076855D02*
X76949511Y-71539511D01*
X77753214Y-143046786D02*
X75900000Y-141193572D01*
X75900000Y-141193572D02*
X75900000Y-87126366D01*
X76949511Y-71539511D02*
X75750000Y-70340000D01*
X92200000Y-54580000D02*
X88580000Y-54580000D01*
X88580000Y-54580000D02*
X84000000Y-50000000D01*
X91540000Y-120640000D02*
X88900000Y-118000000D01*
X91540000Y-128040000D02*
X91540000Y-122960000D01*
X91540000Y-122960000D02*
X91540000Y-120640000D01*
X89000000Y-119500000D02*
X89000000Y-122800000D01*
G04 #@! TA.AperFunction,Conductor*
G36*
X93436500Y-37017381D02*
G01*
X93482619Y-37063500D01*
X93499500Y-37126500D01*
X93499500Y-48100205D01*
X93480697Y-48166423D01*
X93429899Y-48212878D01*
X93362268Y-48225703D01*
X93297990Y-48201072D01*
X93295962Y-48199554D01*
X93159093Y-48148505D01*
X93098589Y-48142000D01*
X92454000Y-48142000D01*
X92454000Y-49628000D01*
X92437119Y-49691000D01*
X92391000Y-49737119D01*
X92328000Y-49754000D01*
X90842000Y-49754000D01*
X90842000Y-50398589D01*
X90848505Y-50459093D01*
X90899554Y-50595962D01*
X90987095Y-50712904D01*
X91104037Y-50800445D01*
X91219172Y-50843388D01*
X91269506Y-50877952D01*
X91297681Y-50932122D01*
X91297078Y-50993178D01*
X91267841Y-51046782D01*
X91124278Y-51202731D01*
X91001139Y-51391209D01*
X90910702Y-51597388D01*
X90855437Y-51815627D01*
X90855436Y-51815632D01*
X90836844Y-52040000D01*
X90855436Y-52264368D01*
X90855436Y-52264371D01*
X90855437Y-52264372D01*
X90910702Y-52482611D01*
X91001139Y-52688790D01*
X91124278Y-52877268D01*
X91276762Y-53042908D01*
X91454418Y-53181185D01*
X91454420Y-53181186D01*
X91454424Y-53181189D01*
X91487682Y-53199187D01*
X91535952Y-53245503D01*
X91553711Y-53310000D01*
X91535952Y-53374497D01*
X91487682Y-53420812D01*
X91462794Y-53434281D01*
X91454418Y-53438814D01*
X91276762Y-53577091D01*
X91124276Y-53742734D01*
X91044779Y-53864415D01*
X90999265Y-53906314D01*
X90939296Y-53921500D01*
X88904950Y-53921500D01*
X88856732Y-53911909D01*
X88815855Y-53884595D01*
X86552452Y-51621192D01*
X86519089Y-51561764D01*
X86521554Y-51493656D01*
X86559124Y-51436795D01*
X86620804Y-51407817D01*
X86846951Y-51370080D01*
X87067727Y-51294287D01*
X87273017Y-51183190D01*
X87457220Y-51039818D01*
X87615314Y-50868083D01*
X87742984Y-50672669D01*
X87836749Y-50458907D01*
X87894051Y-50232626D01*
X87913327Y-50000000D01*
X87894051Y-49767374D01*
X87836749Y-49541093D01*
X87742984Y-49327331D01*
X87689848Y-49246000D01*
X90842000Y-49246000D01*
X91946000Y-49246000D01*
X91946000Y-48142000D01*
X91301411Y-48142000D01*
X91240906Y-48148505D01*
X91104037Y-48199554D01*
X90987095Y-48287095D01*
X90899554Y-48404037D01*
X90848505Y-48540906D01*
X90842000Y-48601411D01*
X90842000Y-49246000D01*
X87689848Y-49246000D01*
X87615314Y-49131917D01*
X87457220Y-48960182D01*
X87273017Y-48816810D01*
X87241779Y-48799905D01*
X87067726Y-48705712D01*
X86918275Y-48654405D01*
X86846951Y-48629920D01*
X86616712Y-48591500D01*
X86383288Y-48591500D01*
X86153049Y-48629920D01*
X86153046Y-48629920D01*
X86153046Y-48629921D01*
X85932273Y-48705712D01*
X85726984Y-48816809D01*
X85542779Y-48960182D01*
X85384683Y-49131920D01*
X85355482Y-49176616D01*
X85309969Y-49218514D01*
X85250000Y-49233700D01*
X85190031Y-49218514D01*
X85144518Y-49176616D01*
X85115316Y-49131920D01*
X85115315Y-49131919D01*
X85115314Y-49131917D01*
X84957220Y-48960182D01*
X84773017Y-48816810D01*
X84741779Y-48799905D01*
X84567726Y-48705712D01*
X84418275Y-48654405D01*
X84346951Y-48629920D01*
X84116712Y-48591500D01*
X83883288Y-48591500D01*
X83653049Y-48629920D01*
X83653046Y-48629920D01*
X83653046Y-48629921D01*
X83432273Y-48705712D01*
X83226984Y-48816809D01*
X83042779Y-48960182D01*
X82884685Y-49131918D01*
X82855183Y-49177074D01*
X82809669Y-49218972D01*
X82749699Y-49234157D01*
X82689730Y-49218970D01*
X82670392Y-49201167D01*
X82659202Y-49200007D01*
X81859210Y-49999999D01*
X81859210Y-50000000D01*
X82659203Y-50799991D01*
X82670392Y-50798831D01*
X82689730Y-50781029D01*
X82749699Y-50765842D01*
X82809669Y-50781028D01*
X82855182Y-50822924D01*
X82884686Y-50868083D01*
X83042780Y-51039818D01*
X83226983Y-51183190D01*
X83432273Y-51294287D01*
X83653049Y-51370080D01*
X83883288Y-51408500D01*
X84116709Y-51408500D01*
X84116712Y-51408500D01*
X84346951Y-51370080D01*
X84346953Y-51370079D01*
X84357250Y-51368361D01*
X84357735Y-51371272D01*
X84410262Y-51368555D01*
X84470958Y-51402218D01*
X88053125Y-54984385D01*
X88066642Y-55001256D01*
X88120256Y-55051603D01*
X88123067Y-55054327D01*
X88143667Y-55074927D01*
X88147170Y-55077644D01*
X88156197Y-55085354D01*
X88189867Y-55116972D01*
X88208666Y-55127307D01*
X88225186Y-55138159D01*
X88242132Y-55151304D01*
X88284534Y-55169653D01*
X88295182Y-55174870D01*
X88335659Y-55197122D01*
X88335663Y-55197124D01*
X88356432Y-55202456D01*
X88375134Y-55208859D01*
X88394824Y-55217380D01*
X88440448Y-55224605D01*
X88452067Y-55227011D01*
X88496812Y-55238500D01*
X88518259Y-55238500D01*
X88537967Y-55240050D01*
X88559152Y-55243406D01*
X88605140Y-55239058D01*
X88616996Y-55238500D01*
X90939296Y-55238500D01*
X90999265Y-55253686D01*
X91044777Y-55295583D01*
X91124278Y-55417268D01*
X91276760Y-55582906D01*
X91276762Y-55582908D01*
X91454418Y-55721185D01*
X91454420Y-55721186D01*
X91454424Y-55721189D01*
X91487682Y-55739187D01*
X91535952Y-55785503D01*
X91553711Y-55850000D01*
X91535952Y-55914497D01*
X91487682Y-55960812D01*
X91462794Y-55974281D01*
X91454418Y-55978814D01*
X91276762Y-56117091D01*
X91124278Y-56282731D01*
X91082462Y-56346734D01*
X91044776Y-56404417D01*
X90999264Y-56446314D01*
X90939295Y-56461500D01*
X90926487Y-56461500D01*
X90922079Y-56462056D01*
X90910263Y-56462986D01*
X90864085Y-56464437D01*
X90843492Y-56470420D01*
X90824141Y-56474428D01*
X90802853Y-56477118D01*
X90759893Y-56494126D01*
X90748668Y-56497969D01*
X90704319Y-56510854D01*
X90685857Y-56521772D01*
X90668109Y-56530466D01*
X90648165Y-56538363D01*
X90610792Y-56565516D01*
X90600872Y-56572033D01*
X90561110Y-56595548D01*
X90545942Y-56610716D01*
X90530915Y-56623550D01*
X90513562Y-56636158D01*
X90484110Y-56671758D01*
X90476123Y-56680534D01*
X83555611Y-63601046D01*
X83538742Y-63614562D01*
X83488394Y-63668176D01*
X83485644Y-63671014D01*
X83465070Y-63691589D01*
X83462343Y-63695104D01*
X83454650Y-63704110D01*
X83423027Y-63737787D01*
X83412690Y-63756587D01*
X83401844Y-63773098D01*
X83388695Y-63790050D01*
X83370350Y-63832443D01*
X83365130Y-63843098D01*
X83342876Y-63883579D01*
X83337542Y-63904354D01*
X83331139Y-63923054D01*
X83322620Y-63942739D01*
X83315393Y-63988371D01*
X83312986Y-63999992D01*
X83301500Y-64044730D01*
X83301500Y-64066178D01*
X83299949Y-64085886D01*
X83296594Y-64107071D01*
X83298295Y-64125071D01*
X83300941Y-64153057D01*
X83301500Y-64164915D01*
X83301500Y-69179757D01*
X83283740Y-69244255D01*
X83235468Y-69290571D01*
X83186981Y-69316809D01*
X83002782Y-69460179D01*
X82844685Y-69631918D01*
X82815183Y-69677074D01*
X82769669Y-69718972D01*
X82709699Y-69734157D01*
X82649730Y-69718970D01*
X82630392Y-69701167D01*
X82619202Y-69700007D01*
X81819210Y-70499999D01*
X81819210Y-70500000D01*
X82619203Y-71299991D01*
X82630392Y-71298831D01*
X82649730Y-71281029D01*
X82709699Y-71265842D01*
X82769669Y-71281028D01*
X82815182Y-71322924D01*
X82844686Y-71368083D01*
X83002780Y-71539818D01*
X83186983Y-71683190D01*
X83392273Y-71794287D01*
X83613049Y-71870080D01*
X83843288Y-71908500D01*
X84076709Y-71908500D01*
X84076712Y-71908500D01*
X84306951Y-71870080D01*
X84527727Y-71794287D01*
X84733017Y-71683190D01*
X84917220Y-71539818D01*
X85075314Y-71368083D01*
X85104517Y-71323383D01*
X85150031Y-71281485D01*
X85210000Y-71266299D01*
X85269969Y-71281485D01*
X85315482Y-71323383D01*
X85344686Y-71368083D01*
X85502780Y-71539818D01*
X85686983Y-71683190D01*
X85892273Y-71794287D01*
X86113049Y-71870080D01*
X86343288Y-71908500D01*
X86576709Y-71908500D01*
X86576712Y-71908500D01*
X86806951Y-71870080D01*
X87027727Y-71794287D01*
X87233017Y-71683190D01*
X87417220Y-71539818D01*
X87575314Y-71368083D01*
X87702984Y-71172669D01*
X87796749Y-70958907D01*
X87854051Y-70732626D01*
X87873327Y-70500000D01*
X87854051Y-70267374D01*
X87796749Y-70041093D01*
X87702984Y-69827331D01*
X87575314Y-69631917D01*
X87417220Y-69460182D01*
X87233017Y-69316810D01*
X87201779Y-69299905D01*
X87027726Y-69205712D01*
X86847338Y-69143785D01*
X86806951Y-69129920D01*
X86576712Y-69091500D01*
X86343288Y-69091500D01*
X86113049Y-69129920D01*
X86113046Y-69129920D01*
X86113046Y-69129921D01*
X85892273Y-69205712D01*
X85686984Y-69316809D01*
X85502779Y-69460182D01*
X85344683Y-69631920D01*
X85315482Y-69676616D01*
X85269969Y-69718514D01*
X85210000Y-69733700D01*
X85150031Y-69718514D01*
X85104518Y-69676616D01*
X85075316Y-69631920D01*
X85075315Y-69631919D01*
X85075314Y-69631917D01*
X84917220Y-69460182D01*
X84917219Y-69460181D01*
X84917217Y-69460179D01*
X84733018Y-69316809D01*
X84684532Y-69290571D01*
X84636260Y-69244255D01*
X84618500Y-69179757D01*
X84618500Y-64452869D01*
X84628091Y-64404651D01*
X84655402Y-64363776D01*
X85632738Y-63386439D01*
X85684401Y-63355225D01*
X85744659Y-63351624D01*
X85799677Y-63376464D01*
X85836826Y-63424044D01*
X85847581Y-63483444D01*
X85846540Y-63500000D01*
X85866358Y-63815018D01*
X85925504Y-64125071D01*
X86023044Y-64425266D01*
X86157438Y-64710869D01*
X86326565Y-64977372D01*
X86527766Y-65220582D01*
X86757860Y-65436654D01*
X87013221Y-65622184D01*
X87289821Y-65774247D01*
X87583298Y-65890443D01*
X87743804Y-65931653D01*
X87889024Y-65968940D01*
X88202176Y-66008500D01*
X88202179Y-66008500D01*
X88517821Y-66008500D01*
X88517824Y-66008500D01*
X88830975Y-65968940D01*
X88830974Y-65968940D01*
X89136702Y-65890443D01*
X89430179Y-65774247D01*
X89706779Y-65622184D01*
X89962140Y-65436654D01*
X90192233Y-65220582D01*
X90393432Y-64977375D01*
X90562562Y-64710869D01*
X90696956Y-64425266D01*
X90794495Y-64125072D01*
X90853641Y-63815020D01*
X90873460Y-63500000D01*
X90853641Y-63184980D01*
X90821704Y-63017566D01*
X90827629Y-62949360D01*
X90868345Y-62894320D01*
X90931832Y-62868697D01*
X90999347Y-62880054D01*
X91050956Y-62925040D01*
X91124278Y-63037268D01*
X91276762Y-63202908D01*
X91454421Y-63341187D01*
X91454424Y-63341189D01*
X91652426Y-63448342D01*
X91865365Y-63521444D01*
X92087431Y-63558500D01*
X92312566Y-63558500D01*
X92312569Y-63558500D01*
X92534635Y-63521444D01*
X92574588Y-63507727D01*
X92633666Y-63502217D01*
X92688716Y-63524356D01*
X92727529Y-63569235D01*
X92741500Y-63626901D01*
X92741500Y-75375050D01*
X92731909Y-75423268D01*
X92704595Y-75464145D01*
X87302704Y-80866036D01*
X83595611Y-84573127D01*
X83578742Y-84586643D01*
X83528394Y-84640257D01*
X83525644Y-84643095D01*
X83505070Y-84663670D01*
X83502343Y-84667185D01*
X83494650Y-84676191D01*
X83463027Y-84709868D01*
X83452690Y-84728668D01*
X83441844Y-84745179D01*
X83428695Y-84762131D01*
X83410350Y-84804524D01*
X83405130Y-84815179D01*
X83382876Y-84855660D01*
X83377542Y-84876435D01*
X83371139Y-84895135D01*
X83362620Y-84914820D01*
X83355393Y-84960452D01*
X83352986Y-84972073D01*
X83341500Y-85016811D01*
X83341500Y-85038259D01*
X83339949Y-85057970D01*
X83336594Y-85079152D01*
X83340941Y-85125138D01*
X83341500Y-85136996D01*
X83341500Y-89729757D01*
X83323740Y-89794255D01*
X83275468Y-89840571D01*
X83226981Y-89866809D01*
X83042782Y-90010179D01*
X82884685Y-90181918D01*
X82855183Y-90227074D01*
X82809669Y-90268972D01*
X82749699Y-90284157D01*
X82689730Y-90268970D01*
X82670392Y-90251167D01*
X82659202Y-90250007D01*
X81859210Y-91049999D01*
X81859210Y-91050000D01*
X82659203Y-91849991D01*
X82670392Y-91848831D01*
X82689730Y-91831029D01*
X82749699Y-91815842D01*
X82809669Y-91831028D01*
X82855182Y-91872924D01*
X82884686Y-91918083D01*
X83042780Y-92089818D01*
X83226983Y-92233190D01*
X83432273Y-92344287D01*
X83653049Y-92420080D01*
X83883288Y-92458500D01*
X84116709Y-92458500D01*
X84116712Y-92458500D01*
X84346951Y-92420080D01*
X84567727Y-92344287D01*
X84773017Y-92233190D01*
X84957220Y-92089818D01*
X85115314Y-91918083D01*
X85144517Y-91873383D01*
X85190031Y-91831485D01*
X85250000Y-91816299D01*
X85309969Y-91831485D01*
X85355482Y-91873383D01*
X85384686Y-91918083D01*
X85542780Y-92089818D01*
X85726983Y-92233190D01*
X85932273Y-92344287D01*
X86153049Y-92420080D01*
X86383288Y-92458500D01*
X86616709Y-92458500D01*
X86616712Y-92458500D01*
X86846951Y-92420080D01*
X87067727Y-92344287D01*
X87273017Y-92233190D01*
X87457220Y-92089818D01*
X87615314Y-91918083D01*
X87742984Y-91722669D01*
X87836749Y-91508907D01*
X87894051Y-91282626D01*
X87913327Y-91050000D01*
X87894051Y-90817374D01*
X87836749Y-90591093D01*
X87742984Y-90377331D01*
X87615314Y-90181917D01*
X87457220Y-90010182D01*
X87273017Y-89866810D01*
X87138947Y-89794255D01*
X87067726Y-89755712D01*
X86918275Y-89704405D01*
X86846951Y-89679920D01*
X86616712Y-89641500D01*
X86383288Y-89641500D01*
X86153049Y-89679920D01*
X86153046Y-89679920D01*
X86153046Y-89679921D01*
X85932273Y-89755712D01*
X85726984Y-89866809D01*
X85542779Y-90010182D01*
X85384683Y-90181920D01*
X85355482Y-90226616D01*
X85309969Y-90268514D01*
X85250000Y-90283700D01*
X85190031Y-90268514D01*
X85144518Y-90226616D01*
X85115316Y-90181920D01*
X85115315Y-90181919D01*
X85115314Y-90181917D01*
X84957220Y-90010182D01*
X84957219Y-90010181D01*
X84957217Y-90010179D01*
X84773018Y-89866809D01*
X84724532Y-89840571D01*
X84676260Y-89794255D01*
X84658500Y-89729757D01*
X84658500Y-85424950D01*
X84668091Y-85376732D01*
X84695402Y-85335857D01*
X85699622Y-84331636D01*
X85758338Y-84298450D01*
X85825763Y-84300304D01*
X85882570Y-84336669D01*
X85912482Y-84397123D01*
X85965504Y-84675072D01*
X86063044Y-84975266D01*
X86197438Y-85260869D01*
X86366565Y-85527372D01*
X86567766Y-85770582D01*
X86797860Y-85986654D01*
X87036511Y-86160044D01*
X87053221Y-86172184D01*
X87329821Y-86324247D01*
X87623298Y-86440443D01*
X87783804Y-86481653D01*
X87929024Y-86518940D01*
X88242176Y-86558500D01*
X88242179Y-86558500D01*
X88557821Y-86558500D01*
X88557824Y-86558500D01*
X88870975Y-86518940D01*
X88906978Y-86509696D01*
X89176702Y-86440443D01*
X89470179Y-86324247D01*
X89746779Y-86172184D01*
X90002140Y-85986654D01*
X90232233Y-85770582D01*
X90433432Y-85527375D01*
X90602562Y-85260869D01*
X90736956Y-84975266D01*
X90834495Y-84675072D01*
X90893641Y-84365020D01*
X90913460Y-84050000D01*
X90893641Y-83734980D01*
X90834495Y-83424928D01*
X90736956Y-83124734D01*
X90602562Y-82839131D01*
X90546185Y-82750295D01*
X90433434Y-82572627D01*
X90232233Y-82329417D01*
X90002139Y-82113345D01*
X89746781Y-81927817D01*
X89470178Y-81775752D01*
X89289210Y-81704102D01*
X89176702Y-81659557D01*
X89176699Y-81659556D01*
X89176696Y-81659555D01*
X88870975Y-81581059D01*
X88752563Y-81566100D01*
X88688804Y-81538806D01*
X88649148Y-81481907D01*
X88645609Y-81412643D01*
X88679258Y-81352001D01*
X93284404Y-76746855D01*
X93334564Y-76716117D01*
X93393211Y-76711501D01*
X93447561Y-76734014D01*
X93485767Y-76778747D01*
X93499500Y-76835950D01*
X93499500Y-145873500D01*
X93482619Y-145936500D01*
X93436500Y-145982619D01*
X93373500Y-145999500D01*
X90457939Y-145999500D01*
X90394226Y-145982204D01*
X90348004Y-145935066D01*
X90331963Y-145871026D01*
X90350507Y-145807665D01*
X90406332Y-145716566D01*
X90406331Y-145716566D01*
X90406334Y-145716563D01*
X90501115Y-145487742D01*
X90558934Y-145246911D01*
X90578366Y-145000000D01*
X90558934Y-144753089D01*
X90501115Y-144512258D01*
X90406334Y-144283437D01*
X90276925Y-144072260D01*
X90141004Y-143913117D01*
X90116073Y-143883926D01*
X89927744Y-143723078D01*
X89927742Y-143723076D01*
X89927740Y-143723075D01*
X89716563Y-143593666D01*
X89716561Y-143593665D01*
X89487743Y-143498885D01*
X89246911Y-143441066D01*
X89246910Y-143441065D01*
X89000000Y-143421634D01*
X88999999Y-143421634D01*
X88753088Y-143441066D01*
X88514654Y-143498309D01*
X88451038Y-143497059D01*
X88396145Y-143464885D01*
X87573660Y-142642400D01*
X87560142Y-142625528D01*
X87506528Y-142575181D01*
X87503716Y-142572456D01*
X87483119Y-142551859D01*
X87479614Y-142549140D01*
X87470589Y-142541432D01*
X87436917Y-142509812D01*
X87418124Y-142499480D01*
X87401603Y-142488628D01*
X87384656Y-142475483D01*
X87384654Y-142475482D01*
X87342245Y-142457129D01*
X87331604Y-142451916D01*
X87291123Y-142429662D01*
X87291120Y-142429661D01*
X87270354Y-142424329D01*
X87251650Y-142417925D01*
X87231964Y-142409406D01*
X87186338Y-142402180D01*
X87174714Y-142399773D01*
X87157966Y-142395473D01*
X87129974Y-142388286D01*
X87129973Y-142388286D01*
X87108527Y-142388286D01*
X87088818Y-142386735D01*
X87067634Y-142383380D01*
X87067633Y-142383380D01*
X87047556Y-142385277D01*
X87021645Y-142387727D01*
X87009790Y-142388286D01*
X78078163Y-142388286D01*
X78029945Y-142378695D01*
X77989068Y-142351381D01*
X76595405Y-140957717D01*
X76568091Y-140916840D01*
X76558500Y-140868622D01*
X76558500Y-136700000D01*
X77421634Y-136700000D01*
X77441066Y-136946911D01*
X77498885Y-137187742D01*
X77593666Y-137416563D01*
X77723075Y-137627740D01*
X77723076Y-137627742D01*
X77723078Y-137627744D01*
X77883926Y-137816073D01*
X78072255Y-137976921D01*
X78072260Y-137976925D01*
X78283437Y-138106334D01*
X78512258Y-138201115D01*
X78753089Y-138258934D01*
X79000000Y-138278366D01*
X79246911Y-138258934D01*
X79487742Y-138201115D01*
X79716563Y-138106334D01*
X79927740Y-137976925D01*
X80116073Y-137816073D01*
X80276925Y-137627740D01*
X80406334Y-137416563D01*
X80501115Y-137187742D01*
X80558934Y-136946911D01*
X80578366Y-136700000D01*
X87421634Y-136700000D01*
X87441066Y-136946911D01*
X87498885Y-137187742D01*
X87593666Y-137416563D01*
X87723075Y-137627740D01*
X87723076Y-137627742D01*
X87723078Y-137627744D01*
X87883926Y-137816073D01*
X88072255Y-137976921D01*
X88072260Y-137976925D01*
X88283437Y-138106334D01*
X88512258Y-138201115D01*
X88753089Y-138258934D01*
X89000000Y-138278366D01*
X89246911Y-138258934D01*
X89487742Y-138201115D01*
X89716563Y-138106334D01*
X89927740Y-137976925D01*
X90116073Y-137816073D01*
X90276925Y-137627740D01*
X90406334Y-137416563D01*
X90501115Y-137187742D01*
X90558934Y-136946911D01*
X90578366Y-136700000D01*
X90558934Y-136453089D01*
X90501115Y-136212258D01*
X90406334Y-135983437D01*
X90276925Y-135772260D01*
X90276921Y-135772255D01*
X90116073Y-135583926D01*
X89927744Y-135423078D01*
X89927742Y-135423076D01*
X89927740Y-135423075D01*
X89716563Y-135293666D01*
X89648345Y-135265409D01*
X89594627Y-135223061D01*
X89570951Y-135158886D01*
X89584296Y-135091797D01*
X89630728Y-135041567D01*
X89696563Y-135023000D01*
X90013589Y-135023000D01*
X90074093Y-135016494D01*
X90210962Y-134965445D01*
X90327904Y-134877904D01*
X90415445Y-134760962D01*
X90466494Y-134624093D01*
X90473000Y-134563589D01*
X90473000Y-133854000D01*
X87527000Y-133854000D01*
X87527000Y-134563589D01*
X87533505Y-134624093D01*
X87584554Y-134760962D01*
X87672095Y-134877904D01*
X87789037Y-134965445D01*
X87925906Y-135016494D01*
X87986411Y-135023000D01*
X88303437Y-135023000D01*
X88369272Y-135041567D01*
X88415704Y-135091797D01*
X88429049Y-135158886D01*
X88405373Y-135223061D01*
X88351655Y-135265409D01*
X88283438Y-135293665D01*
X88072255Y-135423078D01*
X87883926Y-135583926D01*
X87723078Y-135772255D01*
X87593665Y-135983438D01*
X87498885Y-136212256D01*
X87498885Y-136212258D01*
X87441066Y-136453089D01*
X87421634Y-136700000D01*
X80578366Y-136700000D01*
X80558934Y-136453089D01*
X80501115Y-136212258D01*
X80406334Y-135983437D01*
X80276925Y-135772260D01*
X80276921Y-135772255D01*
X80116073Y-135583926D01*
X79927744Y-135423078D01*
X79927742Y-135423076D01*
X79927740Y-135423075D01*
X79716563Y-135293666D01*
X79648345Y-135265409D01*
X79594627Y-135223061D01*
X79570951Y-135158886D01*
X79584296Y-135091797D01*
X79630728Y-135041567D01*
X79696563Y-135023000D01*
X80013589Y-135023000D01*
X80074093Y-135016494D01*
X80210962Y-134965445D01*
X80327904Y-134877904D01*
X80415445Y-134760962D01*
X80466494Y-134624093D01*
X80473000Y-134563589D01*
X80473000Y-133854000D01*
X77527000Y-133854000D01*
X77527000Y-134563589D01*
X77533505Y-134624093D01*
X77584554Y-134760962D01*
X77672095Y-134877904D01*
X77789037Y-134965445D01*
X77925906Y-135016494D01*
X77986411Y-135023000D01*
X78303437Y-135023000D01*
X78369272Y-135041567D01*
X78415704Y-135091797D01*
X78429049Y-135158886D01*
X78405373Y-135223061D01*
X78351655Y-135265409D01*
X78283438Y-135293665D01*
X78072255Y-135423078D01*
X77883926Y-135583926D01*
X77723078Y-135772255D01*
X77593665Y-135983438D01*
X77498885Y-136212256D01*
X77498885Y-136212258D01*
X77441066Y-136453089D01*
X77421634Y-136700000D01*
X76558500Y-136700000D01*
X76558500Y-129268508D01*
X76574085Y-129207807D01*
X76616986Y-129162123D01*
X76676589Y-129142757D01*
X76738149Y-129154500D01*
X76786435Y-129194446D01*
X76795996Y-129207605D01*
X76802510Y-129217522D01*
X76805796Y-129223078D01*
X76826029Y-129257290D01*
X76841190Y-129272451D01*
X76854030Y-129287484D01*
X76866637Y-129304835D01*
X76902231Y-129334281D01*
X76911011Y-129342271D01*
X77464885Y-129896145D01*
X77497059Y-129951038D01*
X77498309Y-130014654D01*
X77441066Y-130253088D01*
X77441066Y-130253089D01*
X77421634Y-130500000D01*
X77441066Y-130746911D01*
X77498885Y-130987742D01*
X77593666Y-131216563D01*
X77723075Y-131427740D01*
X77723076Y-131427742D01*
X77723078Y-131427744D01*
X77883926Y-131616073D01*
X78072255Y-131776921D01*
X78072260Y-131776925D01*
X78283437Y-131906334D01*
X78337535Y-131928742D01*
X78351655Y-131934591D01*
X78405373Y-131976939D01*
X78429049Y-132041114D01*
X78415704Y-132108203D01*
X78369272Y-132158433D01*
X78303437Y-132177000D01*
X77986411Y-132177000D01*
X77925906Y-132183505D01*
X77789037Y-132234554D01*
X77672095Y-132322095D01*
X77584554Y-132439037D01*
X77533505Y-132575906D01*
X77527000Y-132636411D01*
X77527000Y-133346000D01*
X80473000Y-133346000D01*
X87527000Y-133346000D01*
X88746000Y-133346000D01*
X88746000Y-132177000D01*
X89254000Y-132177000D01*
X89254000Y-133346000D01*
X90473000Y-133346000D01*
X90473000Y-132636411D01*
X90466494Y-132575906D01*
X90415445Y-132439037D01*
X90327904Y-132322095D01*
X90210962Y-132234554D01*
X90074093Y-132183505D01*
X90013589Y-132177000D01*
X89254000Y-132177000D01*
X88746000Y-132177000D01*
X87986411Y-132177000D01*
X87925906Y-132183505D01*
X87789037Y-132234554D01*
X87672095Y-132322095D01*
X87584554Y-132439037D01*
X87533505Y-132575906D01*
X87527000Y-132636411D01*
X87527000Y-133346000D01*
X80473000Y-133346000D01*
X80473000Y-132636411D01*
X80466494Y-132575906D01*
X80415445Y-132439037D01*
X80327904Y-132322095D01*
X80210962Y-132234554D01*
X80074093Y-132183505D01*
X80013589Y-132177000D01*
X79696563Y-132177000D01*
X79630728Y-132158433D01*
X79584296Y-132108203D01*
X79570951Y-132041114D01*
X79594627Y-131976939D01*
X79648345Y-131934591D01*
X79656219Y-131931328D01*
X79716563Y-131906334D01*
X79927740Y-131776925D01*
X80116073Y-131616073D01*
X80276925Y-131427740D01*
X80406334Y-131216563D01*
X80501115Y-130987742D01*
X80558934Y-130746911D01*
X80578366Y-130500000D01*
X80558934Y-130253089D01*
X80501115Y-130012258D01*
X80406334Y-129783437D01*
X80276925Y-129572260D01*
X80193729Y-129474850D01*
X80116073Y-129383926D01*
X79927744Y-129223078D01*
X79927742Y-129223076D01*
X79927740Y-129223075D01*
X79726596Y-129099814D01*
X85759395Y-129099814D01*
X85822573Y-129144052D01*
X86023975Y-129237968D01*
X86238623Y-129295482D01*
X86460000Y-129314850D01*
X86681376Y-129295482D01*
X86814493Y-129259814D01*
X88299395Y-129259814D01*
X88362573Y-129304052D01*
X88563975Y-129397968D01*
X88778623Y-129455482D01*
X89000000Y-129474850D01*
X89221376Y-129455482D01*
X89436024Y-129397968D01*
X89637427Y-129304052D01*
X89700603Y-129259814D01*
X89700603Y-129259812D01*
X89000001Y-128559210D01*
X89000000Y-128559210D01*
X88299395Y-129259813D01*
X88299395Y-129259814D01*
X86814493Y-129259814D01*
X86896024Y-129237968D01*
X87097427Y-129144052D01*
X87160603Y-129099814D01*
X87160603Y-129099812D01*
X86460001Y-128399210D01*
X86460000Y-128399210D01*
X85759395Y-129099813D01*
X85759395Y-129099814D01*
X79726596Y-129099814D01*
X79716563Y-129093666D01*
X79716561Y-129093665D01*
X79487743Y-128998885D01*
X79246911Y-128941066D01*
X79000000Y-128921634D01*
X78753088Y-128941066D01*
X78514654Y-128998309D01*
X78451038Y-128997059D01*
X78396145Y-128964885D01*
X78045885Y-128614625D01*
X78018571Y-128573748D01*
X78008980Y-128525530D01*
X78008980Y-128039999D01*
X85185149Y-128039999D01*
X85204517Y-128261376D01*
X85262031Y-128476024D01*
X85355947Y-128677426D01*
X85400184Y-128740603D01*
X85400185Y-128740603D01*
X86100789Y-128040001D01*
X86819210Y-128040001D01*
X87519812Y-128740603D01*
X87519814Y-128740603D01*
X87564053Y-128677425D01*
X87578500Y-128646444D01*
X87624994Y-128593426D01*
X87692694Y-128573693D01*
X87760394Y-128593425D01*
X87806890Y-128646443D01*
X87895947Y-128837426D01*
X87940184Y-128900603D01*
X87940185Y-128900603D01*
X88640790Y-128200000D01*
X88640790Y-128199999D01*
X87940185Y-127499394D01*
X87895946Y-127562575D01*
X87881499Y-127593558D01*
X87835004Y-127646575D01*
X87767305Y-127666307D01*
X87699605Y-127646574D01*
X87653110Y-127593557D01*
X87564051Y-127402571D01*
X87519815Y-127339395D01*
X87519813Y-127339395D01*
X86819210Y-128040000D01*
X86819210Y-128040001D01*
X86100789Y-128040001D01*
X86100790Y-128040000D01*
X86100790Y-128039999D01*
X85400185Y-127339394D01*
X85355948Y-127402572D01*
X85262031Y-127603975D01*
X85204517Y-127818623D01*
X85185149Y-128039999D01*
X78008980Y-128039999D01*
X78008980Y-125500000D01*
X85196693Y-125500000D01*
X85215885Y-125719375D01*
X85272879Y-125932074D01*
X85365943Y-126131653D01*
X85492253Y-126312041D01*
X85647958Y-126467746D01*
X85647961Y-126467748D01*
X85647962Y-126467749D01*
X85828346Y-126594056D01*
X85947162Y-126649460D01*
X86000180Y-126695954D01*
X86019913Y-126763654D01*
X86000181Y-126831354D01*
X85947164Y-126877849D01*
X85822575Y-126935946D01*
X85759394Y-126980185D01*
X86459999Y-127680790D01*
X86460000Y-127680790D01*
X87000603Y-127140185D01*
X88299394Y-127140185D01*
X88999999Y-127840790D01*
X89000000Y-127840790D01*
X89700603Y-127140185D01*
X89700603Y-127140184D01*
X89637426Y-127095947D01*
X89436024Y-127002031D01*
X89221376Y-126944517D01*
X89000000Y-126925149D01*
X88778623Y-126944517D01*
X88563975Y-127002031D01*
X88362572Y-127095948D01*
X88299394Y-127140185D01*
X87000603Y-127140185D01*
X87160603Y-126980185D01*
X87160603Y-126980184D01*
X87097426Y-126935947D01*
X86972837Y-126877850D01*
X86919819Y-126831354D01*
X86900087Y-126763654D01*
X86919820Y-126695955D01*
X86972837Y-126649460D01*
X87091654Y-126594056D01*
X87272038Y-126467749D01*
X87427749Y-126312038D01*
X87554056Y-126131654D01*
X87647120Y-125932076D01*
X87704115Y-125719371D01*
X87723307Y-125500000D01*
X87704115Y-125280629D01*
X87647120Y-125067924D01*
X87554056Y-124868347D01*
X87427749Y-124687962D01*
X87427748Y-124687961D01*
X87427746Y-124687958D01*
X87272041Y-124532253D01*
X87091654Y-124405944D01*
X86972837Y-124350539D01*
X86919820Y-124304044D01*
X86900087Y-124236344D01*
X86919820Y-124168644D01*
X86972838Y-124122149D01*
X87097425Y-124064053D01*
X87160603Y-124019814D01*
X87160603Y-124019812D01*
X86460001Y-123319210D01*
X86460000Y-123319210D01*
X85759395Y-124019813D01*
X85759395Y-124019814D01*
X85822573Y-124064052D01*
X85947162Y-124122149D01*
X86000179Y-124168644D01*
X86019912Y-124236344D01*
X86000180Y-124304043D01*
X85947162Y-124350539D01*
X85828346Y-124405944D01*
X85647958Y-124532253D01*
X85492253Y-124687958D01*
X85365943Y-124868347D01*
X85272879Y-125067925D01*
X85215885Y-125280624D01*
X85196693Y-125500000D01*
X78008980Y-125500000D01*
X78008980Y-123663136D01*
X78026275Y-123599423D01*
X78073414Y-123553202D01*
X78137454Y-123537160D01*
X78200813Y-123555702D01*
X78283437Y-123606334D01*
X78512258Y-123701115D01*
X78753089Y-123758934D01*
X79000000Y-123778366D01*
X79246911Y-123758934D01*
X79487742Y-123701115D01*
X79716563Y-123606334D01*
X79927740Y-123476925D01*
X80116073Y-123316073D01*
X80276925Y-123127740D01*
X80379716Y-122960000D01*
X85185149Y-122960000D01*
X85204517Y-123181376D01*
X85262031Y-123396024D01*
X85355947Y-123597426D01*
X85400184Y-123660603D01*
X85400185Y-123660603D01*
X86100790Y-122960000D01*
X86100790Y-122959999D01*
X85400185Y-122259394D01*
X85355948Y-122322572D01*
X85262031Y-122523975D01*
X85204517Y-122738623D01*
X85185149Y-122960000D01*
X80379716Y-122960000D01*
X80406334Y-122916563D01*
X80501115Y-122687742D01*
X80558934Y-122446911D01*
X80578366Y-122200000D01*
X80558934Y-121953089D01*
X80546233Y-121900185D01*
X85759394Y-121900185D01*
X86459999Y-122600790D01*
X86460000Y-122600790D01*
X87160603Y-121900185D01*
X87160603Y-121900184D01*
X87097426Y-121855947D01*
X86896024Y-121762031D01*
X86681376Y-121704517D01*
X86460000Y-121685149D01*
X86238623Y-121704517D01*
X86023975Y-121762031D01*
X85822572Y-121855948D01*
X85759394Y-121900185D01*
X80546233Y-121900185D01*
X80501115Y-121712258D01*
X80406334Y-121483437D01*
X80276925Y-121272260D01*
X80276921Y-121272255D01*
X80116073Y-121083926D01*
X79927744Y-120923078D01*
X79927742Y-120923076D01*
X79927740Y-120923075D01*
X79716563Y-120793666D01*
X79648345Y-120765409D01*
X79594627Y-120723061D01*
X79570951Y-120658886D01*
X79584296Y-120591797D01*
X79630728Y-120541567D01*
X79696563Y-120523000D01*
X80013589Y-120523000D01*
X80074093Y-120516494D01*
X80210962Y-120465445D01*
X80327904Y-120377904D01*
X80415445Y-120260962D01*
X80466494Y-120124093D01*
X80473000Y-120063589D01*
X80473000Y-119354000D01*
X78872000Y-119354000D01*
X78809000Y-119337119D01*
X78762881Y-119291000D01*
X78746000Y-119228000D01*
X78746000Y-118846000D01*
X79254000Y-118846000D01*
X80473000Y-118846000D01*
X80473000Y-118308422D01*
X80489881Y-118245422D01*
X80536000Y-118199303D01*
X80599000Y-118182422D01*
X80662000Y-118199303D01*
X80708119Y-118245422D01*
X80760958Y-118336942D01*
X80760960Y-118336944D01*
X80888747Y-118478866D01*
X81043248Y-118591118D01*
X81217712Y-118668794D01*
X81404513Y-118708500D01*
X81425050Y-118708500D01*
X81473268Y-118718091D01*
X81514145Y-118745405D01*
X83273125Y-120504385D01*
X83286642Y-120521256D01*
X83288583Y-120523079D01*
X83288584Y-120523080D01*
X83308271Y-120541567D01*
X83340256Y-120571603D01*
X83343067Y-120574327D01*
X83363667Y-120594927D01*
X83367170Y-120597644D01*
X83376197Y-120605354D01*
X83409867Y-120636972D01*
X83428666Y-120647307D01*
X83445177Y-120658153D01*
X83462132Y-120671304D01*
X83504549Y-120689660D01*
X83515181Y-120694869D01*
X83555663Y-120717124D01*
X83565293Y-120719596D01*
X83576428Y-120722456D01*
X83595134Y-120728859D01*
X83614823Y-120737380D01*
X83660455Y-120744607D01*
X83672072Y-120747013D01*
X83716811Y-120758500D01*
X83716812Y-120758500D01*
X83738258Y-120758500D01*
X83757968Y-120760051D01*
X83779151Y-120763406D01*
X83779151Y-120763405D01*
X83779152Y-120763406D01*
X83825140Y-120759058D01*
X83836996Y-120758500D01*
X85729045Y-120758500D01*
X85780070Y-120769294D01*
X85822353Y-120799826D01*
X85848649Y-120844866D01*
X85857885Y-120872738D01*
X85950970Y-121023652D01*
X85950972Y-121023655D01*
X86076344Y-121149027D01*
X86076346Y-121149028D01*
X86076348Y-121149030D01*
X86227262Y-121242115D01*
X86395574Y-121297887D01*
X86499455Y-121308500D01*
X87300544Y-121308499D01*
X87404426Y-121297887D01*
X87572738Y-121242115D01*
X87723652Y-121149030D01*
X87810906Y-121061775D01*
X87867389Y-121029165D01*
X87932611Y-121029165D01*
X87989093Y-121061775D01*
X88076348Y-121149030D01*
X88227262Y-121242115D01*
X88246240Y-121248403D01*
X88255134Y-121251351D01*
X88300174Y-121277647D01*
X88330706Y-121319930D01*
X88341500Y-121370955D01*
X88341500Y-121644501D01*
X88327263Y-121702681D01*
X88287771Y-121747714D01*
X88180215Y-121823025D01*
X88023025Y-121980215D01*
X87895512Y-122162323D01*
X87895512Y-122162324D01*
X87806890Y-122352375D01*
X87806614Y-122352966D01*
X87760118Y-122405984D01*
X87692418Y-122425716D01*
X87624719Y-122405983D01*
X87578224Y-122352965D01*
X87564052Y-122322572D01*
X87519815Y-122259395D01*
X87519813Y-122259395D01*
X86819210Y-122960000D01*
X86819210Y-122960001D01*
X87519812Y-123660603D01*
X87519814Y-123660603D01*
X87564052Y-123597427D01*
X87652833Y-123407035D01*
X87699328Y-123354018D01*
X87767027Y-123334285D01*
X87834727Y-123354017D01*
X87881222Y-123407034D01*
X87895510Y-123437675D01*
X88023025Y-123619784D01*
X88180215Y-123776974D01*
X88180218Y-123776976D01*
X88180219Y-123776977D01*
X88182203Y-123778366D01*
X88362321Y-123904487D01*
X88362322Y-123904487D01*
X88362323Y-123904488D01*
X88563804Y-123998440D01*
X88714739Y-124038883D01*
X88778532Y-124055977D01*
X88778533Y-124055977D01*
X88778537Y-124055978D01*
X89000000Y-124075353D01*
X89221463Y-124055978D01*
X89436196Y-123998440D01*
X89637677Y-123904488D01*
X89819781Y-123776977D01*
X89976977Y-123619781D01*
X90104488Y-123437677D01*
X90118501Y-123407625D01*
X90164994Y-123354610D01*
X90232694Y-123334876D01*
X90300394Y-123354608D01*
X90346889Y-123407625D01*
X90414773Y-123553202D01*
X90435512Y-123597677D01*
X90563025Y-123779784D01*
X90720215Y-123936974D01*
X90827771Y-124012286D01*
X90867263Y-124057319D01*
X90881500Y-124115499D01*
X90881500Y-126884501D01*
X90867263Y-126942681D01*
X90827771Y-126987714D01*
X90720215Y-127063025D01*
X90563025Y-127220215D01*
X90435512Y-127402323D01*
X90435396Y-127402572D01*
X90360786Y-127562575D01*
X90346614Y-127592966D01*
X90300118Y-127645984D01*
X90232418Y-127665716D01*
X90164719Y-127645983D01*
X90118224Y-127592965D01*
X90104052Y-127562572D01*
X90059815Y-127499395D01*
X90059813Y-127499395D01*
X89359210Y-128200000D01*
X89359210Y-128200001D01*
X90059812Y-128900603D01*
X90059814Y-128900603D01*
X90104052Y-128837427D01*
X90192833Y-128647035D01*
X90239328Y-128594018D01*
X90307027Y-128574285D01*
X90374727Y-128594017D01*
X90421222Y-128647034D01*
X90435510Y-128677675D01*
X90563025Y-128859784D01*
X90720215Y-129016974D01*
X90902321Y-129144487D01*
X90902322Y-129144487D01*
X90902323Y-129144488D01*
X91103804Y-129238440D01*
X91230734Y-129272451D01*
X91318532Y-129295977D01*
X91318533Y-129295977D01*
X91318537Y-129295978D01*
X91540000Y-129315353D01*
X91761463Y-129295978D01*
X91976196Y-129238440D01*
X92177677Y-129144488D01*
X92359781Y-129016977D01*
X92516977Y-128859781D01*
X92644488Y-128677677D01*
X92738440Y-128476196D01*
X92795978Y-128261463D01*
X92815353Y-128040000D01*
X92795978Y-127818537D01*
X92738440Y-127603804D01*
X92644488Y-127402324D01*
X92516977Y-127220219D01*
X92516976Y-127220218D01*
X92516974Y-127220215D01*
X92359784Y-127063025D01*
X92252229Y-126987714D01*
X92212737Y-126942681D01*
X92198500Y-126884501D01*
X92198500Y-124115499D01*
X92212737Y-124057319D01*
X92252229Y-124012286D01*
X92272003Y-123998440D01*
X92359781Y-123936977D01*
X92516977Y-123779781D01*
X92644488Y-123597677D01*
X92738440Y-123396196D01*
X92795978Y-123181463D01*
X92815353Y-122960000D01*
X92795978Y-122738537D01*
X92738440Y-122523804D01*
X92644488Y-122322324D01*
X92516977Y-122140219D01*
X92516976Y-122140218D01*
X92516974Y-122140215D01*
X92359784Y-121983025D01*
X92252229Y-121907714D01*
X92212737Y-121862681D01*
X92198500Y-121804501D01*
X92198500Y-120726614D01*
X92200872Y-120705125D01*
X92200788Y-120702465D01*
X92200789Y-120702463D01*
X92198562Y-120631612D01*
X92198500Y-120627654D01*
X92198500Y-120598575D01*
X92198500Y-120598568D01*
X92197943Y-120594162D01*
X92197012Y-120582335D01*
X92195562Y-120536169D01*
X92189578Y-120515574D01*
X92185570Y-120496217D01*
X92182882Y-120474936D01*
X92165874Y-120431978D01*
X92162030Y-120420751D01*
X92149145Y-120376400D01*
X92138224Y-120357935D01*
X92129531Y-120340189D01*
X92121635Y-120320244D01*
X92094473Y-120282860D01*
X92087964Y-120272950D01*
X92064453Y-120233193D01*
X92049287Y-120218027D01*
X92036447Y-120202994D01*
X92023840Y-120185642D01*
X91988246Y-120156196D01*
X91979467Y-120148207D01*
X90045404Y-118214144D01*
X90018090Y-118173267D01*
X90008499Y-118125049D01*
X90008499Y-117499460D01*
X90008499Y-117499456D01*
X89997887Y-117395574D01*
X89942115Y-117227262D01*
X89849030Y-117076348D01*
X89849028Y-117076346D01*
X89849027Y-117076344D01*
X89723655Y-116950972D01*
X89723652Y-116950970D01*
X89572738Y-116857885D01*
X89404426Y-116802113D01*
X89327713Y-116794275D01*
X89262730Y-116768048D01*
X89221808Y-116711160D01*
X89217607Y-116641209D01*
X89251423Y-116579835D01*
X92530723Y-113300534D01*
X92559718Y-113278887D01*
X92570512Y-113274909D01*
X92570188Y-113274181D01*
X92582286Y-113268794D01*
X92582288Y-113268794D01*
X92756752Y-113191118D01*
X92911253Y-113078866D01*
X93039040Y-112936944D01*
X93134527Y-112771556D01*
X93193542Y-112589928D01*
X93213504Y-112400000D01*
X93193542Y-112210072D01*
X93134527Y-112028444D01*
X93134527Y-112028443D01*
X93039041Y-111863057D01*
X92911252Y-111721133D01*
X92756753Y-111608883D01*
X92756752Y-111608882D01*
X92582288Y-111531206D01*
X92395487Y-111491500D01*
X92204513Y-111491500D01*
X92079978Y-111517970D01*
X92017711Y-111531206D01*
X91843246Y-111608883D01*
X91688747Y-111721133D01*
X91560958Y-111863057D01*
X91465472Y-112028443D01*
X91406458Y-112210070D01*
X91386496Y-112400000D01*
X91397546Y-112505143D01*
X91391009Y-112560372D01*
X91361331Y-112607407D01*
X90964224Y-113004514D01*
X90909123Y-113036747D01*
X90845297Y-113037836D01*
X90789127Y-113007504D01*
X90755033Y-112953536D01*
X90751764Y-112889786D01*
X90793742Y-112687778D01*
X90808500Y-112472029D01*
X90808500Y-110527971D01*
X90793742Y-110312222D01*
X90735055Y-110029804D01*
X90668791Y-109843355D01*
X90638457Y-109758002D01*
X90505755Y-109501900D01*
X90339408Y-109266241D01*
X90142523Y-109055429D01*
X89918777Y-108873397D01*
X89673047Y-108723965D01*
X89672314Y-108723519D01*
X89407744Y-108608600D01*
X89407743Y-108608599D01*
X89129983Y-108530775D01*
X88844229Y-108491500D01*
X88844225Y-108491500D01*
X88555775Y-108491500D01*
X88555771Y-108491500D01*
X88270016Y-108530775D01*
X87992255Y-108608600D01*
X87727687Y-108723518D01*
X87481222Y-108873397D01*
X87257476Y-109055429D01*
X87060591Y-109266241D01*
X86894244Y-109501900D01*
X86761542Y-109758002D01*
X86664945Y-110029802D01*
X86606257Y-110312226D01*
X86591500Y-110527968D01*
X86591500Y-112472032D01*
X86606257Y-112687773D01*
X86664945Y-112970197D01*
X86761542Y-113241997D01*
X86894244Y-113498099D01*
X87060591Y-113733758D01*
X87257476Y-113944570D01*
X87481222Y-114126602D01*
X87481226Y-114126604D01*
X87481228Y-114126606D01*
X87727686Y-114276481D01*
X87992256Y-114391400D01*
X88270011Y-114469223D01*
X88270013Y-114469223D01*
X88270016Y-114469224D01*
X88555771Y-114508500D01*
X88555775Y-114508500D01*
X88844225Y-114508500D01*
X88844229Y-114508500D01*
X89001902Y-114486828D01*
X89129989Y-114469223D01*
X89180023Y-114455203D01*
X89245517Y-114454532D01*
X89302501Y-114486828D01*
X89335574Y-114543365D01*
X89335798Y-114608865D01*
X89303112Y-114665626D01*
X87214143Y-116754595D01*
X87173266Y-116781909D01*
X87125048Y-116791500D01*
X86499459Y-116791500D01*
X86395573Y-116802113D01*
X86227262Y-116857885D01*
X86076344Y-116950972D01*
X85950972Y-117076344D01*
X85899829Y-117159259D01*
X85857885Y-117227262D01*
X85846024Y-117263057D01*
X85802113Y-117395574D01*
X85791500Y-117499459D01*
X85791500Y-118500540D01*
X85802113Y-118604426D01*
X85857885Y-118772738D01*
X85903074Y-118846000D01*
X85950972Y-118923655D01*
X85988222Y-118960905D01*
X86020834Y-119017389D01*
X86020834Y-119082611D01*
X85988222Y-119139095D01*
X85950972Y-119176344D01*
X85857884Y-119327264D01*
X85848649Y-119355134D01*
X85822353Y-119400174D01*
X85780070Y-119430706D01*
X85729045Y-119441500D01*
X84124949Y-119441500D01*
X84076731Y-119431909D01*
X84035854Y-119404595D01*
X82442969Y-117811709D01*
X82418338Y-117776858D01*
X82406754Y-117735784D01*
X82393542Y-117610071D01*
X82334526Y-117428442D01*
X82239041Y-117263057D01*
X82111252Y-117121133D01*
X81956753Y-117008883D01*
X81956752Y-117008882D01*
X81782288Y-116931206D01*
X81595487Y-116891500D01*
X81404513Y-116891500D01*
X81279978Y-116917970D01*
X81217711Y-116931206D01*
X81043246Y-117008883D01*
X80888747Y-117121133D01*
X80760958Y-117263057D01*
X80665472Y-117428443D01*
X80606458Y-117610070D01*
X80586214Y-117802681D01*
X80566050Y-117858938D01*
X80522234Y-117899576D01*
X80464621Y-117915455D01*
X80406172Y-117903002D01*
X80360035Y-117865018D01*
X80327903Y-117822094D01*
X80210962Y-117734554D01*
X80074093Y-117683505D01*
X80013589Y-117677000D01*
X79254000Y-117677000D01*
X79254000Y-118846000D01*
X78746000Y-118846000D01*
X78746000Y-117677000D01*
X78134980Y-117677000D01*
X78071980Y-117660119D01*
X78025861Y-117614000D01*
X78008980Y-117551000D01*
X78008980Y-114306763D01*
X78026221Y-114243143D01*
X78073226Y-114196934D01*
X78137131Y-114180781D01*
X78200447Y-114199106D01*
X78309363Y-114265338D01*
X78327686Y-114276481D01*
X78592256Y-114391400D01*
X78870011Y-114469223D01*
X78870013Y-114469223D01*
X78870016Y-114469224D01*
X79155771Y-114508500D01*
X79155775Y-114508500D01*
X79444225Y-114508500D01*
X79444229Y-114508500D01*
X79729983Y-114469224D01*
X79729984Y-114469223D01*
X79729989Y-114469223D01*
X80007744Y-114391400D01*
X80272314Y-114276481D01*
X80518772Y-114126606D01*
X80742526Y-113944568D01*
X80939409Y-113733758D01*
X81105753Y-113498103D01*
X81143515Y-113425225D01*
X81238457Y-113241997D01*
X81238530Y-113241793D01*
X81335055Y-112970196D01*
X81393742Y-112687778D01*
X81408500Y-112472029D01*
X81408500Y-111754000D01*
X81892000Y-111754000D01*
X81892000Y-112472018D01*
X81906753Y-112687706D01*
X81965427Y-112970062D01*
X82062000Y-113241793D01*
X82194674Y-113497841D01*
X82360979Y-113733442D01*
X82557818Y-113944205D01*
X82781514Y-114126196D01*
X83027914Y-114276034D01*
X83292423Y-114390927D01*
X83570118Y-114468733D01*
X83745998Y-114492907D01*
X83746000Y-114492907D01*
X83746000Y-111754000D01*
X84254000Y-111754000D01*
X84254000Y-114492907D01*
X84254001Y-114492907D01*
X84429881Y-114468733D01*
X84707576Y-114390927D01*
X84972085Y-114276034D01*
X85218485Y-114126196D01*
X85442181Y-113944205D01*
X85639020Y-113733442D01*
X85805325Y-113497841D01*
X85937999Y-113241793D01*
X86034572Y-112970062D01*
X86093246Y-112687706D01*
X86108000Y-112472018D01*
X86108000Y-111754000D01*
X84254000Y-111754000D01*
X83746000Y-111754000D01*
X81892000Y-111754000D01*
X81408500Y-111754000D01*
X81408500Y-111246000D01*
X81892000Y-111246000D01*
X83746000Y-111246000D01*
X84254000Y-111246000D01*
X86108000Y-111246000D01*
X86108000Y-110527982D01*
X86093246Y-110312293D01*
X86034572Y-110029937D01*
X85937999Y-109758206D01*
X85805325Y-109502158D01*
X85639020Y-109266557D01*
X85442181Y-109055794D01*
X85218485Y-108873803D01*
X84972085Y-108723965D01*
X84707576Y-108609072D01*
X84429881Y-108531266D01*
X84254001Y-108507092D01*
X84254000Y-108507093D01*
X84254000Y-111246000D01*
X83746000Y-111246000D01*
X83746000Y-108507093D01*
X83745998Y-108507092D01*
X83570118Y-108531266D01*
X83292423Y-108609072D01*
X83027914Y-108723965D01*
X82781514Y-108873803D01*
X82557818Y-109055794D01*
X82360979Y-109266557D01*
X82194674Y-109502158D01*
X82062000Y-109758206D01*
X81965427Y-110029937D01*
X81906753Y-110312293D01*
X81892000Y-110527982D01*
X81892000Y-111246000D01*
X81408500Y-111246000D01*
X81408500Y-110527971D01*
X81393742Y-110312222D01*
X81335055Y-110029804D01*
X81268791Y-109843355D01*
X81238457Y-109758002D01*
X81105755Y-109501900D01*
X80939408Y-109266241D01*
X80742523Y-109055429D01*
X80518777Y-108873397D01*
X80273047Y-108723965D01*
X80272314Y-108723519D01*
X80007744Y-108608600D01*
X80007743Y-108608599D01*
X79729983Y-108530775D01*
X79444229Y-108491500D01*
X79444225Y-108491500D01*
X79155775Y-108491500D01*
X79155771Y-108491500D01*
X78870016Y-108530775D01*
X78592255Y-108608600D01*
X78327683Y-108723520D01*
X78200447Y-108800894D01*
X78137131Y-108819219D01*
X78073226Y-108803066D01*
X78026221Y-108756857D01*
X78008980Y-108693237D01*
X78008980Y-96067766D01*
X88645787Y-96067766D01*
X88675413Y-96337015D01*
X88675414Y-96337018D01*
X88743928Y-96599088D01*
X88849870Y-96848390D01*
X88990982Y-97079610D01*
X89164255Y-97287820D01*
X89164256Y-97287821D01*
X89164258Y-97287823D01*
X89365993Y-97468578D01*
X89365995Y-97468579D01*
X89365998Y-97468582D01*
X89591910Y-97618044D01*
X89724104Y-97680014D01*
X89837171Y-97733018D01*
X89837173Y-97733018D01*
X89837176Y-97733020D01*
X90096569Y-97811060D01*
X90096572Y-97811060D01*
X90096574Y-97811061D01*
X90364558Y-97850500D01*
X90364561Y-97850500D01*
X90567630Y-97850500D01*
X90567631Y-97850500D01*
X90770156Y-97835677D01*
X91034553Y-97776780D01*
X91287558Y-97680014D01*
X91523777Y-97547441D01*
X91738177Y-97381888D01*
X91926186Y-97186881D01*
X92083799Y-96966579D01*
X92207656Y-96725675D01*
X92295118Y-96469305D01*
X92344319Y-96202933D01*
X92354212Y-95932235D01*
X92324586Y-95662982D01*
X92256072Y-95400912D01*
X92150130Y-95151610D01*
X92009018Y-94920390D01*
X91835745Y-94712180D01*
X91730759Y-94618112D01*
X91634006Y-94531421D01*
X91634003Y-94531419D01*
X91634002Y-94531418D01*
X91408090Y-94381956D01*
X91408086Y-94381954D01*
X91162828Y-94266981D01*
X90903425Y-94188938D01*
X90635442Y-94149500D01*
X90635439Y-94149500D01*
X90432369Y-94149500D01*
X90398614Y-94151970D01*
X90229839Y-94164323D01*
X89965449Y-94223219D01*
X89712441Y-94319985D01*
X89476225Y-94452557D01*
X89261820Y-94618114D01*
X89073815Y-94813117D01*
X88916200Y-95033422D01*
X88792342Y-95274328D01*
X88704882Y-95530693D01*
X88655681Y-95797065D01*
X88645787Y-96067766D01*
X78008980Y-96067766D01*
X78008980Y-92210528D01*
X80698680Y-92210528D01*
X80698681Y-92210529D01*
X80727254Y-92232768D01*
X80932474Y-92343828D01*
X81153169Y-92419592D01*
X81383332Y-92458000D01*
X81616668Y-92458000D01*
X81846830Y-92419592D01*
X82067525Y-92343828D01*
X82272744Y-92232770D01*
X82301317Y-92210529D01*
X82301317Y-92210528D01*
X81500000Y-91409210D01*
X81499999Y-91409210D01*
X80698680Y-92210528D01*
X78008980Y-92210528D01*
X78008980Y-91050000D01*
X80087174Y-91050000D01*
X80106444Y-91282548D01*
X80163723Y-91508739D01*
X80257458Y-91722434D01*
X80340795Y-91849991D01*
X80340796Y-91849991D01*
X81140789Y-91050000D01*
X81140789Y-91049999D01*
X80340796Y-90250006D01*
X80257456Y-90377571D01*
X80163723Y-90591260D01*
X80106444Y-90817451D01*
X80087174Y-91050000D01*
X78008980Y-91050000D01*
X78008980Y-89889470D01*
X80698680Y-89889470D01*
X81499999Y-90690789D01*
X81500000Y-90690789D01*
X82301318Y-89889470D01*
X82301317Y-89889469D01*
X82272745Y-89867230D01*
X82067525Y-89756171D01*
X81846830Y-89680407D01*
X81616668Y-89642000D01*
X81383332Y-89642000D01*
X81153169Y-89680407D01*
X80932474Y-89756171D01*
X80727255Y-89867230D01*
X80698681Y-89889469D01*
X80698680Y-89889470D01*
X78008980Y-89889470D01*
X78008980Y-88274470D01*
X78018571Y-88226252D01*
X78045885Y-88185375D01*
X79035855Y-87195405D01*
X79076732Y-87168091D01*
X79124950Y-87158500D01*
X80613389Y-87158500D01*
X80634874Y-87160871D01*
X80637534Y-87160787D01*
X80637537Y-87160788D01*
X80708369Y-87158561D01*
X80712327Y-87158500D01*
X80741434Y-87158500D01*
X80745825Y-87157945D01*
X80757662Y-87157012D01*
X80803831Y-87155562D01*
X80815412Y-87152197D01*
X80824418Y-87149581D01*
X80843780Y-87145570D01*
X80865064Y-87142882D01*
X80908032Y-87125869D01*
X80919231Y-87122035D01*
X80963600Y-87109145D01*
X80982064Y-87098224D01*
X80999807Y-87089532D01*
X81019756Y-87081635D01*
X81057148Y-87054466D01*
X81067025Y-87047978D01*
X81106807Y-87024453D01*
X81121974Y-87009285D01*
X81137006Y-86996447D01*
X81154354Y-86983843D01*
X81154353Y-86983843D01*
X81154357Y-86983841D01*
X81183812Y-86948233D01*
X81191781Y-86939477D01*
X82404387Y-85726871D01*
X82421251Y-85713362D01*
X82423076Y-85711418D01*
X82423080Y-85711416D01*
X82471606Y-85659739D01*
X82474328Y-85656930D01*
X82494927Y-85636333D01*
X82497648Y-85632823D01*
X82505346Y-85623809D01*
X82536972Y-85590133D01*
X82547303Y-85571339D01*
X82558159Y-85554814D01*
X82571304Y-85537868D01*
X82589652Y-85495465D01*
X82594877Y-85484803D01*
X82617122Y-85444340D01*
X82617124Y-85444337D01*
X82622458Y-85423558D01*
X82628856Y-85404869D01*
X82637380Y-85385176D01*
X82644609Y-85339521D01*
X82647010Y-85327932D01*
X82658500Y-85283188D01*
X82658500Y-85261741D01*
X82660051Y-85242030D01*
X82663406Y-85220848D01*
X82659058Y-85174859D01*
X82658500Y-85163004D01*
X82658500Y-74136614D01*
X82660872Y-74115125D01*
X82660788Y-74112465D01*
X82660789Y-74112463D01*
X82658562Y-74041612D01*
X82658500Y-74037654D01*
X82658500Y-74008575D01*
X82658500Y-74008568D01*
X82657943Y-74004162D01*
X82657012Y-73992335D01*
X82655562Y-73946169D01*
X82649578Y-73925574D01*
X82645570Y-73906217D01*
X82642882Y-73884936D01*
X82625874Y-73841978D01*
X82622030Y-73830751D01*
X82609145Y-73786400D01*
X82598224Y-73767935D01*
X82589531Y-73750189D01*
X82581635Y-73730244D01*
X82554473Y-73692860D01*
X82547964Y-73682950D01*
X82524453Y-73643193D01*
X82509287Y-73628027D01*
X82496447Y-73612994D01*
X82483840Y-73595642D01*
X82448246Y-73566196D01*
X82439467Y-73558207D01*
X80946552Y-72065292D01*
X80913502Y-72007128D01*
X80914885Y-71940244D01*
X80950310Y-71883495D01*
X81009791Y-71852878D01*
X81076561Y-71857025D01*
X81113168Y-71869592D01*
X81343332Y-71908000D01*
X81576668Y-71908000D01*
X81806830Y-71869592D01*
X82027525Y-71793828D01*
X82232744Y-71682770D01*
X82261317Y-71660529D01*
X82261317Y-71660528D01*
X81460000Y-70859210D01*
X80300796Y-69700006D01*
X80217456Y-69827571D01*
X80123723Y-70041260D01*
X80066444Y-70267451D01*
X80047174Y-70500000D01*
X80066444Y-70732548D01*
X80107602Y-70895077D01*
X80106798Y-70959959D01*
X80073814Y-71015837D01*
X80017398Y-71047893D01*
X79952512Y-71047624D01*
X79896363Y-71015103D01*
X78220730Y-69339470D01*
X80658680Y-69339470D01*
X81459999Y-70140789D01*
X81460000Y-70140789D01*
X82261318Y-69339470D01*
X82261317Y-69339469D01*
X82232745Y-69317230D01*
X82027525Y-69206171D01*
X81806830Y-69130407D01*
X81576668Y-69092000D01*
X81343332Y-69092000D01*
X81113169Y-69130407D01*
X80892474Y-69206171D01*
X80687255Y-69317230D01*
X80658681Y-69339469D01*
X80658680Y-69339470D01*
X78220730Y-69339470D01*
X77145405Y-68264145D01*
X77118091Y-68223268D01*
X77108500Y-68175050D01*
X77108500Y-66901362D01*
X77108499Y-66901361D01*
X77101989Y-66840799D01*
X77050889Y-66703796D01*
X77050888Y-66703794D01*
X76963261Y-66586738D01*
X76846205Y-66499111D01*
X76777702Y-66473560D01*
X76709201Y-66448011D01*
X76648638Y-66441500D01*
X74851362Y-66441500D01*
X74790799Y-66448011D01*
X74670530Y-66492869D01*
X74610797Y-66499831D01*
X74554639Y-66478312D01*
X74514852Y-66433215D01*
X74500500Y-66374813D01*
X74500500Y-63499999D01*
X77046539Y-63499999D01*
X77066358Y-63815018D01*
X77125504Y-64125071D01*
X77223044Y-64425266D01*
X77357438Y-64710869D01*
X77526565Y-64977372D01*
X77727766Y-65220582D01*
X77957860Y-65436654D01*
X78213221Y-65622184D01*
X78489821Y-65774247D01*
X78783298Y-65890443D01*
X78943804Y-65931653D01*
X79089024Y-65968940D01*
X79402176Y-66008500D01*
X79402179Y-66008500D01*
X79717821Y-66008500D01*
X79717824Y-66008500D01*
X80030975Y-65968940D01*
X80030974Y-65968940D01*
X80336702Y-65890443D01*
X80630179Y-65774247D01*
X80906779Y-65622184D01*
X81162140Y-65436654D01*
X81392233Y-65220582D01*
X81593432Y-64977375D01*
X81762562Y-64710869D01*
X81896956Y-64425266D01*
X81994495Y-64125072D01*
X82053641Y-63815020D01*
X82073460Y-63500000D01*
X82053641Y-63184980D01*
X81994495Y-62874928D01*
X81896956Y-62574734D01*
X81762562Y-62289131D01*
X81705998Y-62200000D01*
X81593434Y-62022627D01*
X81392233Y-61779417D01*
X81162139Y-61563345D01*
X80906781Y-61377817D01*
X80630178Y-61225752D01*
X80449210Y-61154102D01*
X80336702Y-61109557D01*
X80336699Y-61109556D01*
X80336696Y-61109555D01*
X80030975Y-61031059D01*
X79717824Y-60991500D01*
X79717821Y-60991500D01*
X79402179Y-60991500D01*
X79402176Y-60991500D01*
X79089024Y-61031059D01*
X78783303Y-61109555D01*
X78489821Y-61225752D01*
X78213218Y-61377817D01*
X77957860Y-61563345D01*
X77727766Y-61779417D01*
X77526565Y-62022627D01*
X77357438Y-62289130D01*
X77223044Y-62574733D01*
X77125504Y-62874928D01*
X77066358Y-63184981D01*
X77046539Y-63499999D01*
X74500500Y-63499999D01*
X74500500Y-51160528D01*
X80698680Y-51160528D01*
X80698681Y-51160529D01*
X80727254Y-51182768D01*
X80932474Y-51293828D01*
X81153169Y-51369592D01*
X81383332Y-51408000D01*
X81616668Y-51408000D01*
X81846830Y-51369592D01*
X82067525Y-51293828D01*
X82272744Y-51182770D01*
X82301317Y-51160529D01*
X82301317Y-51160528D01*
X81500000Y-50359210D01*
X81499999Y-50359210D01*
X80698680Y-51160528D01*
X74500500Y-51160528D01*
X74500500Y-49999999D01*
X80087174Y-49999999D01*
X80106444Y-50232548D01*
X80163723Y-50458739D01*
X80257458Y-50672434D01*
X80340795Y-50799991D01*
X80340796Y-50799991D01*
X81140789Y-50000000D01*
X81140789Y-49999999D01*
X80340796Y-49200006D01*
X80257456Y-49327571D01*
X80163723Y-49541260D01*
X80106444Y-49767451D01*
X80087174Y-49999999D01*
X74500500Y-49999999D01*
X74500500Y-48839470D01*
X80698680Y-48839470D01*
X81499999Y-49640789D01*
X81500000Y-49640789D01*
X82301318Y-48839470D01*
X82301317Y-48839469D01*
X82272745Y-48817230D01*
X82067525Y-48706171D01*
X81846830Y-48630407D01*
X81616668Y-48592000D01*
X81383332Y-48592000D01*
X81153169Y-48630407D01*
X80932474Y-48706171D01*
X80727255Y-48817230D01*
X80698681Y-48839469D01*
X80698680Y-48839470D01*
X74500500Y-48839470D01*
X74500500Y-43000000D01*
X77086539Y-43000000D01*
X77106358Y-43315018D01*
X77165504Y-43625071D01*
X77263044Y-43925266D01*
X77397438Y-44210869D01*
X77566565Y-44477372D01*
X77767766Y-44720582D01*
X77997860Y-44936654D01*
X78253221Y-45122184D01*
X78529821Y-45274247D01*
X78823298Y-45390443D01*
X78983804Y-45431653D01*
X79129024Y-45468940D01*
X79442176Y-45508500D01*
X79442179Y-45508500D01*
X79757821Y-45508500D01*
X79757824Y-45508500D01*
X80070975Y-45468940D01*
X80070975Y-45468939D01*
X80376702Y-45390443D01*
X80670179Y-45274247D01*
X80946779Y-45122184D01*
X81202140Y-44936654D01*
X81432233Y-44720582D01*
X81633432Y-44477375D01*
X81802562Y-44210869D01*
X81936956Y-43925266D01*
X82034495Y-43625072D01*
X82093641Y-43315020D01*
X82113460Y-43000000D01*
X85886539Y-43000000D01*
X85906358Y-43315018D01*
X85965504Y-43625071D01*
X86063044Y-43925266D01*
X86197438Y-44210869D01*
X86366565Y-44477372D01*
X86567766Y-44720582D01*
X86797860Y-44936654D01*
X87053221Y-45122184D01*
X87329821Y-45274247D01*
X87623298Y-45390443D01*
X87783804Y-45431653D01*
X87929024Y-45468940D01*
X88242176Y-45508500D01*
X88242179Y-45508500D01*
X88557821Y-45508500D01*
X88557824Y-45508500D01*
X88870975Y-45468940D01*
X88870975Y-45468939D01*
X89176702Y-45390443D01*
X89470179Y-45274247D01*
X89746779Y-45122184D01*
X90002140Y-44936654D01*
X90232233Y-44720582D01*
X90433432Y-44477375D01*
X90602562Y-44210869D01*
X90736956Y-43925266D01*
X90834495Y-43625072D01*
X90893641Y-43315020D01*
X90913460Y-43000000D01*
X90893641Y-42684980D01*
X90834495Y-42374928D01*
X90736956Y-42074734D01*
X90602562Y-41789131D01*
X90546185Y-41700295D01*
X90433434Y-41522627D01*
X90232233Y-41279417D01*
X90002139Y-41063345D01*
X89746781Y-40877817D01*
X89470178Y-40725752D01*
X89289210Y-40654102D01*
X89176702Y-40609557D01*
X89176699Y-40609556D01*
X89176696Y-40609555D01*
X88870975Y-40531059D01*
X88557824Y-40491500D01*
X88557821Y-40491500D01*
X88242179Y-40491500D01*
X88242176Y-40491500D01*
X87929024Y-40531059D01*
X87623303Y-40609555D01*
X87329821Y-40725752D01*
X87053218Y-40877817D01*
X86797860Y-41063345D01*
X86567766Y-41279417D01*
X86366565Y-41522627D01*
X86197438Y-41789130D01*
X86063044Y-42074733D01*
X85965504Y-42374928D01*
X85906358Y-42684981D01*
X85886539Y-43000000D01*
X82113460Y-43000000D01*
X82093641Y-42684980D01*
X82034495Y-42374928D01*
X81936956Y-42074734D01*
X81802562Y-41789131D01*
X81746185Y-41700295D01*
X81633434Y-41522627D01*
X81432233Y-41279417D01*
X81202139Y-41063345D01*
X80946781Y-40877817D01*
X80670178Y-40725752D01*
X80489210Y-40654102D01*
X80376702Y-40609557D01*
X80376699Y-40609556D01*
X80376696Y-40609555D01*
X80070975Y-40531059D01*
X79757824Y-40491500D01*
X79757821Y-40491500D01*
X79442179Y-40491500D01*
X79442176Y-40491500D01*
X79129024Y-40531059D01*
X78823303Y-40609555D01*
X78529821Y-40725752D01*
X78253218Y-40877817D01*
X77997860Y-41063345D01*
X77767766Y-41279417D01*
X77566565Y-41522627D01*
X77397438Y-41789130D01*
X77263044Y-42074733D01*
X77165504Y-42374928D01*
X77106358Y-42684981D01*
X77086539Y-43000000D01*
X74500500Y-43000000D01*
X74500500Y-37126500D01*
X74517381Y-37063500D01*
X74563500Y-37017381D01*
X74626500Y-37000500D01*
X93373500Y-37000500D01*
X93436500Y-37017381D01*
G37*
G04 #@! TD.AperFunction*
M02*
