G04 #@! TF.GenerationSoftware,KiCad,Pcbnew,7.0.1.1-36-gbcf78dbe24-dirty-deb11*
G04 #@! TF.CreationDate,2023-04-07T07:36:38+00:00*
G04 #@! TF.ProjectId,RP2040-VCO,52503230-3430-42d5-9643-4f2e6b696361,rev?*
G04 #@! TF.SameCoordinates,Original*
G04 #@! TF.FileFunction,Copper,L2,Bot*
G04 #@! TF.FilePolarity,Positive*
%FSLAX46Y46*%
G04 Gerber Fmt 4.6, Leading zero omitted, Abs format (unit mm)*
G04 Created by KiCad (PCBNEW 7.0.1.1-36-gbcf78dbe24-dirty-deb11) date 2023-04-07 07:36:38*
%MOMM*%
%LPD*%
G01*
G04 APERTURE LIST*
G04 #@! TA.AperFunction,ComponentPad*
%ADD10O,6.700000X4.200000*%
G04 #@! TD*
G04 #@! TA.AperFunction,ViaPad*
%ADD11C,8.000000*%
G04 #@! TD*
G04 #@! TA.AperFunction,ViaPad*
%ADD12C,8.500000*%
G04 #@! TD*
G04 #@! TA.AperFunction,ViaPad*
%ADD13C,7.800000*%
G04 #@! TD*
G04 APERTURE END LIST*
D10*
X116500000Y-30000000D03*
X126500000Y-152500000D03*
D11*
X116500000Y-140000000D03*
X126500000Y-140000000D03*
D12*
X121500000Y-63000000D03*
D13*
X126500000Y-125500000D03*
D12*
X121500000Y-83500000D03*
X121500000Y-42500000D03*
X121600000Y-111600000D03*
D11*
X116500000Y-125500000D03*
G04 #@! TA.AperFunction,Conductor*
G36*
X131412500Y-27042113D02*
G01*
X131457887Y-27087500D01*
X131474500Y-27149500D01*
X131474500Y-155350500D01*
X131457887Y-155412500D01*
X131412500Y-155457887D01*
X131350500Y-155474500D01*
X111649500Y-155474500D01*
X111587500Y-155457887D01*
X111542113Y-155412500D01*
X111525500Y-155350500D01*
X111525499Y-152750000D01*
X122662027Y-152750000D01*
X122675887Y-152899576D01*
X122744500Y-153212876D01*
X122851094Y-153515367D01*
X122994054Y-153802470D01*
X123171212Y-154069828D01*
X123379883Y-154313390D01*
X123616895Y-154529455D01*
X123878679Y-154714767D01*
X124161232Y-154866495D01*
X124460307Y-154982358D01*
X124771345Y-155060587D01*
X125089636Y-155100000D01*
X126250000Y-155100000D01*
X126250000Y-152750000D01*
X126750000Y-152750000D01*
X126750000Y-155100000D01*
X127830107Y-155100000D01*
X128070115Y-155085196D01*
X128385382Y-155026263D01*
X128691012Y-154929034D01*
X128982384Y-154794982D01*
X129255063Y-154626147D01*
X129504937Y-154425074D01*
X129728205Y-154194821D01*
X129921485Y-153938876D01*
X130081849Y-153661120D01*
X130206861Y-153365765D01*
X130294632Y-153057282D01*
X130342331Y-152750000D01*
X126750000Y-152750000D01*
X126250000Y-152750000D01*
X122662027Y-152750000D01*
X111525499Y-152750000D01*
X111525499Y-152249999D01*
X122657668Y-152249999D01*
X122657669Y-152250000D01*
X126250000Y-152250000D01*
X126250000Y-149900000D01*
X126750000Y-149900000D01*
X126750000Y-152250000D01*
X130337973Y-152250000D01*
X130337973Y-152249999D01*
X130324112Y-152100423D01*
X130255499Y-151787123D01*
X130148905Y-151484632D01*
X130005945Y-151197529D01*
X129828787Y-150930171D01*
X129620116Y-150686609D01*
X129383104Y-150470544D01*
X129121320Y-150285232D01*
X128838767Y-150133504D01*
X128539692Y-150017641D01*
X128228654Y-149939412D01*
X127910364Y-149900000D01*
X126750000Y-149900000D01*
X126250000Y-149900000D01*
X125169893Y-149900000D01*
X124929884Y-149914803D01*
X124614617Y-149973736D01*
X124308987Y-150070965D01*
X124017615Y-150205017D01*
X123744936Y-150373852D01*
X123495062Y-150574925D01*
X123271794Y-150805178D01*
X123078514Y-151061123D01*
X122918150Y-151338879D01*
X122793138Y-151634234D01*
X122705367Y-151942717D01*
X122657668Y-152249999D01*
X111525499Y-152249999D01*
X111525499Y-150994929D01*
X111525500Y-30250000D01*
X112662027Y-30250000D01*
X112675887Y-30399576D01*
X112744500Y-30712876D01*
X112851094Y-31015367D01*
X112994054Y-31302470D01*
X113171212Y-31569828D01*
X113379883Y-31813390D01*
X113616895Y-32029455D01*
X113878679Y-32214767D01*
X114161232Y-32366495D01*
X114460307Y-32482358D01*
X114771345Y-32560587D01*
X115089636Y-32600000D01*
X116250000Y-32600000D01*
X116250000Y-30250000D01*
X116750000Y-30250000D01*
X116750000Y-32600000D01*
X117830107Y-32600000D01*
X118070115Y-32585196D01*
X118385382Y-32526263D01*
X118691012Y-32429034D01*
X118982384Y-32294982D01*
X119255063Y-32126147D01*
X119504937Y-31925074D01*
X119728205Y-31694821D01*
X119921485Y-31438876D01*
X120081849Y-31161120D01*
X120206861Y-30865765D01*
X120294632Y-30557282D01*
X120342331Y-30250000D01*
X116750000Y-30250000D01*
X116250000Y-30250000D01*
X112662027Y-30250000D01*
X111525500Y-30250000D01*
X111525500Y-29749999D01*
X112657668Y-29749999D01*
X112657669Y-29750000D01*
X116250000Y-29750000D01*
X116250000Y-27400000D01*
X116750000Y-27400000D01*
X116750000Y-29750000D01*
X120337973Y-29750000D01*
X120337973Y-29749999D01*
X120324112Y-29600423D01*
X120255499Y-29287123D01*
X120148905Y-28984632D01*
X120005945Y-28697529D01*
X119828787Y-28430171D01*
X119620116Y-28186609D01*
X119383104Y-27970544D01*
X119121320Y-27785232D01*
X118838767Y-27633504D01*
X118539692Y-27517641D01*
X118228654Y-27439412D01*
X117910364Y-27400000D01*
X116750000Y-27400000D01*
X116250000Y-27400000D01*
X115169893Y-27400000D01*
X114929884Y-27414803D01*
X114614617Y-27473736D01*
X114308987Y-27570965D01*
X114017615Y-27705017D01*
X113744936Y-27873852D01*
X113495062Y-28074925D01*
X113271794Y-28305178D01*
X113078514Y-28561123D01*
X112918150Y-28838879D01*
X112793138Y-29134234D01*
X112705367Y-29442717D01*
X112657668Y-29749999D01*
X111525500Y-29749999D01*
X111525500Y-27149500D01*
X111542113Y-27087500D01*
X111587500Y-27042113D01*
X111649500Y-27025500D01*
X131350500Y-27025500D01*
X131412500Y-27042113D01*
G37*
G04 #@! TD.AperFunction*
M02*
