G04 #@! TF.GenerationSoftware,KiCad,Pcbnew,7.0.1.1-36-gbcf78dbe24-dirty-deb11*
G04 #@! TF.CreationDate,2023-04-07T07:36:38+00:00*
G04 #@! TF.ProjectId,RP2040-VCO,52503230-3430-42d5-9643-4f2e6b696361,rev?*
G04 #@! TF.SameCoordinates,Original*
G04 #@! TF.FileFunction,Legend,Top*
G04 #@! TF.FilePolarity,Positive*
%FSLAX46Y46*%
G04 Gerber Fmt 4.6, Leading zero omitted, Abs format (unit mm)*
G04 Created by KiCad (PCBNEW 7.0.1.1-36-gbcf78dbe24-dirty-deb11) date 2023-04-07 07:36:38*
%MOMM*%
%LPD*%
G01*
G04 APERTURE LIST*
%ADD10C,0.120000*%
%ADD11C,0.100000*%
%ADD12O,6.700000X4.200000*%
G04 APERTURE END LIST*
D10*
X115800000Y-147650000D02*
X114800000Y-147250000D01*
X120600000Y-148850000D02*
X120800000Y-149050000D01*
X125400000Y-147850000D02*
X124600000Y-147850000D01*
X128000000Y-147850000D02*
X128400000Y-148650000D01*
X126900000Y-97825000D02*
X125850000Y-99575000D01*
X125100000Y-119600000D02*
X126100000Y-117900000D01*
X118550000Y-72975000D02*
X119050000Y-73725000D01*
X116150000Y-132600000D02*
X117000000Y-132600000D01*
X124250000Y-97775000D02*
X123950000Y-99475000D01*
X118500000Y-132650000D02*
X117750000Y-133950000D01*
X120800000Y-149050000D02*
X120800000Y-148850000D01*
X122200000Y-147650000D02*
X120800000Y-148050000D01*
X116615000Y-117800000D02*
X116315000Y-119500000D01*
X128200000Y-119600000D02*
X128000000Y-119800000D01*
X121625000Y-51650000D02*
X122425000Y-51650000D01*
X123950000Y-99475000D02*
X124950000Y-97775000D01*
X125999999Y-48999999D02*
G75*
G03*
X117000001Y-48999999I-4499999J6572082D01*
G01*
X127600000Y-118700000D02*
X127900000Y-118700000D01*
X114900000Y-133950000D02*
X114900000Y-132250000D01*
X129300000Y-45300000D02*
X128990000Y-45190000D01*
X118725000Y-53350000D02*
X118825000Y-53250000D01*
X120300000Y-72150000D02*
X119400000Y-73750000D01*
X115415000Y-117800000D02*
X116315000Y-117800000D01*
X118150000Y-98325000D02*
X117350000Y-98325000D01*
X126450000Y-132250000D02*
X126450000Y-133950000D01*
X127000000Y-147850000D02*
X126200000Y-149050000D01*
X118000000Y-146850000D02*
X118800000Y-146850000D01*
X117500000Y-132600000D02*
X117000000Y-133250000D01*
X118225000Y-52600000D02*
X118725000Y-53350000D01*
X127600000Y-147850000D02*
X127400000Y-147850000D01*
X119750000Y-97825000D02*
X119750000Y-98325000D01*
X120750000Y-99425000D02*
X120150000Y-99425000D01*
X121250000Y-97675000D02*
X121200000Y-98475000D01*
X123325000Y-52300000D02*
X123425000Y-52200000D01*
X130600000Y-99100000D02*
X128200000Y-99100000D01*
X126800000Y-149050000D02*
X127600000Y-147850000D01*
X116400000Y-149050000D02*
X117000000Y-149050000D01*
X123225000Y-51650000D02*
X122225000Y-53350000D01*
X118450000Y-97725000D02*
X118150000Y-98325000D01*
X115915000Y-119500000D02*
X115415000Y-117800000D01*
X122200000Y-97725000D02*
X122800000Y-97725000D01*
X118950000Y-97725000D02*
X119750000Y-97825000D01*
X119400000Y-147850000D02*
X120200000Y-147850000D01*
X118200000Y-132600000D02*
X118900000Y-132600000D01*
X118950000Y-98525000D02*
X118950000Y-99025000D01*
X128000000Y-147850000D02*
X127400000Y-149050000D01*
X122550000Y-72150000D02*
X122900000Y-72700000D01*
X119775000Y-51650000D02*
X119475000Y-53350000D01*
X121375000Y-53350000D02*
X121625000Y-51650000D01*
X125300000Y-99475000D02*
X125400000Y-99325000D01*
X121200000Y-98475000D02*
X121800000Y-98475000D01*
X125600000Y-97825000D02*
X124800000Y-98725000D01*
X112500000Y-98100000D02*
X114400000Y-98100000D01*
X117750000Y-97725000D02*
X116900000Y-99425000D01*
X122900000Y-72700000D02*
X122250000Y-72850000D01*
X116400000Y-147650000D02*
X116400000Y-149050000D01*
X126600000Y-119600000D02*
X127600000Y-117900000D01*
X117515000Y-117800000D02*
X118215000Y-117800000D01*
X122350000Y-92550000D02*
X122050000Y-94250000D01*
X127200000Y-133950000D02*
X128200000Y-132250000D01*
X125600000Y-97825000D02*
X125700000Y-97925000D01*
X120500000Y-94250000D02*
X121300000Y-92550000D01*
X119300000Y-72100000D02*
X119400000Y-72200000D01*
X113600000Y-45400000D02*
X114040000Y-45240000D01*
X117600000Y-147250000D02*
X117600000Y-149050000D01*
X120600000Y-92550000D02*
X120700000Y-92750000D01*
X127890000Y-36900000D02*
X127540000Y-37220000D01*
X113300000Y-98600000D02*
X114800000Y-98600000D01*
X117000000Y-132600000D02*
X116600000Y-133950000D01*
X117300000Y-133950000D02*
X117400000Y-133850000D01*
X123225000Y-51650000D02*
X124275000Y-51650000D01*
X125400000Y-149050000D02*
X126600000Y-147850000D01*
X122900000Y-73850000D02*
X124000000Y-73250000D01*
X114100000Y-132250000D02*
X114000000Y-132250000D01*
X123200000Y-148050000D02*
X124000000Y-148650000D01*
X125850000Y-99575000D02*
X126100000Y-97825000D01*
X122100000Y-99425000D02*
X122200000Y-97725000D01*
X126200000Y-149050000D02*
X126400000Y-149050000D01*
X120500000Y-94250000D02*
X120400000Y-94250000D01*
D11*
X120015000Y-120000000D02*
X120080545Y-120002139D01*
X120207167Y-120036067D01*
X120320694Y-120101612D01*
X120413388Y-120194306D01*
X120478933Y-120307833D01*
X120512861Y-120434455D01*
X120515000Y-120500000D01*
X120515001Y-130500001D01*
X120512862Y-130565546D01*
X120478933Y-130692168D01*
X120413389Y-130805695D01*
X120320695Y-130898389D01*
X120207168Y-130963933D01*
X120080546Y-130997862D01*
X120015001Y-131000001D01*
X113014999Y-131000001D01*
X112949454Y-130997862D01*
X112822832Y-130963933D01*
X112709305Y-130898389D01*
X112616611Y-130805695D01*
X112551067Y-130692168D01*
X112517138Y-130565546D01*
X112514999Y-130500001D01*
X112514999Y-120499999D01*
X112517138Y-120434454D01*
X112551067Y-120307832D01*
X112616611Y-120194305D01*
X112709305Y-120101611D01*
X112822832Y-120036067D01*
X112949454Y-120002138D01*
X113014999Y-119999999D01*
X120015000Y-120000000D01*
G36*
X120015000Y-120000000D02*
G01*
X120080545Y-120002139D01*
X120207167Y-120036067D01*
X120320694Y-120101612D01*
X120413388Y-120194306D01*
X120478933Y-120307833D01*
X120512861Y-120434455D01*
X120515000Y-120500000D01*
X120515001Y-130500001D01*
X120512862Y-130565546D01*
X120478933Y-130692168D01*
X120413389Y-130805695D01*
X120320695Y-130898389D01*
X120207168Y-130963933D01*
X120080546Y-130997862D01*
X120015001Y-131000001D01*
X113014999Y-131000001D01*
X112949454Y-130997862D01*
X112822832Y-130963933D01*
X112709305Y-130898389D01*
X112616611Y-130805695D01*
X112551067Y-130692168D01*
X112517138Y-130565546D01*
X112514999Y-130500001D01*
X112514999Y-120499999D01*
X112517138Y-120434454D01*
X112551067Y-120307832D01*
X112616611Y-120194305D01*
X112709305Y-120101611D01*
X112822832Y-120036067D01*
X112949454Y-120002138D01*
X113014999Y-119999999D01*
X120015000Y-120000000D01*
G37*
D10*
X126600000Y-147850000D02*
X126400000Y-147850000D01*
X122800000Y-97725000D02*
X122700000Y-99425000D01*
X128100000Y-117900000D02*
X128500000Y-117900000D01*
X120800000Y-149050000D02*
X121000000Y-148850000D01*
X122700000Y-99425000D02*
X122100000Y-99425000D01*
X125750000Y-132250000D02*
X125550000Y-132350000D01*
X117500000Y-132600000D02*
X117600000Y-132750000D01*
X117000000Y-49000000D02*
X116540000Y-49590000D01*
X127930000Y-47640000D02*
X127690000Y-47440000D01*
X119075000Y-51650000D02*
X119175000Y-51750000D01*
X119800000Y-94250000D02*
X120600000Y-92550000D01*
X124950000Y-133950000D02*
X125750000Y-132250000D01*
X128200000Y-98100000D02*
X130200000Y-98100000D01*
X112790000Y-42500000D02*
X113561612Y-42500000D01*
X124800000Y-34700000D02*
X124640000Y-35080000D01*
X113400000Y-40000000D02*
X113860000Y-40140000D01*
X119750000Y-98325000D02*
X118950000Y-98525000D01*
X121050000Y-72200000D02*
X121950000Y-72200000D01*
X129600000Y-40000000D02*
X129140000Y-40140000D01*
X121300000Y-92550000D02*
X121300000Y-94250000D01*
X116400000Y-147650000D02*
X116600000Y-147850000D01*
X114800000Y-147250000D02*
X114800000Y-149050000D01*
X118950000Y-99025000D02*
X119750000Y-99425000D01*
X114800000Y-149050000D02*
X115800000Y-148450000D01*
X116315000Y-119500000D02*
X117315000Y-117800000D01*
X121950000Y-72200000D02*
X121300000Y-73750000D01*
X120600000Y-92550000D02*
X120400000Y-92650000D01*
X124800000Y-98725000D02*
X125300000Y-99475000D01*
X118000000Y-146850000D02*
G75*
G03*
X117600000Y-147250000I0J-400000D01*
G01*
X117000000Y-133250000D02*
X117300000Y-133950000D01*
X119400000Y-149050000D02*
X120200000Y-149050000D01*
X126450000Y-117900000D02*
X126350000Y-119600000D01*
X123200000Y-149050000D02*
X123200000Y-148850000D01*
X122550000Y-72150000D02*
X121700000Y-73800000D01*
X124700000Y-119600000D02*
X125700000Y-117900000D01*
X126450000Y-117900000D02*
X125650000Y-119600000D01*
X124262500Y-52200000D02*
X124787500Y-52200000D01*
X125800000Y-147850000D02*
X125600000Y-147850000D01*
X124687500Y-52300000D02*
X124787500Y-52200000D01*
X119400000Y-147850000D02*
X119400000Y-149050000D01*
X126350000Y-118800000D02*
X126050000Y-118800000D01*
X125750000Y-132250000D02*
X125850000Y-132450000D01*
X117600000Y-149050000D02*
X118800000Y-149050000D01*
X116100000Y-132250000D02*
X115150000Y-133950000D01*
X127500000Y-132250000D02*
X127200000Y-133950000D01*
X124000000Y-148650000D02*
X123200000Y-149050000D01*
X121300000Y-73750000D02*
X121050000Y-72200000D01*
X126100000Y-97825000D02*
X126900000Y-97825000D01*
X120250000Y-97725000D02*
X120850000Y-97725000D01*
X116400000Y-147650000D02*
X116200000Y-147850000D01*
X125650000Y-133950000D02*
X125550000Y-133950000D01*
X116950000Y-98275000D02*
X116300000Y-98425000D01*
X122250000Y-72850000D02*
X122800000Y-73300000D01*
X117550000Y-97725000D02*
X118450000Y-97725000D01*
X120800000Y-147250000D02*
X120800000Y-149050000D01*
X114700000Y-99100000D02*
X112500000Y-99100000D01*
X119075000Y-51650000D02*
X118225000Y-52600000D01*
X119475000Y-53350000D02*
X120475000Y-51650000D01*
X126450000Y-133950000D02*
X127250000Y-132250000D01*
X127700000Y-118300000D02*
X127400000Y-119600000D01*
X119400000Y-148450000D02*
X119600000Y-148450000D01*
X124600000Y-147850000D02*
X124600000Y-149050000D01*
X121800000Y-98475000D02*
X121750000Y-99425000D01*
X126000000Y-49000000D02*
X126450000Y-49610000D01*
X114100000Y-132250000D02*
X114900000Y-133950000D01*
X120800000Y-147250000D02*
X122200000Y-147650000D01*
X125400000Y-117900000D02*
X125100000Y-119600000D01*
X115000000Y-36900000D02*
X115410000Y-37250000D01*
X119300000Y-72100000D02*
X118550000Y-72975000D01*
X121075000Y-51650000D02*
X120075000Y-53350000D01*
X116315000Y-117800000D02*
X115915000Y-119500000D01*
X129444194Y-42500000D02*
X130215806Y-42500000D01*
X120850000Y-97725000D02*
X120750000Y-99425000D01*
X118300000Y-34600000D02*
X118490000Y-35050000D01*
X129200000Y-98600000D02*
X130800000Y-98600000D01*
X120675000Y-51650000D02*
X121375000Y-51650000D01*
X124200000Y-147850000D02*
X123200000Y-148050000D01*
X125650000Y-133950000D02*
X126450000Y-132250000D01*
X125537500Y-51750000D02*
X125637500Y-51650000D01*
X127250000Y-132250000D02*
X127150000Y-132250000D01*
X122900000Y-52200000D02*
X123425000Y-52200000D01*
X116600000Y-97725000D02*
X115750000Y-99375000D01*
X124200000Y-147850000D02*
X124200000Y-148050000D01*
X123300000Y-72150000D02*
X122900000Y-73850000D01*
X121500000Y-34461611D02*
X121500000Y-33500000D01*
X127400000Y-119600000D02*
X128100000Y-119600000D01*
X116300000Y-98425000D02*
X116850000Y-98875000D01*
X121300000Y-94250000D02*
X122100000Y-92550000D01*
X122050000Y-94250000D02*
X123050000Y-92550000D01*
X117915000Y-117800000D02*
X116915000Y-119500000D01*
X120800000Y-72150000D02*
X119900000Y-73750000D01*
X125800000Y-147850000D02*
X125400000Y-149050000D01*
X115000000Y-47800000D02*
X115350000Y-47510000D01*
X124000000Y-73250000D02*
X123300000Y-72150000D01*
X118800000Y-149050000D02*
X118600000Y-148850000D01*
X120150000Y-99425000D02*
X120250000Y-97725000D01*
X115800000Y-148450000D02*
X114800000Y-148050000D01*
X114900000Y-132250000D02*
X114800000Y-132250000D01*
X128200000Y-119600000D02*
X128000000Y-119400000D01*
X118800000Y-149050000D02*
X118600000Y-149250000D01*
X122100000Y-92550000D02*
X122000000Y-92550000D01*
X125000000Y-117900000D02*
X124700000Y-119600000D01*
X119050000Y-73725000D02*
X119150000Y-73625000D01*
X116600000Y-97725000D02*
X116950000Y-98275000D01*
X117600000Y-147850000D02*
X118000000Y-147850000D01*
X127400000Y-149050000D02*
X128400000Y-148650000D01*
X124587500Y-51650000D02*
X125637500Y-51650000D01*
X116600000Y-133950000D02*
X116150000Y-132600000D01*
X127000000Y-147850000D02*
X126800000Y-149050000D01*
X119700000Y-72950000D02*
X120500000Y-72950000D01*
X121800000Y-98475000D02*
X121850000Y-97675000D01*
X124175000Y-51750000D02*
X124275000Y-51650000D01*
X126900000Y-117900000D02*
X126600000Y-119600000D01*
X128100000Y-117900000D02*
G75*
G03*
X127700000Y-118300000I0J-400000D01*
G01*
X114800000Y-148050000D02*
X115800000Y-147650000D01*
X122800000Y-73300000D02*
X122600000Y-73800000D01*
X122425000Y-51650000D02*
X121375000Y-53350000D01*
X124600000Y-149050000D02*
X125400000Y-147850000D01*
X124587500Y-51650000D02*
X123587500Y-53350000D01*
X116850000Y-98875000D02*
X116650000Y-99375000D01*
%LPC*%
D12*
X116500000Y-30000000D03*
X126500000Y-152500000D03*
M02*
