%TF.GenerationSoftware,KiCad,Pcbnew,7.0.5.1-1-g8f565ef7f0-dirty-deb11*%
%TF.CreationDate,Date%
%TF.ProjectId,RP2040-VCO,52503230-3430-42d5-9643-4f2e6b696361,rev?*%
%TF.SameCoordinates,Original*%
%TF.FileFunction,Drillmap*%
%TF.FilePolarity,Positive*%
%FSLAX45Y45*%
G04 Gerber Fmt 4.5, Leading zero omitted, Abs format (unit mm)*
G04 Created by KiCad*
%MOMM*%
%LPD*%
G01*
G04 APERTURE LIST*
%ADD10C,0.050000*%
%ADD11C,0.200000*%
%ADD12C,0.300000*%
%ADD13C,0.570000*%
%ADD14C,0.620000*%
%ADD15C,0.680000*%
G04 APERTURE END LIST*
D10*
X6608500Y-2290000D02*
X6608500Y-15140000D01*
X4608500Y-15140000D02*
X4608500Y-14690000D01*
X4608500Y-2290000D02*
X4608500Y-14690000D01*
X6608500Y-15140000D02*
X4608500Y-15140000D01*
X4608500Y-2290000D02*
X6608500Y-2290000D01*
D11*
D12*
X4958500Y-2440000D02*
X5258500Y-2740000D01*
X5258500Y-2440000D02*
X4958500Y-2740000D01*
D11*
X4983500Y-2740000D02*
X5233500Y-2740000D01*
X5233500Y-2740000D02*
G75*
G03*
X5233500Y-2440000I0J150000D01*
G01*
X5233500Y-2440000D02*
X4983500Y-2440000D01*
X4983500Y-2440000D02*
G75*
G03*
X4983500Y-2740000I0J-150000D01*
G01*
D12*
X5958500Y-14690000D02*
X6258500Y-14990000D01*
X6258500Y-14690000D02*
X5958500Y-14990000D01*
D11*
X5983500Y-14990000D02*
X6233500Y-14990000D01*
X6233500Y-14990000D02*
G75*
G03*
X6233500Y-14690000I0J150000D01*
G01*
X6233500Y-14690000D02*
X5983500Y-14690000D01*
X5983500Y-14690000D02*
G75*
G03*
X5983500Y-14990000I0J-150000D01*
G01*
D13*
X6393500Y-12140000D02*
G75*
G03*
X6393500Y-12140000I-285000J0D01*
G01*
D14*
X5108500Y-11830000D02*
X5108500Y-12450000D01*
X4798500Y-12140000D02*
X5418500Y-12140000D01*
X5108500Y-13280000D02*
X5108500Y-13900000D01*
X4798500Y-13590000D02*
X5418500Y-13590000D01*
X6108500Y-13280000D02*
X6108500Y-13900000D01*
X5798500Y-13590000D02*
X6418500Y-13590000D01*
D15*
X5848918Y-4080418D02*
X5848918Y-3599581D01*
X5368081Y-3599581D01*
X5368081Y-4080418D01*
X5848918Y-4080418D01*
X5848918Y-6130418D02*
X5848918Y-5649581D01*
X5368081Y-5649581D01*
X5368081Y-6130418D01*
X5848918Y-6130418D01*
X5848918Y-8180418D02*
X5848918Y-7699581D01*
X5368081Y-7699581D01*
X5368081Y-8180418D01*
X5848918Y-8180418D01*
X5858918Y-10990419D02*
X5858918Y-10509581D01*
X5378081Y-10509581D01*
X5378081Y-10990419D01*
X5858918Y-10990419D01*
D11*
X4866777Y-15453984D02*
X4866777Y-15253984D01*
X4866777Y-15253984D02*
X4914396Y-15253984D01*
X4914396Y-15253984D02*
X4942967Y-15263507D01*
X4942967Y-15263507D02*
X4962015Y-15282555D01*
X4962015Y-15282555D02*
X4971539Y-15301603D01*
X4971539Y-15301603D02*
X4981062Y-15339698D01*
X4981062Y-15339698D02*
X4981062Y-15368269D01*
X4981062Y-15368269D02*
X4971539Y-15406365D01*
X4971539Y-15406365D02*
X4962015Y-15425412D01*
X4962015Y-15425412D02*
X4942967Y-15444460D01*
X4942967Y-15444460D02*
X4914396Y-15453984D01*
X4914396Y-15453984D02*
X4866777Y-15453984D01*
X5066777Y-15453984D02*
X5066777Y-15320650D01*
X5066777Y-15358746D02*
X5076300Y-15339698D01*
X5076300Y-15339698D02*
X5085824Y-15330174D01*
X5085824Y-15330174D02*
X5104872Y-15320650D01*
X5104872Y-15320650D02*
X5123920Y-15320650D01*
X5190586Y-15453984D02*
X5190586Y-15320650D01*
X5190586Y-15253984D02*
X5181062Y-15263507D01*
X5181062Y-15263507D02*
X5190586Y-15273031D01*
X5190586Y-15273031D02*
X5200110Y-15263507D01*
X5200110Y-15263507D02*
X5190586Y-15253984D01*
X5190586Y-15253984D02*
X5190586Y-15273031D01*
X5314396Y-15453984D02*
X5295348Y-15444460D01*
X5295348Y-15444460D02*
X5285824Y-15425412D01*
X5285824Y-15425412D02*
X5285824Y-15253984D01*
X5419158Y-15453984D02*
X5400110Y-15444460D01*
X5400110Y-15444460D02*
X5390586Y-15425412D01*
X5390586Y-15425412D02*
X5390586Y-15253984D01*
X5647729Y-15453984D02*
X5647729Y-15253984D01*
X5647729Y-15253984D02*
X5714396Y-15396841D01*
X5714396Y-15396841D02*
X5781062Y-15253984D01*
X5781062Y-15253984D02*
X5781062Y-15453984D01*
X5962015Y-15453984D02*
X5962015Y-15349222D01*
X5962015Y-15349222D02*
X5952491Y-15330174D01*
X5952491Y-15330174D02*
X5933443Y-15320650D01*
X5933443Y-15320650D02*
X5895348Y-15320650D01*
X5895348Y-15320650D02*
X5876300Y-15330174D01*
X5962015Y-15444460D02*
X5942967Y-15453984D01*
X5942967Y-15453984D02*
X5895348Y-15453984D01*
X5895348Y-15453984D02*
X5876300Y-15444460D01*
X5876300Y-15444460D02*
X5866777Y-15425412D01*
X5866777Y-15425412D02*
X5866777Y-15406365D01*
X5866777Y-15406365D02*
X5876300Y-15387317D01*
X5876300Y-15387317D02*
X5895348Y-15377793D01*
X5895348Y-15377793D02*
X5942967Y-15377793D01*
X5942967Y-15377793D02*
X5962015Y-15368269D01*
X6057253Y-15320650D02*
X6057253Y-15520650D01*
X6057253Y-15330174D02*
X6076300Y-15320650D01*
X6076300Y-15320650D02*
X6114396Y-15320650D01*
X6114396Y-15320650D02*
X6133443Y-15330174D01*
X6133443Y-15330174D02*
X6142967Y-15339698D01*
X6142967Y-15339698D02*
X6152491Y-15358746D01*
X6152491Y-15358746D02*
X6152491Y-15415888D01*
X6152491Y-15415888D02*
X6142967Y-15434936D01*
X6142967Y-15434936D02*
X6133443Y-15444460D01*
X6133443Y-15444460D02*
X6114396Y-15453984D01*
X6114396Y-15453984D02*
X6076300Y-15453984D01*
X6076300Y-15453984D02*
X6057253Y-15444460D01*
X6238205Y-15434936D02*
X6247729Y-15444460D01*
X6247729Y-15444460D02*
X6238205Y-15453984D01*
X6238205Y-15453984D02*
X6228681Y-15444460D01*
X6228681Y-15444460D02*
X6238205Y-15434936D01*
X6238205Y-15434936D02*
X6238205Y-15453984D01*
X6238205Y-15330174D02*
X6247729Y-15339698D01*
X6247729Y-15339698D02*
X6238205Y-15349222D01*
X6238205Y-15349222D02*
X6228681Y-15339698D01*
X6228681Y-15339698D02*
X6238205Y-15330174D01*
X6238205Y-15330174D02*
X6238205Y-15349222D01*
X4406000Y-15682500D02*
X4606000Y-15882500D01*
X4606000Y-15682500D02*
X4406000Y-15882500D01*
X4847729Y-15673984D02*
X4971539Y-15673984D01*
X4971539Y-15673984D02*
X4904872Y-15750174D01*
X4904872Y-15750174D02*
X4933443Y-15750174D01*
X4933443Y-15750174D02*
X4952491Y-15759698D01*
X4952491Y-15759698D02*
X4962015Y-15769222D01*
X4962015Y-15769222D02*
X4971539Y-15788269D01*
X4971539Y-15788269D02*
X4971539Y-15835888D01*
X4971539Y-15835888D02*
X4962015Y-15854936D01*
X4962015Y-15854936D02*
X4952491Y-15864460D01*
X4952491Y-15864460D02*
X4933443Y-15873984D01*
X4933443Y-15873984D02*
X4876300Y-15873984D01*
X4876300Y-15873984D02*
X4857253Y-15864460D01*
X4857253Y-15864460D02*
X4847729Y-15854936D01*
X5057253Y-15854936D02*
X5066777Y-15864460D01*
X5066777Y-15864460D02*
X5057253Y-15873984D01*
X5057253Y-15873984D02*
X5047729Y-15864460D01*
X5047729Y-15864460D02*
X5057253Y-15854936D01*
X5057253Y-15854936D02*
X5057253Y-15873984D01*
X5190586Y-15673984D02*
X5209634Y-15673984D01*
X5209634Y-15673984D02*
X5228681Y-15683507D01*
X5228681Y-15683507D02*
X5238205Y-15693031D01*
X5238205Y-15693031D02*
X5247729Y-15712079D01*
X5247729Y-15712079D02*
X5257253Y-15750174D01*
X5257253Y-15750174D02*
X5257253Y-15797793D01*
X5257253Y-15797793D02*
X5247729Y-15835888D01*
X5247729Y-15835888D02*
X5238205Y-15854936D01*
X5238205Y-15854936D02*
X5228681Y-15864460D01*
X5228681Y-15864460D02*
X5209634Y-15873984D01*
X5209634Y-15873984D02*
X5190586Y-15873984D01*
X5190586Y-15873984D02*
X5171539Y-15864460D01*
X5171539Y-15864460D02*
X5162015Y-15854936D01*
X5162015Y-15854936D02*
X5152491Y-15835888D01*
X5152491Y-15835888D02*
X5142967Y-15797793D01*
X5142967Y-15797793D02*
X5142967Y-15750174D01*
X5142967Y-15750174D02*
X5152491Y-15712079D01*
X5152491Y-15712079D02*
X5162015Y-15693031D01*
X5162015Y-15693031D02*
X5171539Y-15683507D01*
X5171539Y-15683507D02*
X5190586Y-15673984D01*
X5381062Y-15673984D02*
X5400110Y-15673984D01*
X5400110Y-15673984D02*
X5419158Y-15683507D01*
X5419158Y-15683507D02*
X5428681Y-15693031D01*
X5428681Y-15693031D02*
X5438205Y-15712079D01*
X5438205Y-15712079D02*
X5447729Y-15750174D01*
X5447729Y-15750174D02*
X5447729Y-15797793D01*
X5447729Y-15797793D02*
X5438205Y-15835888D01*
X5438205Y-15835888D02*
X5428681Y-15854936D01*
X5428681Y-15854936D02*
X5419158Y-15864460D01*
X5419158Y-15864460D02*
X5400110Y-15873984D01*
X5400110Y-15873984D02*
X5381062Y-15873984D01*
X5381062Y-15873984D02*
X5362015Y-15864460D01*
X5362015Y-15864460D02*
X5352491Y-15854936D01*
X5352491Y-15854936D02*
X5342967Y-15835888D01*
X5342967Y-15835888D02*
X5333443Y-15797793D01*
X5333443Y-15797793D02*
X5333443Y-15750174D01*
X5333443Y-15750174D02*
X5342967Y-15712079D01*
X5342967Y-15712079D02*
X5352491Y-15693031D01*
X5352491Y-15693031D02*
X5362015Y-15683507D01*
X5362015Y-15683507D02*
X5381062Y-15673984D01*
X5571539Y-15673984D02*
X5590586Y-15673984D01*
X5590586Y-15673984D02*
X5609634Y-15683507D01*
X5609634Y-15683507D02*
X5619158Y-15693031D01*
X5619158Y-15693031D02*
X5628681Y-15712079D01*
X5628681Y-15712079D02*
X5638205Y-15750174D01*
X5638205Y-15750174D02*
X5638205Y-15797793D01*
X5638205Y-15797793D02*
X5628681Y-15835888D01*
X5628681Y-15835888D02*
X5619158Y-15854936D01*
X5619158Y-15854936D02*
X5609634Y-15864460D01*
X5609634Y-15864460D02*
X5590586Y-15873984D01*
X5590586Y-15873984D02*
X5571539Y-15873984D01*
X5571539Y-15873984D02*
X5552491Y-15864460D01*
X5552491Y-15864460D02*
X5542967Y-15854936D01*
X5542967Y-15854936D02*
X5533443Y-15835888D01*
X5533443Y-15835888D02*
X5523920Y-15797793D01*
X5523920Y-15797793D02*
X5523920Y-15750174D01*
X5523920Y-15750174D02*
X5533443Y-15712079D01*
X5533443Y-15712079D02*
X5542967Y-15693031D01*
X5542967Y-15693031D02*
X5552491Y-15683507D01*
X5552491Y-15683507D02*
X5571539Y-15673984D01*
X5723919Y-15873984D02*
X5723919Y-15740650D01*
X5723919Y-15759698D02*
X5733443Y-15750174D01*
X5733443Y-15750174D02*
X5752491Y-15740650D01*
X5752491Y-15740650D02*
X5781062Y-15740650D01*
X5781062Y-15740650D02*
X5800110Y-15750174D01*
X5800110Y-15750174D02*
X5809634Y-15769222D01*
X5809634Y-15769222D02*
X5809634Y-15873984D01*
X5809634Y-15769222D02*
X5819158Y-15750174D01*
X5819158Y-15750174D02*
X5838205Y-15740650D01*
X5838205Y-15740650D02*
X5866777Y-15740650D01*
X5866777Y-15740650D02*
X5885824Y-15750174D01*
X5885824Y-15750174D02*
X5895348Y-15769222D01*
X5895348Y-15769222D02*
X5895348Y-15873984D01*
X5990586Y-15873984D02*
X5990586Y-15740650D01*
X5990586Y-15759698D02*
X6000110Y-15750174D01*
X6000110Y-15750174D02*
X6019158Y-15740650D01*
X6019158Y-15740650D02*
X6047729Y-15740650D01*
X6047729Y-15740650D02*
X6066777Y-15750174D01*
X6066777Y-15750174D02*
X6076300Y-15769222D01*
X6076300Y-15769222D02*
X6076300Y-15873984D01*
X6076300Y-15769222D02*
X6085824Y-15750174D01*
X6085824Y-15750174D02*
X6104872Y-15740650D01*
X6104872Y-15740650D02*
X6133443Y-15740650D01*
X6133443Y-15740650D02*
X6152491Y-15750174D01*
X6152491Y-15750174D02*
X6162015Y-15769222D01*
X6162015Y-15769222D02*
X6162015Y-15873984D01*
X6552491Y-15664460D02*
X6381062Y-15921603D01*
X6809634Y-15673984D02*
X6828682Y-15673984D01*
X6828682Y-15673984D02*
X6847729Y-15683507D01*
X6847729Y-15683507D02*
X6857253Y-15693031D01*
X6857253Y-15693031D02*
X6866777Y-15712079D01*
X6866777Y-15712079D02*
X6876301Y-15750174D01*
X6876301Y-15750174D02*
X6876301Y-15797793D01*
X6876301Y-15797793D02*
X6866777Y-15835888D01*
X6866777Y-15835888D02*
X6857253Y-15854936D01*
X6857253Y-15854936D02*
X6847729Y-15864460D01*
X6847729Y-15864460D02*
X6828682Y-15873984D01*
X6828682Y-15873984D02*
X6809634Y-15873984D01*
X6809634Y-15873984D02*
X6790586Y-15864460D01*
X6790586Y-15864460D02*
X6781062Y-15854936D01*
X6781062Y-15854936D02*
X6771539Y-15835888D01*
X6771539Y-15835888D02*
X6762015Y-15797793D01*
X6762015Y-15797793D02*
X6762015Y-15750174D01*
X6762015Y-15750174D02*
X6771539Y-15712079D01*
X6771539Y-15712079D02*
X6781062Y-15693031D01*
X6781062Y-15693031D02*
X6790586Y-15683507D01*
X6790586Y-15683507D02*
X6809634Y-15673984D01*
X6962015Y-15854936D02*
X6971539Y-15864460D01*
X6971539Y-15864460D02*
X6962015Y-15873984D01*
X6962015Y-15873984D02*
X6952491Y-15864460D01*
X6952491Y-15864460D02*
X6962015Y-15854936D01*
X6962015Y-15854936D02*
X6962015Y-15873984D01*
X7162015Y-15873984D02*
X7047729Y-15873984D01*
X7104872Y-15873984D02*
X7104872Y-15673984D01*
X7104872Y-15673984D02*
X7085824Y-15702555D01*
X7085824Y-15702555D02*
X7066777Y-15721603D01*
X7066777Y-15721603D02*
X7047729Y-15731126D01*
X7352491Y-15873984D02*
X7238205Y-15873984D01*
X7295348Y-15873984D02*
X7295348Y-15673984D01*
X7295348Y-15673984D02*
X7276301Y-15702555D01*
X7276301Y-15702555D02*
X7257253Y-15721603D01*
X7257253Y-15721603D02*
X7238205Y-15731126D01*
X7466777Y-15759698D02*
X7447729Y-15750174D01*
X7447729Y-15750174D02*
X7438205Y-15740650D01*
X7438205Y-15740650D02*
X7428682Y-15721603D01*
X7428682Y-15721603D02*
X7428682Y-15712079D01*
X7428682Y-15712079D02*
X7438205Y-15693031D01*
X7438205Y-15693031D02*
X7447729Y-15683507D01*
X7447729Y-15683507D02*
X7466777Y-15673984D01*
X7466777Y-15673984D02*
X7504872Y-15673984D01*
X7504872Y-15673984D02*
X7523920Y-15683507D01*
X7523920Y-15683507D02*
X7533443Y-15693031D01*
X7533443Y-15693031D02*
X7542967Y-15712079D01*
X7542967Y-15712079D02*
X7542967Y-15721603D01*
X7542967Y-15721603D02*
X7533443Y-15740650D01*
X7533443Y-15740650D02*
X7523920Y-15750174D01*
X7523920Y-15750174D02*
X7504872Y-15759698D01*
X7504872Y-15759698D02*
X7466777Y-15759698D01*
X7466777Y-15759698D02*
X7447729Y-15769222D01*
X7447729Y-15769222D02*
X7438205Y-15778746D01*
X7438205Y-15778746D02*
X7428682Y-15797793D01*
X7428682Y-15797793D02*
X7428682Y-15835888D01*
X7428682Y-15835888D02*
X7438205Y-15854936D01*
X7438205Y-15854936D02*
X7447729Y-15864460D01*
X7447729Y-15864460D02*
X7466777Y-15873984D01*
X7466777Y-15873984D02*
X7504872Y-15873984D01*
X7504872Y-15873984D02*
X7523920Y-15864460D01*
X7523920Y-15864460D02*
X7533443Y-15854936D01*
X7533443Y-15854936D02*
X7542967Y-15835888D01*
X7542967Y-15835888D02*
X7542967Y-15797793D01*
X7542967Y-15797793D02*
X7533443Y-15778746D01*
X7533443Y-15778746D02*
X7523920Y-15769222D01*
X7523920Y-15769222D02*
X7504872Y-15759698D01*
X7733443Y-15873984D02*
X7619158Y-15873984D01*
X7676301Y-15873984D02*
X7676301Y-15673984D01*
X7676301Y-15673984D02*
X7657253Y-15702555D01*
X7657253Y-15702555D02*
X7638205Y-15721603D01*
X7638205Y-15721603D02*
X7619158Y-15731126D01*
X7809634Y-15673984D02*
X7809634Y-15712079D01*
X7885824Y-15673984D02*
X7885824Y-15712079D01*
X8181063Y-15950174D02*
X8171539Y-15940650D01*
X8171539Y-15940650D02*
X8152491Y-15912079D01*
X8152491Y-15912079D02*
X8142967Y-15893031D01*
X8142967Y-15893031D02*
X8133444Y-15864460D01*
X8133444Y-15864460D02*
X8123920Y-15816841D01*
X8123920Y-15816841D02*
X8123920Y-15778746D01*
X8123920Y-15778746D02*
X8133444Y-15731126D01*
X8133444Y-15731126D02*
X8142967Y-15702555D01*
X8142967Y-15702555D02*
X8152491Y-15683507D01*
X8152491Y-15683507D02*
X8171539Y-15654936D01*
X8171539Y-15654936D02*
X8181063Y-15645412D01*
X8295348Y-15673984D02*
X8314396Y-15673984D01*
X8314396Y-15673984D02*
X8333444Y-15683507D01*
X8333444Y-15683507D02*
X8342967Y-15693031D01*
X8342967Y-15693031D02*
X8352491Y-15712079D01*
X8352491Y-15712079D02*
X8362015Y-15750174D01*
X8362015Y-15750174D02*
X8362015Y-15797793D01*
X8362015Y-15797793D02*
X8352491Y-15835888D01*
X8352491Y-15835888D02*
X8342967Y-15854936D01*
X8342967Y-15854936D02*
X8333444Y-15864460D01*
X8333444Y-15864460D02*
X8314396Y-15873984D01*
X8314396Y-15873984D02*
X8295348Y-15873984D01*
X8295348Y-15873984D02*
X8276301Y-15864460D01*
X8276301Y-15864460D02*
X8266777Y-15854936D01*
X8266777Y-15854936D02*
X8257253Y-15835888D01*
X8257253Y-15835888D02*
X8247729Y-15797793D01*
X8247729Y-15797793D02*
X8247729Y-15750174D01*
X8247729Y-15750174D02*
X8257253Y-15712079D01*
X8257253Y-15712079D02*
X8266777Y-15693031D01*
X8266777Y-15693031D02*
X8276301Y-15683507D01*
X8276301Y-15683507D02*
X8295348Y-15673984D01*
X8600110Y-15873984D02*
X8600110Y-15673984D01*
X8685825Y-15873984D02*
X8685825Y-15769222D01*
X8685825Y-15769222D02*
X8676301Y-15750174D01*
X8676301Y-15750174D02*
X8657253Y-15740650D01*
X8657253Y-15740650D02*
X8628682Y-15740650D01*
X8628682Y-15740650D02*
X8609634Y-15750174D01*
X8609634Y-15750174D02*
X8600110Y-15759698D01*
X8809634Y-15873984D02*
X8790587Y-15864460D01*
X8790587Y-15864460D02*
X8781063Y-15854936D01*
X8781063Y-15854936D02*
X8771539Y-15835888D01*
X8771539Y-15835888D02*
X8771539Y-15778746D01*
X8771539Y-15778746D02*
X8781063Y-15759698D01*
X8781063Y-15759698D02*
X8790587Y-15750174D01*
X8790587Y-15750174D02*
X8809634Y-15740650D01*
X8809634Y-15740650D02*
X8838206Y-15740650D01*
X8838206Y-15740650D02*
X8857253Y-15750174D01*
X8857253Y-15750174D02*
X8866777Y-15759698D01*
X8866777Y-15759698D02*
X8876301Y-15778746D01*
X8876301Y-15778746D02*
X8876301Y-15835888D01*
X8876301Y-15835888D02*
X8866777Y-15854936D01*
X8866777Y-15854936D02*
X8857253Y-15864460D01*
X8857253Y-15864460D02*
X8838206Y-15873984D01*
X8838206Y-15873984D02*
X8809634Y-15873984D01*
X8990587Y-15873984D02*
X8971539Y-15864460D01*
X8971539Y-15864460D02*
X8962015Y-15845412D01*
X8962015Y-15845412D02*
X8962015Y-15673984D01*
X9142968Y-15864460D02*
X9123920Y-15873984D01*
X9123920Y-15873984D02*
X9085825Y-15873984D01*
X9085825Y-15873984D02*
X9066777Y-15864460D01*
X9066777Y-15864460D02*
X9057253Y-15845412D01*
X9057253Y-15845412D02*
X9057253Y-15769222D01*
X9057253Y-15769222D02*
X9066777Y-15750174D01*
X9066777Y-15750174D02*
X9085825Y-15740650D01*
X9085825Y-15740650D02*
X9123920Y-15740650D01*
X9123920Y-15740650D02*
X9142968Y-15750174D01*
X9142968Y-15750174D02*
X9152491Y-15769222D01*
X9152491Y-15769222D02*
X9152491Y-15788269D01*
X9152491Y-15788269D02*
X9057253Y-15807317D01*
X9228682Y-15864460D02*
X9247729Y-15873984D01*
X9247729Y-15873984D02*
X9285825Y-15873984D01*
X9285825Y-15873984D02*
X9304872Y-15864460D01*
X9304872Y-15864460D02*
X9314396Y-15845412D01*
X9314396Y-15845412D02*
X9314396Y-15835888D01*
X9314396Y-15835888D02*
X9304872Y-15816841D01*
X9304872Y-15816841D02*
X9285825Y-15807317D01*
X9285825Y-15807317D02*
X9257253Y-15807317D01*
X9257253Y-15807317D02*
X9238206Y-15797793D01*
X9238206Y-15797793D02*
X9228682Y-15778746D01*
X9228682Y-15778746D02*
X9228682Y-15769222D01*
X9228682Y-15769222D02*
X9238206Y-15750174D01*
X9238206Y-15750174D02*
X9257253Y-15740650D01*
X9257253Y-15740650D02*
X9285825Y-15740650D01*
X9285825Y-15740650D02*
X9304872Y-15750174D01*
X9552491Y-15797793D02*
X9704872Y-15797793D01*
X9628682Y-15873984D02*
X9628682Y-15721603D01*
X9942968Y-15693031D02*
X9952491Y-15683507D01*
X9952491Y-15683507D02*
X9971539Y-15673984D01*
X9971539Y-15673984D02*
X10019158Y-15673984D01*
X10019158Y-15673984D02*
X10038206Y-15683507D01*
X10038206Y-15683507D02*
X10047730Y-15693031D01*
X10047730Y-15693031D02*
X10057253Y-15712079D01*
X10057253Y-15712079D02*
X10057253Y-15731126D01*
X10057253Y-15731126D02*
X10047730Y-15759698D01*
X10047730Y-15759698D02*
X9933444Y-15873984D01*
X9933444Y-15873984D02*
X10057253Y-15873984D01*
X10285825Y-15864460D02*
X10304872Y-15873984D01*
X10304872Y-15873984D02*
X10342968Y-15873984D01*
X10342968Y-15873984D02*
X10362015Y-15864460D01*
X10362015Y-15864460D02*
X10371539Y-15845412D01*
X10371539Y-15845412D02*
X10371539Y-15835888D01*
X10371539Y-15835888D02*
X10362015Y-15816841D01*
X10362015Y-15816841D02*
X10342968Y-15807317D01*
X10342968Y-15807317D02*
X10314396Y-15807317D01*
X10314396Y-15807317D02*
X10295349Y-15797793D01*
X10295349Y-15797793D02*
X10285825Y-15778746D01*
X10285825Y-15778746D02*
X10285825Y-15769222D01*
X10285825Y-15769222D02*
X10295349Y-15750174D01*
X10295349Y-15750174D02*
X10314396Y-15740650D01*
X10314396Y-15740650D02*
X10342968Y-15740650D01*
X10342968Y-15740650D02*
X10362015Y-15750174D01*
X10485825Y-15873984D02*
X10466777Y-15864460D01*
X10466777Y-15864460D02*
X10457253Y-15845412D01*
X10457253Y-15845412D02*
X10457253Y-15673984D01*
X10590587Y-15873984D02*
X10571539Y-15864460D01*
X10571539Y-15864460D02*
X10562015Y-15854936D01*
X10562015Y-15854936D02*
X10552492Y-15835888D01*
X10552492Y-15835888D02*
X10552492Y-15778746D01*
X10552492Y-15778746D02*
X10562015Y-15759698D01*
X10562015Y-15759698D02*
X10571539Y-15750174D01*
X10571539Y-15750174D02*
X10590587Y-15740650D01*
X10590587Y-15740650D02*
X10619158Y-15740650D01*
X10619158Y-15740650D02*
X10638206Y-15750174D01*
X10638206Y-15750174D02*
X10647730Y-15759698D01*
X10647730Y-15759698D02*
X10657253Y-15778746D01*
X10657253Y-15778746D02*
X10657253Y-15835888D01*
X10657253Y-15835888D02*
X10647730Y-15854936D01*
X10647730Y-15854936D02*
X10638206Y-15864460D01*
X10638206Y-15864460D02*
X10619158Y-15873984D01*
X10619158Y-15873984D02*
X10590587Y-15873984D01*
X10714396Y-15740650D02*
X10790587Y-15740650D01*
X10742968Y-15673984D02*
X10742968Y-15845412D01*
X10742968Y-15845412D02*
X10752492Y-15864460D01*
X10752492Y-15864460D02*
X10771539Y-15873984D01*
X10771539Y-15873984D02*
X10790587Y-15873984D01*
X10847730Y-15864460D02*
X10866777Y-15873984D01*
X10866777Y-15873984D02*
X10904872Y-15873984D01*
X10904872Y-15873984D02*
X10923920Y-15864460D01*
X10923920Y-15864460D02*
X10933444Y-15845412D01*
X10933444Y-15845412D02*
X10933444Y-15835888D01*
X10933444Y-15835888D02*
X10923920Y-15816841D01*
X10923920Y-15816841D02*
X10904872Y-15807317D01*
X10904872Y-15807317D02*
X10876301Y-15807317D01*
X10876301Y-15807317D02*
X10857253Y-15797793D01*
X10857253Y-15797793D02*
X10847730Y-15778746D01*
X10847730Y-15778746D02*
X10847730Y-15769222D01*
X10847730Y-15769222D02*
X10857253Y-15750174D01*
X10857253Y-15750174D02*
X10876301Y-15740650D01*
X10876301Y-15740650D02*
X10904872Y-15740650D01*
X10904872Y-15740650D02*
X10923920Y-15750174D01*
X11000111Y-15950174D02*
X11009634Y-15940650D01*
X11009634Y-15940650D02*
X11028682Y-15912079D01*
X11028682Y-15912079D02*
X11038206Y-15893031D01*
X11038206Y-15893031D02*
X11047730Y-15864460D01*
X11047730Y-15864460D02*
X11057253Y-15816841D01*
X11057253Y-15816841D02*
X11057253Y-15778746D01*
X11057253Y-15778746D02*
X11047730Y-15731126D01*
X11047730Y-15731126D02*
X11038206Y-15702555D01*
X11038206Y-15702555D02*
X11028682Y-15683507D01*
X11028682Y-15683507D02*
X11009634Y-15654936D01*
X11009634Y-15654936D02*
X11000111Y-15645412D01*
X4606000Y-16102500D02*
G75*
G03*
X4606000Y-16102500I-100000J0D01*
G01*
X4962015Y-15993984D02*
X4866777Y-15993984D01*
X4866777Y-15993984D02*
X4857253Y-16089222D01*
X4857253Y-16089222D02*
X4866777Y-16079698D01*
X4866777Y-16079698D02*
X4885824Y-16070174D01*
X4885824Y-16070174D02*
X4933443Y-16070174D01*
X4933443Y-16070174D02*
X4952491Y-16079698D01*
X4952491Y-16079698D02*
X4962015Y-16089222D01*
X4962015Y-16089222D02*
X4971539Y-16108269D01*
X4971539Y-16108269D02*
X4971539Y-16155888D01*
X4971539Y-16155888D02*
X4962015Y-16174936D01*
X4962015Y-16174936D02*
X4952491Y-16184460D01*
X4952491Y-16184460D02*
X4933443Y-16193984D01*
X4933443Y-16193984D02*
X4885824Y-16193984D01*
X4885824Y-16193984D02*
X4866777Y-16184460D01*
X4866777Y-16184460D02*
X4857253Y-16174936D01*
X5057253Y-16174936D02*
X5066777Y-16184460D01*
X5066777Y-16184460D02*
X5057253Y-16193984D01*
X5057253Y-16193984D02*
X5047729Y-16184460D01*
X5047729Y-16184460D02*
X5057253Y-16174936D01*
X5057253Y-16174936D02*
X5057253Y-16193984D01*
X5133443Y-15993984D02*
X5266777Y-15993984D01*
X5266777Y-15993984D02*
X5181062Y-16193984D01*
X5381062Y-15993984D02*
X5400110Y-15993984D01*
X5400110Y-15993984D02*
X5419158Y-16003507D01*
X5419158Y-16003507D02*
X5428681Y-16013031D01*
X5428681Y-16013031D02*
X5438205Y-16032079D01*
X5438205Y-16032079D02*
X5447729Y-16070174D01*
X5447729Y-16070174D02*
X5447729Y-16117793D01*
X5447729Y-16117793D02*
X5438205Y-16155888D01*
X5438205Y-16155888D02*
X5428681Y-16174936D01*
X5428681Y-16174936D02*
X5419158Y-16184460D01*
X5419158Y-16184460D02*
X5400110Y-16193984D01*
X5400110Y-16193984D02*
X5381062Y-16193984D01*
X5381062Y-16193984D02*
X5362015Y-16184460D01*
X5362015Y-16184460D02*
X5352491Y-16174936D01*
X5352491Y-16174936D02*
X5342967Y-16155888D01*
X5342967Y-16155888D02*
X5333443Y-16117793D01*
X5333443Y-16117793D02*
X5333443Y-16070174D01*
X5333443Y-16070174D02*
X5342967Y-16032079D01*
X5342967Y-16032079D02*
X5352491Y-16013031D01*
X5352491Y-16013031D02*
X5362015Y-16003507D01*
X5362015Y-16003507D02*
X5381062Y-15993984D01*
X5571539Y-15993984D02*
X5590586Y-15993984D01*
X5590586Y-15993984D02*
X5609634Y-16003507D01*
X5609634Y-16003507D02*
X5619158Y-16013031D01*
X5619158Y-16013031D02*
X5628681Y-16032079D01*
X5628681Y-16032079D02*
X5638205Y-16070174D01*
X5638205Y-16070174D02*
X5638205Y-16117793D01*
X5638205Y-16117793D02*
X5628681Y-16155888D01*
X5628681Y-16155888D02*
X5619158Y-16174936D01*
X5619158Y-16174936D02*
X5609634Y-16184460D01*
X5609634Y-16184460D02*
X5590586Y-16193984D01*
X5590586Y-16193984D02*
X5571539Y-16193984D01*
X5571539Y-16193984D02*
X5552491Y-16184460D01*
X5552491Y-16184460D02*
X5542967Y-16174936D01*
X5542967Y-16174936D02*
X5533443Y-16155888D01*
X5533443Y-16155888D02*
X5523920Y-16117793D01*
X5523920Y-16117793D02*
X5523920Y-16070174D01*
X5523920Y-16070174D02*
X5533443Y-16032079D01*
X5533443Y-16032079D02*
X5542967Y-16013031D01*
X5542967Y-16013031D02*
X5552491Y-16003507D01*
X5552491Y-16003507D02*
X5571539Y-15993984D01*
X5723919Y-16193984D02*
X5723919Y-16060650D01*
X5723919Y-16079698D02*
X5733443Y-16070174D01*
X5733443Y-16070174D02*
X5752491Y-16060650D01*
X5752491Y-16060650D02*
X5781062Y-16060650D01*
X5781062Y-16060650D02*
X5800110Y-16070174D01*
X5800110Y-16070174D02*
X5809634Y-16089222D01*
X5809634Y-16089222D02*
X5809634Y-16193984D01*
X5809634Y-16089222D02*
X5819158Y-16070174D01*
X5819158Y-16070174D02*
X5838205Y-16060650D01*
X5838205Y-16060650D02*
X5866777Y-16060650D01*
X5866777Y-16060650D02*
X5885824Y-16070174D01*
X5885824Y-16070174D02*
X5895348Y-16089222D01*
X5895348Y-16089222D02*
X5895348Y-16193984D01*
X5990586Y-16193984D02*
X5990586Y-16060650D01*
X5990586Y-16079698D02*
X6000110Y-16070174D01*
X6000110Y-16070174D02*
X6019158Y-16060650D01*
X6019158Y-16060650D02*
X6047729Y-16060650D01*
X6047729Y-16060650D02*
X6066777Y-16070174D01*
X6066777Y-16070174D02*
X6076300Y-16089222D01*
X6076300Y-16089222D02*
X6076300Y-16193984D01*
X6076300Y-16089222D02*
X6085824Y-16070174D01*
X6085824Y-16070174D02*
X6104872Y-16060650D01*
X6104872Y-16060650D02*
X6133443Y-16060650D01*
X6133443Y-16060650D02*
X6152491Y-16070174D01*
X6152491Y-16070174D02*
X6162015Y-16089222D01*
X6162015Y-16089222D02*
X6162015Y-16193984D01*
X6552491Y-15984460D02*
X6381062Y-16241603D01*
X6809634Y-15993984D02*
X6828682Y-15993984D01*
X6828682Y-15993984D02*
X6847729Y-16003507D01*
X6847729Y-16003507D02*
X6857253Y-16013031D01*
X6857253Y-16013031D02*
X6866777Y-16032079D01*
X6866777Y-16032079D02*
X6876301Y-16070174D01*
X6876301Y-16070174D02*
X6876301Y-16117793D01*
X6876301Y-16117793D02*
X6866777Y-16155888D01*
X6866777Y-16155888D02*
X6857253Y-16174936D01*
X6857253Y-16174936D02*
X6847729Y-16184460D01*
X6847729Y-16184460D02*
X6828682Y-16193984D01*
X6828682Y-16193984D02*
X6809634Y-16193984D01*
X6809634Y-16193984D02*
X6790586Y-16184460D01*
X6790586Y-16184460D02*
X6781062Y-16174936D01*
X6781062Y-16174936D02*
X6771539Y-16155888D01*
X6771539Y-16155888D02*
X6762015Y-16117793D01*
X6762015Y-16117793D02*
X6762015Y-16070174D01*
X6762015Y-16070174D02*
X6771539Y-16032079D01*
X6771539Y-16032079D02*
X6781062Y-16013031D01*
X6781062Y-16013031D02*
X6790586Y-16003507D01*
X6790586Y-16003507D02*
X6809634Y-15993984D01*
X6962015Y-16174936D02*
X6971539Y-16184460D01*
X6971539Y-16184460D02*
X6962015Y-16193984D01*
X6962015Y-16193984D02*
X6952491Y-16184460D01*
X6952491Y-16184460D02*
X6962015Y-16174936D01*
X6962015Y-16174936D02*
X6962015Y-16193984D01*
X7047729Y-16013031D02*
X7057253Y-16003507D01*
X7057253Y-16003507D02*
X7076301Y-15993984D01*
X7076301Y-15993984D02*
X7123920Y-15993984D01*
X7123920Y-15993984D02*
X7142967Y-16003507D01*
X7142967Y-16003507D02*
X7152491Y-16013031D01*
X7152491Y-16013031D02*
X7162015Y-16032079D01*
X7162015Y-16032079D02*
X7162015Y-16051126D01*
X7162015Y-16051126D02*
X7152491Y-16079698D01*
X7152491Y-16079698D02*
X7038205Y-16193984D01*
X7038205Y-16193984D02*
X7162015Y-16193984D01*
X7238205Y-16013031D02*
X7247729Y-16003507D01*
X7247729Y-16003507D02*
X7266777Y-15993984D01*
X7266777Y-15993984D02*
X7314396Y-15993984D01*
X7314396Y-15993984D02*
X7333443Y-16003507D01*
X7333443Y-16003507D02*
X7342967Y-16013031D01*
X7342967Y-16013031D02*
X7352491Y-16032079D01*
X7352491Y-16032079D02*
X7352491Y-16051126D01*
X7352491Y-16051126D02*
X7342967Y-16079698D01*
X7342967Y-16079698D02*
X7228682Y-16193984D01*
X7228682Y-16193984D02*
X7352491Y-16193984D01*
X7523920Y-16060650D02*
X7523920Y-16193984D01*
X7476301Y-15984460D02*
X7428682Y-16127317D01*
X7428682Y-16127317D02*
X7552491Y-16127317D01*
X7714396Y-16060650D02*
X7714396Y-16193984D01*
X7666777Y-15984460D02*
X7619158Y-16127317D01*
X7619158Y-16127317D02*
X7742967Y-16127317D01*
X7809634Y-15993984D02*
X7809634Y-16032079D01*
X7885824Y-15993984D02*
X7885824Y-16032079D01*
X8181063Y-16270174D02*
X8171539Y-16260650D01*
X8171539Y-16260650D02*
X8152491Y-16232079D01*
X8152491Y-16232079D02*
X8142967Y-16213031D01*
X8142967Y-16213031D02*
X8133444Y-16184460D01*
X8133444Y-16184460D02*
X8123920Y-16136841D01*
X8123920Y-16136841D02*
X8123920Y-16098746D01*
X8123920Y-16098746D02*
X8133444Y-16051126D01*
X8133444Y-16051126D02*
X8142967Y-16022555D01*
X8142967Y-16022555D02*
X8152491Y-16003507D01*
X8152491Y-16003507D02*
X8171539Y-15974936D01*
X8171539Y-15974936D02*
X8181063Y-15965412D01*
X8362015Y-16193984D02*
X8247729Y-16193984D01*
X8304872Y-16193984D02*
X8304872Y-15993984D01*
X8304872Y-15993984D02*
X8285824Y-16022555D01*
X8285824Y-16022555D02*
X8266777Y-16041603D01*
X8266777Y-16041603D02*
X8247729Y-16051126D01*
X8600110Y-16193984D02*
X8600110Y-15993984D01*
X8685825Y-16193984D02*
X8685825Y-16089222D01*
X8685825Y-16089222D02*
X8676301Y-16070174D01*
X8676301Y-16070174D02*
X8657253Y-16060650D01*
X8657253Y-16060650D02*
X8628682Y-16060650D01*
X8628682Y-16060650D02*
X8609634Y-16070174D01*
X8609634Y-16070174D02*
X8600110Y-16079698D01*
X8809634Y-16193984D02*
X8790587Y-16184460D01*
X8790587Y-16184460D02*
X8781063Y-16174936D01*
X8781063Y-16174936D02*
X8771539Y-16155888D01*
X8771539Y-16155888D02*
X8771539Y-16098746D01*
X8771539Y-16098746D02*
X8781063Y-16079698D01*
X8781063Y-16079698D02*
X8790587Y-16070174D01*
X8790587Y-16070174D02*
X8809634Y-16060650D01*
X8809634Y-16060650D02*
X8838206Y-16060650D01*
X8838206Y-16060650D02*
X8857253Y-16070174D01*
X8857253Y-16070174D02*
X8866777Y-16079698D01*
X8866777Y-16079698D02*
X8876301Y-16098746D01*
X8876301Y-16098746D02*
X8876301Y-16155888D01*
X8876301Y-16155888D02*
X8866777Y-16174936D01*
X8866777Y-16174936D02*
X8857253Y-16184460D01*
X8857253Y-16184460D02*
X8838206Y-16193984D01*
X8838206Y-16193984D02*
X8809634Y-16193984D01*
X8990587Y-16193984D02*
X8971539Y-16184460D01*
X8971539Y-16184460D02*
X8962015Y-16165412D01*
X8962015Y-16165412D02*
X8962015Y-15993984D01*
X9142968Y-16184460D02*
X9123920Y-16193984D01*
X9123920Y-16193984D02*
X9085825Y-16193984D01*
X9085825Y-16193984D02*
X9066777Y-16184460D01*
X9066777Y-16184460D02*
X9057253Y-16165412D01*
X9057253Y-16165412D02*
X9057253Y-16089222D01*
X9057253Y-16089222D02*
X9066777Y-16070174D01*
X9066777Y-16070174D02*
X9085825Y-16060650D01*
X9085825Y-16060650D02*
X9123920Y-16060650D01*
X9123920Y-16060650D02*
X9142968Y-16070174D01*
X9142968Y-16070174D02*
X9152491Y-16089222D01*
X9152491Y-16089222D02*
X9152491Y-16108269D01*
X9152491Y-16108269D02*
X9057253Y-16127317D01*
X9219158Y-16270174D02*
X9228682Y-16260650D01*
X9228682Y-16260650D02*
X9247729Y-16232079D01*
X9247729Y-16232079D02*
X9257253Y-16213031D01*
X9257253Y-16213031D02*
X9266777Y-16184460D01*
X9266777Y-16184460D02*
X9276301Y-16136841D01*
X9276301Y-16136841D02*
X9276301Y-16098746D01*
X9276301Y-16098746D02*
X9266777Y-16051126D01*
X9266777Y-16051126D02*
X9257253Y-16022555D01*
X9257253Y-16022555D02*
X9247729Y-16003507D01*
X9247729Y-16003507D02*
X9228682Y-15974936D01*
X9228682Y-15974936D02*
X9219158Y-15965412D01*
X4506000Y-16322500D02*
X4506000Y-16522500D01*
X4406000Y-16422500D02*
X4606000Y-16422500D01*
X4952491Y-16313984D02*
X4914396Y-16313984D01*
X4914396Y-16313984D02*
X4895348Y-16323507D01*
X4895348Y-16323507D02*
X4885824Y-16333031D01*
X4885824Y-16333031D02*
X4866777Y-16361603D01*
X4866777Y-16361603D02*
X4857253Y-16399698D01*
X4857253Y-16399698D02*
X4857253Y-16475888D01*
X4857253Y-16475888D02*
X4866777Y-16494936D01*
X4866777Y-16494936D02*
X4876300Y-16504460D01*
X4876300Y-16504460D02*
X4895348Y-16513984D01*
X4895348Y-16513984D02*
X4933443Y-16513984D01*
X4933443Y-16513984D02*
X4952491Y-16504460D01*
X4952491Y-16504460D02*
X4962015Y-16494936D01*
X4962015Y-16494936D02*
X4971539Y-16475888D01*
X4971539Y-16475888D02*
X4971539Y-16428269D01*
X4971539Y-16428269D02*
X4962015Y-16409222D01*
X4962015Y-16409222D02*
X4952491Y-16399698D01*
X4952491Y-16399698D02*
X4933443Y-16390174D01*
X4933443Y-16390174D02*
X4895348Y-16390174D01*
X4895348Y-16390174D02*
X4876300Y-16399698D01*
X4876300Y-16399698D02*
X4866777Y-16409222D01*
X4866777Y-16409222D02*
X4857253Y-16428269D01*
X5057253Y-16494936D02*
X5066777Y-16504460D01*
X5066777Y-16504460D02*
X5057253Y-16513984D01*
X5057253Y-16513984D02*
X5047729Y-16504460D01*
X5047729Y-16504460D02*
X5057253Y-16494936D01*
X5057253Y-16494936D02*
X5057253Y-16513984D01*
X5142967Y-16333031D02*
X5152491Y-16323507D01*
X5152491Y-16323507D02*
X5171539Y-16313984D01*
X5171539Y-16313984D02*
X5219158Y-16313984D01*
X5219158Y-16313984D02*
X5238205Y-16323507D01*
X5238205Y-16323507D02*
X5247729Y-16333031D01*
X5247729Y-16333031D02*
X5257253Y-16352079D01*
X5257253Y-16352079D02*
X5257253Y-16371126D01*
X5257253Y-16371126D02*
X5247729Y-16399698D01*
X5247729Y-16399698D02*
X5133443Y-16513984D01*
X5133443Y-16513984D02*
X5257253Y-16513984D01*
X5381062Y-16313984D02*
X5400110Y-16313984D01*
X5400110Y-16313984D02*
X5419158Y-16323507D01*
X5419158Y-16323507D02*
X5428681Y-16333031D01*
X5428681Y-16333031D02*
X5438205Y-16352079D01*
X5438205Y-16352079D02*
X5447729Y-16390174D01*
X5447729Y-16390174D02*
X5447729Y-16437793D01*
X5447729Y-16437793D02*
X5438205Y-16475888D01*
X5438205Y-16475888D02*
X5428681Y-16494936D01*
X5428681Y-16494936D02*
X5419158Y-16504460D01*
X5419158Y-16504460D02*
X5400110Y-16513984D01*
X5400110Y-16513984D02*
X5381062Y-16513984D01*
X5381062Y-16513984D02*
X5362015Y-16504460D01*
X5362015Y-16504460D02*
X5352491Y-16494936D01*
X5352491Y-16494936D02*
X5342967Y-16475888D01*
X5342967Y-16475888D02*
X5333443Y-16437793D01*
X5333443Y-16437793D02*
X5333443Y-16390174D01*
X5333443Y-16390174D02*
X5342967Y-16352079D01*
X5342967Y-16352079D02*
X5352491Y-16333031D01*
X5352491Y-16333031D02*
X5362015Y-16323507D01*
X5362015Y-16323507D02*
X5381062Y-16313984D01*
X5571539Y-16313984D02*
X5590586Y-16313984D01*
X5590586Y-16313984D02*
X5609634Y-16323507D01*
X5609634Y-16323507D02*
X5619158Y-16333031D01*
X5619158Y-16333031D02*
X5628681Y-16352079D01*
X5628681Y-16352079D02*
X5638205Y-16390174D01*
X5638205Y-16390174D02*
X5638205Y-16437793D01*
X5638205Y-16437793D02*
X5628681Y-16475888D01*
X5628681Y-16475888D02*
X5619158Y-16494936D01*
X5619158Y-16494936D02*
X5609634Y-16504460D01*
X5609634Y-16504460D02*
X5590586Y-16513984D01*
X5590586Y-16513984D02*
X5571539Y-16513984D01*
X5571539Y-16513984D02*
X5552491Y-16504460D01*
X5552491Y-16504460D02*
X5542967Y-16494936D01*
X5542967Y-16494936D02*
X5533443Y-16475888D01*
X5533443Y-16475888D02*
X5523920Y-16437793D01*
X5523920Y-16437793D02*
X5523920Y-16390174D01*
X5523920Y-16390174D02*
X5533443Y-16352079D01*
X5533443Y-16352079D02*
X5542967Y-16333031D01*
X5542967Y-16333031D02*
X5552491Y-16323507D01*
X5552491Y-16323507D02*
X5571539Y-16313984D01*
X5723919Y-16513984D02*
X5723919Y-16380650D01*
X5723919Y-16399698D02*
X5733443Y-16390174D01*
X5733443Y-16390174D02*
X5752491Y-16380650D01*
X5752491Y-16380650D02*
X5781062Y-16380650D01*
X5781062Y-16380650D02*
X5800110Y-16390174D01*
X5800110Y-16390174D02*
X5809634Y-16409222D01*
X5809634Y-16409222D02*
X5809634Y-16513984D01*
X5809634Y-16409222D02*
X5819158Y-16390174D01*
X5819158Y-16390174D02*
X5838205Y-16380650D01*
X5838205Y-16380650D02*
X5866777Y-16380650D01*
X5866777Y-16380650D02*
X5885824Y-16390174D01*
X5885824Y-16390174D02*
X5895348Y-16409222D01*
X5895348Y-16409222D02*
X5895348Y-16513984D01*
X5990586Y-16513984D02*
X5990586Y-16380650D01*
X5990586Y-16399698D02*
X6000110Y-16390174D01*
X6000110Y-16390174D02*
X6019158Y-16380650D01*
X6019158Y-16380650D02*
X6047729Y-16380650D01*
X6047729Y-16380650D02*
X6066777Y-16390174D01*
X6066777Y-16390174D02*
X6076300Y-16409222D01*
X6076300Y-16409222D02*
X6076300Y-16513984D01*
X6076300Y-16409222D02*
X6085824Y-16390174D01*
X6085824Y-16390174D02*
X6104872Y-16380650D01*
X6104872Y-16380650D02*
X6133443Y-16380650D01*
X6133443Y-16380650D02*
X6152491Y-16390174D01*
X6152491Y-16390174D02*
X6162015Y-16409222D01*
X6162015Y-16409222D02*
X6162015Y-16513984D01*
X6552491Y-16304460D02*
X6381062Y-16561603D01*
X6809634Y-16313984D02*
X6828682Y-16313984D01*
X6828682Y-16313984D02*
X6847729Y-16323507D01*
X6847729Y-16323507D02*
X6857253Y-16333031D01*
X6857253Y-16333031D02*
X6866777Y-16352079D01*
X6866777Y-16352079D02*
X6876301Y-16390174D01*
X6876301Y-16390174D02*
X6876301Y-16437793D01*
X6876301Y-16437793D02*
X6866777Y-16475888D01*
X6866777Y-16475888D02*
X6857253Y-16494936D01*
X6857253Y-16494936D02*
X6847729Y-16504460D01*
X6847729Y-16504460D02*
X6828682Y-16513984D01*
X6828682Y-16513984D02*
X6809634Y-16513984D01*
X6809634Y-16513984D02*
X6790586Y-16504460D01*
X6790586Y-16504460D02*
X6781062Y-16494936D01*
X6781062Y-16494936D02*
X6771539Y-16475888D01*
X6771539Y-16475888D02*
X6762015Y-16437793D01*
X6762015Y-16437793D02*
X6762015Y-16390174D01*
X6762015Y-16390174D02*
X6771539Y-16352079D01*
X6771539Y-16352079D02*
X6781062Y-16333031D01*
X6781062Y-16333031D02*
X6790586Y-16323507D01*
X6790586Y-16323507D02*
X6809634Y-16313984D01*
X6962015Y-16494936D02*
X6971539Y-16504460D01*
X6971539Y-16504460D02*
X6962015Y-16513984D01*
X6962015Y-16513984D02*
X6952491Y-16504460D01*
X6952491Y-16504460D02*
X6962015Y-16494936D01*
X6962015Y-16494936D02*
X6962015Y-16513984D01*
X7047729Y-16333031D02*
X7057253Y-16323507D01*
X7057253Y-16323507D02*
X7076301Y-16313984D01*
X7076301Y-16313984D02*
X7123920Y-16313984D01*
X7123920Y-16313984D02*
X7142967Y-16323507D01*
X7142967Y-16323507D02*
X7152491Y-16333031D01*
X7152491Y-16333031D02*
X7162015Y-16352079D01*
X7162015Y-16352079D02*
X7162015Y-16371126D01*
X7162015Y-16371126D02*
X7152491Y-16399698D01*
X7152491Y-16399698D02*
X7038205Y-16513984D01*
X7038205Y-16513984D02*
X7162015Y-16513984D01*
X7333443Y-16380650D02*
X7333443Y-16513984D01*
X7285824Y-16304460D02*
X7238205Y-16447317D01*
X7238205Y-16447317D02*
X7362015Y-16447317D01*
X7523920Y-16380650D02*
X7523920Y-16513984D01*
X7476301Y-16304460D02*
X7428682Y-16447317D01*
X7428682Y-16447317D02*
X7552491Y-16447317D01*
X7733443Y-16513984D02*
X7619158Y-16513984D01*
X7676301Y-16513984D02*
X7676301Y-16313984D01*
X7676301Y-16313984D02*
X7657253Y-16342555D01*
X7657253Y-16342555D02*
X7638205Y-16361603D01*
X7638205Y-16361603D02*
X7619158Y-16371126D01*
X7809634Y-16313984D02*
X7809634Y-16352079D01*
X7885824Y-16313984D02*
X7885824Y-16352079D01*
X8181063Y-16590174D02*
X8171539Y-16580650D01*
X8171539Y-16580650D02*
X8152491Y-16552079D01*
X8152491Y-16552079D02*
X8142967Y-16533031D01*
X8142967Y-16533031D02*
X8133444Y-16504460D01*
X8133444Y-16504460D02*
X8123920Y-16456841D01*
X8123920Y-16456841D02*
X8123920Y-16418746D01*
X8123920Y-16418746D02*
X8133444Y-16371126D01*
X8133444Y-16371126D02*
X8142967Y-16342555D01*
X8142967Y-16342555D02*
X8152491Y-16323507D01*
X8152491Y-16323507D02*
X8171539Y-16294936D01*
X8171539Y-16294936D02*
X8181063Y-16285412D01*
X8238205Y-16313984D02*
X8362015Y-16313984D01*
X8362015Y-16313984D02*
X8295348Y-16390174D01*
X8295348Y-16390174D02*
X8323920Y-16390174D01*
X8323920Y-16390174D02*
X8342967Y-16399698D01*
X8342967Y-16399698D02*
X8352491Y-16409222D01*
X8352491Y-16409222D02*
X8362015Y-16428269D01*
X8362015Y-16428269D02*
X8362015Y-16475888D01*
X8362015Y-16475888D02*
X8352491Y-16494936D01*
X8352491Y-16494936D02*
X8342967Y-16504460D01*
X8342967Y-16504460D02*
X8323920Y-16513984D01*
X8323920Y-16513984D02*
X8266777Y-16513984D01*
X8266777Y-16513984D02*
X8247729Y-16504460D01*
X8247729Y-16504460D02*
X8238205Y-16494936D01*
X8600110Y-16513984D02*
X8600110Y-16313984D01*
X8685825Y-16513984D02*
X8685825Y-16409222D01*
X8685825Y-16409222D02*
X8676301Y-16390174D01*
X8676301Y-16390174D02*
X8657253Y-16380650D01*
X8657253Y-16380650D02*
X8628682Y-16380650D01*
X8628682Y-16380650D02*
X8609634Y-16390174D01*
X8609634Y-16390174D02*
X8600110Y-16399698D01*
X8809634Y-16513984D02*
X8790587Y-16504460D01*
X8790587Y-16504460D02*
X8781063Y-16494936D01*
X8781063Y-16494936D02*
X8771539Y-16475888D01*
X8771539Y-16475888D02*
X8771539Y-16418746D01*
X8771539Y-16418746D02*
X8781063Y-16399698D01*
X8781063Y-16399698D02*
X8790587Y-16390174D01*
X8790587Y-16390174D02*
X8809634Y-16380650D01*
X8809634Y-16380650D02*
X8838206Y-16380650D01*
X8838206Y-16380650D02*
X8857253Y-16390174D01*
X8857253Y-16390174D02*
X8866777Y-16399698D01*
X8866777Y-16399698D02*
X8876301Y-16418746D01*
X8876301Y-16418746D02*
X8876301Y-16475888D01*
X8876301Y-16475888D02*
X8866777Y-16494936D01*
X8866777Y-16494936D02*
X8857253Y-16504460D01*
X8857253Y-16504460D02*
X8838206Y-16513984D01*
X8838206Y-16513984D02*
X8809634Y-16513984D01*
X8990587Y-16513984D02*
X8971539Y-16504460D01*
X8971539Y-16504460D02*
X8962015Y-16485412D01*
X8962015Y-16485412D02*
X8962015Y-16313984D01*
X9142968Y-16504460D02*
X9123920Y-16513984D01*
X9123920Y-16513984D02*
X9085825Y-16513984D01*
X9085825Y-16513984D02*
X9066777Y-16504460D01*
X9066777Y-16504460D02*
X9057253Y-16485412D01*
X9057253Y-16485412D02*
X9057253Y-16409222D01*
X9057253Y-16409222D02*
X9066777Y-16390174D01*
X9066777Y-16390174D02*
X9085825Y-16380650D01*
X9085825Y-16380650D02*
X9123920Y-16380650D01*
X9123920Y-16380650D02*
X9142968Y-16390174D01*
X9142968Y-16390174D02*
X9152491Y-16409222D01*
X9152491Y-16409222D02*
X9152491Y-16428269D01*
X9152491Y-16428269D02*
X9057253Y-16447317D01*
X9228682Y-16504460D02*
X9247729Y-16513984D01*
X9247729Y-16513984D02*
X9285825Y-16513984D01*
X9285825Y-16513984D02*
X9304872Y-16504460D01*
X9304872Y-16504460D02*
X9314396Y-16485412D01*
X9314396Y-16485412D02*
X9314396Y-16475888D01*
X9314396Y-16475888D02*
X9304872Y-16456841D01*
X9304872Y-16456841D02*
X9285825Y-16447317D01*
X9285825Y-16447317D02*
X9257253Y-16447317D01*
X9257253Y-16447317D02*
X9238206Y-16437793D01*
X9238206Y-16437793D02*
X9228682Y-16418746D01*
X9228682Y-16418746D02*
X9228682Y-16409222D01*
X9228682Y-16409222D02*
X9238206Y-16390174D01*
X9238206Y-16390174D02*
X9257253Y-16380650D01*
X9257253Y-16380650D02*
X9285825Y-16380650D01*
X9285825Y-16380650D02*
X9304872Y-16390174D01*
X9381063Y-16590174D02*
X9390587Y-16580650D01*
X9390587Y-16580650D02*
X9409634Y-16552079D01*
X9409634Y-16552079D02*
X9419158Y-16533031D01*
X9419158Y-16533031D02*
X9428682Y-16504460D01*
X9428682Y-16504460D02*
X9438206Y-16456841D01*
X9438206Y-16456841D02*
X9438206Y-16418746D01*
X9438206Y-16418746D02*
X9428682Y-16371126D01*
X9428682Y-16371126D02*
X9419158Y-16342555D01*
X9419158Y-16342555D02*
X9409634Y-16323507D01*
X9409634Y-16323507D02*
X9390587Y-16294936D01*
X9390587Y-16294936D02*
X9381063Y-16285412D01*
X4576711Y-16813211D02*
X4576711Y-16671788D01*
X4435288Y-16671788D01*
X4435288Y-16813211D01*
X4576711Y-16813211D01*
X4952491Y-16633984D02*
X4914396Y-16633984D01*
X4914396Y-16633984D02*
X4895348Y-16643507D01*
X4895348Y-16643507D02*
X4885824Y-16653031D01*
X4885824Y-16653031D02*
X4866777Y-16681603D01*
X4866777Y-16681603D02*
X4857253Y-16719698D01*
X4857253Y-16719698D02*
X4857253Y-16795888D01*
X4857253Y-16795888D02*
X4866777Y-16814936D01*
X4866777Y-16814936D02*
X4876300Y-16824460D01*
X4876300Y-16824460D02*
X4895348Y-16833984D01*
X4895348Y-16833984D02*
X4933443Y-16833984D01*
X4933443Y-16833984D02*
X4952491Y-16824460D01*
X4952491Y-16824460D02*
X4962015Y-16814936D01*
X4962015Y-16814936D02*
X4971539Y-16795888D01*
X4971539Y-16795888D02*
X4971539Y-16748269D01*
X4971539Y-16748269D02*
X4962015Y-16729222D01*
X4962015Y-16729222D02*
X4952491Y-16719698D01*
X4952491Y-16719698D02*
X4933443Y-16710174D01*
X4933443Y-16710174D02*
X4895348Y-16710174D01*
X4895348Y-16710174D02*
X4876300Y-16719698D01*
X4876300Y-16719698D02*
X4866777Y-16729222D01*
X4866777Y-16729222D02*
X4857253Y-16748269D01*
X5057253Y-16814936D02*
X5066777Y-16824460D01*
X5066777Y-16824460D02*
X5057253Y-16833984D01*
X5057253Y-16833984D02*
X5047729Y-16824460D01*
X5047729Y-16824460D02*
X5057253Y-16814936D01*
X5057253Y-16814936D02*
X5057253Y-16833984D01*
X5181062Y-16719698D02*
X5162015Y-16710174D01*
X5162015Y-16710174D02*
X5152491Y-16700650D01*
X5152491Y-16700650D02*
X5142967Y-16681603D01*
X5142967Y-16681603D02*
X5142967Y-16672079D01*
X5142967Y-16672079D02*
X5152491Y-16653031D01*
X5152491Y-16653031D02*
X5162015Y-16643507D01*
X5162015Y-16643507D02*
X5181062Y-16633984D01*
X5181062Y-16633984D02*
X5219158Y-16633984D01*
X5219158Y-16633984D02*
X5238205Y-16643507D01*
X5238205Y-16643507D02*
X5247729Y-16653031D01*
X5247729Y-16653031D02*
X5257253Y-16672079D01*
X5257253Y-16672079D02*
X5257253Y-16681603D01*
X5257253Y-16681603D02*
X5247729Y-16700650D01*
X5247729Y-16700650D02*
X5238205Y-16710174D01*
X5238205Y-16710174D02*
X5219158Y-16719698D01*
X5219158Y-16719698D02*
X5181062Y-16719698D01*
X5181062Y-16719698D02*
X5162015Y-16729222D01*
X5162015Y-16729222D02*
X5152491Y-16738746D01*
X5152491Y-16738746D02*
X5142967Y-16757793D01*
X5142967Y-16757793D02*
X5142967Y-16795888D01*
X5142967Y-16795888D02*
X5152491Y-16814936D01*
X5152491Y-16814936D02*
X5162015Y-16824460D01*
X5162015Y-16824460D02*
X5181062Y-16833984D01*
X5181062Y-16833984D02*
X5219158Y-16833984D01*
X5219158Y-16833984D02*
X5238205Y-16824460D01*
X5238205Y-16824460D02*
X5247729Y-16814936D01*
X5247729Y-16814936D02*
X5257253Y-16795888D01*
X5257253Y-16795888D02*
X5257253Y-16757793D01*
X5257253Y-16757793D02*
X5247729Y-16738746D01*
X5247729Y-16738746D02*
X5238205Y-16729222D01*
X5238205Y-16729222D02*
X5219158Y-16719698D01*
X5381062Y-16633984D02*
X5400110Y-16633984D01*
X5400110Y-16633984D02*
X5419158Y-16643507D01*
X5419158Y-16643507D02*
X5428681Y-16653031D01*
X5428681Y-16653031D02*
X5438205Y-16672079D01*
X5438205Y-16672079D02*
X5447729Y-16710174D01*
X5447729Y-16710174D02*
X5447729Y-16757793D01*
X5447729Y-16757793D02*
X5438205Y-16795888D01*
X5438205Y-16795888D02*
X5428681Y-16814936D01*
X5428681Y-16814936D02*
X5419158Y-16824460D01*
X5419158Y-16824460D02*
X5400110Y-16833984D01*
X5400110Y-16833984D02*
X5381062Y-16833984D01*
X5381062Y-16833984D02*
X5362015Y-16824460D01*
X5362015Y-16824460D02*
X5352491Y-16814936D01*
X5352491Y-16814936D02*
X5342967Y-16795888D01*
X5342967Y-16795888D02*
X5333443Y-16757793D01*
X5333443Y-16757793D02*
X5333443Y-16710174D01*
X5333443Y-16710174D02*
X5342967Y-16672079D01*
X5342967Y-16672079D02*
X5352491Y-16653031D01*
X5352491Y-16653031D02*
X5362015Y-16643507D01*
X5362015Y-16643507D02*
X5381062Y-16633984D01*
X5571539Y-16633984D02*
X5590586Y-16633984D01*
X5590586Y-16633984D02*
X5609634Y-16643507D01*
X5609634Y-16643507D02*
X5619158Y-16653031D01*
X5619158Y-16653031D02*
X5628681Y-16672079D01*
X5628681Y-16672079D02*
X5638205Y-16710174D01*
X5638205Y-16710174D02*
X5638205Y-16757793D01*
X5638205Y-16757793D02*
X5628681Y-16795888D01*
X5628681Y-16795888D02*
X5619158Y-16814936D01*
X5619158Y-16814936D02*
X5609634Y-16824460D01*
X5609634Y-16824460D02*
X5590586Y-16833984D01*
X5590586Y-16833984D02*
X5571539Y-16833984D01*
X5571539Y-16833984D02*
X5552491Y-16824460D01*
X5552491Y-16824460D02*
X5542967Y-16814936D01*
X5542967Y-16814936D02*
X5533443Y-16795888D01*
X5533443Y-16795888D02*
X5523920Y-16757793D01*
X5523920Y-16757793D02*
X5523920Y-16710174D01*
X5523920Y-16710174D02*
X5533443Y-16672079D01*
X5533443Y-16672079D02*
X5542967Y-16653031D01*
X5542967Y-16653031D02*
X5552491Y-16643507D01*
X5552491Y-16643507D02*
X5571539Y-16633984D01*
X5723919Y-16833984D02*
X5723919Y-16700650D01*
X5723919Y-16719698D02*
X5733443Y-16710174D01*
X5733443Y-16710174D02*
X5752491Y-16700650D01*
X5752491Y-16700650D02*
X5781062Y-16700650D01*
X5781062Y-16700650D02*
X5800110Y-16710174D01*
X5800110Y-16710174D02*
X5809634Y-16729222D01*
X5809634Y-16729222D02*
X5809634Y-16833984D01*
X5809634Y-16729222D02*
X5819158Y-16710174D01*
X5819158Y-16710174D02*
X5838205Y-16700650D01*
X5838205Y-16700650D02*
X5866777Y-16700650D01*
X5866777Y-16700650D02*
X5885824Y-16710174D01*
X5885824Y-16710174D02*
X5895348Y-16729222D01*
X5895348Y-16729222D02*
X5895348Y-16833984D01*
X5990586Y-16833984D02*
X5990586Y-16700650D01*
X5990586Y-16719698D02*
X6000110Y-16710174D01*
X6000110Y-16710174D02*
X6019158Y-16700650D01*
X6019158Y-16700650D02*
X6047729Y-16700650D01*
X6047729Y-16700650D02*
X6066777Y-16710174D01*
X6066777Y-16710174D02*
X6076300Y-16729222D01*
X6076300Y-16729222D02*
X6076300Y-16833984D01*
X6076300Y-16729222D02*
X6085824Y-16710174D01*
X6085824Y-16710174D02*
X6104872Y-16700650D01*
X6104872Y-16700650D02*
X6133443Y-16700650D01*
X6133443Y-16700650D02*
X6152491Y-16710174D01*
X6152491Y-16710174D02*
X6162015Y-16729222D01*
X6162015Y-16729222D02*
X6162015Y-16833984D01*
X6552491Y-16624460D02*
X6381062Y-16881603D01*
X6809634Y-16633984D02*
X6828682Y-16633984D01*
X6828682Y-16633984D02*
X6847729Y-16643507D01*
X6847729Y-16643507D02*
X6857253Y-16653031D01*
X6857253Y-16653031D02*
X6866777Y-16672079D01*
X6866777Y-16672079D02*
X6876301Y-16710174D01*
X6876301Y-16710174D02*
X6876301Y-16757793D01*
X6876301Y-16757793D02*
X6866777Y-16795888D01*
X6866777Y-16795888D02*
X6857253Y-16814936D01*
X6857253Y-16814936D02*
X6847729Y-16824460D01*
X6847729Y-16824460D02*
X6828682Y-16833984D01*
X6828682Y-16833984D02*
X6809634Y-16833984D01*
X6809634Y-16833984D02*
X6790586Y-16824460D01*
X6790586Y-16824460D02*
X6781062Y-16814936D01*
X6781062Y-16814936D02*
X6771539Y-16795888D01*
X6771539Y-16795888D02*
X6762015Y-16757793D01*
X6762015Y-16757793D02*
X6762015Y-16710174D01*
X6762015Y-16710174D02*
X6771539Y-16672079D01*
X6771539Y-16672079D02*
X6781062Y-16653031D01*
X6781062Y-16653031D02*
X6790586Y-16643507D01*
X6790586Y-16643507D02*
X6809634Y-16633984D01*
X6962015Y-16814936D02*
X6971539Y-16824460D01*
X6971539Y-16824460D02*
X6962015Y-16833984D01*
X6962015Y-16833984D02*
X6952491Y-16824460D01*
X6952491Y-16824460D02*
X6962015Y-16814936D01*
X6962015Y-16814936D02*
X6962015Y-16833984D01*
X7047729Y-16653031D02*
X7057253Y-16643507D01*
X7057253Y-16643507D02*
X7076301Y-16633984D01*
X7076301Y-16633984D02*
X7123920Y-16633984D01*
X7123920Y-16633984D02*
X7142967Y-16643507D01*
X7142967Y-16643507D02*
X7152491Y-16653031D01*
X7152491Y-16653031D02*
X7162015Y-16672079D01*
X7162015Y-16672079D02*
X7162015Y-16691126D01*
X7162015Y-16691126D02*
X7152491Y-16719698D01*
X7152491Y-16719698D02*
X7038205Y-16833984D01*
X7038205Y-16833984D02*
X7162015Y-16833984D01*
X7333443Y-16633984D02*
X7295348Y-16633984D01*
X7295348Y-16633984D02*
X7276301Y-16643507D01*
X7276301Y-16643507D02*
X7266777Y-16653031D01*
X7266777Y-16653031D02*
X7247729Y-16681603D01*
X7247729Y-16681603D02*
X7238205Y-16719698D01*
X7238205Y-16719698D02*
X7238205Y-16795888D01*
X7238205Y-16795888D02*
X7247729Y-16814936D01*
X7247729Y-16814936D02*
X7257253Y-16824460D01*
X7257253Y-16824460D02*
X7276301Y-16833984D01*
X7276301Y-16833984D02*
X7314396Y-16833984D01*
X7314396Y-16833984D02*
X7333443Y-16824460D01*
X7333443Y-16824460D02*
X7342967Y-16814936D01*
X7342967Y-16814936D02*
X7352491Y-16795888D01*
X7352491Y-16795888D02*
X7352491Y-16748269D01*
X7352491Y-16748269D02*
X7342967Y-16729222D01*
X7342967Y-16729222D02*
X7333443Y-16719698D01*
X7333443Y-16719698D02*
X7314396Y-16710174D01*
X7314396Y-16710174D02*
X7276301Y-16710174D01*
X7276301Y-16710174D02*
X7257253Y-16719698D01*
X7257253Y-16719698D02*
X7247729Y-16729222D01*
X7247729Y-16729222D02*
X7238205Y-16748269D01*
X7419158Y-16633984D02*
X7552491Y-16633984D01*
X7552491Y-16633984D02*
X7466777Y-16833984D01*
X7609634Y-16633984D02*
X7742967Y-16633984D01*
X7742967Y-16633984D02*
X7657253Y-16833984D01*
X7809634Y-16633984D02*
X7809634Y-16672079D01*
X7885824Y-16633984D02*
X7885824Y-16672079D01*
X8181063Y-16910174D02*
X8171539Y-16900650D01*
X8171539Y-16900650D02*
X8152491Y-16872079D01*
X8152491Y-16872079D02*
X8142967Y-16853031D01*
X8142967Y-16853031D02*
X8133444Y-16824460D01*
X8133444Y-16824460D02*
X8123920Y-16776841D01*
X8123920Y-16776841D02*
X8123920Y-16738746D01*
X8123920Y-16738746D02*
X8133444Y-16691126D01*
X8133444Y-16691126D02*
X8142967Y-16662555D01*
X8142967Y-16662555D02*
X8152491Y-16643507D01*
X8152491Y-16643507D02*
X8171539Y-16614936D01*
X8171539Y-16614936D02*
X8181063Y-16605412D01*
X8342967Y-16700650D02*
X8342967Y-16833984D01*
X8295348Y-16624460D02*
X8247729Y-16767317D01*
X8247729Y-16767317D02*
X8371539Y-16767317D01*
X8600110Y-16833984D02*
X8600110Y-16633984D01*
X8685825Y-16833984D02*
X8685825Y-16729222D01*
X8685825Y-16729222D02*
X8676301Y-16710174D01*
X8676301Y-16710174D02*
X8657253Y-16700650D01*
X8657253Y-16700650D02*
X8628682Y-16700650D01*
X8628682Y-16700650D02*
X8609634Y-16710174D01*
X8609634Y-16710174D02*
X8600110Y-16719698D01*
X8809634Y-16833984D02*
X8790587Y-16824460D01*
X8790587Y-16824460D02*
X8781063Y-16814936D01*
X8781063Y-16814936D02*
X8771539Y-16795888D01*
X8771539Y-16795888D02*
X8771539Y-16738746D01*
X8771539Y-16738746D02*
X8781063Y-16719698D01*
X8781063Y-16719698D02*
X8790587Y-16710174D01*
X8790587Y-16710174D02*
X8809634Y-16700650D01*
X8809634Y-16700650D02*
X8838206Y-16700650D01*
X8838206Y-16700650D02*
X8857253Y-16710174D01*
X8857253Y-16710174D02*
X8866777Y-16719698D01*
X8866777Y-16719698D02*
X8876301Y-16738746D01*
X8876301Y-16738746D02*
X8876301Y-16795888D01*
X8876301Y-16795888D02*
X8866777Y-16814936D01*
X8866777Y-16814936D02*
X8857253Y-16824460D01*
X8857253Y-16824460D02*
X8838206Y-16833984D01*
X8838206Y-16833984D02*
X8809634Y-16833984D01*
X8990587Y-16833984D02*
X8971539Y-16824460D01*
X8971539Y-16824460D02*
X8962015Y-16805412D01*
X8962015Y-16805412D02*
X8962015Y-16633984D01*
X9142968Y-16824460D02*
X9123920Y-16833984D01*
X9123920Y-16833984D02*
X9085825Y-16833984D01*
X9085825Y-16833984D02*
X9066777Y-16824460D01*
X9066777Y-16824460D02*
X9057253Y-16805412D01*
X9057253Y-16805412D02*
X9057253Y-16729222D01*
X9057253Y-16729222D02*
X9066777Y-16710174D01*
X9066777Y-16710174D02*
X9085825Y-16700650D01*
X9085825Y-16700650D02*
X9123920Y-16700650D01*
X9123920Y-16700650D02*
X9142968Y-16710174D01*
X9142968Y-16710174D02*
X9152491Y-16729222D01*
X9152491Y-16729222D02*
X9152491Y-16748269D01*
X9152491Y-16748269D02*
X9057253Y-16767317D01*
X9228682Y-16824460D02*
X9247729Y-16833984D01*
X9247729Y-16833984D02*
X9285825Y-16833984D01*
X9285825Y-16833984D02*
X9304872Y-16824460D01*
X9304872Y-16824460D02*
X9314396Y-16805412D01*
X9314396Y-16805412D02*
X9314396Y-16795888D01*
X9314396Y-16795888D02*
X9304872Y-16776841D01*
X9304872Y-16776841D02*
X9285825Y-16767317D01*
X9285825Y-16767317D02*
X9257253Y-16767317D01*
X9257253Y-16767317D02*
X9238206Y-16757793D01*
X9238206Y-16757793D02*
X9228682Y-16738746D01*
X9228682Y-16738746D02*
X9228682Y-16729222D01*
X9228682Y-16729222D02*
X9238206Y-16710174D01*
X9238206Y-16710174D02*
X9257253Y-16700650D01*
X9257253Y-16700650D02*
X9285825Y-16700650D01*
X9285825Y-16700650D02*
X9304872Y-16710174D01*
X9381063Y-16910174D02*
X9390587Y-16900650D01*
X9390587Y-16900650D02*
X9409634Y-16872079D01*
X9409634Y-16872079D02*
X9419158Y-16853031D01*
X9419158Y-16853031D02*
X9428682Y-16824460D01*
X9428682Y-16824460D02*
X9438206Y-16776841D01*
X9438206Y-16776841D02*
X9438206Y-16738746D01*
X9438206Y-16738746D02*
X9428682Y-16691126D01*
X9428682Y-16691126D02*
X9419158Y-16662555D01*
X9419158Y-16662555D02*
X9409634Y-16643507D01*
X9409634Y-16643507D02*
X9390587Y-16614936D01*
X9390587Y-16614936D02*
X9381063Y-16605412D01*
M02*
