G04 #@! TF.GenerationSoftware,KiCad,Pcbnew,7.0.1.1-36-gbcf78dbe24-dirty-deb11*
G04 #@! TF.CreationDate,2023-04-09T19:39:31+00:00*
G04 #@! TF.ProjectId,RP2040-VCO,52503230-3430-42d5-9643-4f2e6b696361,rev?*
G04 #@! TF.SameCoordinates,Original*
G04 #@! TF.FileFunction,Legend,Bot*
G04 #@! TF.FilePolarity,Positive*
%FSLAX46Y46*%
G04 Gerber Fmt 4.6, Leading zero omitted, Abs format (unit mm)*
G04 Created by KiCad (PCBNEW 7.0.1.1-36-gbcf78dbe24-dirty-deb11) date 2023-04-09 19:39:31*
%MOMM*%
%LPD*%
G01*
G04 APERTURE LIST*
%ADD10C,0.150000*%
%ADD11C,0.300000*%
%ADD12O,6.700000X4.200000*%
G04 APERTURE END LIST*
D10*
X122857143Y-37438809D02*
X123190476Y-37438809D01*
X123190476Y-37962619D02*
X123190476Y-36962619D01*
X123190476Y-36962619D02*
X122714286Y-36962619D01*
X122333333Y-37962619D02*
X122333333Y-37295952D01*
X122333333Y-37486428D02*
X122285714Y-37391190D01*
X122285714Y-37391190D02*
X122238095Y-37343571D01*
X122238095Y-37343571D02*
X122142857Y-37295952D01*
X122142857Y-37295952D02*
X122047619Y-37295952D01*
X121571428Y-37962619D02*
X121666666Y-37915000D01*
X121666666Y-37915000D02*
X121714285Y-37867380D01*
X121714285Y-37867380D02*
X121761904Y-37772142D01*
X121761904Y-37772142D02*
X121761904Y-37486428D01*
X121761904Y-37486428D02*
X121714285Y-37391190D01*
X121714285Y-37391190D02*
X121666666Y-37343571D01*
X121666666Y-37343571D02*
X121571428Y-37295952D01*
X121571428Y-37295952D02*
X121428571Y-37295952D01*
X121428571Y-37295952D02*
X121333333Y-37343571D01*
X121333333Y-37343571D02*
X121285714Y-37391190D01*
X121285714Y-37391190D02*
X121238095Y-37486428D01*
X121238095Y-37486428D02*
X121238095Y-37772142D01*
X121238095Y-37772142D02*
X121285714Y-37867380D01*
X121285714Y-37867380D02*
X121333333Y-37915000D01*
X121333333Y-37915000D02*
X121428571Y-37962619D01*
X121428571Y-37962619D02*
X121571428Y-37962619D01*
X120809523Y-37295952D02*
X120809523Y-37962619D01*
X120809523Y-37391190D02*
X120761904Y-37343571D01*
X120761904Y-37343571D02*
X120666666Y-37295952D01*
X120666666Y-37295952D02*
X120523809Y-37295952D01*
X120523809Y-37295952D02*
X120428571Y-37343571D01*
X120428571Y-37343571D02*
X120380952Y-37438809D01*
X120380952Y-37438809D02*
X120380952Y-37962619D01*
X120047618Y-37295952D02*
X119666666Y-37295952D01*
X119904761Y-36962619D02*
X119904761Y-37819761D01*
X119904761Y-37819761D02*
X119857142Y-37915000D01*
X119857142Y-37915000D02*
X119761904Y-37962619D01*
X119761904Y-37962619D02*
X119666666Y-37962619D01*
D11*
X112693928Y-66071428D02*
X113765357Y-66071428D01*
X113765357Y-66071428D02*
X113979642Y-65999999D01*
X113979642Y-65999999D02*
X114122500Y-65857142D01*
X114122500Y-65857142D02*
X114193928Y-65642856D01*
X114193928Y-65642856D02*
X114193928Y-65499999D01*
X114193928Y-67499999D02*
X114193928Y-66785713D01*
X114193928Y-66785713D02*
X112693928Y-66785713D01*
X114051071Y-68857142D02*
X114122500Y-68785714D01*
X114122500Y-68785714D02*
X114193928Y-68571428D01*
X114193928Y-68571428D02*
X114193928Y-68428571D01*
X114193928Y-68428571D02*
X114122500Y-68214285D01*
X114122500Y-68214285D02*
X113979642Y-68071428D01*
X113979642Y-68071428D02*
X113836785Y-67999999D01*
X113836785Y-67999999D02*
X113551071Y-67928571D01*
X113551071Y-67928571D02*
X113336785Y-67928571D01*
X113336785Y-67928571D02*
X113051071Y-67999999D01*
X113051071Y-67999999D02*
X112908214Y-68071428D01*
X112908214Y-68071428D02*
X112765357Y-68214285D01*
X112765357Y-68214285D02*
X112693928Y-68428571D01*
X112693928Y-68428571D02*
X112693928Y-68571428D01*
X112693928Y-68571428D02*
X112765357Y-68785714D01*
X112765357Y-68785714D02*
X112836785Y-68857142D01*
X112693928Y-69928571D02*
X113765357Y-69928571D01*
X113765357Y-69928571D02*
X113979642Y-69857142D01*
X113979642Y-69857142D02*
X114122500Y-69714285D01*
X114122500Y-69714285D02*
X114193928Y-69499999D01*
X114193928Y-69499999D02*
X114193928Y-69357142D01*
X114193928Y-71357142D02*
X114193928Y-70642856D01*
X114193928Y-70642856D02*
X112693928Y-70642856D01*
X114051071Y-72714285D02*
X114122500Y-72642857D01*
X114122500Y-72642857D02*
X114193928Y-72428571D01*
X114193928Y-72428571D02*
X114193928Y-72285714D01*
X114193928Y-72285714D02*
X114122500Y-72071428D01*
X114122500Y-72071428D02*
X113979642Y-71928571D01*
X113979642Y-71928571D02*
X113836785Y-71857142D01*
X113836785Y-71857142D02*
X113551071Y-71785714D01*
X113551071Y-71785714D02*
X113336785Y-71785714D01*
X113336785Y-71785714D02*
X113051071Y-71857142D01*
X113051071Y-71857142D02*
X112908214Y-71928571D01*
X112908214Y-71928571D02*
X112765357Y-72071428D01*
X112765357Y-72071428D02*
X112693928Y-72285714D01*
X112693928Y-72285714D02*
X112693928Y-72428571D01*
X112693928Y-72428571D02*
X112765357Y-72642857D01*
X112765357Y-72642857D02*
X112836785Y-72714285D01*
X112693928Y-73785714D02*
X113765357Y-73785714D01*
X113765357Y-73785714D02*
X113979642Y-73714285D01*
X113979642Y-73714285D02*
X114122500Y-73571428D01*
X114122500Y-73571428D02*
X114193928Y-73357142D01*
X114193928Y-73357142D02*
X114193928Y-73214285D01*
X114193928Y-75214285D02*
X114193928Y-74499999D01*
X114193928Y-74499999D02*
X112693928Y-74499999D01*
X114051071Y-76571428D02*
X114122500Y-76500000D01*
X114122500Y-76500000D02*
X114193928Y-76285714D01*
X114193928Y-76285714D02*
X114193928Y-76142857D01*
X114193928Y-76142857D02*
X114122500Y-75928571D01*
X114122500Y-75928571D02*
X113979642Y-75785714D01*
X113979642Y-75785714D02*
X113836785Y-75714285D01*
X113836785Y-75714285D02*
X113551071Y-75642857D01*
X113551071Y-75642857D02*
X113336785Y-75642857D01*
X113336785Y-75642857D02*
X113051071Y-75714285D01*
X113051071Y-75714285D02*
X112908214Y-75785714D01*
X112908214Y-75785714D02*
X112765357Y-75928571D01*
X112765357Y-75928571D02*
X112693928Y-76142857D01*
X112693928Y-76142857D02*
X112693928Y-76285714D01*
X112693928Y-76285714D02*
X112765357Y-76500000D01*
X112765357Y-76500000D02*
X112836785Y-76571428D01*
X112693928Y-77642857D02*
X113765357Y-77642857D01*
X113765357Y-77642857D02*
X113979642Y-77571428D01*
X113979642Y-77571428D02*
X114122500Y-77428571D01*
X114122500Y-77428571D02*
X114193928Y-77214285D01*
X114193928Y-77214285D02*
X114193928Y-77071428D01*
X114193928Y-79071428D02*
X114193928Y-78357142D01*
X114193928Y-78357142D02*
X112693928Y-78357142D01*
X114051071Y-80428571D02*
X114122500Y-80357143D01*
X114122500Y-80357143D02*
X114193928Y-80142857D01*
X114193928Y-80142857D02*
X114193928Y-80000000D01*
X114193928Y-80000000D02*
X114122500Y-79785714D01*
X114122500Y-79785714D02*
X113979642Y-79642857D01*
X113979642Y-79642857D02*
X113836785Y-79571428D01*
X113836785Y-79571428D02*
X113551071Y-79500000D01*
X113551071Y-79500000D02*
X113336785Y-79500000D01*
X113336785Y-79500000D02*
X113051071Y-79571428D01*
X113051071Y-79571428D02*
X112908214Y-79642857D01*
X112908214Y-79642857D02*
X112765357Y-79785714D01*
X112765357Y-79785714D02*
X112693928Y-80000000D01*
X112693928Y-80000000D02*
X112693928Y-80142857D01*
X112693928Y-80142857D02*
X112765357Y-80357143D01*
X112765357Y-80357143D02*
X112836785Y-80428571D01*
D10*
X125428571Y-101742619D02*
X125761904Y-101266428D01*
X125999999Y-101742619D02*
X125999999Y-100742619D01*
X125999999Y-100742619D02*
X125619047Y-100742619D01*
X125619047Y-100742619D02*
X125523809Y-100790238D01*
X125523809Y-100790238D02*
X125476190Y-100837857D01*
X125476190Y-100837857D02*
X125428571Y-100933095D01*
X125428571Y-100933095D02*
X125428571Y-101075952D01*
X125428571Y-101075952D02*
X125476190Y-101171190D01*
X125476190Y-101171190D02*
X125523809Y-101218809D01*
X125523809Y-101218809D02*
X125619047Y-101266428D01*
X125619047Y-101266428D02*
X125999999Y-101266428D01*
X124999999Y-101742619D02*
X124999999Y-100742619D01*
X124999999Y-100742619D02*
X124619047Y-100742619D01*
X124619047Y-100742619D02*
X124523809Y-100790238D01*
X124523809Y-100790238D02*
X124476190Y-100837857D01*
X124476190Y-100837857D02*
X124428571Y-100933095D01*
X124428571Y-100933095D02*
X124428571Y-101075952D01*
X124428571Y-101075952D02*
X124476190Y-101171190D01*
X124476190Y-101171190D02*
X124523809Y-101218809D01*
X124523809Y-101218809D02*
X124619047Y-101266428D01*
X124619047Y-101266428D02*
X124999999Y-101266428D01*
X124047618Y-100837857D02*
X123999999Y-100790238D01*
X123999999Y-100790238D02*
X123904761Y-100742619D01*
X123904761Y-100742619D02*
X123666666Y-100742619D01*
X123666666Y-100742619D02*
X123571428Y-100790238D01*
X123571428Y-100790238D02*
X123523809Y-100837857D01*
X123523809Y-100837857D02*
X123476190Y-100933095D01*
X123476190Y-100933095D02*
X123476190Y-101028333D01*
X123476190Y-101028333D02*
X123523809Y-101171190D01*
X123523809Y-101171190D02*
X124095237Y-101742619D01*
X124095237Y-101742619D02*
X123476190Y-101742619D01*
X122857142Y-100742619D02*
X122761904Y-100742619D01*
X122761904Y-100742619D02*
X122666666Y-100790238D01*
X122666666Y-100790238D02*
X122619047Y-100837857D01*
X122619047Y-100837857D02*
X122571428Y-100933095D01*
X122571428Y-100933095D02*
X122523809Y-101123571D01*
X122523809Y-101123571D02*
X122523809Y-101361666D01*
X122523809Y-101361666D02*
X122571428Y-101552142D01*
X122571428Y-101552142D02*
X122619047Y-101647380D01*
X122619047Y-101647380D02*
X122666666Y-101695000D01*
X122666666Y-101695000D02*
X122761904Y-101742619D01*
X122761904Y-101742619D02*
X122857142Y-101742619D01*
X122857142Y-101742619D02*
X122952380Y-101695000D01*
X122952380Y-101695000D02*
X122999999Y-101647380D01*
X122999999Y-101647380D02*
X123047618Y-101552142D01*
X123047618Y-101552142D02*
X123095237Y-101361666D01*
X123095237Y-101361666D02*
X123095237Y-101123571D01*
X123095237Y-101123571D02*
X123047618Y-100933095D01*
X123047618Y-100933095D02*
X122999999Y-100837857D01*
X122999999Y-100837857D02*
X122952380Y-100790238D01*
X122952380Y-100790238D02*
X122857142Y-100742619D01*
X121666666Y-101075952D02*
X121666666Y-101742619D01*
X121904761Y-100695000D02*
X122142856Y-101409285D01*
X122142856Y-101409285D02*
X121523809Y-101409285D01*
X120952380Y-100742619D02*
X120857142Y-100742619D01*
X120857142Y-100742619D02*
X120761904Y-100790238D01*
X120761904Y-100790238D02*
X120714285Y-100837857D01*
X120714285Y-100837857D02*
X120666666Y-100933095D01*
X120666666Y-100933095D02*
X120619047Y-101123571D01*
X120619047Y-101123571D02*
X120619047Y-101361666D01*
X120619047Y-101361666D02*
X120666666Y-101552142D01*
X120666666Y-101552142D02*
X120714285Y-101647380D01*
X120714285Y-101647380D02*
X120761904Y-101695000D01*
X120761904Y-101695000D02*
X120857142Y-101742619D01*
X120857142Y-101742619D02*
X120952380Y-101742619D01*
X120952380Y-101742619D02*
X121047618Y-101695000D01*
X121047618Y-101695000D02*
X121095237Y-101647380D01*
X121095237Y-101647380D02*
X121142856Y-101552142D01*
X121142856Y-101552142D02*
X121190475Y-101361666D01*
X121190475Y-101361666D02*
X121190475Y-101123571D01*
X121190475Y-101123571D02*
X121142856Y-100933095D01*
X121142856Y-100933095D02*
X121095237Y-100837857D01*
X121095237Y-100837857D02*
X121047618Y-100790238D01*
X121047618Y-100790238D02*
X120952380Y-100742619D01*
X119571427Y-100742619D02*
X119238094Y-101742619D01*
X119238094Y-101742619D02*
X118904761Y-100742619D01*
X117999999Y-101647380D02*
X118047618Y-101695000D01*
X118047618Y-101695000D02*
X118190475Y-101742619D01*
X118190475Y-101742619D02*
X118285713Y-101742619D01*
X118285713Y-101742619D02*
X118428570Y-101695000D01*
X118428570Y-101695000D02*
X118523808Y-101599761D01*
X118523808Y-101599761D02*
X118571427Y-101504523D01*
X118571427Y-101504523D02*
X118619046Y-101314047D01*
X118619046Y-101314047D02*
X118619046Y-101171190D01*
X118619046Y-101171190D02*
X118571427Y-100980714D01*
X118571427Y-100980714D02*
X118523808Y-100885476D01*
X118523808Y-100885476D02*
X118428570Y-100790238D01*
X118428570Y-100790238D02*
X118285713Y-100742619D01*
X118285713Y-100742619D02*
X118190475Y-100742619D01*
X118190475Y-100742619D02*
X118047618Y-100790238D01*
X118047618Y-100790238D02*
X117999999Y-100837857D01*
X117380951Y-100742619D02*
X117190475Y-100742619D01*
X117190475Y-100742619D02*
X117095237Y-100790238D01*
X117095237Y-100790238D02*
X116999999Y-100885476D01*
X116999999Y-100885476D02*
X116952380Y-101075952D01*
X116952380Y-101075952D02*
X116952380Y-101409285D01*
X116952380Y-101409285D02*
X116999999Y-101599761D01*
X116999999Y-101599761D02*
X117095237Y-101695000D01*
X117095237Y-101695000D02*
X117190475Y-101742619D01*
X117190475Y-101742619D02*
X117380951Y-101742619D01*
X117380951Y-101742619D02*
X117476189Y-101695000D01*
X117476189Y-101695000D02*
X117571427Y-101599761D01*
X117571427Y-101599761D02*
X117619046Y-101409285D01*
X117619046Y-101409285D02*
X117619046Y-101075952D01*
X117619046Y-101075952D02*
X117571427Y-100885476D01*
X117571427Y-100885476D02*
X117476189Y-100790238D01*
X117476189Y-100790238D02*
X117380951Y-100742619D01*
X127761904Y-102362619D02*
X127428571Y-103362619D01*
X127428571Y-103362619D02*
X127095238Y-102362619D01*
X126238095Y-103362619D02*
X126809523Y-103362619D01*
X126523809Y-103362619D02*
X126523809Y-102362619D01*
X126523809Y-102362619D02*
X126619047Y-102505476D01*
X126619047Y-102505476D02*
X126714285Y-102600714D01*
X126714285Y-102600714D02*
X126809523Y-102648333D01*
X125809523Y-103267380D02*
X125761904Y-103315000D01*
X125761904Y-103315000D02*
X125809523Y-103362619D01*
X125809523Y-103362619D02*
X125857142Y-103315000D01*
X125857142Y-103315000D02*
X125809523Y-103267380D01*
X125809523Y-103267380D02*
X125809523Y-103362619D01*
X124809524Y-103362619D02*
X125380952Y-103362619D01*
X125095238Y-103362619D02*
X125095238Y-102362619D01*
X125095238Y-102362619D02*
X125190476Y-102505476D01*
X125190476Y-102505476D02*
X125285714Y-102600714D01*
X125285714Y-102600714D02*
X125380952Y-102648333D01*
X123285714Y-102838809D02*
X123142857Y-102886428D01*
X123142857Y-102886428D02*
X123095238Y-102934047D01*
X123095238Y-102934047D02*
X123047619Y-103029285D01*
X123047619Y-103029285D02*
X123047619Y-103172142D01*
X123047619Y-103172142D02*
X123095238Y-103267380D01*
X123095238Y-103267380D02*
X123142857Y-103315000D01*
X123142857Y-103315000D02*
X123238095Y-103362619D01*
X123238095Y-103362619D02*
X123619047Y-103362619D01*
X123619047Y-103362619D02*
X123619047Y-102362619D01*
X123619047Y-102362619D02*
X123285714Y-102362619D01*
X123285714Y-102362619D02*
X123190476Y-102410238D01*
X123190476Y-102410238D02*
X123142857Y-102457857D01*
X123142857Y-102457857D02*
X123095238Y-102553095D01*
X123095238Y-102553095D02*
X123095238Y-102648333D01*
X123095238Y-102648333D02*
X123142857Y-102743571D01*
X123142857Y-102743571D02*
X123190476Y-102791190D01*
X123190476Y-102791190D02*
X123285714Y-102838809D01*
X123285714Y-102838809D02*
X123619047Y-102838809D01*
X122476190Y-103362619D02*
X122571428Y-103315000D01*
X122571428Y-103315000D02*
X122619047Y-103219761D01*
X122619047Y-103219761D02*
X122619047Y-102362619D01*
X121714285Y-103315000D02*
X121809523Y-103362619D01*
X121809523Y-103362619D02*
X121999999Y-103362619D01*
X121999999Y-103362619D02*
X122095237Y-103315000D01*
X122095237Y-103315000D02*
X122142856Y-103219761D01*
X122142856Y-103219761D02*
X122142856Y-102838809D01*
X122142856Y-102838809D02*
X122095237Y-102743571D01*
X122095237Y-102743571D02*
X121999999Y-102695952D01*
X121999999Y-102695952D02*
X121809523Y-102695952D01*
X121809523Y-102695952D02*
X121714285Y-102743571D01*
X121714285Y-102743571D02*
X121666666Y-102838809D01*
X121666666Y-102838809D02*
X121666666Y-102934047D01*
X121666666Y-102934047D02*
X122142856Y-103029285D01*
X120857142Y-103315000D02*
X120952380Y-103362619D01*
X120952380Y-103362619D02*
X121142856Y-103362619D01*
X121142856Y-103362619D02*
X121238094Y-103315000D01*
X121238094Y-103315000D02*
X121285713Y-103219761D01*
X121285713Y-103219761D02*
X121285713Y-102838809D01*
X121285713Y-102838809D02*
X121238094Y-102743571D01*
X121238094Y-102743571D02*
X121142856Y-102695952D01*
X121142856Y-102695952D02*
X120952380Y-102695952D01*
X120952380Y-102695952D02*
X120857142Y-102743571D01*
X120857142Y-102743571D02*
X120809523Y-102838809D01*
X120809523Y-102838809D02*
X120809523Y-102934047D01*
X120809523Y-102934047D02*
X121285713Y-103029285D01*
X120380951Y-102695952D02*
X120380951Y-103695952D01*
X120380951Y-102743571D02*
X120285713Y-102695952D01*
X120285713Y-102695952D02*
X120095237Y-102695952D01*
X120095237Y-102695952D02*
X119999999Y-102743571D01*
X119999999Y-102743571D02*
X119952380Y-102791190D01*
X119952380Y-102791190D02*
X119904761Y-102886428D01*
X119904761Y-102886428D02*
X119904761Y-103172142D01*
X119904761Y-103172142D02*
X119952380Y-103267380D01*
X119952380Y-103267380D02*
X119999999Y-103315000D01*
X119999999Y-103315000D02*
X120095237Y-103362619D01*
X120095237Y-103362619D02*
X120285713Y-103362619D01*
X120285713Y-103362619D02*
X120380951Y-103315000D01*
X119523808Y-103315000D02*
X119380951Y-103362619D01*
X119380951Y-103362619D02*
X119142856Y-103362619D01*
X119142856Y-103362619D02*
X119047618Y-103315000D01*
X119047618Y-103315000D02*
X118999999Y-103267380D01*
X118999999Y-103267380D02*
X118952380Y-103172142D01*
X118952380Y-103172142D02*
X118952380Y-103076904D01*
X118952380Y-103076904D02*
X118999999Y-102981666D01*
X118999999Y-102981666D02*
X119047618Y-102934047D01*
X119047618Y-102934047D02*
X119142856Y-102886428D01*
X119142856Y-102886428D02*
X119333332Y-102838809D01*
X119333332Y-102838809D02*
X119428570Y-102791190D01*
X119428570Y-102791190D02*
X119476189Y-102743571D01*
X119476189Y-102743571D02*
X119523808Y-102648333D01*
X119523808Y-102648333D02*
X119523808Y-102553095D01*
X119523808Y-102553095D02*
X119476189Y-102457857D01*
X119476189Y-102457857D02*
X119428570Y-102410238D01*
X119428570Y-102410238D02*
X119333332Y-102362619D01*
X119333332Y-102362619D02*
X119095237Y-102362619D01*
X119095237Y-102362619D02*
X118952380Y-102410238D01*
X118380951Y-103362619D02*
X118476189Y-103315000D01*
X118476189Y-103315000D02*
X118523808Y-103267380D01*
X118523808Y-103267380D02*
X118571427Y-103172142D01*
X118571427Y-103172142D02*
X118571427Y-102886428D01*
X118571427Y-102886428D02*
X118523808Y-102791190D01*
X118523808Y-102791190D02*
X118476189Y-102743571D01*
X118476189Y-102743571D02*
X118380951Y-102695952D01*
X118380951Y-102695952D02*
X118238094Y-102695952D01*
X118238094Y-102695952D02*
X118142856Y-102743571D01*
X118142856Y-102743571D02*
X118095237Y-102791190D01*
X118095237Y-102791190D02*
X118047618Y-102886428D01*
X118047618Y-102886428D02*
X118047618Y-103172142D01*
X118047618Y-103172142D02*
X118095237Y-103267380D01*
X118095237Y-103267380D02*
X118142856Y-103315000D01*
X118142856Y-103315000D02*
X118238094Y-103362619D01*
X118238094Y-103362619D02*
X118380951Y-103362619D01*
X117190475Y-102695952D02*
X117190475Y-103362619D01*
X117619046Y-102695952D02*
X117619046Y-103219761D01*
X117619046Y-103219761D02*
X117571427Y-103315000D01*
X117571427Y-103315000D02*
X117476189Y-103362619D01*
X117476189Y-103362619D02*
X117333332Y-103362619D01*
X117333332Y-103362619D02*
X117238094Y-103315000D01*
X117238094Y-103315000D02*
X117190475Y-103267380D01*
X116714284Y-102695952D02*
X116714284Y-103362619D01*
X116714284Y-102791190D02*
X116666665Y-102743571D01*
X116666665Y-102743571D02*
X116571427Y-102695952D01*
X116571427Y-102695952D02*
X116428570Y-102695952D01*
X116428570Y-102695952D02*
X116333332Y-102743571D01*
X116333332Y-102743571D02*
X116285713Y-102838809D01*
X116285713Y-102838809D02*
X116285713Y-103362619D01*
X115380951Y-103362619D02*
X115380951Y-102362619D01*
X115380951Y-103315000D02*
X115476189Y-103362619D01*
X115476189Y-103362619D02*
X115666665Y-103362619D01*
X115666665Y-103362619D02*
X115761903Y-103315000D01*
X115761903Y-103315000D02*
X115809522Y-103267380D01*
X115809522Y-103267380D02*
X115857141Y-103172142D01*
X115857141Y-103172142D02*
X115857141Y-102886428D01*
X115857141Y-102886428D02*
X115809522Y-102791190D01*
X115809522Y-102791190D02*
X115761903Y-102743571D01*
X115761903Y-102743571D02*
X115666665Y-102695952D01*
X115666665Y-102695952D02*
X115476189Y-102695952D01*
X115476189Y-102695952D02*
X115380951Y-102743571D01*
X123214285Y-104077857D02*
X123166666Y-104030238D01*
X123166666Y-104030238D02*
X123071428Y-103982619D01*
X123071428Y-103982619D02*
X122833333Y-103982619D01*
X122833333Y-103982619D02*
X122738095Y-104030238D01*
X122738095Y-104030238D02*
X122690476Y-104077857D01*
X122690476Y-104077857D02*
X122642857Y-104173095D01*
X122642857Y-104173095D02*
X122642857Y-104268333D01*
X122642857Y-104268333D02*
X122690476Y-104411190D01*
X122690476Y-104411190D02*
X123261904Y-104982619D01*
X123261904Y-104982619D02*
X122642857Y-104982619D01*
X122023809Y-103982619D02*
X121928571Y-103982619D01*
X121928571Y-103982619D02*
X121833333Y-104030238D01*
X121833333Y-104030238D02*
X121785714Y-104077857D01*
X121785714Y-104077857D02*
X121738095Y-104173095D01*
X121738095Y-104173095D02*
X121690476Y-104363571D01*
X121690476Y-104363571D02*
X121690476Y-104601666D01*
X121690476Y-104601666D02*
X121738095Y-104792142D01*
X121738095Y-104792142D02*
X121785714Y-104887380D01*
X121785714Y-104887380D02*
X121833333Y-104935000D01*
X121833333Y-104935000D02*
X121928571Y-104982619D01*
X121928571Y-104982619D02*
X122023809Y-104982619D01*
X122023809Y-104982619D02*
X122119047Y-104935000D01*
X122119047Y-104935000D02*
X122166666Y-104887380D01*
X122166666Y-104887380D02*
X122214285Y-104792142D01*
X122214285Y-104792142D02*
X122261904Y-104601666D01*
X122261904Y-104601666D02*
X122261904Y-104363571D01*
X122261904Y-104363571D02*
X122214285Y-104173095D01*
X122214285Y-104173095D02*
X122166666Y-104077857D01*
X122166666Y-104077857D02*
X122119047Y-104030238D01*
X122119047Y-104030238D02*
X122023809Y-103982619D01*
X121309523Y-104077857D02*
X121261904Y-104030238D01*
X121261904Y-104030238D02*
X121166666Y-103982619D01*
X121166666Y-103982619D02*
X120928571Y-103982619D01*
X120928571Y-103982619D02*
X120833333Y-104030238D01*
X120833333Y-104030238D02*
X120785714Y-104077857D01*
X120785714Y-104077857D02*
X120738095Y-104173095D01*
X120738095Y-104173095D02*
X120738095Y-104268333D01*
X120738095Y-104268333D02*
X120785714Y-104411190D01*
X120785714Y-104411190D02*
X121357142Y-104982619D01*
X121357142Y-104982619D02*
X120738095Y-104982619D01*
X120404761Y-103982619D02*
X119785714Y-103982619D01*
X119785714Y-103982619D02*
X120119047Y-104363571D01*
X120119047Y-104363571D02*
X119976190Y-104363571D01*
X119976190Y-104363571D02*
X119880952Y-104411190D01*
X119880952Y-104411190D02*
X119833333Y-104458809D01*
X119833333Y-104458809D02*
X119785714Y-104554047D01*
X119785714Y-104554047D02*
X119785714Y-104792142D01*
X119785714Y-104792142D02*
X119833333Y-104887380D01*
X119833333Y-104887380D02*
X119880952Y-104935000D01*
X119880952Y-104935000D02*
X119976190Y-104982619D01*
X119976190Y-104982619D02*
X120261904Y-104982619D01*
X120261904Y-104982619D02*
X120357142Y-104935000D01*
X120357142Y-104935000D02*
X120404761Y-104887380D01*
X125428571Y-33342619D02*
X125761904Y-32866428D01*
X125999999Y-33342619D02*
X125999999Y-32342619D01*
X125999999Y-32342619D02*
X125619047Y-32342619D01*
X125619047Y-32342619D02*
X125523809Y-32390238D01*
X125523809Y-32390238D02*
X125476190Y-32437857D01*
X125476190Y-32437857D02*
X125428571Y-32533095D01*
X125428571Y-32533095D02*
X125428571Y-32675952D01*
X125428571Y-32675952D02*
X125476190Y-32771190D01*
X125476190Y-32771190D02*
X125523809Y-32818809D01*
X125523809Y-32818809D02*
X125619047Y-32866428D01*
X125619047Y-32866428D02*
X125999999Y-32866428D01*
X124999999Y-33342619D02*
X124999999Y-32342619D01*
X124999999Y-32342619D02*
X124619047Y-32342619D01*
X124619047Y-32342619D02*
X124523809Y-32390238D01*
X124523809Y-32390238D02*
X124476190Y-32437857D01*
X124476190Y-32437857D02*
X124428571Y-32533095D01*
X124428571Y-32533095D02*
X124428571Y-32675952D01*
X124428571Y-32675952D02*
X124476190Y-32771190D01*
X124476190Y-32771190D02*
X124523809Y-32818809D01*
X124523809Y-32818809D02*
X124619047Y-32866428D01*
X124619047Y-32866428D02*
X124999999Y-32866428D01*
X124047618Y-32437857D02*
X123999999Y-32390238D01*
X123999999Y-32390238D02*
X123904761Y-32342619D01*
X123904761Y-32342619D02*
X123666666Y-32342619D01*
X123666666Y-32342619D02*
X123571428Y-32390238D01*
X123571428Y-32390238D02*
X123523809Y-32437857D01*
X123523809Y-32437857D02*
X123476190Y-32533095D01*
X123476190Y-32533095D02*
X123476190Y-32628333D01*
X123476190Y-32628333D02*
X123523809Y-32771190D01*
X123523809Y-32771190D02*
X124095237Y-33342619D01*
X124095237Y-33342619D02*
X123476190Y-33342619D01*
X122857142Y-32342619D02*
X122761904Y-32342619D01*
X122761904Y-32342619D02*
X122666666Y-32390238D01*
X122666666Y-32390238D02*
X122619047Y-32437857D01*
X122619047Y-32437857D02*
X122571428Y-32533095D01*
X122571428Y-32533095D02*
X122523809Y-32723571D01*
X122523809Y-32723571D02*
X122523809Y-32961666D01*
X122523809Y-32961666D02*
X122571428Y-33152142D01*
X122571428Y-33152142D02*
X122619047Y-33247380D01*
X122619047Y-33247380D02*
X122666666Y-33295000D01*
X122666666Y-33295000D02*
X122761904Y-33342619D01*
X122761904Y-33342619D02*
X122857142Y-33342619D01*
X122857142Y-33342619D02*
X122952380Y-33295000D01*
X122952380Y-33295000D02*
X122999999Y-33247380D01*
X122999999Y-33247380D02*
X123047618Y-33152142D01*
X123047618Y-33152142D02*
X123095237Y-32961666D01*
X123095237Y-32961666D02*
X123095237Y-32723571D01*
X123095237Y-32723571D02*
X123047618Y-32533095D01*
X123047618Y-32533095D02*
X122999999Y-32437857D01*
X122999999Y-32437857D02*
X122952380Y-32390238D01*
X122952380Y-32390238D02*
X122857142Y-32342619D01*
X121666666Y-32675952D02*
X121666666Y-33342619D01*
X121904761Y-32295000D02*
X122142856Y-33009285D01*
X122142856Y-33009285D02*
X121523809Y-33009285D01*
X120952380Y-32342619D02*
X120857142Y-32342619D01*
X120857142Y-32342619D02*
X120761904Y-32390238D01*
X120761904Y-32390238D02*
X120714285Y-32437857D01*
X120714285Y-32437857D02*
X120666666Y-32533095D01*
X120666666Y-32533095D02*
X120619047Y-32723571D01*
X120619047Y-32723571D02*
X120619047Y-32961666D01*
X120619047Y-32961666D02*
X120666666Y-33152142D01*
X120666666Y-33152142D02*
X120714285Y-33247380D01*
X120714285Y-33247380D02*
X120761904Y-33295000D01*
X120761904Y-33295000D02*
X120857142Y-33342619D01*
X120857142Y-33342619D02*
X120952380Y-33342619D01*
X120952380Y-33342619D02*
X121047618Y-33295000D01*
X121047618Y-33295000D02*
X121095237Y-33247380D01*
X121095237Y-33247380D02*
X121142856Y-33152142D01*
X121142856Y-33152142D02*
X121190475Y-32961666D01*
X121190475Y-32961666D02*
X121190475Y-32723571D01*
X121190475Y-32723571D02*
X121142856Y-32533095D01*
X121142856Y-32533095D02*
X121095237Y-32437857D01*
X121095237Y-32437857D02*
X121047618Y-32390238D01*
X121047618Y-32390238D02*
X120952380Y-32342619D01*
X119571427Y-32342619D02*
X119238094Y-33342619D01*
X119238094Y-33342619D02*
X118904761Y-32342619D01*
X117999999Y-33247380D02*
X118047618Y-33295000D01*
X118047618Y-33295000D02*
X118190475Y-33342619D01*
X118190475Y-33342619D02*
X118285713Y-33342619D01*
X118285713Y-33342619D02*
X118428570Y-33295000D01*
X118428570Y-33295000D02*
X118523808Y-33199761D01*
X118523808Y-33199761D02*
X118571427Y-33104523D01*
X118571427Y-33104523D02*
X118619046Y-32914047D01*
X118619046Y-32914047D02*
X118619046Y-32771190D01*
X118619046Y-32771190D02*
X118571427Y-32580714D01*
X118571427Y-32580714D02*
X118523808Y-32485476D01*
X118523808Y-32485476D02*
X118428570Y-32390238D01*
X118428570Y-32390238D02*
X118285713Y-32342619D01*
X118285713Y-32342619D02*
X118190475Y-32342619D01*
X118190475Y-32342619D02*
X118047618Y-32390238D01*
X118047618Y-32390238D02*
X117999999Y-32437857D01*
X117380951Y-32342619D02*
X117190475Y-32342619D01*
X117190475Y-32342619D02*
X117095237Y-32390238D01*
X117095237Y-32390238D02*
X116999999Y-32485476D01*
X116999999Y-32485476D02*
X116952380Y-32675952D01*
X116952380Y-32675952D02*
X116952380Y-33009285D01*
X116952380Y-33009285D02*
X116999999Y-33199761D01*
X116999999Y-33199761D02*
X117095237Y-33295000D01*
X117095237Y-33295000D02*
X117190475Y-33342619D01*
X117190475Y-33342619D02*
X117380951Y-33342619D01*
X117380951Y-33342619D02*
X117476189Y-33295000D01*
X117476189Y-33295000D02*
X117571427Y-33199761D01*
X117571427Y-33199761D02*
X117619046Y-33009285D01*
X117619046Y-33009285D02*
X117619046Y-32675952D01*
X117619046Y-32675952D02*
X117571427Y-32485476D01*
X117571427Y-32485476D02*
X117476189Y-32390238D01*
X117476189Y-32390238D02*
X117380951Y-32342619D01*
X127761904Y-33962619D02*
X127428571Y-34962619D01*
X127428571Y-34962619D02*
X127095238Y-33962619D01*
X126238095Y-34962619D02*
X126809523Y-34962619D01*
X126523809Y-34962619D02*
X126523809Y-33962619D01*
X126523809Y-33962619D02*
X126619047Y-34105476D01*
X126619047Y-34105476D02*
X126714285Y-34200714D01*
X126714285Y-34200714D02*
X126809523Y-34248333D01*
X125809523Y-34867380D02*
X125761904Y-34915000D01*
X125761904Y-34915000D02*
X125809523Y-34962619D01*
X125809523Y-34962619D02*
X125857142Y-34915000D01*
X125857142Y-34915000D02*
X125809523Y-34867380D01*
X125809523Y-34867380D02*
X125809523Y-34962619D01*
X125142857Y-33962619D02*
X125047619Y-33962619D01*
X125047619Y-33962619D02*
X124952381Y-34010238D01*
X124952381Y-34010238D02*
X124904762Y-34057857D01*
X124904762Y-34057857D02*
X124857143Y-34153095D01*
X124857143Y-34153095D02*
X124809524Y-34343571D01*
X124809524Y-34343571D02*
X124809524Y-34581666D01*
X124809524Y-34581666D02*
X124857143Y-34772142D01*
X124857143Y-34772142D02*
X124904762Y-34867380D01*
X124904762Y-34867380D02*
X124952381Y-34915000D01*
X124952381Y-34915000D02*
X125047619Y-34962619D01*
X125047619Y-34962619D02*
X125142857Y-34962619D01*
X125142857Y-34962619D02*
X125238095Y-34915000D01*
X125238095Y-34915000D02*
X125285714Y-34867380D01*
X125285714Y-34867380D02*
X125333333Y-34772142D01*
X125333333Y-34772142D02*
X125380952Y-34581666D01*
X125380952Y-34581666D02*
X125380952Y-34343571D01*
X125380952Y-34343571D02*
X125333333Y-34153095D01*
X125333333Y-34153095D02*
X125285714Y-34057857D01*
X125285714Y-34057857D02*
X125238095Y-34010238D01*
X125238095Y-34010238D02*
X125142857Y-33962619D01*
X123285714Y-34438809D02*
X123142857Y-34486428D01*
X123142857Y-34486428D02*
X123095238Y-34534047D01*
X123095238Y-34534047D02*
X123047619Y-34629285D01*
X123047619Y-34629285D02*
X123047619Y-34772142D01*
X123047619Y-34772142D02*
X123095238Y-34867380D01*
X123095238Y-34867380D02*
X123142857Y-34915000D01*
X123142857Y-34915000D02*
X123238095Y-34962619D01*
X123238095Y-34962619D02*
X123619047Y-34962619D01*
X123619047Y-34962619D02*
X123619047Y-33962619D01*
X123619047Y-33962619D02*
X123285714Y-33962619D01*
X123285714Y-33962619D02*
X123190476Y-34010238D01*
X123190476Y-34010238D02*
X123142857Y-34057857D01*
X123142857Y-34057857D02*
X123095238Y-34153095D01*
X123095238Y-34153095D02*
X123095238Y-34248333D01*
X123095238Y-34248333D02*
X123142857Y-34343571D01*
X123142857Y-34343571D02*
X123190476Y-34391190D01*
X123190476Y-34391190D02*
X123285714Y-34438809D01*
X123285714Y-34438809D02*
X123619047Y-34438809D01*
X122476190Y-34962619D02*
X122571428Y-34915000D01*
X122571428Y-34915000D02*
X122619047Y-34819761D01*
X122619047Y-34819761D02*
X122619047Y-33962619D01*
X121714285Y-34915000D02*
X121809523Y-34962619D01*
X121809523Y-34962619D02*
X121999999Y-34962619D01*
X121999999Y-34962619D02*
X122095237Y-34915000D01*
X122095237Y-34915000D02*
X122142856Y-34819761D01*
X122142856Y-34819761D02*
X122142856Y-34438809D01*
X122142856Y-34438809D02*
X122095237Y-34343571D01*
X122095237Y-34343571D02*
X121999999Y-34295952D01*
X121999999Y-34295952D02*
X121809523Y-34295952D01*
X121809523Y-34295952D02*
X121714285Y-34343571D01*
X121714285Y-34343571D02*
X121666666Y-34438809D01*
X121666666Y-34438809D02*
X121666666Y-34534047D01*
X121666666Y-34534047D02*
X122142856Y-34629285D01*
X120857142Y-34915000D02*
X120952380Y-34962619D01*
X120952380Y-34962619D02*
X121142856Y-34962619D01*
X121142856Y-34962619D02*
X121238094Y-34915000D01*
X121238094Y-34915000D02*
X121285713Y-34819761D01*
X121285713Y-34819761D02*
X121285713Y-34438809D01*
X121285713Y-34438809D02*
X121238094Y-34343571D01*
X121238094Y-34343571D02*
X121142856Y-34295952D01*
X121142856Y-34295952D02*
X120952380Y-34295952D01*
X120952380Y-34295952D02*
X120857142Y-34343571D01*
X120857142Y-34343571D02*
X120809523Y-34438809D01*
X120809523Y-34438809D02*
X120809523Y-34534047D01*
X120809523Y-34534047D02*
X121285713Y-34629285D01*
X120380951Y-34295952D02*
X120380951Y-35295952D01*
X120380951Y-34343571D02*
X120285713Y-34295952D01*
X120285713Y-34295952D02*
X120095237Y-34295952D01*
X120095237Y-34295952D02*
X119999999Y-34343571D01*
X119999999Y-34343571D02*
X119952380Y-34391190D01*
X119952380Y-34391190D02*
X119904761Y-34486428D01*
X119904761Y-34486428D02*
X119904761Y-34772142D01*
X119904761Y-34772142D02*
X119952380Y-34867380D01*
X119952380Y-34867380D02*
X119999999Y-34915000D01*
X119999999Y-34915000D02*
X120095237Y-34962619D01*
X120095237Y-34962619D02*
X120285713Y-34962619D01*
X120285713Y-34962619D02*
X120380951Y-34915000D01*
X119523808Y-34915000D02*
X119380951Y-34962619D01*
X119380951Y-34962619D02*
X119142856Y-34962619D01*
X119142856Y-34962619D02*
X119047618Y-34915000D01*
X119047618Y-34915000D02*
X118999999Y-34867380D01*
X118999999Y-34867380D02*
X118952380Y-34772142D01*
X118952380Y-34772142D02*
X118952380Y-34676904D01*
X118952380Y-34676904D02*
X118999999Y-34581666D01*
X118999999Y-34581666D02*
X119047618Y-34534047D01*
X119047618Y-34534047D02*
X119142856Y-34486428D01*
X119142856Y-34486428D02*
X119333332Y-34438809D01*
X119333332Y-34438809D02*
X119428570Y-34391190D01*
X119428570Y-34391190D02*
X119476189Y-34343571D01*
X119476189Y-34343571D02*
X119523808Y-34248333D01*
X119523808Y-34248333D02*
X119523808Y-34153095D01*
X119523808Y-34153095D02*
X119476189Y-34057857D01*
X119476189Y-34057857D02*
X119428570Y-34010238D01*
X119428570Y-34010238D02*
X119333332Y-33962619D01*
X119333332Y-33962619D02*
X119095237Y-33962619D01*
X119095237Y-33962619D02*
X118952380Y-34010238D01*
X118380951Y-34962619D02*
X118476189Y-34915000D01*
X118476189Y-34915000D02*
X118523808Y-34867380D01*
X118523808Y-34867380D02*
X118571427Y-34772142D01*
X118571427Y-34772142D02*
X118571427Y-34486428D01*
X118571427Y-34486428D02*
X118523808Y-34391190D01*
X118523808Y-34391190D02*
X118476189Y-34343571D01*
X118476189Y-34343571D02*
X118380951Y-34295952D01*
X118380951Y-34295952D02*
X118238094Y-34295952D01*
X118238094Y-34295952D02*
X118142856Y-34343571D01*
X118142856Y-34343571D02*
X118095237Y-34391190D01*
X118095237Y-34391190D02*
X118047618Y-34486428D01*
X118047618Y-34486428D02*
X118047618Y-34772142D01*
X118047618Y-34772142D02*
X118095237Y-34867380D01*
X118095237Y-34867380D02*
X118142856Y-34915000D01*
X118142856Y-34915000D02*
X118238094Y-34962619D01*
X118238094Y-34962619D02*
X118380951Y-34962619D01*
X117190475Y-34295952D02*
X117190475Y-34962619D01*
X117619046Y-34295952D02*
X117619046Y-34819761D01*
X117619046Y-34819761D02*
X117571427Y-34915000D01*
X117571427Y-34915000D02*
X117476189Y-34962619D01*
X117476189Y-34962619D02*
X117333332Y-34962619D01*
X117333332Y-34962619D02*
X117238094Y-34915000D01*
X117238094Y-34915000D02*
X117190475Y-34867380D01*
X116714284Y-34295952D02*
X116714284Y-34962619D01*
X116714284Y-34391190D02*
X116666665Y-34343571D01*
X116666665Y-34343571D02*
X116571427Y-34295952D01*
X116571427Y-34295952D02*
X116428570Y-34295952D01*
X116428570Y-34295952D02*
X116333332Y-34343571D01*
X116333332Y-34343571D02*
X116285713Y-34438809D01*
X116285713Y-34438809D02*
X116285713Y-34962619D01*
X115380951Y-34962619D02*
X115380951Y-33962619D01*
X115380951Y-34915000D02*
X115476189Y-34962619D01*
X115476189Y-34962619D02*
X115666665Y-34962619D01*
X115666665Y-34962619D02*
X115761903Y-34915000D01*
X115761903Y-34915000D02*
X115809522Y-34867380D01*
X115809522Y-34867380D02*
X115857141Y-34772142D01*
X115857141Y-34772142D02*
X115857141Y-34486428D01*
X115857141Y-34486428D02*
X115809522Y-34391190D01*
X115809522Y-34391190D02*
X115761903Y-34343571D01*
X115761903Y-34343571D02*
X115666665Y-34295952D01*
X115666665Y-34295952D02*
X115476189Y-34295952D01*
X115476189Y-34295952D02*
X115380951Y-34343571D01*
X123214285Y-35677857D02*
X123166666Y-35630238D01*
X123166666Y-35630238D02*
X123071428Y-35582619D01*
X123071428Y-35582619D02*
X122833333Y-35582619D01*
X122833333Y-35582619D02*
X122738095Y-35630238D01*
X122738095Y-35630238D02*
X122690476Y-35677857D01*
X122690476Y-35677857D02*
X122642857Y-35773095D01*
X122642857Y-35773095D02*
X122642857Y-35868333D01*
X122642857Y-35868333D02*
X122690476Y-36011190D01*
X122690476Y-36011190D02*
X123261904Y-36582619D01*
X123261904Y-36582619D02*
X122642857Y-36582619D01*
X122023809Y-35582619D02*
X121928571Y-35582619D01*
X121928571Y-35582619D02*
X121833333Y-35630238D01*
X121833333Y-35630238D02*
X121785714Y-35677857D01*
X121785714Y-35677857D02*
X121738095Y-35773095D01*
X121738095Y-35773095D02*
X121690476Y-35963571D01*
X121690476Y-35963571D02*
X121690476Y-36201666D01*
X121690476Y-36201666D02*
X121738095Y-36392142D01*
X121738095Y-36392142D02*
X121785714Y-36487380D01*
X121785714Y-36487380D02*
X121833333Y-36535000D01*
X121833333Y-36535000D02*
X121928571Y-36582619D01*
X121928571Y-36582619D02*
X122023809Y-36582619D01*
X122023809Y-36582619D02*
X122119047Y-36535000D01*
X122119047Y-36535000D02*
X122166666Y-36487380D01*
X122166666Y-36487380D02*
X122214285Y-36392142D01*
X122214285Y-36392142D02*
X122261904Y-36201666D01*
X122261904Y-36201666D02*
X122261904Y-35963571D01*
X122261904Y-35963571D02*
X122214285Y-35773095D01*
X122214285Y-35773095D02*
X122166666Y-35677857D01*
X122166666Y-35677857D02*
X122119047Y-35630238D01*
X122119047Y-35630238D02*
X122023809Y-35582619D01*
X121309523Y-35677857D02*
X121261904Y-35630238D01*
X121261904Y-35630238D02*
X121166666Y-35582619D01*
X121166666Y-35582619D02*
X120928571Y-35582619D01*
X120928571Y-35582619D02*
X120833333Y-35630238D01*
X120833333Y-35630238D02*
X120785714Y-35677857D01*
X120785714Y-35677857D02*
X120738095Y-35773095D01*
X120738095Y-35773095D02*
X120738095Y-35868333D01*
X120738095Y-35868333D02*
X120785714Y-36011190D01*
X120785714Y-36011190D02*
X121357142Y-36582619D01*
X121357142Y-36582619D02*
X120738095Y-36582619D01*
X120404761Y-35582619D02*
X119785714Y-35582619D01*
X119785714Y-35582619D02*
X120119047Y-35963571D01*
X120119047Y-35963571D02*
X119976190Y-35963571D01*
X119976190Y-35963571D02*
X119880952Y-36011190D01*
X119880952Y-36011190D02*
X119833333Y-36058809D01*
X119833333Y-36058809D02*
X119785714Y-36154047D01*
X119785714Y-36154047D02*
X119785714Y-36392142D01*
X119785714Y-36392142D02*
X119833333Y-36487380D01*
X119833333Y-36487380D02*
X119880952Y-36535000D01*
X119880952Y-36535000D02*
X119976190Y-36582619D01*
X119976190Y-36582619D02*
X120261904Y-36582619D01*
X120261904Y-36582619D02*
X120357142Y-36535000D01*
X120357142Y-36535000D02*
X120404761Y-36487380D01*
%LPC*%
D12*
X116500000Y-30000000D03*
X126500000Y-152500000D03*
M02*
