%TF.GenerationSoftware,KiCad,Pcbnew,8.0.6-8.0.6-0~ubuntu22.04.1*%
%TF.CreationDate,2025-04-15T21:33:34+01:00*%
%TF.ProjectId,RP2040-VCO,52503230-3430-42d5-9643-4f2e6b696361,rev?*%
%TF.SameCoordinates,Original*%
%TF.FileFunction,Drillmap*%
%TF.FilePolarity,Positive*%
%FSLAX45Y45*%
G04 Gerber Fmt 4.5, Leading zero omitted, Abs format (unit mm)*
G04 Created by KiCad (PCBNEW 8.0.6-8.0.6-0~ubuntu22.04.1) date 2025-04-15 21:33:34*
%MOMM*%
%LPD*%
G01*
G04 APERTURE LIST*
%ADD10C,0.050000*%
%ADD11C,0.200000*%
%ADD12C,0.320000*%
G04 APERTURE END LIST*
D10*
X7150000Y-3650000D02*
X7150000Y-14650000D01*
X5150000Y-3650000D02*
X5150000Y-14650000D01*
X5150000Y-14650000D02*
X7150000Y-14650000D01*
X5150000Y-3650000D02*
X7150000Y-3650000D01*
D11*
D12*
X6640000Y-9440000D02*
X6960000Y-9760000D01*
X6960000Y-9440000D02*
X6640000Y-9760000D01*
D11*
X5408277Y-14963984D02*
X5408277Y-14763984D01*
X5408277Y-14763984D02*
X5455896Y-14763984D01*
X5455896Y-14763984D02*
X5484467Y-14773508D01*
X5484467Y-14773508D02*
X5503515Y-14792555D01*
X5503515Y-14792555D02*
X5513039Y-14811603D01*
X5513039Y-14811603D02*
X5522563Y-14849698D01*
X5522563Y-14849698D02*
X5522563Y-14878269D01*
X5522563Y-14878269D02*
X5513039Y-14916365D01*
X5513039Y-14916365D02*
X5503515Y-14935412D01*
X5503515Y-14935412D02*
X5484467Y-14954460D01*
X5484467Y-14954460D02*
X5455896Y-14963984D01*
X5455896Y-14963984D02*
X5408277Y-14963984D01*
X5608277Y-14963984D02*
X5608277Y-14830650D01*
X5608277Y-14868746D02*
X5617801Y-14849698D01*
X5617801Y-14849698D02*
X5627324Y-14840174D01*
X5627324Y-14840174D02*
X5646372Y-14830650D01*
X5646372Y-14830650D02*
X5665420Y-14830650D01*
X5732086Y-14963984D02*
X5732086Y-14830650D01*
X5732086Y-14763984D02*
X5722562Y-14773508D01*
X5722562Y-14773508D02*
X5732086Y-14783031D01*
X5732086Y-14783031D02*
X5741610Y-14773508D01*
X5741610Y-14773508D02*
X5732086Y-14763984D01*
X5732086Y-14763984D02*
X5732086Y-14783031D01*
X5855896Y-14963984D02*
X5836848Y-14954460D01*
X5836848Y-14954460D02*
X5827324Y-14935412D01*
X5827324Y-14935412D02*
X5827324Y-14763984D01*
X5960658Y-14963984D02*
X5941610Y-14954460D01*
X5941610Y-14954460D02*
X5932086Y-14935412D01*
X5932086Y-14935412D02*
X5932086Y-14763984D01*
X6189229Y-14963984D02*
X6189229Y-14763984D01*
X6189229Y-14763984D02*
X6255896Y-14906841D01*
X6255896Y-14906841D02*
X6322562Y-14763984D01*
X6322562Y-14763984D02*
X6322562Y-14963984D01*
X6503515Y-14963984D02*
X6503515Y-14859222D01*
X6503515Y-14859222D02*
X6493991Y-14840174D01*
X6493991Y-14840174D02*
X6474943Y-14830650D01*
X6474943Y-14830650D02*
X6436848Y-14830650D01*
X6436848Y-14830650D02*
X6417801Y-14840174D01*
X6503515Y-14954460D02*
X6484467Y-14963984D01*
X6484467Y-14963984D02*
X6436848Y-14963984D01*
X6436848Y-14963984D02*
X6417801Y-14954460D01*
X6417801Y-14954460D02*
X6408277Y-14935412D01*
X6408277Y-14935412D02*
X6408277Y-14916365D01*
X6408277Y-14916365D02*
X6417801Y-14897317D01*
X6417801Y-14897317D02*
X6436848Y-14887793D01*
X6436848Y-14887793D02*
X6484467Y-14887793D01*
X6484467Y-14887793D02*
X6503515Y-14878269D01*
X6598753Y-14830650D02*
X6598753Y-15030650D01*
X6598753Y-14840174D02*
X6617801Y-14830650D01*
X6617801Y-14830650D02*
X6655896Y-14830650D01*
X6655896Y-14830650D02*
X6674943Y-14840174D01*
X6674943Y-14840174D02*
X6684467Y-14849698D01*
X6684467Y-14849698D02*
X6693991Y-14868746D01*
X6693991Y-14868746D02*
X6693991Y-14925888D01*
X6693991Y-14925888D02*
X6684467Y-14944936D01*
X6684467Y-14944936D02*
X6674943Y-14954460D01*
X6674943Y-14954460D02*
X6655896Y-14963984D01*
X6655896Y-14963984D02*
X6617801Y-14963984D01*
X6617801Y-14963984D02*
X6598753Y-14954460D01*
X6779705Y-14944936D02*
X6789229Y-14954460D01*
X6789229Y-14954460D02*
X6779705Y-14963984D01*
X6779705Y-14963984D02*
X6770182Y-14954460D01*
X6770182Y-14954460D02*
X6779705Y-14944936D01*
X6779705Y-14944936D02*
X6779705Y-14963984D01*
X6779705Y-14840174D02*
X6789229Y-14849698D01*
X6789229Y-14849698D02*
X6779705Y-14859222D01*
X6779705Y-14859222D02*
X6770182Y-14849698D01*
X6770182Y-14849698D02*
X6779705Y-14840174D01*
X6779705Y-14840174D02*
X6779705Y-14859222D01*
X4947500Y-15192500D02*
X5147500Y-15392500D01*
X5147500Y-15192500D02*
X4947500Y-15392500D01*
X5389229Y-15183984D02*
X5513039Y-15183984D01*
X5513039Y-15183984D02*
X5446372Y-15260174D01*
X5446372Y-15260174D02*
X5474944Y-15260174D01*
X5474944Y-15260174D02*
X5493991Y-15269698D01*
X5493991Y-15269698D02*
X5503515Y-15279222D01*
X5503515Y-15279222D02*
X5513039Y-15298269D01*
X5513039Y-15298269D02*
X5513039Y-15345888D01*
X5513039Y-15345888D02*
X5503515Y-15364936D01*
X5503515Y-15364936D02*
X5493991Y-15374460D01*
X5493991Y-15374460D02*
X5474944Y-15383984D01*
X5474944Y-15383984D02*
X5417801Y-15383984D01*
X5417801Y-15383984D02*
X5398753Y-15374460D01*
X5398753Y-15374460D02*
X5389229Y-15364936D01*
X5598753Y-15364936D02*
X5608277Y-15374460D01*
X5608277Y-15374460D02*
X5598753Y-15383984D01*
X5598753Y-15383984D02*
X5589229Y-15374460D01*
X5589229Y-15374460D02*
X5598753Y-15364936D01*
X5598753Y-15364936D02*
X5598753Y-15383984D01*
X5684467Y-15203031D02*
X5693991Y-15193508D01*
X5693991Y-15193508D02*
X5713039Y-15183984D01*
X5713039Y-15183984D02*
X5760658Y-15183984D01*
X5760658Y-15183984D02*
X5779705Y-15193508D01*
X5779705Y-15193508D02*
X5789229Y-15203031D01*
X5789229Y-15203031D02*
X5798753Y-15222079D01*
X5798753Y-15222079D02*
X5798753Y-15241127D01*
X5798753Y-15241127D02*
X5789229Y-15269698D01*
X5789229Y-15269698D02*
X5674943Y-15383984D01*
X5674943Y-15383984D02*
X5798753Y-15383984D01*
X5922562Y-15183984D02*
X5941610Y-15183984D01*
X5941610Y-15183984D02*
X5960658Y-15193508D01*
X5960658Y-15193508D02*
X5970182Y-15203031D01*
X5970182Y-15203031D02*
X5979705Y-15222079D01*
X5979705Y-15222079D02*
X5989229Y-15260174D01*
X5989229Y-15260174D02*
X5989229Y-15307793D01*
X5989229Y-15307793D02*
X5979705Y-15345888D01*
X5979705Y-15345888D02*
X5970182Y-15364936D01*
X5970182Y-15364936D02*
X5960658Y-15374460D01*
X5960658Y-15374460D02*
X5941610Y-15383984D01*
X5941610Y-15383984D02*
X5922562Y-15383984D01*
X5922562Y-15383984D02*
X5903515Y-15374460D01*
X5903515Y-15374460D02*
X5893991Y-15364936D01*
X5893991Y-15364936D02*
X5884467Y-15345888D01*
X5884467Y-15345888D02*
X5874943Y-15307793D01*
X5874943Y-15307793D02*
X5874943Y-15260174D01*
X5874943Y-15260174D02*
X5884467Y-15222079D01*
X5884467Y-15222079D02*
X5893991Y-15203031D01*
X5893991Y-15203031D02*
X5903515Y-15193508D01*
X5903515Y-15193508D02*
X5922562Y-15183984D01*
X6113039Y-15183984D02*
X6132086Y-15183984D01*
X6132086Y-15183984D02*
X6151134Y-15193508D01*
X6151134Y-15193508D02*
X6160658Y-15203031D01*
X6160658Y-15203031D02*
X6170182Y-15222079D01*
X6170182Y-15222079D02*
X6179705Y-15260174D01*
X6179705Y-15260174D02*
X6179705Y-15307793D01*
X6179705Y-15307793D02*
X6170182Y-15345888D01*
X6170182Y-15345888D02*
X6160658Y-15364936D01*
X6160658Y-15364936D02*
X6151134Y-15374460D01*
X6151134Y-15374460D02*
X6132086Y-15383984D01*
X6132086Y-15383984D02*
X6113039Y-15383984D01*
X6113039Y-15383984D02*
X6093991Y-15374460D01*
X6093991Y-15374460D02*
X6084467Y-15364936D01*
X6084467Y-15364936D02*
X6074943Y-15345888D01*
X6074943Y-15345888D02*
X6065420Y-15307793D01*
X6065420Y-15307793D02*
X6065420Y-15260174D01*
X6065420Y-15260174D02*
X6074943Y-15222079D01*
X6074943Y-15222079D02*
X6084467Y-15203031D01*
X6084467Y-15203031D02*
X6093991Y-15193508D01*
X6093991Y-15193508D02*
X6113039Y-15183984D01*
X6265420Y-15383984D02*
X6265420Y-15250650D01*
X6265420Y-15269698D02*
X6274943Y-15260174D01*
X6274943Y-15260174D02*
X6293991Y-15250650D01*
X6293991Y-15250650D02*
X6322563Y-15250650D01*
X6322563Y-15250650D02*
X6341610Y-15260174D01*
X6341610Y-15260174D02*
X6351134Y-15279222D01*
X6351134Y-15279222D02*
X6351134Y-15383984D01*
X6351134Y-15279222D02*
X6360658Y-15260174D01*
X6360658Y-15260174D02*
X6379705Y-15250650D01*
X6379705Y-15250650D02*
X6408277Y-15250650D01*
X6408277Y-15250650D02*
X6427324Y-15260174D01*
X6427324Y-15260174D02*
X6436848Y-15279222D01*
X6436848Y-15279222D02*
X6436848Y-15383984D01*
X6532086Y-15383984D02*
X6532086Y-15250650D01*
X6532086Y-15269698D02*
X6541610Y-15260174D01*
X6541610Y-15260174D02*
X6560658Y-15250650D01*
X6560658Y-15250650D02*
X6589229Y-15250650D01*
X6589229Y-15250650D02*
X6608277Y-15260174D01*
X6608277Y-15260174D02*
X6617801Y-15279222D01*
X6617801Y-15279222D02*
X6617801Y-15383984D01*
X6617801Y-15279222D02*
X6627324Y-15260174D01*
X6627324Y-15260174D02*
X6646372Y-15250650D01*
X6646372Y-15250650D02*
X6674943Y-15250650D01*
X6674943Y-15250650D02*
X6693991Y-15260174D01*
X6693991Y-15260174D02*
X6703515Y-15279222D01*
X6703515Y-15279222D02*
X6703515Y-15383984D01*
X7093991Y-15174460D02*
X6922563Y-15431603D01*
X7351134Y-15183984D02*
X7370182Y-15183984D01*
X7370182Y-15183984D02*
X7389229Y-15193508D01*
X7389229Y-15193508D02*
X7398753Y-15203031D01*
X7398753Y-15203031D02*
X7408277Y-15222079D01*
X7408277Y-15222079D02*
X7417801Y-15260174D01*
X7417801Y-15260174D02*
X7417801Y-15307793D01*
X7417801Y-15307793D02*
X7408277Y-15345888D01*
X7408277Y-15345888D02*
X7398753Y-15364936D01*
X7398753Y-15364936D02*
X7389229Y-15374460D01*
X7389229Y-15374460D02*
X7370182Y-15383984D01*
X7370182Y-15383984D02*
X7351134Y-15383984D01*
X7351134Y-15383984D02*
X7332086Y-15374460D01*
X7332086Y-15374460D02*
X7322563Y-15364936D01*
X7322563Y-15364936D02*
X7313039Y-15345888D01*
X7313039Y-15345888D02*
X7303515Y-15307793D01*
X7303515Y-15307793D02*
X7303515Y-15260174D01*
X7303515Y-15260174D02*
X7313039Y-15222079D01*
X7313039Y-15222079D02*
X7322563Y-15203031D01*
X7322563Y-15203031D02*
X7332086Y-15193508D01*
X7332086Y-15193508D02*
X7351134Y-15183984D01*
X7503515Y-15364936D02*
X7513039Y-15374460D01*
X7513039Y-15374460D02*
X7503515Y-15383984D01*
X7503515Y-15383984D02*
X7493991Y-15374460D01*
X7493991Y-15374460D02*
X7503515Y-15364936D01*
X7503515Y-15364936D02*
X7503515Y-15383984D01*
X7703515Y-15383984D02*
X7589229Y-15383984D01*
X7646372Y-15383984D02*
X7646372Y-15183984D01*
X7646372Y-15183984D02*
X7627325Y-15212555D01*
X7627325Y-15212555D02*
X7608277Y-15231603D01*
X7608277Y-15231603D02*
X7589229Y-15241127D01*
X7779706Y-15203031D02*
X7789229Y-15193508D01*
X7789229Y-15193508D02*
X7808277Y-15183984D01*
X7808277Y-15183984D02*
X7855896Y-15183984D01*
X7855896Y-15183984D02*
X7874944Y-15193508D01*
X7874944Y-15193508D02*
X7884467Y-15203031D01*
X7884467Y-15203031D02*
X7893991Y-15222079D01*
X7893991Y-15222079D02*
X7893991Y-15241127D01*
X7893991Y-15241127D02*
X7884467Y-15269698D01*
X7884467Y-15269698D02*
X7770182Y-15383984D01*
X7770182Y-15383984D02*
X7893991Y-15383984D01*
X8065420Y-15183984D02*
X8027325Y-15183984D01*
X8027325Y-15183984D02*
X8008277Y-15193508D01*
X8008277Y-15193508D02*
X7998753Y-15203031D01*
X7998753Y-15203031D02*
X7979706Y-15231603D01*
X7979706Y-15231603D02*
X7970182Y-15269698D01*
X7970182Y-15269698D02*
X7970182Y-15345888D01*
X7970182Y-15345888D02*
X7979706Y-15364936D01*
X7979706Y-15364936D02*
X7989229Y-15374460D01*
X7989229Y-15374460D02*
X8008277Y-15383984D01*
X8008277Y-15383984D02*
X8046372Y-15383984D01*
X8046372Y-15383984D02*
X8065420Y-15374460D01*
X8065420Y-15374460D02*
X8074944Y-15364936D01*
X8074944Y-15364936D02*
X8084467Y-15345888D01*
X8084467Y-15345888D02*
X8084467Y-15298269D01*
X8084467Y-15298269D02*
X8074944Y-15279222D01*
X8074944Y-15279222D02*
X8065420Y-15269698D01*
X8065420Y-15269698D02*
X8046372Y-15260174D01*
X8046372Y-15260174D02*
X8008277Y-15260174D01*
X8008277Y-15260174D02*
X7989229Y-15269698D01*
X7989229Y-15269698D02*
X7979706Y-15279222D01*
X7979706Y-15279222D02*
X7970182Y-15298269D01*
X8208277Y-15183984D02*
X8227325Y-15183984D01*
X8227325Y-15183984D02*
X8246372Y-15193508D01*
X8246372Y-15193508D02*
X8255896Y-15203031D01*
X8255896Y-15203031D02*
X8265420Y-15222079D01*
X8265420Y-15222079D02*
X8274944Y-15260174D01*
X8274944Y-15260174D02*
X8274944Y-15307793D01*
X8274944Y-15307793D02*
X8265420Y-15345888D01*
X8265420Y-15345888D02*
X8255896Y-15364936D01*
X8255896Y-15364936D02*
X8246372Y-15374460D01*
X8246372Y-15374460D02*
X8227325Y-15383984D01*
X8227325Y-15383984D02*
X8208277Y-15383984D01*
X8208277Y-15383984D02*
X8189229Y-15374460D01*
X8189229Y-15374460D02*
X8179706Y-15364936D01*
X8179706Y-15364936D02*
X8170182Y-15345888D01*
X8170182Y-15345888D02*
X8160658Y-15307793D01*
X8160658Y-15307793D02*
X8160658Y-15260174D01*
X8160658Y-15260174D02*
X8170182Y-15222079D01*
X8170182Y-15222079D02*
X8179706Y-15203031D01*
X8179706Y-15203031D02*
X8189229Y-15193508D01*
X8189229Y-15193508D02*
X8208277Y-15183984D01*
X8351134Y-15183984D02*
X8351134Y-15222079D01*
X8427325Y-15183984D02*
X8427325Y-15222079D01*
X8722563Y-15460174D02*
X8713039Y-15450650D01*
X8713039Y-15450650D02*
X8693991Y-15422079D01*
X8693991Y-15422079D02*
X8684468Y-15403031D01*
X8684468Y-15403031D02*
X8674944Y-15374460D01*
X8674944Y-15374460D02*
X8665420Y-15326841D01*
X8665420Y-15326841D02*
X8665420Y-15288746D01*
X8665420Y-15288746D02*
X8674944Y-15241127D01*
X8674944Y-15241127D02*
X8684468Y-15212555D01*
X8684468Y-15212555D02*
X8693991Y-15193508D01*
X8693991Y-15193508D02*
X8713039Y-15164936D01*
X8713039Y-15164936D02*
X8722563Y-15155412D01*
X8903515Y-15383984D02*
X8789230Y-15383984D01*
X8846372Y-15383984D02*
X8846372Y-15183984D01*
X8846372Y-15183984D02*
X8827325Y-15212555D01*
X8827325Y-15212555D02*
X8808277Y-15231603D01*
X8808277Y-15231603D02*
X8789230Y-15241127D01*
X9141611Y-15383984D02*
X9141611Y-15183984D01*
X9227325Y-15383984D02*
X9227325Y-15279222D01*
X9227325Y-15279222D02*
X9217801Y-15260174D01*
X9217801Y-15260174D02*
X9198753Y-15250650D01*
X9198753Y-15250650D02*
X9170182Y-15250650D01*
X9170182Y-15250650D02*
X9151134Y-15260174D01*
X9151134Y-15260174D02*
X9141611Y-15269698D01*
X9351134Y-15383984D02*
X9332087Y-15374460D01*
X9332087Y-15374460D02*
X9322563Y-15364936D01*
X9322563Y-15364936D02*
X9313039Y-15345888D01*
X9313039Y-15345888D02*
X9313039Y-15288746D01*
X9313039Y-15288746D02*
X9322563Y-15269698D01*
X9322563Y-15269698D02*
X9332087Y-15260174D01*
X9332087Y-15260174D02*
X9351134Y-15250650D01*
X9351134Y-15250650D02*
X9379706Y-15250650D01*
X9379706Y-15250650D02*
X9398753Y-15260174D01*
X9398753Y-15260174D02*
X9408277Y-15269698D01*
X9408277Y-15269698D02*
X9417801Y-15288746D01*
X9417801Y-15288746D02*
X9417801Y-15345888D01*
X9417801Y-15345888D02*
X9408277Y-15364936D01*
X9408277Y-15364936D02*
X9398753Y-15374460D01*
X9398753Y-15374460D02*
X9379706Y-15383984D01*
X9379706Y-15383984D02*
X9351134Y-15383984D01*
X9532087Y-15383984D02*
X9513039Y-15374460D01*
X9513039Y-15374460D02*
X9503515Y-15355412D01*
X9503515Y-15355412D02*
X9503515Y-15183984D01*
X9684468Y-15374460D02*
X9665420Y-15383984D01*
X9665420Y-15383984D02*
X9627325Y-15383984D01*
X9627325Y-15383984D02*
X9608277Y-15374460D01*
X9608277Y-15374460D02*
X9598753Y-15355412D01*
X9598753Y-15355412D02*
X9598753Y-15279222D01*
X9598753Y-15279222D02*
X9608277Y-15260174D01*
X9608277Y-15260174D02*
X9627325Y-15250650D01*
X9627325Y-15250650D02*
X9665420Y-15250650D01*
X9665420Y-15250650D02*
X9684468Y-15260174D01*
X9684468Y-15260174D02*
X9693992Y-15279222D01*
X9693992Y-15279222D02*
X9693992Y-15298269D01*
X9693992Y-15298269D02*
X9598753Y-15317317D01*
X9760658Y-15460174D02*
X9770182Y-15450650D01*
X9770182Y-15450650D02*
X9789230Y-15422079D01*
X9789230Y-15422079D02*
X9798753Y-15403031D01*
X9798753Y-15403031D02*
X9808277Y-15374460D01*
X9808277Y-15374460D02*
X9817801Y-15326841D01*
X9817801Y-15326841D02*
X9817801Y-15288746D01*
X9817801Y-15288746D02*
X9808277Y-15241127D01*
X9808277Y-15241127D02*
X9798753Y-15212555D01*
X9798753Y-15212555D02*
X9789230Y-15193508D01*
X9789230Y-15193508D02*
X9770182Y-15164936D01*
X9770182Y-15164936D02*
X9760658Y-15155412D01*
X10122563Y-15460174D02*
X10113039Y-15450650D01*
X10113039Y-15450650D02*
X10093992Y-15422079D01*
X10093992Y-15422079D02*
X10084468Y-15403031D01*
X10084468Y-15403031D02*
X10074944Y-15374460D01*
X10074944Y-15374460D02*
X10065420Y-15326841D01*
X10065420Y-15326841D02*
X10065420Y-15288746D01*
X10065420Y-15288746D02*
X10074944Y-15241127D01*
X10074944Y-15241127D02*
X10084468Y-15212555D01*
X10084468Y-15212555D02*
X10093992Y-15193508D01*
X10093992Y-15193508D02*
X10113039Y-15164936D01*
X10113039Y-15164936D02*
X10122563Y-15155412D01*
X10198753Y-15250650D02*
X10198753Y-15383984D01*
X10198753Y-15269698D02*
X10208277Y-15260174D01*
X10208277Y-15260174D02*
X10227325Y-15250650D01*
X10227325Y-15250650D02*
X10255896Y-15250650D01*
X10255896Y-15250650D02*
X10274944Y-15260174D01*
X10274944Y-15260174D02*
X10284468Y-15279222D01*
X10284468Y-15279222D02*
X10284468Y-15383984D01*
X10408277Y-15383984D02*
X10389230Y-15374460D01*
X10389230Y-15374460D02*
X10379706Y-15364936D01*
X10379706Y-15364936D02*
X10370182Y-15345888D01*
X10370182Y-15345888D02*
X10370182Y-15288746D01*
X10370182Y-15288746D02*
X10379706Y-15269698D01*
X10379706Y-15269698D02*
X10389230Y-15260174D01*
X10389230Y-15260174D02*
X10408277Y-15250650D01*
X10408277Y-15250650D02*
X10436849Y-15250650D01*
X10436849Y-15250650D02*
X10455896Y-15260174D01*
X10455896Y-15260174D02*
X10465420Y-15269698D01*
X10465420Y-15269698D02*
X10474944Y-15288746D01*
X10474944Y-15288746D02*
X10474944Y-15345888D01*
X10474944Y-15345888D02*
X10465420Y-15364936D01*
X10465420Y-15364936D02*
X10455896Y-15374460D01*
X10455896Y-15374460D02*
X10436849Y-15383984D01*
X10436849Y-15383984D02*
X10408277Y-15383984D01*
X10532087Y-15250650D02*
X10608277Y-15250650D01*
X10560658Y-15183984D02*
X10560658Y-15355412D01*
X10560658Y-15355412D02*
X10570182Y-15374460D01*
X10570182Y-15374460D02*
X10589230Y-15383984D01*
X10589230Y-15383984D02*
X10608277Y-15383984D01*
X10827325Y-15250650D02*
X10827325Y-15450650D01*
X10827325Y-15260174D02*
X10846373Y-15250650D01*
X10846373Y-15250650D02*
X10884468Y-15250650D01*
X10884468Y-15250650D02*
X10903515Y-15260174D01*
X10903515Y-15260174D02*
X10913039Y-15269698D01*
X10913039Y-15269698D02*
X10922563Y-15288746D01*
X10922563Y-15288746D02*
X10922563Y-15345888D01*
X10922563Y-15345888D02*
X10913039Y-15364936D01*
X10913039Y-15364936D02*
X10903515Y-15374460D01*
X10903515Y-15374460D02*
X10884468Y-15383984D01*
X10884468Y-15383984D02*
X10846373Y-15383984D01*
X10846373Y-15383984D02*
X10827325Y-15374460D01*
X11036849Y-15383984D02*
X11017801Y-15374460D01*
X11017801Y-15374460D02*
X11008277Y-15355412D01*
X11008277Y-15355412D02*
X11008277Y-15183984D01*
X11198753Y-15383984D02*
X11198753Y-15279222D01*
X11198753Y-15279222D02*
X11189230Y-15260174D01*
X11189230Y-15260174D02*
X11170182Y-15250650D01*
X11170182Y-15250650D02*
X11132087Y-15250650D01*
X11132087Y-15250650D02*
X11113039Y-15260174D01*
X11198753Y-15374460D02*
X11179706Y-15383984D01*
X11179706Y-15383984D02*
X11132087Y-15383984D01*
X11132087Y-15383984D02*
X11113039Y-15374460D01*
X11113039Y-15374460D02*
X11103515Y-15355412D01*
X11103515Y-15355412D02*
X11103515Y-15336365D01*
X11103515Y-15336365D02*
X11113039Y-15317317D01*
X11113039Y-15317317D02*
X11132087Y-15307793D01*
X11132087Y-15307793D02*
X11179706Y-15307793D01*
X11179706Y-15307793D02*
X11198753Y-15298269D01*
X11265420Y-15250650D02*
X11341611Y-15250650D01*
X11293992Y-15183984D02*
X11293992Y-15355412D01*
X11293992Y-15355412D02*
X11303515Y-15374460D01*
X11303515Y-15374460D02*
X11322563Y-15383984D01*
X11322563Y-15383984D02*
X11341611Y-15383984D01*
X11484468Y-15374460D02*
X11465420Y-15383984D01*
X11465420Y-15383984D02*
X11427325Y-15383984D01*
X11427325Y-15383984D02*
X11408277Y-15374460D01*
X11408277Y-15374460D02*
X11398753Y-15355412D01*
X11398753Y-15355412D02*
X11398753Y-15279222D01*
X11398753Y-15279222D02*
X11408277Y-15260174D01*
X11408277Y-15260174D02*
X11427325Y-15250650D01*
X11427325Y-15250650D02*
X11465420Y-15250650D01*
X11465420Y-15250650D02*
X11484468Y-15260174D01*
X11484468Y-15260174D02*
X11493992Y-15279222D01*
X11493992Y-15279222D02*
X11493992Y-15298269D01*
X11493992Y-15298269D02*
X11398753Y-15317317D01*
X11665420Y-15383984D02*
X11665420Y-15183984D01*
X11665420Y-15374460D02*
X11646373Y-15383984D01*
X11646373Y-15383984D02*
X11608277Y-15383984D01*
X11608277Y-15383984D02*
X11589230Y-15374460D01*
X11589230Y-15374460D02*
X11579706Y-15364936D01*
X11579706Y-15364936D02*
X11570182Y-15345888D01*
X11570182Y-15345888D02*
X11570182Y-15288746D01*
X11570182Y-15288746D02*
X11579706Y-15269698D01*
X11579706Y-15269698D02*
X11589230Y-15260174D01*
X11589230Y-15260174D02*
X11608277Y-15250650D01*
X11608277Y-15250650D02*
X11646373Y-15250650D01*
X11646373Y-15250650D02*
X11665420Y-15260174D01*
X11741611Y-15460174D02*
X11751134Y-15450650D01*
X11751134Y-15450650D02*
X11770182Y-15422079D01*
X11770182Y-15422079D02*
X11779706Y-15403031D01*
X11779706Y-15403031D02*
X11789230Y-15374460D01*
X11789230Y-15374460D02*
X11798753Y-15326841D01*
X11798753Y-15326841D02*
X11798753Y-15288746D01*
X11798753Y-15288746D02*
X11789230Y-15241127D01*
X11789230Y-15241127D02*
X11779706Y-15212555D01*
X11779706Y-15212555D02*
X11770182Y-15193508D01*
X11770182Y-15193508D02*
X11751134Y-15164936D01*
X11751134Y-15164936D02*
X11741611Y-15155412D01*
M02*
