G04 #@! TF.GenerationSoftware,KiCad,Pcbnew,8.0.6-8.0.6-0~ubuntu22.04.1*
G04 #@! TF.CreationDate,2025-04-15T21:33:34+01:00*
G04 #@! TF.ProjectId,RP2040-VCO,52503230-3430-42d5-9643-4f2e6b696361,rev?*
G04 #@! TF.SameCoordinates,Original*
G04 #@! TF.FileFunction,Legend,Bot*
G04 #@! TF.FilePolarity,Positive*
%FSLAX46Y46*%
G04 Gerber Fmt 4.6, Leading zero omitted, Abs format (unit mm)*
G04 Created by KiCad (PCBNEW 8.0.6-8.0.6-0~ubuntu22.04.1) date 2025-04-15 21:33:34*
%MOMM*%
%LPD*%
G01*
G04 APERTURE LIST*
%ADD10C,0.300000*%
%ADD11C,0.150000*%
%ADD12C,0.120000*%
%ADD13C,3.200000*%
%ADD14R,1.700000X1.700000*%
%ADD15O,1.700000X1.700000*%
%ADD16C,1.700000*%
G04 APERTURE END LIST*
D10*
X69478328Y-130071428D02*
X70549757Y-130071428D01*
X70549757Y-130071428D02*
X70764042Y-129999999D01*
X70764042Y-129999999D02*
X70906900Y-129857142D01*
X70906900Y-129857142D02*
X70978328Y-129642856D01*
X70978328Y-129642856D02*
X70978328Y-129499999D01*
X70978328Y-131499999D02*
X70978328Y-130785713D01*
X70978328Y-130785713D02*
X69478328Y-130785713D01*
X70835471Y-132857142D02*
X70906900Y-132785714D01*
X70906900Y-132785714D02*
X70978328Y-132571428D01*
X70978328Y-132571428D02*
X70978328Y-132428571D01*
X70978328Y-132428571D02*
X70906900Y-132214285D01*
X70906900Y-132214285D02*
X70764042Y-132071428D01*
X70764042Y-132071428D02*
X70621185Y-131999999D01*
X70621185Y-131999999D02*
X70335471Y-131928571D01*
X70335471Y-131928571D02*
X70121185Y-131928571D01*
X70121185Y-131928571D02*
X69835471Y-131999999D01*
X69835471Y-131999999D02*
X69692614Y-132071428D01*
X69692614Y-132071428D02*
X69549757Y-132214285D01*
X69549757Y-132214285D02*
X69478328Y-132428571D01*
X69478328Y-132428571D02*
X69478328Y-132571428D01*
X69478328Y-132571428D02*
X69549757Y-132785714D01*
X69549757Y-132785714D02*
X69621185Y-132857142D01*
X69478328Y-133928571D02*
X70549757Y-133928571D01*
X70549757Y-133928571D02*
X70764042Y-133857142D01*
X70764042Y-133857142D02*
X70906900Y-133714285D01*
X70906900Y-133714285D02*
X70978328Y-133499999D01*
X70978328Y-133499999D02*
X70978328Y-133357142D01*
X70978328Y-135357142D02*
X70978328Y-134642856D01*
X70978328Y-134642856D02*
X69478328Y-134642856D01*
X70835471Y-136714285D02*
X70906900Y-136642857D01*
X70906900Y-136642857D02*
X70978328Y-136428571D01*
X70978328Y-136428571D02*
X70978328Y-136285714D01*
X70978328Y-136285714D02*
X70906900Y-136071428D01*
X70906900Y-136071428D02*
X70764042Y-135928571D01*
X70764042Y-135928571D02*
X70621185Y-135857142D01*
X70621185Y-135857142D02*
X70335471Y-135785714D01*
X70335471Y-135785714D02*
X70121185Y-135785714D01*
X70121185Y-135785714D02*
X69835471Y-135857142D01*
X69835471Y-135857142D02*
X69692614Y-135928571D01*
X69692614Y-135928571D02*
X69549757Y-136071428D01*
X69549757Y-136071428D02*
X69478328Y-136285714D01*
X69478328Y-136285714D02*
X69478328Y-136428571D01*
X69478328Y-136428571D02*
X69549757Y-136642857D01*
X69549757Y-136642857D02*
X69621185Y-136714285D01*
X69478328Y-137785714D02*
X70549757Y-137785714D01*
X70549757Y-137785714D02*
X70764042Y-137714285D01*
X70764042Y-137714285D02*
X70906900Y-137571428D01*
X70906900Y-137571428D02*
X70978328Y-137357142D01*
X70978328Y-137357142D02*
X70978328Y-137214285D01*
X70978328Y-139214285D02*
X70978328Y-138499999D01*
X70978328Y-138499999D02*
X69478328Y-138499999D01*
X70835471Y-140571428D02*
X70906900Y-140500000D01*
X70906900Y-140500000D02*
X70978328Y-140285714D01*
X70978328Y-140285714D02*
X70978328Y-140142857D01*
X70978328Y-140142857D02*
X70906900Y-139928571D01*
X70906900Y-139928571D02*
X70764042Y-139785714D01*
X70764042Y-139785714D02*
X70621185Y-139714285D01*
X70621185Y-139714285D02*
X70335471Y-139642857D01*
X70335471Y-139642857D02*
X70121185Y-139642857D01*
X70121185Y-139642857D02*
X69835471Y-139714285D01*
X69835471Y-139714285D02*
X69692614Y-139785714D01*
X69692614Y-139785714D02*
X69549757Y-139928571D01*
X69549757Y-139928571D02*
X69478328Y-140142857D01*
X69478328Y-140142857D02*
X69478328Y-140285714D01*
X69478328Y-140285714D02*
X69549757Y-140500000D01*
X69549757Y-140500000D02*
X69621185Y-140571428D01*
X69478328Y-141642857D02*
X70549757Y-141642857D01*
X70549757Y-141642857D02*
X70764042Y-141571428D01*
X70764042Y-141571428D02*
X70906900Y-141428571D01*
X70906900Y-141428571D02*
X70978328Y-141214285D01*
X70978328Y-141214285D02*
X70978328Y-141071428D01*
X70978328Y-143071428D02*
X70978328Y-142357142D01*
X70978328Y-142357142D02*
X69478328Y-142357142D01*
X70835471Y-144428571D02*
X70906900Y-144357143D01*
X70906900Y-144357143D02*
X70978328Y-144142857D01*
X70978328Y-144142857D02*
X70978328Y-144000000D01*
X70978328Y-144000000D02*
X70906900Y-143785714D01*
X70906900Y-143785714D02*
X70764042Y-143642857D01*
X70764042Y-143642857D02*
X70621185Y-143571428D01*
X70621185Y-143571428D02*
X70335471Y-143500000D01*
X70335471Y-143500000D02*
X70121185Y-143500000D01*
X70121185Y-143500000D02*
X69835471Y-143571428D01*
X69835471Y-143571428D02*
X69692614Y-143642857D01*
X69692614Y-143642857D02*
X69549757Y-143785714D01*
X69549757Y-143785714D02*
X69478328Y-144000000D01*
X69478328Y-144000000D02*
X69478328Y-144142857D01*
X69478328Y-144142857D02*
X69549757Y-144357143D01*
X69549757Y-144357143D02*
X69621185Y-144428571D01*
D11*
X55454819Y-135446666D02*
X56169104Y-135446666D01*
X56169104Y-135446666D02*
X56311961Y-135399047D01*
X56311961Y-135399047D02*
X56407200Y-135303809D01*
X56407200Y-135303809D02*
X56454819Y-135160952D01*
X56454819Y-135160952D02*
X56454819Y-135065714D01*
X55883390Y-136065714D02*
X55835771Y-135970476D01*
X55835771Y-135970476D02*
X55788152Y-135922857D01*
X55788152Y-135922857D02*
X55692914Y-135875238D01*
X55692914Y-135875238D02*
X55645295Y-135875238D01*
X55645295Y-135875238D02*
X55550057Y-135922857D01*
X55550057Y-135922857D02*
X55502438Y-135970476D01*
X55502438Y-135970476D02*
X55454819Y-136065714D01*
X55454819Y-136065714D02*
X55454819Y-136256190D01*
X55454819Y-136256190D02*
X55502438Y-136351428D01*
X55502438Y-136351428D02*
X55550057Y-136399047D01*
X55550057Y-136399047D02*
X55645295Y-136446666D01*
X55645295Y-136446666D02*
X55692914Y-136446666D01*
X55692914Y-136446666D02*
X55788152Y-136399047D01*
X55788152Y-136399047D02*
X55835771Y-136351428D01*
X55835771Y-136351428D02*
X55883390Y-136256190D01*
X55883390Y-136256190D02*
X55883390Y-136065714D01*
X55883390Y-136065714D02*
X55931009Y-135970476D01*
X55931009Y-135970476D02*
X55978628Y-135922857D01*
X55978628Y-135922857D02*
X56073866Y-135875238D01*
X56073866Y-135875238D02*
X56264342Y-135875238D01*
X56264342Y-135875238D02*
X56359580Y-135922857D01*
X56359580Y-135922857D02*
X56407200Y-135970476D01*
X56407200Y-135970476D02*
X56454819Y-136065714D01*
X56454819Y-136065714D02*
X56454819Y-136256190D01*
X56454819Y-136256190D02*
X56407200Y-136351428D01*
X56407200Y-136351428D02*
X56359580Y-136399047D01*
X56359580Y-136399047D02*
X56264342Y-136446666D01*
X56264342Y-136446666D02*
X56073866Y-136446666D01*
X56073866Y-136446666D02*
X55978628Y-136399047D01*
X55978628Y-136399047D02*
X55931009Y-136351428D01*
X55931009Y-136351428D02*
X55883390Y-136256190D01*
X60738095Y-99445180D02*
X60738095Y-98635657D01*
X60738095Y-98635657D02*
X60785714Y-98540419D01*
X60785714Y-98540419D02*
X60833333Y-98492800D01*
X60833333Y-98492800D02*
X60928571Y-98445180D01*
X60928571Y-98445180D02*
X61119047Y-98445180D01*
X61119047Y-98445180D02*
X61214285Y-98492800D01*
X61214285Y-98492800D02*
X61261904Y-98540419D01*
X61261904Y-98540419D02*
X61309523Y-98635657D01*
X61309523Y-98635657D02*
X61309523Y-99445180D01*
X61738095Y-99349942D02*
X61785714Y-99397561D01*
X61785714Y-99397561D02*
X61880952Y-99445180D01*
X61880952Y-99445180D02*
X62119047Y-99445180D01*
X62119047Y-99445180D02*
X62214285Y-99397561D01*
X62214285Y-99397561D02*
X62261904Y-99349942D01*
X62261904Y-99349942D02*
X62309523Y-99254704D01*
X62309523Y-99254704D02*
X62309523Y-99159466D01*
X62309523Y-99159466D02*
X62261904Y-99016609D01*
X62261904Y-99016609D02*
X61690476Y-98445180D01*
X61690476Y-98445180D02*
X62309523Y-98445180D01*
D12*
X55620000Y-140380000D02*
X56620000Y-140880000D01*
X55620000Y-141380000D02*
X55620000Y-140380000D01*
X56620000Y-140880000D02*
X55620000Y-141380000D01*
X57010000Y-125510000D02*
X57010000Y-146090000D01*
X57010000Y-137850000D02*
X58320000Y-137850000D01*
X57010000Y-146090000D02*
X66130000Y-146090000D01*
X58320000Y-126810000D02*
X58320000Y-133750000D01*
X58320000Y-133750000D02*
X57010000Y-133750000D01*
X58320000Y-133750000D02*
X58320000Y-133750000D01*
X58320000Y-137850000D02*
X58320000Y-144790000D01*
X58320000Y-144790000D02*
X64820000Y-144790000D01*
X64820000Y-126810000D02*
X58320000Y-126810000D01*
X64820000Y-144790000D02*
X64820000Y-126810000D01*
X66130000Y-125510000D02*
X57010000Y-125510000D01*
X66130000Y-146090000D02*
X66130000Y-125510000D01*
X52570000Y-101500000D02*
X55230000Y-101500000D01*
X52570000Y-116800000D02*
X52570000Y-101500000D01*
X52570000Y-116800000D02*
X55230000Y-116800000D01*
X52570000Y-118070000D02*
X52570000Y-119400000D01*
X52570000Y-119400000D02*
X53900000Y-119400000D01*
X55230000Y-116800000D02*
X55230000Y-101500000D01*
X67770000Y-101500000D02*
X70430000Y-101500000D01*
X67770000Y-119400000D02*
X67770000Y-101500000D01*
X67770000Y-119400000D02*
X70430000Y-119400000D01*
X70430000Y-119400000D02*
X70430000Y-101500000D01*
X52356000Y-121168000D02*
X70644000Y-121168000D01*
X70644000Y-99832000D01*
X52356000Y-99832000D01*
X52356000Y-121168000D01*
X56420000Y-121504000D02*
X66580000Y-121504000D01*
X66580000Y-119700000D01*
X56420000Y-119700000D01*
X56420000Y-121504000D01*
G36*
X56420000Y-121504000D02*
G01*
X66580000Y-121504000D01*
X66580000Y-119700000D01*
X56420000Y-119700000D01*
X56420000Y-121504000D01*
G37*
%LPC*%
D13*
X68000000Y-96000000D03*
D14*
X69700000Y-49500000D03*
D15*
X69700000Y-52040000D03*
X69700000Y-54580000D03*
X69700000Y-57120000D03*
X69700000Y-59660000D03*
X69700000Y-62200000D03*
D14*
X53300000Y-67800000D03*
D15*
X53300000Y-70340000D03*
X53300000Y-72880000D03*
X53300000Y-75420000D03*
X53300000Y-77960000D03*
X53300000Y-80500000D03*
X53300000Y-83040000D03*
X53300000Y-85580000D03*
G36*
G01*
X59450000Y-141480000D02*
X59450000Y-140280000D01*
G75*
G02*
X59700000Y-140030000I250000J0D01*
G01*
X60900000Y-140030000D01*
G75*
G02*
X61150000Y-140280000I0J-250000D01*
G01*
X61150000Y-141480000D01*
G75*
G02*
X60900000Y-141730000I-250000J0D01*
G01*
X59700000Y-141730000D01*
G75*
G02*
X59450000Y-141480000I0J250000D01*
G01*
G37*
D16*
X62840000Y-140880000D03*
X60300000Y-138340000D03*
X62840000Y-138340000D03*
X60300000Y-135800000D03*
X62840000Y-135800000D03*
X60300000Y-133260000D03*
X62840000Y-133260000D03*
X60300000Y-130720000D03*
X62840000Y-130720000D03*
D14*
X53880000Y-118120000D03*
D16*
X53880000Y-115580000D03*
X53880000Y-113040000D03*
X53880000Y-110500000D03*
X53880000Y-107960000D03*
X53880000Y-105420000D03*
X53880000Y-102880000D03*
X69120000Y-102880000D03*
X69120000Y-105420000D03*
X69120000Y-107960000D03*
X69120000Y-110500000D03*
X69120000Y-113040000D03*
X69120000Y-115580000D03*
X69120000Y-118120000D03*
%LPD*%
M02*
