G04 #@! TF.GenerationSoftware,KiCad,Pcbnew,8.0.6-8.0.6-0~ubuntu22.04.1*
G04 #@! TF.CreationDate,2025-04-15T21:33:34+01:00*
G04 #@! TF.ProjectId,RP2040-VCO,52503230-3430-42d5-9643-4f2e6b696361,rev?*
G04 #@! TF.SameCoordinates,Original*
G04 #@! TF.FileFunction,Legend,Top*
G04 #@! TF.FilePolarity,Positive*
%FSLAX46Y46*%
G04 Gerber Fmt 4.6, Leading zero omitted, Abs format (unit mm)*
G04 Created by KiCad (PCBNEW 8.0.6-8.0.6-0~ubuntu22.04.1) date 2025-04-15 21:33:34*
%MOMM*%
%LPD*%
G01*
G04 APERTURE LIST*
%ADD10C,0.120000*%
%ADD11C,0.150000*%
%ADD12C,0.254000*%
%ADD13C,0.200000*%
%ADD14C,3.200000*%
%ADD15R,1.700000X1.700000*%
%ADD16O,1.700000X1.700000*%
%ADD17R,0.600000X1.200000*%
%ADD18C,1.700000*%
G04 APERTURE END LIST*
D10*
X67600000Y-80700000D02*
X67600000Y-82700000D01*
X60941421Y-64900000D02*
G75*
G02*
X60658579Y-64900000I-141421J0D01*
G01*
X60658579Y-64900000D02*
G75*
G02*
X60941421Y-64900000I141421J0D01*
G01*
X60800000Y-88300000D02*
X60800000Y-90300000D01*
X67600000Y-78300000D02*
X67600000Y-80300000D01*
X60800000Y-85900000D02*
X60800000Y-87900000D01*
D11*
X57671428Y-39544875D02*
X57338095Y-39068684D01*
X57100000Y-39544875D02*
X57100000Y-38544875D01*
X57100000Y-38544875D02*
X57480952Y-38544875D01*
X57480952Y-38544875D02*
X57576190Y-38592494D01*
X57576190Y-38592494D02*
X57623809Y-38640113D01*
X57623809Y-38640113D02*
X57671428Y-38735351D01*
X57671428Y-38735351D02*
X57671428Y-38878208D01*
X57671428Y-38878208D02*
X57623809Y-38973446D01*
X57623809Y-38973446D02*
X57576190Y-39021065D01*
X57576190Y-39021065D02*
X57480952Y-39068684D01*
X57480952Y-39068684D02*
X57100000Y-39068684D01*
X58100000Y-39544875D02*
X58100000Y-38544875D01*
X58100000Y-38544875D02*
X58480952Y-38544875D01*
X58480952Y-38544875D02*
X58576190Y-38592494D01*
X58576190Y-38592494D02*
X58623809Y-38640113D01*
X58623809Y-38640113D02*
X58671428Y-38735351D01*
X58671428Y-38735351D02*
X58671428Y-38878208D01*
X58671428Y-38878208D02*
X58623809Y-38973446D01*
X58623809Y-38973446D02*
X58576190Y-39021065D01*
X58576190Y-39021065D02*
X58480952Y-39068684D01*
X58480952Y-39068684D02*
X58100000Y-39068684D01*
X59052381Y-38640113D02*
X59100000Y-38592494D01*
X59100000Y-38592494D02*
X59195238Y-38544875D01*
X59195238Y-38544875D02*
X59433333Y-38544875D01*
X59433333Y-38544875D02*
X59528571Y-38592494D01*
X59528571Y-38592494D02*
X59576190Y-38640113D01*
X59576190Y-38640113D02*
X59623809Y-38735351D01*
X59623809Y-38735351D02*
X59623809Y-38830589D01*
X59623809Y-38830589D02*
X59576190Y-38973446D01*
X59576190Y-38973446D02*
X59004762Y-39544875D01*
X59004762Y-39544875D02*
X59623809Y-39544875D01*
X60242857Y-38544875D02*
X60338095Y-38544875D01*
X60338095Y-38544875D02*
X60433333Y-38592494D01*
X60433333Y-38592494D02*
X60480952Y-38640113D01*
X60480952Y-38640113D02*
X60528571Y-38735351D01*
X60528571Y-38735351D02*
X60576190Y-38925827D01*
X60576190Y-38925827D02*
X60576190Y-39163922D01*
X60576190Y-39163922D02*
X60528571Y-39354398D01*
X60528571Y-39354398D02*
X60480952Y-39449636D01*
X60480952Y-39449636D02*
X60433333Y-39497256D01*
X60433333Y-39497256D02*
X60338095Y-39544875D01*
X60338095Y-39544875D02*
X60242857Y-39544875D01*
X60242857Y-39544875D02*
X60147619Y-39497256D01*
X60147619Y-39497256D02*
X60100000Y-39449636D01*
X60100000Y-39449636D02*
X60052381Y-39354398D01*
X60052381Y-39354398D02*
X60004762Y-39163922D01*
X60004762Y-39163922D02*
X60004762Y-38925827D01*
X60004762Y-38925827D02*
X60052381Y-38735351D01*
X60052381Y-38735351D02*
X60100000Y-38640113D01*
X60100000Y-38640113D02*
X60147619Y-38592494D01*
X60147619Y-38592494D02*
X60242857Y-38544875D01*
X61433333Y-38878208D02*
X61433333Y-39544875D01*
X61195238Y-38497256D02*
X60957143Y-39211541D01*
X60957143Y-39211541D02*
X61576190Y-39211541D01*
X62147619Y-38544875D02*
X62242857Y-38544875D01*
X62242857Y-38544875D02*
X62338095Y-38592494D01*
X62338095Y-38592494D02*
X62385714Y-38640113D01*
X62385714Y-38640113D02*
X62433333Y-38735351D01*
X62433333Y-38735351D02*
X62480952Y-38925827D01*
X62480952Y-38925827D02*
X62480952Y-39163922D01*
X62480952Y-39163922D02*
X62433333Y-39354398D01*
X62433333Y-39354398D02*
X62385714Y-39449636D01*
X62385714Y-39449636D02*
X62338095Y-39497256D01*
X62338095Y-39497256D02*
X62242857Y-39544875D01*
X62242857Y-39544875D02*
X62147619Y-39544875D01*
X62147619Y-39544875D02*
X62052381Y-39497256D01*
X62052381Y-39497256D02*
X62004762Y-39449636D01*
X62004762Y-39449636D02*
X61957143Y-39354398D01*
X61957143Y-39354398D02*
X61909524Y-39163922D01*
X61909524Y-39163922D02*
X61909524Y-38925827D01*
X61909524Y-38925827D02*
X61957143Y-38735351D01*
X61957143Y-38735351D02*
X62004762Y-38640113D01*
X62004762Y-38640113D02*
X62052381Y-38592494D01*
X62052381Y-38592494D02*
X62147619Y-38544875D01*
X63528572Y-38544875D02*
X63861905Y-39544875D01*
X63861905Y-39544875D02*
X64195238Y-38544875D01*
X65100000Y-39449636D02*
X65052381Y-39497256D01*
X65052381Y-39497256D02*
X64909524Y-39544875D01*
X64909524Y-39544875D02*
X64814286Y-39544875D01*
X64814286Y-39544875D02*
X64671429Y-39497256D01*
X64671429Y-39497256D02*
X64576191Y-39402017D01*
X64576191Y-39402017D02*
X64528572Y-39306779D01*
X64528572Y-39306779D02*
X64480953Y-39116303D01*
X64480953Y-39116303D02*
X64480953Y-38973446D01*
X64480953Y-38973446D02*
X64528572Y-38782970D01*
X64528572Y-38782970D02*
X64576191Y-38687732D01*
X64576191Y-38687732D02*
X64671429Y-38592494D01*
X64671429Y-38592494D02*
X64814286Y-38544875D01*
X64814286Y-38544875D02*
X64909524Y-38544875D01*
X64909524Y-38544875D02*
X65052381Y-38592494D01*
X65052381Y-38592494D02*
X65100000Y-38640113D01*
X65719048Y-38544875D02*
X65909524Y-38544875D01*
X65909524Y-38544875D02*
X66004762Y-38592494D01*
X66004762Y-38592494D02*
X66100000Y-38687732D01*
X66100000Y-38687732D02*
X66147619Y-38878208D01*
X66147619Y-38878208D02*
X66147619Y-39211541D01*
X66147619Y-39211541D02*
X66100000Y-39402017D01*
X66100000Y-39402017D02*
X66004762Y-39497256D01*
X66004762Y-39497256D02*
X65909524Y-39544875D01*
X65909524Y-39544875D02*
X65719048Y-39544875D01*
X65719048Y-39544875D02*
X65623810Y-39497256D01*
X65623810Y-39497256D02*
X65528572Y-39402017D01*
X65528572Y-39402017D02*
X65480953Y-39211541D01*
X65480953Y-39211541D02*
X65480953Y-38878208D01*
X65480953Y-38878208D02*
X65528572Y-38687732D01*
X65528572Y-38687732D02*
X65623810Y-38592494D01*
X65623810Y-38592494D02*
X65719048Y-38544875D01*
X55338095Y-40154819D02*
X55671428Y-41154819D01*
X55671428Y-41154819D02*
X56004761Y-40154819D01*
X56861904Y-41154819D02*
X56290476Y-41154819D01*
X56576190Y-41154819D02*
X56576190Y-40154819D01*
X56576190Y-40154819D02*
X56480952Y-40297676D01*
X56480952Y-40297676D02*
X56385714Y-40392914D01*
X56385714Y-40392914D02*
X56290476Y-40440533D01*
X57290476Y-41059580D02*
X57338095Y-41107200D01*
X57338095Y-41107200D02*
X57290476Y-41154819D01*
X57290476Y-41154819D02*
X57242857Y-41107200D01*
X57242857Y-41107200D02*
X57290476Y-41059580D01*
X57290476Y-41059580D02*
X57290476Y-41154819D01*
X58195237Y-40488152D02*
X58195237Y-41154819D01*
X57957142Y-40107200D02*
X57719047Y-40821485D01*
X57719047Y-40821485D02*
X58338094Y-40821485D01*
X59814285Y-40631009D02*
X59957142Y-40678628D01*
X59957142Y-40678628D02*
X60004761Y-40726247D01*
X60004761Y-40726247D02*
X60052380Y-40821485D01*
X60052380Y-40821485D02*
X60052380Y-40964342D01*
X60052380Y-40964342D02*
X60004761Y-41059580D01*
X60004761Y-41059580D02*
X59957142Y-41107200D01*
X59957142Y-41107200D02*
X59861904Y-41154819D01*
X59861904Y-41154819D02*
X59480952Y-41154819D01*
X59480952Y-41154819D02*
X59480952Y-40154819D01*
X59480952Y-40154819D02*
X59814285Y-40154819D01*
X59814285Y-40154819D02*
X59909523Y-40202438D01*
X59909523Y-40202438D02*
X59957142Y-40250057D01*
X59957142Y-40250057D02*
X60004761Y-40345295D01*
X60004761Y-40345295D02*
X60004761Y-40440533D01*
X60004761Y-40440533D02*
X59957142Y-40535771D01*
X59957142Y-40535771D02*
X59909523Y-40583390D01*
X59909523Y-40583390D02*
X59814285Y-40631009D01*
X59814285Y-40631009D02*
X59480952Y-40631009D01*
X60623809Y-41154819D02*
X60528571Y-41107200D01*
X60528571Y-41107200D02*
X60480952Y-41011961D01*
X60480952Y-41011961D02*
X60480952Y-40154819D01*
X61385714Y-41107200D02*
X61290476Y-41154819D01*
X61290476Y-41154819D02*
X61100000Y-41154819D01*
X61100000Y-41154819D02*
X61004762Y-41107200D01*
X61004762Y-41107200D02*
X60957143Y-41011961D01*
X60957143Y-41011961D02*
X60957143Y-40631009D01*
X60957143Y-40631009D02*
X61004762Y-40535771D01*
X61004762Y-40535771D02*
X61100000Y-40488152D01*
X61100000Y-40488152D02*
X61290476Y-40488152D01*
X61290476Y-40488152D02*
X61385714Y-40535771D01*
X61385714Y-40535771D02*
X61433333Y-40631009D01*
X61433333Y-40631009D02*
X61433333Y-40726247D01*
X61433333Y-40726247D02*
X60957143Y-40821485D01*
X62242857Y-41107200D02*
X62147619Y-41154819D01*
X62147619Y-41154819D02*
X61957143Y-41154819D01*
X61957143Y-41154819D02*
X61861905Y-41107200D01*
X61861905Y-41107200D02*
X61814286Y-41011961D01*
X61814286Y-41011961D02*
X61814286Y-40631009D01*
X61814286Y-40631009D02*
X61861905Y-40535771D01*
X61861905Y-40535771D02*
X61957143Y-40488152D01*
X61957143Y-40488152D02*
X62147619Y-40488152D01*
X62147619Y-40488152D02*
X62242857Y-40535771D01*
X62242857Y-40535771D02*
X62290476Y-40631009D01*
X62290476Y-40631009D02*
X62290476Y-40726247D01*
X62290476Y-40726247D02*
X61814286Y-40821485D01*
X62719048Y-40488152D02*
X62719048Y-41488152D01*
X62719048Y-40535771D02*
X62814286Y-40488152D01*
X62814286Y-40488152D02*
X63004762Y-40488152D01*
X63004762Y-40488152D02*
X63100000Y-40535771D01*
X63100000Y-40535771D02*
X63147619Y-40583390D01*
X63147619Y-40583390D02*
X63195238Y-40678628D01*
X63195238Y-40678628D02*
X63195238Y-40964342D01*
X63195238Y-40964342D02*
X63147619Y-41059580D01*
X63147619Y-41059580D02*
X63100000Y-41107200D01*
X63100000Y-41107200D02*
X63004762Y-41154819D01*
X63004762Y-41154819D02*
X62814286Y-41154819D01*
X62814286Y-41154819D02*
X62719048Y-41107200D01*
X63576191Y-41107200D02*
X63719048Y-41154819D01*
X63719048Y-41154819D02*
X63957143Y-41154819D01*
X63957143Y-41154819D02*
X64052381Y-41107200D01*
X64052381Y-41107200D02*
X64100000Y-41059580D01*
X64100000Y-41059580D02*
X64147619Y-40964342D01*
X64147619Y-40964342D02*
X64147619Y-40869104D01*
X64147619Y-40869104D02*
X64100000Y-40773866D01*
X64100000Y-40773866D02*
X64052381Y-40726247D01*
X64052381Y-40726247D02*
X63957143Y-40678628D01*
X63957143Y-40678628D02*
X63766667Y-40631009D01*
X63766667Y-40631009D02*
X63671429Y-40583390D01*
X63671429Y-40583390D02*
X63623810Y-40535771D01*
X63623810Y-40535771D02*
X63576191Y-40440533D01*
X63576191Y-40440533D02*
X63576191Y-40345295D01*
X63576191Y-40345295D02*
X63623810Y-40250057D01*
X63623810Y-40250057D02*
X63671429Y-40202438D01*
X63671429Y-40202438D02*
X63766667Y-40154819D01*
X63766667Y-40154819D02*
X64004762Y-40154819D01*
X64004762Y-40154819D02*
X64147619Y-40202438D01*
X64719048Y-41154819D02*
X64623810Y-41107200D01*
X64623810Y-41107200D02*
X64576191Y-41059580D01*
X64576191Y-41059580D02*
X64528572Y-40964342D01*
X64528572Y-40964342D02*
X64528572Y-40678628D01*
X64528572Y-40678628D02*
X64576191Y-40583390D01*
X64576191Y-40583390D02*
X64623810Y-40535771D01*
X64623810Y-40535771D02*
X64719048Y-40488152D01*
X64719048Y-40488152D02*
X64861905Y-40488152D01*
X64861905Y-40488152D02*
X64957143Y-40535771D01*
X64957143Y-40535771D02*
X65004762Y-40583390D01*
X65004762Y-40583390D02*
X65052381Y-40678628D01*
X65052381Y-40678628D02*
X65052381Y-40964342D01*
X65052381Y-40964342D02*
X65004762Y-41059580D01*
X65004762Y-41059580D02*
X64957143Y-41107200D01*
X64957143Y-41107200D02*
X64861905Y-41154819D01*
X64861905Y-41154819D02*
X64719048Y-41154819D01*
X65909524Y-40488152D02*
X65909524Y-41154819D01*
X65480953Y-40488152D02*
X65480953Y-41011961D01*
X65480953Y-41011961D02*
X65528572Y-41107200D01*
X65528572Y-41107200D02*
X65623810Y-41154819D01*
X65623810Y-41154819D02*
X65766667Y-41154819D01*
X65766667Y-41154819D02*
X65861905Y-41107200D01*
X65861905Y-41107200D02*
X65909524Y-41059580D01*
X66385715Y-40488152D02*
X66385715Y-41154819D01*
X66385715Y-40583390D02*
X66433334Y-40535771D01*
X66433334Y-40535771D02*
X66528572Y-40488152D01*
X66528572Y-40488152D02*
X66671429Y-40488152D01*
X66671429Y-40488152D02*
X66766667Y-40535771D01*
X66766667Y-40535771D02*
X66814286Y-40631009D01*
X66814286Y-40631009D02*
X66814286Y-41154819D01*
X67719048Y-41154819D02*
X67719048Y-40154819D01*
X67719048Y-41107200D02*
X67623810Y-41154819D01*
X67623810Y-41154819D02*
X67433334Y-41154819D01*
X67433334Y-41154819D02*
X67338096Y-41107200D01*
X67338096Y-41107200D02*
X67290477Y-41059580D01*
X67290477Y-41059580D02*
X67242858Y-40964342D01*
X67242858Y-40964342D02*
X67242858Y-40678628D01*
X67242858Y-40678628D02*
X67290477Y-40583390D01*
X67290477Y-40583390D02*
X67338096Y-40535771D01*
X67338096Y-40535771D02*
X67433334Y-40488152D01*
X67433334Y-40488152D02*
X67623810Y-40488152D01*
X67623810Y-40488152D02*
X67719048Y-40535771D01*
X59885714Y-41860001D02*
X59933333Y-41812382D01*
X59933333Y-41812382D02*
X60028571Y-41764763D01*
X60028571Y-41764763D02*
X60266666Y-41764763D01*
X60266666Y-41764763D02*
X60361904Y-41812382D01*
X60361904Y-41812382D02*
X60409523Y-41860001D01*
X60409523Y-41860001D02*
X60457142Y-41955239D01*
X60457142Y-41955239D02*
X60457142Y-42050477D01*
X60457142Y-42050477D02*
X60409523Y-42193334D01*
X60409523Y-42193334D02*
X59838095Y-42764763D01*
X59838095Y-42764763D02*
X60457142Y-42764763D01*
X61076190Y-41764763D02*
X61171428Y-41764763D01*
X61171428Y-41764763D02*
X61266666Y-41812382D01*
X61266666Y-41812382D02*
X61314285Y-41860001D01*
X61314285Y-41860001D02*
X61361904Y-41955239D01*
X61361904Y-41955239D02*
X61409523Y-42145715D01*
X61409523Y-42145715D02*
X61409523Y-42383810D01*
X61409523Y-42383810D02*
X61361904Y-42574286D01*
X61361904Y-42574286D02*
X61314285Y-42669524D01*
X61314285Y-42669524D02*
X61266666Y-42717144D01*
X61266666Y-42717144D02*
X61171428Y-42764763D01*
X61171428Y-42764763D02*
X61076190Y-42764763D01*
X61076190Y-42764763D02*
X60980952Y-42717144D01*
X60980952Y-42717144D02*
X60933333Y-42669524D01*
X60933333Y-42669524D02*
X60885714Y-42574286D01*
X60885714Y-42574286D02*
X60838095Y-42383810D01*
X60838095Y-42383810D02*
X60838095Y-42145715D01*
X60838095Y-42145715D02*
X60885714Y-41955239D01*
X60885714Y-41955239D02*
X60933333Y-41860001D01*
X60933333Y-41860001D02*
X60980952Y-41812382D01*
X60980952Y-41812382D02*
X61076190Y-41764763D01*
X61790476Y-41860001D02*
X61838095Y-41812382D01*
X61838095Y-41812382D02*
X61933333Y-41764763D01*
X61933333Y-41764763D02*
X62171428Y-41764763D01*
X62171428Y-41764763D02*
X62266666Y-41812382D01*
X62266666Y-41812382D02*
X62314285Y-41860001D01*
X62314285Y-41860001D02*
X62361904Y-41955239D01*
X62361904Y-41955239D02*
X62361904Y-42050477D01*
X62361904Y-42050477D02*
X62314285Y-42193334D01*
X62314285Y-42193334D02*
X61742857Y-42764763D01*
X61742857Y-42764763D02*
X62361904Y-42764763D01*
X63266666Y-41764763D02*
X62790476Y-41764763D01*
X62790476Y-41764763D02*
X62742857Y-42240953D01*
X62742857Y-42240953D02*
X62790476Y-42193334D01*
X62790476Y-42193334D02*
X62885714Y-42145715D01*
X62885714Y-42145715D02*
X63123809Y-42145715D01*
X63123809Y-42145715D02*
X63219047Y-42193334D01*
X63219047Y-42193334D02*
X63266666Y-42240953D01*
X63266666Y-42240953D02*
X63314285Y-42336191D01*
X63314285Y-42336191D02*
X63314285Y-42574286D01*
X63314285Y-42574286D02*
X63266666Y-42669524D01*
X63266666Y-42669524D02*
X63219047Y-42717144D01*
X63219047Y-42717144D02*
X63123809Y-42764763D01*
X63123809Y-42764763D02*
X62885714Y-42764763D01*
X62885714Y-42764763D02*
X62790476Y-42717144D01*
X62790476Y-42717144D02*
X62742857Y-42669524D01*
X57761904Y-44254819D02*
X57761904Y-43254819D01*
X57761904Y-43635771D02*
X57857142Y-43588152D01*
X57857142Y-43588152D02*
X58047618Y-43588152D01*
X58047618Y-43588152D02*
X58142856Y-43635771D01*
X58142856Y-43635771D02*
X58190475Y-43683390D01*
X58190475Y-43683390D02*
X58238094Y-43778628D01*
X58238094Y-43778628D02*
X58238094Y-44064342D01*
X58238094Y-44064342D02*
X58190475Y-44159580D01*
X58190475Y-44159580D02*
X58142856Y-44207200D01*
X58142856Y-44207200D02*
X58047618Y-44254819D01*
X58047618Y-44254819D02*
X57857142Y-44254819D01*
X57857142Y-44254819D02*
X57761904Y-44207200D01*
X58809523Y-44254819D02*
X58714285Y-44207200D01*
X58714285Y-44207200D02*
X58666666Y-44159580D01*
X58666666Y-44159580D02*
X58619047Y-44064342D01*
X58619047Y-44064342D02*
X58619047Y-43778628D01*
X58619047Y-43778628D02*
X58666666Y-43683390D01*
X58666666Y-43683390D02*
X58714285Y-43635771D01*
X58714285Y-43635771D02*
X58809523Y-43588152D01*
X58809523Y-43588152D02*
X58952380Y-43588152D01*
X58952380Y-43588152D02*
X59047618Y-43635771D01*
X59047618Y-43635771D02*
X59095237Y-43683390D01*
X59095237Y-43683390D02*
X59142856Y-43778628D01*
X59142856Y-43778628D02*
X59142856Y-44064342D01*
X59142856Y-44064342D02*
X59095237Y-44159580D01*
X59095237Y-44159580D02*
X59047618Y-44207200D01*
X59047618Y-44207200D02*
X58952380Y-44254819D01*
X58952380Y-44254819D02*
X58809523Y-44254819D01*
X59999999Y-44254819D02*
X59999999Y-43731009D01*
X59999999Y-43731009D02*
X59952380Y-43635771D01*
X59952380Y-43635771D02*
X59857142Y-43588152D01*
X59857142Y-43588152D02*
X59666666Y-43588152D01*
X59666666Y-43588152D02*
X59571428Y-43635771D01*
X59999999Y-44207200D02*
X59904761Y-44254819D01*
X59904761Y-44254819D02*
X59666666Y-44254819D01*
X59666666Y-44254819D02*
X59571428Y-44207200D01*
X59571428Y-44207200D02*
X59523809Y-44111961D01*
X59523809Y-44111961D02*
X59523809Y-44016723D01*
X59523809Y-44016723D02*
X59571428Y-43921485D01*
X59571428Y-43921485D02*
X59666666Y-43873866D01*
X59666666Y-43873866D02*
X59904761Y-43873866D01*
X59904761Y-43873866D02*
X59999999Y-43826247D01*
X60476190Y-44254819D02*
X60476190Y-43588152D01*
X60476190Y-43778628D02*
X60523809Y-43683390D01*
X60523809Y-43683390D02*
X60571428Y-43635771D01*
X60571428Y-43635771D02*
X60666666Y-43588152D01*
X60666666Y-43588152D02*
X60761904Y-43588152D01*
X61523809Y-44254819D02*
X61523809Y-43254819D01*
X61523809Y-44207200D02*
X61428571Y-44254819D01*
X61428571Y-44254819D02*
X61238095Y-44254819D01*
X61238095Y-44254819D02*
X61142857Y-44207200D01*
X61142857Y-44207200D02*
X61095238Y-44159580D01*
X61095238Y-44159580D02*
X61047619Y-44064342D01*
X61047619Y-44064342D02*
X61047619Y-43778628D01*
X61047619Y-43778628D02*
X61095238Y-43683390D01*
X61095238Y-43683390D02*
X61142857Y-43635771D01*
X61142857Y-43635771D02*
X61238095Y-43588152D01*
X61238095Y-43588152D02*
X61428571Y-43588152D01*
X61428571Y-43588152D02*
X61523809Y-43635771D01*
X62714286Y-43350057D02*
X62761905Y-43302438D01*
X62761905Y-43302438D02*
X62857143Y-43254819D01*
X62857143Y-43254819D02*
X63095238Y-43254819D01*
X63095238Y-43254819D02*
X63190476Y-43302438D01*
X63190476Y-43302438D02*
X63238095Y-43350057D01*
X63238095Y-43350057D02*
X63285714Y-43445295D01*
X63285714Y-43445295D02*
X63285714Y-43540533D01*
X63285714Y-43540533D02*
X63238095Y-43683390D01*
X63238095Y-43683390D02*
X62666667Y-44254819D01*
X62666667Y-44254819D02*
X63285714Y-44254819D01*
X64428571Y-43207200D02*
X63571429Y-44492914D01*
X64714286Y-43350057D02*
X64761905Y-43302438D01*
X64761905Y-43302438D02*
X64857143Y-43254819D01*
X64857143Y-43254819D02*
X65095238Y-43254819D01*
X65095238Y-43254819D02*
X65190476Y-43302438D01*
X65190476Y-43302438D02*
X65238095Y-43350057D01*
X65238095Y-43350057D02*
X65285714Y-43445295D01*
X65285714Y-43445295D02*
X65285714Y-43540533D01*
X65285714Y-43540533D02*
X65238095Y-43683390D01*
X65238095Y-43683390D02*
X64666667Y-44254819D01*
X64666667Y-44254819D02*
X65285714Y-44254819D01*
X53357142Y-123659580D02*
X53309523Y-123707200D01*
X53309523Y-123707200D02*
X53166666Y-123754819D01*
X53166666Y-123754819D02*
X53071428Y-123754819D01*
X53071428Y-123754819D02*
X52928571Y-123707200D01*
X52928571Y-123707200D02*
X52833333Y-123611961D01*
X52833333Y-123611961D02*
X52785714Y-123516723D01*
X52785714Y-123516723D02*
X52738095Y-123326247D01*
X52738095Y-123326247D02*
X52738095Y-123183390D01*
X52738095Y-123183390D02*
X52785714Y-122992914D01*
X52785714Y-122992914D02*
X52833333Y-122897676D01*
X52833333Y-122897676D02*
X52928571Y-122802438D01*
X52928571Y-122802438D02*
X53071428Y-122754819D01*
X53071428Y-122754819D02*
X53166666Y-122754819D01*
X53166666Y-122754819D02*
X53309523Y-122802438D01*
X53309523Y-122802438D02*
X53357142Y-122850057D01*
X54309523Y-123754819D02*
X53738095Y-123754819D01*
X54023809Y-123754819D02*
X54023809Y-122754819D01*
X54023809Y-122754819D02*
X53928571Y-122897676D01*
X53928571Y-122897676D02*
X53833333Y-122992914D01*
X53833333Y-122992914D02*
X53738095Y-123040533D01*
X54928571Y-122754819D02*
X55023809Y-122754819D01*
X55023809Y-122754819D02*
X55119047Y-122802438D01*
X55119047Y-122802438D02*
X55166666Y-122850057D01*
X55166666Y-122850057D02*
X55214285Y-122945295D01*
X55214285Y-122945295D02*
X55261904Y-123135771D01*
X55261904Y-123135771D02*
X55261904Y-123373866D01*
X55261904Y-123373866D02*
X55214285Y-123564342D01*
X55214285Y-123564342D02*
X55166666Y-123659580D01*
X55166666Y-123659580D02*
X55119047Y-123707200D01*
X55119047Y-123707200D02*
X55023809Y-123754819D01*
X55023809Y-123754819D02*
X54928571Y-123754819D01*
X54928571Y-123754819D02*
X54833333Y-123707200D01*
X54833333Y-123707200D02*
X54785714Y-123659580D01*
X54785714Y-123659580D02*
X54738095Y-123564342D01*
X54738095Y-123564342D02*
X54690476Y-123373866D01*
X54690476Y-123373866D02*
X54690476Y-123135771D01*
X54690476Y-123135771D02*
X54738095Y-122945295D01*
X54738095Y-122945295D02*
X54785714Y-122850057D01*
X54785714Y-122850057D02*
X54833333Y-122802438D01*
X54833333Y-122802438D02*
X54928571Y-122754819D01*
X68357142Y-123459580D02*
X68309523Y-123507200D01*
X68309523Y-123507200D02*
X68166666Y-123554819D01*
X68166666Y-123554819D02*
X68071428Y-123554819D01*
X68071428Y-123554819D02*
X67928571Y-123507200D01*
X67928571Y-123507200D02*
X67833333Y-123411961D01*
X67833333Y-123411961D02*
X67785714Y-123316723D01*
X67785714Y-123316723D02*
X67738095Y-123126247D01*
X67738095Y-123126247D02*
X67738095Y-122983390D01*
X67738095Y-122983390D02*
X67785714Y-122792914D01*
X67785714Y-122792914D02*
X67833333Y-122697676D01*
X67833333Y-122697676D02*
X67928571Y-122602438D01*
X67928571Y-122602438D02*
X68071428Y-122554819D01*
X68071428Y-122554819D02*
X68166666Y-122554819D01*
X68166666Y-122554819D02*
X68309523Y-122602438D01*
X68309523Y-122602438D02*
X68357142Y-122650057D01*
X69309523Y-123554819D02*
X68738095Y-123554819D01*
X69023809Y-123554819D02*
X69023809Y-122554819D01*
X69023809Y-122554819D02*
X68928571Y-122697676D01*
X68928571Y-122697676D02*
X68833333Y-122792914D01*
X68833333Y-122792914D02*
X68738095Y-122840533D01*
X70214285Y-122554819D02*
X69738095Y-122554819D01*
X69738095Y-122554819D02*
X69690476Y-123031009D01*
X69690476Y-123031009D02*
X69738095Y-122983390D01*
X69738095Y-122983390D02*
X69833333Y-122935771D01*
X69833333Y-122935771D02*
X70071428Y-122935771D01*
X70071428Y-122935771D02*
X70166666Y-122983390D01*
X70166666Y-122983390D02*
X70214285Y-123031009D01*
X70214285Y-123031009D02*
X70261904Y-123126247D01*
X70261904Y-123126247D02*
X70261904Y-123364342D01*
X70261904Y-123364342D02*
X70214285Y-123459580D01*
X70214285Y-123459580D02*
X70166666Y-123507200D01*
X70166666Y-123507200D02*
X70071428Y-123554819D01*
X70071428Y-123554819D02*
X69833333Y-123554819D01*
X69833333Y-123554819D02*
X69738095Y-123507200D01*
X69738095Y-123507200D02*
X69690476Y-123459580D01*
X62633333Y-105854819D02*
X62300000Y-105378628D01*
X62061905Y-105854819D02*
X62061905Y-104854819D01*
X62061905Y-104854819D02*
X62442857Y-104854819D01*
X62442857Y-104854819D02*
X62538095Y-104902438D01*
X62538095Y-104902438D02*
X62585714Y-104950057D01*
X62585714Y-104950057D02*
X62633333Y-105045295D01*
X62633333Y-105045295D02*
X62633333Y-105188152D01*
X62633333Y-105188152D02*
X62585714Y-105283390D01*
X62585714Y-105283390D02*
X62538095Y-105331009D01*
X62538095Y-105331009D02*
X62442857Y-105378628D01*
X62442857Y-105378628D02*
X62061905Y-105378628D01*
X63014286Y-104950057D02*
X63061905Y-104902438D01*
X63061905Y-104902438D02*
X63157143Y-104854819D01*
X63157143Y-104854819D02*
X63395238Y-104854819D01*
X63395238Y-104854819D02*
X63490476Y-104902438D01*
X63490476Y-104902438D02*
X63538095Y-104950057D01*
X63538095Y-104950057D02*
X63585714Y-105045295D01*
X63585714Y-105045295D02*
X63585714Y-105140533D01*
X63585714Y-105140533D02*
X63538095Y-105283390D01*
X63538095Y-105283390D02*
X62966667Y-105854819D01*
X62966667Y-105854819D02*
X63585714Y-105854819D01*
X67238095Y-92254819D02*
X67238095Y-91254819D01*
X67238095Y-91731009D02*
X67809523Y-91731009D01*
X67809523Y-92254819D02*
X67809523Y-91254819D01*
X68809523Y-92254819D02*
X68238095Y-92254819D01*
X68523809Y-92254819D02*
X68523809Y-91254819D01*
X68523809Y-91254819D02*
X68428571Y-91397676D01*
X68428571Y-91397676D02*
X68333333Y-91492914D01*
X68333333Y-91492914D02*
X68238095Y-91540533D01*
X68357142Y-78054819D02*
X68023809Y-77578628D01*
X67785714Y-78054819D02*
X67785714Y-77054819D01*
X67785714Y-77054819D02*
X68166666Y-77054819D01*
X68166666Y-77054819D02*
X68261904Y-77102438D01*
X68261904Y-77102438D02*
X68309523Y-77150057D01*
X68309523Y-77150057D02*
X68357142Y-77245295D01*
X68357142Y-77245295D02*
X68357142Y-77388152D01*
X68357142Y-77388152D02*
X68309523Y-77483390D01*
X68309523Y-77483390D02*
X68261904Y-77531009D01*
X68261904Y-77531009D02*
X68166666Y-77578628D01*
X68166666Y-77578628D02*
X67785714Y-77578628D01*
X69309523Y-78054819D02*
X68738095Y-78054819D01*
X69023809Y-78054819D02*
X69023809Y-77054819D01*
X69023809Y-77054819D02*
X68928571Y-77197676D01*
X68928571Y-77197676D02*
X68833333Y-77292914D01*
X68833333Y-77292914D02*
X68738095Y-77340533D01*
X70214285Y-77054819D02*
X69738095Y-77054819D01*
X69738095Y-77054819D02*
X69690476Y-77531009D01*
X69690476Y-77531009D02*
X69738095Y-77483390D01*
X69738095Y-77483390D02*
X69833333Y-77435771D01*
X69833333Y-77435771D02*
X70071428Y-77435771D01*
X70071428Y-77435771D02*
X70166666Y-77483390D01*
X70166666Y-77483390D02*
X70214285Y-77531009D01*
X70214285Y-77531009D02*
X70261904Y-77626247D01*
X70261904Y-77626247D02*
X70261904Y-77864342D01*
X70261904Y-77864342D02*
X70214285Y-77959580D01*
X70214285Y-77959580D02*
X70166666Y-78007200D01*
X70166666Y-78007200D02*
X70071428Y-78054819D01*
X70071428Y-78054819D02*
X69833333Y-78054819D01*
X69833333Y-78054819D02*
X69738095Y-78007200D01*
X69738095Y-78007200D02*
X69690476Y-77959580D01*
X62733333Y-103854819D02*
X62400000Y-103378628D01*
X62161905Y-103854819D02*
X62161905Y-102854819D01*
X62161905Y-102854819D02*
X62542857Y-102854819D01*
X62542857Y-102854819D02*
X62638095Y-102902438D01*
X62638095Y-102902438D02*
X62685714Y-102950057D01*
X62685714Y-102950057D02*
X62733333Y-103045295D01*
X62733333Y-103045295D02*
X62733333Y-103188152D01*
X62733333Y-103188152D02*
X62685714Y-103283390D01*
X62685714Y-103283390D02*
X62638095Y-103331009D01*
X62638095Y-103331009D02*
X62542857Y-103378628D01*
X62542857Y-103378628D02*
X62161905Y-103378628D01*
X63066667Y-102854819D02*
X63685714Y-102854819D01*
X63685714Y-102854819D02*
X63352381Y-103235771D01*
X63352381Y-103235771D02*
X63495238Y-103235771D01*
X63495238Y-103235771D02*
X63590476Y-103283390D01*
X63590476Y-103283390D02*
X63638095Y-103331009D01*
X63638095Y-103331009D02*
X63685714Y-103426247D01*
X63685714Y-103426247D02*
X63685714Y-103664342D01*
X63685714Y-103664342D02*
X63638095Y-103759580D01*
X63638095Y-103759580D02*
X63590476Y-103807200D01*
X63590476Y-103807200D02*
X63495238Y-103854819D01*
X63495238Y-103854819D02*
X63209524Y-103854819D01*
X63209524Y-103854819D02*
X63114286Y-103807200D01*
X63114286Y-103807200D02*
X63066667Y-103759580D01*
X68357142Y-82154819D02*
X68023809Y-81678628D01*
X67785714Y-82154819D02*
X67785714Y-81154819D01*
X67785714Y-81154819D02*
X68166666Y-81154819D01*
X68166666Y-81154819D02*
X68261904Y-81202438D01*
X68261904Y-81202438D02*
X68309523Y-81250057D01*
X68309523Y-81250057D02*
X68357142Y-81345295D01*
X68357142Y-81345295D02*
X68357142Y-81488152D01*
X68357142Y-81488152D02*
X68309523Y-81583390D01*
X68309523Y-81583390D02*
X68261904Y-81631009D01*
X68261904Y-81631009D02*
X68166666Y-81678628D01*
X68166666Y-81678628D02*
X67785714Y-81678628D01*
X69309523Y-82154819D02*
X68738095Y-82154819D01*
X69023809Y-82154819D02*
X69023809Y-81154819D01*
X69023809Y-81154819D02*
X68928571Y-81297676D01*
X68928571Y-81297676D02*
X68833333Y-81392914D01*
X68833333Y-81392914D02*
X68738095Y-81440533D01*
X69690476Y-81250057D02*
X69738095Y-81202438D01*
X69738095Y-81202438D02*
X69833333Y-81154819D01*
X69833333Y-81154819D02*
X70071428Y-81154819D01*
X70071428Y-81154819D02*
X70166666Y-81202438D01*
X70166666Y-81202438D02*
X70214285Y-81250057D01*
X70214285Y-81250057D02*
X70261904Y-81345295D01*
X70261904Y-81345295D02*
X70261904Y-81440533D01*
X70261904Y-81440533D02*
X70214285Y-81583390D01*
X70214285Y-81583390D02*
X69642857Y-82154819D01*
X69642857Y-82154819D02*
X70261904Y-82154819D01*
X65933333Y-116759580D02*
X65885714Y-116807200D01*
X65885714Y-116807200D02*
X65742857Y-116854819D01*
X65742857Y-116854819D02*
X65647619Y-116854819D01*
X65647619Y-116854819D02*
X65504762Y-116807200D01*
X65504762Y-116807200D02*
X65409524Y-116711961D01*
X65409524Y-116711961D02*
X65361905Y-116616723D01*
X65361905Y-116616723D02*
X65314286Y-116426247D01*
X65314286Y-116426247D02*
X65314286Y-116283390D01*
X65314286Y-116283390D02*
X65361905Y-116092914D01*
X65361905Y-116092914D02*
X65409524Y-115997676D01*
X65409524Y-115997676D02*
X65504762Y-115902438D01*
X65504762Y-115902438D02*
X65647619Y-115854819D01*
X65647619Y-115854819D02*
X65742857Y-115854819D01*
X65742857Y-115854819D02*
X65885714Y-115902438D01*
X65885714Y-115902438D02*
X65933333Y-115950057D01*
X66838095Y-115854819D02*
X66361905Y-115854819D01*
X66361905Y-115854819D02*
X66314286Y-116331009D01*
X66314286Y-116331009D02*
X66361905Y-116283390D01*
X66361905Y-116283390D02*
X66457143Y-116235771D01*
X66457143Y-116235771D02*
X66695238Y-116235771D01*
X66695238Y-116235771D02*
X66790476Y-116283390D01*
X66790476Y-116283390D02*
X66838095Y-116331009D01*
X66838095Y-116331009D02*
X66885714Y-116426247D01*
X66885714Y-116426247D02*
X66885714Y-116664342D01*
X66885714Y-116664342D02*
X66838095Y-116759580D01*
X66838095Y-116759580D02*
X66790476Y-116807200D01*
X66790476Y-116807200D02*
X66695238Y-116854819D01*
X66695238Y-116854819D02*
X66457143Y-116854819D01*
X66457143Y-116854819D02*
X66361905Y-116807200D01*
X66361905Y-116807200D02*
X66314286Y-116759580D01*
X64261905Y-78367319D02*
X64261905Y-77367319D01*
X64261905Y-77367319D02*
X64500000Y-77367319D01*
X64500000Y-77367319D02*
X64642857Y-77414938D01*
X64642857Y-77414938D02*
X64738095Y-77510176D01*
X64738095Y-77510176D02*
X64785714Y-77605414D01*
X64785714Y-77605414D02*
X64833333Y-77795890D01*
X64833333Y-77795890D02*
X64833333Y-77938747D01*
X64833333Y-77938747D02*
X64785714Y-78129223D01*
X64785714Y-78129223D02*
X64738095Y-78224461D01*
X64738095Y-78224461D02*
X64642857Y-78319700D01*
X64642857Y-78319700D02*
X64500000Y-78367319D01*
X64500000Y-78367319D02*
X64261905Y-78367319D01*
X65166667Y-77367319D02*
X65785714Y-77367319D01*
X65785714Y-77367319D02*
X65452381Y-77748271D01*
X65452381Y-77748271D02*
X65595238Y-77748271D01*
X65595238Y-77748271D02*
X65690476Y-77795890D01*
X65690476Y-77795890D02*
X65738095Y-77843509D01*
X65738095Y-77843509D02*
X65785714Y-77938747D01*
X65785714Y-77938747D02*
X65785714Y-78176842D01*
X65785714Y-78176842D02*
X65738095Y-78272080D01*
X65738095Y-78272080D02*
X65690476Y-78319700D01*
X65690476Y-78319700D02*
X65595238Y-78367319D01*
X65595238Y-78367319D02*
X65309524Y-78367319D01*
X65309524Y-78367319D02*
X65214286Y-78319700D01*
X65214286Y-78319700D02*
X65166667Y-78272080D01*
X57857142Y-128609580D02*
X57809523Y-128657200D01*
X57809523Y-128657200D02*
X57666666Y-128704819D01*
X57666666Y-128704819D02*
X57571428Y-128704819D01*
X57571428Y-128704819D02*
X57428571Y-128657200D01*
X57428571Y-128657200D02*
X57333333Y-128561961D01*
X57333333Y-128561961D02*
X57285714Y-128466723D01*
X57285714Y-128466723D02*
X57238095Y-128276247D01*
X57238095Y-128276247D02*
X57238095Y-128133390D01*
X57238095Y-128133390D02*
X57285714Y-127942914D01*
X57285714Y-127942914D02*
X57333333Y-127847676D01*
X57333333Y-127847676D02*
X57428571Y-127752438D01*
X57428571Y-127752438D02*
X57571428Y-127704819D01*
X57571428Y-127704819D02*
X57666666Y-127704819D01*
X57666666Y-127704819D02*
X57809523Y-127752438D01*
X57809523Y-127752438D02*
X57857142Y-127800057D01*
X58809523Y-128704819D02*
X58238095Y-128704819D01*
X58523809Y-128704819D02*
X58523809Y-127704819D01*
X58523809Y-127704819D02*
X58428571Y-127847676D01*
X58428571Y-127847676D02*
X58333333Y-127942914D01*
X58333333Y-127942914D02*
X58238095Y-127990533D01*
X59142857Y-127704819D02*
X59761904Y-127704819D01*
X59761904Y-127704819D02*
X59428571Y-128085771D01*
X59428571Y-128085771D02*
X59571428Y-128085771D01*
X59571428Y-128085771D02*
X59666666Y-128133390D01*
X59666666Y-128133390D02*
X59714285Y-128181009D01*
X59714285Y-128181009D02*
X59761904Y-128276247D01*
X59761904Y-128276247D02*
X59761904Y-128514342D01*
X59761904Y-128514342D02*
X59714285Y-128609580D01*
X59714285Y-128609580D02*
X59666666Y-128657200D01*
X59666666Y-128657200D02*
X59571428Y-128704819D01*
X59571428Y-128704819D02*
X59285714Y-128704819D01*
X59285714Y-128704819D02*
X59190476Y-128657200D01*
X59190476Y-128657200D02*
X59142857Y-128609580D01*
X59533333Y-115959580D02*
X59485714Y-116007200D01*
X59485714Y-116007200D02*
X59342857Y-116054819D01*
X59342857Y-116054819D02*
X59247619Y-116054819D01*
X59247619Y-116054819D02*
X59104762Y-116007200D01*
X59104762Y-116007200D02*
X59009524Y-115911961D01*
X59009524Y-115911961D02*
X58961905Y-115816723D01*
X58961905Y-115816723D02*
X58914286Y-115626247D01*
X58914286Y-115626247D02*
X58914286Y-115483390D01*
X58914286Y-115483390D02*
X58961905Y-115292914D01*
X58961905Y-115292914D02*
X59009524Y-115197676D01*
X59009524Y-115197676D02*
X59104762Y-115102438D01*
X59104762Y-115102438D02*
X59247619Y-115054819D01*
X59247619Y-115054819D02*
X59342857Y-115054819D01*
X59342857Y-115054819D02*
X59485714Y-115102438D01*
X59485714Y-115102438D02*
X59533333Y-115150057D01*
X60390476Y-115388152D02*
X60390476Y-116054819D01*
X60152381Y-115007200D02*
X59914286Y-115721485D01*
X59914286Y-115721485D02*
X60533333Y-115721485D01*
X69366666Y-46624819D02*
X69366666Y-47339104D01*
X69366666Y-47339104D02*
X69319047Y-47481961D01*
X69319047Y-47481961D02*
X69223809Y-47577200D01*
X69223809Y-47577200D02*
X69080952Y-47624819D01*
X69080952Y-47624819D02*
X68985714Y-47624819D01*
X69747619Y-46624819D02*
X70366666Y-46624819D01*
X70366666Y-46624819D02*
X70033333Y-47005771D01*
X70033333Y-47005771D02*
X70176190Y-47005771D01*
X70176190Y-47005771D02*
X70271428Y-47053390D01*
X70271428Y-47053390D02*
X70319047Y-47101009D01*
X70319047Y-47101009D02*
X70366666Y-47196247D01*
X70366666Y-47196247D02*
X70366666Y-47434342D01*
X70366666Y-47434342D02*
X70319047Y-47529580D01*
X70319047Y-47529580D02*
X70271428Y-47577200D01*
X70271428Y-47577200D02*
X70176190Y-47624819D01*
X70176190Y-47624819D02*
X69890476Y-47624819D01*
X69890476Y-47624819D02*
X69795238Y-47577200D01*
X69795238Y-47577200D02*
X69747619Y-47529580D01*
X62633333Y-101759580D02*
X62585714Y-101807200D01*
X62585714Y-101807200D02*
X62442857Y-101854819D01*
X62442857Y-101854819D02*
X62347619Y-101854819D01*
X62347619Y-101854819D02*
X62204762Y-101807200D01*
X62204762Y-101807200D02*
X62109524Y-101711961D01*
X62109524Y-101711961D02*
X62061905Y-101616723D01*
X62061905Y-101616723D02*
X62014286Y-101426247D01*
X62014286Y-101426247D02*
X62014286Y-101283390D01*
X62014286Y-101283390D02*
X62061905Y-101092914D01*
X62061905Y-101092914D02*
X62109524Y-100997676D01*
X62109524Y-100997676D02*
X62204762Y-100902438D01*
X62204762Y-100902438D02*
X62347619Y-100854819D01*
X62347619Y-100854819D02*
X62442857Y-100854819D01*
X62442857Y-100854819D02*
X62585714Y-100902438D01*
X62585714Y-100902438D02*
X62633333Y-100950057D01*
X62966667Y-100854819D02*
X63585714Y-100854819D01*
X63585714Y-100854819D02*
X63252381Y-101235771D01*
X63252381Y-101235771D02*
X63395238Y-101235771D01*
X63395238Y-101235771D02*
X63490476Y-101283390D01*
X63490476Y-101283390D02*
X63538095Y-101331009D01*
X63538095Y-101331009D02*
X63585714Y-101426247D01*
X63585714Y-101426247D02*
X63585714Y-101664342D01*
X63585714Y-101664342D02*
X63538095Y-101759580D01*
X63538095Y-101759580D02*
X63490476Y-101807200D01*
X63490476Y-101807200D02*
X63395238Y-101854819D01*
X63395238Y-101854819D02*
X63109524Y-101854819D01*
X63109524Y-101854819D02*
X63014286Y-101807200D01*
X63014286Y-101807200D02*
X62966667Y-101759580D01*
X57461905Y-91754819D02*
X57461905Y-90754819D01*
X57461905Y-90754819D02*
X57700000Y-90754819D01*
X57700000Y-90754819D02*
X57842857Y-90802438D01*
X57842857Y-90802438D02*
X57938095Y-90897676D01*
X57938095Y-90897676D02*
X57985714Y-90992914D01*
X57985714Y-90992914D02*
X58033333Y-91183390D01*
X58033333Y-91183390D02*
X58033333Y-91326247D01*
X58033333Y-91326247D02*
X57985714Y-91516723D01*
X57985714Y-91516723D02*
X57938095Y-91611961D01*
X57938095Y-91611961D02*
X57842857Y-91707200D01*
X57842857Y-91707200D02*
X57700000Y-91754819D01*
X57700000Y-91754819D02*
X57461905Y-91754819D01*
X58414286Y-90850057D02*
X58461905Y-90802438D01*
X58461905Y-90802438D02*
X58557143Y-90754819D01*
X58557143Y-90754819D02*
X58795238Y-90754819D01*
X58795238Y-90754819D02*
X58890476Y-90802438D01*
X58890476Y-90802438D02*
X58938095Y-90850057D01*
X58938095Y-90850057D02*
X58985714Y-90945295D01*
X58985714Y-90945295D02*
X58985714Y-91040533D01*
X58985714Y-91040533D02*
X58938095Y-91183390D01*
X58938095Y-91183390D02*
X58366667Y-91754819D01*
X58366667Y-91754819D02*
X58985714Y-91754819D01*
X57433333Y-60159580D02*
X57385714Y-60207200D01*
X57385714Y-60207200D02*
X57242857Y-60254819D01*
X57242857Y-60254819D02*
X57147619Y-60254819D01*
X57147619Y-60254819D02*
X57004762Y-60207200D01*
X57004762Y-60207200D02*
X56909524Y-60111961D01*
X56909524Y-60111961D02*
X56861905Y-60016723D01*
X56861905Y-60016723D02*
X56814286Y-59826247D01*
X56814286Y-59826247D02*
X56814286Y-59683390D01*
X56814286Y-59683390D02*
X56861905Y-59492914D01*
X56861905Y-59492914D02*
X56909524Y-59397676D01*
X56909524Y-59397676D02*
X57004762Y-59302438D01*
X57004762Y-59302438D02*
X57147619Y-59254819D01*
X57147619Y-59254819D02*
X57242857Y-59254819D01*
X57242857Y-59254819D02*
X57385714Y-59302438D01*
X57385714Y-59302438D02*
X57433333Y-59350057D01*
X58385714Y-60254819D02*
X57814286Y-60254819D01*
X58100000Y-60254819D02*
X58100000Y-59254819D01*
X58100000Y-59254819D02*
X58004762Y-59397676D01*
X58004762Y-59397676D02*
X57909524Y-59492914D01*
X57909524Y-59492914D02*
X57814286Y-59540533D01*
X68457142Y-84854819D02*
X68123809Y-84378628D01*
X67885714Y-84854819D02*
X67885714Y-83854819D01*
X67885714Y-83854819D02*
X68266666Y-83854819D01*
X68266666Y-83854819D02*
X68361904Y-83902438D01*
X68361904Y-83902438D02*
X68409523Y-83950057D01*
X68409523Y-83950057D02*
X68457142Y-84045295D01*
X68457142Y-84045295D02*
X68457142Y-84188152D01*
X68457142Y-84188152D02*
X68409523Y-84283390D01*
X68409523Y-84283390D02*
X68361904Y-84331009D01*
X68361904Y-84331009D02*
X68266666Y-84378628D01*
X68266666Y-84378628D02*
X67885714Y-84378628D01*
X69409523Y-84854819D02*
X68838095Y-84854819D01*
X69123809Y-84854819D02*
X69123809Y-83854819D01*
X69123809Y-83854819D02*
X69028571Y-83997676D01*
X69028571Y-83997676D02*
X68933333Y-84092914D01*
X68933333Y-84092914D02*
X68838095Y-84140533D01*
X70266666Y-83854819D02*
X70076190Y-83854819D01*
X70076190Y-83854819D02*
X69980952Y-83902438D01*
X69980952Y-83902438D02*
X69933333Y-83950057D01*
X69933333Y-83950057D02*
X69838095Y-84092914D01*
X69838095Y-84092914D02*
X69790476Y-84283390D01*
X69790476Y-84283390D02*
X69790476Y-84664342D01*
X69790476Y-84664342D02*
X69838095Y-84759580D01*
X69838095Y-84759580D02*
X69885714Y-84807200D01*
X69885714Y-84807200D02*
X69980952Y-84854819D01*
X69980952Y-84854819D02*
X70171428Y-84854819D01*
X70171428Y-84854819D02*
X70266666Y-84807200D01*
X70266666Y-84807200D02*
X70314285Y-84759580D01*
X70314285Y-84759580D02*
X70361904Y-84664342D01*
X70361904Y-84664342D02*
X70361904Y-84426247D01*
X70361904Y-84426247D02*
X70314285Y-84331009D01*
X70314285Y-84331009D02*
X70266666Y-84283390D01*
X70266666Y-84283390D02*
X70171428Y-84235771D01*
X70171428Y-84235771D02*
X69980952Y-84235771D01*
X69980952Y-84235771D02*
X69885714Y-84283390D01*
X69885714Y-84283390D02*
X69838095Y-84331009D01*
X69838095Y-84331009D02*
X69790476Y-84426247D01*
X60857142Y-76304819D02*
X60523809Y-75828628D01*
X60285714Y-76304819D02*
X60285714Y-75304819D01*
X60285714Y-75304819D02*
X60666666Y-75304819D01*
X60666666Y-75304819D02*
X60761904Y-75352438D01*
X60761904Y-75352438D02*
X60809523Y-75400057D01*
X60809523Y-75400057D02*
X60857142Y-75495295D01*
X60857142Y-75495295D02*
X60857142Y-75638152D01*
X60857142Y-75638152D02*
X60809523Y-75733390D01*
X60809523Y-75733390D02*
X60761904Y-75781009D01*
X60761904Y-75781009D02*
X60666666Y-75828628D01*
X60666666Y-75828628D02*
X60285714Y-75828628D01*
X61809523Y-76304819D02*
X61238095Y-76304819D01*
X61523809Y-76304819D02*
X61523809Y-75304819D01*
X61523809Y-75304819D02*
X61428571Y-75447676D01*
X61428571Y-75447676D02*
X61333333Y-75542914D01*
X61333333Y-75542914D02*
X61238095Y-75590533D01*
X62380952Y-75733390D02*
X62285714Y-75685771D01*
X62285714Y-75685771D02*
X62238095Y-75638152D01*
X62238095Y-75638152D02*
X62190476Y-75542914D01*
X62190476Y-75542914D02*
X62190476Y-75495295D01*
X62190476Y-75495295D02*
X62238095Y-75400057D01*
X62238095Y-75400057D02*
X62285714Y-75352438D01*
X62285714Y-75352438D02*
X62380952Y-75304819D01*
X62380952Y-75304819D02*
X62571428Y-75304819D01*
X62571428Y-75304819D02*
X62666666Y-75352438D01*
X62666666Y-75352438D02*
X62714285Y-75400057D01*
X62714285Y-75400057D02*
X62761904Y-75495295D01*
X62761904Y-75495295D02*
X62761904Y-75542914D01*
X62761904Y-75542914D02*
X62714285Y-75638152D01*
X62714285Y-75638152D02*
X62666666Y-75685771D01*
X62666666Y-75685771D02*
X62571428Y-75733390D01*
X62571428Y-75733390D02*
X62380952Y-75733390D01*
X62380952Y-75733390D02*
X62285714Y-75781009D01*
X62285714Y-75781009D02*
X62238095Y-75828628D01*
X62238095Y-75828628D02*
X62190476Y-75923866D01*
X62190476Y-75923866D02*
X62190476Y-76114342D01*
X62190476Y-76114342D02*
X62238095Y-76209580D01*
X62238095Y-76209580D02*
X62285714Y-76257200D01*
X62285714Y-76257200D02*
X62380952Y-76304819D01*
X62380952Y-76304819D02*
X62571428Y-76304819D01*
X62571428Y-76304819D02*
X62666666Y-76257200D01*
X62666666Y-76257200D02*
X62714285Y-76209580D01*
X62714285Y-76209580D02*
X62761904Y-76114342D01*
X62761904Y-76114342D02*
X62761904Y-75923866D01*
X62761904Y-75923866D02*
X62714285Y-75828628D01*
X62714285Y-75828628D02*
X62666666Y-75781009D01*
X62666666Y-75781009D02*
X62571428Y-75733390D01*
X56933333Y-79754819D02*
X56600000Y-79278628D01*
X56361905Y-79754819D02*
X56361905Y-78754819D01*
X56361905Y-78754819D02*
X56742857Y-78754819D01*
X56742857Y-78754819D02*
X56838095Y-78802438D01*
X56838095Y-78802438D02*
X56885714Y-78850057D01*
X56885714Y-78850057D02*
X56933333Y-78945295D01*
X56933333Y-78945295D02*
X56933333Y-79088152D01*
X56933333Y-79088152D02*
X56885714Y-79183390D01*
X56885714Y-79183390D02*
X56838095Y-79231009D01*
X56838095Y-79231009D02*
X56742857Y-79278628D01*
X56742857Y-79278628D02*
X56361905Y-79278628D01*
X57409524Y-79754819D02*
X57600000Y-79754819D01*
X57600000Y-79754819D02*
X57695238Y-79707200D01*
X57695238Y-79707200D02*
X57742857Y-79659580D01*
X57742857Y-79659580D02*
X57838095Y-79516723D01*
X57838095Y-79516723D02*
X57885714Y-79326247D01*
X57885714Y-79326247D02*
X57885714Y-78945295D01*
X57885714Y-78945295D02*
X57838095Y-78850057D01*
X57838095Y-78850057D02*
X57790476Y-78802438D01*
X57790476Y-78802438D02*
X57695238Y-78754819D01*
X57695238Y-78754819D02*
X57504762Y-78754819D01*
X57504762Y-78754819D02*
X57409524Y-78802438D01*
X57409524Y-78802438D02*
X57361905Y-78850057D01*
X57361905Y-78850057D02*
X57314286Y-78945295D01*
X57314286Y-78945295D02*
X57314286Y-79183390D01*
X57314286Y-79183390D02*
X57361905Y-79278628D01*
X57361905Y-79278628D02*
X57409524Y-79326247D01*
X57409524Y-79326247D02*
X57504762Y-79373866D01*
X57504762Y-79373866D02*
X57695238Y-79373866D01*
X57695238Y-79373866D02*
X57790476Y-79326247D01*
X57790476Y-79326247D02*
X57838095Y-79278628D01*
X57838095Y-79278628D02*
X57885714Y-79183390D01*
X62538095Y-63974819D02*
X62538095Y-64784342D01*
X62538095Y-64784342D02*
X62585714Y-64879580D01*
X62585714Y-64879580D02*
X62633333Y-64927200D01*
X62633333Y-64927200D02*
X62728571Y-64974819D01*
X62728571Y-64974819D02*
X62919047Y-64974819D01*
X62919047Y-64974819D02*
X63014285Y-64927200D01*
X63014285Y-64927200D02*
X63061904Y-64879580D01*
X63061904Y-64879580D02*
X63109523Y-64784342D01*
X63109523Y-64784342D02*
X63109523Y-63974819D01*
X64109523Y-64974819D02*
X63538095Y-64974819D01*
X63823809Y-64974819D02*
X63823809Y-63974819D01*
X63823809Y-63974819D02*
X63728571Y-64117676D01*
X63728571Y-64117676D02*
X63633333Y-64212914D01*
X63633333Y-64212914D02*
X63538095Y-64260533D01*
X62633333Y-107859580D02*
X62585714Y-107907200D01*
X62585714Y-107907200D02*
X62442857Y-107954819D01*
X62442857Y-107954819D02*
X62347619Y-107954819D01*
X62347619Y-107954819D02*
X62204762Y-107907200D01*
X62204762Y-107907200D02*
X62109524Y-107811961D01*
X62109524Y-107811961D02*
X62061905Y-107716723D01*
X62061905Y-107716723D02*
X62014286Y-107526247D01*
X62014286Y-107526247D02*
X62014286Y-107383390D01*
X62014286Y-107383390D02*
X62061905Y-107192914D01*
X62061905Y-107192914D02*
X62109524Y-107097676D01*
X62109524Y-107097676D02*
X62204762Y-107002438D01*
X62204762Y-107002438D02*
X62347619Y-106954819D01*
X62347619Y-106954819D02*
X62442857Y-106954819D01*
X62442857Y-106954819D02*
X62585714Y-107002438D01*
X62585714Y-107002438D02*
X62633333Y-107050057D01*
X63014286Y-107050057D02*
X63061905Y-107002438D01*
X63061905Y-107002438D02*
X63157143Y-106954819D01*
X63157143Y-106954819D02*
X63395238Y-106954819D01*
X63395238Y-106954819D02*
X63490476Y-107002438D01*
X63490476Y-107002438D02*
X63538095Y-107050057D01*
X63538095Y-107050057D02*
X63585714Y-107145295D01*
X63585714Y-107145295D02*
X63585714Y-107240533D01*
X63585714Y-107240533D02*
X63538095Y-107383390D01*
X63538095Y-107383390D02*
X62966667Y-107954819D01*
X62966667Y-107954819D02*
X63585714Y-107954819D01*
X57159580Y-125492857D02*
X57207200Y-125540476D01*
X57207200Y-125540476D02*
X57254819Y-125683333D01*
X57254819Y-125683333D02*
X57254819Y-125778571D01*
X57254819Y-125778571D02*
X57207200Y-125921428D01*
X57207200Y-125921428D02*
X57111961Y-126016666D01*
X57111961Y-126016666D02*
X57016723Y-126064285D01*
X57016723Y-126064285D02*
X56826247Y-126111904D01*
X56826247Y-126111904D02*
X56683390Y-126111904D01*
X56683390Y-126111904D02*
X56492914Y-126064285D01*
X56492914Y-126064285D02*
X56397676Y-126016666D01*
X56397676Y-126016666D02*
X56302438Y-125921428D01*
X56302438Y-125921428D02*
X56254819Y-125778571D01*
X56254819Y-125778571D02*
X56254819Y-125683333D01*
X56254819Y-125683333D02*
X56302438Y-125540476D01*
X56302438Y-125540476D02*
X56350057Y-125492857D01*
X57254819Y-124540476D02*
X57254819Y-125111904D01*
X57254819Y-124826190D02*
X56254819Y-124826190D01*
X56254819Y-124826190D02*
X56397676Y-124921428D01*
X56397676Y-124921428D02*
X56492914Y-125016666D01*
X56492914Y-125016666D02*
X56540533Y-125111904D01*
X56350057Y-124159523D02*
X56302438Y-124111904D01*
X56302438Y-124111904D02*
X56254819Y-124016666D01*
X56254819Y-124016666D02*
X56254819Y-123778571D01*
X56254819Y-123778571D02*
X56302438Y-123683333D01*
X56302438Y-123683333D02*
X56350057Y-123635714D01*
X56350057Y-123635714D02*
X56445295Y-123588095D01*
X56445295Y-123588095D02*
X56540533Y-123588095D01*
X56540533Y-123588095D02*
X56683390Y-123635714D01*
X56683390Y-123635714D02*
X57254819Y-124207142D01*
X57254819Y-124207142D02*
X57254819Y-123588095D01*
X56457142Y-78554819D02*
X56123809Y-78078628D01*
X55885714Y-78554819D02*
X55885714Y-77554819D01*
X55885714Y-77554819D02*
X56266666Y-77554819D01*
X56266666Y-77554819D02*
X56361904Y-77602438D01*
X56361904Y-77602438D02*
X56409523Y-77650057D01*
X56409523Y-77650057D02*
X56457142Y-77745295D01*
X56457142Y-77745295D02*
X56457142Y-77888152D01*
X56457142Y-77888152D02*
X56409523Y-77983390D01*
X56409523Y-77983390D02*
X56361904Y-78031009D01*
X56361904Y-78031009D02*
X56266666Y-78078628D01*
X56266666Y-78078628D02*
X55885714Y-78078628D01*
X57409523Y-78554819D02*
X56838095Y-78554819D01*
X57123809Y-78554819D02*
X57123809Y-77554819D01*
X57123809Y-77554819D02*
X57028571Y-77697676D01*
X57028571Y-77697676D02*
X56933333Y-77792914D01*
X56933333Y-77792914D02*
X56838095Y-77840533D01*
X58361904Y-78554819D02*
X57790476Y-78554819D01*
X58076190Y-78554819D02*
X58076190Y-77554819D01*
X58076190Y-77554819D02*
X57980952Y-77697676D01*
X57980952Y-77697676D02*
X57885714Y-77792914D01*
X57885714Y-77792914D02*
X57790476Y-77840533D01*
X57433333Y-62854819D02*
X57100000Y-62378628D01*
X56861905Y-62854819D02*
X56861905Y-61854819D01*
X56861905Y-61854819D02*
X57242857Y-61854819D01*
X57242857Y-61854819D02*
X57338095Y-61902438D01*
X57338095Y-61902438D02*
X57385714Y-61950057D01*
X57385714Y-61950057D02*
X57433333Y-62045295D01*
X57433333Y-62045295D02*
X57433333Y-62188152D01*
X57433333Y-62188152D02*
X57385714Y-62283390D01*
X57385714Y-62283390D02*
X57338095Y-62331009D01*
X57338095Y-62331009D02*
X57242857Y-62378628D01*
X57242857Y-62378628D02*
X56861905Y-62378628D01*
X58385714Y-62854819D02*
X57814286Y-62854819D01*
X58100000Y-62854819D02*
X58100000Y-61854819D01*
X58100000Y-61854819D02*
X58004762Y-61997676D01*
X58004762Y-61997676D02*
X57909524Y-62092914D01*
X57909524Y-62092914D02*
X57814286Y-62140533D01*
X68357142Y-83454819D02*
X68023809Y-82978628D01*
X67785714Y-83454819D02*
X67785714Y-82454819D01*
X67785714Y-82454819D02*
X68166666Y-82454819D01*
X68166666Y-82454819D02*
X68261904Y-82502438D01*
X68261904Y-82502438D02*
X68309523Y-82550057D01*
X68309523Y-82550057D02*
X68357142Y-82645295D01*
X68357142Y-82645295D02*
X68357142Y-82788152D01*
X68357142Y-82788152D02*
X68309523Y-82883390D01*
X68309523Y-82883390D02*
X68261904Y-82931009D01*
X68261904Y-82931009D02*
X68166666Y-82978628D01*
X68166666Y-82978628D02*
X67785714Y-82978628D01*
X69309523Y-83454819D02*
X68738095Y-83454819D01*
X69023809Y-83454819D02*
X69023809Y-82454819D01*
X69023809Y-82454819D02*
X68928571Y-82597676D01*
X68928571Y-82597676D02*
X68833333Y-82692914D01*
X68833333Y-82692914D02*
X68738095Y-82740533D01*
X70166666Y-82788152D02*
X70166666Y-83454819D01*
X69928571Y-82407200D02*
X69690476Y-83121485D01*
X69690476Y-83121485D02*
X70309523Y-83121485D01*
X68357142Y-80659580D02*
X68309523Y-80707200D01*
X68309523Y-80707200D02*
X68166666Y-80754819D01*
X68166666Y-80754819D02*
X68071428Y-80754819D01*
X68071428Y-80754819D02*
X67928571Y-80707200D01*
X67928571Y-80707200D02*
X67833333Y-80611961D01*
X67833333Y-80611961D02*
X67785714Y-80516723D01*
X67785714Y-80516723D02*
X67738095Y-80326247D01*
X67738095Y-80326247D02*
X67738095Y-80183390D01*
X67738095Y-80183390D02*
X67785714Y-79992914D01*
X67785714Y-79992914D02*
X67833333Y-79897676D01*
X67833333Y-79897676D02*
X67928571Y-79802438D01*
X67928571Y-79802438D02*
X68071428Y-79754819D01*
X68071428Y-79754819D02*
X68166666Y-79754819D01*
X68166666Y-79754819D02*
X68309523Y-79802438D01*
X68309523Y-79802438D02*
X68357142Y-79850057D01*
X69309523Y-80754819D02*
X68738095Y-80754819D01*
X69023809Y-80754819D02*
X69023809Y-79754819D01*
X69023809Y-79754819D02*
X68928571Y-79897676D01*
X68928571Y-79897676D02*
X68833333Y-79992914D01*
X68833333Y-79992914D02*
X68738095Y-80040533D01*
X70166666Y-79754819D02*
X69976190Y-79754819D01*
X69976190Y-79754819D02*
X69880952Y-79802438D01*
X69880952Y-79802438D02*
X69833333Y-79850057D01*
X69833333Y-79850057D02*
X69738095Y-79992914D01*
X69738095Y-79992914D02*
X69690476Y-80183390D01*
X69690476Y-80183390D02*
X69690476Y-80564342D01*
X69690476Y-80564342D02*
X69738095Y-80659580D01*
X69738095Y-80659580D02*
X69785714Y-80707200D01*
X69785714Y-80707200D02*
X69880952Y-80754819D01*
X69880952Y-80754819D02*
X70071428Y-80754819D01*
X70071428Y-80754819D02*
X70166666Y-80707200D01*
X70166666Y-80707200D02*
X70214285Y-80659580D01*
X70214285Y-80659580D02*
X70261904Y-80564342D01*
X70261904Y-80564342D02*
X70261904Y-80326247D01*
X70261904Y-80326247D02*
X70214285Y-80231009D01*
X70214285Y-80231009D02*
X70166666Y-80183390D01*
X70166666Y-80183390D02*
X70071428Y-80135771D01*
X70071428Y-80135771D02*
X69880952Y-80135771D01*
X69880952Y-80135771D02*
X69785714Y-80183390D01*
X69785714Y-80183390D02*
X69738095Y-80231009D01*
X69738095Y-80231009D02*
X69690476Y-80326247D01*
X52966666Y-64924819D02*
X52966666Y-65639104D01*
X52966666Y-65639104D02*
X52919047Y-65781961D01*
X52919047Y-65781961D02*
X52823809Y-65877200D01*
X52823809Y-65877200D02*
X52680952Y-65924819D01*
X52680952Y-65924819D02*
X52585714Y-65924819D01*
X53919047Y-64924819D02*
X53442857Y-64924819D01*
X53442857Y-64924819D02*
X53395238Y-65401009D01*
X53395238Y-65401009D02*
X53442857Y-65353390D01*
X53442857Y-65353390D02*
X53538095Y-65305771D01*
X53538095Y-65305771D02*
X53776190Y-65305771D01*
X53776190Y-65305771D02*
X53871428Y-65353390D01*
X53871428Y-65353390D02*
X53919047Y-65401009D01*
X53919047Y-65401009D02*
X53966666Y-65496247D01*
X53966666Y-65496247D02*
X53966666Y-65734342D01*
X53966666Y-65734342D02*
X53919047Y-65829580D01*
X53919047Y-65829580D02*
X53871428Y-65877200D01*
X53871428Y-65877200D02*
X53776190Y-65924819D01*
X53776190Y-65924819D02*
X53538095Y-65924819D01*
X53538095Y-65924819D02*
X53442857Y-65877200D01*
X53442857Y-65877200D02*
X53395238Y-65829580D01*
X59633333Y-113359580D02*
X59585714Y-113407200D01*
X59585714Y-113407200D02*
X59442857Y-113454819D01*
X59442857Y-113454819D02*
X59347619Y-113454819D01*
X59347619Y-113454819D02*
X59204762Y-113407200D01*
X59204762Y-113407200D02*
X59109524Y-113311961D01*
X59109524Y-113311961D02*
X59061905Y-113216723D01*
X59061905Y-113216723D02*
X59014286Y-113026247D01*
X59014286Y-113026247D02*
X59014286Y-112883390D01*
X59014286Y-112883390D02*
X59061905Y-112692914D01*
X59061905Y-112692914D02*
X59109524Y-112597676D01*
X59109524Y-112597676D02*
X59204762Y-112502438D01*
X59204762Y-112502438D02*
X59347619Y-112454819D01*
X59347619Y-112454819D02*
X59442857Y-112454819D01*
X59442857Y-112454819D02*
X59585714Y-112502438D01*
X59585714Y-112502438D02*
X59633333Y-112550057D01*
X60109524Y-113454819D02*
X60300000Y-113454819D01*
X60300000Y-113454819D02*
X60395238Y-113407200D01*
X60395238Y-113407200D02*
X60442857Y-113359580D01*
X60442857Y-113359580D02*
X60538095Y-113216723D01*
X60538095Y-113216723D02*
X60585714Y-113026247D01*
X60585714Y-113026247D02*
X60585714Y-112645295D01*
X60585714Y-112645295D02*
X60538095Y-112550057D01*
X60538095Y-112550057D02*
X60490476Y-112502438D01*
X60490476Y-112502438D02*
X60395238Y-112454819D01*
X60395238Y-112454819D02*
X60204762Y-112454819D01*
X60204762Y-112454819D02*
X60109524Y-112502438D01*
X60109524Y-112502438D02*
X60061905Y-112550057D01*
X60061905Y-112550057D02*
X60014286Y-112645295D01*
X60014286Y-112645295D02*
X60014286Y-112883390D01*
X60014286Y-112883390D02*
X60061905Y-112978628D01*
X60061905Y-112978628D02*
X60109524Y-113026247D01*
X60109524Y-113026247D02*
X60204762Y-113073866D01*
X60204762Y-113073866D02*
X60395238Y-113073866D01*
X60395238Y-113073866D02*
X60490476Y-113026247D01*
X60490476Y-113026247D02*
X60538095Y-112978628D01*
X60538095Y-112978628D02*
X60585714Y-112883390D01*
X62933333Y-57554819D02*
X62600000Y-57078628D01*
X62361905Y-57554819D02*
X62361905Y-56554819D01*
X62361905Y-56554819D02*
X62742857Y-56554819D01*
X62742857Y-56554819D02*
X62838095Y-56602438D01*
X62838095Y-56602438D02*
X62885714Y-56650057D01*
X62885714Y-56650057D02*
X62933333Y-56745295D01*
X62933333Y-56745295D02*
X62933333Y-56888152D01*
X62933333Y-56888152D02*
X62885714Y-56983390D01*
X62885714Y-56983390D02*
X62838095Y-57031009D01*
X62838095Y-57031009D02*
X62742857Y-57078628D01*
X62742857Y-57078628D02*
X62361905Y-57078628D01*
X63790476Y-56554819D02*
X63600000Y-56554819D01*
X63600000Y-56554819D02*
X63504762Y-56602438D01*
X63504762Y-56602438D02*
X63457143Y-56650057D01*
X63457143Y-56650057D02*
X63361905Y-56792914D01*
X63361905Y-56792914D02*
X63314286Y-56983390D01*
X63314286Y-56983390D02*
X63314286Y-57364342D01*
X63314286Y-57364342D02*
X63361905Y-57459580D01*
X63361905Y-57459580D02*
X63409524Y-57507200D01*
X63409524Y-57507200D02*
X63504762Y-57554819D01*
X63504762Y-57554819D02*
X63695238Y-57554819D01*
X63695238Y-57554819D02*
X63790476Y-57507200D01*
X63790476Y-57507200D02*
X63838095Y-57459580D01*
X63838095Y-57459580D02*
X63885714Y-57364342D01*
X63885714Y-57364342D02*
X63885714Y-57126247D01*
X63885714Y-57126247D02*
X63838095Y-57031009D01*
X63838095Y-57031009D02*
X63790476Y-56983390D01*
X63790476Y-56983390D02*
X63695238Y-56935771D01*
X63695238Y-56935771D02*
X63504762Y-56935771D01*
X63504762Y-56935771D02*
X63409524Y-56983390D01*
X63409524Y-56983390D02*
X63361905Y-57031009D01*
X63361905Y-57031009D02*
X63314286Y-57126247D01*
X64294405Y-84267319D02*
X64294405Y-83267319D01*
X64294405Y-83267319D02*
X64532500Y-83267319D01*
X64532500Y-83267319D02*
X64675357Y-83314938D01*
X64675357Y-83314938D02*
X64770595Y-83410176D01*
X64770595Y-83410176D02*
X64818214Y-83505414D01*
X64818214Y-83505414D02*
X64865833Y-83695890D01*
X64865833Y-83695890D02*
X64865833Y-83838747D01*
X64865833Y-83838747D02*
X64818214Y-84029223D01*
X64818214Y-84029223D02*
X64770595Y-84124461D01*
X64770595Y-84124461D02*
X64675357Y-84219700D01*
X64675357Y-84219700D02*
X64532500Y-84267319D01*
X64532500Y-84267319D02*
X64294405Y-84267319D01*
X65722976Y-83600652D02*
X65722976Y-84267319D01*
X65484881Y-83219700D02*
X65246786Y-83933985D01*
X65246786Y-83933985D02*
X65865833Y-83933985D01*
X60857142Y-77654819D02*
X60523809Y-77178628D01*
X60285714Y-77654819D02*
X60285714Y-76654819D01*
X60285714Y-76654819D02*
X60666666Y-76654819D01*
X60666666Y-76654819D02*
X60761904Y-76702438D01*
X60761904Y-76702438D02*
X60809523Y-76750057D01*
X60809523Y-76750057D02*
X60857142Y-76845295D01*
X60857142Y-76845295D02*
X60857142Y-76988152D01*
X60857142Y-76988152D02*
X60809523Y-77083390D01*
X60809523Y-77083390D02*
X60761904Y-77131009D01*
X60761904Y-77131009D02*
X60666666Y-77178628D01*
X60666666Y-77178628D02*
X60285714Y-77178628D01*
X61809523Y-77654819D02*
X61238095Y-77654819D01*
X61523809Y-77654819D02*
X61523809Y-76654819D01*
X61523809Y-76654819D02*
X61428571Y-76797676D01*
X61428571Y-76797676D02*
X61333333Y-76892914D01*
X61333333Y-76892914D02*
X61238095Y-76940533D01*
X62428571Y-76654819D02*
X62523809Y-76654819D01*
X62523809Y-76654819D02*
X62619047Y-76702438D01*
X62619047Y-76702438D02*
X62666666Y-76750057D01*
X62666666Y-76750057D02*
X62714285Y-76845295D01*
X62714285Y-76845295D02*
X62761904Y-77035771D01*
X62761904Y-77035771D02*
X62761904Y-77273866D01*
X62761904Y-77273866D02*
X62714285Y-77464342D01*
X62714285Y-77464342D02*
X62666666Y-77559580D01*
X62666666Y-77559580D02*
X62619047Y-77607200D01*
X62619047Y-77607200D02*
X62523809Y-77654819D01*
X62523809Y-77654819D02*
X62428571Y-77654819D01*
X62428571Y-77654819D02*
X62333333Y-77607200D01*
X62333333Y-77607200D02*
X62285714Y-77559580D01*
X62285714Y-77559580D02*
X62238095Y-77464342D01*
X62238095Y-77464342D02*
X62190476Y-77273866D01*
X62190476Y-77273866D02*
X62190476Y-77035771D01*
X62190476Y-77035771D02*
X62238095Y-76845295D01*
X62238095Y-76845295D02*
X62285714Y-76750057D01*
X62285714Y-76750057D02*
X62333333Y-76702438D01*
X62333333Y-76702438D02*
X62428571Y-76654819D01*
X57433333Y-61554819D02*
X57100000Y-61078628D01*
X56861905Y-61554819D02*
X56861905Y-60554819D01*
X56861905Y-60554819D02*
X57242857Y-60554819D01*
X57242857Y-60554819D02*
X57338095Y-60602438D01*
X57338095Y-60602438D02*
X57385714Y-60650057D01*
X57385714Y-60650057D02*
X57433333Y-60745295D01*
X57433333Y-60745295D02*
X57433333Y-60888152D01*
X57433333Y-60888152D02*
X57385714Y-60983390D01*
X57385714Y-60983390D02*
X57338095Y-61031009D01*
X57338095Y-61031009D02*
X57242857Y-61078628D01*
X57242857Y-61078628D02*
X56861905Y-61078628D01*
X58290476Y-60888152D02*
X58290476Y-61554819D01*
X58052381Y-60507200D02*
X57814286Y-61221485D01*
X57814286Y-61221485D02*
X58433333Y-61221485D01*
X59633333Y-110859580D02*
X59585714Y-110907200D01*
X59585714Y-110907200D02*
X59442857Y-110954819D01*
X59442857Y-110954819D02*
X59347619Y-110954819D01*
X59347619Y-110954819D02*
X59204762Y-110907200D01*
X59204762Y-110907200D02*
X59109524Y-110811961D01*
X59109524Y-110811961D02*
X59061905Y-110716723D01*
X59061905Y-110716723D02*
X59014286Y-110526247D01*
X59014286Y-110526247D02*
X59014286Y-110383390D01*
X59014286Y-110383390D02*
X59061905Y-110192914D01*
X59061905Y-110192914D02*
X59109524Y-110097676D01*
X59109524Y-110097676D02*
X59204762Y-110002438D01*
X59204762Y-110002438D02*
X59347619Y-109954819D01*
X59347619Y-109954819D02*
X59442857Y-109954819D01*
X59442857Y-109954819D02*
X59585714Y-110002438D01*
X59585714Y-110002438D02*
X59633333Y-110050057D01*
X59966667Y-109954819D02*
X60633333Y-109954819D01*
X60633333Y-109954819D02*
X60204762Y-110954819D01*
X60033333Y-118459580D02*
X59985714Y-118507200D01*
X59985714Y-118507200D02*
X59842857Y-118554819D01*
X59842857Y-118554819D02*
X59747619Y-118554819D01*
X59747619Y-118554819D02*
X59604762Y-118507200D01*
X59604762Y-118507200D02*
X59509524Y-118411961D01*
X59509524Y-118411961D02*
X59461905Y-118316723D01*
X59461905Y-118316723D02*
X59414286Y-118126247D01*
X59414286Y-118126247D02*
X59414286Y-117983390D01*
X59414286Y-117983390D02*
X59461905Y-117792914D01*
X59461905Y-117792914D02*
X59509524Y-117697676D01*
X59509524Y-117697676D02*
X59604762Y-117602438D01*
X59604762Y-117602438D02*
X59747619Y-117554819D01*
X59747619Y-117554819D02*
X59842857Y-117554819D01*
X59842857Y-117554819D02*
X59985714Y-117602438D01*
X59985714Y-117602438D02*
X60033333Y-117650057D01*
X60604762Y-117983390D02*
X60509524Y-117935771D01*
X60509524Y-117935771D02*
X60461905Y-117888152D01*
X60461905Y-117888152D02*
X60414286Y-117792914D01*
X60414286Y-117792914D02*
X60414286Y-117745295D01*
X60414286Y-117745295D02*
X60461905Y-117650057D01*
X60461905Y-117650057D02*
X60509524Y-117602438D01*
X60509524Y-117602438D02*
X60604762Y-117554819D01*
X60604762Y-117554819D02*
X60795238Y-117554819D01*
X60795238Y-117554819D02*
X60890476Y-117602438D01*
X60890476Y-117602438D02*
X60938095Y-117650057D01*
X60938095Y-117650057D02*
X60985714Y-117745295D01*
X60985714Y-117745295D02*
X60985714Y-117792914D01*
X60985714Y-117792914D02*
X60938095Y-117888152D01*
X60938095Y-117888152D02*
X60890476Y-117935771D01*
X60890476Y-117935771D02*
X60795238Y-117983390D01*
X60795238Y-117983390D02*
X60604762Y-117983390D01*
X60604762Y-117983390D02*
X60509524Y-118031009D01*
X60509524Y-118031009D02*
X60461905Y-118078628D01*
X60461905Y-118078628D02*
X60414286Y-118173866D01*
X60414286Y-118173866D02*
X60414286Y-118364342D01*
X60414286Y-118364342D02*
X60461905Y-118459580D01*
X60461905Y-118459580D02*
X60509524Y-118507200D01*
X60509524Y-118507200D02*
X60604762Y-118554819D01*
X60604762Y-118554819D02*
X60795238Y-118554819D01*
X60795238Y-118554819D02*
X60890476Y-118507200D01*
X60890476Y-118507200D02*
X60938095Y-118459580D01*
X60938095Y-118459580D02*
X60985714Y-118364342D01*
X60985714Y-118364342D02*
X60985714Y-118173866D01*
X60985714Y-118173866D02*
X60938095Y-118078628D01*
X60938095Y-118078628D02*
X60890476Y-118031009D01*
X60890476Y-118031009D02*
X60795238Y-117983390D01*
X57461905Y-89354819D02*
X57461905Y-88354819D01*
X57461905Y-88354819D02*
X57700000Y-88354819D01*
X57700000Y-88354819D02*
X57842857Y-88402438D01*
X57842857Y-88402438D02*
X57938095Y-88497676D01*
X57938095Y-88497676D02*
X57985714Y-88592914D01*
X57985714Y-88592914D02*
X58033333Y-88783390D01*
X58033333Y-88783390D02*
X58033333Y-88926247D01*
X58033333Y-88926247D02*
X57985714Y-89116723D01*
X57985714Y-89116723D02*
X57938095Y-89211961D01*
X57938095Y-89211961D02*
X57842857Y-89307200D01*
X57842857Y-89307200D02*
X57700000Y-89354819D01*
X57700000Y-89354819D02*
X57461905Y-89354819D01*
X58985714Y-89354819D02*
X58414286Y-89354819D01*
X58700000Y-89354819D02*
X58700000Y-88354819D01*
X58700000Y-88354819D02*
X58604762Y-88497676D01*
X58604762Y-88497676D02*
X58509524Y-88592914D01*
X58509524Y-88592914D02*
X58414286Y-88640533D01*
X62933333Y-55054819D02*
X62600000Y-54578628D01*
X62361905Y-55054819D02*
X62361905Y-54054819D01*
X62361905Y-54054819D02*
X62742857Y-54054819D01*
X62742857Y-54054819D02*
X62838095Y-54102438D01*
X62838095Y-54102438D02*
X62885714Y-54150057D01*
X62885714Y-54150057D02*
X62933333Y-54245295D01*
X62933333Y-54245295D02*
X62933333Y-54388152D01*
X62933333Y-54388152D02*
X62885714Y-54483390D01*
X62885714Y-54483390D02*
X62838095Y-54531009D01*
X62838095Y-54531009D02*
X62742857Y-54578628D01*
X62742857Y-54578628D02*
X62361905Y-54578628D01*
X63838095Y-54054819D02*
X63361905Y-54054819D01*
X63361905Y-54054819D02*
X63314286Y-54531009D01*
X63314286Y-54531009D02*
X63361905Y-54483390D01*
X63361905Y-54483390D02*
X63457143Y-54435771D01*
X63457143Y-54435771D02*
X63695238Y-54435771D01*
X63695238Y-54435771D02*
X63790476Y-54483390D01*
X63790476Y-54483390D02*
X63838095Y-54531009D01*
X63838095Y-54531009D02*
X63885714Y-54626247D01*
X63885714Y-54626247D02*
X63885714Y-54864342D01*
X63885714Y-54864342D02*
X63838095Y-54959580D01*
X63838095Y-54959580D02*
X63790476Y-55007200D01*
X63790476Y-55007200D02*
X63695238Y-55054819D01*
X63695238Y-55054819D02*
X63457143Y-55054819D01*
X63457143Y-55054819D02*
X63361905Y-55007200D01*
X63361905Y-55007200D02*
X63314286Y-54959580D01*
X66439580Y-125492857D02*
X66487200Y-125540476D01*
X66487200Y-125540476D02*
X66534819Y-125683333D01*
X66534819Y-125683333D02*
X66534819Y-125778571D01*
X66534819Y-125778571D02*
X66487200Y-125921428D01*
X66487200Y-125921428D02*
X66391961Y-126016666D01*
X66391961Y-126016666D02*
X66296723Y-126064285D01*
X66296723Y-126064285D02*
X66106247Y-126111904D01*
X66106247Y-126111904D02*
X65963390Y-126111904D01*
X65963390Y-126111904D02*
X65772914Y-126064285D01*
X65772914Y-126064285D02*
X65677676Y-126016666D01*
X65677676Y-126016666D02*
X65582438Y-125921428D01*
X65582438Y-125921428D02*
X65534819Y-125778571D01*
X65534819Y-125778571D02*
X65534819Y-125683333D01*
X65534819Y-125683333D02*
X65582438Y-125540476D01*
X65582438Y-125540476D02*
X65630057Y-125492857D01*
X66534819Y-124540476D02*
X66534819Y-125111904D01*
X66534819Y-124826190D02*
X65534819Y-124826190D01*
X65534819Y-124826190D02*
X65677676Y-124921428D01*
X65677676Y-124921428D02*
X65772914Y-125016666D01*
X65772914Y-125016666D02*
X65820533Y-125111904D01*
X65868152Y-123683333D02*
X66534819Y-123683333D01*
X65487200Y-123921428D02*
X66201485Y-124159523D01*
X66201485Y-124159523D02*
X66201485Y-123540476D01*
X56657142Y-72259580D02*
X56609523Y-72307200D01*
X56609523Y-72307200D02*
X56466666Y-72354819D01*
X56466666Y-72354819D02*
X56371428Y-72354819D01*
X56371428Y-72354819D02*
X56228571Y-72307200D01*
X56228571Y-72307200D02*
X56133333Y-72211961D01*
X56133333Y-72211961D02*
X56085714Y-72116723D01*
X56085714Y-72116723D02*
X56038095Y-71926247D01*
X56038095Y-71926247D02*
X56038095Y-71783390D01*
X56038095Y-71783390D02*
X56085714Y-71592914D01*
X56085714Y-71592914D02*
X56133333Y-71497676D01*
X56133333Y-71497676D02*
X56228571Y-71402438D01*
X56228571Y-71402438D02*
X56371428Y-71354819D01*
X56371428Y-71354819D02*
X56466666Y-71354819D01*
X56466666Y-71354819D02*
X56609523Y-71402438D01*
X56609523Y-71402438D02*
X56657142Y-71450057D01*
X57609523Y-72354819D02*
X57038095Y-72354819D01*
X57323809Y-72354819D02*
X57323809Y-71354819D01*
X57323809Y-71354819D02*
X57228571Y-71497676D01*
X57228571Y-71497676D02*
X57133333Y-71592914D01*
X57133333Y-71592914D02*
X57038095Y-71640533D01*
X58561904Y-72354819D02*
X57990476Y-72354819D01*
X58276190Y-72354819D02*
X58276190Y-71354819D01*
X58276190Y-71354819D02*
X58180952Y-71497676D01*
X58180952Y-71497676D02*
X58085714Y-71592914D01*
X58085714Y-71592914D02*
X57990476Y-71640533D01*
X62933333Y-52554819D02*
X62600000Y-52078628D01*
X62361905Y-52554819D02*
X62361905Y-51554819D01*
X62361905Y-51554819D02*
X62742857Y-51554819D01*
X62742857Y-51554819D02*
X62838095Y-51602438D01*
X62838095Y-51602438D02*
X62885714Y-51650057D01*
X62885714Y-51650057D02*
X62933333Y-51745295D01*
X62933333Y-51745295D02*
X62933333Y-51888152D01*
X62933333Y-51888152D02*
X62885714Y-51983390D01*
X62885714Y-51983390D02*
X62838095Y-52031009D01*
X62838095Y-52031009D02*
X62742857Y-52078628D01*
X62742857Y-52078628D02*
X62361905Y-52078628D01*
X63504762Y-51983390D02*
X63409524Y-51935771D01*
X63409524Y-51935771D02*
X63361905Y-51888152D01*
X63361905Y-51888152D02*
X63314286Y-51792914D01*
X63314286Y-51792914D02*
X63314286Y-51745295D01*
X63314286Y-51745295D02*
X63361905Y-51650057D01*
X63361905Y-51650057D02*
X63409524Y-51602438D01*
X63409524Y-51602438D02*
X63504762Y-51554819D01*
X63504762Y-51554819D02*
X63695238Y-51554819D01*
X63695238Y-51554819D02*
X63790476Y-51602438D01*
X63790476Y-51602438D02*
X63838095Y-51650057D01*
X63838095Y-51650057D02*
X63885714Y-51745295D01*
X63885714Y-51745295D02*
X63885714Y-51792914D01*
X63885714Y-51792914D02*
X63838095Y-51888152D01*
X63838095Y-51888152D02*
X63790476Y-51935771D01*
X63790476Y-51935771D02*
X63695238Y-51983390D01*
X63695238Y-51983390D02*
X63504762Y-51983390D01*
X63504762Y-51983390D02*
X63409524Y-52031009D01*
X63409524Y-52031009D02*
X63361905Y-52078628D01*
X63361905Y-52078628D02*
X63314286Y-52173866D01*
X63314286Y-52173866D02*
X63314286Y-52364342D01*
X63314286Y-52364342D02*
X63361905Y-52459580D01*
X63361905Y-52459580D02*
X63409524Y-52507200D01*
X63409524Y-52507200D02*
X63504762Y-52554819D01*
X63504762Y-52554819D02*
X63695238Y-52554819D01*
X63695238Y-52554819D02*
X63790476Y-52507200D01*
X63790476Y-52507200D02*
X63838095Y-52459580D01*
X63838095Y-52459580D02*
X63885714Y-52364342D01*
X63885714Y-52364342D02*
X63885714Y-52173866D01*
X63885714Y-52173866D02*
X63838095Y-52078628D01*
X63838095Y-52078628D02*
X63790476Y-52031009D01*
X63790476Y-52031009D02*
X63695238Y-51983390D01*
X65933333Y-111759580D02*
X65885714Y-111807200D01*
X65885714Y-111807200D02*
X65742857Y-111854819D01*
X65742857Y-111854819D02*
X65647619Y-111854819D01*
X65647619Y-111854819D02*
X65504762Y-111807200D01*
X65504762Y-111807200D02*
X65409524Y-111711961D01*
X65409524Y-111711961D02*
X65361905Y-111616723D01*
X65361905Y-111616723D02*
X65314286Y-111426247D01*
X65314286Y-111426247D02*
X65314286Y-111283390D01*
X65314286Y-111283390D02*
X65361905Y-111092914D01*
X65361905Y-111092914D02*
X65409524Y-110997676D01*
X65409524Y-110997676D02*
X65504762Y-110902438D01*
X65504762Y-110902438D02*
X65647619Y-110854819D01*
X65647619Y-110854819D02*
X65742857Y-110854819D01*
X65742857Y-110854819D02*
X65885714Y-110902438D01*
X65885714Y-110902438D02*
X65933333Y-110950057D01*
X66790476Y-110854819D02*
X66600000Y-110854819D01*
X66600000Y-110854819D02*
X66504762Y-110902438D01*
X66504762Y-110902438D02*
X66457143Y-110950057D01*
X66457143Y-110950057D02*
X66361905Y-111092914D01*
X66361905Y-111092914D02*
X66314286Y-111283390D01*
X66314286Y-111283390D02*
X66314286Y-111664342D01*
X66314286Y-111664342D02*
X66361905Y-111759580D01*
X66361905Y-111759580D02*
X66409524Y-111807200D01*
X66409524Y-111807200D02*
X66504762Y-111854819D01*
X66504762Y-111854819D02*
X66695238Y-111854819D01*
X66695238Y-111854819D02*
X66790476Y-111807200D01*
X66790476Y-111807200D02*
X66838095Y-111759580D01*
X66838095Y-111759580D02*
X66885714Y-111664342D01*
X66885714Y-111664342D02*
X66885714Y-111426247D01*
X66885714Y-111426247D02*
X66838095Y-111331009D01*
X66838095Y-111331009D02*
X66790476Y-111283390D01*
X66790476Y-111283390D02*
X66695238Y-111235771D01*
X66695238Y-111235771D02*
X66504762Y-111235771D01*
X66504762Y-111235771D02*
X66409524Y-111283390D01*
X66409524Y-111283390D02*
X66361905Y-111331009D01*
X66361905Y-111331009D02*
X66314286Y-111426247D01*
D12*
X63592380Y-127061818D02*
X63592380Y-128089913D01*
X63592380Y-128089913D02*
X63652857Y-128210865D01*
X63652857Y-128210865D02*
X63713333Y-128271342D01*
X63713333Y-128271342D02*
X63834285Y-128331818D01*
X63834285Y-128331818D02*
X64076190Y-128331818D01*
X64076190Y-128331818D02*
X64197142Y-128271342D01*
X64197142Y-128271342D02*
X64257619Y-128210865D01*
X64257619Y-128210865D02*
X64318095Y-128089913D01*
X64318095Y-128089913D02*
X64318095Y-127061818D01*
X64801904Y-127061818D02*
X65588095Y-127061818D01*
X65588095Y-127061818D02*
X65164761Y-127545627D01*
X65164761Y-127545627D02*
X65346190Y-127545627D01*
X65346190Y-127545627D02*
X65467142Y-127606103D01*
X65467142Y-127606103D02*
X65527618Y-127666580D01*
X65527618Y-127666580D02*
X65588095Y-127787532D01*
X65588095Y-127787532D02*
X65588095Y-128089913D01*
X65588095Y-128089913D02*
X65527618Y-128210865D01*
X65527618Y-128210865D02*
X65467142Y-128271342D01*
X65467142Y-128271342D02*
X65346190Y-128331818D01*
X65346190Y-128331818D02*
X64983333Y-128331818D01*
X64983333Y-128331818D02*
X64862380Y-128271342D01*
X64862380Y-128271342D02*
X64801904Y-128210865D01*
D11*
X68357142Y-79354819D02*
X68023809Y-78878628D01*
X67785714Y-79354819D02*
X67785714Y-78354819D01*
X67785714Y-78354819D02*
X68166666Y-78354819D01*
X68166666Y-78354819D02*
X68261904Y-78402438D01*
X68261904Y-78402438D02*
X68309523Y-78450057D01*
X68309523Y-78450057D02*
X68357142Y-78545295D01*
X68357142Y-78545295D02*
X68357142Y-78688152D01*
X68357142Y-78688152D02*
X68309523Y-78783390D01*
X68309523Y-78783390D02*
X68261904Y-78831009D01*
X68261904Y-78831009D02*
X68166666Y-78878628D01*
X68166666Y-78878628D02*
X67785714Y-78878628D01*
X69309523Y-79354819D02*
X68738095Y-79354819D01*
X69023809Y-79354819D02*
X69023809Y-78354819D01*
X69023809Y-78354819D02*
X68928571Y-78497676D01*
X68928571Y-78497676D02*
X68833333Y-78592914D01*
X68833333Y-78592914D02*
X68738095Y-78640533D01*
X69642857Y-78354819D02*
X70261904Y-78354819D01*
X70261904Y-78354819D02*
X69928571Y-78735771D01*
X69928571Y-78735771D02*
X70071428Y-78735771D01*
X70071428Y-78735771D02*
X70166666Y-78783390D01*
X70166666Y-78783390D02*
X70214285Y-78831009D01*
X70214285Y-78831009D02*
X70261904Y-78926247D01*
X70261904Y-78926247D02*
X70261904Y-79164342D01*
X70261904Y-79164342D02*
X70214285Y-79259580D01*
X70214285Y-79259580D02*
X70166666Y-79307200D01*
X70166666Y-79307200D02*
X70071428Y-79354819D01*
X70071428Y-79354819D02*
X69785714Y-79354819D01*
X69785714Y-79354819D02*
X69690476Y-79307200D01*
X69690476Y-79307200D02*
X69642857Y-79259580D01*
D10*
X51740000Y-125040000D02*
X52940000Y-125040000D01*
X51740000Y-128495563D02*
X51740000Y-125040000D01*
X52190000Y-130050000D02*
X52690000Y-130050000D01*
X52440000Y-130300000D02*
X52440000Y-129800000D01*
X52804437Y-129560000D02*
X51740000Y-128495563D01*
X52804437Y-129560000D02*
X52940000Y-129560000D01*
X55195563Y-129560000D02*
X55060000Y-129560000D01*
X55195563Y-129560000D02*
X56260000Y-128495563D01*
X56260000Y-125040000D02*
X55060000Y-125040000D01*
X56260000Y-128495563D02*
X56260000Y-125040000D01*
X66740000Y-126004437D02*
X66740000Y-129460000D01*
X66740000Y-129460000D02*
X67940000Y-129460000D01*
X67804437Y-124940000D02*
X66740000Y-126004437D01*
X67804437Y-124940000D02*
X67940000Y-124940000D01*
X70195563Y-124940000D02*
X70060000Y-124940000D01*
X70195563Y-124940000D02*
X71260000Y-126004437D01*
X70560000Y-124200000D02*
X70560000Y-124700000D01*
X70810000Y-124450000D02*
X70310000Y-124450000D01*
X71260000Y-126004437D02*
X71260000Y-129460000D01*
X71260000Y-129460000D02*
X70060000Y-129460000D01*
X66327064Y-104665000D02*
X65872936Y-104665000D01*
X66327064Y-106135000D02*
X65872936Y-106135000D01*
X68772936Y-64665000D02*
X69227064Y-64665000D01*
X68772936Y-66135000D02*
X69227064Y-66135000D01*
X66327064Y-102665000D02*
X65872936Y-102665000D01*
X66327064Y-104135000D02*
X65872936Y-104135000D01*
X68772936Y-71165000D02*
X69227064Y-71165000D01*
X68772936Y-72635000D02*
X69227064Y-72635000D01*
X66361252Y-117365000D02*
X65838748Y-117365000D01*
X66361252Y-118835000D02*
X65838748Y-118835000D01*
X67360000Y-78700000D02*
X63350000Y-78700000D01*
X67360000Y-80700000D02*
X63350000Y-80700000D01*
X67360000Y-80700000D02*
X67360000Y-78700000D01*
X61138748Y-127515000D02*
X61661252Y-127515000D01*
X61138748Y-128985000D02*
X61661252Y-128985000D01*
X56638748Y-114865000D02*
X57161252Y-114865000D01*
X56638748Y-116335000D02*
X57161252Y-116335000D01*
X68370000Y-48170000D02*
X69700000Y-48170000D01*
X68370000Y-49500000D02*
X68370000Y-48170000D01*
X68370000Y-50770000D02*
X68370000Y-63530000D01*
X68370000Y-50770000D02*
X71030000Y-50770000D01*
X68370000Y-63530000D02*
X71030000Y-63530000D01*
X71030000Y-50770000D02*
X71030000Y-63530000D01*
X65838748Y-100665000D02*
X66361252Y-100665000D01*
X65838748Y-102135000D02*
X66361252Y-102135000D01*
X60560000Y-88300000D02*
X56550000Y-88300000D01*
X60560000Y-90300000D02*
X56550000Y-90300000D01*
X60560000Y-90300000D02*
X60560000Y-88300000D01*
X57338748Y-63265000D02*
X57861252Y-63265000D01*
X57338748Y-64735000D02*
X57861252Y-64735000D01*
X69227064Y-75165000D02*
X68772936Y-75165000D01*
X69227064Y-76635000D02*
X68772936Y-76635000D01*
X61272936Y-76765000D02*
X61727064Y-76765000D01*
X61272936Y-78235000D02*
X61727064Y-78235000D01*
X56872936Y-75765000D02*
X57327064Y-75765000D01*
X56872936Y-77235000D02*
X57327064Y-77235000D01*
X63300000Y-65365000D02*
X59850000Y-65365000D01*
X63300000Y-65365000D02*
X65250000Y-65365000D01*
X63300000Y-74235000D02*
X61350000Y-74235000D01*
X63300000Y-74235000D02*
X65250000Y-74235000D01*
X65838748Y-106765000D02*
X66361252Y-106765000D01*
X65838748Y-108235000D02*
X66361252Y-108235000D01*
X57865000Y-124588748D02*
X57865000Y-125111252D01*
X59335000Y-124588748D02*
X59335000Y-125111252D01*
X56872936Y-73765000D02*
X57327064Y-73765000D01*
X56872936Y-75235000D02*
X57327064Y-75235000D01*
X57372936Y-67265000D02*
X57827064Y-67265000D01*
X57372936Y-68735000D02*
X57827064Y-68735000D01*
X68772936Y-73165000D02*
X69227064Y-73165000D01*
X68772936Y-74635000D02*
X69227064Y-74635000D01*
X69261252Y-68965000D02*
X68738748Y-68965000D01*
X69261252Y-70435000D02*
X68738748Y-70435000D01*
X51970000Y-66470000D02*
X53300000Y-66470000D01*
X51970000Y-67800000D02*
X51970000Y-66470000D01*
X51970000Y-69070000D02*
X51970000Y-86910000D01*
X51970000Y-69070000D02*
X54630000Y-69070000D01*
X51970000Y-86910000D02*
X54630000Y-86910000D01*
X54630000Y-69070000D02*
X54630000Y-86910000D01*
X56676248Y-112265000D02*
X57198752Y-112265000D01*
X56676248Y-113735000D02*
X57198752Y-113735000D01*
X66127064Y-56365000D02*
X65672936Y-56365000D01*
X66127064Y-57835000D02*
X65672936Y-57835000D01*
X67360000Y-81100000D02*
X63350000Y-81100000D01*
X67360000Y-83100000D02*
X63350000Y-83100000D01*
X67360000Y-83100000D02*
X67360000Y-81100000D01*
X61272936Y-74765000D02*
X61727064Y-74765000D01*
X61272936Y-76235000D02*
X61727064Y-76235000D01*
X57372936Y-65265000D02*
X57827064Y-65265000D01*
X57372936Y-66735000D02*
X57827064Y-66735000D01*
X56738748Y-109765000D02*
X57261252Y-109765000D01*
X56738748Y-111235000D02*
X57261252Y-111235000D01*
X56638748Y-117365000D02*
X57161252Y-117365000D01*
X56638748Y-118835000D02*
X57161252Y-118835000D01*
X60560000Y-85900000D02*
X56550000Y-85900000D01*
X60560000Y-87900000D02*
X56550000Y-87900000D01*
X60560000Y-87900000D02*
X60560000Y-85900000D01*
X66127064Y-53865000D02*
X65672936Y-53865000D01*
X66127064Y-55335000D02*
X65672936Y-55335000D01*
X63665000Y-124588748D02*
X63665000Y-125111252D01*
X65135000Y-124588748D02*
X65135000Y-125111252D01*
X57861252Y-69465000D02*
X57338748Y-69465000D01*
X57861252Y-70935000D02*
X57338748Y-70935000D01*
X66127064Y-51365000D02*
X65672936Y-51365000D01*
X66127064Y-52835000D02*
X65672936Y-52835000D01*
X66361252Y-112265000D02*
X65838748Y-112265000D01*
X66361252Y-113735000D02*
X65838748Y-113735000D01*
D13*
X60000000Y-126900000D02*
X60000000Y-125700000D01*
X60020000Y-124750000D02*
X62980000Y-124750000D01*
X60020000Y-125350000D02*
X60020000Y-124750000D01*
X62980000Y-124750000D02*
X62980000Y-125350000D01*
X62980000Y-125350000D02*
X60020000Y-125350000D01*
D10*
X68772936Y-66665000D02*
X69227064Y-66665000D01*
X68772936Y-68135000D02*
X69227064Y-68135000D01*
%LPC*%
G36*
G01*
X54550000Y-130400000D02*
X53450000Y-130400000D01*
G75*
G02*
X53200000Y-130150000I0J250000D01*
G01*
X53200000Y-128050000D01*
G75*
G02*
X53450000Y-127800000I250000J0D01*
G01*
X54550000Y-127800000D01*
G75*
G02*
X54800000Y-128050000I0J-250000D01*
G01*
X54800000Y-130150000D01*
G75*
G02*
X54550000Y-130400000I-250000J0D01*
G01*
G37*
G36*
G01*
X54550000Y-126800000D02*
X53450000Y-126800000D01*
G75*
G02*
X53200000Y-126550000I0J250000D01*
G01*
X53200000Y-124450000D01*
G75*
G02*
X53450000Y-124200000I250000J0D01*
G01*
X54550000Y-124200000D01*
G75*
G02*
X54800000Y-124450000I0J-250000D01*
G01*
X54800000Y-126550000D01*
G75*
G02*
X54550000Y-126800000I-250000J0D01*
G01*
G37*
G36*
G01*
X68450000Y-124100000D02*
X69550000Y-124100000D01*
G75*
G02*
X69800000Y-124350000I0J-250000D01*
G01*
X69800000Y-126450000D01*
G75*
G02*
X69550000Y-126700000I-250000J0D01*
G01*
X68450000Y-126700000D01*
G75*
G02*
X68200000Y-126450000I0J250000D01*
G01*
X68200000Y-124350000D01*
G75*
G02*
X68450000Y-124100000I250000J0D01*
G01*
G37*
G36*
G01*
X68450000Y-127700000D02*
X69550000Y-127700000D01*
G75*
G02*
X69800000Y-127950000I0J-250000D01*
G01*
X69800000Y-130050000D01*
G75*
G02*
X69550000Y-130300000I-250000J0D01*
G01*
X68450000Y-130300000D01*
G75*
G02*
X68200000Y-130050000I0J250000D01*
G01*
X68200000Y-127950000D01*
G75*
G02*
X68450000Y-127700000I250000J0D01*
G01*
G37*
G36*
G01*
X67700000Y-104950000D02*
X67700000Y-105850000D01*
G75*
G02*
X67450000Y-106100000I-250000J0D01*
G01*
X66750000Y-106100000D01*
G75*
G02*
X66500000Y-105850000I0J250000D01*
G01*
X66500000Y-104950000D01*
G75*
G02*
X66750000Y-104700000I250000J0D01*
G01*
X67450000Y-104700000D01*
G75*
G02*
X67700000Y-104950000I0J-250000D01*
G01*
G37*
G36*
G01*
X65700000Y-104950000D02*
X65700000Y-105850000D01*
G75*
G02*
X65450000Y-106100000I-250000J0D01*
G01*
X64750000Y-106100000D01*
G75*
G02*
X64500000Y-105850000I0J250000D01*
G01*
X64500000Y-104950000D01*
G75*
G02*
X64750000Y-104700000I250000J0D01*
G01*
X65450000Y-104700000D01*
G75*
G02*
X65700000Y-104950000I0J-250000D01*
G01*
G37*
D14*
X68000000Y-96000000D03*
G36*
G01*
X67400000Y-65850000D02*
X67400000Y-64950000D01*
G75*
G02*
X67650000Y-64700000I250000J0D01*
G01*
X68350000Y-64700000D01*
G75*
G02*
X68600000Y-64950000I0J-250000D01*
G01*
X68600000Y-65850000D01*
G75*
G02*
X68350000Y-66100000I-250000J0D01*
G01*
X67650000Y-66100000D01*
G75*
G02*
X67400000Y-65850000I0J250000D01*
G01*
G37*
G36*
G01*
X69400000Y-65850000D02*
X69400000Y-64950000D01*
G75*
G02*
X69650000Y-64700000I250000J0D01*
G01*
X70350000Y-64700000D01*
G75*
G02*
X70600000Y-64950000I0J-250000D01*
G01*
X70600000Y-65850000D01*
G75*
G02*
X70350000Y-66100000I-250000J0D01*
G01*
X69650000Y-66100000D01*
G75*
G02*
X69400000Y-65850000I0J250000D01*
G01*
G37*
G36*
G01*
X67700000Y-102950000D02*
X67700000Y-103850000D01*
G75*
G02*
X67450000Y-104100000I-250000J0D01*
G01*
X66750000Y-104100000D01*
G75*
G02*
X66500000Y-103850000I0J250000D01*
G01*
X66500000Y-102950000D01*
G75*
G02*
X66750000Y-102700000I250000J0D01*
G01*
X67450000Y-102700000D01*
G75*
G02*
X67700000Y-102950000I0J-250000D01*
G01*
G37*
G36*
G01*
X65700000Y-102950000D02*
X65700000Y-103850000D01*
G75*
G02*
X65450000Y-104100000I-250000J0D01*
G01*
X64750000Y-104100000D01*
G75*
G02*
X64500000Y-103850000I0J250000D01*
G01*
X64500000Y-102950000D01*
G75*
G02*
X64750000Y-102700000I250000J0D01*
G01*
X65450000Y-102700000D01*
G75*
G02*
X65700000Y-102950000I0J-250000D01*
G01*
G37*
G36*
G01*
X67400000Y-72350000D02*
X67400000Y-71450000D01*
G75*
G02*
X67650000Y-71200000I250000J0D01*
G01*
X68350000Y-71200000D01*
G75*
G02*
X68600000Y-71450000I0J-250000D01*
G01*
X68600000Y-72350000D01*
G75*
G02*
X68350000Y-72600000I-250000J0D01*
G01*
X67650000Y-72600000D01*
G75*
G02*
X67400000Y-72350000I0J250000D01*
G01*
G37*
G36*
G01*
X69400000Y-72350000D02*
X69400000Y-71450000D01*
G75*
G02*
X69650000Y-71200000I250000J0D01*
G01*
X70350000Y-71200000D01*
G75*
G02*
X70600000Y-71450000I0J-250000D01*
G01*
X70600000Y-72350000D01*
G75*
G02*
X70350000Y-72600000I-250000J0D01*
G01*
X69650000Y-72600000D01*
G75*
G02*
X69400000Y-72350000I0J250000D01*
G01*
G37*
G36*
G01*
X67725000Y-117625000D02*
X67725000Y-118575000D01*
G75*
G02*
X67475000Y-118825000I-250000J0D01*
G01*
X66800000Y-118825000D01*
G75*
G02*
X66550000Y-118575000I0J250000D01*
G01*
X66550000Y-117625000D01*
G75*
G02*
X66800000Y-117375000I250000J0D01*
G01*
X67475000Y-117375000D01*
G75*
G02*
X67725000Y-117625000I0J-250000D01*
G01*
G37*
G36*
G01*
X65650000Y-117625000D02*
X65650000Y-118575000D01*
G75*
G02*
X65400000Y-118825000I-250000J0D01*
G01*
X64725000Y-118825000D01*
G75*
G02*
X64475000Y-118575000I0J250000D01*
G01*
X64475000Y-117625000D01*
G75*
G02*
X64725000Y-117375000I250000J0D01*
G01*
X65400000Y-117375000D01*
G75*
G02*
X65650000Y-117625000I0J-250000D01*
G01*
G37*
G36*
G01*
X67200000Y-79375000D02*
X67200000Y-80025000D01*
G75*
G02*
X66925000Y-80300000I-275000J0D01*
G01*
X66375000Y-80300000D01*
G75*
G02*
X66100000Y-80025000I0J275000D01*
G01*
X66100000Y-79375000D01*
G75*
G02*
X66375000Y-79100000I275000J0D01*
G01*
X66925000Y-79100000D01*
G75*
G02*
X67200000Y-79375000I0J-275000D01*
G01*
G37*
G36*
G01*
X63900000Y-79375000D02*
X63900000Y-80025000D01*
G75*
G02*
X63625000Y-80300000I-275000J0D01*
G01*
X63075000Y-80300000D01*
G75*
G02*
X62800000Y-80025000I0J275000D01*
G01*
X62800000Y-79375000D01*
G75*
G02*
X63075000Y-79100000I275000J0D01*
G01*
X63625000Y-79100000D01*
G75*
G02*
X63900000Y-79375000I0J-275000D01*
G01*
G37*
G36*
G01*
X59775000Y-128725000D02*
X59775000Y-127775000D01*
G75*
G02*
X60025000Y-127525000I250000J0D01*
G01*
X60700000Y-127525000D01*
G75*
G02*
X60950000Y-127775000I0J-250000D01*
G01*
X60950000Y-128725000D01*
G75*
G02*
X60700000Y-128975000I-250000J0D01*
G01*
X60025000Y-128975000D01*
G75*
G02*
X59775000Y-128725000I0J250000D01*
G01*
G37*
G36*
G01*
X61850000Y-128725000D02*
X61850000Y-127775000D01*
G75*
G02*
X62100000Y-127525000I250000J0D01*
G01*
X62775000Y-127525000D01*
G75*
G02*
X63025000Y-127775000I0J-250000D01*
G01*
X63025000Y-128725000D01*
G75*
G02*
X62775000Y-128975000I-250000J0D01*
G01*
X62100000Y-128975000D01*
G75*
G02*
X61850000Y-128725000I0J250000D01*
G01*
G37*
G36*
G01*
X55275000Y-116075000D02*
X55275000Y-115125000D01*
G75*
G02*
X55525000Y-114875000I250000J0D01*
G01*
X56200000Y-114875000D01*
G75*
G02*
X56450000Y-115125000I0J-250000D01*
G01*
X56450000Y-116075000D01*
G75*
G02*
X56200000Y-116325000I-250000J0D01*
G01*
X55525000Y-116325000D01*
G75*
G02*
X55275000Y-116075000I0J250000D01*
G01*
G37*
G36*
G01*
X57350000Y-116075000D02*
X57350000Y-115125000D01*
G75*
G02*
X57600000Y-114875000I250000J0D01*
G01*
X58275000Y-114875000D01*
G75*
G02*
X58525000Y-115125000I0J-250000D01*
G01*
X58525000Y-116075000D01*
G75*
G02*
X58275000Y-116325000I-250000J0D01*
G01*
X57600000Y-116325000D01*
G75*
G02*
X57350000Y-116075000I0J250000D01*
G01*
G37*
D15*
X69700000Y-49500000D03*
D16*
X69700000Y-52040000D03*
X69700000Y-54580000D03*
X69700000Y-57120000D03*
X69700000Y-59660000D03*
X69700000Y-62200000D03*
G36*
G01*
X64475000Y-101875000D02*
X64475000Y-100925000D01*
G75*
G02*
X64725000Y-100675000I250000J0D01*
G01*
X65400000Y-100675000D01*
G75*
G02*
X65650000Y-100925000I0J-250000D01*
G01*
X65650000Y-101875000D01*
G75*
G02*
X65400000Y-102125000I-250000J0D01*
G01*
X64725000Y-102125000D01*
G75*
G02*
X64475000Y-101875000I0J250000D01*
G01*
G37*
G36*
G01*
X66550000Y-101875000D02*
X66550000Y-100925000D01*
G75*
G02*
X66800000Y-100675000I250000J0D01*
G01*
X67475000Y-100675000D01*
G75*
G02*
X67725000Y-100925000I0J-250000D01*
G01*
X67725000Y-101875000D01*
G75*
G02*
X67475000Y-102125000I-250000J0D01*
G01*
X66800000Y-102125000D01*
G75*
G02*
X66550000Y-101875000I0J250000D01*
G01*
G37*
G36*
G01*
X60400000Y-88975000D02*
X60400000Y-89625000D01*
G75*
G02*
X60125000Y-89900000I-275000J0D01*
G01*
X59575000Y-89900000D01*
G75*
G02*
X59300000Y-89625000I0J275000D01*
G01*
X59300000Y-88975000D01*
G75*
G02*
X59575000Y-88700000I275000J0D01*
G01*
X60125000Y-88700000D01*
G75*
G02*
X60400000Y-88975000I0J-275000D01*
G01*
G37*
G36*
G01*
X57100000Y-88975000D02*
X57100000Y-89625000D01*
G75*
G02*
X56825000Y-89900000I-275000J0D01*
G01*
X56275000Y-89900000D01*
G75*
G02*
X56000000Y-89625000I0J275000D01*
G01*
X56000000Y-88975000D01*
G75*
G02*
X56275000Y-88700000I275000J0D01*
G01*
X56825000Y-88700000D01*
G75*
G02*
X57100000Y-88975000I0J-275000D01*
G01*
G37*
G36*
G01*
X55975000Y-64475000D02*
X55975000Y-63525000D01*
G75*
G02*
X56225000Y-63275000I250000J0D01*
G01*
X56900000Y-63275000D01*
G75*
G02*
X57150000Y-63525000I0J-250000D01*
G01*
X57150000Y-64475000D01*
G75*
G02*
X56900000Y-64725000I-250000J0D01*
G01*
X56225000Y-64725000D01*
G75*
G02*
X55975000Y-64475000I0J250000D01*
G01*
G37*
G36*
G01*
X58050000Y-64475000D02*
X58050000Y-63525000D01*
G75*
G02*
X58300000Y-63275000I250000J0D01*
G01*
X58975000Y-63275000D01*
G75*
G02*
X59225000Y-63525000I0J-250000D01*
G01*
X59225000Y-64475000D01*
G75*
G02*
X58975000Y-64725000I-250000J0D01*
G01*
X58300000Y-64725000D01*
G75*
G02*
X58050000Y-64475000I0J250000D01*
G01*
G37*
G36*
G01*
X70600000Y-75450000D02*
X70600000Y-76350000D01*
G75*
G02*
X70350000Y-76600000I-250000J0D01*
G01*
X69650000Y-76600000D01*
G75*
G02*
X69400000Y-76350000I0J250000D01*
G01*
X69400000Y-75450000D01*
G75*
G02*
X69650000Y-75200000I250000J0D01*
G01*
X70350000Y-75200000D01*
G75*
G02*
X70600000Y-75450000I0J-250000D01*
G01*
G37*
G36*
G01*
X68600000Y-75450000D02*
X68600000Y-76350000D01*
G75*
G02*
X68350000Y-76600000I-250000J0D01*
G01*
X67650000Y-76600000D01*
G75*
G02*
X67400000Y-76350000I0J250000D01*
G01*
X67400000Y-75450000D01*
G75*
G02*
X67650000Y-75200000I250000J0D01*
G01*
X68350000Y-75200000D01*
G75*
G02*
X68600000Y-75450000I0J-250000D01*
G01*
G37*
G36*
G01*
X59900000Y-77950000D02*
X59900000Y-77050000D01*
G75*
G02*
X60150000Y-76800000I250000J0D01*
G01*
X60850000Y-76800000D01*
G75*
G02*
X61100000Y-77050000I0J-250000D01*
G01*
X61100000Y-77950000D01*
G75*
G02*
X60850000Y-78200000I-250000J0D01*
G01*
X60150000Y-78200000D01*
G75*
G02*
X59900000Y-77950000I0J250000D01*
G01*
G37*
G36*
G01*
X61900000Y-77950000D02*
X61900000Y-77050000D01*
G75*
G02*
X62150000Y-76800000I250000J0D01*
G01*
X62850000Y-76800000D01*
G75*
G02*
X63100000Y-77050000I0J-250000D01*
G01*
X63100000Y-77950000D01*
G75*
G02*
X62850000Y-78200000I-250000J0D01*
G01*
X62150000Y-78200000D01*
G75*
G02*
X61900000Y-77950000I0J250000D01*
G01*
G37*
G36*
G01*
X55500000Y-76950000D02*
X55500000Y-76050000D01*
G75*
G02*
X55750000Y-75800000I250000J0D01*
G01*
X56450000Y-75800000D01*
G75*
G02*
X56700000Y-76050000I0J-250000D01*
G01*
X56700000Y-76950000D01*
G75*
G02*
X56450000Y-77200000I-250000J0D01*
G01*
X55750000Y-77200000D01*
G75*
G02*
X55500000Y-76950000I0J250000D01*
G01*
G37*
G36*
G01*
X57500000Y-76950000D02*
X57500000Y-76050000D01*
G75*
G02*
X57750000Y-75800000I250000J0D01*
G01*
X58450000Y-75800000D01*
G75*
G02*
X58700000Y-76050000I0J-250000D01*
G01*
X58700000Y-76950000D01*
G75*
G02*
X58450000Y-77200000I-250000J0D01*
G01*
X57750000Y-77200000D01*
G75*
G02*
X57500000Y-76950000I0J250000D01*
G01*
G37*
G36*
G01*
X59775000Y-66140000D02*
X59775000Y-65840000D01*
G75*
G02*
X59925000Y-65690000I150000J0D01*
G01*
X61675000Y-65690000D01*
G75*
G02*
X61825000Y-65840000I0J-150000D01*
G01*
X61825000Y-66140000D01*
G75*
G02*
X61675000Y-66290000I-150000J0D01*
G01*
X59925000Y-66290000D01*
G75*
G02*
X59775000Y-66140000I0J150000D01*
G01*
G37*
G36*
G01*
X59775000Y-67410000D02*
X59775000Y-67110000D01*
G75*
G02*
X59925000Y-66960000I150000J0D01*
G01*
X61675000Y-66960000D01*
G75*
G02*
X61825000Y-67110000I0J-150000D01*
G01*
X61825000Y-67410000D01*
G75*
G02*
X61675000Y-67560000I-150000J0D01*
G01*
X59925000Y-67560000D01*
G75*
G02*
X59775000Y-67410000I0J150000D01*
G01*
G37*
G36*
G01*
X59775000Y-68680000D02*
X59775000Y-68380000D01*
G75*
G02*
X59925000Y-68230000I150000J0D01*
G01*
X61675000Y-68230000D01*
G75*
G02*
X61825000Y-68380000I0J-150000D01*
G01*
X61825000Y-68680000D01*
G75*
G02*
X61675000Y-68830000I-150000J0D01*
G01*
X59925000Y-68830000D01*
G75*
G02*
X59775000Y-68680000I0J150000D01*
G01*
G37*
G36*
G01*
X59775000Y-69950000D02*
X59775000Y-69650000D01*
G75*
G02*
X59925000Y-69500000I150000J0D01*
G01*
X61675000Y-69500000D01*
G75*
G02*
X61825000Y-69650000I0J-150000D01*
G01*
X61825000Y-69950000D01*
G75*
G02*
X61675000Y-70100000I-150000J0D01*
G01*
X59925000Y-70100000D01*
G75*
G02*
X59775000Y-69950000I0J150000D01*
G01*
G37*
G36*
G01*
X59775000Y-71220000D02*
X59775000Y-70920000D01*
G75*
G02*
X59925000Y-70770000I150000J0D01*
G01*
X61675000Y-70770000D01*
G75*
G02*
X61825000Y-70920000I0J-150000D01*
G01*
X61825000Y-71220000D01*
G75*
G02*
X61675000Y-71370000I-150000J0D01*
G01*
X59925000Y-71370000D01*
G75*
G02*
X59775000Y-71220000I0J150000D01*
G01*
G37*
G36*
G01*
X59775000Y-72490000D02*
X59775000Y-72190000D01*
G75*
G02*
X59925000Y-72040000I150000J0D01*
G01*
X61675000Y-72040000D01*
G75*
G02*
X61825000Y-72190000I0J-150000D01*
G01*
X61825000Y-72490000D01*
G75*
G02*
X61675000Y-72640000I-150000J0D01*
G01*
X59925000Y-72640000D01*
G75*
G02*
X59775000Y-72490000I0J150000D01*
G01*
G37*
G36*
G01*
X59775000Y-73760000D02*
X59775000Y-73460000D01*
G75*
G02*
X59925000Y-73310000I150000J0D01*
G01*
X61675000Y-73310000D01*
G75*
G02*
X61825000Y-73460000I0J-150000D01*
G01*
X61825000Y-73760000D01*
G75*
G02*
X61675000Y-73910000I-150000J0D01*
G01*
X59925000Y-73910000D01*
G75*
G02*
X59775000Y-73760000I0J150000D01*
G01*
G37*
G36*
G01*
X64775000Y-73760000D02*
X64775000Y-73460000D01*
G75*
G02*
X64925000Y-73310000I150000J0D01*
G01*
X66675000Y-73310000D01*
G75*
G02*
X66825000Y-73460000I0J-150000D01*
G01*
X66825000Y-73760000D01*
G75*
G02*
X66675000Y-73910000I-150000J0D01*
G01*
X64925000Y-73910000D01*
G75*
G02*
X64775000Y-73760000I0J150000D01*
G01*
G37*
G36*
G01*
X64775000Y-72490000D02*
X64775000Y-72190000D01*
G75*
G02*
X64925000Y-72040000I150000J0D01*
G01*
X66675000Y-72040000D01*
G75*
G02*
X66825000Y-72190000I0J-150000D01*
G01*
X66825000Y-72490000D01*
G75*
G02*
X66675000Y-72640000I-150000J0D01*
G01*
X64925000Y-72640000D01*
G75*
G02*
X64775000Y-72490000I0J150000D01*
G01*
G37*
G36*
G01*
X64775000Y-71220000D02*
X64775000Y-70920000D01*
G75*
G02*
X64925000Y-70770000I150000J0D01*
G01*
X66675000Y-70770000D01*
G75*
G02*
X66825000Y-70920000I0J-150000D01*
G01*
X66825000Y-71220000D01*
G75*
G02*
X66675000Y-71370000I-150000J0D01*
G01*
X64925000Y-71370000D01*
G75*
G02*
X64775000Y-71220000I0J150000D01*
G01*
G37*
G36*
G01*
X64775000Y-69950000D02*
X64775000Y-69650000D01*
G75*
G02*
X64925000Y-69500000I150000J0D01*
G01*
X66675000Y-69500000D01*
G75*
G02*
X66825000Y-69650000I0J-150000D01*
G01*
X66825000Y-69950000D01*
G75*
G02*
X66675000Y-70100000I-150000J0D01*
G01*
X64925000Y-70100000D01*
G75*
G02*
X64775000Y-69950000I0J150000D01*
G01*
G37*
G36*
G01*
X64775000Y-68680000D02*
X64775000Y-68380000D01*
G75*
G02*
X64925000Y-68230000I150000J0D01*
G01*
X66675000Y-68230000D01*
G75*
G02*
X66825000Y-68380000I0J-150000D01*
G01*
X66825000Y-68680000D01*
G75*
G02*
X66675000Y-68830000I-150000J0D01*
G01*
X64925000Y-68830000D01*
G75*
G02*
X64775000Y-68680000I0J150000D01*
G01*
G37*
G36*
G01*
X64775000Y-67410000D02*
X64775000Y-67110000D01*
G75*
G02*
X64925000Y-66960000I150000J0D01*
G01*
X66675000Y-66960000D01*
G75*
G02*
X66825000Y-67110000I0J-150000D01*
G01*
X66825000Y-67410000D01*
G75*
G02*
X66675000Y-67560000I-150000J0D01*
G01*
X64925000Y-67560000D01*
G75*
G02*
X64775000Y-67410000I0J150000D01*
G01*
G37*
G36*
G01*
X64775000Y-66140000D02*
X64775000Y-65840000D01*
G75*
G02*
X64925000Y-65690000I150000J0D01*
G01*
X66675000Y-65690000D01*
G75*
G02*
X66825000Y-65840000I0J-150000D01*
G01*
X66825000Y-66140000D01*
G75*
G02*
X66675000Y-66290000I-150000J0D01*
G01*
X64925000Y-66290000D01*
G75*
G02*
X64775000Y-66140000I0J150000D01*
G01*
G37*
G36*
G01*
X64475000Y-107975000D02*
X64475000Y-107025000D01*
G75*
G02*
X64725000Y-106775000I250000J0D01*
G01*
X65400000Y-106775000D01*
G75*
G02*
X65650000Y-107025000I0J-250000D01*
G01*
X65650000Y-107975000D01*
G75*
G02*
X65400000Y-108225000I-250000J0D01*
G01*
X64725000Y-108225000D01*
G75*
G02*
X64475000Y-107975000I0J250000D01*
G01*
G37*
G36*
G01*
X66550000Y-107975000D02*
X66550000Y-107025000D01*
G75*
G02*
X66800000Y-106775000I250000J0D01*
G01*
X67475000Y-106775000D01*
G75*
G02*
X67725000Y-107025000I0J-250000D01*
G01*
X67725000Y-107975000D01*
G75*
G02*
X67475000Y-108225000I-250000J0D01*
G01*
X66800000Y-108225000D01*
G75*
G02*
X66550000Y-107975000I0J250000D01*
G01*
G37*
G36*
G01*
X58125000Y-123225000D02*
X59075000Y-123225000D01*
G75*
G02*
X59325000Y-123475000I0J-250000D01*
G01*
X59325000Y-124150000D01*
G75*
G02*
X59075000Y-124400000I-250000J0D01*
G01*
X58125000Y-124400000D01*
G75*
G02*
X57875000Y-124150000I0J250000D01*
G01*
X57875000Y-123475000D01*
G75*
G02*
X58125000Y-123225000I250000J0D01*
G01*
G37*
G36*
G01*
X58125000Y-125300000D02*
X59075000Y-125300000D01*
G75*
G02*
X59325000Y-125550000I0J-250000D01*
G01*
X59325000Y-126225000D01*
G75*
G02*
X59075000Y-126475000I-250000J0D01*
G01*
X58125000Y-126475000D01*
G75*
G02*
X57875000Y-126225000I0J250000D01*
G01*
X57875000Y-125550000D01*
G75*
G02*
X58125000Y-125300000I250000J0D01*
G01*
G37*
G36*
G01*
X55500000Y-74950000D02*
X55500000Y-74050000D01*
G75*
G02*
X55750000Y-73800000I250000J0D01*
G01*
X56450000Y-73800000D01*
G75*
G02*
X56700000Y-74050000I0J-250000D01*
G01*
X56700000Y-74950000D01*
G75*
G02*
X56450000Y-75200000I-250000J0D01*
G01*
X55750000Y-75200000D01*
G75*
G02*
X55500000Y-74950000I0J250000D01*
G01*
G37*
G36*
G01*
X57500000Y-74950000D02*
X57500000Y-74050000D01*
G75*
G02*
X57750000Y-73800000I250000J0D01*
G01*
X58450000Y-73800000D01*
G75*
G02*
X58700000Y-74050000I0J-250000D01*
G01*
X58700000Y-74950000D01*
G75*
G02*
X58450000Y-75200000I-250000J0D01*
G01*
X57750000Y-75200000D01*
G75*
G02*
X57500000Y-74950000I0J250000D01*
G01*
G37*
G36*
G01*
X56000000Y-68450000D02*
X56000000Y-67550000D01*
G75*
G02*
X56250000Y-67300000I250000J0D01*
G01*
X56950000Y-67300000D01*
G75*
G02*
X57200000Y-67550000I0J-250000D01*
G01*
X57200000Y-68450000D01*
G75*
G02*
X56950000Y-68700000I-250000J0D01*
G01*
X56250000Y-68700000D01*
G75*
G02*
X56000000Y-68450000I0J250000D01*
G01*
G37*
G36*
G01*
X58000000Y-68450000D02*
X58000000Y-67550000D01*
G75*
G02*
X58250000Y-67300000I250000J0D01*
G01*
X58950000Y-67300000D01*
G75*
G02*
X59200000Y-67550000I0J-250000D01*
G01*
X59200000Y-68450000D01*
G75*
G02*
X58950000Y-68700000I-250000J0D01*
G01*
X58250000Y-68700000D01*
G75*
G02*
X58000000Y-68450000I0J250000D01*
G01*
G37*
G36*
G01*
X67400000Y-74350000D02*
X67400000Y-73450000D01*
G75*
G02*
X67650000Y-73200000I250000J0D01*
G01*
X68350000Y-73200000D01*
G75*
G02*
X68600000Y-73450000I0J-250000D01*
G01*
X68600000Y-74350000D01*
G75*
G02*
X68350000Y-74600000I-250000J0D01*
G01*
X67650000Y-74600000D01*
G75*
G02*
X67400000Y-74350000I0J250000D01*
G01*
G37*
G36*
G01*
X69400000Y-74350000D02*
X69400000Y-73450000D01*
G75*
G02*
X69650000Y-73200000I250000J0D01*
G01*
X70350000Y-73200000D01*
G75*
G02*
X70600000Y-73450000I0J-250000D01*
G01*
X70600000Y-74350000D01*
G75*
G02*
X70350000Y-74600000I-250000J0D01*
G01*
X69650000Y-74600000D01*
G75*
G02*
X69400000Y-74350000I0J250000D01*
G01*
G37*
G36*
G01*
X70625000Y-69225000D02*
X70625000Y-70175000D01*
G75*
G02*
X70375000Y-70425000I-250000J0D01*
G01*
X69700000Y-70425000D01*
G75*
G02*
X69450000Y-70175000I0J250000D01*
G01*
X69450000Y-69225000D01*
G75*
G02*
X69700000Y-68975000I250000J0D01*
G01*
X70375000Y-68975000D01*
G75*
G02*
X70625000Y-69225000I0J-250000D01*
G01*
G37*
G36*
G01*
X68550000Y-69225000D02*
X68550000Y-70175000D01*
G75*
G02*
X68300000Y-70425000I-250000J0D01*
G01*
X67625000Y-70425000D01*
G75*
G02*
X67375000Y-70175000I0J250000D01*
G01*
X67375000Y-69225000D01*
G75*
G02*
X67625000Y-68975000I250000J0D01*
G01*
X68300000Y-68975000D01*
G75*
G02*
X68550000Y-69225000I0J-250000D01*
G01*
G37*
D15*
X53300000Y-67800000D03*
D16*
X53300000Y-70340000D03*
X53300000Y-72880000D03*
X53300000Y-75420000D03*
X53300000Y-77960000D03*
X53300000Y-80500000D03*
X53300000Y-83040000D03*
X53300000Y-85580000D03*
G36*
G01*
X55312500Y-113475000D02*
X55312500Y-112525000D01*
G75*
G02*
X55562500Y-112275000I250000J0D01*
G01*
X56237500Y-112275000D01*
G75*
G02*
X56487500Y-112525000I0J-250000D01*
G01*
X56487500Y-113475000D01*
G75*
G02*
X56237500Y-113725000I-250000J0D01*
G01*
X55562500Y-113725000D01*
G75*
G02*
X55312500Y-113475000I0J250000D01*
G01*
G37*
G36*
G01*
X57387500Y-113475000D02*
X57387500Y-112525000D01*
G75*
G02*
X57637500Y-112275000I250000J0D01*
G01*
X58312500Y-112275000D01*
G75*
G02*
X58562500Y-112525000I0J-250000D01*
G01*
X58562500Y-113475000D01*
G75*
G02*
X58312500Y-113725000I-250000J0D01*
G01*
X57637500Y-113725000D01*
G75*
G02*
X57387500Y-113475000I0J250000D01*
G01*
G37*
G36*
G01*
X67500000Y-56650000D02*
X67500000Y-57550000D01*
G75*
G02*
X67250000Y-57800000I-250000J0D01*
G01*
X66550000Y-57800000D01*
G75*
G02*
X66300000Y-57550000I0J250000D01*
G01*
X66300000Y-56650000D01*
G75*
G02*
X66550000Y-56400000I250000J0D01*
G01*
X67250000Y-56400000D01*
G75*
G02*
X67500000Y-56650000I0J-250000D01*
G01*
G37*
G36*
G01*
X65500000Y-56650000D02*
X65500000Y-57550000D01*
G75*
G02*
X65250000Y-57800000I-250000J0D01*
G01*
X64550000Y-57800000D01*
G75*
G02*
X64300000Y-57550000I0J250000D01*
G01*
X64300000Y-56650000D01*
G75*
G02*
X64550000Y-56400000I250000J0D01*
G01*
X65250000Y-56400000D01*
G75*
G02*
X65500000Y-56650000I0J-250000D01*
G01*
G37*
G36*
G01*
X67200000Y-81775000D02*
X67200000Y-82425000D01*
G75*
G02*
X66925000Y-82700000I-275000J0D01*
G01*
X66375000Y-82700000D01*
G75*
G02*
X66100000Y-82425000I0J275000D01*
G01*
X66100000Y-81775000D01*
G75*
G02*
X66375000Y-81500000I275000J0D01*
G01*
X66925000Y-81500000D01*
G75*
G02*
X67200000Y-81775000I0J-275000D01*
G01*
G37*
G36*
G01*
X63900000Y-81775000D02*
X63900000Y-82425000D01*
G75*
G02*
X63625000Y-82700000I-275000J0D01*
G01*
X63075000Y-82700000D01*
G75*
G02*
X62800000Y-82425000I0J275000D01*
G01*
X62800000Y-81775000D01*
G75*
G02*
X63075000Y-81500000I275000J0D01*
G01*
X63625000Y-81500000D01*
G75*
G02*
X63900000Y-81775000I0J-275000D01*
G01*
G37*
G36*
G01*
X59900000Y-75950000D02*
X59900000Y-75050000D01*
G75*
G02*
X60150000Y-74800000I250000J0D01*
G01*
X60850000Y-74800000D01*
G75*
G02*
X61100000Y-75050000I0J-250000D01*
G01*
X61100000Y-75950000D01*
G75*
G02*
X60850000Y-76200000I-250000J0D01*
G01*
X60150000Y-76200000D01*
G75*
G02*
X59900000Y-75950000I0J250000D01*
G01*
G37*
G36*
G01*
X61900000Y-75950000D02*
X61900000Y-75050000D01*
G75*
G02*
X62150000Y-74800000I250000J0D01*
G01*
X62850000Y-74800000D01*
G75*
G02*
X63100000Y-75050000I0J-250000D01*
G01*
X63100000Y-75950000D01*
G75*
G02*
X62850000Y-76200000I-250000J0D01*
G01*
X62150000Y-76200000D01*
G75*
G02*
X61900000Y-75950000I0J250000D01*
G01*
G37*
G36*
G01*
X56000000Y-66450000D02*
X56000000Y-65550000D01*
G75*
G02*
X56250000Y-65300000I250000J0D01*
G01*
X56950000Y-65300000D01*
G75*
G02*
X57200000Y-65550000I0J-250000D01*
G01*
X57200000Y-66450000D01*
G75*
G02*
X56950000Y-66700000I-250000J0D01*
G01*
X56250000Y-66700000D01*
G75*
G02*
X56000000Y-66450000I0J250000D01*
G01*
G37*
G36*
G01*
X58000000Y-66450000D02*
X58000000Y-65550000D01*
G75*
G02*
X58250000Y-65300000I250000J0D01*
G01*
X58950000Y-65300000D01*
G75*
G02*
X59200000Y-65550000I0J-250000D01*
G01*
X59200000Y-66450000D01*
G75*
G02*
X58950000Y-66700000I-250000J0D01*
G01*
X58250000Y-66700000D01*
G75*
G02*
X58000000Y-66450000I0J250000D01*
G01*
G37*
G36*
G01*
X55375000Y-110975000D02*
X55375000Y-110025000D01*
G75*
G02*
X55625000Y-109775000I250000J0D01*
G01*
X56300000Y-109775000D01*
G75*
G02*
X56550000Y-110025000I0J-250000D01*
G01*
X56550000Y-110975000D01*
G75*
G02*
X56300000Y-111225000I-250000J0D01*
G01*
X55625000Y-111225000D01*
G75*
G02*
X55375000Y-110975000I0J250000D01*
G01*
G37*
G36*
G01*
X57450000Y-110975000D02*
X57450000Y-110025000D01*
G75*
G02*
X57700000Y-109775000I250000J0D01*
G01*
X58375000Y-109775000D01*
G75*
G02*
X58625000Y-110025000I0J-250000D01*
G01*
X58625000Y-110975000D01*
G75*
G02*
X58375000Y-111225000I-250000J0D01*
G01*
X57700000Y-111225000D01*
G75*
G02*
X57450000Y-110975000I0J250000D01*
G01*
G37*
G36*
G01*
X55275000Y-118575000D02*
X55275000Y-117625000D01*
G75*
G02*
X55525000Y-117375000I250000J0D01*
G01*
X56200000Y-117375000D01*
G75*
G02*
X56450000Y-117625000I0J-250000D01*
G01*
X56450000Y-118575000D01*
G75*
G02*
X56200000Y-118825000I-250000J0D01*
G01*
X55525000Y-118825000D01*
G75*
G02*
X55275000Y-118575000I0J250000D01*
G01*
G37*
G36*
G01*
X57350000Y-118575000D02*
X57350000Y-117625000D01*
G75*
G02*
X57600000Y-117375000I250000J0D01*
G01*
X58275000Y-117375000D01*
G75*
G02*
X58525000Y-117625000I0J-250000D01*
G01*
X58525000Y-118575000D01*
G75*
G02*
X58275000Y-118825000I-250000J0D01*
G01*
X57600000Y-118825000D01*
G75*
G02*
X57350000Y-118575000I0J250000D01*
G01*
G37*
G36*
G01*
X60400000Y-86575000D02*
X60400000Y-87225000D01*
G75*
G02*
X60125000Y-87500000I-275000J0D01*
G01*
X59575000Y-87500000D01*
G75*
G02*
X59300000Y-87225000I0J275000D01*
G01*
X59300000Y-86575000D01*
G75*
G02*
X59575000Y-86300000I275000J0D01*
G01*
X60125000Y-86300000D01*
G75*
G02*
X60400000Y-86575000I0J-275000D01*
G01*
G37*
G36*
G01*
X57100000Y-86575000D02*
X57100000Y-87225000D01*
G75*
G02*
X56825000Y-87500000I-275000J0D01*
G01*
X56275000Y-87500000D01*
G75*
G02*
X56000000Y-87225000I0J275000D01*
G01*
X56000000Y-86575000D01*
G75*
G02*
X56275000Y-86300000I275000J0D01*
G01*
X56825000Y-86300000D01*
G75*
G02*
X57100000Y-86575000I0J-275000D01*
G01*
G37*
G36*
G01*
X67500000Y-54150000D02*
X67500000Y-55050000D01*
G75*
G02*
X67250000Y-55300000I-250000J0D01*
G01*
X66550000Y-55300000D01*
G75*
G02*
X66300000Y-55050000I0J250000D01*
G01*
X66300000Y-54150000D01*
G75*
G02*
X66550000Y-53900000I250000J0D01*
G01*
X67250000Y-53900000D01*
G75*
G02*
X67500000Y-54150000I0J-250000D01*
G01*
G37*
G36*
G01*
X65500000Y-54150000D02*
X65500000Y-55050000D01*
G75*
G02*
X65250000Y-55300000I-250000J0D01*
G01*
X64550000Y-55300000D01*
G75*
G02*
X64300000Y-55050000I0J250000D01*
G01*
X64300000Y-54150000D01*
G75*
G02*
X64550000Y-53900000I250000J0D01*
G01*
X65250000Y-53900000D01*
G75*
G02*
X65500000Y-54150000I0J-250000D01*
G01*
G37*
G36*
G01*
X63925000Y-123225000D02*
X64875000Y-123225000D01*
G75*
G02*
X65125000Y-123475000I0J-250000D01*
G01*
X65125000Y-124150000D01*
G75*
G02*
X64875000Y-124400000I-250000J0D01*
G01*
X63925000Y-124400000D01*
G75*
G02*
X63675000Y-124150000I0J250000D01*
G01*
X63675000Y-123475000D01*
G75*
G02*
X63925000Y-123225000I250000J0D01*
G01*
G37*
G36*
G01*
X63925000Y-125300000D02*
X64875000Y-125300000D01*
G75*
G02*
X65125000Y-125550000I0J-250000D01*
G01*
X65125000Y-126225000D01*
G75*
G02*
X64875000Y-126475000I-250000J0D01*
G01*
X63925000Y-126475000D01*
G75*
G02*
X63675000Y-126225000I0J250000D01*
G01*
X63675000Y-125550000D01*
G75*
G02*
X63925000Y-125300000I250000J0D01*
G01*
G37*
G36*
G01*
X59225000Y-69725000D02*
X59225000Y-70675000D01*
G75*
G02*
X58975000Y-70925000I-250000J0D01*
G01*
X58300000Y-70925000D01*
G75*
G02*
X58050000Y-70675000I0J250000D01*
G01*
X58050000Y-69725000D01*
G75*
G02*
X58300000Y-69475000I250000J0D01*
G01*
X58975000Y-69475000D01*
G75*
G02*
X59225000Y-69725000I0J-250000D01*
G01*
G37*
G36*
G01*
X57150000Y-69725000D02*
X57150000Y-70675000D01*
G75*
G02*
X56900000Y-70925000I-250000J0D01*
G01*
X56225000Y-70925000D01*
G75*
G02*
X55975000Y-70675000I0J250000D01*
G01*
X55975000Y-69725000D01*
G75*
G02*
X56225000Y-69475000I250000J0D01*
G01*
X56900000Y-69475000D01*
G75*
G02*
X57150000Y-69725000I0J-250000D01*
G01*
G37*
G36*
G01*
X67500000Y-51650000D02*
X67500000Y-52550000D01*
G75*
G02*
X67250000Y-52800000I-250000J0D01*
G01*
X66550000Y-52800000D01*
G75*
G02*
X66300000Y-52550000I0J250000D01*
G01*
X66300000Y-51650000D01*
G75*
G02*
X66550000Y-51400000I250000J0D01*
G01*
X67250000Y-51400000D01*
G75*
G02*
X67500000Y-51650000I0J-250000D01*
G01*
G37*
G36*
G01*
X65500000Y-51650000D02*
X65500000Y-52550000D01*
G75*
G02*
X65250000Y-52800000I-250000J0D01*
G01*
X64550000Y-52800000D01*
G75*
G02*
X64300000Y-52550000I0J250000D01*
G01*
X64300000Y-51650000D01*
G75*
G02*
X64550000Y-51400000I250000J0D01*
G01*
X65250000Y-51400000D01*
G75*
G02*
X65500000Y-51650000I0J-250000D01*
G01*
G37*
G36*
G01*
X67725000Y-112525000D02*
X67725000Y-113475000D01*
G75*
G02*
X67475000Y-113725000I-250000J0D01*
G01*
X66800000Y-113725000D01*
G75*
G02*
X66550000Y-113475000I0J250000D01*
G01*
X66550000Y-112525000D01*
G75*
G02*
X66800000Y-112275000I250000J0D01*
G01*
X67475000Y-112275000D01*
G75*
G02*
X67725000Y-112525000I0J-250000D01*
G01*
G37*
G36*
G01*
X65650000Y-112525000D02*
X65650000Y-113475000D01*
G75*
G02*
X65400000Y-113725000I-250000J0D01*
G01*
X64725000Y-113725000D01*
G75*
G02*
X64475000Y-113475000I0J250000D01*
G01*
X64475000Y-112525000D01*
G75*
G02*
X64725000Y-112275000I250000J0D01*
G01*
X65400000Y-112275000D01*
G75*
G02*
X65650000Y-112525000I0J-250000D01*
G01*
G37*
D17*
X60550000Y-126300000D03*
X61500000Y-126300000D03*
X62450000Y-126300000D03*
X62450000Y-123800000D03*
X60550000Y-123800000D03*
G36*
G01*
X67400000Y-67850000D02*
X67400000Y-66950000D01*
G75*
G02*
X67650000Y-66700000I250000J0D01*
G01*
X68350000Y-66700000D01*
G75*
G02*
X68600000Y-66950000I0J-250000D01*
G01*
X68600000Y-67850000D01*
G75*
G02*
X68350000Y-68100000I-250000J0D01*
G01*
X67650000Y-68100000D01*
G75*
G02*
X67400000Y-67850000I0J250000D01*
G01*
G37*
G36*
G01*
X69400000Y-67850000D02*
X69400000Y-66950000D01*
G75*
G02*
X69650000Y-66700000I250000J0D01*
G01*
X70350000Y-66700000D01*
G75*
G02*
X70600000Y-66950000I0J-250000D01*
G01*
X70600000Y-67850000D01*
G75*
G02*
X70350000Y-68100000I-250000J0D01*
G01*
X69650000Y-68100000D01*
G75*
G02*
X69400000Y-67850000I0J250000D01*
G01*
G37*
G36*
G01*
X59450000Y-141480000D02*
X59450000Y-140280000D01*
G75*
G02*
X59700000Y-140030000I250000J0D01*
G01*
X60900000Y-140030000D01*
G75*
G02*
X61150000Y-140280000I0J-250000D01*
G01*
X61150000Y-141480000D01*
G75*
G02*
X60900000Y-141730000I-250000J0D01*
G01*
X59700000Y-141730000D01*
G75*
G02*
X59450000Y-141480000I0J250000D01*
G01*
G37*
D18*
X62840000Y-140880000D03*
X60300000Y-138340000D03*
X62840000Y-138340000D03*
X60300000Y-135800000D03*
X62840000Y-135800000D03*
X60300000Y-133260000D03*
X62840000Y-133260000D03*
X60300000Y-130720000D03*
X62840000Y-130720000D03*
D15*
X53880000Y-118120000D03*
D18*
X53880000Y-115580000D03*
X53880000Y-113040000D03*
X53880000Y-110500000D03*
X53880000Y-107960000D03*
X53880000Y-105420000D03*
X53880000Y-102880000D03*
X69120000Y-102880000D03*
X69120000Y-105420000D03*
X69120000Y-107960000D03*
X69120000Y-110500000D03*
X69120000Y-113040000D03*
X69120000Y-115580000D03*
X69120000Y-118120000D03*
%LPD*%
M02*
