G04 #@! TF.GenerationSoftware,KiCad,Pcbnew,7.0.7-7.0.7~ubuntu22.04.1*
G04 #@! TF.CreationDate,2023-10-11T21:50:17+02:00*
G04 #@! TF.ProjectId,RP2040-VCO,52503230-3430-42d5-9643-4f2e6b696361,rev?*
G04 #@! TF.SameCoordinates,Original*
G04 #@! TF.FileFunction,Copper,L1,Top*
G04 #@! TF.FilePolarity,Positive*
%FSLAX46Y46*%
G04 Gerber Fmt 4.6, Leading zero omitted, Abs format (unit mm)*
G04 Created by KiCad (PCBNEW 7.0.7-7.0.7~ubuntu22.04.1) date 2023-10-11 21:50:17*
%MOMM*%
%LPD*%
G01*
G04 APERTURE LIST*
G04 #@! TA.AperFunction,ComponentPad*
%ADD10R,1.700000X1.700000*%
G04 #@! TD*
G04 #@! TA.AperFunction,ComponentPad*
%ADD11O,1.700000X1.700000*%
G04 #@! TD*
G04 #@! TA.AperFunction,SMDPad,CuDef*
%ADD12R,0.600000X1.200000*%
G04 #@! TD*
G04 #@! TA.AperFunction,ComponentPad*
%ADD13C,1.700000*%
G04 #@! TD*
G04 #@! TA.AperFunction,ViaPad*
%ADD14C,0.800000*%
G04 #@! TD*
G04 #@! TA.AperFunction,Conductor*
%ADD15C,0.300000*%
G04 #@! TD*
G04 #@! TA.AperFunction,Conductor*
%ADD16C,0.600000*%
G04 #@! TD*
G04 APERTURE END LIST*
G04 #@! TA.AperFunction,SMDPad,CuDef*
G36*
G01*
X54550000Y-130400000D02*
X53450000Y-130400000D01*
G75*
G02*
X53200000Y-130150000I0J250000D01*
G01*
X53200000Y-128050000D01*
G75*
G02*
X53450000Y-127800000I250000J0D01*
G01*
X54550000Y-127800000D01*
G75*
G02*
X54800000Y-128050000I0J-250000D01*
G01*
X54800000Y-130150000D01*
G75*
G02*
X54550000Y-130400000I-250000J0D01*
G01*
G37*
G04 #@! TD.AperFunction*
G04 #@! TA.AperFunction,SMDPad,CuDef*
G36*
G01*
X54550000Y-126800000D02*
X53450000Y-126800000D01*
G75*
G02*
X53200000Y-126550000I0J250000D01*
G01*
X53200000Y-124450000D01*
G75*
G02*
X53450000Y-124200000I250000J0D01*
G01*
X54550000Y-124200000D01*
G75*
G02*
X54800000Y-124450000I0J-250000D01*
G01*
X54800000Y-126550000D01*
G75*
G02*
X54550000Y-126800000I-250000J0D01*
G01*
G37*
G04 #@! TD.AperFunction*
G04 #@! TA.AperFunction,SMDPad,CuDef*
G36*
G01*
X68450000Y-124100000D02*
X69550000Y-124100000D01*
G75*
G02*
X69800000Y-124350000I0J-250000D01*
G01*
X69800000Y-126450000D01*
G75*
G02*
X69550000Y-126700000I-250000J0D01*
G01*
X68450000Y-126700000D01*
G75*
G02*
X68200000Y-126450000I0J250000D01*
G01*
X68200000Y-124350000D01*
G75*
G02*
X68450000Y-124100000I250000J0D01*
G01*
G37*
G04 #@! TD.AperFunction*
G04 #@! TA.AperFunction,SMDPad,CuDef*
G36*
G01*
X68450000Y-127700000D02*
X69550000Y-127700000D01*
G75*
G02*
X69800000Y-127950000I0J-250000D01*
G01*
X69800000Y-130050000D01*
G75*
G02*
X69550000Y-130300000I-250000J0D01*
G01*
X68450000Y-130300000D01*
G75*
G02*
X68200000Y-130050000I0J250000D01*
G01*
X68200000Y-127950000D01*
G75*
G02*
X68450000Y-127700000I250000J0D01*
G01*
G37*
G04 #@! TD.AperFunction*
G04 #@! TA.AperFunction,SMDPad,CuDef*
G36*
G01*
X67700000Y-104950000D02*
X67700000Y-105850000D01*
G75*
G02*
X67450000Y-106100000I-250000J0D01*
G01*
X66750000Y-106100000D01*
G75*
G02*
X66500000Y-105850000I0J250000D01*
G01*
X66500000Y-104950000D01*
G75*
G02*
X66750000Y-104700000I250000J0D01*
G01*
X67450000Y-104700000D01*
G75*
G02*
X67700000Y-104950000I0J-250000D01*
G01*
G37*
G04 #@! TD.AperFunction*
G04 #@! TA.AperFunction,SMDPad,CuDef*
G36*
G01*
X65700000Y-104950000D02*
X65700000Y-105850000D01*
G75*
G02*
X65450000Y-106100000I-250000J0D01*
G01*
X64750000Y-106100000D01*
G75*
G02*
X64500000Y-105850000I0J250000D01*
G01*
X64500000Y-104950000D01*
G75*
G02*
X64750000Y-104700000I250000J0D01*
G01*
X65450000Y-104700000D01*
G75*
G02*
X65700000Y-104950000I0J-250000D01*
G01*
G37*
G04 #@! TD.AperFunction*
G04 #@! TA.AperFunction,SMDPad,CuDef*
G36*
G01*
X67400000Y-65850000D02*
X67400000Y-64950000D01*
G75*
G02*
X67650000Y-64700000I250000J0D01*
G01*
X68350000Y-64700000D01*
G75*
G02*
X68600000Y-64950000I0J-250000D01*
G01*
X68600000Y-65850000D01*
G75*
G02*
X68350000Y-66100000I-250000J0D01*
G01*
X67650000Y-66100000D01*
G75*
G02*
X67400000Y-65850000I0J250000D01*
G01*
G37*
G04 #@! TD.AperFunction*
G04 #@! TA.AperFunction,SMDPad,CuDef*
G36*
G01*
X69400000Y-65850000D02*
X69400000Y-64950000D01*
G75*
G02*
X69650000Y-64700000I250000J0D01*
G01*
X70350000Y-64700000D01*
G75*
G02*
X70600000Y-64950000I0J-250000D01*
G01*
X70600000Y-65850000D01*
G75*
G02*
X70350000Y-66100000I-250000J0D01*
G01*
X69650000Y-66100000D01*
G75*
G02*
X69400000Y-65850000I0J250000D01*
G01*
G37*
G04 #@! TD.AperFunction*
G04 #@! TA.AperFunction,SMDPad,CuDef*
G36*
G01*
X67700000Y-102950000D02*
X67700000Y-103850000D01*
G75*
G02*
X67450000Y-104100000I-250000J0D01*
G01*
X66750000Y-104100000D01*
G75*
G02*
X66500000Y-103850000I0J250000D01*
G01*
X66500000Y-102950000D01*
G75*
G02*
X66750000Y-102700000I250000J0D01*
G01*
X67450000Y-102700000D01*
G75*
G02*
X67700000Y-102950000I0J-250000D01*
G01*
G37*
G04 #@! TD.AperFunction*
G04 #@! TA.AperFunction,SMDPad,CuDef*
G36*
G01*
X65700000Y-102950000D02*
X65700000Y-103850000D01*
G75*
G02*
X65450000Y-104100000I-250000J0D01*
G01*
X64750000Y-104100000D01*
G75*
G02*
X64500000Y-103850000I0J250000D01*
G01*
X64500000Y-102950000D01*
G75*
G02*
X64750000Y-102700000I250000J0D01*
G01*
X65450000Y-102700000D01*
G75*
G02*
X65700000Y-102950000I0J-250000D01*
G01*
G37*
G04 #@! TD.AperFunction*
G04 #@! TA.AperFunction,SMDPad,CuDef*
G36*
G01*
X67400000Y-72350000D02*
X67400000Y-71450000D01*
G75*
G02*
X67650000Y-71200000I250000J0D01*
G01*
X68350000Y-71200000D01*
G75*
G02*
X68600000Y-71450000I0J-250000D01*
G01*
X68600000Y-72350000D01*
G75*
G02*
X68350000Y-72600000I-250000J0D01*
G01*
X67650000Y-72600000D01*
G75*
G02*
X67400000Y-72350000I0J250000D01*
G01*
G37*
G04 #@! TD.AperFunction*
G04 #@! TA.AperFunction,SMDPad,CuDef*
G36*
G01*
X69400000Y-72350000D02*
X69400000Y-71450000D01*
G75*
G02*
X69650000Y-71200000I250000J0D01*
G01*
X70350000Y-71200000D01*
G75*
G02*
X70600000Y-71450000I0J-250000D01*
G01*
X70600000Y-72350000D01*
G75*
G02*
X70350000Y-72600000I-250000J0D01*
G01*
X69650000Y-72600000D01*
G75*
G02*
X69400000Y-72350000I0J250000D01*
G01*
G37*
G04 #@! TD.AperFunction*
G04 #@! TA.AperFunction,SMDPad,CuDef*
G36*
G01*
X67725000Y-117625000D02*
X67725000Y-118575000D01*
G75*
G02*
X67475000Y-118825000I-250000J0D01*
G01*
X66800000Y-118825000D01*
G75*
G02*
X66550000Y-118575000I0J250000D01*
G01*
X66550000Y-117625000D01*
G75*
G02*
X66800000Y-117375000I250000J0D01*
G01*
X67475000Y-117375000D01*
G75*
G02*
X67725000Y-117625000I0J-250000D01*
G01*
G37*
G04 #@! TD.AperFunction*
G04 #@! TA.AperFunction,SMDPad,CuDef*
G36*
G01*
X65650000Y-117625000D02*
X65650000Y-118575000D01*
G75*
G02*
X65400000Y-118825000I-250000J0D01*
G01*
X64725000Y-118825000D01*
G75*
G02*
X64475000Y-118575000I0J250000D01*
G01*
X64475000Y-117625000D01*
G75*
G02*
X64725000Y-117375000I250000J0D01*
G01*
X65400000Y-117375000D01*
G75*
G02*
X65650000Y-117625000I0J-250000D01*
G01*
G37*
G04 #@! TD.AperFunction*
G04 #@! TA.AperFunction,SMDPad,CuDef*
G36*
G01*
X67200000Y-78975000D02*
X67200000Y-79625000D01*
G75*
G02*
X66925000Y-79900000I-275000J0D01*
G01*
X66375000Y-79900000D01*
G75*
G02*
X66100000Y-79625000I0J275000D01*
G01*
X66100000Y-78975000D01*
G75*
G02*
X66375000Y-78700000I275000J0D01*
G01*
X66925000Y-78700000D01*
G75*
G02*
X67200000Y-78975000I0J-275000D01*
G01*
G37*
G04 #@! TD.AperFunction*
G04 #@! TA.AperFunction,SMDPad,CuDef*
G36*
G01*
X63900000Y-78975000D02*
X63900000Y-79625000D01*
G75*
G02*
X63625000Y-79900000I-275000J0D01*
G01*
X63075000Y-79900000D01*
G75*
G02*
X62800000Y-79625000I0J275000D01*
G01*
X62800000Y-78975000D01*
G75*
G02*
X63075000Y-78700000I275000J0D01*
G01*
X63625000Y-78700000D01*
G75*
G02*
X63900000Y-78975000I0J-275000D01*
G01*
G37*
G04 #@! TD.AperFunction*
G04 #@! TA.AperFunction,SMDPad,CuDef*
G36*
G01*
X59775000Y-128725000D02*
X59775000Y-127775000D01*
G75*
G02*
X60025000Y-127525000I250000J0D01*
G01*
X60700000Y-127525000D01*
G75*
G02*
X60950000Y-127775000I0J-250000D01*
G01*
X60950000Y-128725000D01*
G75*
G02*
X60700000Y-128975000I-250000J0D01*
G01*
X60025000Y-128975000D01*
G75*
G02*
X59775000Y-128725000I0J250000D01*
G01*
G37*
G04 #@! TD.AperFunction*
G04 #@! TA.AperFunction,SMDPad,CuDef*
G36*
G01*
X61850000Y-128725000D02*
X61850000Y-127775000D01*
G75*
G02*
X62100000Y-127525000I250000J0D01*
G01*
X62775000Y-127525000D01*
G75*
G02*
X63025000Y-127775000I0J-250000D01*
G01*
X63025000Y-128725000D01*
G75*
G02*
X62775000Y-128975000I-250000J0D01*
G01*
X62100000Y-128975000D01*
G75*
G02*
X61850000Y-128725000I0J250000D01*
G01*
G37*
G04 #@! TD.AperFunction*
G04 #@! TA.AperFunction,SMDPad,CuDef*
G36*
G01*
X55275000Y-116075000D02*
X55275000Y-115125000D01*
G75*
G02*
X55525000Y-114875000I250000J0D01*
G01*
X56200000Y-114875000D01*
G75*
G02*
X56450000Y-115125000I0J-250000D01*
G01*
X56450000Y-116075000D01*
G75*
G02*
X56200000Y-116325000I-250000J0D01*
G01*
X55525000Y-116325000D01*
G75*
G02*
X55275000Y-116075000I0J250000D01*
G01*
G37*
G04 #@! TD.AperFunction*
G04 #@! TA.AperFunction,SMDPad,CuDef*
G36*
G01*
X57350000Y-116075000D02*
X57350000Y-115125000D01*
G75*
G02*
X57600000Y-114875000I250000J0D01*
G01*
X58275000Y-114875000D01*
G75*
G02*
X58525000Y-115125000I0J-250000D01*
G01*
X58525000Y-116075000D01*
G75*
G02*
X58275000Y-116325000I-250000J0D01*
G01*
X57600000Y-116325000D01*
G75*
G02*
X57350000Y-116075000I0J250000D01*
G01*
G37*
G04 #@! TD.AperFunction*
D10*
X69700000Y-49500000D03*
D11*
X69700000Y-52040000D03*
X69700000Y-54580000D03*
X69700000Y-57120000D03*
X69700000Y-59660000D03*
X69700000Y-62200000D03*
G04 #@! TA.AperFunction,SMDPad,CuDef*
G36*
G01*
X64475000Y-101875000D02*
X64475000Y-100925000D01*
G75*
G02*
X64725000Y-100675000I250000J0D01*
G01*
X65400000Y-100675000D01*
G75*
G02*
X65650000Y-100925000I0J-250000D01*
G01*
X65650000Y-101875000D01*
G75*
G02*
X65400000Y-102125000I-250000J0D01*
G01*
X64725000Y-102125000D01*
G75*
G02*
X64475000Y-101875000I0J250000D01*
G01*
G37*
G04 #@! TD.AperFunction*
G04 #@! TA.AperFunction,SMDPad,CuDef*
G36*
G01*
X66550000Y-101875000D02*
X66550000Y-100925000D01*
G75*
G02*
X66800000Y-100675000I250000J0D01*
G01*
X67475000Y-100675000D01*
G75*
G02*
X67725000Y-100925000I0J-250000D01*
G01*
X67725000Y-101875000D01*
G75*
G02*
X67475000Y-102125000I-250000J0D01*
G01*
X66800000Y-102125000D01*
G75*
G02*
X66550000Y-101875000I0J250000D01*
G01*
G37*
G04 #@! TD.AperFunction*
G04 #@! TA.AperFunction,SMDPad,CuDef*
G36*
G01*
X60400000Y-88975000D02*
X60400000Y-89625000D01*
G75*
G02*
X60125000Y-89900000I-275000J0D01*
G01*
X59575000Y-89900000D01*
G75*
G02*
X59300000Y-89625000I0J275000D01*
G01*
X59300000Y-88975000D01*
G75*
G02*
X59575000Y-88700000I275000J0D01*
G01*
X60125000Y-88700000D01*
G75*
G02*
X60400000Y-88975000I0J-275000D01*
G01*
G37*
G04 #@! TD.AperFunction*
G04 #@! TA.AperFunction,SMDPad,CuDef*
G36*
G01*
X57100000Y-88975000D02*
X57100000Y-89625000D01*
G75*
G02*
X56825000Y-89900000I-275000J0D01*
G01*
X56275000Y-89900000D01*
G75*
G02*
X56000000Y-89625000I0J275000D01*
G01*
X56000000Y-88975000D01*
G75*
G02*
X56275000Y-88700000I275000J0D01*
G01*
X56825000Y-88700000D01*
G75*
G02*
X57100000Y-88975000I0J-275000D01*
G01*
G37*
G04 #@! TD.AperFunction*
G04 #@! TA.AperFunction,SMDPad,CuDef*
G36*
G01*
X55975000Y-64475000D02*
X55975000Y-63525000D01*
G75*
G02*
X56225000Y-63275000I250000J0D01*
G01*
X56900000Y-63275000D01*
G75*
G02*
X57150000Y-63525000I0J-250000D01*
G01*
X57150000Y-64475000D01*
G75*
G02*
X56900000Y-64725000I-250000J0D01*
G01*
X56225000Y-64725000D01*
G75*
G02*
X55975000Y-64475000I0J250000D01*
G01*
G37*
G04 #@! TD.AperFunction*
G04 #@! TA.AperFunction,SMDPad,CuDef*
G36*
G01*
X58050000Y-64475000D02*
X58050000Y-63525000D01*
G75*
G02*
X58300000Y-63275000I250000J0D01*
G01*
X58975000Y-63275000D01*
G75*
G02*
X59225000Y-63525000I0J-250000D01*
G01*
X59225000Y-64475000D01*
G75*
G02*
X58975000Y-64725000I-250000J0D01*
G01*
X58300000Y-64725000D01*
G75*
G02*
X58050000Y-64475000I0J250000D01*
G01*
G37*
G04 #@! TD.AperFunction*
G04 #@! TA.AperFunction,SMDPad,CuDef*
G36*
G01*
X70600000Y-75450000D02*
X70600000Y-76350000D01*
G75*
G02*
X70350000Y-76600000I-250000J0D01*
G01*
X69650000Y-76600000D01*
G75*
G02*
X69400000Y-76350000I0J250000D01*
G01*
X69400000Y-75450000D01*
G75*
G02*
X69650000Y-75200000I250000J0D01*
G01*
X70350000Y-75200000D01*
G75*
G02*
X70600000Y-75450000I0J-250000D01*
G01*
G37*
G04 #@! TD.AperFunction*
G04 #@! TA.AperFunction,SMDPad,CuDef*
G36*
G01*
X68600000Y-75450000D02*
X68600000Y-76350000D01*
G75*
G02*
X68350000Y-76600000I-250000J0D01*
G01*
X67650000Y-76600000D01*
G75*
G02*
X67400000Y-76350000I0J250000D01*
G01*
X67400000Y-75450000D01*
G75*
G02*
X67650000Y-75200000I250000J0D01*
G01*
X68350000Y-75200000D01*
G75*
G02*
X68600000Y-75450000I0J-250000D01*
G01*
G37*
G04 #@! TD.AperFunction*
G04 #@! TA.AperFunction,SMDPad,CuDef*
G36*
G01*
X55500000Y-76950000D02*
X55500000Y-76050000D01*
G75*
G02*
X55750000Y-75800000I250000J0D01*
G01*
X56450000Y-75800000D01*
G75*
G02*
X56700000Y-76050000I0J-250000D01*
G01*
X56700000Y-76950000D01*
G75*
G02*
X56450000Y-77200000I-250000J0D01*
G01*
X55750000Y-77200000D01*
G75*
G02*
X55500000Y-76950000I0J250000D01*
G01*
G37*
G04 #@! TD.AperFunction*
G04 #@! TA.AperFunction,SMDPad,CuDef*
G36*
G01*
X57500000Y-76950000D02*
X57500000Y-76050000D01*
G75*
G02*
X57750000Y-75800000I250000J0D01*
G01*
X58450000Y-75800000D01*
G75*
G02*
X58700000Y-76050000I0J-250000D01*
G01*
X58700000Y-76950000D01*
G75*
G02*
X58450000Y-77200000I-250000J0D01*
G01*
X57750000Y-77200000D01*
G75*
G02*
X57500000Y-76950000I0J250000D01*
G01*
G37*
G04 #@! TD.AperFunction*
G04 #@! TA.AperFunction,SMDPad,CuDef*
G36*
G01*
X59775000Y-66140000D02*
X59775000Y-65840000D01*
G75*
G02*
X59925000Y-65690000I150000J0D01*
G01*
X61675000Y-65690000D01*
G75*
G02*
X61825000Y-65840000I0J-150000D01*
G01*
X61825000Y-66140000D01*
G75*
G02*
X61675000Y-66290000I-150000J0D01*
G01*
X59925000Y-66290000D01*
G75*
G02*
X59775000Y-66140000I0J150000D01*
G01*
G37*
G04 #@! TD.AperFunction*
G04 #@! TA.AperFunction,SMDPad,CuDef*
G36*
G01*
X59775000Y-67410000D02*
X59775000Y-67110000D01*
G75*
G02*
X59925000Y-66960000I150000J0D01*
G01*
X61675000Y-66960000D01*
G75*
G02*
X61825000Y-67110000I0J-150000D01*
G01*
X61825000Y-67410000D01*
G75*
G02*
X61675000Y-67560000I-150000J0D01*
G01*
X59925000Y-67560000D01*
G75*
G02*
X59775000Y-67410000I0J150000D01*
G01*
G37*
G04 #@! TD.AperFunction*
G04 #@! TA.AperFunction,SMDPad,CuDef*
G36*
G01*
X59775000Y-68680000D02*
X59775000Y-68380000D01*
G75*
G02*
X59925000Y-68230000I150000J0D01*
G01*
X61675000Y-68230000D01*
G75*
G02*
X61825000Y-68380000I0J-150000D01*
G01*
X61825000Y-68680000D01*
G75*
G02*
X61675000Y-68830000I-150000J0D01*
G01*
X59925000Y-68830000D01*
G75*
G02*
X59775000Y-68680000I0J150000D01*
G01*
G37*
G04 #@! TD.AperFunction*
G04 #@! TA.AperFunction,SMDPad,CuDef*
G36*
G01*
X59775000Y-69950000D02*
X59775000Y-69650000D01*
G75*
G02*
X59925000Y-69500000I150000J0D01*
G01*
X61675000Y-69500000D01*
G75*
G02*
X61825000Y-69650000I0J-150000D01*
G01*
X61825000Y-69950000D01*
G75*
G02*
X61675000Y-70100000I-150000J0D01*
G01*
X59925000Y-70100000D01*
G75*
G02*
X59775000Y-69950000I0J150000D01*
G01*
G37*
G04 #@! TD.AperFunction*
G04 #@! TA.AperFunction,SMDPad,CuDef*
G36*
G01*
X59775000Y-71220000D02*
X59775000Y-70920000D01*
G75*
G02*
X59925000Y-70770000I150000J0D01*
G01*
X61675000Y-70770000D01*
G75*
G02*
X61825000Y-70920000I0J-150000D01*
G01*
X61825000Y-71220000D01*
G75*
G02*
X61675000Y-71370000I-150000J0D01*
G01*
X59925000Y-71370000D01*
G75*
G02*
X59775000Y-71220000I0J150000D01*
G01*
G37*
G04 #@! TD.AperFunction*
G04 #@! TA.AperFunction,SMDPad,CuDef*
G36*
G01*
X59775000Y-72490000D02*
X59775000Y-72190000D01*
G75*
G02*
X59925000Y-72040000I150000J0D01*
G01*
X61675000Y-72040000D01*
G75*
G02*
X61825000Y-72190000I0J-150000D01*
G01*
X61825000Y-72490000D01*
G75*
G02*
X61675000Y-72640000I-150000J0D01*
G01*
X59925000Y-72640000D01*
G75*
G02*
X59775000Y-72490000I0J150000D01*
G01*
G37*
G04 #@! TD.AperFunction*
G04 #@! TA.AperFunction,SMDPad,CuDef*
G36*
G01*
X59775000Y-73760000D02*
X59775000Y-73460000D01*
G75*
G02*
X59925000Y-73310000I150000J0D01*
G01*
X61675000Y-73310000D01*
G75*
G02*
X61825000Y-73460000I0J-150000D01*
G01*
X61825000Y-73760000D01*
G75*
G02*
X61675000Y-73910000I-150000J0D01*
G01*
X59925000Y-73910000D01*
G75*
G02*
X59775000Y-73760000I0J150000D01*
G01*
G37*
G04 #@! TD.AperFunction*
G04 #@! TA.AperFunction,SMDPad,CuDef*
G36*
G01*
X64775000Y-73760000D02*
X64775000Y-73460000D01*
G75*
G02*
X64925000Y-73310000I150000J0D01*
G01*
X66675000Y-73310000D01*
G75*
G02*
X66825000Y-73460000I0J-150000D01*
G01*
X66825000Y-73760000D01*
G75*
G02*
X66675000Y-73910000I-150000J0D01*
G01*
X64925000Y-73910000D01*
G75*
G02*
X64775000Y-73760000I0J150000D01*
G01*
G37*
G04 #@! TD.AperFunction*
G04 #@! TA.AperFunction,SMDPad,CuDef*
G36*
G01*
X64775000Y-72490000D02*
X64775000Y-72190000D01*
G75*
G02*
X64925000Y-72040000I150000J0D01*
G01*
X66675000Y-72040000D01*
G75*
G02*
X66825000Y-72190000I0J-150000D01*
G01*
X66825000Y-72490000D01*
G75*
G02*
X66675000Y-72640000I-150000J0D01*
G01*
X64925000Y-72640000D01*
G75*
G02*
X64775000Y-72490000I0J150000D01*
G01*
G37*
G04 #@! TD.AperFunction*
G04 #@! TA.AperFunction,SMDPad,CuDef*
G36*
G01*
X64775000Y-71220000D02*
X64775000Y-70920000D01*
G75*
G02*
X64925000Y-70770000I150000J0D01*
G01*
X66675000Y-70770000D01*
G75*
G02*
X66825000Y-70920000I0J-150000D01*
G01*
X66825000Y-71220000D01*
G75*
G02*
X66675000Y-71370000I-150000J0D01*
G01*
X64925000Y-71370000D01*
G75*
G02*
X64775000Y-71220000I0J150000D01*
G01*
G37*
G04 #@! TD.AperFunction*
G04 #@! TA.AperFunction,SMDPad,CuDef*
G36*
G01*
X64775000Y-69950000D02*
X64775000Y-69650000D01*
G75*
G02*
X64925000Y-69500000I150000J0D01*
G01*
X66675000Y-69500000D01*
G75*
G02*
X66825000Y-69650000I0J-150000D01*
G01*
X66825000Y-69950000D01*
G75*
G02*
X66675000Y-70100000I-150000J0D01*
G01*
X64925000Y-70100000D01*
G75*
G02*
X64775000Y-69950000I0J150000D01*
G01*
G37*
G04 #@! TD.AperFunction*
G04 #@! TA.AperFunction,SMDPad,CuDef*
G36*
G01*
X64775000Y-68680000D02*
X64775000Y-68380000D01*
G75*
G02*
X64925000Y-68230000I150000J0D01*
G01*
X66675000Y-68230000D01*
G75*
G02*
X66825000Y-68380000I0J-150000D01*
G01*
X66825000Y-68680000D01*
G75*
G02*
X66675000Y-68830000I-150000J0D01*
G01*
X64925000Y-68830000D01*
G75*
G02*
X64775000Y-68680000I0J150000D01*
G01*
G37*
G04 #@! TD.AperFunction*
G04 #@! TA.AperFunction,SMDPad,CuDef*
G36*
G01*
X64775000Y-67410000D02*
X64775000Y-67110000D01*
G75*
G02*
X64925000Y-66960000I150000J0D01*
G01*
X66675000Y-66960000D01*
G75*
G02*
X66825000Y-67110000I0J-150000D01*
G01*
X66825000Y-67410000D01*
G75*
G02*
X66675000Y-67560000I-150000J0D01*
G01*
X64925000Y-67560000D01*
G75*
G02*
X64775000Y-67410000I0J150000D01*
G01*
G37*
G04 #@! TD.AperFunction*
G04 #@! TA.AperFunction,SMDPad,CuDef*
G36*
G01*
X64775000Y-66140000D02*
X64775000Y-65840000D01*
G75*
G02*
X64925000Y-65690000I150000J0D01*
G01*
X66675000Y-65690000D01*
G75*
G02*
X66825000Y-65840000I0J-150000D01*
G01*
X66825000Y-66140000D01*
G75*
G02*
X66675000Y-66290000I-150000J0D01*
G01*
X64925000Y-66290000D01*
G75*
G02*
X64775000Y-66140000I0J150000D01*
G01*
G37*
G04 #@! TD.AperFunction*
G04 #@! TA.AperFunction,SMDPad,CuDef*
G36*
G01*
X64475000Y-107975000D02*
X64475000Y-107025000D01*
G75*
G02*
X64725000Y-106775000I250000J0D01*
G01*
X65400000Y-106775000D01*
G75*
G02*
X65650000Y-107025000I0J-250000D01*
G01*
X65650000Y-107975000D01*
G75*
G02*
X65400000Y-108225000I-250000J0D01*
G01*
X64725000Y-108225000D01*
G75*
G02*
X64475000Y-107975000I0J250000D01*
G01*
G37*
G04 #@! TD.AperFunction*
G04 #@! TA.AperFunction,SMDPad,CuDef*
G36*
G01*
X66550000Y-107975000D02*
X66550000Y-107025000D01*
G75*
G02*
X66800000Y-106775000I250000J0D01*
G01*
X67475000Y-106775000D01*
G75*
G02*
X67725000Y-107025000I0J-250000D01*
G01*
X67725000Y-107975000D01*
G75*
G02*
X67475000Y-108225000I-250000J0D01*
G01*
X66800000Y-108225000D01*
G75*
G02*
X66550000Y-107975000I0J250000D01*
G01*
G37*
G04 #@! TD.AperFunction*
G04 #@! TA.AperFunction,SMDPad,CuDef*
G36*
G01*
X58125000Y-123225000D02*
X59075000Y-123225000D01*
G75*
G02*
X59325000Y-123475000I0J-250000D01*
G01*
X59325000Y-124150000D01*
G75*
G02*
X59075000Y-124400000I-250000J0D01*
G01*
X58125000Y-124400000D01*
G75*
G02*
X57875000Y-124150000I0J250000D01*
G01*
X57875000Y-123475000D01*
G75*
G02*
X58125000Y-123225000I250000J0D01*
G01*
G37*
G04 #@! TD.AperFunction*
G04 #@! TA.AperFunction,SMDPad,CuDef*
G36*
G01*
X58125000Y-125300000D02*
X59075000Y-125300000D01*
G75*
G02*
X59325000Y-125550000I0J-250000D01*
G01*
X59325000Y-126225000D01*
G75*
G02*
X59075000Y-126475000I-250000J0D01*
G01*
X58125000Y-126475000D01*
G75*
G02*
X57875000Y-126225000I0J250000D01*
G01*
X57875000Y-125550000D01*
G75*
G02*
X58125000Y-125300000I250000J0D01*
G01*
G37*
G04 #@! TD.AperFunction*
G04 #@! TA.AperFunction,SMDPad,CuDef*
G36*
G01*
X55500000Y-74950000D02*
X55500000Y-74050000D01*
G75*
G02*
X55750000Y-73800000I250000J0D01*
G01*
X56450000Y-73800000D01*
G75*
G02*
X56700000Y-74050000I0J-250000D01*
G01*
X56700000Y-74950000D01*
G75*
G02*
X56450000Y-75200000I-250000J0D01*
G01*
X55750000Y-75200000D01*
G75*
G02*
X55500000Y-74950000I0J250000D01*
G01*
G37*
G04 #@! TD.AperFunction*
G04 #@! TA.AperFunction,SMDPad,CuDef*
G36*
G01*
X57500000Y-74950000D02*
X57500000Y-74050000D01*
G75*
G02*
X57750000Y-73800000I250000J0D01*
G01*
X58450000Y-73800000D01*
G75*
G02*
X58700000Y-74050000I0J-250000D01*
G01*
X58700000Y-74950000D01*
G75*
G02*
X58450000Y-75200000I-250000J0D01*
G01*
X57750000Y-75200000D01*
G75*
G02*
X57500000Y-74950000I0J250000D01*
G01*
G37*
G04 #@! TD.AperFunction*
G04 #@! TA.AperFunction,SMDPad,CuDef*
G36*
G01*
X56000000Y-68450000D02*
X56000000Y-67550000D01*
G75*
G02*
X56250000Y-67300000I250000J0D01*
G01*
X56950000Y-67300000D01*
G75*
G02*
X57200000Y-67550000I0J-250000D01*
G01*
X57200000Y-68450000D01*
G75*
G02*
X56950000Y-68700000I-250000J0D01*
G01*
X56250000Y-68700000D01*
G75*
G02*
X56000000Y-68450000I0J250000D01*
G01*
G37*
G04 #@! TD.AperFunction*
G04 #@! TA.AperFunction,SMDPad,CuDef*
G36*
G01*
X58000000Y-68450000D02*
X58000000Y-67550000D01*
G75*
G02*
X58250000Y-67300000I250000J0D01*
G01*
X58950000Y-67300000D01*
G75*
G02*
X59200000Y-67550000I0J-250000D01*
G01*
X59200000Y-68450000D01*
G75*
G02*
X58950000Y-68700000I-250000J0D01*
G01*
X58250000Y-68700000D01*
G75*
G02*
X58000000Y-68450000I0J250000D01*
G01*
G37*
G04 #@! TD.AperFunction*
G04 #@! TA.AperFunction,SMDPad,CuDef*
G36*
G01*
X67400000Y-74350000D02*
X67400000Y-73450000D01*
G75*
G02*
X67650000Y-73200000I250000J0D01*
G01*
X68350000Y-73200000D01*
G75*
G02*
X68600000Y-73450000I0J-250000D01*
G01*
X68600000Y-74350000D01*
G75*
G02*
X68350000Y-74600000I-250000J0D01*
G01*
X67650000Y-74600000D01*
G75*
G02*
X67400000Y-74350000I0J250000D01*
G01*
G37*
G04 #@! TD.AperFunction*
G04 #@! TA.AperFunction,SMDPad,CuDef*
G36*
G01*
X69400000Y-74350000D02*
X69400000Y-73450000D01*
G75*
G02*
X69650000Y-73200000I250000J0D01*
G01*
X70350000Y-73200000D01*
G75*
G02*
X70600000Y-73450000I0J-250000D01*
G01*
X70600000Y-74350000D01*
G75*
G02*
X70350000Y-74600000I-250000J0D01*
G01*
X69650000Y-74600000D01*
G75*
G02*
X69400000Y-74350000I0J250000D01*
G01*
G37*
G04 #@! TD.AperFunction*
G04 #@! TA.AperFunction,SMDPad,CuDef*
G36*
G01*
X70625000Y-69225000D02*
X70625000Y-70175000D01*
G75*
G02*
X70375000Y-70425000I-250000J0D01*
G01*
X69700000Y-70425000D01*
G75*
G02*
X69450000Y-70175000I0J250000D01*
G01*
X69450000Y-69225000D01*
G75*
G02*
X69700000Y-68975000I250000J0D01*
G01*
X70375000Y-68975000D01*
G75*
G02*
X70625000Y-69225000I0J-250000D01*
G01*
G37*
G04 #@! TD.AperFunction*
G04 #@! TA.AperFunction,SMDPad,CuDef*
G36*
G01*
X68550000Y-69225000D02*
X68550000Y-70175000D01*
G75*
G02*
X68300000Y-70425000I-250000J0D01*
G01*
X67625000Y-70425000D01*
G75*
G02*
X67375000Y-70175000I0J250000D01*
G01*
X67375000Y-69225000D01*
G75*
G02*
X67625000Y-68975000I250000J0D01*
G01*
X68300000Y-68975000D01*
G75*
G02*
X68550000Y-69225000I0J-250000D01*
G01*
G37*
G04 #@! TD.AperFunction*
D10*
X53300000Y-67800000D03*
D11*
X53300000Y-70340000D03*
X53300000Y-72880000D03*
X53300000Y-75420000D03*
X53300000Y-77960000D03*
X53300000Y-80500000D03*
X53300000Y-83040000D03*
X53300000Y-85580000D03*
G04 #@! TA.AperFunction,SMDPad,CuDef*
G36*
G01*
X55312500Y-113475000D02*
X55312500Y-112525000D01*
G75*
G02*
X55562500Y-112275000I250000J0D01*
G01*
X56237500Y-112275000D01*
G75*
G02*
X56487500Y-112525000I0J-250000D01*
G01*
X56487500Y-113475000D01*
G75*
G02*
X56237500Y-113725000I-250000J0D01*
G01*
X55562500Y-113725000D01*
G75*
G02*
X55312500Y-113475000I0J250000D01*
G01*
G37*
G04 #@! TD.AperFunction*
G04 #@! TA.AperFunction,SMDPad,CuDef*
G36*
G01*
X57387500Y-113475000D02*
X57387500Y-112525000D01*
G75*
G02*
X57637500Y-112275000I250000J0D01*
G01*
X58312500Y-112275000D01*
G75*
G02*
X58562500Y-112525000I0J-250000D01*
G01*
X58562500Y-113475000D01*
G75*
G02*
X58312500Y-113725000I-250000J0D01*
G01*
X57637500Y-113725000D01*
G75*
G02*
X57387500Y-113475000I0J250000D01*
G01*
G37*
G04 #@! TD.AperFunction*
G04 #@! TA.AperFunction,SMDPad,CuDef*
G36*
G01*
X67500000Y-56650000D02*
X67500000Y-57550000D01*
G75*
G02*
X67250000Y-57800000I-250000J0D01*
G01*
X66550000Y-57800000D01*
G75*
G02*
X66300000Y-57550000I0J250000D01*
G01*
X66300000Y-56650000D01*
G75*
G02*
X66550000Y-56400000I250000J0D01*
G01*
X67250000Y-56400000D01*
G75*
G02*
X67500000Y-56650000I0J-250000D01*
G01*
G37*
G04 #@! TD.AperFunction*
G04 #@! TA.AperFunction,SMDPad,CuDef*
G36*
G01*
X65500000Y-56650000D02*
X65500000Y-57550000D01*
G75*
G02*
X65250000Y-57800000I-250000J0D01*
G01*
X64550000Y-57800000D01*
G75*
G02*
X64300000Y-57550000I0J250000D01*
G01*
X64300000Y-56650000D01*
G75*
G02*
X64550000Y-56400000I250000J0D01*
G01*
X65250000Y-56400000D01*
G75*
G02*
X65500000Y-56650000I0J-250000D01*
G01*
G37*
G04 #@! TD.AperFunction*
G04 #@! TA.AperFunction,SMDPad,CuDef*
G36*
G01*
X67200000Y-81375000D02*
X67200000Y-82025000D01*
G75*
G02*
X66925000Y-82300000I-275000J0D01*
G01*
X66375000Y-82300000D01*
G75*
G02*
X66100000Y-82025000I0J275000D01*
G01*
X66100000Y-81375000D01*
G75*
G02*
X66375000Y-81100000I275000J0D01*
G01*
X66925000Y-81100000D01*
G75*
G02*
X67200000Y-81375000I0J-275000D01*
G01*
G37*
G04 #@! TD.AperFunction*
G04 #@! TA.AperFunction,SMDPad,CuDef*
G36*
G01*
X63900000Y-81375000D02*
X63900000Y-82025000D01*
G75*
G02*
X63625000Y-82300000I-275000J0D01*
G01*
X63075000Y-82300000D01*
G75*
G02*
X62800000Y-82025000I0J275000D01*
G01*
X62800000Y-81375000D01*
G75*
G02*
X63075000Y-81100000I275000J0D01*
G01*
X63625000Y-81100000D01*
G75*
G02*
X63900000Y-81375000I0J-275000D01*
G01*
G37*
G04 #@! TD.AperFunction*
G04 #@! TA.AperFunction,SMDPad,CuDef*
G36*
G01*
X59900000Y-75950000D02*
X59900000Y-75050000D01*
G75*
G02*
X60150000Y-74800000I250000J0D01*
G01*
X60850000Y-74800000D01*
G75*
G02*
X61100000Y-75050000I0J-250000D01*
G01*
X61100000Y-75950000D01*
G75*
G02*
X60850000Y-76200000I-250000J0D01*
G01*
X60150000Y-76200000D01*
G75*
G02*
X59900000Y-75950000I0J250000D01*
G01*
G37*
G04 #@! TD.AperFunction*
G04 #@! TA.AperFunction,SMDPad,CuDef*
G36*
G01*
X61900000Y-75950000D02*
X61900000Y-75050000D01*
G75*
G02*
X62150000Y-74800000I250000J0D01*
G01*
X62850000Y-74800000D01*
G75*
G02*
X63100000Y-75050000I0J-250000D01*
G01*
X63100000Y-75950000D01*
G75*
G02*
X62850000Y-76200000I-250000J0D01*
G01*
X62150000Y-76200000D01*
G75*
G02*
X61900000Y-75950000I0J250000D01*
G01*
G37*
G04 #@! TD.AperFunction*
G04 #@! TA.AperFunction,SMDPad,CuDef*
G36*
G01*
X56000000Y-66450000D02*
X56000000Y-65550000D01*
G75*
G02*
X56250000Y-65300000I250000J0D01*
G01*
X56950000Y-65300000D01*
G75*
G02*
X57200000Y-65550000I0J-250000D01*
G01*
X57200000Y-66450000D01*
G75*
G02*
X56950000Y-66700000I-250000J0D01*
G01*
X56250000Y-66700000D01*
G75*
G02*
X56000000Y-66450000I0J250000D01*
G01*
G37*
G04 #@! TD.AperFunction*
G04 #@! TA.AperFunction,SMDPad,CuDef*
G36*
G01*
X58000000Y-66450000D02*
X58000000Y-65550000D01*
G75*
G02*
X58250000Y-65300000I250000J0D01*
G01*
X58950000Y-65300000D01*
G75*
G02*
X59200000Y-65550000I0J-250000D01*
G01*
X59200000Y-66450000D01*
G75*
G02*
X58950000Y-66700000I-250000J0D01*
G01*
X58250000Y-66700000D01*
G75*
G02*
X58000000Y-66450000I0J250000D01*
G01*
G37*
G04 #@! TD.AperFunction*
G04 #@! TA.AperFunction,SMDPad,CuDef*
G36*
G01*
X55375000Y-110975000D02*
X55375000Y-110025000D01*
G75*
G02*
X55625000Y-109775000I250000J0D01*
G01*
X56300000Y-109775000D01*
G75*
G02*
X56550000Y-110025000I0J-250000D01*
G01*
X56550000Y-110975000D01*
G75*
G02*
X56300000Y-111225000I-250000J0D01*
G01*
X55625000Y-111225000D01*
G75*
G02*
X55375000Y-110975000I0J250000D01*
G01*
G37*
G04 #@! TD.AperFunction*
G04 #@! TA.AperFunction,SMDPad,CuDef*
G36*
G01*
X57450000Y-110975000D02*
X57450000Y-110025000D01*
G75*
G02*
X57700000Y-109775000I250000J0D01*
G01*
X58375000Y-109775000D01*
G75*
G02*
X58625000Y-110025000I0J-250000D01*
G01*
X58625000Y-110975000D01*
G75*
G02*
X58375000Y-111225000I-250000J0D01*
G01*
X57700000Y-111225000D01*
G75*
G02*
X57450000Y-110975000I0J250000D01*
G01*
G37*
G04 #@! TD.AperFunction*
G04 #@! TA.AperFunction,SMDPad,CuDef*
G36*
G01*
X55275000Y-118575000D02*
X55275000Y-117625000D01*
G75*
G02*
X55525000Y-117375000I250000J0D01*
G01*
X56200000Y-117375000D01*
G75*
G02*
X56450000Y-117625000I0J-250000D01*
G01*
X56450000Y-118575000D01*
G75*
G02*
X56200000Y-118825000I-250000J0D01*
G01*
X55525000Y-118825000D01*
G75*
G02*
X55275000Y-118575000I0J250000D01*
G01*
G37*
G04 #@! TD.AperFunction*
G04 #@! TA.AperFunction,SMDPad,CuDef*
G36*
G01*
X57350000Y-118575000D02*
X57350000Y-117625000D01*
G75*
G02*
X57600000Y-117375000I250000J0D01*
G01*
X58275000Y-117375000D01*
G75*
G02*
X58525000Y-117625000I0J-250000D01*
G01*
X58525000Y-118575000D01*
G75*
G02*
X58275000Y-118825000I-250000J0D01*
G01*
X57600000Y-118825000D01*
G75*
G02*
X57350000Y-118575000I0J250000D01*
G01*
G37*
G04 #@! TD.AperFunction*
G04 #@! TA.AperFunction,SMDPad,CuDef*
G36*
G01*
X60400000Y-86575000D02*
X60400000Y-87225000D01*
G75*
G02*
X60125000Y-87500000I-275000J0D01*
G01*
X59575000Y-87500000D01*
G75*
G02*
X59300000Y-87225000I0J275000D01*
G01*
X59300000Y-86575000D01*
G75*
G02*
X59575000Y-86300000I275000J0D01*
G01*
X60125000Y-86300000D01*
G75*
G02*
X60400000Y-86575000I0J-275000D01*
G01*
G37*
G04 #@! TD.AperFunction*
G04 #@! TA.AperFunction,SMDPad,CuDef*
G36*
G01*
X57100000Y-86575000D02*
X57100000Y-87225000D01*
G75*
G02*
X56825000Y-87500000I-275000J0D01*
G01*
X56275000Y-87500000D01*
G75*
G02*
X56000000Y-87225000I0J275000D01*
G01*
X56000000Y-86575000D01*
G75*
G02*
X56275000Y-86300000I275000J0D01*
G01*
X56825000Y-86300000D01*
G75*
G02*
X57100000Y-86575000I0J-275000D01*
G01*
G37*
G04 #@! TD.AperFunction*
G04 #@! TA.AperFunction,SMDPad,CuDef*
G36*
G01*
X67500000Y-54150000D02*
X67500000Y-55050000D01*
G75*
G02*
X67250000Y-55300000I-250000J0D01*
G01*
X66550000Y-55300000D01*
G75*
G02*
X66300000Y-55050000I0J250000D01*
G01*
X66300000Y-54150000D01*
G75*
G02*
X66550000Y-53900000I250000J0D01*
G01*
X67250000Y-53900000D01*
G75*
G02*
X67500000Y-54150000I0J-250000D01*
G01*
G37*
G04 #@! TD.AperFunction*
G04 #@! TA.AperFunction,SMDPad,CuDef*
G36*
G01*
X65500000Y-54150000D02*
X65500000Y-55050000D01*
G75*
G02*
X65250000Y-55300000I-250000J0D01*
G01*
X64550000Y-55300000D01*
G75*
G02*
X64300000Y-55050000I0J250000D01*
G01*
X64300000Y-54150000D01*
G75*
G02*
X64550000Y-53900000I250000J0D01*
G01*
X65250000Y-53900000D01*
G75*
G02*
X65500000Y-54150000I0J-250000D01*
G01*
G37*
G04 #@! TD.AperFunction*
G04 #@! TA.AperFunction,SMDPad,CuDef*
G36*
G01*
X63925000Y-123225000D02*
X64875000Y-123225000D01*
G75*
G02*
X65125000Y-123475000I0J-250000D01*
G01*
X65125000Y-124150000D01*
G75*
G02*
X64875000Y-124400000I-250000J0D01*
G01*
X63925000Y-124400000D01*
G75*
G02*
X63675000Y-124150000I0J250000D01*
G01*
X63675000Y-123475000D01*
G75*
G02*
X63925000Y-123225000I250000J0D01*
G01*
G37*
G04 #@! TD.AperFunction*
G04 #@! TA.AperFunction,SMDPad,CuDef*
G36*
G01*
X63925000Y-125300000D02*
X64875000Y-125300000D01*
G75*
G02*
X65125000Y-125550000I0J-250000D01*
G01*
X65125000Y-126225000D01*
G75*
G02*
X64875000Y-126475000I-250000J0D01*
G01*
X63925000Y-126475000D01*
G75*
G02*
X63675000Y-126225000I0J250000D01*
G01*
X63675000Y-125550000D01*
G75*
G02*
X63925000Y-125300000I250000J0D01*
G01*
G37*
G04 #@! TD.AperFunction*
G04 #@! TA.AperFunction,SMDPad,CuDef*
G36*
G01*
X59225000Y-69725000D02*
X59225000Y-70675000D01*
G75*
G02*
X58975000Y-70925000I-250000J0D01*
G01*
X58300000Y-70925000D01*
G75*
G02*
X58050000Y-70675000I0J250000D01*
G01*
X58050000Y-69725000D01*
G75*
G02*
X58300000Y-69475000I250000J0D01*
G01*
X58975000Y-69475000D01*
G75*
G02*
X59225000Y-69725000I0J-250000D01*
G01*
G37*
G04 #@! TD.AperFunction*
G04 #@! TA.AperFunction,SMDPad,CuDef*
G36*
G01*
X57150000Y-69725000D02*
X57150000Y-70675000D01*
G75*
G02*
X56900000Y-70925000I-250000J0D01*
G01*
X56225000Y-70925000D01*
G75*
G02*
X55975000Y-70675000I0J250000D01*
G01*
X55975000Y-69725000D01*
G75*
G02*
X56225000Y-69475000I250000J0D01*
G01*
X56900000Y-69475000D01*
G75*
G02*
X57150000Y-69725000I0J-250000D01*
G01*
G37*
G04 #@! TD.AperFunction*
G04 #@! TA.AperFunction,SMDPad,CuDef*
G36*
G01*
X67500000Y-51650000D02*
X67500000Y-52550000D01*
G75*
G02*
X67250000Y-52800000I-250000J0D01*
G01*
X66550000Y-52800000D01*
G75*
G02*
X66300000Y-52550000I0J250000D01*
G01*
X66300000Y-51650000D01*
G75*
G02*
X66550000Y-51400000I250000J0D01*
G01*
X67250000Y-51400000D01*
G75*
G02*
X67500000Y-51650000I0J-250000D01*
G01*
G37*
G04 #@! TD.AperFunction*
G04 #@! TA.AperFunction,SMDPad,CuDef*
G36*
G01*
X65500000Y-51650000D02*
X65500000Y-52550000D01*
G75*
G02*
X65250000Y-52800000I-250000J0D01*
G01*
X64550000Y-52800000D01*
G75*
G02*
X64300000Y-52550000I0J250000D01*
G01*
X64300000Y-51650000D01*
G75*
G02*
X64550000Y-51400000I250000J0D01*
G01*
X65250000Y-51400000D01*
G75*
G02*
X65500000Y-51650000I0J-250000D01*
G01*
G37*
G04 #@! TD.AperFunction*
G04 #@! TA.AperFunction,SMDPad,CuDef*
G36*
G01*
X67725000Y-112525000D02*
X67725000Y-113475000D01*
G75*
G02*
X67475000Y-113725000I-250000J0D01*
G01*
X66800000Y-113725000D01*
G75*
G02*
X66550000Y-113475000I0J250000D01*
G01*
X66550000Y-112525000D01*
G75*
G02*
X66800000Y-112275000I250000J0D01*
G01*
X67475000Y-112275000D01*
G75*
G02*
X67725000Y-112525000I0J-250000D01*
G01*
G37*
G04 #@! TD.AperFunction*
G04 #@! TA.AperFunction,SMDPad,CuDef*
G36*
G01*
X65650000Y-112525000D02*
X65650000Y-113475000D01*
G75*
G02*
X65400000Y-113725000I-250000J0D01*
G01*
X64725000Y-113725000D01*
G75*
G02*
X64475000Y-113475000I0J250000D01*
G01*
X64475000Y-112525000D01*
G75*
G02*
X64725000Y-112275000I250000J0D01*
G01*
X65400000Y-112275000D01*
G75*
G02*
X65650000Y-112525000I0J-250000D01*
G01*
G37*
G04 #@! TD.AperFunction*
D12*
X60550000Y-126300000D03*
X61500000Y-126300000D03*
X62450000Y-126300000D03*
X62450000Y-123800000D03*
X60550000Y-123800000D03*
G04 #@! TA.AperFunction,SMDPad,CuDef*
G36*
G01*
X67400000Y-67850000D02*
X67400000Y-66950000D01*
G75*
G02*
X67650000Y-66700000I250000J0D01*
G01*
X68350000Y-66700000D01*
G75*
G02*
X68600000Y-66950000I0J-250000D01*
G01*
X68600000Y-67850000D01*
G75*
G02*
X68350000Y-68100000I-250000J0D01*
G01*
X67650000Y-68100000D01*
G75*
G02*
X67400000Y-67850000I0J250000D01*
G01*
G37*
G04 #@! TD.AperFunction*
G04 #@! TA.AperFunction,SMDPad,CuDef*
G36*
G01*
X69400000Y-67850000D02*
X69400000Y-66950000D01*
G75*
G02*
X69650000Y-66700000I250000J0D01*
G01*
X70350000Y-66700000D01*
G75*
G02*
X70600000Y-66950000I0J-250000D01*
G01*
X70600000Y-67850000D01*
G75*
G02*
X70350000Y-68100000I-250000J0D01*
G01*
X69650000Y-68100000D01*
G75*
G02*
X69400000Y-67850000I0J250000D01*
G01*
G37*
G04 #@! TD.AperFunction*
G04 #@! TA.AperFunction,ComponentPad*
G36*
G01*
X59450000Y-141480000D02*
X59450000Y-140280000D01*
G75*
G02*
X59700000Y-140030000I250000J0D01*
G01*
X60900000Y-140030000D01*
G75*
G02*
X61150000Y-140280000I0J-250000D01*
G01*
X61150000Y-141480000D01*
G75*
G02*
X60900000Y-141730000I-250000J0D01*
G01*
X59700000Y-141730000D01*
G75*
G02*
X59450000Y-141480000I0J250000D01*
G01*
G37*
G04 #@! TD.AperFunction*
D13*
X62840000Y-140880000D03*
X60300000Y-138340000D03*
X62840000Y-138340000D03*
X60300000Y-135800000D03*
X62840000Y-135800000D03*
X60300000Y-133260000D03*
X62840000Y-133260000D03*
X60300000Y-130720000D03*
X62840000Y-130720000D03*
D10*
X53880000Y-118120000D03*
D13*
X53880000Y-115580000D03*
X53880000Y-113040000D03*
X53880000Y-110500000D03*
X53880000Y-107960000D03*
X53880000Y-105420000D03*
X53880000Y-102880000D03*
X69120000Y-102880000D03*
X69120000Y-105420000D03*
X69120000Y-107960000D03*
X69120000Y-110500000D03*
X69120000Y-113040000D03*
X69120000Y-115580000D03*
X69120000Y-118120000D03*
D14*
X56200000Y-92300000D03*
X55900000Y-49300000D03*
X64600000Y-87900000D03*
X59400000Y-98300000D03*
X56200000Y-91400000D03*
X65900000Y-76200000D03*
X67000000Y-132800000D03*
X59200000Y-119900000D03*
X62200000Y-62500000D03*
X53600000Y-89400000D03*
X65500000Y-59600000D03*
X53600000Y-90300000D03*
X55200000Y-70200000D03*
X67500000Y-133700000D03*
X66000000Y-60500000D03*
X56200000Y-93200000D03*
X64600000Y-89700000D03*
X69300000Y-88000000D03*
X55900000Y-50200000D03*
X69300000Y-87100000D03*
X64200000Y-68500000D03*
X53600000Y-91200000D03*
X59700000Y-120700000D03*
X66100000Y-85400000D03*
X69300000Y-88900000D03*
X66100000Y-86300000D03*
X59800000Y-84000000D03*
X67100000Y-109400000D03*
X58600000Y-98800000D03*
X58600000Y-97800000D03*
X59800000Y-83100000D03*
X64600000Y-88800000D03*
X56100000Y-73000000D03*
X68000000Y-132800000D03*
X66500000Y-59600000D03*
X66200000Y-109400000D03*
X55000000Y-49300000D03*
X60200000Y-119900000D03*
X55000000Y-50200000D03*
X66100000Y-84500000D03*
X62300000Y-68500000D03*
X62200000Y-61600000D03*
X65900000Y-75300000D03*
X54100000Y-131300000D03*
X58600000Y-71400000D03*
X64349500Y-69800000D03*
X69000000Y-131200000D03*
X63600000Y-54600000D03*
X62949500Y-57100000D03*
X69000000Y-77300000D03*
X62200000Y-79500000D03*
X70000000Y-64100000D03*
X54000000Y-98500000D03*
X59500000Y-101500000D03*
X57600000Y-69100000D03*
X59900000Y-81500000D03*
D15*
X63599500Y-69100500D02*
X64200000Y-68500000D01*
X62437500Y-128250000D02*
X61500000Y-127312500D01*
X66070000Y-70800000D02*
X65800000Y-71070000D01*
X64230000Y-68530000D02*
X64200000Y-68500000D01*
X68611764Y-70800000D02*
X66070000Y-70800000D01*
X65800000Y-68530000D02*
X64230000Y-68530000D01*
X61500000Y-127312500D02*
X61500000Y-126300000D01*
X60830000Y-68500000D02*
X60800000Y-68530000D01*
X69711764Y-69700000D02*
X68611764Y-70800000D01*
X64558839Y-71070000D02*
X63599500Y-70110661D01*
X63599500Y-70110661D02*
X63599500Y-69100500D01*
X62300000Y-68500000D02*
X60830000Y-68500000D01*
X65800000Y-71070000D02*
X64558839Y-71070000D01*
X70037500Y-69700000D02*
X69711764Y-69700000D01*
X54100000Y-131300000D02*
X54100000Y-129200000D01*
D16*
X60362500Y-130657500D02*
X60300000Y-130720000D01*
D15*
X58637500Y-70200000D02*
X60400000Y-70200000D01*
D16*
X60362500Y-128250000D02*
X60362500Y-130657500D01*
X60362500Y-126487500D02*
X60550000Y-126300000D01*
X60362500Y-128250000D02*
X54850000Y-128250000D01*
D15*
X62450000Y-125650000D02*
X62100000Y-125300000D01*
D16*
X54850000Y-128250000D02*
X54000000Y-129100000D01*
X62840000Y-130720000D02*
X60300000Y-130720000D01*
D15*
X60400000Y-70200000D02*
X60800000Y-69800000D01*
X60550000Y-125650000D02*
X60550000Y-126300000D01*
X62100000Y-125300000D02*
X60900000Y-125300000D01*
X60900000Y-125300000D02*
X60550000Y-125650000D01*
D16*
X60362500Y-128250000D02*
X60362500Y-126487500D01*
D15*
X54100000Y-129200000D02*
X54000000Y-129100000D01*
X58637500Y-71362500D02*
X58600000Y-71400000D01*
X62450000Y-126300000D02*
X62450000Y-125650000D01*
X58637500Y-70200000D02*
X58637500Y-71362500D01*
D16*
X69000000Y-129000000D02*
X69000000Y-131200000D01*
X69000000Y-134720000D02*
X69000000Y-131200000D01*
X62840000Y-140880000D02*
X69000000Y-134720000D01*
X60300000Y-140880000D02*
X62840000Y-140880000D01*
D15*
X67962500Y-69800000D02*
X65800000Y-69800000D01*
X65800000Y-69800000D02*
X64349500Y-69800000D01*
X63600000Y-54600000D02*
X64900000Y-54600000D01*
X53900000Y-115600000D02*
X53880000Y-115580000D01*
X55862500Y-115600000D02*
X53900000Y-115600000D01*
X55962500Y-110500000D02*
X53880000Y-110500000D01*
X64900000Y-57100000D02*
X62949500Y-57100000D01*
X53900000Y-118100000D02*
X53880000Y-118120000D01*
X57300000Y-91850000D02*
X59850000Y-89300000D01*
X56900000Y-117062500D02*
X56900000Y-109500000D01*
X59850000Y-89300000D02*
X58950000Y-89300000D01*
X57300000Y-109100000D02*
X57300000Y-91850000D01*
X56900000Y-109500000D02*
X57300000Y-109100000D01*
X55862500Y-118100000D02*
X53900000Y-118100000D01*
X58950000Y-89300000D02*
X56550000Y-86900000D01*
X56550000Y-78050000D02*
X58100000Y-76500000D01*
X58100000Y-76500000D02*
X58100000Y-74500000D01*
X56550000Y-86900000D02*
X56550000Y-78050000D01*
X55862500Y-118100000D02*
X56900000Y-117062500D01*
X60537500Y-123812500D02*
X60550000Y-123800000D01*
X61023528Y-123800000D02*
X66723528Y-118100000D01*
X66723528Y-118100000D02*
X67137500Y-118100000D01*
X67157500Y-118120000D02*
X67137500Y-118100000D01*
X60550000Y-123800000D02*
X61023528Y-123800000D01*
X69120000Y-118120000D02*
X67157500Y-118120000D01*
X58600000Y-123812500D02*
X60537500Y-123812500D01*
X59850000Y-86900000D02*
X58800000Y-85850000D01*
X61750000Y-78350000D02*
X65700000Y-78350000D01*
X58800000Y-81300000D02*
X61750000Y-78350000D01*
X69120000Y-113040000D02*
X67177500Y-113040000D01*
X57800000Y-103662500D02*
X67137500Y-113000000D01*
X61000000Y-91500000D02*
X57800000Y-94700000D01*
X61000000Y-88000000D02*
X61000000Y-91500000D01*
X65700000Y-78350000D02*
X66650000Y-79300000D01*
X58800000Y-85850000D02*
X58800000Y-81300000D01*
X59850000Y-86900000D02*
X59900000Y-86900000D01*
X59900000Y-86900000D02*
X61000000Y-88000000D01*
X67177500Y-113040000D02*
X67137500Y-113000000D01*
X57800000Y-94700000D02*
X57800000Y-103662500D01*
X63350000Y-79300000D02*
X64250000Y-79300000D01*
X70000000Y-65600000D02*
X70000000Y-64100000D01*
X62200000Y-79500000D02*
X63150000Y-79500000D01*
X69000000Y-77300000D02*
X69000000Y-76900000D01*
X63150000Y-79500000D02*
X63350000Y-79300000D01*
X69000000Y-76900000D02*
X68000000Y-75900000D01*
X69000000Y-77300000D02*
X69000000Y-79350000D01*
X64250000Y-79300000D02*
X66650000Y-81700000D01*
X69000000Y-79350000D02*
X66650000Y-81700000D01*
X53920000Y-113000000D02*
X53880000Y-113040000D01*
X55900000Y-113000000D02*
X53920000Y-113000000D01*
X53300000Y-67262500D02*
X56562500Y-64000000D01*
X53300000Y-67800000D02*
X53300000Y-67262500D01*
X66920000Y-57120000D02*
X66900000Y-57100000D01*
X69700000Y-57120000D02*
X66920000Y-57120000D01*
X69700000Y-52040000D02*
X66960000Y-52040000D01*
X66960000Y-52040000D02*
X66900000Y-52100000D01*
X56100000Y-76500000D02*
X56100000Y-76200000D01*
X53300000Y-73400000D02*
X53300000Y-72880000D01*
X56100000Y-76200000D02*
X53300000Y-73400000D01*
X59700000Y-76600000D02*
X61400000Y-76600000D01*
X65800000Y-72340000D02*
X65337893Y-72340000D01*
X62500000Y-75177893D02*
X62500000Y-75500000D01*
X68000000Y-71900000D02*
X66240000Y-71900000D01*
X66240000Y-71900000D02*
X65800000Y-72340000D01*
X59200000Y-73748528D02*
X59200000Y-76100000D01*
X65337893Y-72340000D02*
X62500000Y-75177893D01*
X57151472Y-71700000D02*
X59200000Y-73748528D01*
X53300000Y-70340000D02*
X54660000Y-71700000D01*
X54660000Y-71700000D02*
X57151472Y-71700000D01*
X61400000Y-76600000D02*
X62500000Y-75500000D01*
X59200000Y-76100000D02*
X59700000Y-76600000D01*
X69700000Y-54580000D02*
X66920000Y-54580000D01*
X66920000Y-54580000D02*
X66900000Y-54600000D01*
X67120000Y-105420000D02*
X67100000Y-105400000D01*
X69120000Y-105420000D02*
X67120000Y-105420000D01*
X55080000Y-82280000D02*
X53300000Y-80500000D01*
X53880000Y-107960000D02*
X55080000Y-106760000D01*
X55080000Y-106760000D02*
X55080000Y-82280000D01*
X62462500Y-123812500D02*
X62450000Y-123800000D01*
X64400000Y-123812500D02*
X62462500Y-123812500D01*
X52100000Y-79160000D02*
X53300000Y-77960000D01*
X52100000Y-101100000D02*
X52100000Y-79160000D01*
X53880000Y-102880000D02*
X52100000Y-101100000D01*
X68482943Y-109300000D02*
X69800000Y-109300000D01*
X54580000Y-84320000D02*
X54580000Y-97920000D01*
X54580000Y-97920000D02*
X54000000Y-98500000D01*
X53300000Y-83040000D02*
X54580000Y-84320000D01*
X65889339Y-110150000D02*
X67632943Y-110150000D01*
X70400000Y-104160000D02*
X69120000Y-102880000D01*
X59500000Y-101500000D02*
X59500000Y-103760661D01*
X59500000Y-103760661D02*
X65889339Y-110150000D01*
X70400000Y-108700000D02*
X70400000Y-104160000D01*
X69800000Y-109300000D02*
X70400000Y-108700000D01*
X67632943Y-110150000D02*
X68482943Y-109300000D01*
X65062500Y-103362500D02*
X65100000Y-103400000D01*
X65700000Y-100762500D02*
X65062500Y-101400000D01*
X59900000Y-81500000D02*
X65700000Y-87300000D01*
X58600000Y-68000000D02*
X58600000Y-68100000D01*
X58600000Y-68100000D02*
X57600000Y-69100000D01*
X65700000Y-87300000D02*
X65700000Y-100762500D01*
X59340000Y-67260000D02*
X60800000Y-67260000D01*
X65062500Y-101400000D02*
X65062500Y-103362500D01*
X58600000Y-68000000D02*
X59340000Y-67260000D01*
X60800000Y-71070000D02*
X61262107Y-71070000D01*
X64000000Y-52100000D02*
X64888839Y-52100000D01*
X63050000Y-69282107D02*
X63050000Y-58261161D01*
X62199500Y-57410661D02*
X62199500Y-53900500D01*
X63050000Y-58261161D02*
X62199500Y-57410661D01*
X61262107Y-71070000D02*
X63050000Y-69282107D01*
X62199500Y-53900500D02*
X64000000Y-52100000D01*
X60800000Y-75200000D02*
X60500000Y-75500000D01*
X60800000Y-73610000D02*
X60800000Y-75200000D01*
X60800000Y-72340000D02*
X60800000Y-73610000D01*
X70600000Y-68500000D02*
X71100000Y-69000000D01*
X68000000Y-67600000D02*
X66140000Y-67600000D01*
X71100000Y-69000000D02*
X71100000Y-72800000D01*
X69100000Y-68500000D02*
X70600000Y-68500000D01*
X66140000Y-67600000D02*
X65800000Y-67260000D01*
X68000000Y-67400000D02*
X69100000Y-68500000D01*
X71100000Y-72800000D02*
X70000000Y-73900000D01*
X58637500Y-64062500D02*
X56700000Y-66000000D01*
X56700000Y-66000000D02*
X56600000Y-66000000D01*
X58637500Y-64000000D02*
X58637500Y-64062500D01*
X65062500Y-105437500D02*
X65100000Y-105400000D01*
X65062500Y-107500000D02*
X65062500Y-105437500D01*
X67100000Y-103400000D02*
X65100000Y-105400000D01*
X60800000Y-65990000D02*
X58610000Y-65990000D01*
X58610000Y-65990000D02*
X58600000Y-66000000D01*
X58600000Y-66000000D02*
X56600000Y-68000000D01*
X65800000Y-73610000D02*
X67710000Y-73610000D01*
X70000000Y-71900000D02*
X68000000Y-73900000D01*
X67710000Y-73610000D02*
X68000000Y-73900000D01*
X65800000Y-65990000D02*
X67410000Y-65990000D01*
X67410000Y-65990000D02*
X68000000Y-65400000D01*
X70000000Y-67400000D02*
X70000000Y-67600000D01*
X68000000Y-65400000D02*
X70000000Y-67400000D01*
G04 #@! TA.AperFunction,Conductor*
G36*
X52209012Y-102140726D02*
G01*
X52215590Y-102146849D01*
X52392988Y-102324248D01*
X52522989Y-102454249D01*
X52557014Y-102516561D01*
X52556038Y-102574274D01*
X52535436Y-102655628D01*
X52516844Y-102880000D01*
X52535437Y-103104375D01*
X52590702Y-103322612D01*
X52590703Y-103322613D01*
X52681141Y-103528793D01*
X52804275Y-103717265D01*
X52804279Y-103717270D01*
X52956762Y-103882908D01*
X52968499Y-103892043D01*
X53134424Y-104021189D01*
X53167680Y-104039186D01*
X53218070Y-104089196D01*
X53233423Y-104158513D01*
X53208864Y-104225126D01*
X53167683Y-104260811D01*
X53134430Y-104278807D01*
X53134424Y-104278811D01*
X52956762Y-104417091D01*
X52804279Y-104582729D01*
X52804275Y-104582734D01*
X52681141Y-104771206D01*
X52590703Y-104977386D01*
X52590702Y-104977387D01*
X52535437Y-105195624D01*
X52516844Y-105420000D01*
X52535437Y-105644375D01*
X52590702Y-105862612D01*
X52590703Y-105862613D01*
X52681141Y-106068793D01*
X52804275Y-106257265D01*
X52804279Y-106257270D01*
X52956762Y-106422908D01*
X52990324Y-106449030D01*
X53134424Y-106561189D01*
X53167680Y-106579186D01*
X53218071Y-106629200D01*
X53233423Y-106698516D01*
X53208862Y-106765129D01*
X53167680Y-106800814D01*
X53134426Y-106818810D01*
X53134424Y-106818811D01*
X52956762Y-106957091D01*
X52804279Y-107122729D01*
X52804275Y-107122734D01*
X52681141Y-107311206D01*
X52590703Y-107517386D01*
X52590702Y-107517387D01*
X52535437Y-107735624D01*
X52535437Y-107735627D01*
X52535436Y-107735632D01*
X52516844Y-107960000D01*
X52530883Y-108129426D01*
X52535437Y-108184375D01*
X52590702Y-108402612D01*
X52590703Y-108402613D01*
X52590704Y-108402616D01*
X52665717Y-108573629D01*
X52681141Y-108608793D01*
X52804275Y-108797265D01*
X52804279Y-108797270D01*
X52956762Y-108962908D01*
X52991592Y-108990017D01*
X53134424Y-109101189D01*
X53167680Y-109119186D01*
X53218071Y-109169200D01*
X53233423Y-109238516D01*
X53208862Y-109305129D01*
X53167680Y-109340813D01*
X53134426Y-109358810D01*
X53134424Y-109358811D01*
X52956762Y-109497091D01*
X52804279Y-109662729D01*
X52804275Y-109662734D01*
X52681141Y-109851206D01*
X52590703Y-110057386D01*
X52590702Y-110057387D01*
X52535437Y-110275624D01*
X52516844Y-110499999D01*
X52535437Y-110724375D01*
X52590702Y-110942612D01*
X52590703Y-110942613D01*
X52590704Y-110942616D01*
X52672600Y-111129321D01*
X52681141Y-111148793D01*
X52804275Y-111337265D01*
X52804279Y-111337270D01*
X52956762Y-111502908D01*
X53011331Y-111545381D01*
X53134424Y-111641189D01*
X53167680Y-111659186D01*
X53218071Y-111709200D01*
X53233423Y-111778516D01*
X53208862Y-111845129D01*
X53167680Y-111880813D01*
X53134426Y-111898810D01*
X53134424Y-111898811D01*
X52956762Y-112037091D01*
X52804279Y-112202729D01*
X52804275Y-112202734D01*
X52681141Y-112391206D01*
X52590703Y-112597386D01*
X52590702Y-112597387D01*
X52535437Y-112815624D01*
X52535436Y-112815630D01*
X52535436Y-112815632D01*
X52516844Y-113040000D01*
X52532919Y-113233998D01*
X52535437Y-113264375D01*
X52590702Y-113482612D01*
X52590703Y-113482613D01*
X52681141Y-113688793D01*
X52804275Y-113877265D01*
X52804279Y-113877270D01*
X52956762Y-114042908D01*
X52996232Y-114073629D01*
X53134424Y-114181189D01*
X53165370Y-114197936D01*
X53167680Y-114199186D01*
X53218071Y-114249200D01*
X53233423Y-114318516D01*
X53208862Y-114385129D01*
X53167680Y-114420813D01*
X53134426Y-114438810D01*
X53134424Y-114438811D01*
X52956762Y-114577091D01*
X52804279Y-114742729D01*
X52804275Y-114742734D01*
X52681141Y-114931206D01*
X52590703Y-115137386D01*
X52590702Y-115137387D01*
X52535437Y-115355624D01*
X52535436Y-115355630D01*
X52535436Y-115355632D01*
X52516844Y-115580000D01*
X52534915Y-115798084D01*
X52535437Y-115804375D01*
X52590702Y-116022612D01*
X52590703Y-116022613D01*
X52590704Y-116022616D01*
X52681035Y-116228551D01*
X52681141Y-116228793D01*
X52804275Y-116417265D01*
X52804280Y-116417270D01*
X52947475Y-116572820D01*
X52978896Y-116636485D01*
X52970909Y-116707031D01*
X52926051Y-116762060D01*
X52898807Y-116776213D01*
X52783797Y-116819110D01*
X52783792Y-116819112D01*
X52666738Y-116906738D01*
X52579112Y-117023792D01*
X52579110Y-117023797D01*
X52528011Y-117160795D01*
X52528009Y-117160803D01*
X52521500Y-117221350D01*
X52521500Y-119018649D01*
X52528009Y-119079196D01*
X52528011Y-119079204D01*
X52579110Y-119216202D01*
X52579112Y-119216207D01*
X52666738Y-119333261D01*
X52783792Y-119420887D01*
X52783794Y-119420888D01*
X52783796Y-119420889D01*
X52838900Y-119441442D01*
X52920795Y-119471988D01*
X52920803Y-119471990D01*
X52981350Y-119478499D01*
X52981355Y-119478499D01*
X52981362Y-119478500D01*
X52981368Y-119478500D01*
X54778632Y-119478500D01*
X54778638Y-119478500D01*
X54778645Y-119478499D01*
X54778649Y-119478499D01*
X54839196Y-119471990D01*
X54839199Y-119471989D01*
X54839201Y-119471989D01*
X54976204Y-119420889D01*
X55093261Y-119333261D01*
X55100224Y-119323959D01*
X55157057Y-119281411D01*
X55227873Y-119276343D01*
X55240717Y-119279857D01*
X55370574Y-119322887D01*
X55474455Y-119333500D01*
X56250544Y-119333499D01*
X56354426Y-119322887D01*
X56522738Y-119267115D01*
X56673652Y-119174030D01*
X56799030Y-119048652D01*
X56799037Y-119048639D01*
X56801478Y-119045554D01*
X56803709Y-119043973D01*
X56804220Y-119043463D01*
X56804307Y-119043550D01*
X56859416Y-119004521D01*
X56930340Y-119001324D01*
X56991734Y-119036980D01*
X56999161Y-119045551D01*
X57001369Y-119048344D01*
X57126654Y-119173629D01*
X57126660Y-119173634D01*
X57277474Y-119266657D01*
X57445678Y-119322393D01*
X57445681Y-119322394D01*
X57549483Y-119332999D01*
X57549483Y-119333000D01*
X57683500Y-119333000D01*
X57683500Y-118354000D01*
X58191500Y-118354000D01*
X58191500Y-119333000D01*
X58325517Y-119333000D01*
X58325516Y-119332999D01*
X58429318Y-119322394D01*
X58429321Y-119322393D01*
X58597525Y-119266657D01*
X58748339Y-119173634D01*
X58748345Y-119173629D01*
X58873629Y-119048345D01*
X58873634Y-119048339D01*
X58966657Y-118897525D01*
X59022393Y-118729321D01*
X59022394Y-118729318D01*
X59032999Y-118625516D01*
X59033000Y-118625516D01*
X59033000Y-118354000D01*
X58191500Y-118354000D01*
X57683500Y-118354000D01*
X57683500Y-115854000D01*
X58191500Y-115854000D01*
X58191500Y-117846000D01*
X59033000Y-117846000D01*
X63967000Y-117846000D01*
X64808500Y-117846000D01*
X64808500Y-116867000D01*
X64674483Y-116867000D01*
X64570681Y-116877605D01*
X64570678Y-116877606D01*
X64402474Y-116933342D01*
X64251660Y-117026365D01*
X64251654Y-117026370D01*
X64126370Y-117151654D01*
X64126365Y-117151660D01*
X64033342Y-117302474D01*
X63977606Y-117470678D01*
X63977605Y-117470681D01*
X63967000Y-117574483D01*
X63967000Y-117846000D01*
X59033000Y-117846000D01*
X59033000Y-117574483D01*
X59022394Y-117470681D01*
X59022393Y-117470678D01*
X58966657Y-117302474D01*
X58873634Y-117151660D01*
X58873629Y-117151654D01*
X58748345Y-117026370D01*
X58748339Y-117026365D01*
X58636270Y-116957241D01*
X58588792Y-116904455D01*
X58577389Y-116834381D01*
X58605681Y-116769265D01*
X58636270Y-116742759D01*
X58748339Y-116673634D01*
X58748345Y-116673629D01*
X58873629Y-116548345D01*
X58873634Y-116548339D01*
X58966657Y-116397525D01*
X59022393Y-116229321D01*
X59022394Y-116229318D01*
X59032999Y-116125516D01*
X59033000Y-116125516D01*
X59033000Y-115854000D01*
X58191500Y-115854000D01*
X57683500Y-115854000D01*
X57683500Y-115472000D01*
X57703502Y-115403879D01*
X57757158Y-115357386D01*
X57809500Y-115346000D01*
X59033000Y-115346000D01*
X59033000Y-115074483D01*
X59022394Y-114970681D01*
X59022393Y-114970678D01*
X58966657Y-114802474D01*
X58873634Y-114651660D01*
X58873629Y-114651654D01*
X58748345Y-114526370D01*
X58748339Y-114526365D01*
X58597521Y-114433340D01*
X58574817Y-114425817D01*
X58516446Y-114385403D01*
X58489190Y-114319847D01*
X58501703Y-114249962D01*
X58550013Y-114197936D01*
X58574817Y-114186608D01*
X58635025Y-114166657D01*
X58785839Y-114073634D01*
X58785845Y-114073629D01*
X58911129Y-113948345D01*
X58911134Y-113948339D01*
X59004157Y-113797525D01*
X59059893Y-113629321D01*
X59059894Y-113629318D01*
X59070499Y-113525516D01*
X59070500Y-113525516D01*
X59070500Y-113254000D01*
X63967000Y-113254000D01*
X63967000Y-113525516D01*
X63977605Y-113629318D01*
X63977606Y-113629321D01*
X64033342Y-113797525D01*
X64126365Y-113948339D01*
X64126370Y-113948345D01*
X64251654Y-114073629D01*
X64251660Y-114073634D01*
X64402474Y-114166657D01*
X64570678Y-114222393D01*
X64570681Y-114222394D01*
X64674483Y-114232999D01*
X64674483Y-114233000D01*
X64808500Y-114233000D01*
X64808500Y-113254000D01*
X63967000Y-113254000D01*
X59070500Y-113254000D01*
X57847000Y-113254000D01*
X57778879Y-113233998D01*
X57732386Y-113180342D01*
X57721000Y-113128000D01*
X57721000Y-112746000D01*
X58229000Y-112746000D01*
X59070500Y-112746000D01*
X59070500Y-112474483D01*
X59059894Y-112370681D01*
X59059893Y-112370678D01*
X59004157Y-112202474D01*
X58911134Y-112051660D01*
X58911129Y-112051654D01*
X58785845Y-111926370D01*
X58785839Y-111926365D01*
X58705020Y-111876516D01*
X58657542Y-111823730D01*
X58646139Y-111753655D01*
X58674431Y-111688540D01*
X58705021Y-111662034D01*
X58848336Y-111573636D01*
X58848345Y-111573629D01*
X58973629Y-111448345D01*
X58973634Y-111448339D01*
X59066657Y-111297525D01*
X59122393Y-111129321D01*
X59122394Y-111129318D01*
X59132999Y-111025516D01*
X59133000Y-111025516D01*
X59133000Y-110754000D01*
X58291500Y-110754000D01*
X58291500Y-111658309D01*
X58271498Y-111726430D01*
X58254595Y-111747404D01*
X58229000Y-111772999D01*
X58229000Y-112746000D01*
X57721000Y-112746000D01*
X57721000Y-111841691D01*
X57741002Y-111773570D01*
X57757905Y-111752596D01*
X57783500Y-111727001D01*
X57783500Y-109596961D01*
X57803502Y-109528840D01*
X57817645Y-109510713D01*
X57836972Y-109490133D01*
X57847303Y-109471339D01*
X57858151Y-109454823D01*
X57871304Y-109437869D01*
X57890845Y-109392710D01*
X57893428Y-109387438D01*
X57917124Y-109344337D01*
X57922460Y-109323549D01*
X57928857Y-109304869D01*
X57937379Y-109285177D01*
X57940257Y-109267000D01*
X58291500Y-109267000D01*
X58291500Y-110246000D01*
X59133000Y-110246000D01*
X59133000Y-109974483D01*
X59122394Y-109870681D01*
X59122393Y-109870678D01*
X59066657Y-109702474D01*
X58973634Y-109551660D01*
X58973629Y-109551654D01*
X58848345Y-109426370D01*
X58848339Y-109426365D01*
X58697525Y-109333342D01*
X58529321Y-109277606D01*
X58529318Y-109277605D01*
X58425516Y-109267000D01*
X58291500Y-109267000D01*
X57940257Y-109267000D01*
X57945072Y-109236596D01*
X57946271Y-109230811D01*
X57958500Y-109183188D01*
X57958500Y-109161742D01*
X57960051Y-109142031D01*
X57960793Y-109137348D01*
X57963406Y-109120849D01*
X57958778Y-109071894D01*
X57958499Y-109065996D01*
X57958499Y-105056449D01*
X57978501Y-104988329D01*
X58032157Y-104941836D01*
X58102431Y-104931732D01*
X58167011Y-104961226D01*
X58173594Y-104967355D01*
X61991948Y-108785709D01*
X64758253Y-111552013D01*
X64792279Y-111614325D01*
X64787214Y-111685140D01*
X64744667Y-111741976D01*
X64678147Y-111766787D01*
X64675566Y-111766945D01*
X64674480Y-111767000D01*
X64570681Y-111777605D01*
X64570678Y-111777606D01*
X64402474Y-111833342D01*
X64251660Y-111926365D01*
X64251654Y-111926370D01*
X64126370Y-112051654D01*
X64126365Y-112051660D01*
X64033342Y-112202474D01*
X63977606Y-112370678D01*
X63977605Y-112370681D01*
X63967000Y-112474483D01*
X63967000Y-112746000D01*
X65190500Y-112746000D01*
X65258621Y-112766002D01*
X65305114Y-112819658D01*
X65316500Y-112872000D01*
X65316500Y-114233000D01*
X65450517Y-114233000D01*
X65450516Y-114232999D01*
X65554318Y-114222394D01*
X65554321Y-114222393D01*
X65722525Y-114166657D01*
X65873339Y-114073634D01*
X65873345Y-114073629D01*
X65998624Y-113948350D01*
X66000832Y-113945558D01*
X66002837Y-113944137D01*
X66003825Y-113943150D01*
X66003993Y-113943318D01*
X66058768Y-113904522D01*
X66129693Y-113901323D01*
X66191088Y-113936976D01*
X66198515Y-113945547D01*
X66200974Y-113948657D01*
X66326341Y-114074024D01*
X66326347Y-114074029D01*
X66326348Y-114074030D01*
X66477262Y-114167115D01*
X66645574Y-114222887D01*
X66749455Y-114233500D01*
X67525544Y-114233499D01*
X67629426Y-114222887D01*
X67797738Y-114167115D01*
X67948652Y-114074030D01*
X67999900Y-114022781D01*
X68062210Y-113988758D01*
X68133025Y-113993822D01*
X68181695Y-114026541D01*
X68196760Y-114042906D01*
X68374424Y-114181189D01*
X68408205Y-114199470D01*
X68458596Y-114249482D01*
X68473949Y-114318799D01*
X68449389Y-114385412D01*
X68408208Y-114421097D01*
X68374700Y-114439230D01*
X68354310Y-114455099D01*
X68354310Y-114455100D01*
X68862572Y-114963361D01*
X68896597Y-115025674D01*
X68891533Y-115096489D01*
X68852854Y-115148157D01*
X68853711Y-115149147D01*
X68849164Y-115153086D01*
X68848986Y-115153325D01*
X68848498Y-115153663D01*
X68738238Y-115249202D01*
X68702175Y-115305318D01*
X68648519Y-115351811D01*
X68578245Y-115361914D01*
X68513664Y-115332421D01*
X68507082Y-115326292D01*
X67996922Y-114816132D01*
X67921580Y-114931451D01*
X67831179Y-115137543D01*
X67831176Y-115137550D01*
X67775932Y-115355707D01*
X67757346Y-115579999D01*
X67775932Y-115804292D01*
X67831176Y-116022449D01*
X67831179Y-116022456D01*
X67921580Y-116228548D01*
X67996922Y-116343866D01*
X68507081Y-115833706D01*
X68569394Y-115799681D01*
X68640209Y-115804745D01*
X68697045Y-115847292D01*
X68702162Y-115854661D01*
X68738239Y-115910798D01*
X68846900Y-116004952D01*
X68846901Y-116004952D01*
X68853711Y-116010853D01*
X68851686Y-116013189D01*
X68888084Y-116055187D01*
X68898195Y-116125460D01*
X68868709Y-116190043D01*
X68862572Y-116196636D01*
X68354310Y-116704898D01*
X68374694Y-116720763D01*
X68374700Y-116720768D01*
X68408206Y-116738900D01*
X68458597Y-116788913D01*
X68473949Y-116858230D01*
X68449389Y-116924843D01*
X68408209Y-116960526D01*
X68374430Y-116978806D01*
X68374416Y-116978816D01*
X68196291Y-117117458D01*
X68130249Y-117143515D01*
X68060603Y-117129730D01*
X68029805Y-117107122D01*
X67948658Y-117025975D01*
X67948652Y-117025970D01*
X67945121Y-117023792D01*
X67797738Y-116932885D01*
X67711940Y-116904455D01*
X67629427Y-116877113D01*
X67629420Y-116877112D01*
X67525553Y-116866500D01*
X66749455Y-116866500D01*
X66645574Y-116877112D01*
X66477261Y-116932885D01*
X66326347Y-117025970D01*
X66326341Y-117025975D01*
X66200971Y-117151345D01*
X66198511Y-117154457D01*
X66196281Y-117156035D01*
X66195780Y-117156537D01*
X66195694Y-117156451D01*
X66140568Y-117195483D01*
X66069643Y-117198671D01*
X66008254Y-117163008D01*
X66000837Y-117154446D01*
X65998632Y-117151657D01*
X65873345Y-117026370D01*
X65873339Y-117026365D01*
X65722525Y-116933342D01*
X65554321Y-116877606D01*
X65554318Y-116877605D01*
X65450516Y-116867000D01*
X65316500Y-116867000D01*
X65316500Y-118228000D01*
X65296498Y-118296121D01*
X65242842Y-118342614D01*
X65190500Y-118354000D01*
X63967000Y-118354000D01*
X63967000Y-118625516D01*
X63977605Y-118729318D01*
X63977606Y-118729321D01*
X64033342Y-118897525D01*
X64126365Y-119048339D01*
X64126370Y-119048345D01*
X64251654Y-119173629D01*
X64251660Y-119173634D01*
X64404856Y-119268126D01*
X64452334Y-119320912D01*
X64463737Y-119390987D01*
X64435445Y-119456102D01*
X64427804Y-119464462D01*
X61187659Y-122704607D01*
X61125347Y-122738633D01*
X61054532Y-122733568D01*
X60959201Y-122698011D01*
X60959199Y-122698010D01*
X60959197Y-122698010D01*
X60959196Y-122698009D01*
X60898649Y-122691500D01*
X60898638Y-122691500D01*
X60201362Y-122691500D01*
X60201350Y-122691500D01*
X60140803Y-122698009D01*
X60140795Y-122698011D01*
X60003797Y-122749110D01*
X60003792Y-122749112D01*
X59886740Y-122836737D01*
X59812346Y-122936115D01*
X59755509Y-122978661D01*
X59684694Y-122983725D01*
X59622383Y-122949700D01*
X59548658Y-122875975D01*
X59548652Y-122875970D01*
X59548652Y-122875969D01*
X59397738Y-122782885D01*
X59264192Y-122738633D01*
X59229427Y-122727113D01*
X59229420Y-122727112D01*
X59125553Y-122716500D01*
X58074455Y-122716500D01*
X57970574Y-122727112D01*
X57802261Y-122782885D01*
X57651347Y-122875970D01*
X57651341Y-122875975D01*
X57525975Y-123001341D01*
X57525970Y-123001347D01*
X57432885Y-123152262D01*
X57377113Y-123320572D01*
X57377112Y-123320579D01*
X57366500Y-123424446D01*
X57366500Y-124200544D01*
X57377112Y-124304425D01*
X57432885Y-124472738D01*
X57525970Y-124623652D01*
X57525975Y-124623658D01*
X57651345Y-124749028D01*
X57654450Y-124751483D01*
X57656027Y-124753710D01*
X57656537Y-124754220D01*
X57656449Y-124754307D01*
X57695481Y-124809422D01*
X57698673Y-124880347D01*
X57663014Y-124941739D01*
X57654454Y-124949157D01*
X57651654Y-124951370D01*
X57526370Y-125076654D01*
X57526365Y-125076660D01*
X57433342Y-125227474D01*
X57377606Y-125395678D01*
X57377605Y-125395681D01*
X57367000Y-125499483D01*
X57367000Y-125633500D01*
X58728000Y-125633500D01*
X58796121Y-125653502D01*
X58842614Y-125707158D01*
X58854000Y-125759500D01*
X58854000Y-126983000D01*
X59125517Y-126983000D01*
X59125516Y-126982999D01*
X59229318Y-126972394D01*
X59229327Y-126972392D01*
X59388365Y-126919692D01*
X59459320Y-126917251D01*
X59520330Y-126953559D01*
X59552026Y-127017087D01*
X59553999Y-127039294D01*
X59554000Y-127121125D01*
X59533999Y-127189246D01*
X59517095Y-127210222D01*
X59425975Y-127301341D01*
X59425970Y-127301347D01*
X59376441Y-127381647D01*
X59323655Y-127429125D01*
X59269200Y-127441500D01*
X55044033Y-127441500D01*
X54977885Y-127422740D01*
X54952278Y-127406945D01*
X54904800Y-127354159D01*
X54893398Y-127284084D01*
X54921691Y-127218968D01*
X54952280Y-127192464D01*
X55023336Y-127148636D01*
X55023345Y-127148629D01*
X55148629Y-127023345D01*
X55148634Y-127023339D01*
X55241657Y-126872525D01*
X55297393Y-126704321D01*
X55297394Y-126704318D01*
X55307999Y-126600516D01*
X55308000Y-126600516D01*
X55308000Y-126141500D01*
X57367000Y-126141500D01*
X57367000Y-126275516D01*
X57377605Y-126379318D01*
X57377606Y-126379321D01*
X57433342Y-126547525D01*
X57526365Y-126698339D01*
X57526370Y-126698345D01*
X57651654Y-126823629D01*
X57651660Y-126823634D01*
X57802474Y-126916657D01*
X57970678Y-126972393D01*
X57970681Y-126972394D01*
X58074483Y-126982999D01*
X58074483Y-126983000D01*
X58346000Y-126983000D01*
X58346000Y-126141500D01*
X57367000Y-126141500D01*
X55308000Y-126141500D01*
X55308000Y-125754000D01*
X52692000Y-125754000D01*
X52692000Y-126600516D01*
X52702605Y-126704318D01*
X52702606Y-126704321D01*
X52758342Y-126872525D01*
X52851365Y-127023339D01*
X52851370Y-127023345D01*
X52976654Y-127148629D01*
X52976663Y-127148636D01*
X53047720Y-127192464D01*
X53095199Y-127245249D01*
X53106602Y-127315324D01*
X53078310Y-127380440D01*
X53047722Y-127406945D01*
X52976350Y-127450968D01*
X52976341Y-127450975D01*
X52850975Y-127576341D01*
X52850970Y-127576347D01*
X52757885Y-127727262D01*
X52702113Y-127895572D01*
X52702112Y-127895579D01*
X52691500Y-127999446D01*
X52691500Y-130200544D01*
X52702112Y-130304425D01*
X52757885Y-130472738D01*
X52850970Y-130623652D01*
X52850975Y-130623658D01*
X52976341Y-130749024D01*
X52976347Y-130749029D01*
X52976348Y-130749030D01*
X53127262Y-130842115D01*
X53158450Y-130852449D01*
X53216821Y-130892860D01*
X53244078Y-130958416D01*
X53238651Y-131010989D01*
X53206457Y-131110070D01*
X53186496Y-131300000D01*
X53206457Y-131489927D01*
X53218991Y-131528500D01*
X53265473Y-131671556D01*
X53265476Y-131671561D01*
X53360958Y-131836941D01*
X53360965Y-131836951D01*
X53488744Y-131978864D01*
X53488747Y-131978866D01*
X53643248Y-132091118D01*
X53817712Y-132168794D01*
X54004513Y-132208500D01*
X54195487Y-132208500D01*
X54382288Y-132168794D01*
X54556752Y-132091118D01*
X54711253Y-131978866D01*
X54755719Y-131929482D01*
X54839034Y-131836951D01*
X54839035Y-131836949D01*
X54839040Y-131836944D01*
X54934527Y-131671556D01*
X54993542Y-131489928D01*
X55013504Y-131300000D01*
X54993542Y-131110072D01*
X54934527Y-130928444D01*
X54934525Y-130928442D01*
X54932486Y-130922164D01*
X54934535Y-130921498D01*
X54926437Y-130861096D01*
X54956544Y-130796799D01*
X54984830Y-130772975D01*
X55023652Y-130749030D01*
X55149030Y-130623652D01*
X55242115Y-130472738D01*
X55297887Y-130304426D01*
X55308500Y-130200545D01*
X55308499Y-129184499D01*
X55328501Y-129116379D01*
X55382157Y-129069886D01*
X55434499Y-129058500D01*
X59269200Y-129058500D01*
X59337321Y-129078502D01*
X59376440Y-129118352D01*
X59425970Y-129198652D01*
X59517096Y-129289778D01*
X59551120Y-129352088D01*
X59554000Y-129378872D01*
X59554000Y-129517543D01*
X59533998Y-129585664D01*
X59505391Y-129616974D01*
X59376766Y-129717088D01*
X59376761Y-129717092D01*
X59376760Y-129717094D01*
X59344299Y-129752355D01*
X59224279Y-129882729D01*
X59224275Y-129882734D01*
X59101141Y-130071206D01*
X59010703Y-130277386D01*
X59010702Y-130277387D01*
X58955437Y-130495624D01*
X58955436Y-130495630D01*
X58955436Y-130495632D01*
X58936844Y-130720000D01*
X58954116Y-130928444D01*
X58955437Y-130944375D01*
X59010702Y-131162612D01*
X59010703Y-131162613D01*
X59101141Y-131368793D01*
X59224275Y-131557265D01*
X59224279Y-131557270D01*
X59376762Y-131722908D01*
X59431331Y-131765381D01*
X59554424Y-131861189D01*
X59588205Y-131879470D01*
X59638596Y-131929482D01*
X59653949Y-131998799D01*
X59629389Y-132065412D01*
X59588208Y-132101097D01*
X59554700Y-132119230D01*
X59534310Y-132135099D01*
X59534310Y-132135100D01*
X60042572Y-132643361D01*
X60076597Y-132705674D01*
X60071533Y-132776489D01*
X60032854Y-132828157D01*
X60033711Y-132829147D01*
X60029164Y-132833086D01*
X60028986Y-132833325D01*
X60028498Y-132833663D01*
X59918238Y-132929202D01*
X59882175Y-132985318D01*
X59828519Y-133031811D01*
X59758245Y-133041914D01*
X59693664Y-133012421D01*
X59687082Y-133006292D01*
X59176922Y-132496132D01*
X59101580Y-132611451D01*
X59011179Y-132817543D01*
X59011176Y-132817550D01*
X58955932Y-133035707D01*
X58937346Y-133260000D01*
X58955932Y-133484292D01*
X59011176Y-133702449D01*
X59011179Y-133702456D01*
X59101580Y-133908548D01*
X59176922Y-134023866D01*
X59687081Y-133513706D01*
X59749394Y-133479681D01*
X59820209Y-133484745D01*
X59877045Y-133527292D01*
X59882162Y-133534661D01*
X59918239Y-133590798D01*
X60026900Y-133684952D01*
X60026901Y-133684952D01*
X60033711Y-133690853D01*
X60031686Y-133693189D01*
X60068084Y-133735187D01*
X60078195Y-133805460D01*
X60048709Y-133870043D01*
X60042572Y-133876636D01*
X59534310Y-134384898D01*
X59554694Y-134400763D01*
X59554696Y-134400765D01*
X59588733Y-134419185D01*
X59639123Y-134469199D01*
X59654475Y-134538516D01*
X59629914Y-134605129D01*
X59588735Y-134640811D01*
X59554702Y-134659229D01*
X59534310Y-134675099D01*
X59534310Y-134675100D01*
X60042572Y-135183361D01*
X60076597Y-135245674D01*
X60071533Y-135316489D01*
X60032854Y-135368157D01*
X60033711Y-135369147D01*
X60029164Y-135373086D01*
X60028986Y-135373325D01*
X60028498Y-135373663D01*
X59918238Y-135469202D01*
X59882175Y-135525318D01*
X59828519Y-135571811D01*
X59758245Y-135581914D01*
X59693664Y-135552421D01*
X59687082Y-135546292D01*
X59176922Y-135036132D01*
X59101580Y-135151451D01*
X59011179Y-135357543D01*
X59011176Y-135357550D01*
X58955932Y-135575707D01*
X58937346Y-135799999D01*
X58955932Y-136024292D01*
X59011176Y-136242449D01*
X59011179Y-136242456D01*
X59101580Y-136448548D01*
X59176922Y-136563866D01*
X59687081Y-136053706D01*
X59749394Y-136019681D01*
X59820209Y-136024745D01*
X59877045Y-136067292D01*
X59882162Y-136074661D01*
X59918239Y-136130798D01*
X60026900Y-136224952D01*
X60026901Y-136224952D01*
X60033711Y-136230853D01*
X60031686Y-136233189D01*
X60068084Y-136275187D01*
X60078195Y-136345460D01*
X60048709Y-136410043D01*
X60042572Y-136416636D01*
X59534310Y-136924898D01*
X59554694Y-136940763D01*
X59554696Y-136940765D01*
X59588733Y-136959185D01*
X59639123Y-137009199D01*
X59654475Y-137078516D01*
X59629914Y-137145129D01*
X59588735Y-137180811D01*
X59554702Y-137199229D01*
X59534310Y-137215099D01*
X59534310Y-137215100D01*
X60042572Y-137723361D01*
X60076597Y-137785674D01*
X60071533Y-137856489D01*
X60032854Y-137908157D01*
X60033711Y-137909147D01*
X60029164Y-137913086D01*
X60028986Y-137913325D01*
X60028498Y-137913663D01*
X59918238Y-138009202D01*
X59882175Y-138065318D01*
X59828519Y-138111811D01*
X59758245Y-138121914D01*
X59693664Y-138092421D01*
X59687082Y-138086292D01*
X59176922Y-137576132D01*
X59101580Y-137691451D01*
X59011179Y-137897543D01*
X59011176Y-137897550D01*
X58955932Y-138115707D01*
X58937346Y-138340000D01*
X58955932Y-138564292D01*
X59011176Y-138782449D01*
X59011179Y-138782456D01*
X59101580Y-138988548D01*
X59176922Y-139103866D01*
X59687081Y-138593706D01*
X59749394Y-138559681D01*
X59820209Y-138564745D01*
X59877045Y-138607292D01*
X59882162Y-138614661D01*
X59918239Y-138670798D01*
X60026900Y-138764952D01*
X60026901Y-138764952D01*
X60033711Y-138770853D01*
X60031686Y-138773189D01*
X60068084Y-138815187D01*
X60078195Y-138885460D01*
X60048709Y-138950043D01*
X60042572Y-138956636D01*
X59524054Y-139475153D01*
X59516866Y-139506765D01*
X59466194Y-139556493D01*
X59446486Y-139564946D01*
X59377264Y-139587884D01*
X59226347Y-139680970D01*
X59226341Y-139680975D01*
X59100975Y-139806341D01*
X59100970Y-139806347D01*
X59007885Y-139957262D01*
X58952113Y-140125572D01*
X58952112Y-140125579D01*
X58941500Y-140229446D01*
X58941500Y-141530544D01*
X58952112Y-141634425D01*
X59007885Y-141802738D01*
X59100970Y-141953652D01*
X59100975Y-141953658D01*
X59226341Y-142079024D01*
X59226347Y-142079029D01*
X59226348Y-142079030D01*
X59377262Y-142172115D01*
X59545574Y-142227887D01*
X59649455Y-142238500D01*
X60950544Y-142238499D01*
X61054426Y-142227887D01*
X61222738Y-142172115D01*
X61373652Y-142079030D01*
X61499030Y-141953652D01*
X61592115Y-141802738D01*
X61592118Y-141802728D01*
X61595217Y-141796086D01*
X61597126Y-141796976D01*
X61631581Y-141747200D01*
X61697135Y-141719936D01*
X61767021Y-141732442D01*
X61803483Y-141759857D01*
X61842959Y-141802738D01*
X61916760Y-141882906D01*
X62094424Y-142021189D01*
X62292426Y-142128342D01*
X62292427Y-142128342D01*
X62292428Y-142128343D01*
X62404227Y-142166723D01*
X62505365Y-142201444D01*
X62727431Y-142238500D01*
X62727435Y-142238500D01*
X62952565Y-142238500D01*
X62952569Y-142238500D01*
X63174635Y-142201444D01*
X63387574Y-142128342D01*
X63585576Y-142021189D01*
X63763240Y-141882906D01*
X63915722Y-141717268D01*
X64038860Y-141528791D01*
X64129296Y-141322616D01*
X64184564Y-141104368D01*
X64203156Y-140880000D01*
X64191161Y-140735251D01*
X64205469Y-140665715D01*
X64227633Y-140635757D01*
X69603803Y-135259589D01*
X69603802Y-135259588D01*
X69636106Y-135227286D01*
X69636106Y-135227285D01*
X69636111Y-135227281D01*
X69658544Y-135191577D01*
X69662617Y-135185835D01*
X69688909Y-135152869D01*
X69707203Y-135114877D01*
X69710616Y-135108705D01*
X69716363Y-135099560D01*
X69733043Y-135073015D01*
X69746967Y-135033218D01*
X69749671Y-135026694D01*
X69767959Y-134988720D01*
X69777339Y-134947616D01*
X69779290Y-134940844D01*
X69793217Y-134901047D01*
X69797935Y-134859162D01*
X69799115Y-134852213D01*
X69808501Y-134811096D01*
X69808501Y-134628903D01*
X69808501Y-134625547D01*
X69808500Y-134625525D01*
X69808500Y-131650397D01*
X69825381Y-131587397D01*
X69825564Y-131587078D01*
X69834527Y-131571556D01*
X69893542Y-131389928D01*
X69913504Y-131200000D01*
X69893542Y-131010072D01*
X69848141Y-130870346D01*
X69846114Y-130799382D01*
X69882776Y-130738583D01*
X69901820Y-130724176D01*
X70023652Y-130649030D01*
X70149030Y-130523652D01*
X70242115Y-130372738D01*
X70297887Y-130204426D01*
X70308500Y-130100545D01*
X70308499Y-127899456D01*
X70308102Y-127895574D01*
X70297887Y-127795574D01*
X70274321Y-127724456D01*
X70242115Y-127627262D01*
X70149030Y-127476348D01*
X70149029Y-127476347D01*
X70149024Y-127476341D01*
X70023658Y-127350975D01*
X70023652Y-127350970D01*
X69952278Y-127306946D01*
X69904800Y-127254160D01*
X69893397Y-127184085D01*
X69921690Y-127118969D01*
X69952280Y-127092463D01*
X70023338Y-127048634D01*
X70023345Y-127048629D01*
X70148629Y-126923345D01*
X70148634Y-126923339D01*
X70241657Y-126772525D01*
X70297393Y-126604321D01*
X70297394Y-126604318D01*
X70307999Y-126500516D01*
X70308000Y-126500516D01*
X70308000Y-125654000D01*
X67692000Y-125654000D01*
X67692000Y-126500516D01*
X67702605Y-126604318D01*
X67702606Y-126604321D01*
X67758342Y-126772525D01*
X67851365Y-126923339D01*
X67851370Y-126923345D01*
X67976654Y-127048629D01*
X67976663Y-127048636D01*
X68047720Y-127092464D01*
X68095199Y-127145249D01*
X68106602Y-127215324D01*
X68078310Y-127280440D01*
X68047722Y-127306945D01*
X67976350Y-127350968D01*
X67976341Y-127350975D01*
X67850975Y-127476341D01*
X67850970Y-127476347D01*
X67757885Y-127627262D01*
X67702113Y-127795572D01*
X67702112Y-127795579D01*
X67691500Y-127899446D01*
X67691500Y-130100544D01*
X67702112Y-130204425D01*
X67757885Y-130372738D01*
X67850970Y-130523652D01*
X67850975Y-130523658D01*
X67976341Y-130649024D01*
X67976347Y-130649029D01*
X67976348Y-130649030D01*
X68098171Y-130724171D01*
X68145649Y-130776957D01*
X68157052Y-130847032D01*
X68151857Y-130870348D01*
X68106457Y-131010071D01*
X68086496Y-131200000D01*
X68106457Y-131389927D01*
X68165472Y-131571554D01*
X68165475Y-131571559D01*
X68174619Y-131587397D01*
X68191500Y-131650397D01*
X68191500Y-134332917D01*
X68171498Y-134401038D01*
X68154595Y-134422012D01*
X64396743Y-138179862D01*
X64334431Y-138213888D01*
X64263615Y-138208823D01*
X64206780Y-138166276D01*
X64187141Y-138120313D01*
X64185349Y-138120767D01*
X64128823Y-137897550D01*
X64128820Y-137897543D01*
X64038422Y-137691456D01*
X64038417Y-137691448D01*
X63963076Y-137576132D01*
X63452916Y-138086292D01*
X63390604Y-138120317D01*
X63319788Y-138115252D01*
X63262953Y-138072705D01*
X63257836Y-138065336D01*
X63221761Y-138009202D01*
X63113100Y-137915048D01*
X63113098Y-137915047D01*
X63106289Y-137909147D01*
X63108312Y-137906811D01*
X63071912Y-137864809D01*
X63061802Y-137794536D01*
X63091290Y-137729952D01*
X63097426Y-137723361D01*
X63605688Y-137215099D01*
X63585306Y-137199235D01*
X63585299Y-137199230D01*
X63551265Y-137180812D01*
X63500876Y-137130798D01*
X63485524Y-137061481D01*
X63510086Y-136994869D01*
X63551269Y-136959184D01*
X63585299Y-136940768D01*
X63585302Y-136940766D01*
X63605688Y-136924898D01*
X63097427Y-136416638D01*
X63063402Y-136354325D01*
X63068466Y-136283510D01*
X63107145Y-136231840D01*
X63106289Y-136230853D01*
X63110830Y-136226917D01*
X63111013Y-136226674D01*
X63111510Y-136226328D01*
X63113095Y-136224953D01*
X63113100Y-136224952D01*
X63221761Y-136130798D01*
X63257824Y-136074681D01*
X63311478Y-136028189D01*
X63381752Y-136018084D01*
X63446333Y-136047576D01*
X63452918Y-136053707D01*
X63963077Y-136563866D01*
X64038419Y-136448551D01*
X64128820Y-136242456D01*
X64128823Y-136242449D01*
X64184067Y-136024292D01*
X64202653Y-135800000D01*
X64184067Y-135575707D01*
X64128823Y-135357550D01*
X64128820Y-135357543D01*
X64038422Y-135151456D01*
X64038417Y-135151448D01*
X63963076Y-135036132D01*
X63452916Y-135546292D01*
X63390604Y-135580317D01*
X63319788Y-135575252D01*
X63262953Y-135532705D01*
X63257836Y-135525336D01*
X63221761Y-135469202D01*
X63113100Y-135375048D01*
X63113098Y-135375047D01*
X63106289Y-135369147D01*
X63108312Y-135366811D01*
X63071912Y-135324809D01*
X63061802Y-135254536D01*
X63091290Y-135189952D01*
X63097426Y-135183361D01*
X63605688Y-134675099D01*
X63585306Y-134659235D01*
X63585299Y-134659230D01*
X63551265Y-134640812D01*
X63500876Y-134590798D01*
X63485524Y-134521481D01*
X63510086Y-134454869D01*
X63551269Y-134419184D01*
X63585299Y-134400768D01*
X63585302Y-134400766D01*
X63605688Y-134384898D01*
X63097427Y-133876638D01*
X63063402Y-133814325D01*
X63068466Y-133743510D01*
X63107145Y-133691840D01*
X63106289Y-133690853D01*
X63110830Y-133686917D01*
X63111013Y-133686674D01*
X63111510Y-133686328D01*
X63113095Y-133684953D01*
X63113100Y-133684952D01*
X63221761Y-133590798D01*
X63257824Y-133534681D01*
X63311478Y-133488189D01*
X63381752Y-133478084D01*
X63446333Y-133507576D01*
X63452918Y-133513707D01*
X63963077Y-134023866D01*
X64038419Y-133908551D01*
X64128820Y-133702456D01*
X64128823Y-133702449D01*
X64184067Y-133484292D01*
X64202653Y-133259999D01*
X64184067Y-133035707D01*
X64128823Y-132817550D01*
X64128820Y-132817543D01*
X64038422Y-132611456D01*
X64038417Y-132611448D01*
X63963076Y-132496132D01*
X63452916Y-133006292D01*
X63390604Y-133040317D01*
X63319788Y-133035252D01*
X63262953Y-132992705D01*
X63257836Y-132985336D01*
X63221761Y-132929202D01*
X63113100Y-132835048D01*
X63113098Y-132835047D01*
X63106289Y-132829147D01*
X63108312Y-132826811D01*
X63071912Y-132784809D01*
X63061802Y-132714536D01*
X63091290Y-132649952D01*
X63097426Y-132643361D01*
X63605688Y-132135099D01*
X63585306Y-132119235D01*
X63585294Y-132119227D01*
X63551792Y-132101097D01*
X63501402Y-132051084D01*
X63486050Y-131981767D01*
X63510611Y-131915154D01*
X63551790Y-131879472D01*
X63585576Y-131861189D01*
X63763240Y-131722906D01*
X63915722Y-131557268D01*
X64038860Y-131368791D01*
X64129296Y-131162616D01*
X64184564Y-130944368D01*
X64203156Y-130720000D01*
X64184564Y-130495632D01*
X64136144Y-130304425D01*
X64129297Y-130277387D01*
X64129296Y-130277386D01*
X64129296Y-130277384D01*
X64038860Y-130071209D01*
X64032140Y-130060924D01*
X63915724Y-129882734D01*
X63915720Y-129882729D01*
X63799570Y-129756558D01*
X63763240Y-129717094D01*
X63763239Y-129717093D01*
X63763237Y-129717091D01*
X63631860Y-129614836D01*
X63585576Y-129578811D01*
X63387574Y-129471658D01*
X63387571Y-129471657D01*
X63387568Y-129471655D01*
X63364641Y-129463785D01*
X63306706Y-129422749D01*
X63280153Y-129356905D01*
X63293414Y-129287158D01*
X63316457Y-129255516D01*
X63373634Y-129198339D01*
X63466657Y-129047525D01*
X63522393Y-128879321D01*
X63522394Y-128879318D01*
X63532999Y-128775516D01*
X63533000Y-128775516D01*
X63533000Y-128504000D01*
X62309500Y-128504000D01*
X62241379Y-128483998D01*
X62194886Y-128430342D01*
X62183500Y-128378000D01*
X62183500Y-128122000D01*
X62203502Y-128053879D01*
X62257158Y-128007386D01*
X62309500Y-127996000D01*
X63533000Y-127996000D01*
X63533000Y-127724483D01*
X63522394Y-127620681D01*
X63522393Y-127620678D01*
X63466657Y-127452474D01*
X63373634Y-127301660D01*
X63373629Y-127301654D01*
X63262844Y-127190869D01*
X63228818Y-127128557D01*
X63233882Y-127057745D01*
X63251989Y-127009201D01*
X63255947Y-126972392D01*
X63258499Y-126948649D01*
X63258500Y-126948632D01*
X63258500Y-126930250D01*
X63278502Y-126862129D01*
X63332158Y-126815636D01*
X63402432Y-126805532D01*
X63450647Y-126823009D01*
X63602474Y-126916657D01*
X63770678Y-126972393D01*
X63770681Y-126972394D01*
X63874483Y-126982999D01*
X63874483Y-126983000D01*
X64146000Y-126983000D01*
X64146000Y-126141500D01*
X64654000Y-126141500D01*
X64654000Y-126983000D01*
X64925517Y-126983000D01*
X64925516Y-126982999D01*
X65029318Y-126972394D01*
X65029321Y-126972393D01*
X65197525Y-126916657D01*
X65348339Y-126823634D01*
X65348345Y-126823629D01*
X65473629Y-126698345D01*
X65473634Y-126698339D01*
X65566657Y-126547525D01*
X65622393Y-126379321D01*
X65622394Y-126379318D01*
X65632999Y-126275516D01*
X65633000Y-126275516D01*
X65633000Y-126141500D01*
X64654000Y-126141500D01*
X64146000Y-126141500D01*
X64146000Y-125759500D01*
X64166002Y-125691379D01*
X64219658Y-125644886D01*
X64272000Y-125633500D01*
X65633000Y-125633500D01*
X65633000Y-125499483D01*
X65622394Y-125395681D01*
X65622393Y-125395678D01*
X65566657Y-125227474D01*
X65516403Y-125146000D01*
X67692000Y-125146000D01*
X68746000Y-125146000D01*
X68746000Y-123592000D01*
X69254000Y-123592000D01*
X69254000Y-125146000D01*
X70308000Y-125146000D01*
X70308000Y-124299483D01*
X70297394Y-124195681D01*
X70297393Y-124195678D01*
X70241657Y-124027474D01*
X70148634Y-123876660D01*
X70148629Y-123876654D01*
X70023345Y-123751370D01*
X70023339Y-123751365D01*
X69872525Y-123658342D01*
X69704321Y-123602606D01*
X69704318Y-123602605D01*
X69600516Y-123592000D01*
X69254000Y-123592000D01*
X68746000Y-123592000D01*
X68399483Y-123592000D01*
X68295681Y-123602605D01*
X68295678Y-123602606D01*
X68127474Y-123658342D01*
X67976660Y-123751365D01*
X67976654Y-123751370D01*
X67851370Y-123876654D01*
X67851365Y-123876660D01*
X67758342Y-124027474D01*
X67702606Y-124195678D01*
X67702605Y-124195681D01*
X67692000Y-124299483D01*
X67692000Y-125146000D01*
X65516403Y-125146000D01*
X65473634Y-125076660D01*
X65473629Y-125076654D01*
X65348344Y-124951369D01*
X65345551Y-124949161D01*
X65344131Y-124947156D01*
X65343150Y-124946175D01*
X65343317Y-124946007D01*
X65304519Y-124891222D01*
X65301325Y-124820298D01*
X65336983Y-124758905D01*
X65345554Y-124751478D01*
X65348639Y-124749037D01*
X65348652Y-124749030D01*
X65474030Y-124623652D01*
X65567115Y-124472738D01*
X65622887Y-124304426D01*
X65633500Y-124200545D01*
X65633499Y-123424456D01*
X65622887Y-123320574D01*
X65567115Y-123152262D01*
X65474030Y-123001348D01*
X65474029Y-123001347D01*
X65474024Y-123001341D01*
X65348658Y-122875975D01*
X65348652Y-122875970D01*
X65197738Y-122782885D01*
X65064192Y-122738633D01*
X65029427Y-122727113D01*
X65029420Y-122727112D01*
X64925553Y-122716500D01*
X63874455Y-122716500D01*
X63770574Y-122727112D01*
X63602261Y-122782885D01*
X63451347Y-122875970D01*
X63377616Y-122949701D01*
X63315303Y-122983726D01*
X63244488Y-122978660D01*
X63187653Y-122936114D01*
X63113259Y-122836736D01*
X63106889Y-122830366D01*
X63109002Y-122828252D01*
X63075479Y-122783465D01*
X63070418Y-122712649D01*
X63104440Y-122650346D01*
X66430128Y-119324657D01*
X66492438Y-119290633D01*
X66558850Y-119294149D01*
X66645574Y-119322887D01*
X66749455Y-119333500D01*
X67525544Y-119333499D01*
X67629426Y-119322887D01*
X67797738Y-119267115D01*
X67948652Y-119174030D01*
X68009486Y-119113195D01*
X68071796Y-119079172D01*
X68142612Y-119084236D01*
X68191279Y-119116952D01*
X68196760Y-119122906D01*
X68374424Y-119261189D01*
X68572426Y-119368342D01*
X68572427Y-119368342D01*
X68572428Y-119368343D01*
X68684227Y-119406723D01*
X68785365Y-119441444D01*
X69007431Y-119478500D01*
X69007435Y-119478500D01*
X69232565Y-119478500D01*
X69232569Y-119478500D01*
X69454635Y-119441444D01*
X69667574Y-119368342D01*
X69865576Y-119261189D01*
X70043240Y-119122906D01*
X70195722Y-118957268D01*
X70318860Y-118768791D01*
X70409296Y-118562616D01*
X70464564Y-118344368D01*
X70483156Y-118120000D01*
X70464564Y-117895632D01*
X70453203Y-117850768D01*
X70409297Y-117677387D01*
X70409296Y-117677386D01*
X70409296Y-117677384D01*
X70318860Y-117471209D01*
X70288769Y-117425151D01*
X70195724Y-117282734D01*
X70195720Y-117282729D01*
X70043237Y-117117091D01*
X69961382Y-117053381D01*
X69865576Y-116978811D01*
X69831792Y-116960528D01*
X69781402Y-116910516D01*
X69766050Y-116841199D01*
X69790610Y-116774586D01*
X69831793Y-116738901D01*
X69865299Y-116720768D01*
X69865302Y-116720766D01*
X69885688Y-116704898D01*
X69377427Y-116196638D01*
X69343402Y-116134325D01*
X69348466Y-116063510D01*
X69387145Y-116011840D01*
X69386289Y-116010853D01*
X69390830Y-116006917D01*
X69391013Y-116006674D01*
X69391510Y-116006328D01*
X69393095Y-116004953D01*
X69393100Y-116004952D01*
X69501761Y-115910798D01*
X69537824Y-115854681D01*
X69591478Y-115808189D01*
X69661752Y-115798084D01*
X69726333Y-115827576D01*
X69732918Y-115833707D01*
X70243077Y-116343866D01*
X70318419Y-116228551D01*
X70408820Y-116022456D01*
X70408823Y-116022449D01*
X70464067Y-115804292D01*
X70482653Y-115579999D01*
X70464067Y-115355707D01*
X70408823Y-115137550D01*
X70408820Y-115137543D01*
X70318422Y-114931456D01*
X70318417Y-114931448D01*
X70243076Y-114816132D01*
X69732916Y-115326292D01*
X69670604Y-115360317D01*
X69599788Y-115355252D01*
X69542953Y-115312705D01*
X69537836Y-115305336D01*
X69501761Y-115249202D01*
X69393100Y-115155048D01*
X69393098Y-115155047D01*
X69386289Y-115149147D01*
X69388312Y-115146811D01*
X69351912Y-115104809D01*
X69341802Y-115034536D01*
X69371290Y-114969952D01*
X69377426Y-114963361D01*
X69885688Y-114455099D01*
X69865306Y-114439235D01*
X69865294Y-114439227D01*
X69831792Y-114421097D01*
X69781402Y-114371084D01*
X69766050Y-114301767D01*
X69790611Y-114235154D01*
X69831790Y-114199472D01*
X69865576Y-114181189D01*
X70043240Y-114042906D01*
X70195722Y-113877268D01*
X70318860Y-113688791D01*
X70409296Y-113482616D01*
X70464564Y-113264368D01*
X70483156Y-113040000D01*
X70464564Y-112815632D01*
X70409296Y-112597384D01*
X70318860Y-112391209D01*
X70305446Y-112370678D01*
X70195724Y-112202734D01*
X70195720Y-112202729D01*
X70056649Y-112051660D01*
X70043240Y-112037094D01*
X70043239Y-112037093D01*
X70043237Y-112037091D01*
X69900983Y-111926370D01*
X69865576Y-111898811D01*
X69832319Y-111880813D01*
X69781929Y-111830802D01*
X69766576Y-111761485D01*
X69791136Y-111694872D01*
X69832320Y-111659186D01*
X69833941Y-111658309D01*
X69865576Y-111641189D01*
X70043240Y-111502906D01*
X70195722Y-111337268D01*
X70318860Y-111148791D01*
X70409296Y-110942616D01*
X70464564Y-110724368D01*
X70483156Y-110500000D01*
X70464564Y-110275632D01*
X70409296Y-110057384D01*
X70318860Y-109851209D01*
X70318856Y-109851203D01*
X70316382Y-109846632D01*
X70317842Y-109845841D01*
X70299457Y-109784969D01*
X70318931Y-109716696D01*
X70336354Y-109694904D01*
X70784407Y-109246851D01*
X70846717Y-109212827D01*
X70917532Y-109217892D01*
X70974368Y-109260439D01*
X70999179Y-109326959D01*
X70999500Y-109335948D01*
X70999500Y-145873500D01*
X70979498Y-145941621D01*
X70925842Y-145988114D01*
X70873500Y-145999500D01*
X52126500Y-145999500D01*
X52058379Y-145979498D01*
X52011886Y-145925842D01*
X52000500Y-145873500D01*
X52000500Y-125246000D01*
X52692000Y-125246000D01*
X53746000Y-125246000D01*
X53746000Y-123692000D01*
X54254000Y-123692000D01*
X54254000Y-125246000D01*
X55308000Y-125246000D01*
X55308000Y-124399483D01*
X55297394Y-124295681D01*
X55297393Y-124295678D01*
X55241657Y-124127474D01*
X55148634Y-123976660D01*
X55148629Y-123976654D01*
X55023345Y-123851370D01*
X55023339Y-123851365D01*
X54872525Y-123758342D01*
X54704321Y-123702606D01*
X54704318Y-123702605D01*
X54600516Y-123692000D01*
X54254000Y-123692000D01*
X53746000Y-123692000D01*
X53399483Y-123692000D01*
X53295681Y-123702605D01*
X53295678Y-123702606D01*
X53127474Y-123758342D01*
X52976660Y-123851365D01*
X52976654Y-123851370D01*
X52851370Y-123976654D01*
X52851365Y-123976660D01*
X52758342Y-124127474D01*
X52702606Y-124295678D01*
X52702605Y-124295681D01*
X52692000Y-124399483D01*
X52692000Y-125246000D01*
X52000500Y-125246000D01*
X52000500Y-102235950D01*
X52020502Y-102167829D01*
X52074158Y-102121336D01*
X52144432Y-102111232D01*
X52209012Y-102140726D01*
G37*
G04 #@! TD.AperFunction*
G04 #@! TA.AperFunction,Conductor*
G36*
X60906333Y-138587576D02*
G01*
X60912918Y-138593707D01*
X61423076Y-139103866D01*
X61464516Y-139040440D01*
X61518520Y-138994352D01*
X61588868Y-138984777D01*
X61653225Y-139014755D01*
X61675481Y-139040439D01*
X61716921Y-139103866D01*
X61716922Y-139103866D01*
X62227081Y-138593706D01*
X62289394Y-138559681D01*
X62360209Y-138564745D01*
X62417045Y-138607292D01*
X62422162Y-138614661D01*
X62458239Y-138670798D01*
X62566900Y-138764952D01*
X62566901Y-138764952D01*
X62573711Y-138770853D01*
X62571686Y-138773189D01*
X62608084Y-138815187D01*
X62618195Y-138885460D01*
X62588709Y-138950043D01*
X62582572Y-138956636D01*
X62074310Y-139464898D01*
X62094694Y-139480763D01*
X62094700Y-139480768D01*
X62128206Y-139498900D01*
X62178597Y-139548913D01*
X62193949Y-139618230D01*
X62169389Y-139684843D01*
X62128209Y-139720526D01*
X62094430Y-139738806D01*
X62094424Y-139738811D01*
X61916762Y-139877091D01*
X61803483Y-140000143D01*
X61742630Y-140036713D01*
X61671665Y-140034578D01*
X61613120Y-139994416D01*
X61596143Y-139963481D01*
X61595217Y-139963914D01*
X61592116Y-139957266D01*
X61592115Y-139957262D01*
X61499030Y-139806348D01*
X61499029Y-139806347D01*
X61499024Y-139806341D01*
X61373658Y-139680975D01*
X61373652Y-139680970D01*
X61373651Y-139680970D01*
X61222738Y-139587885D01*
X61153511Y-139564946D01*
X61095141Y-139524533D01*
X61073662Y-139472872D01*
X60557427Y-138956638D01*
X60523402Y-138894325D01*
X60528466Y-138823510D01*
X60567145Y-138771840D01*
X60566289Y-138770853D01*
X60570830Y-138766917D01*
X60571013Y-138766674D01*
X60571510Y-138766328D01*
X60573095Y-138764953D01*
X60573100Y-138764952D01*
X60681761Y-138670798D01*
X60717824Y-138614681D01*
X60771478Y-138568189D01*
X60841752Y-138558084D01*
X60906333Y-138587576D01*
G37*
G04 #@! TD.AperFunction*
G04 #@! TA.AperFunction,Conductor*
G36*
X60906333Y-136047576D02*
G01*
X60912918Y-136053707D01*
X61423076Y-136563866D01*
X61464516Y-136500440D01*
X61518520Y-136454352D01*
X61588868Y-136444777D01*
X61653225Y-136474755D01*
X61675481Y-136500439D01*
X61716921Y-136563866D01*
X61716922Y-136563866D01*
X62227081Y-136053706D01*
X62289394Y-136019681D01*
X62360209Y-136024745D01*
X62417045Y-136067292D01*
X62422162Y-136074661D01*
X62458239Y-136130798D01*
X62566900Y-136224952D01*
X62566901Y-136224952D01*
X62573711Y-136230853D01*
X62571686Y-136233189D01*
X62608084Y-136275187D01*
X62618195Y-136345460D01*
X62588709Y-136410043D01*
X62582572Y-136416636D01*
X62074310Y-136924898D01*
X62094694Y-136940763D01*
X62094696Y-136940765D01*
X62128733Y-136959185D01*
X62179123Y-137009199D01*
X62194475Y-137078516D01*
X62169914Y-137145129D01*
X62128735Y-137180811D01*
X62094702Y-137199229D01*
X62074310Y-137215099D01*
X62074310Y-137215100D01*
X62582572Y-137723361D01*
X62616597Y-137785674D01*
X62611533Y-137856489D01*
X62572854Y-137908157D01*
X62573711Y-137909147D01*
X62569164Y-137913086D01*
X62568986Y-137913325D01*
X62568498Y-137913663D01*
X62458238Y-138009202D01*
X62422175Y-138065318D01*
X62368519Y-138111811D01*
X62298245Y-138121914D01*
X62233664Y-138092421D01*
X62227082Y-138086292D01*
X61716922Y-137576132D01*
X61716921Y-137576132D01*
X61675482Y-137639560D01*
X61621478Y-137685648D01*
X61551130Y-137695223D01*
X61486773Y-137665245D01*
X61464516Y-137639560D01*
X61423076Y-137576132D01*
X60912916Y-138086292D01*
X60850604Y-138120317D01*
X60779788Y-138115252D01*
X60722953Y-138072705D01*
X60717836Y-138065336D01*
X60681761Y-138009202D01*
X60573100Y-137915048D01*
X60573098Y-137915047D01*
X60566289Y-137909147D01*
X60568312Y-137906811D01*
X60531912Y-137864809D01*
X60521802Y-137794536D01*
X60551290Y-137729952D01*
X60557426Y-137723361D01*
X61065688Y-137215099D01*
X61045306Y-137199235D01*
X61045299Y-137199230D01*
X61011265Y-137180812D01*
X60960876Y-137130798D01*
X60945524Y-137061481D01*
X60970086Y-136994869D01*
X61011269Y-136959184D01*
X61045299Y-136940768D01*
X61045302Y-136940766D01*
X61065688Y-136924898D01*
X60557427Y-136416638D01*
X60523402Y-136354325D01*
X60528466Y-136283510D01*
X60567145Y-136231840D01*
X60566289Y-136230853D01*
X60570830Y-136226917D01*
X60571013Y-136226674D01*
X60571510Y-136226328D01*
X60573095Y-136224953D01*
X60573100Y-136224952D01*
X60681761Y-136130798D01*
X60717824Y-136074681D01*
X60771478Y-136028189D01*
X60841752Y-136018084D01*
X60906333Y-136047576D01*
G37*
G04 #@! TD.AperFunction*
G04 #@! TA.AperFunction,Conductor*
G36*
X60906333Y-133507576D02*
G01*
X60912918Y-133513707D01*
X61423076Y-134023866D01*
X61464516Y-133960440D01*
X61518520Y-133914352D01*
X61588868Y-133904777D01*
X61653225Y-133934755D01*
X61675481Y-133960439D01*
X61716921Y-134023866D01*
X61716922Y-134023866D01*
X62227081Y-133513706D01*
X62289394Y-133479681D01*
X62360209Y-133484745D01*
X62417045Y-133527292D01*
X62422162Y-133534661D01*
X62458239Y-133590798D01*
X62566900Y-133684952D01*
X62566901Y-133684952D01*
X62573711Y-133690853D01*
X62571686Y-133693189D01*
X62608084Y-133735187D01*
X62618195Y-133805460D01*
X62588709Y-133870043D01*
X62582572Y-133876636D01*
X62074310Y-134384898D01*
X62094694Y-134400763D01*
X62094696Y-134400765D01*
X62128733Y-134419185D01*
X62179123Y-134469199D01*
X62194475Y-134538516D01*
X62169914Y-134605129D01*
X62128735Y-134640811D01*
X62094702Y-134659229D01*
X62074310Y-134675099D01*
X62074310Y-134675100D01*
X62582572Y-135183361D01*
X62616597Y-135245674D01*
X62611533Y-135316489D01*
X62572854Y-135368157D01*
X62573711Y-135369147D01*
X62569164Y-135373086D01*
X62568986Y-135373325D01*
X62568498Y-135373663D01*
X62458238Y-135469202D01*
X62422175Y-135525318D01*
X62368519Y-135571811D01*
X62298245Y-135581914D01*
X62233664Y-135552421D01*
X62227082Y-135546292D01*
X61716922Y-135036132D01*
X61716921Y-135036132D01*
X61675482Y-135099560D01*
X61621478Y-135145648D01*
X61551130Y-135155223D01*
X61486773Y-135125245D01*
X61464516Y-135099560D01*
X61423076Y-135036132D01*
X60912916Y-135546292D01*
X60850604Y-135580317D01*
X60779788Y-135575252D01*
X60722953Y-135532705D01*
X60717836Y-135525336D01*
X60681761Y-135469202D01*
X60573100Y-135375048D01*
X60573098Y-135375047D01*
X60566289Y-135369147D01*
X60568312Y-135366811D01*
X60531912Y-135324809D01*
X60521802Y-135254536D01*
X60551290Y-135189952D01*
X60557426Y-135183361D01*
X61065688Y-134675099D01*
X61045306Y-134659235D01*
X61045299Y-134659230D01*
X61011265Y-134640812D01*
X60960876Y-134590798D01*
X60945524Y-134521481D01*
X60970086Y-134454869D01*
X61011269Y-134419184D01*
X61045299Y-134400768D01*
X61045302Y-134400766D01*
X61065688Y-134384898D01*
X60557427Y-133876638D01*
X60523402Y-133814325D01*
X60528466Y-133743510D01*
X60567145Y-133691840D01*
X60566289Y-133690853D01*
X60570830Y-133686917D01*
X60571013Y-133686674D01*
X60571510Y-133686328D01*
X60573095Y-133684953D01*
X60573100Y-133684952D01*
X60681761Y-133590798D01*
X60717824Y-133534681D01*
X60771478Y-133488189D01*
X60841752Y-133478084D01*
X60906333Y-133507576D01*
G37*
G04 #@! TD.AperFunction*
G04 #@! TA.AperFunction,Conductor*
G36*
X61750647Y-131548502D02*
G01*
X61775227Y-131569162D01*
X61916762Y-131722908D01*
X61971331Y-131765381D01*
X62094424Y-131861189D01*
X62128205Y-131879470D01*
X62178596Y-131929482D01*
X62193949Y-131998799D01*
X62169389Y-132065412D01*
X62128208Y-132101097D01*
X62094700Y-132119230D01*
X62074310Y-132135099D01*
X62074310Y-132135100D01*
X62582572Y-132643361D01*
X62616597Y-132705674D01*
X62611533Y-132776489D01*
X62572854Y-132828157D01*
X62573711Y-132829147D01*
X62569164Y-132833086D01*
X62568986Y-132833325D01*
X62568498Y-132833663D01*
X62458238Y-132929202D01*
X62422175Y-132985318D01*
X62368519Y-133031811D01*
X62298245Y-133041914D01*
X62233664Y-133012421D01*
X62227082Y-133006292D01*
X61716922Y-132496132D01*
X61716921Y-132496132D01*
X61675482Y-132559560D01*
X61621478Y-132605648D01*
X61551130Y-132615223D01*
X61486773Y-132585245D01*
X61464516Y-132559560D01*
X61423076Y-132496132D01*
X60912916Y-133006292D01*
X60850604Y-133040317D01*
X60779788Y-133035252D01*
X60722953Y-132992705D01*
X60717836Y-132985336D01*
X60681761Y-132929202D01*
X60573100Y-132835048D01*
X60573098Y-132835047D01*
X60566289Y-132829147D01*
X60568312Y-132826811D01*
X60531912Y-132784809D01*
X60521802Y-132714536D01*
X60551290Y-132649952D01*
X60557426Y-132643361D01*
X61065688Y-132135099D01*
X61045306Y-132119235D01*
X61045294Y-132119227D01*
X61011792Y-132101097D01*
X60961402Y-132051084D01*
X60946050Y-131981767D01*
X60970611Y-131915154D01*
X61011790Y-131879472D01*
X61045576Y-131861189D01*
X61223240Y-131722906D01*
X61364772Y-131569162D01*
X61425627Y-131532591D01*
X61457474Y-131528500D01*
X61682526Y-131528500D01*
X61750647Y-131548502D01*
G37*
G04 #@! TD.AperFunction*
G04 #@! TA.AperFunction,Conductor*
G36*
X57730402Y-89027764D02*
G01*
X57775465Y-89056725D01*
X58379644Y-89660904D01*
X58413670Y-89723216D01*
X58408605Y-89794031D01*
X58379644Y-89839094D01*
X56895611Y-91323127D01*
X56882865Y-91333340D01*
X56883025Y-91333533D01*
X56876921Y-91338582D01*
X56827054Y-91391685D01*
X56805071Y-91413668D01*
X56800527Y-91419525D01*
X56796678Y-91424031D01*
X56763029Y-91459865D01*
X56763027Y-91459867D01*
X56752691Y-91478667D01*
X56741843Y-91495180D01*
X56728699Y-91512126D01*
X56728694Y-91512135D01*
X56709172Y-91557247D01*
X56706560Y-91562577D01*
X56682877Y-91605660D01*
X56682873Y-91605670D01*
X56677541Y-91626436D01*
X56671139Y-91645136D01*
X56662620Y-91664820D01*
X56662619Y-91664824D01*
X56654928Y-91713384D01*
X56653724Y-91719198D01*
X56641499Y-91766811D01*
X56641499Y-91788261D01*
X56639949Y-91807959D01*
X56636594Y-91829149D01*
X56636594Y-91829153D01*
X56641220Y-91878094D01*
X56641500Y-91884027D01*
X56641500Y-108775048D01*
X56621498Y-108843169D01*
X56604595Y-108864144D01*
X56495608Y-108973130D01*
X56482865Y-108983340D01*
X56483025Y-108983533D01*
X56476921Y-108988582D01*
X56427053Y-109041686D01*
X56405071Y-109063668D01*
X56400527Y-109069525D01*
X56396678Y-109074031D01*
X56363029Y-109109865D01*
X56363027Y-109109867D01*
X56352691Y-109128667D01*
X56341843Y-109145180D01*
X56328699Y-109162126D01*
X56328694Y-109162133D01*
X56316402Y-109190541D01*
X56270991Y-109245115D01*
X56203283Y-109266475D01*
X56200765Y-109266500D01*
X55574455Y-109266500D01*
X55470574Y-109277112D01*
X55302261Y-109332885D01*
X55151347Y-109425970D01*
X55151341Y-109425975D01*
X55028860Y-109548457D01*
X54966548Y-109582483D01*
X54895733Y-109577418D01*
X54847066Y-109544701D01*
X54803240Y-109497094D01*
X54803239Y-109497093D01*
X54803237Y-109497091D01*
X54711861Y-109425970D01*
X54625576Y-109358811D01*
X54592319Y-109340813D01*
X54541929Y-109290802D01*
X54526576Y-109221485D01*
X54551136Y-109154872D01*
X54592320Y-109119186D01*
X54625576Y-109101189D01*
X54803240Y-108962906D01*
X54955722Y-108797268D01*
X55078860Y-108608791D01*
X55169296Y-108402616D01*
X55224564Y-108184368D01*
X55243156Y-107960000D01*
X55224564Y-107735632D01*
X55203961Y-107654273D01*
X55206627Y-107583329D01*
X55237008Y-107534250D01*
X55484389Y-107286869D01*
X55497131Y-107276663D01*
X55496971Y-107276470D01*
X55503078Y-107271417D01*
X55503077Y-107271417D01*
X55503080Y-107271416D01*
X55552960Y-107218298D01*
X55574926Y-107196333D01*
X55579462Y-107190483D01*
X55583306Y-107185982D01*
X55616972Y-107150133D01*
X55627303Y-107131339D01*
X55638151Y-107114823D01*
X55651304Y-107097869D01*
X55670845Y-107052710D01*
X55673428Y-107047438D01*
X55697124Y-107004337D01*
X55702460Y-106983549D01*
X55708857Y-106964869D01*
X55717379Y-106945177D01*
X55725072Y-106896596D01*
X55726271Y-106890811D01*
X55738500Y-106843188D01*
X55738500Y-106821742D01*
X55740051Y-106802031D01*
X55740244Y-106800814D01*
X55743406Y-106780849D01*
X55738778Y-106731891D01*
X55738500Y-106725994D01*
X55738500Y-90440610D01*
X55758501Y-90372493D01*
X55812157Y-90326000D01*
X55882431Y-90315896D01*
X55926610Y-90332118D01*
X55926740Y-90331850D01*
X55929498Y-90333178D01*
X55931532Y-90333925D01*
X55933116Y-90334920D01*
X55933119Y-90334921D01*
X56099660Y-90393196D01*
X56231033Y-90407999D01*
X56295999Y-90407998D01*
X56296000Y-90407998D01*
X56296000Y-89554000D01*
X56804000Y-89554000D01*
X56804000Y-90407999D01*
X56868968Y-90407999D01*
X57000329Y-90393198D01*
X57000340Y-90393196D01*
X57166880Y-90334921D01*
X57166883Y-90334920D01*
X57316279Y-90241048D01*
X57316281Y-90241047D01*
X57441047Y-90116281D01*
X57441048Y-90116279D01*
X57534920Y-89966883D01*
X57534921Y-89966880D01*
X57593196Y-89800339D01*
X57608000Y-89668967D01*
X57608000Y-89554000D01*
X56804000Y-89554000D01*
X56296000Y-89554000D01*
X56296000Y-89172000D01*
X56316002Y-89103879D01*
X56369658Y-89057386D01*
X56422000Y-89046000D01*
X57616916Y-89046000D01*
X57659587Y-89022699D01*
X57730402Y-89027764D01*
G37*
G04 #@! TD.AperFunction*
G04 #@! TA.AperFunction,Conductor*
G36*
X67333621Y-107266002D02*
G01*
X67380114Y-107319658D01*
X67391500Y-107372000D01*
X67391500Y-108733000D01*
X67525517Y-108733000D01*
X67525516Y-108732999D01*
X67629318Y-108722394D01*
X67629321Y-108722393D01*
X67797524Y-108666657D01*
X67808092Y-108660139D01*
X67876570Y-108641400D01*
X67944310Y-108662657D01*
X67979726Y-108698464D01*
X67992320Y-108717741D01*
X68012832Y-108785709D01*
X67993342Y-108853978D01*
X67975931Y-108875750D01*
X67682483Y-109169200D01*
X67397088Y-109454595D01*
X67334775Y-109488620D01*
X67307992Y-109491500D01*
X66214289Y-109491500D01*
X66146168Y-109471498D01*
X66125194Y-109454595D01*
X65577988Y-108907389D01*
X65543962Y-108845077D01*
X65549027Y-108774262D01*
X65591574Y-108717426D01*
X65627449Y-108698690D01*
X65722738Y-108667115D01*
X65873652Y-108574030D01*
X65999030Y-108448652D01*
X65999037Y-108448639D01*
X66001478Y-108445554D01*
X66003709Y-108443973D01*
X66004220Y-108443463D01*
X66004307Y-108443550D01*
X66059416Y-108404521D01*
X66130340Y-108401324D01*
X66191734Y-108436980D01*
X66199161Y-108445551D01*
X66201369Y-108448344D01*
X66326654Y-108573629D01*
X66326660Y-108573634D01*
X66477474Y-108666657D01*
X66645678Y-108722393D01*
X66645681Y-108722394D01*
X66749483Y-108732999D01*
X66749483Y-108733000D01*
X66883500Y-108733000D01*
X66883500Y-107372000D01*
X66903502Y-107303879D01*
X66957158Y-107257386D01*
X67009500Y-107246000D01*
X67265500Y-107246000D01*
X67333621Y-107266002D01*
G37*
G04 #@! TD.AperFunction*
G04 #@! TA.AperFunction,Conductor*
G36*
X59611172Y-82367801D02*
G01*
X59611253Y-82367421D01*
X59617711Y-82368793D01*
X59617712Y-82368794D01*
X59804513Y-82408500D01*
X59825050Y-82408500D01*
X59893171Y-82428502D01*
X59914145Y-82445405D01*
X65004595Y-87535855D01*
X65038621Y-87598167D01*
X65041500Y-87624950D01*
X65041499Y-100040500D01*
X65021497Y-100108621D01*
X64967841Y-100155114D01*
X64915500Y-100166500D01*
X64674455Y-100166500D01*
X64570574Y-100177112D01*
X64402261Y-100232885D01*
X64251347Y-100325970D01*
X64251341Y-100325975D01*
X64125975Y-100451341D01*
X64125970Y-100451347D01*
X64032885Y-100602262D01*
X63977113Y-100770572D01*
X63977112Y-100770579D01*
X63966500Y-100874446D01*
X63966500Y-101925544D01*
X63977112Y-102029425D01*
X64013993Y-102140726D01*
X64032885Y-102197738D01*
X64110917Y-102324248D01*
X64125971Y-102348653D01*
X64129541Y-102353168D01*
X64156101Y-102419009D01*
X64142849Y-102488757D01*
X64137945Y-102497463D01*
X64057885Y-102627260D01*
X64002113Y-102795572D01*
X64002112Y-102795579D01*
X63991500Y-102899446D01*
X63991500Y-103900544D01*
X64002112Y-104004425D01*
X64053171Y-104158513D01*
X64057885Y-104172738D01*
X64123309Y-104278807D01*
X64154823Y-104329898D01*
X64153197Y-104330900D01*
X64176107Y-104387695D01*
X64162853Y-104457444D01*
X64154747Y-104470055D01*
X64154823Y-104470102D01*
X64150971Y-104476346D01*
X64150970Y-104476348D01*
X64085350Y-104582734D01*
X64057885Y-104627262D01*
X64002113Y-104795572D01*
X64002112Y-104795579D01*
X63991500Y-104899446D01*
X63991500Y-105900544D01*
X64002112Y-106004425D01*
X64057884Y-106172738D01*
X64057885Y-106172738D01*
X64150970Y-106323652D01*
X64163221Y-106335903D01*
X64197247Y-106398212D01*
X64192184Y-106469028D01*
X64163224Y-106514093D01*
X64125971Y-106551345D01*
X64125970Y-106551347D01*
X64032885Y-106702262D01*
X63977113Y-106870572D01*
X63977112Y-106870579D01*
X63966500Y-106974446D01*
X63966500Y-106991711D01*
X63946498Y-107059832D01*
X63892842Y-107106325D01*
X63822568Y-107116429D01*
X63757988Y-107086935D01*
X63751405Y-107080806D01*
X60195405Y-103524806D01*
X60161379Y-103462494D01*
X60158500Y-103435711D01*
X60158500Y-102174759D01*
X60178502Y-102106638D01*
X60190865Y-102090447D01*
X60233827Y-102042734D01*
X60239040Y-102036944D01*
X60334527Y-101871556D01*
X60393542Y-101689928D01*
X60413504Y-101500000D01*
X60393542Y-101310072D01*
X60334527Y-101128444D01*
X60239040Y-100963056D01*
X60239038Y-100963054D01*
X60239034Y-100963048D01*
X60111255Y-100821135D01*
X59956752Y-100708882D01*
X59782288Y-100631206D01*
X59595487Y-100591500D01*
X59404513Y-100591500D01*
X59217711Y-100631206D01*
X59043247Y-100708882D01*
X58888744Y-100821135D01*
X58760965Y-100963048D01*
X58760958Y-100963058D01*
X58693619Y-101079693D01*
X58642236Y-101128687D01*
X58572522Y-101142122D01*
X58506612Y-101115735D01*
X58465430Y-101057903D01*
X58458500Y-101016693D01*
X58458500Y-95024948D01*
X58478502Y-94956827D01*
X58495400Y-94935858D01*
X61404384Y-92026873D01*
X61417129Y-92016665D01*
X61416969Y-92016471D01*
X61423070Y-92011422D01*
X61423080Y-92011416D01*
X61472960Y-91958298D01*
X61494926Y-91936333D01*
X61499462Y-91930483D01*
X61503306Y-91925982D01*
X61536972Y-91890133D01*
X61547303Y-91871339D01*
X61558151Y-91854823D01*
X61571304Y-91837869D01*
X61590845Y-91792710D01*
X61593428Y-91787438D01*
X61617124Y-91744337D01*
X61622460Y-91723549D01*
X61628857Y-91704869D01*
X61637379Y-91685177D01*
X61645072Y-91636595D01*
X61646266Y-91630831D01*
X61658500Y-91583188D01*
X61658499Y-91561740D01*
X61660051Y-91542024D01*
X61663406Y-91520849D01*
X61659418Y-91478667D01*
X61658779Y-91471905D01*
X61658499Y-91465972D01*
X61658499Y-89794031D01*
X61658499Y-88086604D01*
X61660293Y-88070379D01*
X61660043Y-88070356D01*
X61660787Y-88062470D01*
X61660789Y-88062463D01*
X61658500Y-87989639D01*
X61658500Y-87958568D01*
X61657569Y-87951209D01*
X61657106Y-87945322D01*
X61655562Y-87896169D01*
X61649579Y-87875576D01*
X61645571Y-87856218D01*
X61642882Y-87834939D01*
X61642882Y-87834936D01*
X61624777Y-87789208D01*
X61622863Y-87783619D01*
X61609145Y-87736400D01*
X61598224Y-87717935D01*
X61589531Y-87700189D01*
X61581635Y-87680244D01*
X61552736Y-87640470D01*
X61549482Y-87635517D01*
X61524453Y-87593193D01*
X61524452Y-87593191D01*
X61509288Y-87578027D01*
X61496447Y-87562993D01*
X61483841Y-87545643D01*
X61483836Y-87545638D01*
X61462718Y-87528169D01*
X61445950Y-87514297D01*
X61441577Y-87510317D01*
X60945405Y-87014145D01*
X60911379Y-86951833D01*
X60908500Y-86925050D01*
X60908500Y-86735854D01*
X60908500Y-86530996D01*
X60893690Y-86399552D01*
X60835376Y-86232901D01*
X60795702Y-86169760D01*
X60741441Y-86083403D01*
X60616596Y-85958558D01*
X60467101Y-85864625D01*
X60467099Y-85864624D01*
X60454859Y-85860341D01*
X60300448Y-85806310D01*
X60169004Y-85791500D01*
X59724950Y-85791500D01*
X59656829Y-85771498D01*
X59635855Y-85754595D01*
X59495405Y-85614145D01*
X59461379Y-85551833D01*
X59458500Y-85525050D01*
X59458500Y-84290427D01*
X59458500Y-82490483D01*
X59478501Y-82422366D01*
X59532157Y-82375873D01*
X59602431Y-82365769D01*
X59611172Y-82367801D01*
G37*
G04 #@! TD.AperFunction*
G04 #@! TA.AperFunction,Conductor*
G36*
X70196121Y-75666002D02*
G01*
X70242614Y-75719658D01*
X70254000Y-75772000D01*
X70254000Y-77108000D01*
X70400517Y-77108000D01*
X70400516Y-77107999D01*
X70504318Y-77097394D01*
X70504321Y-77097393D01*
X70672525Y-77041657D01*
X70807353Y-76958494D01*
X70875832Y-76939757D01*
X70943571Y-76961016D01*
X70989063Y-77015523D01*
X70999500Y-77065735D01*
X70999500Y-103524051D01*
X70979498Y-103592172D01*
X70925842Y-103638665D01*
X70855568Y-103648769D01*
X70790988Y-103619275D01*
X70784405Y-103613146D01*
X70477010Y-103305751D01*
X70442984Y-103243439D01*
X70443960Y-103185726D01*
X70464564Y-103104368D01*
X70483156Y-102880000D01*
X70464564Y-102655632D01*
X70440089Y-102558983D01*
X70409297Y-102437387D01*
X70409296Y-102437386D01*
X70409296Y-102437384D01*
X70318860Y-102231209D01*
X70292917Y-102191500D01*
X70195724Y-102042734D01*
X70195720Y-102042729D01*
X70043237Y-101877091D01*
X69961382Y-101813381D01*
X69865576Y-101738811D01*
X69667574Y-101631658D01*
X69667572Y-101631657D01*
X69667571Y-101631656D01*
X69454639Y-101558557D01*
X69454630Y-101558555D01*
X69410476Y-101551187D01*
X69232569Y-101521500D01*
X69007431Y-101521500D01*
X68859210Y-101546233D01*
X68785369Y-101558555D01*
X68785360Y-101558557D01*
X68572428Y-101631656D01*
X68572426Y-101631658D01*
X68418969Y-101714704D01*
X68349538Y-101729534D01*
X68283112Y-101704473D01*
X68271700Y-101689108D01*
X68269905Y-101690904D01*
X68233001Y-101654000D01*
X67009500Y-101654000D01*
X66941379Y-101633998D01*
X66894886Y-101580342D01*
X66883500Y-101528000D01*
X66883500Y-100167000D01*
X67391500Y-100167000D01*
X67391500Y-101146000D01*
X68233000Y-101146000D01*
X68233000Y-100874483D01*
X68222394Y-100770681D01*
X68222393Y-100770678D01*
X68166657Y-100602474D01*
X68073634Y-100451660D01*
X68073629Y-100451654D01*
X67948345Y-100326370D01*
X67948339Y-100326365D01*
X67797525Y-100233342D01*
X67629321Y-100177606D01*
X67629318Y-100177605D01*
X67525516Y-100167000D01*
X67391500Y-100167000D01*
X66883500Y-100167000D01*
X66749483Y-100167000D01*
X66645681Y-100177605D01*
X66645674Y-100177606D01*
X66524132Y-100217881D01*
X66453177Y-100220321D01*
X66392167Y-100184012D01*
X66360472Y-100120483D01*
X66358500Y-100098276D01*
X66358500Y-97268796D01*
X66378502Y-97200675D01*
X66432158Y-97154182D01*
X66502432Y-97144078D01*
X66567012Y-97173572D01*
X66581345Y-97188193D01*
X66664255Y-97287820D01*
X66865998Y-97468582D01*
X67091910Y-97618044D01*
X67337176Y-97733020D01*
X67596569Y-97811060D01*
X67596572Y-97811060D01*
X67596574Y-97811061D01*
X67864557Y-97850500D01*
X67864561Y-97850500D01*
X68067633Y-97850500D01*
X68102363Y-97847957D01*
X68270156Y-97835677D01*
X68270160Y-97835676D01*
X68270161Y-97835676D01*
X68380665Y-97811060D01*
X68534553Y-97776780D01*
X68787558Y-97680014D01*
X69023777Y-97547441D01*
X69238177Y-97381888D01*
X69426186Y-97186881D01*
X69583799Y-96966579D01*
X69707656Y-96725675D01*
X69795118Y-96469305D01*
X69844319Y-96202933D01*
X69854212Y-95932235D01*
X69840724Y-95809652D01*
X69824587Y-95662985D01*
X69756071Y-95400909D01*
X69650130Y-95151610D01*
X69646493Y-95145650D01*
X69509018Y-94920390D01*
X69335745Y-94712180D01*
X69335741Y-94712177D01*
X69335740Y-94712175D01*
X69134012Y-94531427D01*
X69134002Y-94531418D01*
X68908090Y-94381956D01*
X68662824Y-94266980D01*
X68505392Y-94219615D01*
X68403425Y-94188938D01*
X68135442Y-94149500D01*
X68135439Y-94149500D01*
X67932369Y-94149500D01*
X67932367Y-94149500D01*
X67729839Y-94164323D01*
X67729838Y-94164323D01*
X67465456Y-94223217D01*
X67465441Y-94223222D01*
X67212441Y-94319986D01*
X66976229Y-94452555D01*
X66976225Y-94452557D01*
X66761818Y-94618116D01*
X66575208Y-94811673D01*
X66513528Y-94846831D01*
X66442631Y-94843060D01*
X66385028Y-94801559D01*
X66359006Y-94735503D01*
X66358500Y-94724220D01*
X66358500Y-87386614D01*
X66360292Y-87370379D01*
X66360043Y-87370356D01*
X66360787Y-87362470D01*
X66360789Y-87362463D01*
X66358500Y-87289639D01*
X66358500Y-87258568D01*
X66357569Y-87251209D01*
X66357106Y-87245322D01*
X66355562Y-87196169D01*
X66349579Y-87175576D01*
X66345571Y-87156218D01*
X66342882Y-87134939D01*
X66342882Y-87134936D01*
X66324777Y-87089208D01*
X66322863Y-87083619D01*
X66309145Y-87036400D01*
X66298224Y-87017935D01*
X66289531Y-87000189D01*
X66281635Y-86980244D01*
X66252736Y-86940470D01*
X66249482Y-86935517D01*
X66224453Y-86893193D01*
X66224452Y-86893191D01*
X66209288Y-86878027D01*
X66196447Y-86862993D01*
X66183841Y-86845643D01*
X66183836Y-86845638D01*
X66158827Y-86824950D01*
X66145950Y-86814297D01*
X66141577Y-86810317D01*
X61285260Y-81954000D01*
X62292001Y-81954000D01*
X62292001Y-82068967D01*
X62306801Y-82200329D01*
X62306803Y-82200340D01*
X62365078Y-82366880D01*
X62365079Y-82366883D01*
X62458951Y-82516279D01*
X62458952Y-82516281D01*
X62583718Y-82641047D01*
X62583720Y-82641048D01*
X62733116Y-82734920D01*
X62733119Y-82734921D01*
X62899660Y-82793196D01*
X63031033Y-82807999D01*
X63095999Y-82807998D01*
X63096000Y-82807998D01*
X63096000Y-81954000D01*
X63604000Y-81954000D01*
X63604000Y-82807999D01*
X63668968Y-82807999D01*
X63800329Y-82793198D01*
X63800340Y-82793196D01*
X63966880Y-82734921D01*
X63966883Y-82734920D01*
X64116279Y-82641048D01*
X64116281Y-82641047D01*
X64241047Y-82516281D01*
X64241048Y-82516279D01*
X64334920Y-82366883D01*
X64334921Y-82366880D01*
X64393196Y-82200339D01*
X64408000Y-82068967D01*
X64408000Y-81954000D01*
X63604000Y-81954000D01*
X63096000Y-81954000D01*
X62292001Y-81954000D01*
X61285260Y-81954000D01*
X60842969Y-81511709D01*
X60808943Y-81449397D01*
X60806754Y-81435784D01*
X60796059Y-81334027D01*
X60793542Y-81310072D01*
X60734527Y-81128444D01*
X60639040Y-80963056D01*
X60639038Y-80963054D01*
X60639034Y-80963048D01*
X60511255Y-80821135D01*
X60511256Y-80821135D01*
X60456193Y-80781130D01*
X60412839Y-80724907D01*
X60406764Y-80654171D01*
X60439896Y-80591379D01*
X60441084Y-80590174D01*
X61174046Y-79857212D01*
X61236356Y-79823188D01*
X61307171Y-79828253D01*
X61364007Y-79870800D01*
X61372258Y-79883309D01*
X61460958Y-80036941D01*
X61460965Y-80036951D01*
X61588744Y-80178864D01*
X61588747Y-80178866D01*
X61743248Y-80291118D01*
X61917712Y-80368794D01*
X62104513Y-80408500D01*
X62295487Y-80408500D01*
X62482288Y-80368794D01*
X62482288Y-80368793D01*
X62482292Y-80368793D01*
X62598707Y-80316961D01*
X62669073Y-80307526D01*
X62716991Y-80325379D01*
X62732901Y-80335376D01*
X62864249Y-80381337D01*
X62921940Y-80422714D01*
X62948102Y-80488714D01*
X62934429Y-80558382D01*
X62885262Y-80609598D01*
X62864248Y-80619194D01*
X62733119Y-80665078D01*
X62733116Y-80665079D01*
X62583720Y-80758951D01*
X62583718Y-80758952D01*
X62458952Y-80883718D01*
X62458951Y-80883720D01*
X62365079Y-81033116D01*
X62365078Y-81033119D01*
X62306803Y-81199660D01*
X62292000Y-81331032D01*
X62292000Y-81446000D01*
X64407999Y-81446000D01*
X64407998Y-81331032D01*
X64393198Y-81199670D01*
X64393196Y-81199659D01*
X64334921Y-81033119D01*
X64334920Y-81033116D01*
X64241048Y-80883720D01*
X64241047Y-80883718D01*
X64116281Y-80758952D01*
X64116279Y-80758951D01*
X63966883Y-80665079D01*
X63966880Y-80665078D01*
X63835751Y-80619194D01*
X63778059Y-80577816D01*
X63751897Y-80511816D01*
X63765570Y-80442148D01*
X63814737Y-80390932D01*
X63835742Y-80381339D01*
X63967099Y-80335376D01*
X64116596Y-80241441D01*
X64116595Y-80241441D01*
X64119695Y-80239494D01*
X64188016Y-80220188D01*
X64255929Y-80240883D01*
X64275826Y-80257086D01*
X65554595Y-81535855D01*
X65588621Y-81598167D01*
X65591500Y-81624949D01*
X65591500Y-82069004D01*
X65606310Y-82200448D01*
X65640413Y-82297908D01*
X65664624Y-82367099D01*
X65664625Y-82367101D01*
X65758558Y-82516596D01*
X65883403Y-82641441D01*
X66009773Y-82720844D01*
X66032901Y-82735376D01*
X66199552Y-82793690D01*
X66330996Y-82808500D01*
X66969004Y-82808500D01*
X67100448Y-82793690D01*
X67267099Y-82735376D01*
X67416596Y-82641441D01*
X67541441Y-82516596D01*
X67635376Y-82367099D01*
X67693690Y-82200448D01*
X67708500Y-82069004D01*
X67708500Y-81624948D01*
X67728502Y-81556828D01*
X67745400Y-81535859D01*
X69404386Y-79876872D01*
X69417129Y-79866665D01*
X69416969Y-79866471D01*
X69423074Y-79861419D01*
X69423080Y-79861416D01*
X69472945Y-79808314D01*
X69494927Y-79786333D01*
X69499470Y-79780475D01*
X69503308Y-79775980D01*
X69536972Y-79740133D01*
X69547310Y-79721327D01*
X69558152Y-79704823D01*
X69571304Y-79687868D01*
X69590832Y-79642737D01*
X69593441Y-79637414D01*
X69617124Y-79594337D01*
X69622457Y-79573562D01*
X69628856Y-79554869D01*
X69637380Y-79535176D01*
X69645074Y-79486591D01*
X69646271Y-79480810D01*
X69658500Y-79433188D01*
X69658500Y-79411741D01*
X69660051Y-79392030D01*
X69663406Y-79370848D01*
X69658780Y-79321903D01*
X69658500Y-79315971D01*
X69658500Y-77974759D01*
X69678502Y-77906638D01*
X69690865Y-77890447D01*
X69713937Y-77864824D01*
X69739040Y-77836944D01*
X69834527Y-77671556D01*
X69893542Y-77489928D01*
X69913504Y-77300000D01*
X69893542Y-77110072D01*
X69834527Y-76928444D01*
X69774025Y-76823652D01*
X69762881Y-76804349D01*
X69746000Y-76741349D01*
X69746000Y-75772000D01*
X69766002Y-75703879D01*
X69819658Y-75657386D01*
X69872000Y-75646000D01*
X70128000Y-75646000D01*
X70196121Y-75666002D01*
G37*
G04 #@! TD.AperFunction*
G04 #@! TA.AperFunction,Conductor*
G36*
X53886908Y-86892716D02*
G01*
X53919282Y-86955901D01*
X53921500Y-86979437D01*
X53921500Y-97485856D01*
X53901498Y-97553977D01*
X53847842Y-97600470D01*
X53821697Y-97609103D01*
X53717711Y-97631206D01*
X53543247Y-97708882D01*
X53388744Y-97821135D01*
X53260965Y-97963048D01*
X53260958Y-97963058D01*
X53165476Y-98128438D01*
X53165473Y-98128445D01*
X53106457Y-98310072D01*
X53086496Y-98499999D01*
X53106457Y-98689927D01*
X53136526Y-98782470D01*
X53165473Y-98871556D01*
X53165476Y-98871561D01*
X53260958Y-99036941D01*
X53260965Y-99036951D01*
X53388744Y-99178864D01*
X53388747Y-99178866D01*
X53543248Y-99291118D01*
X53717712Y-99368794D01*
X53904513Y-99408500D01*
X54095491Y-99408500D01*
X54226832Y-99380581D01*
X54269302Y-99371554D01*
X54340093Y-99376955D01*
X54396726Y-99419771D01*
X54421220Y-99486409D01*
X54421500Y-99494800D01*
X54421500Y-101453098D01*
X54401498Y-101521219D01*
X54347842Y-101567712D01*
X54277568Y-101577816D01*
X54254590Y-101572272D01*
X54232047Y-101564533D01*
X54214635Y-101558556D01*
X54214631Y-101558555D01*
X54214630Y-101558555D01*
X54170476Y-101551187D01*
X53992569Y-101521500D01*
X53767431Y-101521500D01*
X53561731Y-101555825D01*
X53491248Y-101547307D01*
X53451898Y-101520638D01*
X52795405Y-100864145D01*
X52761379Y-100801833D01*
X52758500Y-100775050D01*
X52758500Y-87006900D01*
X52778502Y-86938779D01*
X52832158Y-86892286D01*
X52902432Y-86882182D01*
X52925406Y-86887726D01*
X52965365Y-86901444D01*
X53187431Y-86938500D01*
X53187435Y-86938500D01*
X53412565Y-86938500D01*
X53412569Y-86938500D01*
X53634635Y-86901444D01*
X53754588Y-86860263D01*
X53825512Y-86857064D01*
X53886908Y-86892716D01*
G37*
G04 #@! TD.AperFunction*
G04 #@! TA.AperFunction,Conductor*
G36*
X64465477Y-74247840D02*
G01*
X64510540Y-74276801D01*
X64518189Y-74284450D01*
X64518196Y-74284455D01*
X64661394Y-74369143D01*
X64661397Y-74369143D01*
X64661399Y-74369145D01*
X64821169Y-74415562D01*
X64828157Y-74416112D01*
X64858494Y-74418500D01*
X64858498Y-74418500D01*
X66741506Y-74418500D01*
X66771846Y-74416112D01*
X66841326Y-74430706D01*
X66891886Y-74480547D01*
X66901339Y-74502090D01*
X66902112Y-74504425D01*
X66902113Y-74504426D01*
X66957885Y-74672738D01*
X66999999Y-74741016D01*
X67054823Y-74829898D01*
X67053197Y-74830900D01*
X67076107Y-74887695D01*
X67062853Y-74957444D01*
X67054747Y-74970055D01*
X67054823Y-74970102D01*
X67050971Y-74976346D01*
X67050970Y-74976348D01*
X67003788Y-75052842D01*
X66957885Y-75127262D01*
X66902113Y-75295572D01*
X66902112Y-75295579D01*
X66891500Y-75399446D01*
X66891500Y-76400544D01*
X66902112Y-76504425D01*
X66957885Y-76672738D01*
X67050970Y-76823652D01*
X67050975Y-76823658D01*
X67176341Y-76949024D01*
X67176347Y-76949029D01*
X67176348Y-76949030D01*
X67327262Y-77042115D01*
X67495574Y-77097887D01*
X67599455Y-77108500D01*
X67966686Y-77108499D01*
X68034806Y-77128501D01*
X68081299Y-77182156D01*
X68091996Y-77247669D01*
X68086496Y-77299999D01*
X68106457Y-77489927D01*
X68128471Y-77557678D01*
X68165473Y-77671556D01*
X68184741Y-77704929D01*
X68260961Y-77836946D01*
X68309135Y-77890447D01*
X68339853Y-77954454D01*
X68341500Y-77974759D01*
X68341500Y-79025048D01*
X68321498Y-79093169D01*
X68304595Y-79114143D01*
X67923595Y-79495143D01*
X67861283Y-79529169D01*
X67790468Y-79524104D01*
X67733632Y-79481557D01*
X67708821Y-79415037D01*
X67708500Y-79406048D01*
X67708500Y-78930995D01*
X67707559Y-78922649D01*
X67693690Y-78799552D01*
X67635376Y-78632901D01*
X67620227Y-78608791D01*
X67541441Y-78483403D01*
X67416596Y-78358558D01*
X67267101Y-78264625D01*
X67267099Y-78264624D01*
X67100448Y-78206310D01*
X66969004Y-78191500D01*
X66524950Y-78191500D01*
X66456829Y-78171498D01*
X66435855Y-78154595D01*
X66226875Y-77945615D01*
X66216664Y-77932869D01*
X66216471Y-77933030D01*
X66211417Y-77926921D01*
X66191732Y-77908436D01*
X66158314Y-77877054D01*
X66147417Y-77866157D01*
X66136343Y-77855082D01*
X66136325Y-77855066D01*
X66130482Y-77850534D01*
X66125967Y-77846678D01*
X66103463Y-77825546D01*
X66090133Y-77813028D01*
X66090130Y-77813026D01*
X66090125Y-77813023D01*
X66071338Y-77802694D01*
X66054818Y-77791843D01*
X66037867Y-77778695D01*
X65992739Y-77759166D01*
X65987421Y-77756561D01*
X65958851Y-77740855D01*
X65944338Y-77732876D01*
X65944335Y-77732875D01*
X65923568Y-77727543D01*
X65904865Y-77721140D01*
X65894703Y-77716743D01*
X65885176Y-77712620D01*
X65885174Y-77712619D01*
X65885175Y-77712619D01*
X65836619Y-77704929D01*
X65830804Y-77703725D01*
X65783188Y-77691500D01*
X65761741Y-77691500D01*
X65742032Y-77689949D01*
X65720848Y-77686594D01*
X65720847Y-77686594D01*
X65671906Y-77691220D01*
X65665973Y-77691500D01*
X61836611Y-77691500D01*
X61820379Y-77689708D01*
X61820356Y-77689958D01*
X61812463Y-77689211D01*
X61741877Y-77691430D01*
X61739658Y-77691500D01*
X61708568Y-77691500D01*
X61701222Y-77692427D01*
X61695309Y-77692893D01*
X61646172Y-77694437D01*
X61646170Y-77694437D01*
X61646169Y-77694438D01*
X61625571Y-77700421D01*
X61606221Y-77704428D01*
X61584940Y-77707116D01*
X61584935Y-77707118D01*
X61539214Y-77725219D01*
X61533599Y-77727141D01*
X61486406Y-77740852D01*
X61486399Y-77740855D01*
X61467937Y-77751773D01*
X61450191Y-77760466D01*
X61430248Y-77768362D01*
X61430245Y-77768364D01*
X61390470Y-77797262D01*
X61385508Y-77800521D01*
X61343194Y-77825546D01*
X61328022Y-77840717D01*
X61312996Y-77853550D01*
X61295644Y-77866157D01*
X61295643Y-77866158D01*
X61264299Y-77904045D01*
X61260303Y-77908436D01*
X58395611Y-80773127D01*
X58382865Y-80783340D01*
X58383025Y-80783533D01*
X58376921Y-80788582D01*
X58327054Y-80841685D01*
X58305071Y-80863668D01*
X58300527Y-80869525D01*
X58296678Y-80874031D01*
X58263029Y-80909865D01*
X58263027Y-80909867D01*
X58252691Y-80928667D01*
X58241843Y-80945180D01*
X58228699Y-80962126D01*
X58228694Y-80962135D01*
X58209172Y-81007247D01*
X58206560Y-81012577D01*
X58182877Y-81055660D01*
X58182873Y-81055670D01*
X58177541Y-81076436D01*
X58171139Y-81095136D01*
X58162620Y-81114820D01*
X58162619Y-81114824D01*
X58154928Y-81163384D01*
X58153724Y-81169197D01*
X58141500Y-81216810D01*
X58141500Y-81238258D01*
X58139949Y-81257967D01*
X58136594Y-81279150D01*
X58136594Y-81279152D01*
X58141220Y-81328094D01*
X58141500Y-81334027D01*
X58141500Y-85763389D01*
X58139708Y-85779620D01*
X58139958Y-85779644D01*
X58139211Y-85787536D01*
X58141500Y-85860341D01*
X58141500Y-85891430D01*
X58142427Y-85898776D01*
X58142893Y-85904690D01*
X58144437Y-85953829D01*
X58144438Y-85953832D01*
X58150421Y-85974429D01*
X58154428Y-85993780D01*
X58157117Y-86015060D01*
X58157117Y-86015062D01*
X58175216Y-86060778D01*
X58177139Y-86066394D01*
X58190853Y-86113597D01*
X58190853Y-86113598D01*
X58201771Y-86132058D01*
X58210468Y-86149811D01*
X58218364Y-86169755D01*
X58218367Y-86169760D01*
X58236352Y-86194513D01*
X58247265Y-86209532D01*
X58250521Y-86214490D01*
X58261408Y-86232900D01*
X58275547Y-86256807D01*
X58290714Y-86271974D01*
X58303552Y-86287005D01*
X58316158Y-86304356D01*
X58354034Y-86335690D01*
X58358427Y-86339687D01*
X58754595Y-86735854D01*
X58788620Y-86798167D01*
X58791500Y-86824950D01*
X58791500Y-87269004D01*
X58806310Y-87400448D01*
X58853691Y-87535855D01*
X58864624Y-87567099D01*
X58864625Y-87567101D01*
X58958558Y-87716596D01*
X59083403Y-87841441D01*
X59232895Y-87935373D01*
X59232897Y-87935373D01*
X59232901Y-87935376D01*
X59363494Y-87981072D01*
X59421181Y-88022448D01*
X59447343Y-88088448D01*
X59433671Y-88158115D01*
X59384503Y-88209331D01*
X59363490Y-88218928D01*
X59232899Y-88264624D01*
X59080303Y-88360506D01*
X59011982Y-88379811D01*
X58944069Y-88359115D01*
X58924173Y-88342913D01*
X57645405Y-87064145D01*
X57611379Y-87001833D01*
X57608500Y-86975050D01*
X57608500Y-86530995D01*
X57607559Y-86522649D01*
X57593690Y-86399552D01*
X57535376Y-86232901D01*
X57495702Y-86169760D01*
X57441441Y-86083403D01*
X57316599Y-85958561D01*
X57309073Y-85953832D01*
X57267461Y-85927685D01*
X57220425Y-85874507D01*
X57208499Y-85821003D01*
X57208499Y-78374948D01*
X57228501Y-78306828D01*
X57245395Y-78285863D01*
X57785857Y-77745401D01*
X57848167Y-77711378D01*
X57874950Y-77708499D01*
X58500544Y-77708499D01*
X58604426Y-77697887D01*
X58772738Y-77642115D01*
X58923652Y-77549030D01*
X59049030Y-77423652D01*
X59142115Y-77272738D01*
X59157797Y-77225410D01*
X59198211Y-77167039D01*
X59263767Y-77139783D01*
X59333653Y-77152296D01*
X59354630Y-77165485D01*
X59362132Y-77171304D01*
X59407254Y-77190829D01*
X59412580Y-77193439D01*
X59455659Y-77217123D01*
X59455663Y-77217124D01*
X59476432Y-77222456D01*
X59495134Y-77228859D01*
X59514824Y-77237380D01*
X59563395Y-77245072D01*
X59569189Y-77246271D01*
X59616812Y-77258500D01*
X59638259Y-77258500D01*
X59657967Y-77260050D01*
X59679152Y-77263406D01*
X59716880Y-77259839D01*
X59728094Y-77258780D01*
X59734027Y-77258500D01*
X61313389Y-77258500D01*
X61329620Y-77260291D01*
X61329644Y-77260042D01*
X61337536Y-77260788D01*
X61337536Y-77260787D01*
X61337537Y-77260788D01*
X61410342Y-77258500D01*
X61441432Y-77258500D01*
X61448779Y-77257571D01*
X61454682Y-77257106D01*
X61503831Y-77255562D01*
X61524421Y-77249579D01*
X61543776Y-77245571D01*
X61565064Y-77242882D01*
X61610796Y-77224775D01*
X61616380Y-77222863D01*
X61663600Y-77209145D01*
X61682050Y-77198232D01*
X61699813Y-77189530D01*
X61719756Y-77181635D01*
X61759537Y-77152730D01*
X61764487Y-77149480D01*
X61785637Y-77136972D01*
X61806807Y-77124453D01*
X61821977Y-77109281D01*
X61837005Y-77096447D01*
X61854357Y-77083841D01*
X61885702Y-77045950D01*
X61889670Y-77041588D01*
X62185857Y-76745401D01*
X62248167Y-76711378D01*
X62274950Y-76708499D01*
X62900544Y-76708499D01*
X63004426Y-76697887D01*
X63172738Y-76642115D01*
X63323652Y-76549030D01*
X63449030Y-76423652D01*
X63542115Y-76272738D01*
X63597887Y-76104426D01*
X63608500Y-76000545D01*
X63608499Y-75052841D01*
X63628501Y-74984721D01*
X63645399Y-74963752D01*
X64332352Y-74276799D01*
X64394662Y-74242775D01*
X64465477Y-74247840D01*
G37*
G04 #@! TD.AperFunction*
G04 #@! TA.AperFunction,Conductor*
G36*
X56894643Y-72378502D02*
G01*
X56915617Y-72395405D01*
X57621443Y-73101231D01*
X57655469Y-73163543D01*
X57650404Y-73234358D01*
X57607857Y-73291194D01*
X57571982Y-73309930D01*
X57533711Y-73322612D01*
X57427261Y-73357885D01*
X57276347Y-73450970D01*
X57276341Y-73450975D01*
X57188741Y-73538576D01*
X57126429Y-73572602D01*
X57055614Y-73567537D01*
X57010551Y-73538576D01*
X56923345Y-73451370D01*
X56923339Y-73451365D01*
X56772525Y-73358342D01*
X56604321Y-73302606D01*
X56604318Y-73302605D01*
X56500516Y-73292000D01*
X56354000Y-73292000D01*
X56354000Y-74628000D01*
X56333998Y-74696121D01*
X56280342Y-74742614D01*
X56228000Y-74754000D01*
X55972000Y-74754000D01*
X55903879Y-74733998D01*
X55857386Y-74680342D01*
X55846000Y-74628000D01*
X55846000Y-73292000D01*
X55699483Y-73292000D01*
X55595681Y-73302605D01*
X55595678Y-73302606D01*
X55427474Y-73358342D01*
X55276660Y-73451365D01*
X55276654Y-73451370D01*
X55151370Y-73576654D01*
X55151365Y-73576660D01*
X55058342Y-73727474D01*
X55002604Y-73895683D01*
X55002489Y-73896222D01*
X55002326Y-73896521D01*
X55000443Y-73902206D01*
X54999428Y-73901869D01*
X54968663Y-73958643D01*
X54906460Y-73992867D01*
X54835629Y-73988029D01*
X54790188Y-73958928D01*
X54516359Y-73685099D01*
X54482333Y-73622787D01*
X54487398Y-73551972D01*
X54496708Y-73533552D01*
X54496380Y-73533374D01*
X54498857Y-73528796D01*
X54498857Y-73528794D01*
X54498860Y-73528791D01*
X54589296Y-73322616D01*
X54644564Y-73104368D01*
X54663156Y-72880000D01*
X54644564Y-72655632D01*
X54628914Y-72593831D01*
X54609061Y-72515431D01*
X54611728Y-72444485D01*
X54652328Y-72386243D01*
X54717972Y-72359197D01*
X54731205Y-72358500D01*
X56826522Y-72358500D01*
X56894643Y-72378502D01*
G37*
G04 #@! TD.AperFunction*
G04 #@! TA.AperFunction,Conductor*
G36*
X63398933Y-69968598D02*
G01*
X63455769Y-70011145D01*
X63474734Y-70047716D01*
X63482625Y-70072000D01*
X63514973Y-70171556D01*
X63514974Y-70171557D01*
X63514976Y-70171561D01*
X63610458Y-70336941D01*
X63610465Y-70336951D01*
X63738244Y-70478864D01*
X63738247Y-70478866D01*
X63892748Y-70591118D01*
X64067212Y-70668794D01*
X64165862Y-70689763D01*
X64228335Y-70723490D01*
X64262656Y-70785639D01*
X64262026Y-70805372D01*
X64270006Y-70816000D01*
X65928000Y-70816000D01*
X65996121Y-70836002D01*
X66042614Y-70889658D01*
X66054000Y-70942000D01*
X66054000Y-71174507D01*
X66033998Y-71242628D01*
X65983141Y-71286695D01*
X65983217Y-71286824D01*
X65982511Y-71287241D01*
X65980342Y-71289121D01*
X65978053Y-71290139D01*
X65976402Y-71290853D01*
X65957934Y-71301774D01*
X65940201Y-71310462D01*
X65931806Y-71313787D01*
X65928372Y-71315146D01*
X65881976Y-71324000D01*
X64270007Y-71324000D01*
X64316318Y-71483401D01*
X64400946Y-71626498D01*
X64401616Y-71627362D01*
X64401930Y-71628162D01*
X64404981Y-71633321D01*
X64404148Y-71633813D01*
X64427563Y-71693448D01*
X64413662Y-71763070D01*
X64401625Y-71781802D01*
X64400551Y-71783186D01*
X64315856Y-71926396D01*
X64269437Y-72086170D01*
X64266500Y-72123494D01*
X64266500Y-72427942D01*
X64246498Y-72496063D01*
X64229595Y-72517037D01*
X62492036Y-74254595D01*
X62429724Y-74288621D01*
X62402941Y-74291500D01*
X62346611Y-74291500D01*
X62278490Y-74271498D01*
X62231997Y-74217842D01*
X62221893Y-74147568D01*
X62238158Y-74101360D01*
X62245183Y-74089482D01*
X62284145Y-74023601D01*
X62330562Y-73863831D01*
X62333500Y-73826502D01*
X62333500Y-73393498D01*
X62330562Y-73356169D01*
X62284145Y-73196399D01*
X62284143Y-73196397D01*
X62284143Y-73196394D01*
X62199456Y-73053198D01*
X62199455Y-73053197D01*
X62199453Y-73053193D01*
X62199449Y-73053189D01*
X62198708Y-73052233D01*
X62198356Y-73051337D01*
X62195418Y-73046369D01*
X62196219Y-73045895D01*
X62172756Y-72986150D01*
X62186652Y-72916526D01*
X62198708Y-72897767D01*
X62199445Y-72896814D01*
X62199453Y-72896807D01*
X62284145Y-72753601D01*
X62330562Y-72593831D01*
X62333500Y-72556502D01*
X62333500Y-72123498D01*
X62330562Y-72086169D01*
X62284145Y-71926399D01*
X62284143Y-71926397D01*
X62284143Y-71926394D01*
X62199456Y-71783198D01*
X62199455Y-71783197D01*
X62199453Y-71783193D01*
X62199449Y-71783189D01*
X62198708Y-71782233D01*
X62198356Y-71781337D01*
X62195418Y-71776369D01*
X62196219Y-71775895D01*
X62172756Y-71716150D01*
X62186652Y-71646526D01*
X62198708Y-71627767D01*
X62199445Y-71626814D01*
X62199453Y-71626807D01*
X62284145Y-71483601D01*
X62330562Y-71323831D01*
X62332298Y-71301774D01*
X62333500Y-71286506D01*
X62333500Y-71142168D01*
X62333499Y-70982055D01*
X62353501Y-70913936D01*
X62370399Y-70892966D01*
X63265808Y-69997557D01*
X63328118Y-69963533D01*
X63398933Y-69968598D01*
G37*
G04 #@! TD.AperFunction*
G04 #@! TA.AperFunction,Conductor*
G36*
X55409532Y-66188392D02*
G01*
X55466368Y-66230939D01*
X55491179Y-66297459D01*
X55491500Y-66306447D01*
X55491500Y-66500544D01*
X55502112Y-66604425D01*
X55534842Y-66703197D01*
X55557885Y-66772738D01*
X55637221Y-66901362D01*
X55654823Y-66929898D01*
X55653197Y-66930900D01*
X55676107Y-66987695D01*
X55662853Y-67057444D01*
X55654747Y-67070055D01*
X55654823Y-67070102D01*
X55557885Y-67227262D01*
X55502113Y-67395572D01*
X55502112Y-67395579D01*
X55491500Y-67499446D01*
X55491500Y-68500544D01*
X55502112Y-68604425D01*
X55557885Y-68772738D01*
X55650970Y-68923652D01*
X55650975Y-68923658D01*
X55713576Y-68986259D01*
X55747602Y-69048571D01*
X55742537Y-69119386D01*
X55713576Y-69164449D01*
X55626370Y-69251654D01*
X55626365Y-69251660D01*
X55533342Y-69402474D01*
X55477606Y-69570678D01*
X55477605Y-69570681D01*
X55467000Y-69674483D01*
X55467000Y-69946000D01*
X56690500Y-69946000D01*
X56758621Y-69966002D01*
X56805114Y-70019658D01*
X56816500Y-70072000D01*
X56816500Y-70328000D01*
X56796498Y-70396121D01*
X56742842Y-70442614D01*
X56690500Y-70454000D01*
X55467000Y-70454000D01*
X55467000Y-70725516D01*
X55477605Y-70829318D01*
X55477607Y-70829327D01*
X55493029Y-70875866D01*
X55495470Y-70946821D01*
X55459162Y-71007831D01*
X55395634Y-71039527D01*
X55373425Y-71041500D01*
X54984949Y-71041500D01*
X54916828Y-71021498D01*
X54895854Y-71004595D01*
X54657010Y-70765751D01*
X54622984Y-70703439D01*
X54623960Y-70645726D01*
X54644564Y-70564368D01*
X54663156Y-70340000D01*
X54644564Y-70115632D01*
X54618104Y-70011145D01*
X54589297Y-69897387D01*
X54589296Y-69897386D01*
X54589296Y-69897384D01*
X54498860Y-69691209D01*
X54463407Y-69636944D01*
X54375724Y-69502734D01*
X54375719Y-69502729D01*
X54325019Y-69447655D01*
X54232524Y-69347179D01*
X54201103Y-69283514D01*
X54209090Y-69212968D01*
X54253948Y-69157939D01*
X54281183Y-69143789D01*
X54396204Y-69100889D01*
X54401492Y-69096931D01*
X54513261Y-69013261D01*
X54600887Y-68896207D01*
X54600887Y-68896206D01*
X54600889Y-68896204D01*
X54651989Y-68759201D01*
X54652834Y-68751348D01*
X54658499Y-68698649D01*
X54658500Y-68698632D01*
X54658500Y-66901366D01*
X54658319Y-66897987D01*
X54659191Y-66897940D01*
X54671129Y-66831750D01*
X54694707Y-66799051D01*
X55276407Y-66217351D01*
X55338717Y-66183327D01*
X55409532Y-66188392D01*
G37*
G04 #@! TD.AperFunction*
G04 #@! TA.AperFunction,Conductor*
G36*
X68507416Y-57798502D02*
G01*
X68544778Y-57835585D01*
X68624275Y-57957264D01*
X68624279Y-57957270D01*
X68776762Y-58122908D01*
X68782297Y-58127216D01*
X68954424Y-58261189D01*
X68987680Y-58279186D01*
X69038071Y-58329200D01*
X69053423Y-58398516D01*
X69028862Y-58465129D01*
X68987680Y-58500813D01*
X68954426Y-58518810D01*
X68954424Y-58518811D01*
X68776762Y-58657091D01*
X68624279Y-58822729D01*
X68624275Y-58822734D01*
X68501141Y-59011206D01*
X68410703Y-59217386D01*
X68410702Y-59217387D01*
X68355437Y-59435624D01*
X68336844Y-59660000D01*
X68355437Y-59884375D01*
X68410702Y-60102612D01*
X68410703Y-60102613D01*
X68501141Y-60308793D01*
X68624275Y-60497265D01*
X68624279Y-60497270D01*
X68776762Y-60662908D01*
X68831331Y-60705381D01*
X68954424Y-60801189D01*
X68987680Y-60819186D01*
X69038070Y-60869196D01*
X69053423Y-60938513D01*
X69028864Y-61005126D01*
X68987683Y-61040811D01*
X68954430Y-61058807D01*
X68954424Y-61058811D01*
X68776762Y-61197091D01*
X68624279Y-61362729D01*
X68624275Y-61362734D01*
X68501141Y-61551206D01*
X68410703Y-61757386D01*
X68410702Y-61757387D01*
X68355437Y-61975624D01*
X68336844Y-62200000D01*
X68355437Y-62424375D01*
X68410702Y-62642612D01*
X68410703Y-62642613D01*
X68410704Y-62642616D01*
X68494163Y-62832885D01*
X68501141Y-62848793D01*
X68624275Y-63037265D01*
X68624279Y-63037270D01*
X68776762Y-63202908D01*
X68795356Y-63217380D01*
X68954424Y-63341189D01*
X69152426Y-63448342D01*
X69153573Y-63448735D01*
X69153978Y-63449022D01*
X69157200Y-63450436D01*
X69156909Y-63451098D01*
X69211509Y-63489770D01*
X69238064Y-63555614D01*
X69224805Y-63625361D01*
X69221784Y-63630910D01*
X69165476Y-63728438D01*
X69165473Y-63728445D01*
X69106457Y-63910072D01*
X69086496Y-64099999D01*
X69106457Y-64289927D01*
X69109773Y-64300132D01*
X69111799Y-64371100D01*
X69075135Y-64431897D01*
X69011423Y-64463221D01*
X68940889Y-64455127D01*
X68900844Y-64428161D01*
X68823658Y-64350975D01*
X68823652Y-64350970D01*
X68823651Y-64350970D01*
X68672738Y-64257885D01*
X68588581Y-64229998D01*
X68504427Y-64202113D01*
X68504420Y-64202112D01*
X68400553Y-64191500D01*
X67599455Y-64191500D01*
X67495574Y-64202112D01*
X67327261Y-64257885D01*
X67176347Y-64350970D01*
X67176341Y-64350975D01*
X67050975Y-64476341D01*
X67050970Y-64476347D01*
X66957885Y-64627262D01*
X66902113Y-64795572D01*
X66902112Y-64795579D01*
X66891500Y-64899446D01*
X66891500Y-65056999D01*
X66871498Y-65125120D01*
X66817842Y-65171613D01*
X66755612Y-65182610D01*
X66741506Y-65181500D01*
X66741502Y-65181500D01*
X64858498Y-65181500D01*
X64858494Y-65181500D01*
X64821170Y-65184437D01*
X64661394Y-65230856D01*
X64518196Y-65315544D01*
X64518189Y-65315549D01*
X64400549Y-65433189D01*
X64400544Y-65433196D01*
X64315856Y-65576394D01*
X64269437Y-65736170D01*
X64266500Y-65773494D01*
X64266500Y-66206506D01*
X64269437Y-66243829D01*
X64315856Y-66403605D01*
X64400543Y-66546802D01*
X64401298Y-66547775D01*
X64401652Y-66548676D01*
X64404582Y-66553631D01*
X64403782Y-66554103D01*
X64427244Y-66613861D01*
X64413342Y-66683483D01*
X64401298Y-66702225D01*
X64400543Y-66703197D01*
X64315856Y-66846394D01*
X64269437Y-67006170D01*
X64266500Y-67043494D01*
X64266500Y-67476506D01*
X64269437Y-67513829D01*
X64315856Y-67673605D01*
X64400544Y-67816803D01*
X64401615Y-67818184D01*
X64402117Y-67819463D01*
X64404582Y-67823631D01*
X64403909Y-67824028D01*
X64427562Y-67884270D01*
X64413662Y-67953892D01*
X64401614Y-67972639D01*
X64400946Y-67973499D01*
X64316318Y-68116598D01*
X64270007Y-68276000D01*
X65928000Y-68276000D01*
X65996121Y-68296002D01*
X66042614Y-68349658D01*
X66054000Y-68402000D01*
X66054000Y-68658000D01*
X66033998Y-68726121D01*
X65980342Y-68772614D01*
X65928000Y-68784000D01*
X64270007Y-68784000D01*
X64260533Y-68796616D01*
X64260458Y-68822836D01*
X64221903Y-68882452D01*
X64165862Y-68910237D01*
X64067211Y-68931206D01*
X63971411Y-68973859D01*
X63892748Y-69008882D01*
X63892746Y-69008882D01*
X63886716Y-69011568D01*
X63885591Y-69009043D01*
X63828418Y-69022872D01*
X63761342Y-68999606D01*
X63717493Y-68943769D01*
X63708499Y-68897024D01*
X63708499Y-58347781D01*
X63710292Y-58331546D01*
X63710042Y-58331523D01*
X63710787Y-58323632D01*
X63710789Y-58323624D01*
X63708500Y-58250800D01*
X63708500Y-58219729D01*
X63707569Y-58212370D01*
X63707106Y-58206483D01*
X63705562Y-58157330D01*
X63699579Y-58136737D01*
X63695571Y-58117379D01*
X63692882Y-58096100D01*
X63692882Y-58096097D01*
X63676801Y-58055482D01*
X63670323Y-57984785D01*
X63703095Y-57921805D01*
X63764714Y-57886541D01*
X63835617Y-57890189D01*
X63893292Y-57931590D01*
X63901195Y-57942954D01*
X63950970Y-58023652D01*
X63950975Y-58023658D01*
X64076341Y-58149024D01*
X64076347Y-58149029D01*
X64076348Y-58149030D01*
X64227262Y-58242115D01*
X64395574Y-58297887D01*
X64499455Y-58308500D01*
X65300544Y-58308499D01*
X65404426Y-58297887D01*
X65572738Y-58242115D01*
X65723652Y-58149030D01*
X65755303Y-58117379D01*
X65810905Y-58061778D01*
X65873217Y-58027752D01*
X65944032Y-58032817D01*
X65989095Y-58061778D01*
X66076341Y-58149024D01*
X66076347Y-58149029D01*
X66076348Y-58149030D01*
X66227262Y-58242115D01*
X66395574Y-58297887D01*
X66499455Y-58308500D01*
X67300544Y-58308499D01*
X67404426Y-58297887D01*
X67572738Y-58242115D01*
X67723652Y-58149030D01*
X67849030Y-58023652D01*
X67942115Y-57872738D01*
X67942116Y-57872735D01*
X67944725Y-57864863D01*
X67985141Y-57806493D01*
X68050698Y-57779239D01*
X68064328Y-57778500D01*
X68439295Y-57778500D01*
X68507416Y-57798502D01*
G37*
G04 #@! TD.AperFunction*
G04 #@! TA.AperFunction,Conductor*
G36*
X70941621Y-37020502D02*
G01*
X70988114Y-37074158D01*
X70999500Y-37126500D01*
X70999500Y-48100204D01*
X70979498Y-48168325D01*
X70925842Y-48214818D01*
X70855568Y-48224922D01*
X70804038Y-48203577D01*
X70803876Y-48203875D01*
X70801105Y-48202362D01*
X70797993Y-48201073D01*
X70795968Y-48199557D01*
X70795964Y-48199555D01*
X70659093Y-48148505D01*
X70598597Y-48142000D01*
X69954000Y-48142000D01*
X69954000Y-48885966D01*
X69933998Y-48954087D01*
X69880342Y-49000580D01*
X69810069Y-49010683D01*
X69810068Y-49010683D01*
X69735768Y-49000000D01*
X69735763Y-49000000D01*
X69664237Y-49000000D01*
X69664231Y-49000000D01*
X69589932Y-49010683D01*
X69519658Y-49000580D01*
X69466002Y-48954087D01*
X69446000Y-48885966D01*
X69446000Y-48142000D01*
X68801402Y-48142000D01*
X68740906Y-48148505D01*
X68604035Y-48199555D01*
X68604034Y-48199555D01*
X68487095Y-48287095D01*
X68399555Y-48404034D01*
X68399555Y-48404035D01*
X68348505Y-48540906D01*
X68342000Y-48601402D01*
X68342000Y-49246000D01*
X69085156Y-49246000D01*
X69153277Y-49266002D01*
X69199770Y-49319658D01*
X69209874Y-49389932D01*
X69206053Y-49407496D01*
X69200000Y-49428111D01*
X69200000Y-49571888D01*
X69206053Y-49592504D01*
X69206052Y-49663500D01*
X69167667Y-49723226D01*
X69103086Y-49752718D01*
X69085156Y-49754000D01*
X68342000Y-49754000D01*
X68342000Y-50398597D01*
X68348505Y-50459093D01*
X68399555Y-50595964D01*
X68399555Y-50595965D01*
X68487095Y-50712904D01*
X68604034Y-50800444D01*
X68719172Y-50843388D01*
X68776008Y-50885935D01*
X68800819Y-50952455D01*
X68785728Y-51021829D01*
X68767841Y-51046782D01*
X68624280Y-51202729D01*
X68624275Y-51202735D01*
X68544778Y-51324415D01*
X68490774Y-51370504D01*
X68439295Y-51381500D01*
X68045892Y-51381500D01*
X67977771Y-51361498D01*
X67938652Y-51321648D01*
X67849030Y-51176348D01*
X67849029Y-51176347D01*
X67849024Y-51176341D01*
X67723658Y-51050975D01*
X67723652Y-51050970D01*
X67716862Y-51046782D01*
X67572738Y-50957885D01*
X67435987Y-50912571D01*
X67404427Y-50902113D01*
X67404420Y-50902112D01*
X67300553Y-50891500D01*
X66499455Y-50891500D01*
X66395574Y-50902112D01*
X66227261Y-50957885D01*
X66076347Y-51050970D01*
X66076341Y-51050975D01*
X65989095Y-51138222D01*
X65926783Y-51172248D01*
X65855968Y-51167183D01*
X65810905Y-51138222D01*
X65723658Y-51050975D01*
X65723652Y-51050970D01*
X65716862Y-51046782D01*
X65572738Y-50957885D01*
X65435987Y-50912571D01*
X65404427Y-50902113D01*
X65404420Y-50902112D01*
X65300553Y-50891500D01*
X64499455Y-50891500D01*
X64395574Y-50902112D01*
X64227261Y-50957885D01*
X64076347Y-51050970D01*
X64076341Y-51050975D01*
X63950975Y-51176341D01*
X63950970Y-51176347D01*
X63932331Y-51206566D01*
X63861349Y-51321647D01*
X63857884Y-51327264D01*
X63831679Y-51406345D01*
X63791265Y-51464716D01*
X63747235Y-51487706D01*
X63736405Y-51490852D01*
X63736399Y-51490855D01*
X63717937Y-51501773D01*
X63700191Y-51510466D01*
X63680248Y-51518362D01*
X63680245Y-51518364D01*
X63640470Y-51547262D01*
X63635508Y-51550521D01*
X63593194Y-51575546D01*
X63578022Y-51590717D01*
X63562996Y-51603550D01*
X63545644Y-51616157D01*
X63545643Y-51616158D01*
X63514299Y-51654045D01*
X63510303Y-51658436D01*
X61795111Y-53373627D01*
X61782365Y-53383840D01*
X61782525Y-53384033D01*
X61776421Y-53389082D01*
X61726554Y-53442185D01*
X61704571Y-53464168D01*
X61700027Y-53470025D01*
X61696178Y-53474531D01*
X61662529Y-53510365D01*
X61662527Y-53510367D01*
X61652191Y-53529167D01*
X61641343Y-53545680D01*
X61628199Y-53562626D01*
X61628194Y-53562635D01*
X61608672Y-53607747D01*
X61606060Y-53613077D01*
X61582377Y-53656160D01*
X61582373Y-53656170D01*
X61577041Y-53676936D01*
X61570639Y-53695636D01*
X61562120Y-53715320D01*
X61562119Y-53715324D01*
X61554428Y-53763884D01*
X61553224Y-53769697D01*
X61541000Y-53817310D01*
X61541000Y-53838758D01*
X61539449Y-53858467D01*
X61536094Y-53879650D01*
X61536094Y-53879652D01*
X61540720Y-53928594D01*
X61541000Y-53934527D01*
X61541000Y-57324050D01*
X61539208Y-57340281D01*
X61539458Y-57340305D01*
X61538711Y-57348197D01*
X61541000Y-57421002D01*
X61541000Y-57452091D01*
X61541927Y-57459437D01*
X61542393Y-57465351D01*
X61543937Y-57514490D01*
X61543938Y-57514493D01*
X61549921Y-57535090D01*
X61553928Y-57554441D01*
X61556617Y-57575721D01*
X61556617Y-57575723D01*
X61574716Y-57621439D01*
X61576639Y-57627055D01*
X61590353Y-57674258D01*
X61590353Y-57674259D01*
X61601271Y-57692719D01*
X61609968Y-57710472D01*
X61617864Y-57730416D01*
X61617867Y-57730421D01*
X61635852Y-57755174D01*
X61646765Y-57770193D01*
X61650021Y-57775151D01*
X61668556Y-57806493D01*
X61675047Y-57817468D01*
X61690214Y-57832635D01*
X61703052Y-57847666D01*
X61715658Y-57865017D01*
X61753539Y-57896355D01*
X61757920Y-57900341D01*
X62064047Y-58206468D01*
X62354594Y-58497015D01*
X62388620Y-58559327D01*
X62391499Y-58586110D01*
X62391499Y-65321048D01*
X62371497Y-65389169D01*
X62317841Y-65435662D01*
X62247567Y-65445766D01*
X62182987Y-65416272D01*
X62176404Y-65410143D01*
X62081810Y-65315549D01*
X62081803Y-65315544D01*
X61938605Y-65230856D01*
X61778829Y-65184437D01*
X61741506Y-65181500D01*
X61741502Y-65181500D01*
X59858498Y-65181500D01*
X59858494Y-65181500D01*
X59821170Y-65184437D01*
X59821164Y-65184438D01*
X59738986Y-65208313D01*
X59667990Y-65208110D01*
X59608374Y-65169555D01*
X59596597Y-65153466D01*
X59562054Y-65097463D01*
X59543317Y-65028984D01*
X59564577Y-64961245D01*
X59570463Y-64953162D01*
X59574021Y-64948660D01*
X59574030Y-64948652D01*
X59667115Y-64797738D01*
X59722887Y-64629426D01*
X59733500Y-64525545D01*
X59733499Y-63474456D01*
X59730871Y-63448735D01*
X59722887Y-63370574D01*
X59696780Y-63291788D01*
X59667115Y-63202262D01*
X59574030Y-63051348D01*
X59574029Y-63051347D01*
X59574024Y-63051341D01*
X59448658Y-62925975D01*
X59448652Y-62925970D01*
X59448651Y-62925969D01*
X59297738Y-62832885D01*
X59213582Y-62804998D01*
X59129427Y-62777113D01*
X59129420Y-62777112D01*
X59025553Y-62766500D01*
X58249455Y-62766500D01*
X58145574Y-62777112D01*
X57977261Y-62832885D01*
X57826347Y-62925970D01*
X57826341Y-62925975D01*
X57700972Y-63051344D01*
X57698834Y-63054049D01*
X57696895Y-63055421D01*
X57695780Y-63056537D01*
X57695589Y-63056346D01*
X57640892Y-63095076D01*
X57569967Y-63098264D01*
X57508577Y-63062602D01*
X57501166Y-63054049D01*
X57499027Y-63051344D01*
X57373658Y-62925975D01*
X57373652Y-62925970D01*
X57373651Y-62925970D01*
X57222738Y-62832885D01*
X57138582Y-62804998D01*
X57054427Y-62777113D01*
X57054420Y-62777112D01*
X56950553Y-62766500D01*
X56174455Y-62766500D01*
X56070574Y-62777112D01*
X55902261Y-62832885D01*
X55751347Y-62925970D01*
X55751341Y-62925975D01*
X55625975Y-63051341D01*
X55625970Y-63051347D01*
X55532885Y-63202262D01*
X55477113Y-63370572D01*
X55477112Y-63370579D01*
X55466500Y-63474446D01*
X55466500Y-64112549D01*
X55446498Y-64180670D01*
X55429595Y-64201644D01*
X53226645Y-66404595D01*
X53164333Y-66438620D01*
X53137550Y-66441500D01*
X52401350Y-66441500D01*
X52340803Y-66448009D01*
X52340795Y-66448011D01*
X52203797Y-66499110D01*
X52202009Y-66500449D01*
X52199915Y-66501229D01*
X52195882Y-66503432D01*
X52195565Y-66502852D01*
X52135488Y-66525259D01*
X52066114Y-66510167D01*
X52015912Y-66459965D01*
X52000500Y-66399580D01*
X52000500Y-37126500D01*
X52020502Y-37058379D01*
X52074158Y-37011886D01*
X52126500Y-37000500D01*
X70873500Y-37000500D01*
X70941621Y-37020502D01*
G37*
G04 #@! TD.AperFunction*
M02*
