G04 #@! TF.GenerationSoftware,KiCad,Pcbnew,7.0.7-7.0.7~ubuntu22.04.1*
G04 #@! TF.CreationDate,2023-10-11T21:50:17+02:00*
G04 #@! TF.ProjectId,RP2040-VCO,52503230-3430-42d5-9643-4f2e6b696361,rev?*
G04 #@! TF.SameCoordinates,Original*
G04 #@! TF.FileFunction,Copper,L2,Bot*
G04 #@! TF.FilePolarity,Positive*
%FSLAX46Y46*%
G04 Gerber Fmt 4.6, Leading zero omitted, Abs format (unit mm)*
G04 Created by KiCad (PCBNEW 7.0.7-7.0.7~ubuntu22.04.1) date 2023-10-11 21:50:17*
%MOMM*%
%LPD*%
G01*
G04 APERTURE LIST*
G04 #@! TA.AperFunction,ComponentPad*
%ADD10R,1.700000X1.700000*%
G04 #@! TD*
G04 #@! TA.AperFunction,ComponentPad*
%ADD11O,1.700000X1.700000*%
G04 #@! TD*
G04 #@! TA.AperFunction,ComponentPad*
%ADD12C,1.700000*%
G04 #@! TD*
G04 #@! TA.AperFunction,ViaPad*
%ADD13C,0.800000*%
G04 #@! TD*
G04 #@! TA.AperFunction,Conductor*
%ADD14C,0.300000*%
G04 #@! TD*
G04 APERTURE END LIST*
D10*
X69700000Y-49500000D03*
D11*
X69700000Y-52040000D03*
X69700000Y-54580000D03*
X69700000Y-57120000D03*
X69700000Y-59660000D03*
X69700000Y-62200000D03*
D10*
X53300000Y-67800000D03*
D11*
X53300000Y-70340000D03*
X53300000Y-72880000D03*
X53300000Y-75420000D03*
X53300000Y-77960000D03*
X53300000Y-80500000D03*
X53300000Y-83040000D03*
X53300000Y-85580000D03*
G04 #@! TA.AperFunction,ComponentPad*
G36*
G01*
X59450000Y-141480000D02*
X59450000Y-140280000D01*
G75*
G02*
X59700000Y-140030000I250000J0D01*
G01*
X60900000Y-140030000D01*
G75*
G02*
X61150000Y-140280000I0J-250000D01*
G01*
X61150000Y-141480000D01*
G75*
G02*
X60900000Y-141730000I-250000J0D01*
G01*
X59700000Y-141730000D01*
G75*
G02*
X59450000Y-141480000I0J250000D01*
G01*
G37*
G04 #@! TD.AperFunction*
D12*
X62840000Y-140880000D03*
X60300000Y-138340000D03*
X62840000Y-138340000D03*
X60300000Y-135800000D03*
X62840000Y-135800000D03*
X60300000Y-133260000D03*
X62840000Y-133260000D03*
X60300000Y-130720000D03*
X62840000Y-130720000D03*
D10*
X53880000Y-118120000D03*
D12*
X53880000Y-115580000D03*
X53880000Y-113040000D03*
X53880000Y-110500000D03*
X53880000Y-107960000D03*
X53880000Y-105420000D03*
X53880000Y-102880000D03*
X69120000Y-102880000D03*
X69120000Y-105420000D03*
X69120000Y-107960000D03*
X69120000Y-110500000D03*
X69120000Y-113040000D03*
X69120000Y-115580000D03*
X69120000Y-118120000D03*
D13*
X56200000Y-92300000D03*
X55900000Y-49300000D03*
X64600000Y-87900000D03*
X59400000Y-98300000D03*
X56200000Y-91400000D03*
X65900000Y-76200000D03*
X67000000Y-132800000D03*
X59200000Y-119900000D03*
X62200000Y-62500000D03*
X53600000Y-89400000D03*
X65500000Y-59600000D03*
X53600000Y-90300000D03*
X55200000Y-70200000D03*
X67500000Y-133700000D03*
X66000000Y-60500000D03*
X56200000Y-93200000D03*
X64600000Y-89700000D03*
X69300000Y-88000000D03*
X55900000Y-50200000D03*
X69300000Y-87100000D03*
X64200000Y-68500000D03*
X53600000Y-91200000D03*
X59700000Y-120700000D03*
X66100000Y-85400000D03*
X69300000Y-88900000D03*
X66100000Y-86300000D03*
X59800000Y-84000000D03*
X67100000Y-109400000D03*
X58600000Y-98800000D03*
X58600000Y-97800000D03*
X59800000Y-83100000D03*
X64600000Y-88800000D03*
X56100000Y-73000000D03*
X68000000Y-132800000D03*
X66500000Y-59600000D03*
X66200000Y-109400000D03*
X55000000Y-49300000D03*
X60200000Y-119900000D03*
X55000000Y-50200000D03*
X66100000Y-84500000D03*
X62300000Y-68500000D03*
X62200000Y-61600000D03*
X65900000Y-75300000D03*
X54100000Y-131300000D03*
X58600000Y-71400000D03*
X64349500Y-69800000D03*
X69000000Y-131200000D03*
X63600000Y-54600000D03*
X62949500Y-57100000D03*
X69000000Y-77300000D03*
X62200000Y-79500000D03*
X70000000Y-64100000D03*
X54000000Y-98500000D03*
X59500000Y-101500000D03*
X57600000Y-69100000D03*
X59900000Y-81500000D03*
D14*
X53900000Y-131300000D02*
X54100000Y-131300000D01*
X52450000Y-129850000D02*
X53900000Y-131300000D01*
X58600000Y-71400000D02*
X58600000Y-80280000D01*
X58600000Y-80280000D02*
X53300000Y-85580000D01*
X52450000Y-86430000D02*
X52450000Y-129850000D01*
X53300000Y-85580000D02*
X52450000Y-86430000D01*
X63550000Y-106617107D02*
X63500000Y-106667107D01*
X64349500Y-69800000D02*
X63550000Y-70599500D01*
X63550000Y-70599500D02*
X63550000Y-106617107D01*
X63500000Y-125700000D02*
X69000000Y-131200000D01*
X63500000Y-106667107D02*
X63500000Y-125700000D01*
X63700000Y-54700000D02*
X63700000Y-67539339D01*
X63700000Y-67539339D02*
X63050000Y-68189339D01*
X63050000Y-106410000D02*
X53880000Y-115580000D01*
X63600000Y-54600000D02*
X63700000Y-54700000D01*
X63050000Y-68189339D02*
X63050000Y-106410000D01*
X60800000Y-103580000D02*
X53880000Y-110500000D01*
X62949500Y-57100000D02*
X60800000Y-59249500D01*
X60800000Y-59249500D02*
X60800000Y-103580000D01*
X70300000Y-100002943D02*
X70300000Y-79660661D01*
X68250000Y-77610661D02*
X68250000Y-61110000D01*
X68250000Y-61110000D02*
X69700000Y-59660000D01*
X67920000Y-116920000D02*
X67920000Y-102382943D01*
X70300000Y-79660661D02*
X68250000Y-77610661D01*
X69120000Y-118120000D02*
X67920000Y-116920000D01*
X67920000Y-102382943D02*
X70300000Y-100002943D01*
X70800000Y-111360000D02*
X70800000Y-63300000D01*
X69120000Y-113040000D02*
X70800000Y-111360000D01*
X70800000Y-63300000D02*
X69700000Y-62200000D01*
X62200000Y-104720000D02*
X62200000Y-79500000D01*
X70000000Y-76300000D02*
X69000000Y-77300000D01*
X70000000Y-64100000D02*
X70000000Y-76300000D01*
X53880000Y-113040000D02*
X62200000Y-104720000D01*
X57000000Y-101500000D02*
X59500000Y-101500000D01*
X54000000Y-98500000D02*
X57000000Y-101500000D01*
X59700000Y-81100000D02*
X59700000Y-81300000D01*
X59700000Y-69700000D02*
X59700000Y-81100000D01*
X57600000Y-69100000D02*
X59100000Y-69100000D01*
X59700000Y-81300000D02*
X59900000Y-81500000D01*
X59100000Y-69100000D02*
X59700000Y-69700000D01*
G04 #@! TA.AperFunction,Conductor*
G36*
X60906333Y-138587576D02*
G01*
X60912918Y-138593707D01*
X61423076Y-139103866D01*
X61464516Y-139040440D01*
X61518520Y-138994352D01*
X61588868Y-138984777D01*
X61653225Y-139014755D01*
X61675481Y-139040439D01*
X61716921Y-139103866D01*
X61716922Y-139103866D01*
X62227081Y-138593706D01*
X62289394Y-138559681D01*
X62360209Y-138564745D01*
X62417045Y-138607292D01*
X62422162Y-138614661D01*
X62458239Y-138670798D01*
X62566900Y-138764952D01*
X62566901Y-138764952D01*
X62573711Y-138770853D01*
X62571686Y-138773189D01*
X62608084Y-138815187D01*
X62618195Y-138885460D01*
X62588709Y-138950043D01*
X62582572Y-138956636D01*
X62074310Y-139464898D01*
X62094694Y-139480763D01*
X62094700Y-139480768D01*
X62128206Y-139498900D01*
X62178597Y-139548913D01*
X62193949Y-139618230D01*
X62169389Y-139684843D01*
X62128209Y-139720526D01*
X62094430Y-139738806D01*
X62094424Y-139738811D01*
X61916759Y-139877094D01*
X61803483Y-140000143D01*
X61742630Y-140036714D01*
X61671666Y-140034579D01*
X61613121Y-139994417D01*
X61596144Y-139963481D01*
X61595217Y-139963914D01*
X61592116Y-139957266D01*
X61592115Y-139957262D01*
X61499030Y-139806348D01*
X61499029Y-139806347D01*
X61499024Y-139806341D01*
X61373658Y-139680975D01*
X61373652Y-139680970D01*
X61356703Y-139670516D01*
X61222738Y-139587885D01*
X61153511Y-139564946D01*
X61095141Y-139524533D01*
X61073662Y-139472872D01*
X60557427Y-138956638D01*
X60523402Y-138894325D01*
X60528466Y-138823510D01*
X60567145Y-138771840D01*
X60566289Y-138770853D01*
X60570830Y-138766917D01*
X60571013Y-138766674D01*
X60571510Y-138766328D01*
X60573095Y-138764953D01*
X60573100Y-138764952D01*
X60681761Y-138670798D01*
X60717824Y-138614681D01*
X60771478Y-138568189D01*
X60841752Y-138558084D01*
X60906333Y-138587576D01*
G37*
G04 #@! TD.AperFunction*
G04 #@! TA.AperFunction,Conductor*
G36*
X60906333Y-136047576D02*
G01*
X60912918Y-136053707D01*
X61423076Y-136563866D01*
X61464516Y-136500440D01*
X61518520Y-136454352D01*
X61588868Y-136444777D01*
X61653225Y-136474755D01*
X61675481Y-136500439D01*
X61716921Y-136563866D01*
X61716922Y-136563866D01*
X62227081Y-136053706D01*
X62289394Y-136019681D01*
X62360209Y-136024745D01*
X62417045Y-136067292D01*
X62422162Y-136074661D01*
X62458239Y-136130798D01*
X62566900Y-136224952D01*
X62566901Y-136224952D01*
X62573711Y-136230853D01*
X62571686Y-136233189D01*
X62608084Y-136275187D01*
X62618195Y-136345460D01*
X62588709Y-136410043D01*
X62582572Y-136416636D01*
X62074310Y-136924898D01*
X62094694Y-136940763D01*
X62094696Y-136940765D01*
X62128733Y-136959185D01*
X62179123Y-137009199D01*
X62194475Y-137078516D01*
X62169914Y-137145129D01*
X62128735Y-137180811D01*
X62094702Y-137199229D01*
X62074310Y-137215099D01*
X62074310Y-137215100D01*
X62582572Y-137723361D01*
X62616597Y-137785674D01*
X62611533Y-137856489D01*
X62572854Y-137908157D01*
X62573711Y-137909147D01*
X62569164Y-137913086D01*
X62568986Y-137913325D01*
X62568498Y-137913663D01*
X62458238Y-138009202D01*
X62422175Y-138065318D01*
X62368519Y-138111811D01*
X62298245Y-138121914D01*
X62233664Y-138092421D01*
X62227082Y-138086292D01*
X61716922Y-137576132D01*
X61716921Y-137576132D01*
X61675482Y-137639560D01*
X61621478Y-137685648D01*
X61551130Y-137695223D01*
X61486773Y-137665245D01*
X61464516Y-137639560D01*
X61423076Y-137576132D01*
X60912916Y-138086292D01*
X60850604Y-138120317D01*
X60779788Y-138115252D01*
X60722953Y-138072705D01*
X60717836Y-138065336D01*
X60681761Y-138009202D01*
X60573100Y-137915048D01*
X60573098Y-137915047D01*
X60566289Y-137909147D01*
X60568312Y-137906811D01*
X60531912Y-137864809D01*
X60521802Y-137794536D01*
X60551290Y-137729952D01*
X60557426Y-137723361D01*
X61065688Y-137215099D01*
X61045306Y-137199235D01*
X61045299Y-137199230D01*
X61011265Y-137180812D01*
X60960876Y-137130798D01*
X60945524Y-137061481D01*
X60970086Y-136994869D01*
X61011269Y-136959184D01*
X61045299Y-136940768D01*
X61045302Y-136940766D01*
X61065688Y-136924898D01*
X60557427Y-136416638D01*
X60523402Y-136354325D01*
X60528466Y-136283510D01*
X60567145Y-136231840D01*
X60566289Y-136230853D01*
X60570830Y-136226917D01*
X60571013Y-136226674D01*
X60571510Y-136226328D01*
X60573095Y-136224953D01*
X60573100Y-136224952D01*
X60681761Y-136130798D01*
X60717824Y-136074681D01*
X60771478Y-136028189D01*
X60841752Y-136018084D01*
X60906333Y-136047576D01*
G37*
G04 #@! TD.AperFunction*
G04 #@! TA.AperFunction,Conductor*
G36*
X60906333Y-133507576D02*
G01*
X60912918Y-133513707D01*
X61423076Y-134023866D01*
X61464516Y-133960440D01*
X61518520Y-133914352D01*
X61588868Y-133904777D01*
X61653225Y-133934755D01*
X61675481Y-133960439D01*
X61716921Y-134023866D01*
X61716922Y-134023866D01*
X62227081Y-133513706D01*
X62289394Y-133479681D01*
X62360209Y-133484745D01*
X62417045Y-133527292D01*
X62422162Y-133534661D01*
X62458239Y-133590798D01*
X62566900Y-133684952D01*
X62566901Y-133684952D01*
X62573711Y-133690853D01*
X62571686Y-133693189D01*
X62608084Y-133735187D01*
X62618195Y-133805460D01*
X62588709Y-133870043D01*
X62582572Y-133876636D01*
X62074310Y-134384898D01*
X62094694Y-134400763D01*
X62094696Y-134400765D01*
X62128733Y-134419185D01*
X62179123Y-134469199D01*
X62194475Y-134538516D01*
X62169914Y-134605129D01*
X62128735Y-134640811D01*
X62094702Y-134659229D01*
X62074310Y-134675099D01*
X62074310Y-134675100D01*
X62582572Y-135183361D01*
X62616597Y-135245674D01*
X62611533Y-135316489D01*
X62572854Y-135368157D01*
X62573711Y-135369147D01*
X62569164Y-135373086D01*
X62568986Y-135373325D01*
X62568498Y-135373663D01*
X62458238Y-135469202D01*
X62422175Y-135525318D01*
X62368519Y-135571811D01*
X62298245Y-135581914D01*
X62233664Y-135552421D01*
X62227082Y-135546292D01*
X61716922Y-135036132D01*
X61716921Y-135036132D01*
X61675482Y-135099560D01*
X61621478Y-135145648D01*
X61551130Y-135155223D01*
X61486773Y-135125245D01*
X61464516Y-135099560D01*
X61423076Y-135036132D01*
X60912916Y-135546292D01*
X60850604Y-135580317D01*
X60779788Y-135575252D01*
X60722953Y-135532705D01*
X60717836Y-135525336D01*
X60681761Y-135469202D01*
X60573100Y-135375048D01*
X60573098Y-135375047D01*
X60566289Y-135369147D01*
X60568312Y-135366811D01*
X60531912Y-135324809D01*
X60521802Y-135254536D01*
X60551290Y-135189952D01*
X60557426Y-135183361D01*
X61065688Y-134675099D01*
X61045306Y-134659235D01*
X61045299Y-134659230D01*
X61011265Y-134640812D01*
X60960876Y-134590798D01*
X60945524Y-134521481D01*
X60970086Y-134454869D01*
X61011269Y-134419184D01*
X61045299Y-134400768D01*
X61045302Y-134400766D01*
X61065688Y-134384898D01*
X60557427Y-133876638D01*
X60523402Y-133814325D01*
X60528466Y-133743510D01*
X60567145Y-133691840D01*
X60566289Y-133690853D01*
X60570830Y-133686917D01*
X60571013Y-133686674D01*
X60571510Y-133686328D01*
X60573095Y-133684953D01*
X60573100Y-133684952D01*
X60681761Y-133590798D01*
X60717824Y-133534681D01*
X60771478Y-133488189D01*
X60841752Y-133478084D01*
X60906333Y-133507576D01*
G37*
G04 #@! TD.AperFunction*
G04 #@! TA.AperFunction,Conductor*
G36*
X61653225Y-131395669D02*
G01*
X61675480Y-131421353D01*
X61708607Y-131472058D01*
X61764275Y-131557265D01*
X61764279Y-131557270D01*
X61916762Y-131722908D01*
X61971331Y-131765381D01*
X62094424Y-131861189D01*
X62128205Y-131879470D01*
X62178596Y-131929482D01*
X62193949Y-131998799D01*
X62169389Y-132065412D01*
X62128208Y-132101097D01*
X62094700Y-132119230D01*
X62074310Y-132135099D01*
X62074310Y-132135100D01*
X62582572Y-132643361D01*
X62616597Y-132705674D01*
X62611533Y-132776489D01*
X62572854Y-132828157D01*
X62573711Y-132829147D01*
X62569164Y-132833086D01*
X62568986Y-132833325D01*
X62568498Y-132833663D01*
X62458238Y-132929202D01*
X62422175Y-132985318D01*
X62368519Y-133031811D01*
X62298245Y-133041914D01*
X62233664Y-133012421D01*
X62227082Y-133006292D01*
X61716922Y-132496132D01*
X61716921Y-132496132D01*
X61675482Y-132559560D01*
X61621478Y-132605648D01*
X61551130Y-132615223D01*
X61486773Y-132585245D01*
X61464516Y-132559560D01*
X61423076Y-132496132D01*
X60912916Y-133006292D01*
X60850604Y-133040317D01*
X60779788Y-133035252D01*
X60722953Y-132992705D01*
X60717836Y-132985336D01*
X60681761Y-132929202D01*
X60573100Y-132835048D01*
X60573098Y-132835047D01*
X60566289Y-132829147D01*
X60568312Y-132826811D01*
X60531912Y-132784809D01*
X60521802Y-132714536D01*
X60551290Y-132649952D01*
X60557426Y-132643361D01*
X61065688Y-132135099D01*
X61045306Y-132119235D01*
X61045294Y-132119227D01*
X61011792Y-132101097D01*
X60961402Y-132051084D01*
X60946050Y-131981767D01*
X60970611Y-131915154D01*
X61011790Y-131879472D01*
X61045576Y-131861189D01*
X61223240Y-131722906D01*
X61375722Y-131557268D01*
X61464518Y-131421354D01*
X61518520Y-131375268D01*
X61588868Y-131365692D01*
X61653225Y-131395669D01*
G37*
G04 #@! TD.AperFunction*
G04 #@! TA.AperFunction,Conductor*
G36*
X70941621Y-37020502D02*
G01*
X70988114Y-37074158D01*
X70999500Y-37126500D01*
X70999500Y-48100204D01*
X70979498Y-48168325D01*
X70925842Y-48214818D01*
X70855568Y-48224922D01*
X70804038Y-48203577D01*
X70803876Y-48203875D01*
X70801105Y-48202362D01*
X70797993Y-48201073D01*
X70795968Y-48199557D01*
X70795964Y-48199555D01*
X70659093Y-48148505D01*
X70598597Y-48142000D01*
X69954000Y-48142000D01*
X69954000Y-48885966D01*
X69933998Y-48954087D01*
X69880342Y-49000580D01*
X69810069Y-49010683D01*
X69810068Y-49010683D01*
X69735768Y-49000000D01*
X69735763Y-49000000D01*
X69664237Y-49000000D01*
X69664231Y-49000000D01*
X69589932Y-49010683D01*
X69519658Y-49000580D01*
X69466002Y-48954087D01*
X69446000Y-48885966D01*
X69446000Y-48142000D01*
X68801402Y-48142000D01*
X68740906Y-48148505D01*
X68604035Y-48199555D01*
X68604034Y-48199555D01*
X68487095Y-48287095D01*
X68399555Y-48404034D01*
X68399555Y-48404035D01*
X68348505Y-48540906D01*
X68342000Y-48601402D01*
X68342000Y-49246000D01*
X69085156Y-49246000D01*
X69153277Y-49266002D01*
X69199770Y-49319658D01*
X69209874Y-49389932D01*
X69206053Y-49407496D01*
X69200000Y-49428111D01*
X69200000Y-49571888D01*
X69206053Y-49592504D01*
X69206052Y-49663500D01*
X69167667Y-49723226D01*
X69103086Y-49752718D01*
X69085156Y-49754000D01*
X68342000Y-49754000D01*
X68342000Y-50398597D01*
X68348505Y-50459093D01*
X68399555Y-50595964D01*
X68399555Y-50595965D01*
X68487095Y-50712904D01*
X68604034Y-50800444D01*
X68719172Y-50843388D01*
X68776008Y-50885935D01*
X68800819Y-50952455D01*
X68785728Y-51021829D01*
X68767841Y-51046782D01*
X68624280Y-51202729D01*
X68624275Y-51202734D01*
X68501141Y-51391206D01*
X68410703Y-51597386D01*
X68410702Y-51597387D01*
X68355437Y-51815624D01*
X68336844Y-52040000D01*
X68355437Y-52264375D01*
X68410702Y-52482612D01*
X68410703Y-52482613D01*
X68501141Y-52688793D01*
X68624275Y-52877265D01*
X68624279Y-52877270D01*
X68776762Y-53042908D01*
X68831331Y-53085381D01*
X68954424Y-53181189D01*
X68987680Y-53199186D01*
X69038070Y-53249196D01*
X69053423Y-53318513D01*
X69028864Y-53385126D01*
X68987683Y-53420811D01*
X68954430Y-53438807D01*
X68954424Y-53438811D01*
X68776762Y-53577091D01*
X68624279Y-53742729D01*
X68624275Y-53742734D01*
X68501141Y-53931206D01*
X68410703Y-54137386D01*
X68410702Y-54137387D01*
X68355437Y-54355624D01*
X68355436Y-54355630D01*
X68355436Y-54355632D01*
X68336844Y-54580000D01*
X68354239Y-54789928D01*
X68355437Y-54804375D01*
X68410702Y-55022612D01*
X68410703Y-55022613D01*
X68501141Y-55228793D01*
X68624275Y-55417265D01*
X68624279Y-55417270D01*
X68776762Y-55582908D01*
X68831331Y-55625381D01*
X68954424Y-55721189D01*
X68987680Y-55739186D01*
X69038071Y-55789200D01*
X69053423Y-55858516D01*
X69028862Y-55925129D01*
X68987680Y-55960813D01*
X68954426Y-55978810D01*
X68954424Y-55978811D01*
X68776762Y-56117091D01*
X68624279Y-56282729D01*
X68624275Y-56282734D01*
X68501141Y-56471206D01*
X68410703Y-56677386D01*
X68410702Y-56677387D01*
X68355437Y-56895624D01*
X68355436Y-56895630D01*
X68355436Y-56895632D01*
X68338382Y-57101441D01*
X68336844Y-57120000D01*
X68355437Y-57344375D01*
X68410702Y-57562612D01*
X68410703Y-57562613D01*
X68501141Y-57768793D01*
X68624275Y-57957265D01*
X68624279Y-57957270D01*
X68776762Y-58122908D01*
X68817165Y-58154355D01*
X68954424Y-58261189D01*
X68987680Y-58279186D01*
X69038071Y-58329200D01*
X69053423Y-58398516D01*
X69028862Y-58465129D01*
X68987680Y-58500813D01*
X68954426Y-58518810D01*
X68954424Y-58518811D01*
X68776762Y-58657091D01*
X68624279Y-58822729D01*
X68624275Y-58822734D01*
X68501141Y-59011206D01*
X68410703Y-59217386D01*
X68410702Y-59217387D01*
X68355437Y-59435624D01*
X68336844Y-59660000D01*
X68355436Y-59884369D01*
X68376038Y-59965724D01*
X68373370Y-60036671D01*
X68342988Y-60085750D01*
X67845611Y-60583127D01*
X67832865Y-60593340D01*
X67833025Y-60593533D01*
X67826921Y-60598582D01*
X67777054Y-60651685D01*
X67755071Y-60673668D01*
X67750527Y-60679525D01*
X67746678Y-60684031D01*
X67713029Y-60719865D01*
X67713027Y-60719867D01*
X67702691Y-60738667D01*
X67691843Y-60755180D01*
X67678699Y-60772126D01*
X67678694Y-60772135D01*
X67659172Y-60817247D01*
X67656560Y-60822577D01*
X67632877Y-60865660D01*
X67632873Y-60865670D01*
X67627541Y-60886436D01*
X67621139Y-60905136D01*
X67612620Y-60924820D01*
X67612619Y-60924824D01*
X67604928Y-60973384D01*
X67603724Y-60979197D01*
X67591500Y-61026810D01*
X67591500Y-61048258D01*
X67589949Y-61067967D01*
X67586594Y-61089150D01*
X67586594Y-61089152D01*
X67591220Y-61138094D01*
X67591500Y-61144027D01*
X67591500Y-77524050D01*
X67589708Y-77540281D01*
X67589958Y-77540305D01*
X67589211Y-77548197D01*
X67591500Y-77621002D01*
X67591500Y-77652091D01*
X67592427Y-77659437D01*
X67592893Y-77665351D01*
X67594437Y-77714490D01*
X67594438Y-77714493D01*
X67600421Y-77735090D01*
X67604428Y-77754441D01*
X67607117Y-77775721D01*
X67607117Y-77775723D01*
X67625216Y-77821439D01*
X67627139Y-77827055D01*
X67640853Y-77874258D01*
X67640853Y-77874259D01*
X67651771Y-77892719D01*
X67660468Y-77910472D01*
X67668364Y-77930416D01*
X67668367Y-77930421D01*
X67686352Y-77955174D01*
X67697265Y-77970193D01*
X67700521Y-77975151D01*
X67725547Y-78017468D01*
X67740714Y-78032635D01*
X67753552Y-78047666D01*
X67766158Y-78065017D01*
X67804039Y-78096355D01*
X67808420Y-78100341D01*
X68809268Y-79101188D01*
X69604595Y-79896515D01*
X69638620Y-79958827D01*
X69641500Y-79985610D01*
X69641500Y-94731203D01*
X69621498Y-94799324D01*
X69567842Y-94845817D01*
X69497568Y-94855921D01*
X69432988Y-94826427D01*
X69418654Y-94811806D01*
X69335745Y-94712180D01*
X69335741Y-94712177D01*
X69335740Y-94712175D01*
X69134012Y-94531427D01*
X69134002Y-94531418D01*
X68908090Y-94381956D01*
X68662824Y-94266980D01*
X68505392Y-94219615D01*
X68403425Y-94188938D01*
X68135442Y-94149500D01*
X68135439Y-94149500D01*
X67932369Y-94149500D01*
X67932367Y-94149500D01*
X67729839Y-94164323D01*
X67729838Y-94164323D01*
X67465456Y-94223217D01*
X67465441Y-94223222D01*
X67212441Y-94319986D01*
X66976229Y-94452555D01*
X66976225Y-94452557D01*
X66761818Y-94618116D01*
X66573815Y-94813117D01*
X66573810Y-94813123D01*
X66416203Y-95033417D01*
X66416196Y-95033427D01*
X66292343Y-95274324D01*
X66292342Y-95274327D01*
X66204883Y-95530689D01*
X66204880Y-95530702D01*
X66155681Y-95797058D01*
X66155680Y-95797069D01*
X66145788Y-96067765D01*
X66175412Y-96337014D01*
X66243928Y-96599090D01*
X66349869Y-96848389D01*
X66394922Y-96922211D01*
X66490982Y-97079610D01*
X66664255Y-97287820D01*
X66865998Y-97468582D01*
X67091910Y-97618044D01*
X67337176Y-97733020D01*
X67596569Y-97811060D01*
X67596572Y-97811060D01*
X67596574Y-97811061D01*
X67864557Y-97850500D01*
X67864561Y-97850500D01*
X68067633Y-97850500D01*
X68102363Y-97847957D01*
X68270156Y-97835677D01*
X68270160Y-97835676D01*
X68270161Y-97835676D01*
X68411739Y-97804138D01*
X68534553Y-97776780D01*
X68787558Y-97680014D01*
X69023777Y-97547441D01*
X69238177Y-97381888D01*
X69424793Y-97188324D01*
X69486472Y-97153168D01*
X69557368Y-97156939D01*
X69614972Y-97198440D01*
X69640994Y-97264496D01*
X69641500Y-97275779D01*
X69641500Y-99677992D01*
X69621498Y-99746113D01*
X69604595Y-99767087D01*
X67515611Y-101856070D01*
X67502865Y-101866283D01*
X67503025Y-101866476D01*
X67496921Y-101871525D01*
X67447054Y-101924628D01*
X67425071Y-101946611D01*
X67420527Y-101952468D01*
X67416678Y-101956974D01*
X67383029Y-101992808D01*
X67383027Y-101992810D01*
X67372691Y-102011610D01*
X67361843Y-102028123D01*
X67348699Y-102045069D01*
X67348694Y-102045078D01*
X67329172Y-102090190D01*
X67326560Y-102095520D01*
X67302877Y-102138603D01*
X67302873Y-102138613D01*
X67297541Y-102159379D01*
X67291139Y-102178079D01*
X67282620Y-102197763D01*
X67282619Y-102197767D01*
X67274928Y-102246327D01*
X67273724Y-102252140D01*
X67261500Y-102299753D01*
X67261500Y-102321201D01*
X67259949Y-102340910D01*
X67256594Y-102362093D01*
X67256594Y-102362095D01*
X67261220Y-102411037D01*
X67261500Y-102416970D01*
X67261500Y-116833389D01*
X67259708Y-116849620D01*
X67259958Y-116849644D01*
X67259211Y-116857536D01*
X67261500Y-116930341D01*
X67261500Y-116961430D01*
X67262427Y-116968776D01*
X67262893Y-116974690D01*
X67264437Y-117023829D01*
X67264438Y-117023832D01*
X67270421Y-117044429D01*
X67274428Y-117063780D01*
X67277117Y-117085060D01*
X67277117Y-117085062D01*
X67295216Y-117130778D01*
X67297139Y-117136394D01*
X67310853Y-117183597D01*
X67310853Y-117183598D01*
X67321771Y-117202058D01*
X67330468Y-117219811D01*
X67338364Y-117239755D01*
X67338367Y-117239760D01*
X67356352Y-117264513D01*
X67367265Y-117279532D01*
X67370521Y-117284490D01*
X67395547Y-117326807D01*
X67410714Y-117341974D01*
X67423552Y-117357005D01*
X67436158Y-117374356D01*
X67474040Y-117405695D01*
X67478421Y-117409681D01*
X67746124Y-117677384D01*
X67762988Y-117694248D01*
X67797014Y-117756560D01*
X67796038Y-117814273D01*
X67775436Y-117895628D01*
X67756844Y-118120000D01*
X67775437Y-118344375D01*
X67830702Y-118562612D01*
X67830703Y-118562613D01*
X67921141Y-118768793D01*
X68044275Y-118957265D01*
X68044279Y-118957270D01*
X68196762Y-119122908D01*
X68251331Y-119165381D01*
X68374424Y-119261189D01*
X68572426Y-119368342D01*
X68572427Y-119368342D01*
X68572428Y-119368343D01*
X68684227Y-119406723D01*
X68785365Y-119441444D01*
X69007431Y-119478500D01*
X69007435Y-119478500D01*
X69232565Y-119478500D01*
X69232569Y-119478500D01*
X69454635Y-119441444D01*
X69667574Y-119368342D01*
X69865576Y-119261189D01*
X70043240Y-119122906D01*
X70195722Y-118957268D01*
X70318860Y-118768791D01*
X70409296Y-118562616D01*
X70464564Y-118344368D01*
X70483156Y-118120000D01*
X70464564Y-117895632D01*
X70409296Y-117677384D01*
X70318860Y-117471209D01*
X70244247Y-117357005D01*
X70195724Y-117282734D01*
X70195720Y-117282729D01*
X70061007Y-117136394D01*
X70043240Y-117117094D01*
X70043239Y-117117093D01*
X70043237Y-117117091D01*
X69923367Y-117023792D01*
X69865576Y-116978811D01*
X69831792Y-116960528D01*
X69781402Y-116910516D01*
X69766050Y-116841199D01*
X69790610Y-116774586D01*
X69831793Y-116738901D01*
X69865299Y-116720768D01*
X69865302Y-116720766D01*
X69885688Y-116704898D01*
X69377427Y-116196638D01*
X69343402Y-116134325D01*
X69348466Y-116063510D01*
X69387145Y-116011840D01*
X69386289Y-116010853D01*
X69390830Y-116006917D01*
X69391013Y-116006674D01*
X69391510Y-116006328D01*
X69393095Y-116004953D01*
X69393100Y-116004952D01*
X69501761Y-115910798D01*
X69537824Y-115854681D01*
X69591478Y-115808189D01*
X69661752Y-115798084D01*
X69726333Y-115827576D01*
X69732918Y-115833707D01*
X70243077Y-116343866D01*
X70318419Y-116228551D01*
X70408820Y-116022456D01*
X70408823Y-116022449D01*
X70464067Y-115804292D01*
X70482653Y-115579999D01*
X70464067Y-115355707D01*
X70408823Y-115137550D01*
X70408820Y-115137543D01*
X70318422Y-114931456D01*
X70318417Y-114931448D01*
X70243076Y-114816132D01*
X69732916Y-115326292D01*
X69670604Y-115360317D01*
X69599788Y-115355252D01*
X69542953Y-115312705D01*
X69537836Y-115305336D01*
X69501761Y-115249202D01*
X69393100Y-115155048D01*
X69393098Y-115155047D01*
X69386289Y-115149147D01*
X69388312Y-115146811D01*
X69351912Y-115104809D01*
X69341802Y-115034536D01*
X69371290Y-114969952D01*
X69377426Y-114963361D01*
X69885688Y-114455099D01*
X69865306Y-114439235D01*
X69865294Y-114439227D01*
X69831792Y-114421097D01*
X69781402Y-114371084D01*
X69766050Y-114301767D01*
X69790611Y-114235154D01*
X69831790Y-114199472D01*
X69865576Y-114181189D01*
X70043240Y-114042906D01*
X70195722Y-113877268D01*
X70318860Y-113688791D01*
X70409296Y-113482616D01*
X70464564Y-113264368D01*
X70483156Y-113040000D01*
X70464564Y-112815632D01*
X70443961Y-112734274D01*
X70446627Y-112663331D01*
X70477008Y-112614250D01*
X70784406Y-112306853D01*
X70846717Y-112272829D01*
X70917533Y-112277894D01*
X70974368Y-112320441D01*
X70999179Y-112386961D01*
X70999500Y-112395950D01*
X70999500Y-145873500D01*
X70979498Y-145941621D01*
X70925842Y-145988114D01*
X70873500Y-145999500D01*
X52126500Y-145999500D01*
X52058379Y-145979498D01*
X52011886Y-145925842D01*
X52000500Y-145873500D01*
X52000500Y-130635950D01*
X52020502Y-130567829D01*
X52074158Y-130521336D01*
X52144432Y-130511232D01*
X52209012Y-130540726D01*
X52215595Y-130546855D01*
X53208068Y-131539328D01*
X53238805Y-131589484D01*
X53265472Y-131671554D01*
X53265475Y-131671561D01*
X53360958Y-131836941D01*
X53360965Y-131836951D01*
X53488744Y-131978864D01*
X53488747Y-131978866D01*
X53643248Y-132091118D01*
X53817712Y-132168794D01*
X54004513Y-132208500D01*
X54195487Y-132208500D01*
X54382288Y-132168794D01*
X54556752Y-132091118D01*
X54711253Y-131978866D01*
X54755719Y-131929482D01*
X54839034Y-131836951D01*
X54839035Y-131836949D01*
X54839040Y-131836944D01*
X54934527Y-131671556D01*
X54993542Y-131489928D01*
X55013504Y-131300000D01*
X54993542Y-131110072D01*
X54934527Y-130928444D01*
X54839040Y-130763056D01*
X54839038Y-130763054D01*
X54839034Y-130763048D01*
X54800273Y-130720000D01*
X58936844Y-130720000D01*
X58954116Y-130928444D01*
X58955437Y-130944375D01*
X59010702Y-131162612D01*
X59010703Y-131162613D01*
X59101141Y-131368793D01*
X59224275Y-131557265D01*
X59224279Y-131557270D01*
X59376762Y-131722908D01*
X59431331Y-131765381D01*
X59554424Y-131861189D01*
X59588205Y-131879470D01*
X59638596Y-131929482D01*
X59653949Y-131998799D01*
X59629389Y-132065412D01*
X59588208Y-132101097D01*
X59554700Y-132119230D01*
X59534310Y-132135099D01*
X59534310Y-132135100D01*
X60042572Y-132643361D01*
X60076597Y-132705674D01*
X60071533Y-132776489D01*
X60032854Y-132828157D01*
X60033711Y-132829147D01*
X60029164Y-132833086D01*
X60028986Y-132833325D01*
X60028498Y-132833663D01*
X59918238Y-132929202D01*
X59882175Y-132985318D01*
X59828519Y-133031811D01*
X59758245Y-133041914D01*
X59693664Y-133012421D01*
X59687082Y-133006292D01*
X59176922Y-132496132D01*
X59101580Y-132611451D01*
X59011179Y-132817543D01*
X59011176Y-132817550D01*
X58955932Y-133035707D01*
X58937346Y-133260000D01*
X58955932Y-133484292D01*
X59011176Y-133702449D01*
X59011179Y-133702456D01*
X59101580Y-133908548D01*
X59176922Y-134023866D01*
X59687081Y-133513706D01*
X59749394Y-133479681D01*
X59820209Y-133484745D01*
X59877045Y-133527292D01*
X59882162Y-133534661D01*
X59918239Y-133590798D01*
X60026900Y-133684952D01*
X60026901Y-133684952D01*
X60033711Y-133690853D01*
X60031686Y-133693189D01*
X60068084Y-133735187D01*
X60078195Y-133805460D01*
X60048709Y-133870043D01*
X60042572Y-133876636D01*
X59534310Y-134384898D01*
X59554694Y-134400763D01*
X59554696Y-134400765D01*
X59588733Y-134419185D01*
X59639123Y-134469199D01*
X59654475Y-134538516D01*
X59629914Y-134605129D01*
X59588735Y-134640811D01*
X59554702Y-134659229D01*
X59534310Y-134675099D01*
X59534310Y-134675100D01*
X60042572Y-135183361D01*
X60076597Y-135245674D01*
X60071533Y-135316489D01*
X60032854Y-135368157D01*
X60033711Y-135369147D01*
X60029164Y-135373086D01*
X60028986Y-135373325D01*
X60028498Y-135373663D01*
X59918238Y-135469202D01*
X59882175Y-135525318D01*
X59828519Y-135571811D01*
X59758245Y-135581914D01*
X59693664Y-135552421D01*
X59687082Y-135546292D01*
X59176922Y-135036132D01*
X59101580Y-135151451D01*
X59011179Y-135357543D01*
X59011176Y-135357550D01*
X58955932Y-135575707D01*
X58937346Y-135799999D01*
X58955932Y-136024292D01*
X59011176Y-136242449D01*
X59011179Y-136242456D01*
X59101580Y-136448548D01*
X59176922Y-136563866D01*
X59687081Y-136053706D01*
X59749394Y-136019681D01*
X59820209Y-136024745D01*
X59877045Y-136067292D01*
X59882162Y-136074661D01*
X59918239Y-136130798D01*
X60026900Y-136224952D01*
X60026901Y-136224952D01*
X60033711Y-136230853D01*
X60031686Y-136233189D01*
X60068084Y-136275187D01*
X60078195Y-136345460D01*
X60048709Y-136410043D01*
X60042572Y-136416636D01*
X59534310Y-136924898D01*
X59554694Y-136940763D01*
X59554696Y-136940765D01*
X59588733Y-136959185D01*
X59639123Y-137009199D01*
X59654475Y-137078516D01*
X59629914Y-137145129D01*
X59588735Y-137180811D01*
X59554702Y-137199229D01*
X59534310Y-137215099D01*
X59534310Y-137215100D01*
X60042572Y-137723361D01*
X60076597Y-137785674D01*
X60071533Y-137856489D01*
X60032854Y-137908157D01*
X60033711Y-137909147D01*
X60029164Y-137913086D01*
X60028986Y-137913325D01*
X60028498Y-137913663D01*
X59918238Y-138009202D01*
X59882175Y-138065318D01*
X59828519Y-138111811D01*
X59758245Y-138121914D01*
X59693664Y-138092421D01*
X59687082Y-138086292D01*
X59176922Y-137576132D01*
X59101580Y-137691451D01*
X59011179Y-137897543D01*
X59011176Y-137897550D01*
X58955932Y-138115707D01*
X58937346Y-138340000D01*
X58955932Y-138564292D01*
X59011176Y-138782449D01*
X59011179Y-138782456D01*
X59101580Y-138988548D01*
X59176922Y-139103866D01*
X59687081Y-138593706D01*
X59749394Y-138559681D01*
X59820209Y-138564745D01*
X59877045Y-138607292D01*
X59882162Y-138614661D01*
X59918239Y-138670798D01*
X60026900Y-138764952D01*
X60026901Y-138764952D01*
X60033711Y-138770853D01*
X60031686Y-138773189D01*
X60068084Y-138815187D01*
X60078195Y-138885460D01*
X60048709Y-138950043D01*
X60042572Y-138956636D01*
X59524054Y-139475153D01*
X59516866Y-139506765D01*
X59466194Y-139556493D01*
X59446486Y-139564946D01*
X59377264Y-139587884D01*
X59226347Y-139680970D01*
X59226341Y-139680975D01*
X59100975Y-139806341D01*
X59100970Y-139806347D01*
X59007885Y-139957262D01*
X58952113Y-140125572D01*
X58952112Y-140125579D01*
X58941500Y-140229446D01*
X58941500Y-141530544D01*
X58952112Y-141634425D01*
X59007885Y-141802738D01*
X59100970Y-141953652D01*
X59100975Y-141953658D01*
X59226341Y-142079024D01*
X59226347Y-142079029D01*
X59226348Y-142079030D01*
X59377262Y-142172115D01*
X59545574Y-142227887D01*
X59649455Y-142238500D01*
X60950544Y-142238499D01*
X61054426Y-142227887D01*
X61222738Y-142172115D01*
X61373652Y-142079030D01*
X61499030Y-141953652D01*
X61592115Y-141802738D01*
X61592118Y-141802728D01*
X61595217Y-141796086D01*
X61597126Y-141796976D01*
X61631581Y-141747200D01*
X61697135Y-141719936D01*
X61767021Y-141732442D01*
X61803483Y-141759857D01*
X61842959Y-141802738D01*
X61916760Y-141882906D01*
X62094424Y-142021189D01*
X62292426Y-142128342D01*
X62292427Y-142128342D01*
X62292428Y-142128343D01*
X62404227Y-142166723D01*
X62505365Y-142201444D01*
X62727431Y-142238500D01*
X62727435Y-142238500D01*
X62952565Y-142238500D01*
X62952569Y-142238500D01*
X63174635Y-142201444D01*
X63387574Y-142128342D01*
X63585576Y-142021189D01*
X63763240Y-141882906D01*
X63915722Y-141717268D01*
X64038860Y-141528791D01*
X64129296Y-141322616D01*
X64184564Y-141104368D01*
X64203156Y-140880000D01*
X64184564Y-140655632D01*
X64129296Y-140437384D01*
X64038860Y-140231209D01*
X63969849Y-140125579D01*
X63915724Y-140042734D01*
X63915720Y-140042729D01*
X63763237Y-139877091D01*
X63681382Y-139813381D01*
X63585576Y-139738811D01*
X63551792Y-139720528D01*
X63501402Y-139670516D01*
X63486050Y-139601199D01*
X63510610Y-139534586D01*
X63551793Y-139498901D01*
X63585299Y-139480768D01*
X63585302Y-139480766D01*
X63605688Y-139464898D01*
X63097427Y-138956638D01*
X63063402Y-138894325D01*
X63068466Y-138823510D01*
X63107145Y-138771840D01*
X63106289Y-138770853D01*
X63110830Y-138766917D01*
X63111013Y-138766674D01*
X63111510Y-138766328D01*
X63113095Y-138764953D01*
X63113100Y-138764952D01*
X63221761Y-138670798D01*
X63257824Y-138614681D01*
X63311478Y-138568189D01*
X63381752Y-138558084D01*
X63446333Y-138587576D01*
X63452918Y-138593707D01*
X63963077Y-139103866D01*
X64038419Y-138988551D01*
X64128820Y-138782456D01*
X64128823Y-138782449D01*
X64184067Y-138564292D01*
X64202653Y-138340000D01*
X64184067Y-138115707D01*
X64128823Y-137897550D01*
X64128820Y-137897543D01*
X64038422Y-137691456D01*
X64038417Y-137691448D01*
X63963076Y-137576132D01*
X63452916Y-138086292D01*
X63390604Y-138120317D01*
X63319788Y-138115252D01*
X63262953Y-138072705D01*
X63257836Y-138065336D01*
X63221761Y-138009202D01*
X63113100Y-137915048D01*
X63113098Y-137915047D01*
X63106289Y-137909147D01*
X63108312Y-137906811D01*
X63071912Y-137864809D01*
X63061802Y-137794536D01*
X63091290Y-137729952D01*
X63097426Y-137723361D01*
X63605688Y-137215099D01*
X63585306Y-137199235D01*
X63585299Y-137199230D01*
X63551265Y-137180812D01*
X63500876Y-137130798D01*
X63485524Y-137061481D01*
X63510086Y-136994869D01*
X63551269Y-136959184D01*
X63585299Y-136940768D01*
X63585302Y-136940766D01*
X63605688Y-136924898D01*
X63097427Y-136416638D01*
X63063402Y-136354325D01*
X63068466Y-136283510D01*
X63107145Y-136231840D01*
X63106289Y-136230853D01*
X63110830Y-136226917D01*
X63111013Y-136226674D01*
X63111510Y-136226328D01*
X63113095Y-136224953D01*
X63113100Y-136224952D01*
X63221761Y-136130798D01*
X63257824Y-136074681D01*
X63311478Y-136028189D01*
X63381752Y-136018084D01*
X63446333Y-136047576D01*
X63452918Y-136053707D01*
X63963077Y-136563866D01*
X64038419Y-136448551D01*
X64128820Y-136242456D01*
X64128823Y-136242449D01*
X64184067Y-136024292D01*
X64202653Y-135800000D01*
X64184067Y-135575707D01*
X64128823Y-135357550D01*
X64128820Y-135357543D01*
X64038422Y-135151456D01*
X64038417Y-135151448D01*
X63963076Y-135036132D01*
X63452916Y-135546292D01*
X63390604Y-135580317D01*
X63319788Y-135575252D01*
X63262953Y-135532705D01*
X63257836Y-135525336D01*
X63221761Y-135469202D01*
X63113100Y-135375048D01*
X63113098Y-135375047D01*
X63106289Y-135369147D01*
X63108312Y-135366811D01*
X63071912Y-135324809D01*
X63061802Y-135254536D01*
X63091290Y-135189952D01*
X63097426Y-135183361D01*
X63605688Y-134675099D01*
X63585306Y-134659235D01*
X63585299Y-134659230D01*
X63551265Y-134640812D01*
X63500876Y-134590798D01*
X63485524Y-134521481D01*
X63510086Y-134454869D01*
X63551269Y-134419184D01*
X63585299Y-134400768D01*
X63585302Y-134400766D01*
X63605688Y-134384898D01*
X63097427Y-133876638D01*
X63063402Y-133814325D01*
X63068466Y-133743510D01*
X63107145Y-133691840D01*
X63106289Y-133690853D01*
X63110830Y-133686917D01*
X63111013Y-133686674D01*
X63111510Y-133686328D01*
X63113095Y-133684953D01*
X63113100Y-133684952D01*
X63221761Y-133590798D01*
X63257824Y-133534681D01*
X63311478Y-133488189D01*
X63381752Y-133478084D01*
X63446333Y-133507576D01*
X63452918Y-133513707D01*
X63963077Y-134023866D01*
X64038419Y-133908551D01*
X64128820Y-133702456D01*
X64128823Y-133702449D01*
X64184067Y-133484292D01*
X64202653Y-133259999D01*
X64184067Y-133035707D01*
X64128823Y-132817550D01*
X64128820Y-132817543D01*
X64038422Y-132611456D01*
X64038417Y-132611448D01*
X63963076Y-132496132D01*
X63452916Y-133006292D01*
X63390604Y-133040317D01*
X63319788Y-133035252D01*
X63262953Y-132992705D01*
X63257836Y-132985336D01*
X63221761Y-132929202D01*
X63113100Y-132835048D01*
X63113098Y-132835047D01*
X63106289Y-132829147D01*
X63108312Y-132826811D01*
X63071912Y-132784809D01*
X63061802Y-132714536D01*
X63091290Y-132649952D01*
X63097426Y-132643361D01*
X63605688Y-132135099D01*
X63585306Y-132119235D01*
X63585294Y-132119227D01*
X63551792Y-132101097D01*
X63501402Y-132051084D01*
X63486050Y-131981767D01*
X63510611Y-131915154D01*
X63551790Y-131879472D01*
X63585576Y-131861189D01*
X63763240Y-131722906D01*
X63915722Y-131557268D01*
X64038860Y-131368791D01*
X64129296Y-131162616D01*
X64184564Y-130944368D01*
X64203156Y-130720000D01*
X64184564Y-130495632D01*
X64158369Y-130392190D01*
X64129297Y-130277387D01*
X64129296Y-130277386D01*
X64129296Y-130277384D01*
X64038860Y-130071209D01*
X64004516Y-130018642D01*
X63915724Y-129882734D01*
X63915720Y-129882729D01*
X63763237Y-129717091D01*
X63681382Y-129653381D01*
X63585576Y-129578811D01*
X63387574Y-129471658D01*
X63387572Y-129471657D01*
X63387571Y-129471656D01*
X63174639Y-129398557D01*
X63174630Y-129398555D01*
X63130476Y-129391187D01*
X62952569Y-129361500D01*
X62727431Y-129361500D01*
X62579210Y-129386233D01*
X62505369Y-129398555D01*
X62505360Y-129398557D01*
X62292428Y-129471656D01*
X62292426Y-129471658D01*
X62094426Y-129578810D01*
X62094424Y-129578811D01*
X61916762Y-129717091D01*
X61764279Y-129882729D01*
X61764279Y-129882730D01*
X61675482Y-130018643D01*
X61621478Y-130064731D01*
X61551130Y-130074306D01*
X61486773Y-130044328D01*
X61464516Y-130018642D01*
X61375724Y-129882734D01*
X61375720Y-129882729D01*
X61223237Y-129717091D01*
X61141382Y-129653381D01*
X61045576Y-129578811D01*
X60847574Y-129471658D01*
X60847572Y-129471657D01*
X60847571Y-129471656D01*
X60634639Y-129398557D01*
X60634630Y-129398555D01*
X60590476Y-129391187D01*
X60412569Y-129361500D01*
X60187431Y-129361500D01*
X60039210Y-129386233D01*
X59965369Y-129398555D01*
X59965360Y-129398557D01*
X59752428Y-129471656D01*
X59752426Y-129471658D01*
X59554426Y-129578810D01*
X59554424Y-129578811D01*
X59376762Y-129717091D01*
X59224279Y-129882729D01*
X59224275Y-129882734D01*
X59101141Y-130071206D01*
X59010703Y-130277386D01*
X59010702Y-130277387D01*
X58955437Y-130495624D01*
X58955436Y-130495630D01*
X58955436Y-130495632D01*
X58936844Y-130720000D01*
X54800273Y-130720000D01*
X54711255Y-130621135D01*
X54556752Y-130508882D01*
X54382288Y-130431206D01*
X54195487Y-130391500D01*
X54004513Y-130391500D01*
X54004507Y-130391500D01*
X54003999Y-130391608D01*
X54003698Y-130391585D01*
X53997940Y-130392190D01*
X53997829Y-130391136D01*
X53933209Y-130386202D01*
X53888715Y-130357455D01*
X53145405Y-129614145D01*
X53111379Y-129551833D01*
X53108500Y-129525050D01*
X53108500Y-119604500D01*
X53128502Y-119536379D01*
X53182158Y-119489886D01*
X53234500Y-119478500D01*
X54778632Y-119478500D01*
X54778638Y-119478500D01*
X54778645Y-119478499D01*
X54778649Y-119478499D01*
X54839196Y-119471990D01*
X54839199Y-119471989D01*
X54839201Y-119471989D01*
X54976204Y-119420889D01*
X55046399Y-119368342D01*
X55093261Y-119333261D01*
X55180887Y-119216207D01*
X55180887Y-119216206D01*
X55180889Y-119216204D01*
X55231989Y-119079201D01*
X55238500Y-119018638D01*
X55238500Y-117221362D01*
X55238499Y-117221350D01*
X55231990Y-117160803D01*
X55231988Y-117160795D01*
X55180889Y-117023797D01*
X55180887Y-117023792D01*
X55093261Y-116906738D01*
X54976207Y-116819112D01*
X54976203Y-116819110D01*
X54861192Y-116776213D01*
X54804356Y-116733667D01*
X54779546Y-116667146D01*
X54794638Y-116597772D01*
X54812525Y-116572820D01*
X54955714Y-116417277D01*
X54955724Y-116417265D01*
X55003678Y-116343866D01*
X55078860Y-116228791D01*
X55169296Y-116022616D01*
X55224564Y-115804368D01*
X55243156Y-115580000D01*
X55224564Y-115355632D01*
X55203961Y-115274274D01*
X55206627Y-115203329D01*
X55237008Y-115154250D01*
X62626405Y-107764854D01*
X62688717Y-107730828D01*
X62759532Y-107735893D01*
X62816368Y-107778440D01*
X62841179Y-107844960D01*
X62841500Y-107853949D01*
X62841500Y-125613389D01*
X62839708Y-125629620D01*
X62839958Y-125629644D01*
X62839211Y-125637536D01*
X62841500Y-125710341D01*
X62841500Y-125741430D01*
X62842427Y-125748776D01*
X62842893Y-125754690D01*
X62844437Y-125803829D01*
X62844438Y-125803832D01*
X62850421Y-125824429D01*
X62854428Y-125843780D01*
X62857117Y-125865060D01*
X62857117Y-125865062D01*
X62875216Y-125910778D01*
X62877139Y-125916394D01*
X62890853Y-125963597D01*
X62890853Y-125963598D01*
X62901771Y-125982058D01*
X62910468Y-125999811D01*
X62918364Y-126019755D01*
X62918367Y-126019760D01*
X62936352Y-126044513D01*
X62947265Y-126059532D01*
X62950521Y-126064490D01*
X62975547Y-126106807D01*
X62990714Y-126121974D01*
X63003552Y-126137005D01*
X63016158Y-126154356D01*
X63054039Y-126185694D01*
X63058420Y-126189680D01*
X66230240Y-129361500D01*
X68057030Y-131188290D01*
X68091056Y-131250602D01*
X68093244Y-131264210D01*
X68106458Y-131389928D01*
X68165473Y-131571556D01*
X68165476Y-131571561D01*
X68260958Y-131736941D01*
X68260965Y-131736951D01*
X68388744Y-131878864D01*
X68388747Y-131878866D01*
X68543248Y-131991118D01*
X68717712Y-132068794D01*
X68904513Y-132108500D01*
X69095487Y-132108500D01*
X69282288Y-132068794D01*
X69456752Y-131991118D01*
X69611253Y-131878866D01*
X69627167Y-131861192D01*
X69739034Y-131736951D01*
X69739035Y-131736949D01*
X69739040Y-131736944D01*
X69834527Y-131571556D01*
X69893542Y-131389928D01*
X69913504Y-131200000D01*
X69893542Y-131010072D01*
X69834527Y-130828444D01*
X69739040Y-130663056D01*
X69739038Y-130663054D01*
X69739034Y-130663048D01*
X69611255Y-130521135D01*
X69456752Y-130408882D01*
X69282288Y-130331206D01*
X69095487Y-130291500D01*
X69074950Y-130291500D01*
X69006829Y-130271498D01*
X68985855Y-130254595D01*
X64195404Y-125464144D01*
X64161378Y-125401832D01*
X64158499Y-125375058D01*
X64158500Y-106907260D01*
X64165746Y-106869279D01*
X64165152Y-106869127D01*
X64168138Y-106857491D01*
X64172455Y-106840677D01*
X64178863Y-106821962D01*
X64180229Y-106818807D01*
X64187380Y-106802283D01*
X64195074Y-106753698D01*
X64196271Y-106747917D01*
X64208500Y-106700295D01*
X64208500Y-106678848D01*
X64210051Y-106659137D01*
X64213406Y-106637955D01*
X64208780Y-106589010D01*
X64208500Y-106583078D01*
X64208500Y-70924450D01*
X64228502Y-70856329D01*
X64245405Y-70835355D01*
X64335355Y-70745405D01*
X64397667Y-70711379D01*
X64424450Y-70708500D01*
X64444987Y-70708500D01*
X64631788Y-70668794D01*
X64806252Y-70591118D01*
X64960753Y-70478866D01*
X65023200Y-70409512D01*
X65088534Y-70336951D01*
X65088535Y-70336949D01*
X65088540Y-70336944D01*
X65184027Y-70171556D01*
X65243042Y-69989928D01*
X65263004Y-69800000D01*
X65243042Y-69610072D01*
X65184027Y-69428444D01*
X65088540Y-69263056D01*
X65088538Y-69263054D01*
X65088534Y-69263048D01*
X64960755Y-69121135D01*
X64806252Y-69008882D01*
X64631788Y-68931206D01*
X64444987Y-68891500D01*
X64254013Y-68891500D01*
X64067211Y-68931206D01*
X63971411Y-68973859D01*
X63892748Y-69008882D01*
X63892746Y-69008882D01*
X63886716Y-69011568D01*
X63885587Y-69009033D01*
X63828476Y-69022875D01*
X63761389Y-68999639D01*
X63717515Y-68943821D01*
X63708500Y-68897019D01*
X63708500Y-68514289D01*
X63728502Y-68446168D01*
X63745400Y-68425198D01*
X64104388Y-68066209D01*
X64117129Y-68056004D01*
X64116969Y-68055810D01*
X64123074Y-68050758D01*
X64123080Y-68050755D01*
X64172945Y-67997653D01*
X64194927Y-67975672D01*
X64199470Y-67969814D01*
X64203308Y-67965319D01*
X64236972Y-67929472D01*
X64247310Y-67910666D01*
X64258152Y-67894162D01*
X64271304Y-67877207D01*
X64290832Y-67832076D01*
X64293441Y-67826753D01*
X64317124Y-67783676D01*
X64322457Y-67762901D01*
X64328856Y-67744208D01*
X64337380Y-67724515D01*
X64345074Y-67675930D01*
X64346271Y-67670149D01*
X64358500Y-67622527D01*
X64358500Y-67601080D01*
X64360051Y-67581369D01*
X64363406Y-67560187D01*
X64358780Y-67511242D01*
X64358500Y-67505310D01*
X64358500Y-55136999D01*
X64375380Y-55074000D01*
X64434527Y-54971556D01*
X64493542Y-54789928D01*
X64513504Y-54600000D01*
X64493542Y-54410072D01*
X64434527Y-54228444D01*
X64339040Y-54063056D01*
X64339038Y-54063054D01*
X64339034Y-54063048D01*
X64211255Y-53921135D01*
X64056752Y-53808882D01*
X63882288Y-53731206D01*
X63695487Y-53691500D01*
X63504513Y-53691500D01*
X63317711Y-53731206D01*
X63143247Y-53808882D01*
X62988744Y-53921135D01*
X62860965Y-54063048D01*
X62860958Y-54063058D01*
X62765476Y-54228438D01*
X62765473Y-54228445D01*
X62706457Y-54410072D01*
X62686496Y-54600000D01*
X62706457Y-54789927D01*
X62711152Y-54804375D01*
X62765473Y-54971556D01*
X62765476Y-54971561D01*
X62860958Y-55136941D01*
X62860965Y-55136951D01*
X62988743Y-55278862D01*
X62988747Y-55278866D01*
X62989554Y-55279452D01*
X62989910Y-55279914D01*
X62993652Y-55283283D01*
X62993036Y-55283967D01*
X63032912Y-55335672D01*
X63041500Y-55381393D01*
X63041500Y-56065500D01*
X63021498Y-56133621D01*
X62967842Y-56180114D01*
X62915500Y-56191500D01*
X62854013Y-56191500D01*
X62667211Y-56231206D01*
X62492747Y-56308882D01*
X62338244Y-56421135D01*
X62210465Y-56563048D01*
X62210458Y-56563058D01*
X62114976Y-56728438D01*
X62114973Y-56728444D01*
X62055958Y-56910072D01*
X62042745Y-57035784D01*
X62015731Y-57101441D01*
X62006530Y-57111708D01*
X60395611Y-58722627D01*
X60382865Y-58732840D01*
X60383025Y-58733033D01*
X60376921Y-58738082D01*
X60327054Y-58791185D01*
X60305071Y-58813168D01*
X60300527Y-58819025D01*
X60296678Y-58823531D01*
X60263029Y-58859365D01*
X60263027Y-58859367D01*
X60252691Y-58878167D01*
X60241843Y-58894680D01*
X60228699Y-58911626D01*
X60228694Y-58911635D01*
X60209172Y-58956747D01*
X60206560Y-58962077D01*
X60182877Y-59005160D01*
X60182873Y-59005170D01*
X60177541Y-59025936D01*
X60171139Y-59044636D01*
X60162620Y-59064320D01*
X60162619Y-59064324D01*
X60154928Y-59112884D01*
X60153724Y-59118697D01*
X60141500Y-59166310D01*
X60141500Y-59187758D01*
X60139949Y-59207467D01*
X60136594Y-59228650D01*
X60136594Y-59228652D01*
X60141220Y-59277594D01*
X60141500Y-59283527D01*
X60141500Y-68906050D01*
X60121498Y-68974171D01*
X60067842Y-69020664D01*
X59997568Y-69030768D01*
X59932988Y-69001274D01*
X59926405Y-68995145D01*
X59626875Y-68695615D01*
X59616664Y-68682869D01*
X59616471Y-68683030D01*
X59611417Y-68676921D01*
X59558314Y-68627054D01*
X59536343Y-68605082D01*
X59536325Y-68605066D01*
X59530482Y-68600534D01*
X59525967Y-68596678D01*
X59523339Y-68594210D01*
X59490133Y-68563028D01*
X59490130Y-68563026D01*
X59490125Y-68563023D01*
X59471338Y-68552694D01*
X59454818Y-68541843D01*
X59437867Y-68528695D01*
X59392739Y-68509166D01*
X59387421Y-68506561D01*
X59360235Y-68491616D01*
X59344338Y-68482876D01*
X59344335Y-68482875D01*
X59323568Y-68477543D01*
X59304865Y-68471140D01*
X59294703Y-68466743D01*
X59285176Y-68462620D01*
X59285174Y-68462619D01*
X59285175Y-68462619D01*
X59236619Y-68454929D01*
X59230804Y-68453725D01*
X59183188Y-68441500D01*
X59161741Y-68441500D01*
X59142032Y-68439949D01*
X59120848Y-68436594D01*
X59120847Y-68436594D01*
X59071906Y-68441220D01*
X59065973Y-68441500D01*
X58280224Y-68441500D01*
X58212103Y-68421498D01*
X58206163Y-68417436D01*
X58056752Y-68308882D01*
X57882288Y-68231206D01*
X57695487Y-68191500D01*
X57504513Y-68191500D01*
X57317711Y-68231206D01*
X57143247Y-68308882D01*
X56988744Y-68421135D01*
X56860965Y-68563048D01*
X56860958Y-68563058D01*
X56765476Y-68728438D01*
X56765473Y-68728445D01*
X56706457Y-68910072D01*
X56686496Y-69100000D01*
X56706457Y-69289927D01*
X56716952Y-69322226D01*
X56765473Y-69471556D01*
X56765476Y-69471561D01*
X56860958Y-69636941D01*
X56860965Y-69636951D01*
X56988744Y-69778864D01*
X56988747Y-69778866D01*
X57143248Y-69891118D01*
X57317712Y-69968794D01*
X57504513Y-70008500D01*
X57695487Y-70008500D01*
X57882288Y-69968794D01*
X58056752Y-69891118D01*
X58206163Y-69782563D01*
X58273031Y-69758706D01*
X58280224Y-69758500D01*
X58775050Y-69758500D01*
X58843171Y-69778502D01*
X58864145Y-69795405D01*
X59004595Y-69935855D01*
X59038621Y-69998167D01*
X59041500Y-70024950D01*
X59041500Y-70409512D01*
X59021498Y-70477633D01*
X58967842Y-70524126D01*
X58897568Y-70534230D01*
X58888827Y-70532202D01*
X58888747Y-70532579D01*
X58695487Y-70491500D01*
X58504513Y-70491500D01*
X58317711Y-70531206D01*
X58143247Y-70608882D01*
X57988744Y-70721135D01*
X57860965Y-70863048D01*
X57860958Y-70863058D01*
X57765476Y-71028438D01*
X57765473Y-71028445D01*
X57706457Y-71210072D01*
X57686496Y-71399999D01*
X57706457Y-71589927D01*
X57720017Y-71631658D01*
X57765473Y-71771556D01*
X57765476Y-71771561D01*
X57860961Y-71936946D01*
X57909135Y-71990448D01*
X57939852Y-72054456D01*
X57941499Y-72074759D01*
X57941500Y-79955049D01*
X57921498Y-80023170D01*
X57904595Y-80044144D01*
X54874164Y-83074574D01*
X54811852Y-83108600D01*
X54741036Y-83103535D01*
X54684201Y-83060988D01*
X54659500Y-82995888D01*
X54644564Y-82815632D01*
X54589296Y-82597384D01*
X54498860Y-82391209D01*
X54484215Y-82368793D01*
X54375724Y-82202734D01*
X54375720Y-82202729D01*
X54223237Y-82037091D01*
X54141382Y-81973381D01*
X54045576Y-81898811D01*
X54012319Y-81880813D01*
X53961929Y-81830802D01*
X53946576Y-81761485D01*
X53971136Y-81694872D01*
X54012320Y-81659186D01*
X54045576Y-81641189D01*
X54223240Y-81502906D01*
X54375722Y-81337268D01*
X54498860Y-81148791D01*
X54589296Y-80942616D01*
X54644564Y-80724368D01*
X54663156Y-80500000D01*
X54644564Y-80275632D01*
X54589296Y-80057384D01*
X54498860Y-79851209D01*
X54492140Y-79840924D01*
X54375724Y-79662734D01*
X54375720Y-79662729D01*
X54223237Y-79497091D01*
X54141382Y-79433381D01*
X54045576Y-79358811D01*
X54012319Y-79340813D01*
X53961929Y-79290802D01*
X53946576Y-79221485D01*
X53971136Y-79154872D01*
X54012320Y-79119186D01*
X54045576Y-79101189D01*
X54223240Y-78962906D01*
X54375722Y-78797268D01*
X54498860Y-78608791D01*
X54589296Y-78402616D01*
X54644564Y-78184368D01*
X54663156Y-77960000D01*
X54644564Y-77735632D01*
X54597099Y-77548197D01*
X54589297Y-77517387D01*
X54589296Y-77517386D01*
X54589296Y-77517384D01*
X54498860Y-77311209D01*
X54492140Y-77300924D01*
X54375724Y-77122734D01*
X54375720Y-77122729D01*
X54223237Y-76957091D01*
X54141382Y-76893381D01*
X54045576Y-76818811D01*
X54011792Y-76800528D01*
X53961402Y-76750516D01*
X53946050Y-76681199D01*
X53970610Y-76614586D01*
X54011793Y-76578901D01*
X54045300Y-76560767D01*
X54045301Y-76560767D01*
X54222902Y-76422534D01*
X54375325Y-76256958D01*
X54498419Y-76068548D01*
X54588820Y-75862456D01*
X54588823Y-75862449D01*
X54636544Y-75674000D01*
X53914844Y-75674000D01*
X53846723Y-75653998D01*
X53800230Y-75600342D01*
X53790126Y-75530068D01*
X53793947Y-75512504D01*
X53800000Y-75491888D01*
X53800000Y-75348111D01*
X53793947Y-75327496D01*
X53793948Y-75256500D01*
X53832333Y-75196774D01*
X53896914Y-75167282D01*
X53914844Y-75166000D01*
X54636544Y-75166000D01*
X54636544Y-75165999D01*
X54588823Y-74977550D01*
X54588820Y-74977543D01*
X54498419Y-74771451D01*
X54375325Y-74583041D01*
X54222902Y-74417465D01*
X54045301Y-74279232D01*
X54045300Y-74279231D01*
X54011791Y-74261097D01*
X53961401Y-74211083D01*
X53946050Y-74141766D01*
X53970612Y-74075153D01*
X54011790Y-74039472D01*
X54045576Y-74021189D01*
X54223240Y-73882906D01*
X54375722Y-73717268D01*
X54498860Y-73528791D01*
X54589296Y-73322616D01*
X54644564Y-73104368D01*
X54663156Y-72880000D01*
X54644564Y-72655632D01*
X54589296Y-72437384D01*
X54498860Y-72231209D01*
X54492140Y-72220924D01*
X54375724Y-72042734D01*
X54375720Y-72042729D01*
X54223237Y-71877091D01*
X54141382Y-71813381D01*
X54045576Y-71738811D01*
X54012319Y-71720813D01*
X53961929Y-71670802D01*
X53946576Y-71601485D01*
X53971136Y-71534872D01*
X54012320Y-71499186D01*
X54045576Y-71481189D01*
X54223240Y-71342906D01*
X54375722Y-71177268D01*
X54498860Y-70988791D01*
X54589296Y-70782616D01*
X54644564Y-70564368D01*
X54663156Y-70340000D01*
X54644564Y-70115632D01*
X54621600Y-70024950D01*
X54589297Y-69897387D01*
X54589296Y-69897386D01*
X54589296Y-69897384D01*
X54498860Y-69691209D01*
X54401434Y-69542087D01*
X54375724Y-69502734D01*
X54375719Y-69502729D01*
X54325019Y-69447655D01*
X54232524Y-69347179D01*
X54201103Y-69283514D01*
X54209090Y-69212968D01*
X54253948Y-69157939D01*
X54281183Y-69143789D01*
X54396204Y-69100889D01*
X54401492Y-69096931D01*
X54513261Y-69013261D01*
X54600887Y-68896207D01*
X54600887Y-68896206D01*
X54600889Y-68896204D01*
X54651989Y-68759201D01*
X54655297Y-68728438D01*
X54658499Y-68698649D01*
X54658500Y-68698632D01*
X54658500Y-66901367D01*
X54658499Y-66901350D01*
X54651990Y-66840803D01*
X54651988Y-66840795D01*
X54600889Y-66703797D01*
X54600887Y-66703792D01*
X54513261Y-66586738D01*
X54396207Y-66499112D01*
X54396202Y-66499110D01*
X54259204Y-66448011D01*
X54259196Y-66448009D01*
X54198649Y-66441500D01*
X54198638Y-66441500D01*
X52401362Y-66441500D01*
X52401350Y-66441500D01*
X52340803Y-66448009D01*
X52340795Y-66448011D01*
X52203797Y-66499110D01*
X52202009Y-66500449D01*
X52199915Y-66501229D01*
X52195882Y-66503432D01*
X52195565Y-66502852D01*
X52135488Y-66525259D01*
X52066114Y-66510167D01*
X52015912Y-66459965D01*
X52000500Y-66399580D01*
X52000500Y-37126500D01*
X52020502Y-37058379D01*
X52074158Y-37011886D01*
X52126500Y-37000500D01*
X70873500Y-37000500D01*
X70941621Y-37020502D01*
G37*
G04 #@! TD.AperFunction*
G04 #@! TA.AperFunction,Conductor*
G36*
X58959533Y-80955893D02*
G01*
X59016368Y-80998440D01*
X59041179Y-81064960D01*
X59041500Y-81073949D01*
X59041500Y-81182267D01*
X59035333Y-81221203D01*
X59006457Y-81310071D01*
X58986496Y-81500000D01*
X59006457Y-81689927D01*
X59025438Y-81748342D01*
X59065473Y-81871556D01*
X59065476Y-81871561D01*
X59160958Y-82036941D01*
X59160965Y-82036951D01*
X59288744Y-82178864D01*
X59321598Y-82202734D01*
X59443248Y-82291118D01*
X59617712Y-82368794D01*
X59804513Y-82408500D01*
X59995487Y-82408500D01*
X60002049Y-82407810D01*
X60002370Y-82410869D01*
X60059780Y-82415097D01*
X60116526Y-82457764D01*
X60141197Y-82524336D01*
X60141499Y-82533060D01*
X60141500Y-100597308D01*
X60121498Y-100665429D01*
X60067842Y-100711922D01*
X59997568Y-100722026D01*
X59963394Y-100710197D01*
X59962784Y-100711568D01*
X59956753Y-100708882D01*
X59956752Y-100708882D01*
X59782288Y-100631206D01*
X59595487Y-100591500D01*
X59404513Y-100591500D01*
X59217711Y-100631206D01*
X59043247Y-100708882D01*
X58893837Y-100817436D01*
X58826969Y-100841294D01*
X58819776Y-100841500D01*
X57324950Y-100841500D01*
X57256829Y-100821498D01*
X57235855Y-100804595D01*
X54942969Y-98511709D01*
X54908943Y-98449397D01*
X54906754Y-98435784D01*
X54893542Y-98310074D01*
X54893541Y-98310069D01*
X54891500Y-98303787D01*
X54834527Y-98128444D01*
X54739040Y-97963056D01*
X54739038Y-97963054D01*
X54739034Y-97963048D01*
X54611255Y-97821135D01*
X54456752Y-97708882D01*
X54282288Y-97631206D01*
X54095487Y-97591500D01*
X53904513Y-97591500D01*
X53717711Y-97631206D01*
X53543247Y-97708882D01*
X53388744Y-97821135D01*
X53328136Y-97888448D01*
X53267690Y-97925688D01*
X53196706Y-97924336D01*
X53137722Y-97884823D01*
X53109464Y-97819692D01*
X53108500Y-97804138D01*
X53108500Y-87064500D01*
X53128502Y-86996379D01*
X53182158Y-86949886D01*
X53234500Y-86938500D01*
X53412565Y-86938500D01*
X53412569Y-86938500D01*
X53634635Y-86901444D01*
X53847574Y-86828342D01*
X54045576Y-86721189D01*
X54223240Y-86582906D01*
X54375722Y-86417268D01*
X54498860Y-86228791D01*
X54589296Y-86022616D01*
X54644564Y-85804368D01*
X54663156Y-85580000D01*
X54644564Y-85355632D01*
X54623961Y-85274274D01*
X54626627Y-85203329D01*
X54657008Y-85154250D01*
X58826405Y-80984854D01*
X58888717Y-80950828D01*
X58959533Y-80955893D01*
G37*
G04 #@! TD.AperFunction*
G04 #@! TA.AperFunction,Conductor*
G36*
X62959531Y-58125394D02*
G01*
X63016367Y-58167941D01*
X63041178Y-58234461D01*
X63041499Y-58243450D01*
X63041499Y-67214388D01*
X63021497Y-67282509D01*
X63004594Y-67303483D01*
X62645611Y-67662466D01*
X62632865Y-67672679D01*
X62633025Y-67672872D01*
X62626921Y-67677921D01*
X62577054Y-67731024D01*
X62555071Y-67753007D01*
X62550527Y-67758864D01*
X62546678Y-67763370D01*
X62513029Y-67799204D01*
X62513027Y-67799206D01*
X62502691Y-67818006D01*
X62491843Y-67834519D01*
X62478699Y-67851465D01*
X62478694Y-67851474D01*
X62459172Y-67896586D01*
X62456560Y-67901916D01*
X62432877Y-67944999D01*
X62432873Y-67945009D01*
X62427541Y-67965775D01*
X62421139Y-67984475D01*
X62412620Y-68004159D01*
X62412619Y-68004163D01*
X62404928Y-68052723D01*
X62403724Y-68058536D01*
X62391500Y-68106149D01*
X62391500Y-68127597D01*
X62389949Y-68147306D01*
X62386594Y-68168489D01*
X62386594Y-68168491D01*
X62391220Y-68217433D01*
X62391500Y-68223366D01*
X62391500Y-78465500D01*
X62371498Y-78533621D01*
X62317842Y-78580114D01*
X62265500Y-78591500D01*
X62104513Y-78591500D01*
X61917711Y-78631206D01*
X61743248Y-78708882D01*
X61658560Y-78770411D01*
X61591692Y-78794269D01*
X61522541Y-78778188D01*
X61473061Y-78727273D01*
X61458500Y-78668474D01*
X61458500Y-59574450D01*
X61478502Y-59506329D01*
X61495405Y-59485355D01*
X62159395Y-58821365D01*
X62826406Y-58154353D01*
X62888716Y-58120330D01*
X62959531Y-58125394D01*
G37*
G04 #@! TD.AperFunction*
M02*
