%TF.GenerationSoftware,KiCad,Pcbnew,8.0.6-8.0.6-0~ubuntu22.04.1*%
%TF.CreationDate,2025-04-15T21:33:34+01:00*%
%TF.ProjectId,RP2040-VCO,52503230-3430-42d5-9643-4f2e6b696361,rev?*%
%TF.SameCoordinates,Original*%
%TF.FileFunction,Drillmap*%
%TF.FilePolarity,Positive*%
%FSLAX45Y45*%
G04 Gerber Fmt 4.5, Leading zero omitted, Abs format (unit mm)*
G04 Created by KiCad (PCBNEW 8.0.6-8.0.6-0~ubuntu22.04.1) date 2025-04-15 21:33:34*
%MOMM*%
%LPD*%
G01*
G04 APERTURE LIST*
%ADD10C,0.050000*%
%ADD11C,0.200000*%
%ADD12C,0.100000*%
G04 APERTURE END LIST*
D10*
X7150000Y-3650000D02*
X7150000Y-14650000D01*
X5150000Y-3650000D02*
X5150000Y-14650000D01*
X5150000Y-14650000D02*
X7150000Y-14650000D01*
X5150000Y-3650000D02*
X7150000Y-3650000D01*
D11*
D12*
X5340000Y-8920000D02*
X5380000Y-8960000D01*
X5380000Y-8920000D02*
X5340000Y-8960000D01*
X5340000Y-9010000D02*
X5380000Y-9050000D01*
X5380000Y-9010000D02*
X5340000Y-9050000D01*
X5340000Y-9100000D02*
X5380000Y-9140000D01*
X5380000Y-9100000D02*
X5340000Y-9140000D01*
X5380000Y-9830000D02*
X5420000Y-9870000D01*
X5420000Y-9830000D02*
X5380000Y-9870000D01*
X5390000Y-13110000D02*
X5430000Y-13150000D01*
X5430000Y-13110000D02*
X5390000Y-13150000D01*
X5480000Y-4910000D02*
X5520000Y-4950000D01*
X5520000Y-4910000D02*
X5480000Y-4950000D01*
X5480000Y-5000000D02*
X5520000Y-5040000D01*
X5520000Y-5000000D02*
X5480000Y-5040000D01*
X5500000Y-7000000D02*
X5540000Y-7040000D01*
X5540000Y-7000000D02*
X5500000Y-7040000D01*
X5570000Y-4910000D02*
X5610000Y-4950000D01*
X5610000Y-4910000D02*
X5570000Y-4950000D01*
X5570000Y-5000000D02*
X5610000Y-5040000D01*
X5610000Y-5000000D02*
X5570000Y-5040000D01*
X5590000Y-7280000D02*
X5630000Y-7320000D01*
X5630000Y-7280000D02*
X5590000Y-7320000D01*
X5600000Y-9120000D02*
X5640000Y-9160000D01*
X5640000Y-9120000D02*
X5600000Y-9160000D01*
X5600000Y-9210000D02*
X5640000Y-9250000D01*
X5640000Y-9210000D02*
X5600000Y-9250000D01*
X5600000Y-9300000D02*
X5640000Y-9340000D01*
X5640000Y-9300000D02*
X5600000Y-9340000D01*
X5740000Y-6890000D02*
X5780000Y-6930000D01*
X5780000Y-6890000D02*
X5740000Y-6930000D01*
X5840000Y-7120000D02*
X5880000Y-7160000D01*
X5880000Y-7120000D02*
X5840000Y-7160000D01*
X5840000Y-9760000D02*
X5880000Y-9800000D01*
X5880000Y-9760000D02*
X5840000Y-9800000D01*
X5840000Y-9860000D02*
X5880000Y-9900000D01*
X5880000Y-9860000D02*
X5840000Y-9900000D01*
X5900000Y-11970000D02*
X5940000Y-12010000D01*
X5940000Y-11970000D02*
X5900000Y-12010000D01*
X5920000Y-9810000D02*
X5960000Y-9850000D01*
X5960000Y-9810000D02*
X5920000Y-9850000D01*
X5930000Y-10130000D02*
X5970000Y-10170000D01*
X5970000Y-10130000D02*
X5930000Y-10170000D01*
X5950000Y-12050000D02*
X5990000Y-12090000D01*
X5990000Y-12050000D02*
X5950000Y-12090000D01*
X5960000Y-8290000D02*
X6000000Y-8330000D01*
X6000000Y-8290000D02*
X5960000Y-8330000D01*
X5960000Y-8380000D02*
X6000000Y-8420000D01*
X6000000Y-8380000D02*
X5960000Y-8420000D01*
X5970000Y-8130000D02*
X6010000Y-8170000D01*
X6010000Y-8130000D02*
X5970000Y-8170000D01*
X6000000Y-11970000D02*
X6040000Y-12010000D01*
X6040000Y-11970000D02*
X6000000Y-12010000D01*
X6200000Y-6140000D02*
X6240000Y-6180000D01*
X6240000Y-6140000D02*
X6200000Y-6180000D01*
X6200000Y-6230000D02*
X6240000Y-6270000D01*
X6240000Y-6230000D02*
X6200000Y-6270000D01*
X6200000Y-7950000D02*
X6240000Y-7990000D01*
X6240000Y-7950000D02*
X6200000Y-7990000D01*
X6210000Y-6830000D02*
X6250000Y-6870000D01*
X6250000Y-6830000D02*
X6210000Y-6870000D01*
X6274950Y-5690000D02*
X6314950Y-5730000D01*
X6314950Y-5690000D02*
X6274950Y-5730000D01*
X6340000Y-5440000D02*
X6380000Y-5480000D01*
X6380000Y-5440000D02*
X6340000Y-5480000D01*
X6400000Y-6830000D02*
X6440000Y-6870000D01*
X6440000Y-6830000D02*
X6400000Y-6870000D01*
X6414950Y-6960000D02*
X6454950Y-7000000D01*
X6454950Y-6960000D02*
X6414950Y-7000000D01*
X6440000Y-8770000D02*
X6480000Y-8810000D01*
X6480000Y-8770000D02*
X6440000Y-8810000D01*
X6440000Y-8860000D02*
X6480000Y-8900000D01*
X6480000Y-8860000D02*
X6440000Y-8900000D01*
X6440000Y-8950000D02*
X6480000Y-8990000D01*
X6480000Y-8950000D02*
X6440000Y-8990000D01*
X6530000Y-5940000D02*
X6570000Y-5980000D01*
X6570000Y-5940000D02*
X6530000Y-5980000D01*
X6570000Y-7510000D02*
X6610000Y-7550000D01*
X6610000Y-7510000D02*
X6570000Y-7550000D01*
X6570000Y-7600000D02*
X6610000Y-7640000D01*
X6610000Y-7600000D02*
X6570000Y-7640000D01*
X6580000Y-6030000D02*
X6620000Y-6070000D01*
X6620000Y-6030000D02*
X6580000Y-6070000D01*
X6590000Y-8430000D02*
X6630000Y-8470000D01*
X6630000Y-8430000D02*
X6590000Y-8470000D01*
X6590000Y-8520000D02*
X6630000Y-8560000D01*
X6630000Y-8520000D02*
X6590000Y-8560000D01*
X6590000Y-8610000D02*
X6630000Y-8650000D01*
X6630000Y-8610000D02*
X6590000Y-8650000D01*
X6600000Y-10920000D02*
X6640000Y-10960000D01*
X6640000Y-10920000D02*
X6600000Y-10960000D01*
X6630000Y-5940000D02*
X6670000Y-5980000D01*
X6670000Y-5940000D02*
X6630000Y-5980000D01*
X6680000Y-13260000D02*
X6720000Y-13300000D01*
X6720000Y-13260000D02*
X6680000Y-13300000D01*
X6690000Y-10920000D02*
X6730000Y-10960000D01*
X6730000Y-10920000D02*
X6690000Y-10960000D01*
X6730000Y-13350000D02*
X6770000Y-13390000D01*
X6770000Y-13350000D02*
X6730000Y-13390000D01*
X6780000Y-13260000D02*
X6820000Y-13300000D01*
X6820000Y-13260000D02*
X6780000Y-13300000D01*
X6880000Y-7710000D02*
X6920000Y-7750000D01*
X6920000Y-7710000D02*
X6880000Y-7750000D01*
X6880000Y-13100000D02*
X6920000Y-13140000D01*
X6920000Y-13100000D02*
X6880000Y-13140000D01*
X6910000Y-8690000D02*
X6950000Y-8730000D01*
X6950000Y-8690000D02*
X6910000Y-8730000D01*
X6910000Y-8780000D02*
X6950000Y-8820000D01*
X6950000Y-8780000D02*
X6910000Y-8820000D01*
X6910000Y-8870000D02*
X6950000Y-8910000D01*
X6950000Y-8870000D02*
X6910000Y-8910000D01*
X6980000Y-6390000D02*
X7020000Y-6430000D01*
X7020000Y-6390000D02*
X6980000Y-6430000D01*
X5380000Y-6780000D02*
G75*
G02*
X5280000Y-6780000I-50000J0D01*
G01*
X5280000Y-6780000D02*
G75*
G02*
X5380000Y-6780000I50000J0D01*
G01*
X5380000Y-7034000D02*
G75*
G02*
X5280000Y-7034000I-50000J0D01*
G01*
X5280000Y-7034000D02*
G75*
G02*
X5380000Y-7034000I50000J0D01*
G01*
X5380000Y-7288000D02*
G75*
G02*
X5280000Y-7288000I-50000J0D01*
G01*
X5280000Y-7288000D02*
G75*
G02*
X5380000Y-7288000I50000J0D01*
G01*
X5380000Y-7542000D02*
G75*
G02*
X5280000Y-7542000I-50000J0D01*
G01*
X5280000Y-7542000D02*
G75*
G02*
X5380000Y-7542000I50000J0D01*
G01*
X5380000Y-7796000D02*
G75*
G02*
X5280000Y-7796000I-50000J0D01*
G01*
X5280000Y-7796000D02*
G75*
G02*
X5380000Y-7796000I50000J0D01*
G01*
X5380000Y-8050000D02*
G75*
G02*
X5280000Y-8050000I-50000J0D01*
G01*
X5280000Y-8050000D02*
G75*
G02*
X5380000Y-8050000I50000J0D01*
G01*
X5380000Y-8304000D02*
G75*
G02*
X5280000Y-8304000I-50000J0D01*
G01*
X5280000Y-8304000D02*
G75*
G02*
X5380000Y-8304000I50000J0D01*
G01*
X5380000Y-8558000D02*
G75*
G02*
X5280000Y-8558000I-50000J0D01*
G01*
X5280000Y-8558000D02*
G75*
G02*
X5380000Y-8558000I50000J0D01*
G01*
X5438000Y-10288000D02*
G75*
G02*
X5338000Y-10288000I-50000J0D01*
G01*
X5338000Y-10288000D02*
G75*
G02*
X5438000Y-10288000I50000J0D01*
G01*
X5438000Y-10542000D02*
G75*
G02*
X5338000Y-10542000I-50000J0D01*
G01*
X5338000Y-10542000D02*
G75*
G02*
X5438000Y-10542000I50000J0D01*
G01*
X5438000Y-10796000D02*
G75*
G02*
X5338000Y-10796000I-50000J0D01*
G01*
X5338000Y-10796000D02*
G75*
G02*
X5438000Y-10796000I50000J0D01*
G01*
X5438000Y-11050000D02*
G75*
G02*
X5338000Y-11050000I-50000J0D01*
G01*
X5338000Y-11050000D02*
G75*
G02*
X5438000Y-11050000I50000J0D01*
G01*
X5438000Y-11304000D02*
G75*
G02*
X5338000Y-11304000I-50000J0D01*
G01*
X5338000Y-11304000D02*
G75*
G02*
X5438000Y-11304000I50000J0D01*
G01*
X5438000Y-11558000D02*
G75*
G02*
X5338000Y-11558000I-50000J0D01*
G01*
X5338000Y-11558000D02*
G75*
G02*
X5438000Y-11558000I50000J0D01*
G01*
X5438000Y-11812000D02*
G75*
G02*
X5338000Y-11812000I-50000J0D01*
G01*
X5338000Y-11812000D02*
G75*
G02*
X5438000Y-11812000I50000J0D01*
G01*
X6080000Y-13072000D02*
G75*
G02*
X5980000Y-13072000I-50000J0D01*
G01*
X5980000Y-13072000D02*
G75*
G02*
X6080000Y-13072000I50000J0D01*
G01*
X6080000Y-13326000D02*
G75*
G02*
X5980000Y-13326000I-50000J0D01*
G01*
X5980000Y-13326000D02*
G75*
G02*
X6080000Y-13326000I50000J0D01*
G01*
X6080000Y-13580000D02*
G75*
G02*
X5980000Y-13580000I-50000J0D01*
G01*
X5980000Y-13580000D02*
G75*
G02*
X6080000Y-13580000I50000J0D01*
G01*
X6080000Y-13834000D02*
G75*
G02*
X5980000Y-13834000I-50000J0D01*
G01*
X5980000Y-13834000D02*
G75*
G02*
X6080000Y-13834000I50000J0D01*
G01*
X6080000Y-14088000D02*
G75*
G02*
X5980000Y-14088000I-50000J0D01*
G01*
X5980000Y-14088000D02*
G75*
G02*
X6080000Y-14088000I50000J0D01*
G01*
X6334000Y-13072000D02*
G75*
G02*
X6234000Y-13072000I-50000J0D01*
G01*
X6234000Y-13072000D02*
G75*
G02*
X6334000Y-13072000I50000J0D01*
G01*
X6334000Y-13326000D02*
G75*
G02*
X6234000Y-13326000I-50000J0D01*
G01*
X6234000Y-13326000D02*
G75*
G02*
X6334000Y-13326000I50000J0D01*
G01*
X6334000Y-13580000D02*
G75*
G02*
X6234000Y-13580000I-50000J0D01*
G01*
X6234000Y-13580000D02*
G75*
G02*
X6334000Y-13580000I50000J0D01*
G01*
X6334000Y-13834000D02*
G75*
G02*
X6234000Y-13834000I-50000J0D01*
G01*
X6234000Y-13834000D02*
G75*
G02*
X6334000Y-13834000I50000J0D01*
G01*
X6334000Y-14088000D02*
G75*
G02*
X6234000Y-14088000I-50000J0D01*
G01*
X6234000Y-14088000D02*
G75*
G02*
X6334000Y-14088000I50000J0D01*
G01*
X6962000Y-10288000D02*
G75*
G02*
X6862000Y-10288000I-50000J0D01*
G01*
X6862000Y-10288000D02*
G75*
G02*
X6962000Y-10288000I50000J0D01*
G01*
X6962000Y-10542000D02*
G75*
G02*
X6862000Y-10542000I-50000J0D01*
G01*
X6862000Y-10542000D02*
G75*
G02*
X6962000Y-10542000I50000J0D01*
G01*
X6962000Y-10796000D02*
G75*
G02*
X6862000Y-10796000I-50000J0D01*
G01*
X6862000Y-10796000D02*
G75*
G02*
X6962000Y-10796000I50000J0D01*
G01*
X6962000Y-11050000D02*
G75*
G02*
X6862000Y-11050000I-50000J0D01*
G01*
X6862000Y-11050000D02*
G75*
G02*
X6962000Y-11050000I50000J0D01*
G01*
X6962000Y-11304000D02*
G75*
G02*
X6862000Y-11304000I-50000J0D01*
G01*
X6862000Y-11304000D02*
G75*
G02*
X6962000Y-11304000I50000J0D01*
G01*
X6962000Y-11558000D02*
G75*
G02*
X6862000Y-11558000I-50000J0D01*
G01*
X6862000Y-11558000D02*
G75*
G02*
X6962000Y-11558000I50000J0D01*
G01*
X6962000Y-11812000D02*
G75*
G02*
X6862000Y-11812000I-50000J0D01*
G01*
X6862000Y-11812000D02*
G75*
G02*
X6962000Y-11812000I50000J0D01*
G01*
X7020000Y-4950000D02*
G75*
G02*
X6920000Y-4950000I-50000J0D01*
G01*
X6920000Y-4950000D02*
G75*
G02*
X7020000Y-4950000I50000J0D01*
G01*
X7020000Y-5204000D02*
G75*
G02*
X6920000Y-5204000I-50000J0D01*
G01*
X6920000Y-5204000D02*
G75*
G02*
X7020000Y-5204000I50000J0D01*
G01*
X7020000Y-5458000D02*
G75*
G02*
X6920000Y-5458000I-50000J0D01*
G01*
X6920000Y-5458000D02*
G75*
G02*
X7020000Y-5458000I50000J0D01*
G01*
X7020000Y-5712000D02*
G75*
G02*
X6920000Y-5712000I-50000J0D01*
G01*
X6920000Y-5712000D02*
G75*
G02*
X7020000Y-5712000I50000J0D01*
G01*
X7020000Y-5966000D02*
G75*
G02*
X6920000Y-5966000I-50000J0D01*
G01*
X6920000Y-5966000D02*
G75*
G02*
X7020000Y-5966000I50000J0D01*
G01*
X7020000Y-6220000D02*
G75*
G02*
X6920000Y-6220000I-50000J0D01*
G01*
X6920000Y-6220000D02*
G75*
G02*
X7020000Y-6220000I50000J0D01*
G01*
D11*
X5408277Y-14963984D02*
X5408277Y-14763984D01*
X5408277Y-14763984D02*
X5455896Y-14763984D01*
X5455896Y-14763984D02*
X5484467Y-14773508D01*
X5484467Y-14773508D02*
X5503515Y-14792555D01*
X5503515Y-14792555D02*
X5513039Y-14811603D01*
X5513039Y-14811603D02*
X5522563Y-14849698D01*
X5522563Y-14849698D02*
X5522563Y-14878269D01*
X5522563Y-14878269D02*
X5513039Y-14916365D01*
X5513039Y-14916365D02*
X5503515Y-14935412D01*
X5503515Y-14935412D02*
X5484467Y-14954460D01*
X5484467Y-14954460D02*
X5455896Y-14963984D01*
X5455896Y-14963984D02*
X5408277Y-14963984D01*
X5608277Y-14963984D02*
X5608277Y-14830650D01*
X5608277Y-14868746D02*
X5617801Y-14849698D01*
X5617801Y-14849698D02*
X5627324Y-14840174D01*
X5627324Y-14840174D02*
X5646372Y-14830650D01*
X5646372Y-14830650D02*
X5665420Y-14830650D01*
X5732086Y-14963984D02*
X5732086Y-14830650D01*
X5732086Y-14763984D02*
X5722562Y-14773508D01*
X5722562Y-14773508D02*
X5732086Y-14783031D01*
X5732086Y-14783031D02*
X5741610Y-14773508D01*
X5741610Y-14773508D02*
X5732086Y-14763984D01*
X5732086Y-14763984D02*
X5732086Y-14783031D01*
X5855896Y-14963984D02*
X5836848Y-14954460D01*
X5836848Y-14954460D02*
X5827324Y-14935412D01*
X5827324Y-14935412D02*
X5827324Y-14763984D01*
X5960658Y-14963984D02*
X5941610Y-14954460D01*
X5941610Y-14954460D02*
X5932086Y-14935412D01*
X5932086Y-14935412D02*
X5932086Y-14763984D01*
X6189229Y-14963984D02*
X6189229Y-14763984D01*
X6189229Y-14763984D02*
X6255896Y-14906841D01*
X6255896Y-14906841D02*
X6322562Y-14763984D01*
X6322562Y-14763984D02*
X6322562Y-14963984D01*
X6503515Y-14963984D02*
X6503515Y-14859222D01*
X6503515Y-14859222D02*
X6493991Y-14840174D01*
X6493991Y-14840174D02*
X6474943Y-14830650D01*
X6474943Y-14830650D02*
X6436848Y-14830650D01*
X6436848Y-14830650D02*
X6417801Y-14840174D01*
X6503515Y-14954460D02*
X6484467Y-14963984D01*
X6484467Y-14963984D02*
X6436848Y-14963984D01*
X6436848Y-14963984D02*
X6417801Y-14954460D01*
X6417801Y-14954460D02*
X6408277Y-14935412D01*
X6408277Y-14935412D02*
X6408277Y-14916365D01*
X6408277Y-14916365D02*
X6417801Y-14897317D01*
X6417801Y-14897317D02*
X6436848Y-14887793D01*
X6436848Y-14887793D02*
X6484467Y-14887793D01*
X6484467Y-14887793D02*
X6503515Y-14878269D01*
X6598753Y-14830650D02*
X6598753Y-15030650D01*
X6598753Y-14840174D02*
X6617801Y-14830650D01*
X6617801Y-14830650D02*
X6655896Y-14830650D01*
X6655896Y-14830650D02*
X6674943Y-14840174D01*
X6674943Y-14840174D02*
X6684467Y-14849698D01*
X6684467Y-14849698D02*
X6693991Y-14868746D01*
X6693991Y-14868746D02*
X6693991Y-14925888D01*
X6693991Y-14925888D02*
X6684467Y-14944936D01*
X6684467Y-14944936D02*
X6674943Y-14954460D01*
X6674943Y-14954460D02*
X6655896Y-14963984D01*
X6655896Y-14963984D02*
X6617801Y-14963984D01*
X6617801Y-14963984D02*
X6598753Y-14954460D01*
X6779705Y-14944936D02*
X6789229Y-14954460D01*
X6789229Y-14954460D02*
X6779705Y-14963984D01*
X6779705Y-14963984D02*
X6770182Y-14954460D01*
X6770182Y-14954460D02*
X6779705Y-14944936D01*
X6779705Y-14944936D02*
X6779705Y-14963984D01*
X6779705Y-14840174D02*
X6789229Y-14849698D01*
X6789229Y-14849698D02*
X6779705Y-14859222D01*
X6779705Y-14859222D02*
X6770182Y-14849698D01*
X6770182Y-14849698D02*
X6779705Y-14840174D01*
X6779705Y-14840174D02*
X6779705Y-14859222D01*
D12*
X5107500Y-15272500D02*
X5147500Y-15312500D01*
X5147500Y-15272500D02*
X5107500Y-15312500D01*
D11*
X5446372Y-15183984D02*
X5465420Y-15183984D01*
X5465420Y-15183984D02*
X5484467Y-15193508D01*
X5484467Y-15193508D02*
X5493991Y-15203031D01*
X5493991Y-15203031D02*
X5503515Y-15222079D01*
X5503515Y-15222079D02*
X5513039Y-15260174D01*
X5513039Y-15260174D02*
X5513039Y-15307793D01*
X5513039Y-15307793D02*
X5503515Y-15345888D01*
X5503515Y-15345888D02*
X5493991Y-15364936D01*
X5493991Y-15364936D02*
X5484467Y-15374460D01*
X5484467Y-15374460D02*
X5465420Y-15383984D01*
X5465420Y-15383984D02*
X5446372Y-15383984D01*
X5446372Y-15383984D02*
X5427324Y-15374460D01*
X5427324Y-15374460D02*
X5417801Y-15364936D01*
X5417801Y-15364936D02*
X5408277Y-15345888D01*
X5408277Y-15345888D02*
X5398753Y-15307793D01*
X5398753Y-15307793D02*
X5398753Y-15260174D01*
X5398753Y-15260174D02*
X5408277Y-15222079D01*
X5408277Y-15222079D02*
X5417801Y-15203031D01*
X5417801Y-15203031D02*
X5427324Y-15193508D01*
X5427324Y-15193508D02*
X5446372Y-15183984D01*
X5598753Y-15364936D02*
X5608277Y-15374460D01*
X5608277Y-15374460D02*
X5598753Y-15383984D01*
X5598753Y-15383984D02*
X5589229Y-15374460D01*
X5589229Y-15374460D02*
X5598753Y-15364936D01*
X5598753Y-15364936D02*
X5598753Y-15383984D01*
X5779705Y-15250650D02*
X5779705Y-15383984D01*
X5732086Y-15174460D02*
X5684467Y-15317317D01*
X5684467Y-15317317D02*
X5808277Y-15317317D01*
X5922562Y-15183984D02*
X5941610Y-15183984D01*
X5941610Y-15183984D02*
X5960658Y-15193508D01*
X5960658Y-15193508D02*
X5970182Y-15203031D01*
X5970182Y-15203031D02*
X5979705Y-15222079D01*
X5979705Y-15222079D02*
X5989229Y-15260174D01*
X5989229Y-15260174D02*
X5989229Y-15307793D01*
X5989229Y-15307793D02*
X5979705Y-15345888D01*
X5979705Y-15345888D02*
X5970182Y-15364936D01*
X5970182Y-15364936D02*
X5960658Y-15374460D01*
X5960658Y-15374460D02*
X5941610Y-15383984D01*
X5941610Y-15383984D02*
X5922562Y-15383984D01*
X5922562Y-15383984D02*
X5903515Y-15374460D01*
X5903515Y-15374460D02*
X5893991Y-15364936D01*
X5893991Y-15364936D02*
X5884467Y-15345888D01*
X5884467Y-15345888D02*
X5874943Y-15307793D01*
X5874943Y-15307793D02*
X5874943Y-15260174D01*
X5874943Y-15260174D02*
X5884467Y-15222079D01*
X5884467Y-15222079D02*
X5893991Y-15203031D01*
X5893991Y-15203031D02*
X5903515Y-15193508D01*
X5903515Y-15193508D02*
X5922562Y-15183984D01*
X6113039Y-15183984D02*
X6132086Y-15183984D01*
X6132086Y-15183984D02*
X6151134Y-15193508D01*
X6151134Y-15193508D02*
X6160658Y-15203031D01*
X6160658Y-15203031D02*
X6170182Y-15222079D01*
X6170182Y-15222079D02*
X6179705Y-15260174D01*
X6179705Y-15260174D02*
X6179705Y-15307793D01*
X6179705Y-15307793D02*
X6170182Y-15345888D01*
X6170182Y-15345888D02*
X6160658Y-15364936D01*
X6160658Y-15364936D02*
X6151134Y-15374460D01*
X6151134Y-15374460D02*
X6132086Y-15383984D01*
X6132086Y-15383984D02*
X6113039Y-15383984D01*
X6113039Y-15383984D02*
X6093991Y-15374460D01*
X6093991Y-15374460D02*
X6084467Y-15364936D01*
X6084467Y-15364936D02*
X6074943Y-15345888D01*
X6074943Y-15345888D02*
X6065420Y-15307793D01*
X6065420Y-15307793D02*
X6065420Y-15260174D01*
X6065420Y-15260174D02*
X6074943Y-15222079D01*
X6074943Y-15222079D02*
X6084467Y-15203031D01*
X6084467Y-15203031D02*
X6093991Y-15193508D01*
X6093991Y-15193508D02*
X6113039Y-15183984D01*
X6265420Y-15383984D02*
X6265420Y-15250650D01*
X6265420Y-15269698D02*
X6274943Y-15260174D01*
X6274943Y-15260174D02*
X6293991Y-15250650D01*
X6293991Y-15250650D02*
X6322563Y-15250650D01*
X6322563Y-15250650D02*
X6341610Y-15260174D01*
X6341610Y-15260174D02*
X6351134Y-15279222D01*
X6351134Y-15279222D02*
X6351134Y-15383984D01*
X6351134Y-15279222D02*
X6360658Y-15260174D01*
X6360658Y-15260174D02*
X6379705Y-15250650D01*
X6379705Y-15250650D02*
X6408277Y-15250650D01*
X6408277Y-15250650D02*
X6427324Y-15260174D01*
X6427324Y-15260174D02*
X6436848Y-15279222D01*
X6436848Y-15279222D02*
X6436848Y-15383984D01*
X6532086Y-15383984D02*
X6532086Y-15250650D01*
X6532086Y-15269698D02*
X6541610Y-15260174D01*
X6541610Y-15260174D02*
X6560658Y-15250650D01*
X6560658Y-15250650D02*
X6589229Y-15250650D01*
X6589229Y-15250650D02*
X6608277Y-15260174D01*
X6608277Y-15260174D02*
X6617801Y-15279222D01*
X6617801Y-15279222D02*
X6617801Y-15383984D01*
X6617801Y-15279222D02*
X6627324Y-15260174D01*
X6627324Y-15260174D02*
X6646372Y-15250650D01*
X6646372Y-15250650D02*
X6674943Y-15250650D01*
X6674943Y-15250650D02*
X6693991Y-15260174D01*
X6693991Y-15260174D02*
X6703515Y-15279222D01*
X6703515Y-15279222D02*
X6703515Y-15383984D01*
X7093991Y-15174460D02*
X6922563Y-15431603D01*
X7351134Y-15183984D02*
X7370182Y-15183984D01*
X7370182Y-15183984D02*
X7389229Y-15193508D01*
X7389229Y-15193508D02*
X7398753Y-15203031D01*
X7398753Y-15203031D02*
X7408277Y-15222079D01*
X7408277Y-15222079D02*
X7417801Y-15260174D01*
X7417801Y-15260174D02*
X7417801Y-15307793D01*
X7417801Y-15307793D02*
X7408277Y-15345888D01*
X7408277Y-15345888D02*
X7398753Y-15364936D01*
X7398753Y-15364936D02*
X7389229Y-15374460D01*
X7389229Y-15374460D02*
X7370182Y-15383984D01*
X7370182Y-15383984D02*
X7351134Y-15383984D01*
X7351134Y-15383984D02*
X7332086Y-15374460D01*
X7332086Y-15374460D02*
X7322563Y-15364936D01*
X7322563Y-15364936D02*
X7313039Y-15345888D01*
X7313039Y-15345888D02*
X7303515Y-15307793D01*
X7303515Y-15307793D02*
X7303515Y-15260174D01*
X7303515Y-15260174D02*
X7313039Y-15222079D01*
X7313039Y-15222079D02*
X7322563Y-15203031D01*
X7322563Y-15203031D02*
X7332086Y-15193508D01*
X7332086Y-15193508D02*
X7351134Y-15183984D01*
X7503515Y-15364936D02*
X7513039Y-15374460D01*
X7513039Y-15374460D02*
X7503515Y-15383984D01*
X7503515Y-15383984D02*
X7493991Y-15374460D01*
X7493991Y-15374460D02*
X7503515Y-15364936D01*
X7503515Y-15364936D02*
X7503515Y-15383984D01*
X7636848Y-15183984D02*
X7655896Y-15183984D01*
X7655896Y-15183984D02*
X7674944Y-15193508D01*
X7674944Y-15193508D02*
X7684467Y-15203031D01*
X7684467Y-15203031D02*
X7693991Y-15222079D01*
X7693991Y-15222079D02*
X7703515Y-15260174D01*
X7703515Y-15260174D02*
X7703515Y-15307793D01*
X7703515Y-15307793D02*
X7693991Y-15345888D01*
X7693991Y-15345888D02*
X7684467Y-15364936D01*
X7684467Y-15364936D02*
X7674944Y-15374460D01*
X7674944Y-15374460D02*
X7655896Y-15383984D01*
X7655896Y-15383984D02*
X7636848Y-15383984D01*
X7636848Y-15383984D02*
X7617801Y-15374460D01*
X7617801Y-15374460D02*
X7608277Y-15364936D01*
X7608277Y-15364936D02*
X7598753Y-15345888D01*
X7598753Y-15345888D02*
X7589229Y-15307793D01*
X7589229Y-15307793D02*
X7589229Y-15260174D01*
X7589229Y-15260174D02*
X7598753Y-15222079D01*
X7598753Y-15222079D02*
X7608277Y-15203031D01*
X7608277Y-15203031D02*
X7617801Y-15193508D01*
X7617801Y-15193508D02*
X7636848Y-15183984D01*
X7893991Y-15383984D02*
X7779706Y-15383984D01*
X7836848Y-15383984D02*
X7836848Y-15183984D01*
X7836848Y-15183984D02*
X7817801Y-15212555D01*
X7817801Y-15212555D02*
X7798753Y-15231603D01*
X7798753Y-15231603D02*
X7779706Y-15241127D01*
X8074944Y-15183984D02*
X7979706Y-15183984D01*
X7979706Y-15183984D02*
X7970182Y-15279222D01*
X7970182Y-15279222D02*
X7979706Y-15269698D01*
X7979706Y-15269698D02*
X7998753Y-15260174D01*
X7998753Y-15260174D02*
X8046372Y-15260174D01*
X8046372Y-15260174D02*
X8065420Y-15269698D01*
X8065420Y-15269698D02*
X8074944Y-15279222D01*
X8074944Y-15279222D02*
X8084467Y-15298269D01*
X8084467Y-15298269D02*
X8084467Y-15345888D01*
X8084467Y-15345888D02*
X8074944Y-15364936D01*
X8074944Y-15364936D02*
X8065420Y-15374460D01*
X8065420Y-15374460D02*
X8046372Y-15383984D01*
X8046372Y-15383984D02*
X7998753Y-15383984D01*
X7998753Y-15383984D02*
X7979706Y-15374460D01*
X7979706Y-15374460D02*
X7970182Y-15364936D01*
X8151134Y-15183984D02*
X8284467Y-15183984D01*
X8284467Y-15183984D02*
X8198753Y-15383984D01*
X8351134Y-15183984D02*
X8351134Y-15222079D01*
X8427325Y-15183984D02*
X8427325Y-15222079D01*
X8722563Y-15460174D02*
X8713039Y-15450650D01*
X8713039Y-15450650D02*
X8693991Y-15422079D01*
X8693991Y-15422079D02*
X8684468Y-15403031D01*
X8684468Y-15403031D02*
X8674944Y-15374460D01*
X8674944Y-15374460D02*
X8665420Y-15326841D01*
X8665420Y-15326841D02*
X8665420Y-15288746D01*
X8665420Y-15288746D02*
X8674944Y-15241127D01*
X8674944Y-15241127D02*
X8684468Y-15212555D01*
X8684468Y-15212555D02*
X8693991Y-15193508D01*
X8693991Y-15193508D02*
X8713039Y-15164936D01*
X8713039Y-15164936D02*
X8722563Y-15155412D01*
X8893991Y-15183984D02*
X8798753Y-15183984D01*
X8798753Y-15183984D02*
X8789230Y-15279222D01*
X8789230Y-15279222D02*
X8798753Y-15269698D01*
X8798753Y-15269698D02*
X8817801Y-15260174D01*
X8817801Y-15260174D02*
X8865420Y-15260174D01*
X8865420Y-15260174D02*
X8884468Y-15269698D01*
X8884468Y-15269698D02*
X8893991Y-15279222D01*
X8893991Y-15279222D02*
X8903515Y-15298269D01*
X8903515Y-15298269D02*
X8903515Y-15345888D01*
X8903515Y-15345888D02*
X8893991Y-15364936D01*
X8893991Y-15364936D02*
X8884468Y-15374460D01*
X8884468Y-15374460D02*
X8865420Y-15383984D01*
X8865420Y-15383984D02*
X8817801Y-15383984D01*
X8817801Y-15383984D02*
X8798753Y-15374460D01*
X8798753Y-15374460D02*
X8789230Y-15364936D01*
X9074944Y-15183984D02*
X9036849Y-15183984D01*
X9036849Y-15183984D02*
X9017801Y-15193508D01*
X9017801Y-15193508D02*
X9008277Y-15203031D01*
X9008277Y-15203031D02*
X8989230Y-15231603D01*
X8989230Y-15231603D02*
X8979706Y-15269698D01*
X8979706Y-15269698D02*
X8979706Y-15345888D01*
X8979706Y-15345888D02*
X8989230Y-15364936D01*
X8989230Y-15364936D02*
X8998753Y-15374460D01*
X8998753Y-15374460D02*
X9017801Y-15383984D01*
X9017801Y-15383984D02*
X9055896Y-15383984D01*
X9055896Y-15383984D02*
X9074944Y-15374460D01*
X9074944Y-15374460D02*
X9084468Y-15364936D01*
X9084468Y-15364936D02*
X9093991Y-15345888D01*
X9093991Y-15345888D02*
X9093991Y-15298269D01*
X9093991Y-15298269D02*
X9084468Y-15279222D01*
X9084468Y-15279222D02*
X9074944Y-15269698D01*
X9074944Y-15269698D02*
X9055896Y-15260174D01*
X9055896Y-15260174D02*
X9017801Y-15260174D01*
X9017801Y-15260174D02*
X8998753Y-15269698D01*
X8998753Y-15269698D02*
X8989230Y-15279222D01*
X8989230Y-15279222D02*
X8979706Y-15298269D01*
X9332087Y-15383984D02*
X9332087Y-15183984D01*
X9417801Y-15383984D02*
X9417801Y-15279222D01*
X9417801Y-15279222D02*
X9408277Y-15260174D01*
X9408277Y-15260174D02*
X9389230Y-15250650D01*
X9389230Y-15250650D02*
X9360658Y-15250650D01*
X9360658Y-15250650D02*
X9341611Y-15260174D01*
X9341611Y-15260174D02*
X9332087Y-15269698D01*
X9541611Y-15383984D02*
X9522563Y-15374460D01*
X9522563Y-15374460D02*
X9513039Y-15364936D01*
X9513039Y-15364936D02*
X9503515Y-15345888D01*
X9503515Y-15345888D02*
X9503515Y-15288746D01*
X9503515Y-15288746D02*
X9513039Y-15269698D01*
X9513039Y-15269698D02*
X9522563Y-15260174D01*
X9522563Y-15260174D02*
X9541611Y-15250650D01*
X9541611Y-15250650D02*
X9570182Y-15250650D01*
X9570182Y-15250650D02*
X9589230Y-15260174D01*
X9589230Y-15260174D02*
X9598753Y-15269698D01*
X9598753Y-15269698D02*
X9608277Y-15288746D01*
X9608277Y-15288746D02*
X9608277Y-15345888D01*
X9608277Y-15345888D02*
X9598753Y-15364936D01*
X9598753Y-15364936D02*
X9589230Y-15374460D01*
X9589230Y-15374460D02*
X9570182Y-15383984D01*
X9570182Y-15383984D02*
X9541611Y-15383984D01*
X9722563Y-15383984D02*
X9703515Y-15374460D01*
X9703515Y-15374460D02*
X9693992Y-15355412D01*
X9693992Y-15355412D02*
X9693992Y-15183984D01*
X9874944Y-15374460D02*
X9855896Y-15383984D01*
X9855896Y-15383984D02*
X9817801Y-15383984D01*
X9817801Y-15383984D02*
X9798753Y-15374460D01*
X9798753Y-15374460D02*
X9789230Y-15355412D01*
X9789230Y-15355412D02*
X9789230Y-15279222D01*
X9789230Y-15279222D02*
X9798753Y-15260174D01*
X9798753Y-15260174D02*
X9817801Y-15250650D01*
X9817801Y-15250650D02*
X9855896Y-15250650D01*
X9855896Y-15250650D02*
X9874944Y-15260174D01*
X9874944Y-15260174D02*
X9884468Y-15279222D01*
X9884468Y-15279222D02*
X9884468Y-15298269D01*
X9884468Y-15298269D02*
X9789230Y-15317317D01*
X9960658Y-15374460D02*
X9979706Y-15383984D01*
X9979706Y-15383984D02*
X10017801Y-15383984D01*
X10017801Y-15383984D02*
X10036849Y-15374460D01*
X10036849Y-15374460D02*
X10046373Y-15355412D01*
X10046373Y-15355412D02*
X10046373Y-15345888D01*
X10046373Y-15345888D02*
X10036849Y-15326841D01*
X10036849Y-15326841D02*
X10017801Y-15317317D01*
X10017801Y-15317317D02*
X9989230Y-15317317D01*
X9989230Y-15317317D02*
X9970182Y-15307793D01*
X9970182Y-15307793D02*
X9960658Y-15288746D01*
X9960658Y-15288746D02*
X9960658Y-15279222D01*
X9960658Y-15279222D02*
X9970182Y-15260174D01*
X9970182Y-15260174D02*
X9989230Y-15250650D01*
X9989230Y-15250650D02*
X10017801Y-15250650D01*
X10017801Y-15250650D02*
X10036849Y-15260174D01*
X10113039Y-15460174D02*
X10122563Y-15450650D01*
X10122563Y-15450650D02*
X10141611Y-15422079D01*
X10141611Y-15422079D02*
X10151134Y-15403031D01*
X10151134Y-15403031D02*
X10160658Y-15374460D01*
X10160658Y-15374460D02*
X10170182Y-15326841D01*
X10170182Y-15326841D02*
X10170182Y-15288746D01*
X10170182Y-15288746D02*
X10160658Y-15241127D01*
X10160658Y-15241127D02*
X10151134Y-15212555D01*
X10151134Y-15212555D02*
X10141611Y-15193508D01*
X10141611Y-15193508D02*
X10122563Y-15164936D01*
X10122563Y-15164936D02*
X10113039Y-15155412D01*
D12*
X5147500Y-15556500D02*
G75*
G02*
X5047500Y-15556500I-50000J0D01*
G01*
X5047500Y-15556500D02*
G75*
G02*
X5147500Y-15556500I50000J0D01*
G01*
D11*
X5513039Y-15647984D02*
X5398753Y-15647984D01*
X5455896Y-15647984D02*
X5455896Y-15447984D01*
X5455896Y-15447984D02*
X5436848Y-15476555D01*
X5436848Y-15476555D02*
X5417801Y-15495603D01*
X5417801Y-15495603D02*
X5398753Y-15505127D01*
X5598753Y-15628936D02*
X5608277Y-15638460D01*
X5608277Y-15638460D02*
X5598753Y-15647984D01*
X5598753Y-15647984D02*
X5589229Y-15638460D01*
X5589229Y-15638460D02*
X5598753Y-15628936D01*
X5598753Y-15628936D02*
X5598753Y-15647984D01*
X5732086Y-15447984D02*
X5751134Y-15447984D01*
X5751134Y-15447984D02*
X5770182Y-15457508D01*
X5770182Y-15457508D02*
X5779705Y-15467031D01*
X5779705Y-15467031D02*
X5789229Y-15486079D01*
X5789229Y-15486079D02*
X5798753Y-15524174D01*
X5798753Y-15524174D02*
X5798753Y-15571793D01*
X5798753Y-15571793D02*
X5789229Y-15609888D01*
X5789229Y-15609888D02*
X5779705Y-15628936D01*
X5779705Y-15628936D02*
X5770182Y-15638460D01*
X5770182Y-15638460D02*
X5751134Y-15647984D01*
X5751134Y-15647984D02*
X5732086Y-15647984D01*
X5732086Y-15647984D02*
X5713039Y-15638460D01*
X5713039Y-15638460D02*
X5703515Y-15628936D01*
X5703515Y-15628936D02*
X5693991Y-15609888D01*
X5693991Y-15609888D02*
X5684467Y-15571793D01*
X5684467Y-15571793D02*
X5684467Y-15524174D01*
X5684467Y-15524174D02*
X5693991Y-15486079D01*
X5693991Y-15486079D02*
X5703515Y-15467031D01*
X5703515Y-15467031D02*
X5713039Y-15457508D01*
X5713039Y-15457508D02*
X5732086Y-15447984D01*
X5922562Y-15447984D02*
X5941610Y-15447984D01*
X5941610Y-15447984D02*
X5960658Y-15457508D01*
X5960658Y-15457508D02*
X5970182Y-15467031D01*
X5970182Y-15467031D02*
X5979705Y-15486079D01*
X5979705Y-15486079D02*
X5989229Y-15524174D01*
X5989229Y-15524174D02*
X5989229Y-15571793D01*
X5989229Y-15571793D02*
X5979705Y-15609888D01*
X5979705Y-15609888D02*
X5970182Y-15628936D01*
X5970182Y-15628936D02*
X5960658Y-15638460D01*
X5960658Y-15638460D02*
X5941610Y-15647984D01*
X5941610Y-15647984D02*
X5922562Y-15647984D01*
X5922562Y-15647984D02*
X5903515Y-15638460D01*
X5903515Y-15638460D02*
X5893991Y-15628936D01*
X5893991Y-15628936D02*
X5884467Y-15609888D01*
X5884467Y-15609888D02*
X5874943Y-15571793D01*
X5874943Y-15571793D02*
X5874943Y-15524174D01*
X5874943Y-15524174D02*
X5884467Y-15486079D01*
X5884467Y-15486079D02*
X5893991Y-15467031D01*
X5893991Y-15467031D02*
X5903515Y-15457508D01*
X5903515Y-15457508D02*
X5922562Y-15447984D01*
X6113039Y-15447984D02*
X6132086Y-15447984D01*
X6132086Y-15447984D02*
X6151134Y-15457508D01*
X6151134Y-15457508D02*
X6160658Y-15467031D01*
X6160658Y-15467031D02*
X6170182Y-15486079D01*
X6170182Y-15486079D02*
X6179705Y-15524174D01*
X6179705Y-15524174D02*
X6179705Y-15571793D01*
X6179705Y-15571793D02*
X6170182Y-15609888D01*
X6170182Y-15609888D02*
X6160658Y-15628936D01*
X6160658Y-15628936D02*
X6151134Y-15638460D01*
X6151134Y-15638460D02*
X6132086Y-15647984D01*
X6132086Y-15647984D02*
X6113039Y-15647984D01*
X6113039Y-15647984D02*
X6093991Y-15638460D01*
X6093991Y-15638460D02*
X6084467Y-15628936D01*
X6084467Y-15628936D02*
X6074943Y-15609888D01*
X6074943Y-15609888D02*
X6065420Y-15571793D01*
X6065420Y-15571793D02*
X6065420Y-15524174D01*
X6065420Y-15524174D02*
X6074943Y-15486079D01*
X6074943Y-15486079D02*
X6084467Y-15467031D01*
X6084467Y-15467031D02*
X6093991Y-15457508D01*
X6093991Y-15457508D02*
X6113039Y-15447984D01*
X6265420Y-15647984D02*
X6265420Y-15514650D01*
X6265420Y-15533698D02*
X6274943Y-15524174D01*
X6274943Y-15524174D02*
X6293991Y-15514650D01*
X6293991Y-15514650D02*
X6322563Y-15514650D01*
X6322563Y-15514650D02*
X6341610Y-15524174D01*
X6341610Y-15524174D02*
X6351134Y-15543222D01*
X6351134Y-15543222D02*
X6351134Y-15647984D01*
X6351134Y-15543222D02*
X6360658Y-15524174D01*
X6360658Y-15524174D02*
X6379705Y-15514650D01*
X6379705Y-15514650D02*
X6408277Y-15514650D01*
X6408277Y-15514650D02*
X6427324Y-15524174D01*
X6427324Y-15524174D02*
X6436848Y-15543222D01*
X6436848Y-15543222D02*
X6436848Y-15647984D01*
X6532086Y-15647984D02*
X6532086Y-15514650D01*
X6532086Y-15533698D02*
X6541610Y-15524174D01*
X6541610Y-15524174D02*
X6560658Y-15514650D01*
X6560658Y-15514650D02*
X6589229Y-15514650D01*
X6589229Y-15514650D02*
X6608277Y-15524174D01*
X6608277Y-15524174D02*
X6617801Y-15543222D01*
X6617801Y-15543222D02*
X6617801Y-15647984D01*
X6617801Y-15543222D02*
X6627324Y-15524174D01*
X6627324Y-15524174D02*
X6646372Y-15514650D01*
X6646372Y-15514650D02*
X6674943Y-15514650D01*
X6674943Y-15514650D02*
X6693991Y-15524174D01*
X6693991Y-15524174D02*
X6703515Y-15543222D01*
X6703515Y-15543222D02*
X6703515Y-15647984D01*
X7093991Y-15438460D02*
X6922563Y-15695603D01*
X7351134Y-15447984D02*
X7370182Y-15447984D01*
X7370182Y-15447984D02*
X7389229Y-15457508D01*
X7389229Y-15457508D02*
X7398753Y-15467031D01*
X7398753Y-15467031D02*
X7408277Y-15486079D01*
X7408277Y-15486079D02*
X7417801Y-15524174D01*
X7417801Y-15524174D02*
X7417801Y-15571793D01*
X7417801Y-15571793D02*
X7408277Y-15609888D01*
X7408277Y-15609888D02*
X7398753Y-15628936D01*
X7398753Y-15628936D02*
X7389229Y-15638460D01*
X7389229Y-15638460D02*
X7370182Y-15647984D01*
X7370182Y-15647984D02*
X7351134Y-15647984D01*
X7351134Y-15647984D02*
X7332086Y-15638460D01*
X7332086Y-15638460D02*
X7322563Y-15628936D01*
X7322563Y-15628936D02*
X7313039Y-15609888D01*
X7313039Y-15609888D02*
X7303515Y-15571793D01*
X7303515Y-15571793D02*
X7303515Y-15524174D01*
X7303515Y-15524174D02*
X7313039Y-15486079D01*
X7313039Y-15486079D02*
X7322563Y-15467031D01*
X7322563Y-15467031D02*
X7332086Y-15457508D01*
X7332086Y-15457508D02*
X7351134Y-15447984D01*
X7503515Y-15628936D02*
X7513039Y-15638460D01*
X7513039Y-15638460D02*
X7503515Y-15647984D01*
X7503515Y-15647984D02*
X7493991Y-15638460D01*
X7493991Y-15638460D02*
X7503515Y-15628936D01*
X7503515Y-15628936D02*
X7503515Y-15647984D01*
X7636848Y-15447984D02*
X7655896Y-15447984D01*
X7655896Y-15447984D02*
X7674944Y-15457508D01*
X7674944Y-15457508D02*
X7684467Y-15467031D01*
X7684467Y-15467031D02*
X7693991Y-15486079D01*
X7693991Y-15486079D02*
X7703515Y-15524174D01*
X7703515Y-15524174D02*
X7703515Y-15571793D01*
X7703515Y-15571793D02*
X7693991Y-15609888D01*
X7693991Y-15609888D02*
X7684467Y-15628936D01*
X7684467Y-15628936D02*
X7674944Y-15638460D01*
X7674944Y-15638460D02*
X7655896Y-15647984D01*
X7655896Y-15647984D02*
X7636848Y-15647984D01*
X7636848Y-15647984D02*
X7617801Y-15638460D01*
X7617801Y-15638460D02*
X7608277Y-15628936D01*
X7608277Y-15628936D02*
X7598753Y-15609888D01*
X7598753Y-15609888D02*
X7589229Y-15571793D01*
X7589229Y-15571793D02*
X7589229Y-15524174D01*
X7589229Y-15524174D02*
X7598753Y-15486079D01*
X7598753Y-15486079D02*
X7608277Y-15467031D01*
X7608277Y-15467031D02*
X7617801Y-15457508D01*
X7617801Y-15457508D02*
X7636848Y-15447984D01*
X7770182Y-15447984D02*
X7893991Y-15447984D01*
X7893991Y-15447984D02*
X7827325Y-15524174D01*
X7827325Y-15524174D02*
X7855896Y-15524174D01*
X7855896Y-15524174D02*
X7874944Y-15533698D01*
X7874944Y-15533698D02*
X7884467Y-15543222D01*
X7884467Y-15543222D02*
X7893991Y-15562269D01*
X7893991Y-15562269D02*
X7893991Y-15609888D01*
X7893991Y-15609888D02*
X7884467Y-15628936D01*
X7884467Y-15628936D02*
X7874944Y-15638460D01*
X7874944Y-15638460D02*
X7855896Y-15647984D01*
X7855896Y-15647984D02*
X7798753Y-15647984D01*
X7798753Y-15647984D02*
X7779706Y-15638460D01*
X7779706Y-15638460D02*
X7770182Y-15628936D01*
X7989229Y-15647984D02*
X8027325Y-15647984D01*
X8027325Y-15647984D02*
X8046372Y-15638460D01*
X8046372Y-15638460D02*
X8055896Y-15628936D01*
X8055896Y-15628936D02*
X8074944Y-15600365D01*
X8074944Y-15600365D02*
X8084467Y-15562269D01*
X8084467Y-15562269D02*
X8084467Y-15486079D01*
X8084467Y-15486079D02*
X8074944Y-15467031D01*
X8074944Y-15467031D02*
X8065420Y-15457508D01*
X8065420Y-15457508D02*
X8046372Y-15447984D01*
X8046372Y-15447984D02*
X8008277Y-15447984D01*
X8008277Y-15447984D02*
X7989229Y-15457508D01*
X7989229Y-15457508D02*
X7979706Y-15467031D01*
X7979706Y-15467031D02*
X7970182Y-15486079D01*
X7970182Y-15486079D02*
X7970182Y-15533698D01*
X7970182Y-15533698D02*
X7979706Y-15552746D01*
X7979706Y-15552746D02*
X7989229Y-15562269D01*
X7989229Y-15562269D02*
X8008277Y-15571793D01*
X8008277Y-15571793D02*
X8046372Y-15571793D01*
X8046372Y-15571793D02*
X8065420Y-15562269D01*
X8065420Y-15562269D02*
X8074944Y-15552746D01*
X8074944Y-15552746D02*
X8084467Y-15533698D01*
X8255896Y-15514650D02*
X8255896Y-15647984D01*
X8208277Y-15438460D02*
X8160658Y-15581317D01*
X8160658Y-15581317D02*
X8284467Y-15581317D01*
X8351134Y-15447984D02*
X8351134Y-15486079D01*
X8427325Y-15447984D02*
X8427325Y-15486079D01*
X8722563Y-15724174D02*
X8713039Y-15714650D01*
X8713039Y-15714650D02*
X8693991Y-15686079D01*
X8693991Y-15686079D02*
X8684468Y-15667031D01*
X8684468Y-15667031D02*
X8674944Y-15638460D01*
X8674944Y-15638460D02*
X8665420Y-15590841D01*
X8665420Y-15590841D02*
X8665420Y-15552746D01*
X8665420Y-15552746D02*
X8674944Y-15505127D01*
X8674944Y-15505127D02*
X8684468Y-15476555D01*
X8684468Y-15476555D02*
X8693991Y-15457508D01*
X8693991Y-15457508D02*
X8713039Y-15428936D01*
X8713039Y-15428936D02*
X8722563Y-15419412D01*
X8779706Y-15447984D02*
X8903515Y-15447984D01*
X8903515Y-15447984D02*
X8836849Y-15524174D01*
X8836849Y-15524174D02*
X8865420Y-15524174D01*
X8865420Y-15524174D02*
X8884468Y-15533698D01*
X8884468Y-15533698D02*
X8893991Y-15543222D01*
X8893991Y-15543222D02*
X8903515Y-15562269D01*
X8903515Y-15562269D02*
X8903515Y-15609888D01*
X8903515Y-15609888D02*
X8893991Y-15628936D01*
X8893991Y-15628936D02*
X8884468Y-15638460D01*
X8884468Y-15638460D02*
X8865420Y-15647984D01*
X8865420Y-15647984D02*
X8808277Y-15647984D01*
X8808277Y-15647984D02*
X8789230Y-15638460D01*
X8789230Y-15638460D02*
X8779706Y-15628936D01*
X9017801Y-15533698D02*
X8998753Y-15524174D01*
X8998753Y-15524174D02*
X8989230Y-15514650D01*
X8989230Y-15514650D02*
X8979706Y-15495603D01*
X8979706Y-15495603D02*
X8979706Y-15486079D01*
X8979706Y-15486079D02*
X8989230Y-15467031D01*
X8989230Y-15467031D02*
X8998753Y-15457508D01*
X8998753Y-15457508D02*
X9017801Y-15447984D01*
X9017801Y-15447984D02*
X9055896Y-15447984D01*
X9055896Y-15447984D02*
X9074944Y-15457508D01*
X9074944Y-15457508D02*
X9084468Y-15467031D01*
X9084468Y-15467031D02*
X9093991Y-15486079D01*
X9093991Y-15486079D02*
X9093991Y-15495603D01*
X9093991Y-15495603D02*
X9084468Y-15514650D01*
X9084468Y-15514650D02*
X9074944Y-15524174D01*
X9074944Y-15524174D02*
X9055896Y-15533698D01*
X9055896Y-15533698D02*
X9017801Y-15533698D01*
X9017801Y-15533698D02*
X8998753Y-15543222D01*
X8998753Y-15543222D02*
X8989230Y-15552746D01*
X8989230Y-15552746D02*
X8979706Y-15571793D01*
X8979706Y-15571793D02*
X8979706Y-15609888D01*
X8979706Y-15609888D02*
X8989230Y-15628936D01*
X8989230Y-15628936D02*
X8998753Y-15638460D01*
X8998753Y-15638460D02*
X9017801Y-15647984D01*
X9017801Y-15647984D02*
X9055896Y-15647984D01*
X9055896Y-15647984D02*
X9074944Y-15638460D01*
X9074944Y-15638460D02*
X9084468Y-15628936D01*
X9084468Y-15628936D02*
X9093991Y-15609888D01*
X9093991Y-15609888D02*
X9093991Y-15571793D01*
X9093991Y-15571793D02*
X9084468Y-15552746D01*
X9084468Y-15552746D02*
X9074944Y-15543222D01*
X9074944Y-15543222D02*
X9055896Y-15533698D01*
X9332087Y-15647984D02*
X9332087Y-15447984D01*
X9417801Y-15647984D02*
X9417801Y-15543222D01*
X9417801Y-15543222D02*
X9408277Y-15524174D01*
X9408277Y-15524174D02*
X9389230Y-15514650D01*
X9389230Y-15514650D02*
X9360658Y-15514650D01*
X9360658Y-15514650D02*
X9341611Y-15524174D01*
X9341611Y-15524174D02*
X9332087Y-15533698D01*
X9541611Y-15647984D02*
X9522563Y-15638460D01*
X9522563Y-15638460D02*
X9513039Y-15628936D01*
X9513039Y-15628936D02*
X9503515Y-15609888D01*
X9503515Y-15609888D02*
X9503515Y-15552746D01*
X9503515Y-15552746D02*
X9513039Y-15533698D01*
X9513039Y-15533698D02*
X9522563Y-15524174D01*
X9522563Y-15524174D02*
X9541611Y-15514650D01*
X9541611Y-15514650D02*
X9570182Y-15514650D01*
X9570182Y-15514650D02*
X9589230Y-15524174D01*
X9589230Y-15524174D02*
X9598753Y-15533698D01*
X9598753Y-15533698D02*
X9608277Y-15552746D01*
X9608277Y-15552746D02*
X9608277Y-15609888D01*
X9608277Y-15609888D02*
X9598753Y-15628936D01*
X9598753Y-15628936D02*
X9589230Y-15638460D01*
X9589230Y-15638460D02*
X9570182Y-15647984D01*
X9570182Y-15647984D02*
X9541611Y-15647984D01*
X9722563Y-15647984D02*
X9703515Y-15638460D01*
X9703515Y-15638460D02*
X9693992Y-15619412D01*
X9693992Y-15619412D02*
X9693992Y-15447984D01*
X9874944Y-15638460D02*
X9855896Y-15647984D01*
X9855896Y-15647984D02*
X9817801Y-15647984D01*
X9817801Y-15647984D02*
X9798753Y-15638460D01*
X9798753Y-15638460D02*
X9789230Y-15619412D01*
X9789230Y-15619412D02*
X9789230Y-15543222D01*
X9789230Y-15543222D02*
X9798753Y-15524174D01*
X9798753Y-15524174D02*
X9817801Y-15514650D01*
X9817801Y-15514650D02*
X9855896Y-15514650D01*
X9855896Y-15514650D02*
X9874944Y-15524174D01*
X9874944Y-15524174D02*
X9884468Y-15543222D01*
X9884468Y-15543222D02*
X9884468Y-15562269D01*
X9884468Y-15562269D02*
X9789230Y-15581317D01*
X9960658Y-15638460D02*
X9979706Y-15647984D01*
X9979706Y-15647984D02*
X10017801Y-15647984D01*
X10017801Y-15647984D02*
X10036849Y-15638460D01*
X10036849Y-15638460D02*
X10046373Y-15619412D01*
X10046373Y-15619412D02*
X10046373Y-15609888D01*
X10046373Y-15609888D02*
X10036849Y-15590841D01*
X10036849Y-15590841D02*
X10017801Y-15581317D01*
X10017801Y-15581317D02*
X9989230Y-15581317D01*
X9989230Y-15581317D02*
X9970182Y-15571793D01*
X9970182Y-15571793D02*
X9960658Y-15552746D01*
X9960658Y-15552746D02*
X9960658Y-15543222D01*
X9960658Y-15543222D02*
X9970182Y-15524174D01*
X9970182Y-15524174D02*
X9989230Y-15514650D01*
X9989230Y-15514650D02*
X10017801Y-15514650D01*
X10017801Y-15514650D02*
X10036849Y-15524174D01*
X10113039Y-15724174D02*
X10122563Y-15714650D01*
X10122563Y-15714650D02*
X10141611Y-15686079D01*
X10141611Y-15686079D02*
X10151134Y-15667031D01*
X10151134Y-15667031D02*
X10160658Y-15638460D01*
X10160658Y-15638460D02*
X10170182Y-15590841D01*
X10170182Y-15590841D02*
X10170182Y-15552746D01*
X10170182Y-15552746D02*
X10160658Y-15505127D01*
X10160658Y-15505127D02*
X10151134Y-15476555D01*
X10151134Y-15476555D02*
X10141611Y-15457508D01*
X10141611Y-15457508D02*
X10122563Y-15428936D01*
X10122563Y-15428936D02*
X10113039Y-15419412D01*
M02*
