G04 #@! TF.GenerationSoftware,KiCad,Pcbnew,8.0.6-8.0.6-0~ubuntu22.04.1*
G04 #@! TF.CreationDate,2025-04-15T21:33:34+01:00*
G04 #@! TF.ProjectId,RP2040-VCO,52503230-3430-42d5-9643-4f2e6b696361,rev?*
G04 #@! TF.SameCoordinates,Original*
G04 #@! TF.FileFunction,Soldermask,Bot*
G04 #@! TF.FilePolarity,Negative*
%FSLAX46Y46*%
G04 Gerber Fmt 4.6, Leading zero omitted, Abs format (unit mm)*
G04 Created by KiCad (PCBNEW 8.0.6-8.0.6-0~ubuntu22.04.1) date 2025-04-15 21:33:34*
%MOMM*%
%LPD*%
G01*
G04 APERTURE LIST*
%ADD10C,3.200000*%
%ADD11R,1.700000X1.700000*%
%ADD12O,1.700000X1.700000*%
%ADD13C,1.700000*%
G04 APERTURE END LIST*
D10*
X68000000Y-96000000D03*
D11*
X69700000Y-49500000D03*
D12*
X69700000Y-52040000D03*
X69700000Y-54580000D03*
X69700000Y-57120000D03*
X69700000Y-59660000D03*
X69700000Y-62200000D03*
D11*
X53300000Y-67800000D03*
D12*
X53300000Y-70340000D03*
X53300000Y-72880000D03*
X53300000Y-75420000D03*
X53300000Y-77960000D03*
X53300000Y-80500000D03*
X53300000Y-83040000D03*
X53300000Y-85580000D03*
G36*
G01*
X59450000Y-141480000D02*
X59450000Y-140280000D01*
G75*
G02*
X59700000Y-140030000I250000J0D01*
G01*
X60900000Y-140030000D01*
G75*
G02*
X61150000Y-140280000I0J-250000D01*
G01*
X61150000Y-141480000D01*
G75*
G02*
X60900000Y-141730000I-250000J0D01*
G01*
X59700000Y-141730000D01*
G75*
G02*
X59450000Y-141480000I0J250000D01*
G01*
G37*
D13*
X62840000Y-140880000D03*
X60300000Y-138340000D03*
X62840000Y-138340000D03*
X60300000Y-135800000D03*
X62840000Y-135800000D03*
X60300000Y-133260000D03*
X62840000Y-133260000D03*
X60300000Y-130720000D03*
X62840000Y-130720000D03*
D11*
X53880000Y-118120000D03*
D13*
X53880000Y-115580000D03*
X53880000Y-113040000D03*
X53880000Y-110500000D03*
X53880000Y-107960000D03*
X53880000Y-105420000D03*
X53880000Y-102880000D03*
X69120000Y-102880000D03*
X69120000Y-105420000D03*
X69120000Y-107960000D03*
X69120000Y-110500000D03*
X69120000Y-113040000D03*
X69120000Y-115580000D03*
X69120000Y-118120000D03*
M02*
