G04 #@! TF.GenerationSoftware,KiCad,Pcbnew,8.0.6-8.0.6-0~ubuntu22.04.1*
G04 #@! TF.CreationDate,2025-04-15T21:33:34+01:00*
G04 #@! TF.ProjectId,RP2040-VCO,52503230-3430-42d5-9643-4f2e6b696361,rev?*
G04 #@! TF.SameCoordinates,Original*
G04 #@! TF.FileFunction,Copper,L2,Bot*
G04 #@! TF.FilePolarity,Positive*
%FSLAX46Y46*%
G04 Gerber Fmt 4.6, Leading zero omitted, Abs format (unit mm)*
G04 Created by KiCad (PCBNEW 8.0.6-8.0.6-0~ubuntu22.04.1) date 2025-04-15 21:33:34*
%MOMM*%
%LPD*%
G01*
G04 APERTURE LIST*
G04 #@! TA.AperFunction,ComponentPad*
%ADD10R,1.700000X1.700000*%
G04 #@! TD*
G04 #@! TA.AperFunction,ComponentPad*
%ADD11O,1.700000X1.700000*%
G04 #@! TD*
G04 #@! TA.AperFunction,ComponentPad*
%ADD12C,1.700000*%
G04 #@! TD*
G04 #@! TA.AperFunction,ViaPad*
%ADD13C,0.800000*%
G04 #@! TD*
G04 #@! TA.AperFunction,Conductor*
%ADD14C,0.300000*%
G04 #@! TD*
G04 APERTURE END LIST*
D10*
X69700000Y-49500000D03*
D11*
X69700000Y-52040000D03*
X69700000Y-54580000D03*
X69700000Y-57120000D03*
X69700000Y-59660000D03*
X69700000Y-62200000D03*
D10*
X53300000Y-67800000D03*
D11*
X53300000Y-70340000D03*
X53300000Y-72880000D03*
X53300000Y-75420000D03*
X53300000Y-77960000D03*
X53300000Y-80500000D03*
X53300000Y-83040000D03*
X53300000Y-85580000D03*
G04 #@! TA.AperFunction,ComponentPad*
G36*
G01*
X59450000Y-141480000D02*
X59450000Y-140280000D01*
G75*
G02*
X59700000Y-140030000I250000J0D01*
G01*
X60900000Y-140030000D01*
G75*
G02*
X61150000Y-140280000I0J-250000D01*
G01*
X61150000Y-141480000D01*
G75*
G02*
X60900000Y-141730000I-250000J0D01*
G01*
X59700000Y-141730000D01*
G75*
G02*
X59450000Y-141480000I0J250000D01*
G01*
G37*
G04 #@! TD.AperFunction*
D12*
X62840000Y-140880000D03*
X60300000Y-138340000D03*
X62840000Y-138340000D03*
X60300000Y-135800000D03*
X62840000Y-135800000D03*
X60300000Y-133260000D03*
X62840000Y-133260000D03*
X60300000Y-130720000D03*
X62840000Y-130720000D03*
D10*
X53880000Y-118120000D03*
D12*
X53880000Y-115580000D03*
X53880000Y-113040000D03*
X53880000Y-110500000D03*
X53880000Y-107960000D03*
X53880000Y-105420000D03*
X53880000Y-102880000D03*
X69120000Y-102880000D03*
X69120000Y-105420000D03*
X69120000Y-107960000D03*
X69120000Y-110500000D03*
X69120000Y-113040000D03*
X69120000Y-115580000D03*
X69120000Y-118120000D03*
D13*
X56200000Y-92300000D03*
X55900000Y-49300000D03*
X64600000Y-87900000D03*
X59400000Y-98300000D03*
X56200000Y-91400000D03*
X65900000Y-76200000D03*
X67000000Y-132800000D03*
X59200000Y-119900000D03*
X62200000Y-62500000D03*
X53600000Y-89400000D03*
X65500000Y-59600000D03*
X53600000Y-90300000D03*
X55200000Y-70200000D03*
X67500000Y-133700000D03*
X66000000Y-60500000D03*
X56200000Y-93200000D03*
X64600000Y-89700000D03*
X69300000Y-88000000D03*
X55900000Y-50200000D03*
X69300000Y-87100000D03*
X64200000Y-68500000D03*
X53600000Y-91200000D03*
X59700000Y-120700000D03*
X66100000Y-85400000D03*
X69300000Y-88900000D03*
X66100000Y-86300000D03*
X59800000Y-84000000D03*
X67100000Y-109400000D03*
X58600000Y-98800000D03*
X58600000Y-97800000D03*
X59800000Y-83100000D03*
X64600000Y-88800000D03*
X56100000Y-73000000D03*
X68000000Y-132800000D03*
X66500000Y-59600000D03*
X66200000Y-109400000D03*
X55000000Y-49300000D03*
X60200000Y-119900000D03*
X55000000Y-50200000D03*
X66100000Y-84500000D03*
X62300000Y-68500000D03*
X62200000Y-61600000D03*
X65900000Y-75300000D03*
X54100000Y-131300000D03*
X58600000Y-71400000D03*
X64349500Y-69800000D03*
X69000000Y-131200000D03*
X63600000Y-54600000D03*
X62949500Y-57100000D03*
X69000000Y-77300000D03*
X62200000Y-79700000D03*
X70000000Y-64100000D03*
X54000000Y-98500000D03*
X59500000Y-101500000D03*
X57600000Y-69100000D03*
X59900000Y-81500000D03*
D14*
X53900000Y-131300000D02*
X54100000Y-131300000D01*
X52450000Y-129850000D02*
X53900000Y-131300000D01*
X58600000Y-71400000D02*
X58600000Y-80280000D01*
X58600000Y-80280000D02*
X53300000Y-85580000D01*
X52450000Y-86430000D02*
X52450000Y-129850000D01*
X53300000Y-85580000D02*
X52450000Y-86430000D01*
X63550000Y-106617107D02*
X63500000Y-106667107D01*
X64349500Y-69800000D02*
X63550000Y-70599500D01*
X63550000Y-70599500D02*
X63550000Y-106617107D01*
X63500000Y-125700000D02*
X69000000Y-131200000D01*
X63500000Y-106667107D02*
X63500000Y-125700000D01*
X63700000Y-54700000D02*
X63700000Y-67539339D01*
X63700000Y-67539339D02*
X63050000Y-68189339D01*
X63050000Y-106410000D02*
X53880000Y-115580000D01*
X63600000Y-54600000D02*
X63700000Y-54700000D01*
X63050000Y-68189339D02*
X63050000Y-106410000D01*
X60800000Y-103580000D02*
X53880000Y-110500000D01*
X62949500Y-57100000D02*
X60800000Y-59249500D01*
X60800000Y-59249500D02*
X60800000Y-103580000D01*
X70300000Y-100002943D02*
X70300000Y-79660661D01*
X68250000Y-77610661D02*
X68250000Y-61110000D01*
X68250000Y-61110000D02*
X69700000Y-59660000D01*
X67920000Y-116920000D02*
X67920000Y-102382943D01*
X70300000Y-79660661D02*
X68250000Y-77610661D01*
X69120000Y-118120000D02*
X67920000Y-116920000D01*
X67920000Y-102382943D02*
X70300000Y-100002943D01*
X70800000Y-111360000D02*
X70800000Y-63300000D01*
X69120000Y-113040000D02*
X70800000Y-111360000D01*
X70800000Y-63300000D02*
X69700000Y-62200000D01*
X62200000Y-79700000D02*
X62200000Y-104720000D01*
X62200000Y-104720000D02*
X53880000Y-113040000D01*
X70000000Y-76300000D02*
X69000000Y-77300000D01*
X70000000Y-64100000D02*
X70000000Y-76300000D01*
X57000000Y-101500000D02*
X59500000Y-101500000D01*
X54000000Y-98500000D02*
X57000000Y-101500000D01*
X59700000Y-81100000D02*
X59700000Y-81300000D01*
X59700000Y-69700000D02*
X59700000Y-81100000D01*
X57600000Y-69100000D02*
X59100000Y-69100000D01*
X59700000Y-81300000D02*
X59900000Y-81500000D01*
X59100000Y-69100000D02*
X59700000Y-69700000D01*
G04 #@! TA.AperFunction,Conductor*
G36*
X62374075Y-138532993D02*
G01*
X62439901Y-138647007D01*
X62532993Y-138740099D01*
X62647007Y-138805925D01*
X62715051Y-138824157D01*
X62074310Y-139464898D01*
X62094694Y-139480763D01*
X62094700Y-139480768D01*
X62128206Y-139498900D01*
X62178597Y-139548913D01*
X62193949Y-139618230D01*
X62169389Y-139684843D01*
X62128209Y-139720526D01*
X62094430Y-139738806D01*
X62094424Y-139738811D01*
X61916759Y-139877094D01*
X61803483Y-140000143D01*
X61742630Y-140036714D01*
X61671666Y-140034579D01*
X61613121Y-139994417D01*
X61596144Y-139963481D01*
X61595217Y-139963914D01*
X61592116Y-139957266D01*
X61592115Y-139957262D01*
X61499030Y-139806348D01*
X61499029Y-139806347D01*
X61499024Y-139806341D01*
X61373658Y-139680975D01*
X61373652Y-139680970D01*
X61356703Y-139670516D01*
X61222738Y-139587885D01*
X61153511Y-139564946D01*
X61095141Y-139524533D01*
X61073661Y-139472870D01*
X60424948Y-138824157D01*
X60492993Y-138805925D01*
X60607007Y-138740099D01*
X60700099Y-138647007D01*
X60765925Y-138532993D01*
X60784157Y-138464948D01*
X61423076Y-139103867D01*
X61464516Y-139040440D01*
X61518520Y-138994352D01*
X61588868Y-138984777D01*
X61653225Y-139014755D01*
X61675481Y-139040439D01*
X61716921Y-139103866D01*
X61716922Y-139103866D01*
X62355841Y-138464946D01*
X62374075Y-138532993D01*
G37*
G04 #@! TD.AperFunction*
G04 #@! TA.AperFunction,Conductor*
G36*
X62374075Y-135992993D02*
G01*
X62439901Y-136107007D01*
X62532993Y-136200099D01*
X62647007Y-136265925D01*
X62715051Y-136284157D01*
X62074310Y-136924898D01*
X62094694Y-136940763D01*
X62094696Y-136940765D01*
X62128733Y-136959185D01*
X62179123Y-137009199D01*
X62194475Y-137078516D01*
X62169914Y-137145129D01*
X62128735Y-137180811D01*
X62094702Y-137199229D01*
X62074310Y-137215099D01*
X62074310Y-137215101D01*
X62715051Y-137855842D01*
X62647007Y-137874075D01*
X62532993Y-137939901D01*
X62439901Y-138032993D01*
X62374075Y-138147007D01*
X62355841Y-138215052D01*
X61716921Y-137576132D01*
X61675482Y-137639560D01*
X61621478Y-137685648D01*
X61551130Y-137695223D01*
X61486773Y-137665245D01*
X61464516Y-137639560D01*
X61423076Y-137576132D01*
X60784157Y-138215051D01*
X60765925Y-138147007D01*
X60700099Y-138032993D01*
X60607007Y-137939901D01*
X60492993Y-137874075D01*
X60424947Y-137855841D01*
X61065689Y-137215100D01*
X61065688Y-137215099D01*
X61045306Y-137199235D01*
X61045299Y-137199230D01*
X61011265Y-137180812D01*
X60960876Y-137130798D01*
X60945524Y-137061481D01*
X60970086Y-136994869D01*
X61011269Y-136959184D01*
X61045299Y-136940768D01*
X61045302Y-136940766D01*
X61065689Y-136924898D01*
X60424948Y-136284157D01*
X60492993Y-136265925D01*
X60607007Y-136200099D01*
X60700099Y-136107007D01*
X60765925Y-135992993D01*
X60784157Y-135924948D01*
X61423076Y-136563867D01*
X61464516Y-136500440D01*
X61518520Y-136454352D01*
X61588868Y-136444777D01*
X61653225Y-136474755D01*
X61675481Y-136500439D01*
X61716921Y-136563866D01*
X61716922Y-136563866D01*
X62355841Y-135924946D01*
X62374075Y-135992993D01*
G37*
G04 #@! TD.AperFunction*
G04 #@! TA.AperFunction,Conductor*
G36*
X62374075Y-133452993D02*
G01*
X62439901Y-133567007D01*
X62532993Y-133660099D01*
X62647007Y-133725925D01*
X62715051Y-133744157D01*
X62074310Y-134384898D01*
X62094694Y-134400763D01*
X62094696Y-134400765D01*
X62128733Y-134419185D01*
X62179123Y-134469199D01*
X62194475Y-134538516D01*
X62169914Y-134605129D01*
X62128735Y-134640811D01*
X62094702Y-134659229D01*
X62074310Y-134675099D01*
X62074310Y-134675101D01*
X62715051Y-135315842D01*
X62647007Y-135334075D01*
X62532993Y-135399901D01*
X62439901Y-135492993D01*
X62374075Y-135607007D01*
X62355841Y-135675052D01*
X61716921Y-135036132D01*
X61675482Y-135099560D01*
X61621478Y-135145648D01*
X61551130Y-135155223D01*
X61486773Y-135125245D01*
X61464516Y-135099560D01*
X61423076Y-135036132D01*
X60784157Y-135675051D01*
X60765925Y-135607007D01*
X60700099Y-135492993D01*
X60607007Y-135399901D01*
X60492993Y-135334075D01*
X60424947Y-135315841D01*
X61065689Y-134675100D01*
X61065688Y-134675099D01*
X61045306Y-134659235D01*
X61045299Y-134659230D01*
X61011265Y-134640812D01*
X60960876Y-134590798D01*
X60945524Y-134521481D01*
X60970086Y-134454869D01*
X61011269Y-134419184D01*
X61045299Y-134400768D01*
X61045302Y-134400766D01*
X61065689Y-134384898D01*
X60424948Y-133744157D01*
X60492993Y-133725925D01*
X60607007Y-133660099D01*
X60700099Y-133567007D01*
X60765925Y-133452993D01*
X60784157Y-133384948D01*
X61423076Y-134023867D01*
X61464516Y-133960440D01*
X61518520Y-133914352D01*
X61588868Y-133904777D01*
X61653225Y-133934755D01*
X61675481Y-133960439D01*
X61716921Y-134023866D01*
X61716922Y-134023866D01*
X62355841Y-133384946D01*
X62374075Y-133452993D01*
G37*
G04 #@! TD.AperFunction*
G04 #@! TA.AperFunction,Conductor*
G36*
X61653225Y-131395669D02*
G01*
X61675480Y-131421353D01*
X61708607Y-131472058D01*
X61764275Y-131557265D01*
X61764279Y-131557270D01*
X61916762Y-131722908D01*
X61971331Y-131765381D01*
X62094424Y-131861189D01*
X62128205Y-131879470D01*
X62178596Y-131929482D01*
X62193949Y-131998799D01*
X62169389Y-132065412D01*
X62128208Y-132101097D01*
X62094700Y-132119230D01*
X62074310Y-132135099D01*
X62074310Y-132135101D01*
X62715051Y-132775842D01*
X62647007Y-132794075D01*
X62532993Y-132859901D01*
X62439901Y-132952993D01*
X62374075Y-133067007D01*
X62355841Y-133135052D01*
X61716921Y-132496132D01*
X61675482Y-132559560D01*
X61621478Y-132605648D01*
X61551130Y-132615223D01*
X61486773Y-132585245D01*
X61464516Y-132559560D01*
X61423076Y-132496132D01*
X60784157Y-133135051D01*
X60765925Y-133067007D01*
X60700099Y-132952993D01*
X60607007Y-132859901D01*
X60492993Y-132794075D01*
X60424947Y-132775841D01*
X61065689Y-132135100D01*
X61065688Y-132135099D01*
X61045306Y-132119235D01*
X61045294Y-132119227D01*
X61011792Y-132101097D01*
X60961402Y-132051084D01*
X60946050Y-131981767D01*
X60970611Y-131915154D01*
X61011790Y-131879472D01*
X61045576Y-131861189D01*
X61223240Y-131722906D01*
X61375722Y-131557268D01*
X61464518Y-131421354D01*
X61518520Y-131375268D01*
X61588868Y-131365692D01*
X61653225Y-131395669D01*
G37*
G04 #@! TD.AperFunction*
G04 #@! TA.AperFunction,Conductor*
G36*
X58959533Y-80955893D02*
G01*
X59016368Y-80998440D01*
X59041179Y-81064960D01*
X59041500Y-81073949D01*
X59041500Y-81182267D01*
X59035333Y-81221203D01*
X59006457Y-81310071D01*
X58986496Y-81500000D01*
X59006457Y-81689927D01*
X59025438Y-81748342D01*
X59065473Y-81871556D01*
X59065476Y-81871561D01*
X59160958Y-82036941D01*
X59160965Y-82036951D01*
X59288744Y-82178864D01*
X59321598Y-82202734D01*
X59443248Y-82291118D01*
X59617712Y-82368794D01*
X59804513Y-82408500D01*
X59995487Y-82408500D01*
X60002049Y-82407810D01*
X60002368Y-82410852D01*
X60059870Y-82415131D01*
X60116584Y-82457840D01*
X60141204Y-82524430D01*
X60141500Y-82533060D01*
X60141500Y-100597308D01*
X60121498Y-100665429D01*
X60067842Y-100711922D01*
X59997568Y-100722026D01*
X59963394Y-100710197D01*
X59962784Y-100711568D01*
X59956753Y-100708882D01*
X59956752Y-100708882D01*
X59782288Y-100631206D01*
X59595487Y-100591500D01*
X59404513Y-100591500D01*
X59217711Y-100631206D01*
X59043247Y-100708882D01*
X58893837Y-100817436D01*
X58826969Y-100841294D01*
X58819776Y-100841500D01*
X57324950Y-100841500D01*
X57256829Y-100821498D01*
X57235855Y-100804595D01*
X54942969Y-98511709D01*
X54908943Y-98449397D01*
X54906754Y-98435784D01*
X54893542Y-98310074D01*
X54893541Y-98310069D01*
X54891500Y-98303787D01*
X54834527Y-98128444D01*
X54739040Y-97963056D01*
X54739038Y-97963054D01*
X54739034Y-97963048D01*
X54611255Y-97821135D01*
X54456752Y-97708882D01*
X54282288Y-97631206D01*
X54095487Y-97591500D01*
X53904513Y-97591500D01*
X53717711Y-97631206D01*
X53543247Y-97708882D01*
X53388744Y-97821135D01*
X53328136Y-97888448D01*
X53267690Y-97925688D01*
X53196706Y-97924336D01*
X53137722Y-97884823D01*
X53109464Y-97819692D01*
X53108500Y-97804138D01*
X53108500Y-87064500D01*
X53128502Y-86996379D01*
X53182158Y-86949886D01*
X53234500Y-86938500D01*
X53412565Y-86938500D01*
X53412569Y-86938500D01*
X53634635Y-86901444D01*
X53847574Y-86828342D01*
X54045576Y-86721189D01*
X54223240Y-86582906D01*
X54375722Y-86417268D01*
X54498860Y-86228791D01*
X54589296Y-86022616D01*
X54644564Y-85804368D01*
X54663156Y-85580000D01*
X54644564Y-85355632D01*
X54623961Y-85274274D01*
X54626627Y-85203329D01*
X54657008Y-85154250D01*
X58826407Y-80984852D01*
X58888717Y-80950828D01*
X58959533Y-80955893D01*
G37*
G04 #@! TD.AperFunction*
G04 #@! TA.AperFunction,Conductor*
G36*
X62959532Y-58125394D02*
G01*
X63016368Y-58167941D01*
X63041179Y-58234461D01*
X63041500Y-58243450D01*
X63041500Y-67214389D01*
X63021498Y-67282510D01*
X63004595Y-67303484D01*
X62538513Y-67769565D01*
X62538508Y-67769571D01*
X62466445Y-67877421D01*
X62416807Y-67997258D01*
X62416806Y-67997261D01*
X62391500Y-68124478D01*
X62391500Y-78665500D01*
X62371498Y-78733621D01*
X62317842Y-78780114D01*
X62265500Y-78791500D01*
X62104513Y-78791500D01*
X61917711Y-78831206D01*
X61743248Y-78908882D01*
X61658560Y-78970411D01*
X61591692Y-78994269D01*
X61522541Y-78978188D01*
X61473061Y-78927273D01*
X61458500Y-78868474D01*
X61458500Y-59574450D01*
X61478502Y-59506329D01*
X61495405Y-59485355D01*
X62826405Y-58154355D01*
X62888717Y-58120329D01*
X62959532Y-58125394D01*
G37*
G04 #@! TD.AperFunction*
G04 #@! TA.AperFunction,Conductor*
G36*
X71416621Y-36545502D02*
G01*
X71463114Y-36599158D01*
X71474500Y-36651500D01*
X71474500Y-62739050D01*
X71454498Y-62807171D01*
X71400842Y-62853664D01*
X71330568Y-62863768D01*
X71265988Y-62834274D01*
X71259405Y-62828145D01*
X71057010Y-62625750D01*
X71022984Y-62563438D01*
X71023960Y-62505725D01*
X71044564Y-62424368D01*
X71063156Y-62200000D01*
X71044564Y-61975632D01*
X70989296Y-61757384D01*
X70898860Y-61551209D01*
X70892140Y-61540924D01*
X70775724Y-61362734D01*
X70775720Y-61362729D01*
X70623237Y-61197091D01*
X70541382Y-61133381D01*
X70445576Y-61058811D01*
X70412319Y-61040813D01*
X70361929Y-60990802D01*
X70346576Y-60921485D01*
X70371136Y-60854872D01*
X70412320Y-60819186D01*
X70445576Y-60801189D01*
X70623240Y-60662906D01*
X70775722Y-60497268D01*
X70898860Y-60308791D01*
X70989296Y-60102616D01*
X71044564Y-59884368D01*
X71063156Y-59660000D01*
X71044564Y-59435632D01*
X70989296Y-59217384D01*
X70898860Y-59011209D01*
X70850757Y-58937582D01*
X70775724Y-58822734D01*
X70775720Y-58822729D01*
X70623237Y-58657091D01*
X70541382Y-58593381D01*
X70445576Y-58518811D01*
X70412319Y-58500813D01*
X70361929Y-58450802D01*
X70346576Y-58381485D01*
X70371136Y-58314872D01*
X70412320Y-58279186D01*
X70445576Y-58261189D01*
X70623240Y-58122906D01*
X70775722Y-57957268D01*
X70898860Y-57768791D01*
X70989296Y-57562616D01*
X71044564Y-57344368D01*
X71063156Y-57120000D01*
X71044564Y-56895632D01*
X71044562Y-56895624D01*
X70989297Y-56677387D01*
X70989296Y-56677386D01*
X70989296Y-56677384D01*
X70898860Y-56471209D01*
X70866145Y-56421135D01*
X70775724Y-56282734D01*
X70775720Y-56282729D01*
X70623237Y-56117091D01*
X70541382Y-56053381D01*
X70445576Y-55978811D01*
X70412319Y-55960813D01*
X70361929Y-55910802D01*
X70346576Y-55841485D01*
X70371136Y-55774872D01*
X70412320Y-55739186D01*
X70445576Y-55721189D01*
X70623240Y-55582906D01*
X70775722Y-55417268D01*
X70898860Y-55228791D01*
X70989296Y-55022616D01*
X71044564Y-54804368D01*
X71063156Y-54580000D01*
X71044564Y-54355632D01*
X70989296Y-54137384D01*
X70898860Y-53931209D01*
X70818940Y-53808882D01*
X70775724Y-53742734D01*
X70775720Y-53742729D01*
X70623237Y-53577091D01*
X70541382Y-53513381D01*
X70445576Y-53438811D01*
X70412319Y-53420813D01*
X70361929Y-53370802D01*
X70346576Y-53301485D01*
X70371136Y-53234872D01*
X70412320Y-53199186D01*
X70445576Y-53181189D01*
X70623240Y-53042906D01*
X70775722Y-52877268D01*
X70898860Y-52688791D01*
X70989296Y-52482616D01*
X71044564Y-52264368D01*
X71063156Y-52040000D01*
X71044564Y-51815632D01*
X70989296Y-51597384D01*
X70898860Y-51391209D01*
X70892140Y-51380924D01*
X70775724Y-51202734D01*
X70775714Y-51202722D01*
X70632159Y-51046782D01*
X70600737Y-50983117D01*
X70608723Y-50912571D01*
X70653582Y-50857542D01*
X70680827Y-50843388D01*
X70795965Y-50800444D01*
X70912904Y-50712904D01*
X71000444Y-50595965D01*
X71000444Y-50595964D01*
X71051494Y-50459093D01*
X71057999Y-50398597D01*
X71058000Y-50398585D01*
X71058000Y-49754000D01*
X70130703Y-49754000D01*
X70165925Y-49692993D01*
X70200000Y-49565826D01*
X70200000Y-49434174D01*
X70165925Y-49307007D01*
X70130703Y-49246000D01*
X71058000Y-49246000D01*
X71058000Y-48601414D01*
X71057999Y-48601402D01*
X71051494Y-48540906D01*
X71000444Y-48404035D01*
X71000444Y-48404034D01*
X70912904Y-48287095D01*
X70795965Y-48199555D01*
X70659093Y-48148505D01*
X70598597Y-48142000D01*
X69954000Y-48142000D01*
X69954000Y-49069297D01*
X69892993Y-49034075D01*
X69765826Y-49000000D01*
X69634174Y-49000000D01*
X69507007Y-49034075D01*
X69446000Y-49069297D01*
X69446000Y-48142000D01*
X68801402Y-48142000D01*
X68740906Y-48148505D01*
X68604035Y-48199555D01*
X68604034Y-48199555D01*
X68487095Y-48287095D01*
X68399555Y-48404034D01*
X68399555Y-48404035D01*
X68348505Y-48540906D01*
X68342000Y-48601402D01*
X68342000Y-49246000D01*
X69269297Y-49246000D01*
X69234075Y-49307007D01*
X69200000Y-49434174D01*
X69200000Y-49565826D01*
X69234075Y-49692993D01*
X69269297Y-49754000D01*
X68342000Y-49754000D01*
X68342000Y-50398597D01*
X68348505Y-50459093D01*
X68399555Y-50595964D01*
X68399555Y-50595965D01*
X68487095Y-50712904D01*
X68604034Y-50800444D01*
X68719172Y-50843388D01*
X68776008Y-50885935D01*
X68800819Y-50952455D01*
X68785728Y-51021829D01*
X68767841Y-51046782D01*
X68624280Y-51202729D01*
X68624275Y-51202734D01*
X68501141Y-51391206D01*
X68410703Y-51597386D01*
X68410702Y-51597387D01*
X68355437Y-51815624D01*
X68336844Y-52040000D01*
X68355437Y-52264375D01*
X68410702Y-52482612D01*
X68410703Y-52482613D01*
X68501141Y-52688793D01*
X68624275Y-52877265D01*
X68624279Y-52877270D01*
X68776762Y-53042908D01*
X68831331Y-53085381D01*
X68954424Y-53181189D01*
X68987680Y-53199186D01*
X69038071Y-53249200D01*
X69053423Y-53318516D01*
X69028862Y-53385129D01*
X68987680Y-53420813D01*
X68954426Y-53438810D01*
X68954424Y-53438811D01*
X68776762Y-53577091D01*
X68624279Y-53742729D01*
X68624275Y-53742734D01*
X68501141Y-53931206D01*
X68410703Y-54137386D01*
X68410702Y-54137387D01*
X68355437Y-54355624D01*
X68355436Y-54355630D01*
X68355436Y-54355632D01*
X68336844Y-54580000D01*
X68354239Y-54789928D01*
X68355437Y-54804375D01*
X68410702Y-55022612D01*
X68410703Y-55022613D01*
X68501141Y-55228793D01*
X68624275Y-55417265D01*
X68624279Y-55417270D01*
X68776762Y-55582908D01*
X68831331Y-55625381D01*
X68954424Y-55721189D01*
X68987680Y-55739186D01*
X69038071Y-55789200D01*
X69053423Y-55858516D01*
X69028862Y-55925129D01*
X68987680Y-55960813D01*
X68954426Y-55978810D01*
X68954424Y-55978811D01*
X68776762Y-56117091D01*
X68624279Y-56282729D01*
X68624275Y-56282734D01*
X68501141Y-56471206D01*
X68410703Y-56677386D01*
X68410702Y-56677387D01*
X68355437Y-56895624D01*
X68355436Y-56895630D01*
X68355436Y-56895632D01*
X68338382Y-57101441D01*
X68336844Y-57120000D01*
X68355437Y-57344375D01*
X68410702Y-57562612D01*
X68410703Y-57562613D01*
X68501141Y-57768793D01*
X68624275Y-57957265D01*
X68624279Y-57957270D01*
X68776762Y-58122908D01*
X68817165Y-58154355D01*
X68954424Y-58261189D01*
X68987680Y-58279186D01*
X69038071Y-58329200D01*
X69053423Y-58398516D01*
X69028862Y-58465129D01*
X68987680Y-58500813D01*
X68954426Y-58518810D01*
X68954424Y-58518811D01*
X68776762Y-58657091D01*
X68624279Y-58822729D01*
X68624275Y-58822734D01*
X68501141Y-59011206D01*
X68410703Y-59217386D01*
X68410702Y-59217387D01*
X68355437Y-59435624D01*
X68336844Y-59660000D01*
X68355436Y-59884369D01*
X68376038Y-59965723D01*
X68373370Y-60036670D01*
X68342989Y-60085749D01*
X67738511Y-60690228D01*
X67738510Y-60690229D01*
X67666445Y-60798082D01*
X67616807Y-60917919D01*
X67616806Y-60917922D01*
X67591500Y-61045139D01*
X67591500Y-77675521D01*
X67616806Y-77802738D01*
X67666445Y-77922578D01*
X67738509Y-78030430D01*
X67738513Y-78030434D01*
X69604595Y-79896516D01*
X69638621Y-79958828D01*
X69641500Y-79985611D01*
X69641500Y-94728280D01*
X69621498Y-94796401D01*
X69567842Y-94842894D01*
X69497568Y-94852998D01*
X69432988Y-94823504D01*
X69415538Y-94804985D01*
X69394267Y-94777264D01*
X69394255Y-94777251D01*
X69222748Y-94605744D01*
X69222742Y-94605739D01*
X69222738Y-94605735D01*
X69030289Y-94458064D01*
X69030288Y-94458063D01*
X69030285Y-94458061D01*
X68820224Y-94336782D01*
X68820216Y-94336778D01*
X68820212Y-94336776D01*
X68596100Y-94243946D01*
X68596097Y-94243945D01*
X68596095Y-94243944D01*
X68361782Y-94181160D01*
X68121290Y-94149500D01*
X68121288Y-94149500D01*
X67878712Y-94149500D01*
X67878709Y-94149500D01*
X67638217Y-94181160D01*
X67403904Y-94243944D01*
X67403900Y-94243946D01*
X67179786Y-94336777D01*
X67179775Y-94336782D01*
X66969714Y-94458061D01*
X66777262Y-94605735D01*
X66777251Y-94605744D01*
X66605744Y-94777251D01*
X66605735Y-94777262D01*
X66458061Y-94969714D01*
X66336782Y-95179775D01*
X66336777Y-95179786D01*
X66243946Y-95403900D01*
X66243944Y-95403904D01*
X66181160Y-95638217D01*
X66149500Y-95878709D01*
X66149500Y-96121290D01*
X66181160Y-96361782D01*
X66243944Y-96596095D01*
X66243945Y-96596097D01*
X66243946Y-96596100D01*
X66336776Y-96820212D01*
X66336777Y-96820213D01*
X66336782Y-96820224D01*
X66458061Y-97030285D01*
X66458063Y-97030288D01*
X66458064Y-97030289D01*
X66605735Y-97222738D01*
X66605739Y-97222742D01*
X66605744Y-97222748D01*
X66777251Y-97394255D01*
X66777256Y-97394259D01*
X66777262Y-97394265D01*
X66969711Y-97541936D01*
X66969714Y-97541938D01*
X67179775Y-97663217D01*
X67179779Y-97663218D01*
X67179788Y-97663224D01*
X67403900Y-97756054D01*
X67638211Y-97818838D01*
X67638215Y-97818838D01*
X67638217Y-97818839D01*
X67700202Y-97826999D01*
X67878712Y-97850500D01*
X67878719Y-97850500D01*
X68121281Y-97850500D01*
X68121288Y-97850500D01*
X68344349Y-97821134D01*
X68361782Y-97818839D01*
X68361782Y-97818838D01*
X68361789Y-97818838D01*
X68596100Y-97756054D01*
X68820212Y-97663224D01*
X69030289Y-97541936D01*
X69222738Y-97394265D01*
X69394265Y-97222738D01*
X69415537Y-97195016D01*
X69472875Y-97153148D01*
X69543746Y-97148926D01*
X69605649Y-97183690D01*
X69638930Y-97246402D01*
X69641500Y-97271719D01*
X69641500Y-99677993D01*
X69621498Y-99746114D01*
X69604595Y-99767088D01*
X67408513Y-101963169D01*
X67408508Y-101963175D01*
X67336445Y-102071025D01*
X67286807Y-102190862D01*
X67286806Y-102190865D01*
X67261500Y-102318082D01*
X67261500Y-116984860D01*
X67286806Y-117112077D01*
X67286807Y-117112080D01*
X67306987Y-117160799D01*
X67336445Y-117231917D01*
X67408509Y-117339769D01*
X67408513Y-117339773D01*
X67762988Y-117694248D01*
X67797014Y-117756560D01*
X67796038Y-117814273D01*
X67775436Y-117895628D01*
X67756844Y-118120000D01*
X67775437Y-118344375D01*
X67830702Y-118562612D01*
X67830703Y-118562613D01*
X67921141Y-118768793D01*
X68044275Y-118957265D01*
X68044279Y-118957270D01*
X68196762Y-119122908D01*
X68251331Y-119165381D01*
X68374424Y-119261189D01*
X68572426Y-119368342D01*
X68572427Y-119368342D01*
X68572428Y-119368343D01*
X68684227Y-119406723D01*
X68785365Y-119441444D01*
X69007431Y-119478500D01*
X69007435Y-119478500D01*
X69232565Y-119478500D01*
X69232569Y-119478500D01*
X69454635Y-119441444D01*
X69667574Y-119368342D01*
X69865576Y-119261189D01*
X70043240Y-119122906D01*
X70195722Y-118957268D01*
X70318860Y-118768791D01*
X70409296Y-118562616D01*
X70464564Y-118344368D01*
X70483156Y-118120000D01*
X70464564Y-117895632D01*
X70409296Y-117677384D01*
X70318860Y-117471209D01*
X70232989Y-117339773D01*
X70195724Y-117282734D01*
X70195720Y-117282729D01*
X70043237Y-117117091D01*
X69923367Y-117023792D01*
X69865576Y-116978811D01*
X69831792Y-116960528D01*
X69781402Y-116910516D01*
X69766050Y-116841199D01*
X69790610Y-116774586D01*
X69831793Y-116738901D01*
X69865299Y-116720768D01*
X69865302Y-116720766D01*
X69885688Y-116704898D01*
X69244947Y-116064158D01*
X69312993Y-116045925D01*
X69427007Y-115980099D01*
X69520099Y-115887007D01*
X69585925Y-115772993D01*
X69604157Y-115704948D01*
X70243076Y-116343867D01*
X70243077Y-116343866D01*
X70318419Y-116228551D01*
X70408820Y-116022456D01*
X70408823Y-116022449D01*
X70464067Y-115804292D01*
X70482653Y-115580000D01*
X70464067Y-115355707D01*
X70408823Y-115137550D01*
X70408820Y-115137543D01*
X70318422Y-114931456D01*
X70318417Y-114931448D01*
X70243076Y-114816132D01*
X69604157Y-115455051D01*
X69585925Y-115387007D01*
X69520099Y-115272993D01*
X69427007Y-115179901D01*
X69312993Y-115114075D01*
X69244947Y-115095841D01*
X69885689Y-114455100D01*
X69885688Y-114455099D01*
X69865306Y-114439235D01*
X69865294Y-114439227D01*
X69831792Y-114421097D01*
X69781402Y-114371084D01*
X69766050Y-114301767D01*
X69790611Y-114235154D01*
X69831790Y-114199472D01*
X69865576Y-114181189D01*
X70043240Y-114042906D01*
X70195722Y-113877268D01*
X70318860Y-113688791D01*
X70409296Y-113482616D01*
X70464564Y-113264368D01*
X70483156Y-113040000D01*
X70464564Y-112815632D01*
X70443961Y-112734274D01*
X70446627Y-112663331D01*
X70477008Y-112614250D01*
X71259407Y-111831852D01*
X71321717Y-111797829D01*
X71392533Y-111802894D01*
X71449368Y-111845441D01*
X71474179Y-111911961D01*
X71474500Y-111920950D01*
X71474500Y-146348500D01*
X71454498Y-146416621D01*
X71400842Y-146463114D01*
X71348500Y-146474500D01*
X51651500Y-146474500D01*
X51583379Y-146454498D01*
X51536886Y-146400842D01*
X51525500Y-146348500D01*
X51525500Y-86365139D01*
X51791500Y-86365139D01*
X51791500Y-129914860D01*
X51816806Y-130042077D01*
X51816807Y-130042080D01*
X51866445Y-130161917D01*
X51938509Y-130269769D01*
X51938513Y-130269773D01*
X53208068Y-131539328D01*
X53238805Y-131589484D01*
X53265472Y-131671554D01*
X53265475Y-131671561D01*
X53360958Y-131836941D01*
X53360965Y-131836951D01*
X53488744Y-131978864D01*
X53488747Y-131978866D01*
X53643248Y-132091118D01*
X53817712Y-132168794D01*
X54004513Y-132208500D01*
X54195487Y-132208500D01*
X54382288Y-132168794D01*
X54556752Y-132091118D01*
X54711253Y-131978866D01*
X54755719Y-131929482D01*
X54839034Y-131836951D01*
X54839035Y-131836949D01*
X54839040Y-131836944D01*
X54934527Y-131671556D01*
X54993542Y-131489928D01*
X55013504Y-131300000D01*
X54993542Y-131110072D01*
X54934527Y-130928444D01*
X54839040Y-130763056D01*
X54839038Y-130763054D01*
X54839034Y-130763048D01*
X54800273Y-130720000D01*
X58936844Y-130720000D01*
X58954116Y-130928444D01*
X58955437Y-130944375D01*
X59010702Y-131162612D01*
X59010703Y-131162613D01*
X59101141Y-131368793D01*
X59224275Y-131557265D01*
X59224279Y-131557270D01*
X59376762Y-131722908D01*
X59431331Y-131765381D01*
X59554424Y-131861189D01*
X59588205Y-131879470D01*
X59638596Y-131929482D01*
X59653949Y-131998799D01*
X59629389Y-132065412D01*
X59588208Y-132101097D01*
X59554700Y-132119230D01*
X59534310Y-132135099D01*
X59534310Y-132135101D01*
X60175051Y-132775842D01*
X60107007Y-132794075D01*
X59992993Y-132859901D01*
X59899901Y-132952993D01*
X59834075Y-133067007D01*
X59815841Y-133135052D01*
X59176921Y-132496132D01*
X59101580Y-132611451D01*
X59011179Y-132817543D01*
X59011176Y-132817550D01*
X58955932Y-133035707D01*
X58937346Y-133260000D01*
X58955932Y-133484292D01*
X59011176Y-133702449D01*
X59011179Y-133702456D01*
X59101580Y-133908548D01*
X59176922Y-134023866D01*
X59815841Y-133384946D01*
X59834075Y-133452993D01*
X59899901Y-133567007D01*
X59992993Y-133660099D01*
X60107007Y-133725925D01*
X60175051Y-133744157D01*
X59534310Y-134384898D01*
X59554694Y-134400763D01*
X59554696Y-134400765D01*
X59588733Y-134419185D01*
X59639123Y-134469199D01*
X59654475Y-134538516D01*
X59629914Y-134605129D01*
X59588735Y-134640811D01*
X59554702Y-134659229D01*
X59534310Y-134675099D01*
X59534310Y-134675101D01*
X60175051Y-135315842D01*
X60107007Y-135334075D01*
X59992993Y-135399901D01*
X59899901Y-135492993D01*
X59834075Y-135607007D01*
X59815841Y-135675052D01*
X59176921Y-135036132D01*
X59101580Y-135151451D01*
X59011179Y-135357543D01*
X59011176Y-135357550D01*
X58955932Y-135575707D01*
X58937346Y-135800000D01*
X58955932Y-136024292D01*
X59011176Y-136242449D01*
X59011179Y-136242456D01*
X59101580Y-136448548D01*
X59176922Y-136563866D01*
X59815841Y-135924946D01*
X59834075Y-135992993D01*
X59899901Y-136107007D01*
X59992993Y-136200099D01*
X60107007Y-136265925D01*
X60175051Y-136284157D01*
X59534310Y-136924898D01*
X59554694Y-136940763D01*
X59554696Y-136940765D01*
X59588733Y-136959185D01*
X59639123Y-137009199D01*
X59654475Y-137078516D01*
X59629914Y-137145129D01*
X59588735Y-137180811D01*
X59554702Y-137199229D01*
X59534310Y-137215099D01*
X59534310Y-137215101D01*
X60175051Y-137855842D01*
X60107007Y-137874075D01*
X59992993Y-137939901D01*
X59899901Y-138032993D01*
X59834075Y-138147007D01*
X59815841Y-138215052D01*
X59176921Y-137576132D01*
X59101580Y-137691451D01*
X59011179Y-137897543D01*
X59011176Y-137897550D01*
X58955932Y-138115707D01*
X58937346Y-138340000D01*
X58955932Y-138564292D01*
X59011176Y-138782449D01*
X59011179Y-138782456D01*
X59101580Y-138988548D01*
X59176922Y-139103866D01*
X59815841Y-138464946D01*
X59834075Y-138532993D01*
X59899901Y-138647007D01*
X59992993Y-138740099D01*
X60107007Y-138805925D01*
X60175051Y-138824157D01*
X59524054Y-139475154D01*
X59516866Y-139506765D01*
X59466194Y-139556493D01*
X59446486Y-139564946D01*
X59377264Y-139587884D01*
X59226347Y-139680970D01*
X59226341Y-139680975D01*
X59100975Y-139806341D01*
X59100970Y-139806347D01*
X59007885Y-139957262D01*
X58952113Y-140125572D01*
X58952112Y-140125579D01*
X58941500Y-140229446D01*
X58941500Y-141530544D01*
X58952112Y-141634425D01*
X59007885Y-141802738D01*
X59100970Y-141953652D01*
X59100975Y-141953658D01*
X59226341Y-142079024D01*
X59226347Y-142079029D01*
X59226348Y-142079030D01*
X59377262Y-142172115D01*
X59545574Y-142227887D01*
X59649455Y-142238500D01*
X60950544Y-142238499D01*
X61054426Y-142227887D01*
X61222738Y-142172115D01*
X61373652Y-142079030D01*
X61499030Y-141953652D01*
X61592115Y-141802738D01*
X61592118Y-141802728D01*
X61595217Y-141796086D01*
X61597126Y-141796976D01*
X61631581Y-141747200D01*
X61697135Y-141719936D01*
X61767021Y-141732442D01*
X61803483Y-141759857D01*
X61842959Y-141802738D01*
X61916760Y-141882906D01*
X62094424Y-142021189D01*
X62292426Y-142128342D01*
X62292427Y-142128342D01*
X62292428Y-142128343D01*
X62404227Y-142166723D01*
X62505365Y-142201444D01*
X62727431Y-142238500D01*
X62727435Y-142238500D01*
X62952565Y-142238500D01*
X62952569Y-142238500D01*
X63174635Y-142201444D01*
X63387574Y-142128342D01*
X63585576Y-142021189D01*
X63763240Y-141882906D01*
X63915722Y-141717268D01*
X64038860Y-141528791D01*
X64129296Y-141322616D01*
X64184564Y-141104368D01*
X64203156Y-140880000D01*
X64184564Y-140655632D01*
X64129296Y-140437384D01*
X64038860Y-140231209D01*
X63969849Y-140125579D01*
X63915724Y-140042734D01*
X63915720Y-140042729D01*
X63763237Y-139877091D01*
X63681382Y-139813381D01*
X63585576Y-139738811D01*
X63551792Y-139720528D01*
X63501402Y-139670516D01*
X63486050Y-139601199D01*
X63510610Y-139534586D01*
X63551793Y-139498901D01*
X63585299Y-139480768D01*
X63585302Y-139480766D01*
X63605689Y-139464898D01*
X62964948Y-138824157D01*
X63032993Y-138805925D01*
X63147007Y-138740099D01*
X63240099Y-138647007D01*
X63305925Y-138532993D01*
X63324157Y-138464948D01*
X63963076Y-139103867D01*
X63963077Y-139103866D01*
X64038419Y-138988551D01*
X64128820Y-138782456D01*
X64128823Y-138782449D01*
X64184067Y-138564292D01*
X64202653Y-138340000D01*
X64184067Y-138115707D01*
X64128823Y-137897550D01*
X64128820Y-137897543D01*
X64038422Y-137691456D01*
X64038417Y-137691448D01*
X63963076Y-137576132D01*
X63324157Y-138215051D01*
X63305925Y-138147007D01*
X63240099Y-138032993D01*
X63147007Y-137939901D01*
X63032993Y-137874075D01*
X62964947Y-137855841D01*
X63605689Y-137215100D01*
X63605688Y-137215099D01*
X63585306Y-137199235D01*
X63585299Y-137199230D01*
X63551265Y-137180812D01*
X63500876Y-137130798D01*
X63485524Y-137061481D01*
X63510086Y-136994869D01*
X63551269Y-136959184D01*
X63585299Y-136940768D01*
X63585302Y-136940766D01*
X63605689Y-136924898D01*
X62964948Y-136284157D01*
X63032993Y-136265925D01*
X63147007Y-136200099D01*
X63240099Y-136107007D01*
X63305925Y-135992993D01*
X63324157Y-135924948D01*
X63963076Y-136563867D01*
X63963077Y-136563866D01*
X64038419Y-136448551D01*
X64128820Y-136242456D01*
X64128823Y-136242449D01*
X64184067Y-136024292D01*
X64202653Y-135800000D01*
X64184067Y-135575707D01*
X64128823Y-135357550D01*
X64128820Y-135357543D01*
X64038422Y-135151456D01*
X64038417Y-135151448D01*
X63963076Y-135036132D01*
X63324157Y-135675051D01*
X63305925Y-135607007D01*
X63240099Y-135492993D01*
X63147007Y-135399901D01*
X63032993Y-135334075D01*
X62964947Y-135315841D01*
X63605689Y-134675100D01*
X63605688Y-134675099D01*
X63585306Y-134659235D01*
X63585299Y-134659230D01*
X63551265Y-134640812D01*
X63500876Y-134590798D01*
X63485524Y-134521481D01*
X63510086Y-134454869D01*
X63551269Y-134419184D01*
X63585299Y-134400768D01*
X63585302Y-134400766D01*
X63605689Y-134384898D01*
X62964948Y-133744157D01*
X63032993Y-133725925D01*
X63147007Y-133660099D01*
X63240099Y-133567007D01*
X63305925Y-133452993D01*
X63324157Y-133384948D01*
X63963076Y-134023867D01*
X63963077Y-134023866D01*
X64038419Y-133908551D01*
X64128820Y-133702456D01*
X64128823Y-133702449D01*
X64184067Y-133484292D01*
X64202653Y-133260000D01*
X64184067Y-133035707D01*
X64128823Y-132817550D01*
X64128820Y-132817543D01*
X64038422Y-132611456D01*
X64038417Y-132611448D01*
X63963076Y-132496132D01*
X63324157Y-133135051D01*
X63305925Y-133067007D01*
X63240099Y-132952993D01*
X63147007Y-132859901D01*
X63032993Y-132794075D01*
X62964947Y-132775841D01*
X63605689Y-132135100D01*
X63605688Y-132135099D01*
X63585306Y-132119235D01*
X63585294Y-132119227D01*
X63551792Y-132101097D01*
X63501402Y-132051084D01*
X63486050Y-131981767D01*
X63510611Y-131915154D01*
X63551790Y-131879472D01*
X63585576Y-131861189D01*
X63763240Y-131722906D01*
X63915722Y-131557268D01*
X64038860Y-131368791D01*
X64129296Y-131162616D01*
X64184564Y-130944368D01*
X64203156Y-130720000D01*
X64184564Y-130495632D01*
X64158369Y-130392190D01*
X64129297Y-130277387D01*
X64129296Y-130277386D01*
X64129296Y-130277384D01*
X64038860Y-130071209D01*
X64032140Y-130060924D01*
X63915724Y-129882734D01*
X63915720Y-129882729D01*
X63763237Y-129717091D01*
X63681382Y-129653381D01*
X63585576Y-129578811D01*
X63387574Y-129471658D01*
X63387572Y-129471657D01*
X63387571Y-129471656D01*
X63174639Y-129398557D01*
X63174630Y-129398555D01*
X63130476Y-129391187D01*
X62952569Y-129361500D01*
X62727431Y-129361500D01*
X62579211Y-129386233D01*
X62505369Y-129398555D01*
X62505360Y-129398557D01*
X62292428Y-129471656D01*
X62292426Y-129471658D01*
X62094426Y-129578810D01*
X62094424Y-129578811D01*
X61916762Y-129717091D01*
X61764279Y-129882729D01*
X61675483Y-130018643D01*
X61621479Y-130064731D01*
X61551131Y-130074306D01*
X61486774Y-130044329D01*
X61464517Y-130018643D01*
X61375720Y-129882729D01*
X61223237Y-129717091D01*
X61141382Y-129653381D01*
X61045576Y-129578811D01*
X60847574Y-129471658D01*
X60847572Y-129471657D01*
X60847571Y-129471656D01*
X60634639Y-129398557D01*
X60634630Y-129398555D01*
X60590476Y-129391187D01*
X60412569Y-129361500D01*
X60187431Y-129361500D01*
X60039211Y-129386233D01*
X59965369Y-129398555D01*
X59965360Y-129398557D01*
X59752428Y-129471656D01*
X59752426Y-129471658D01*
X59554426Y-129578810D01*
X59554424Y-129578811D01*
X59376762Y-129717091D01*
X59224279Y-129882729D01*
X59224275Y-129882734D01*
X59101141Y-130071206D01*
X59010703Y-130277386D01*
X59010702Y-130277387D01*
X58955437Y-130495624D01*
X58955436Y-130495630D01*
X58955436Y-130495632D01*
X58936844Y-130720000D01*
X54800273Y-130720000D01*
X54711255Y-130621135D01*
X54556752Y-130508882D01*
X54382288Y-130431206D01*
X54195487Y-130391500D01*
X54004513Y-130391500D01*
X54004507Y-130391500D01*
X54003999Y-130391608D01*
X54003698Y-130391585D01*
X53997940Y-130392190D01*
X53997829Y-130391136D01*
X53933209Y-130386202D01*
X53888715Y-130357455D01*
X53145405Y-129614145D01*
X53111379Y-129551833D01*
X53108500Y-129525050D01*
X53108500Y-119604500D01*
X53128502Y-119536379D01*
X53182158Y-119489886D01*
X53234500Y-119478500D01*
X54778632Y-119478500D01*
X54778638Y-119478500D01*
X54778645Y-119478499D01*
X54778649Y-119478499D01*
X54839196Y-119471990D01*
X54839199Y-119471989D01*
X54839201Y-119471989D01*
X54976204Y-119420889D01*
X55046399Y-119368342D01*
X55093261Y-119333261D01*
X55180887Y-119216207D01*
X55180887Y-119216206D01*
X55180889Y-119216204D01*
X55231989Y-119079201D01*
X55238500Y-119018638D01*
X55238500Y-117221362D01*
X55238499Y-117221350D01*
X55231990Y-117160803D01*
X55231988Y-117160795D01*
X55180889Y-117023797D01*
X55180887Y-117023792D01*
X55093261Y-116906738D01*
X54976207Y-116819112D01*
X54976203Y-116819110D01*
X54861192Y-116776213D01*
X54804356Y-116733667D01*
X54779546Y-116667146D01*
X54794638Y-116597772D01*
X54812525Y-116572820D01*
X54955714Y-116417277D01*
X54955724Y-116417265D01*
X55003678Y-116343866D01*
X55078860Y-116228791D01*
X55169296Y-116022616D01*
X55224564Y-115804368D01*
X55243156Y-115580000D01*
X55224564Y-115355632D01*
X55203961Y-115274274D01*
X55206627Y-115203329D01*
X55237008Y-115154250D01*
X62626405Y-107764854D01*
X62688717Y-107730828D01*
X62759532Y-107735893D01*
X62816368Y-107778440D01*
X62841179Y-107844960D01*
X62841500Y-107853949D01*
X62841500Y-125764860D01*
X62866806Y-125892077D01*
X62916445Y-126011917D01*
X62988509Y-126119769D01*
X62988513Y-126119773D01*
X68057030Y-131188290D01*
X68091056Y-131250602D01*
X68093244Y-131264210D01*
X68106458Y-131389928D01*
X68165473Y-131571556D01*
X68165476Y-131571561D01*
X68260958Y-131736941D01*
X68260965Y-131736951D01*
X68388744Y-131878864D01*
X68388747Y-131878866D01*
X68543248Y-131991118D01*
X68717712Y-132068794D01*
X68904513Y-132108500D01*
X69095487Y-132108500D01*
X69282288Y-132068794D01*
X69456752Y-131991118D01*
X69611253Y-131878866D01*
X69627167Y-131861192D01*
X69739034Y-131736951D01*
X69739035Y-131736949D01*
X69739040Y-131736944D01*
X69834527Y-131571556D01*
X69893542Y-131389928D01*
X69913504Y-131200000D01*
X69893542Y-131010072D01*
X69834527Y-130828444D01*
X69739040Y-130663056D01*
X69739038Y-130663054D01*
X69739034Y-130663048D01*
X69611255Y-130521135D01*
X69456752Y-130408882D01*
X69282288Y-130331206D01*
X69095487Y-130291500D01*
X69074950Y-130291500D01*
X69006829Y-130271498D01*
X68985855Y-130254595D01*
X64195405Y-125464145D01*
X64161379Y-125401833D01*
X64158500Y-125375050D01*
X64158500Y-106893866D01*
X64168092Y-106845646D01*
X64183193Y-106809188D01*
X64183195Y-106809184D01*
X64208500Y-106681963D01*
X64208500Y-106552250D01*
X64208500Y-70924450D01*
X64228502Y-70856329D01*
X64245405Y-70835355D01*
X64335355Y-70745405D01*
X64397667Y-70711379D01*
X64424450Y-70708500D01*
X64444987Y-70708500D01*
X64631788Y-70668794D01*
X64806252Y-70591118D01*
X64960753Y-70478866D01*
X65023200Y-70409512D01*
X65088534Y-70336951D01*
X65088535Y-70336949D01*
X65088540Y-70336944D01*
X65184027Y-70171556D01*
X65243042Y-69989928D01*
X65263004Y-69800000D01*
X65243042Y-69610072D01*
X65184027Y-69428444D01*
X65088540Y-69263056D01*
X65088538Y-69263054D01*
X65088534Y-69263048D01*
X64960755Y-69121135D01*
X64806252Y-69008882D01*
X64631788Y-68931206D01*
X64444987Y-68891500D01*
X64254013Y-68891500D01*
X64067211Y-68931206D01*
X63971411Y-68973859D01*
X63892748Y-69008882D01*
X63892746Y-69008882D01*
X63886716Y-69011568D01*
X63885587Y-69009033D01*
X63828476Y-69022875D01*
X63761389Y-68999639D01*
X63717515Y-68943821D01*
X63708500Y-68897019D01*
X63708500Y-68514289D01*
X63728502Y-68446168D01*
X63745405Y-68425194D01*
X63939393Y-68231206D01*
X64211491Y-67959108D01*
X64283555Y-67851256D01*
X64333194Y-67731416D01*
X64358500Y-67604195D01*
X64358500Y-67474482D01*
X64358500Y-55136999D01*
X64375380Y-55074000D01*
X64434527Y-54971556D01*
X64493542Y-54789928D01*
X64513504Y-54600000D01*
X64493542Y-54410072D01*
X64434527Y-54228444D01*
X64339040Y-54063056D01*
X64339038Y-54063054D01*
X64339034Y-54063048D01*
X64211255Y-53921135D01*
X64056752Y-53808882D01*
X63882288Y-53731206D01*
X63695487Y-53691500D01*
X63504513Y-53691500D01*
X63317711Y-53731206D01*
X63143247Y-53808882D01*
X62988744Y-53921135D01*
X62860965Y-54063048D01*
X62860958Y-54063058D01*
X62765476Y-54228438D01*
X62765473Y-54228445D01*
X62706457Y-54410072D01*
X62686496Y-54600000D01*
X62706457Y-54789927D01*
X62711152Y-54804375D01*
X62765473Y-54971556D01*
X62765476Y-54971561D01*
X62860958Y-55136941D01*
X62860965Y-55136951D01*
X62988743Y-55278862D01*
X62988747Y-55278866D01*
X62989554Y-55279452D01*
X62989910Y-55279914D01*
X62993652Y-55283283D01*
X62993036Y-55283967D01*
X63032912Y-55335672D01*
X63041500Y-55381393D01*
X63041500Y-56065500D01*
X63021498Y-56133621D01*
X62967842Y-56180114D01*
X62915500Y-56191500D01*
X62854013Y-56191500D01*
X62667211Y-56231206D01*
X62492747Y-56308882D01*
X62338244Y-56421135D01*
X62210465Y-56563048D01*
X62210458Y-56563058D01*
X62114976Y-56728438D01*
X62114973Y-56728444D01*
X62055958Y-56910072D01*
X62042745Y-57035784D01*
X62015731Y-57101441D01*
X62006530Y-57111708D01*
X60288515Y-58829723D01*
X60288510Y-58829730D01*
X60257161Y-58876647D01*
X60216445Y-58937582D01*
X60166807Y-59057419D01*
X60166806Y-59057422D01*
X60141500Y-59184639D01*
X60141500Y-68906050D01*
X60121498Y-68974171D01*
X60067842Y-69020664D01*
X59997568Y-69030768D01*
X59932988Y-69001274D01*
X59926405Y-68995145D01*
X59519773Y-68588513D01*
X59519769Y-68588509D01*
X59411917Y-68516445D01*
X59406712Y-68514289D01*
X59292080Y-68466807D01*
X59292077Y-68466806D01*
X59164860Y-68441500D01*
X59164857Y-68441500D01*
X58280224Y-68441500D01*
X58212103Y-68421498D01*
X58206163Y-68417436D01*
X58056752Y-68308882D01*
X57882288Y-68231206D01*
X57695487Y-68191500D01*
X57504513Y-68191500D01*
X57317711Y-68231206D01*
X57143247Y-68308882D01*
X56988744Y-68421135D01*
X56860965Y-68563048D01*
X56860958Y-68563058D01*
X56765476Y-68728438D01*
X56765473Y-68728445D01*
X56706457Y-68910072D01*
X56686496Y-69100000D01*
X56706457Y-69289927D01*
X56716952Y-69322226D01*
X56765473Y-69471556D01*
X56765476Y-69471561D01*
X56860958Y-69636941D01*
X56860965Y-69636951D01*
X56988744Y-69778864D01*
X56988747Y-69778866D01*
X57143248Y-69891118D01*
X57317712Y-69968794D01*
X57504513Y-70008500D01*
X57695487Y-70008500D01*
X57882288Y-69968794D01*
X58056752Y-69891118D01*
X58206163Y-69782563D01*
X58273031Y-69758706D01*
X58280224Y-69758500D01*
X58775050Y-69758500D01*
X58843171Y-69778502D01*
X58864145Y-69795405D01*
X59004595Y-69935855D01*
X59038621Y-69998167D01*
X59041500Y-70024950D01*
X59041500Y-70409512D01*
X59021498Y-70477633D01*
X58967842Y-70524126D01*
X58897568Y-70534230D01*
X58888827Y-70532202D01*
X58888747Y-70532579D01*
X58695487Y-70491500D01*
X58504513Y-70491500D01*
X58317711Y-70531206D01*
X58143247Y-70608882D01*
X57988744Y-70721135D01*
X57860965Y-70863048D01*
X57860958Y-70863058D01*
X57765476Y-71028438D01*
X57765473Y-71028445D01*
X57706457Y-71210072D01*
X57686496Y-71400000D01*
X57706457Y-71589927D01*
X57720017Y-71631658D01*
X57765473Y-71771556D01*
X57765476Y-71771561D01*
X57860961Y-71936946D01*
X57909135Y-71990447D01*
X57939853Y-72054454D01*
X57941500Y-72074759D01*
X57941500Y-79955049D01*
X57921498Y-80023170D01*
X57904595Y-80044144D01*
X54874164Y-83074574D01*
X54811852Y-83108600D01*
X54741036Y-83103535D01*
X54684201Y-83060988D01*
X54659500Y-82995888D01*
X54644564Y-82815632D01*
X54589296Y-82597384D01*
X54498860Y-82391209D01*
X54484215Y-82368793D01*
X54375724Y-82202734D01*
X54375720Y-82202729D01*
X54223237Y-82037091D01*
X54141382Y-81973381D01*
X54045576Y-81898811D01*
X54012319Y-81880813D01*
X53961929Y-81830802D01*
X53946576Y-81761485D01*
X53971136Y-81694872D01*
X54012320Y-81659186D01*
X54045576Y-81641189D01*
X54223240Y-81502906D01*
X54375722Y-81337268D01*
X54498860Y-81148791D01*
X54589296Y-80942616D01*
X54644564Y-80724368D01*
X54663156Y-80500000D01*
X54644564Y-80275632D01*
X54589296Y-80057384D01*
X54498860Y-79851209D01*
X54492140Y-79840924D01*
X54375724Y-79662734D01*
X54375720Y-79662729D01*
X54223237Y-79497091D01*
X54141382Y-79433381D01*
X54045576Y-79358811D01*
X54012319Y-79340813D01*
X53961929Y-79290802D01*
X53946576Y-79221485D01*
X53971136Y-79154872D01*
X54012320Y-79119186D01*
X54045576Y-79101189D01*
X54223240Y-78962906D01*
X54375722Y-78797268D01*
X54498860Y-78608791D01*
X54589296Y-78402616D01*
X54644564Y-78184368D01*
X54663156Y-77960000D01*
X54644564Y-77735632D01*
X54589296Y-77517384D01*
X54498860Y-77311209D01*
X54492140Y-77300924D01*
X54375724Y-77122734D01*
X54375720Y-77122729D01*
X54223237Y-76957091D01*
X54141382Y-76893381D01*
X54045576Y-76818811D01*
X54011792Y-76800528D01*
X53961402Y-76750516D01*
X53946050Y-76681199D01*
X53970610Y-76614586D01*
X54011793Y-76578901D01*
X54045300Y-76560767D01*
X54045301Y-76560767D01*
X54222902Y-76422534D01*
X54375325Y-76256958D01*
X54498419Y-76068548D01*
X54588820Y-75862456D01*
X54588823Y-75862449D01*
X54636544Y-75674000D01*
X53730703Y-75674000D01*
X53765925Y-75612993D01*
X53800000Y-75485826D01*
X53800000Y-75354174D01*
X53765925Y-75227007D01*
X53730703Y-75166000D01*
X54636544Y-75166000D01*
X54636544Y-75165999D01*
X54588823Y-74977550D01*
X54588820Y-74977543D01*
X54498419Y-74771451D01*
X54375325Y-74583041D01*
X54222902Y-74417465D01*
X54045301Y-74279232D01*
X54045300Y-74279231D01*
X54011791Y-74261097D01*
X53961401Y-74211083D01*
X53946050Y-74141766D01*
X53970612Y-74075153D01*
X54011790Y-74039472D01*
X54045576Y-74021189D01*
X54223240Y-73882906D01*
X54375722Y-73717268D01*
X54498860Y-73528791D01*
X54589296Y-73322616D01*
X54644564Y-73104368D01*
X54663156Y-72880000D01*
X54644564Y-72655632D01*
X54589296Y-72437384D01*
X54498860Y-72231209D01*
X54492140Y-72220924D01*
X54375724Y-72042734D01*
X54375720Y-72042729D01*
X54223237Y-71877091D01*
X54141382Y-71813381D01*
X54045576Y-71738811D01*
X54012319Y-71720813D01*
X53961929Y-71670802D01*
X53946576Y-71601485D01*
X53971136Y-71534872D01*
X54012320Y-71499186D01*
X54045576Y-71481189D01*
X54223240Y-71342906D01*
X54375722Y-71177268D01*
X54498860Y-70988791D01*
X54589296Y-70782616D01*
X54644564Y-70564368D01*
X54663156Y-70340000D01*
X54644564Y-70115632D01*
X54621600Y-70024950D01*
X54589297Y-69897387D01*
X54589296Y-69897386D01*
X54589296Y-69897384D01*
X54498860Y-69691209D01*
X54445851Y-69610072D01*
X54375724Y-69502734D01*
X54375719Y-69502729D01*
X54232524Y-69347179D01*
X54201103Y-69283514D01*
X54209090Y-69212968D01*
X54253948Y-69157939D01*
X54281183Y-69143789D01*
X54396204Y-69100889D01*
X54489875Y-69030768D01*
X54513261Y-69013261D01*
X54600887Y-68896207D01*
X54600887Y-68896206D01*
X54600889Y-68896204D01*
X54651989Y-68759201D01*
X54655297Y-68728438D01*
X54658499Y-68698649D01*
X54658500Y-68698632D01*
X54658500Y-66901367D01*
X54658499Y-66901350D01*
X54651990Y-66840803D01*
X54651988Y-66840795D01*
X54600889Y-66703797D01*
X54600887Y-66703792D01*
X54513261Y-66586738D01*
X54396207Y-66499112D01*
X54396202Y-66499110D01*
X54259204Y-66448011D01*
X54259196Y-66448009D01*
X54198649Y-66441500D01*
X54198638Y-66441500D01*
X52401362Y-66441500D01*
X52401350Y-66441500D01*
X52340803Y-66448009D01*
X52340795Y-66448011D01*
X52203797Y-66499110D01*
X52203792Y-66499112D01*
X52086738Y-66586738D01*
X51999112Y-66703792D01*
X51999110Y-66703797D01*
X51948011Y-66840795D01*
X51948009Y-66840803D01*
X51941500Y-66901350D01*
X51941500Y-68698649D01*
X51948009Y-68759196D01*
X51948011Y-68759204D01*
X51999110Y-68896202D01*
X51999112Y-68896207D01*
X52086738Y-69013261D01*
X52203791Y-69100886D01*
X52203792Y-69100886D01*
X52203796Y-69100889D01*
X52318810Y-69143787D01*
X52375642Y-69186332D01*
X52400453Y-69252852D01*
X52385362Y-69322226D01*
X52367475Y-69347179D01*
X52224280Y-69502729D01*
X52224275Y-69502734D01*
X52101141Y-69691206D01*
X52010703Y-69897386D01*
X52010702Y-69897387D01*
X51955437Y-70115624D01*
X51955436Y-70115630D01*
X51955436Y-70115632D01*
X51936844Y-70340000D01*
X51952101Y-70524126D01*
X51955437Y-70564375D01*
X52010702Y-70782612D01*
X52010703Y-70782613D01*
X52010704Y-70782616D01*
X52045988Y-70863056D01*
X52101141Y-70988793D01*
X52224275Y-71177265D01*
X52224279Y-71177270D01*
X52376762Y-71342908D01*
X52431331Y-71385381D01*
X52554424Y-71481189D01*
X52587680Y-71499186D01*
X52638071Y-71549200D01*
X52653423Y-71618516D01*
X52628862Y-71685129D01*
X52587680Y-71720813D01*
X52554426Y-71738810D01*
X52554424Y-71738811D01*
X52376762Y-71877091D01*
X52224279Y-72042729D01*
X52224275Y-72042734D01*
X52101141Y-72231206D01*
X52010703Y-72437386D01*
X52010702Y-72437387D01*
X51955437Y-72655624D01*
X51936844Y-72880000D01*
X51955437Y-73104375D01*
X52010702Y-73322612D01*
X52010703Y-73322613D01*
X52101141Y-73528793D01*
X52224275Y-73717265D01*
X52224279Y-73717270D01*
X52376762Y-73882908D01*
X52431331Y-73925381D01*
X52554424Y-74021189D01*
X52588205Y-74039470D01*
X52638596Y-74089482D01*
X52653949Y-74158799D01*
X52629389Y-74225412D01*
X52588209Y-74261096D01*
X52554704Y-74279228D01*
X52554698Y-74279232D01*
X52377097Y-74417465D01*
X52224674Y-74583041D01*
X52101580Y-74771451D01*
X52011179Y-74977543D01*
X52011176Y-74977550D01*
X51963455Y-75165999D01*
X51963456Y-75166000D01*
X52869297Y-75166000D01*
X52834075Y-75227007D01*
X52800000Y-75354174D01*
X52800000Y-75485826D01*
X52834075Y-75612993D01*
X52869297Y-75674000D01*
X51963455Y-75674000D01*
X52011176Y-75862449D01*
X52011179Y-75862456D01*
X52101580Y-76068548D01*
X52224674Y-76256958D01*
X52377097Y-76422534D01*
X52554698Y-76560767D01*
X52554704Y-76560771D01*
X52588207Y-76578902D01*
X52638597Y-76628915D01*
X52653949Y-76698232D01*
X52629388Y-76764845D01*
X52588207Y-76800528D01*
X52554430Y-76818807D01*
X52554424Y-76818811D01*
X52376762Y-76957091D01*
X52224279Y-77122729D01*
X52224275Y-77122734D01*
X52101141Y-77311206D01*
X52010703Y-77517386D01*
X52010702Y-77517387D01*
X51955437Y-77735624D01*
X51955436Y-77735630D01*
X51955436Y-77735632D01*
X51936844Y-77960000D01*
X51948107Y-78095927D01*
X51955437Y-78184375D01*
X52010702Y-78402612D01*
X52010703Y-78402613D01*
X52101141Y-78608793D01*
X52224275Y-78797265D01*
X52224279Y-78797270D01*
X52376762Y-78962908D01*
X52386402Y-78970411D01*
X52554424Y-79101189D01*
X52587680Y-79119186D01*
X52638071Y-79169200D01*
X52653423Y-79238516D01*
X52628862Y-79305129D01*
X52587680Y-79340813D01*
X52554426Y-79358810D01*
X52554424Y-79358811D01*
X52376762Y-79497091D01*
X52224279Y-79662729D01*
X52224275Y-79662734D01*
X52101141Y-79851206D01*
X52010703Y-80057386D01*
X52010702Y-80057387D01*
X51955437Y-80275624D01*
X51936844Y-80500000D01*
X51955437Y-80724375D01*
X52010702Y-80942612D01*
X52010703Y-80942613D01*
X52010704Y-80942616D01*
X52051290Y-81035143D01*
X52101141Y-81148793D01*
X52224275Y-81337265D01*
X52224279Y-81337270D01*
X52376762Y-81502908D01*
X52431331Y-81545381D01*
X52554424Y-81641189D01*
X52587680Y-81659186D01*
X52638071Y-81709200D01*
X52653423Y-81778516D01*
X52628862Y-81845129D01*
X52587680Y-81880813D01*
X52554426Y-81898810D01*
X52554424Y-81898811D01*
X52376762Y-82037091D01*
X52224279Y-82202729D01*
X52224275Y-82202734D01*
X52101141Y-82391206D01*
X52010703Y-82597386D01*
X52010702Y-82597387D01*
X51955437Y-82815624D01*
X51955436Y-82815630D01*
X51955436Y-82815632D01*
X51936844Y-83040000D01*
X51942528Y-83108600D01*
X51955437Y-83264375D01*
X52010702Y-83482612D01*
X52010703Y-83482613D01*
X52101141Y-83688793D01*
X52224275Y-83877265D01*
X52224279Y-83877270D01*
X52376762Y-84042908D01*
X52431331Y-84085381D01*
X52554424Y-84181189D01*
X52587680Y-84199186D01*
X52638071Y-84249200D01*
X52653423Y-84318516D01*
X52628862Y-84385129D01*
X52587680Y-84420814D01*
X52554426Y-84438810D01*
X52554424Y-84438811D01*
X52376762Y-84577091D01*
X52224279Y-84742729D01*
X52224275Y-84742734D01*
X52101141Y-84931206D01*
X52010703Y-85137386D01*
X52010702Y-85137387D01*
X51955437Y-85355624D01*
X51936844Y-85580000D01*
X51955436Y-85804369D01*
X51976038Y-85885724D01*
X51973370Y-85956671D01*
X51942993Y-86005745D01*
X51938514Y-86010223D01*
X51938509Y-86010230D01*
X51906790Y-86057703D01*
X51906789Y-86057704D01*
X51866445Y-86118082D01*
X51816807Y-86237919D01*
X51816806Y-86237922D01*
X51791500Y-86365139D01*
X51525500Y-86365139D01*
X51525500Y-36651500D01*
X51545502Y-36583379D01*
X51599158Y-36536886D01*
X51651500Y-36525500D01*
X71348500Y-36525500D01*
X71416621Y-36545502D01*
G37*
G04 #@! TD.AperFunction*
M02*
