G04 #@! TF.GenerationSoftware,KiCad,Pcbnew,6.0.10+dfsg-1~bpo11+1*
G04 #@! TF.CreationDate,2023-02-18T13:34:55+00:00*
G04 #@! TF.ProjectId,RP2040-VCO,52503230-3430-42d5-9643-4f2e6b696361,rev?*
G04 #@! TF.SameCoordinates,Original*
G04 #@! TF.FileFunction,Soldermask,Top*
G04 #@! TF.FilePolarity,Negative*
%FSLAX46Y46*%
G04 Gerber Fmt 4.6, Leading zero omitted, Abs format (unit mm)*
G04 Created by KiCad (PCBNEW 6.0.10+dfsg-1~bpo11+1) date 2023-02-18 13:34:55*
%MOMM*%
%LPD*%
G01*
G04 APERTURE LIST*
%ADD10R,0.900000X1.200000*%
%ADD11C,1.700000*%
%ADD12R,1.700000X1.700000*%
%ADD13R,0.600000X1.200000*%
%ADD14O,1.700000X1.700000*%
G04 APERTURE END LIST*
G36*
G01*
X41450000Y-96647500D02*
X40350000Y-96647500D01*
G75*
G02*
X40100000Y-96397500I0J250000D01*
G01*
X40100000Y-94297500D01*
G75*
G02*
X40350000Y-94047500I250000J0D01*
G01*
X41450000Y-94047500D01*
G75*
G02*
X41700000Y-94297500I0J-250000D01*
G01*
X41700000Y-96397500D01*
G75*
G02*
X41450000Y-96647500I-250000J0D01*
G01*
G37*
G36*
G01*
X41450000Y-93047500D02*
X40350000Y-93047500D01*
G75*
G02*
X40100000Y-92797500I0J250000D01*
G01*
X40100000Y-90697500D01*
G75*
G02*
X40350000Y-90447500I250000J0D01*
G01*
X41450000Y-90447500D01*
G75*
G02*
X41700000Y-90697500I0J-250000D01*
G01*
X41700000Y-92797500D01*
G75*
G02*
X41450000Y-93047500I-250000J0D01*
G01*
G37*
G36*
G01*
X56430000Y-90447500D02*
X57530000Y-90447500D01*
G75*
G02*
X57780000Y-90697500I0J-250000D01*
G01*
X57780000Y-92797500D01*
G75*
G02*
X57530000Y-93047500I-250000J0D01*
G01*
X56430000Y-93047500D01*
G75*
G02*
X56180000Y-92797500I0J250000D01*
G01*
X56180000Y-90697500D01*
G75*
G02*
X56430000Y-90447500I250000J0D01*
G01*
G37*
G36*
G01*
X56430000Y-94047500D02*
X57530000Y-94047500D01*
G75*
G02*
X57780000Y-94297500I0J-250000D01*
G01*
X57780000Y-96397500D01*
G75*
G02*
X57530000Y-96647500I-250000J0D01*
G01*
X56430000Y-96647500D01*
G75*
G02*
X56180000Y-96397500I0J250000D01*
G01*
X56180000Y-94297500D01*
G75*
G02*
X56430000Y-94047500I250000J0D01*
G01*
G37*
G36*
G01*
X48102500Y-84800000D02*
X47202500Y-84800000D01*
G75*
G02*
X46952500Y-84550000I0J250000D01*
G01*
X46952500Y-83850000D01*
G75*
G02*
X47202500Y-83600000I250000J0D01*
G01*
X48102500Y-83600000D01*
G75*
G02*
X48352500Y-83850000I0J-250000D01*
G01*
X48352500Y-84550000D01*
G75*
G02*
X48102500Y-84800000I-250000J0D01*
G01*
G37*
G36*
G01*
X48102500Y-82800000D02*
X47202500Y-82800000D01*
G75*
G02*
X46952500Y-82550000I0J250000D01*
G01*
X46952500Y-81850000D01*
G75*
G02*
X47202500Y-81600000I250000J0D01*
G01*
X48102500Y-81600000D01*
G75*
G02*
X48352500Y-81850000I0J-250000D01*
G01*
X48352500Y-82550000D01*
G75*
G02*
X48102500Y-82800000I-250000J0D01*
G01*
G37*
G36*
G01*
X56852500Y-52150000D02*
X56852500Y-51250000D01*
G75*
G02*
X57102500Y-51000000I250000J0D01*
G01*
X57802500Y-51000000D01*
G75*
G02*
X58052500Y-51250000I0J-250000D01*
G01*
X58052500Y-52150000D01*
G75*
G02*
X57802500Y-52400000I-250000J0D01*
G01*
X57102500Y-52400000D01*
G75*
G02*
X56852500Y-52150000I0J250000D01*
G01*
G37*
G36*
G01*
X58852500Y-52150000D02*
X58852500Y-51250000D01*
G75*
G02*
X59102500Y-51000000I250000J0D01*
G01*
X59802500Y-51000000D01*
G75*
G02*
X60052500Y-51250000I0J-250000D01*
G01*
X60052500Y-52150000D01*
G75*
G02*
X59802500Y-52400000I-250000J0D01*
G01*
X59102500Y-52400000D01*
G75*
G02*
X58852500Y-52150000I0J250000D01*
G01*
G37*
G36*
G01*
X46102500Y-84800000D02*
X45202500Y-84800000D01*
G75*
G02*
X44952500Y-84550000I0J250000D01*
G01*
X44952500Y-83850000D01*
G75*
G02*
X45202500Y-83600000I250000J0D01*
G01*
X46102500Y-83600000D01*
G75*
G02*
X46352500Y-83850000I0J-250000D01*
G01*
X46352500Y-84550000D01*
G75*
G02*
X46102500Y-84800000I-250000J0D01*
G01*
G37*
G36*
G01*
X46102500Y-82800000D02*
X45202500Y-82800000D01*
G75*
G02*
X44952500Y-82550000I0J250000D01*
G01*
X44952500Y-81850000D01*
G75*
G02*
X45202500Y-81600000I250000J0D01*
G01*
X46102500Y-81600000D01*
G75*
G02*
X46352500Y-81850000I0J-250000D01*
G01*
X46352500Y-82550000D01*
G75*
G02*
X46102500Y-82800000I-250000J0D01*
G01*
G37*
G36*
G01*
X56852500Y-58450000D02*
X56852500Y-57550000D01*
G75*
G02*
X57102500Y-57300000I250000J0D01*
G01*
X57802500Y-57300000D01*
G75*
G02*
X58052500Y-57550000I0J-250000D01*
G01*
X58052500Y-58450000D01*
G75*
G02*
X57802500Y-58700000I-250000J0D01*
G01*
X57102500Y-58700000D01*
G75*
G02*
X56852500Y-58450000I0J250000D01*
G01*
G37*
G36*
G01*
X58852500Y-58450000D02*
X58852500Y-57550000D01*
G75*
G02*
X59102500Y-57300000I250000J0D01*
G01*
X59802500Y-57300000D01*
G75*
G02*
X60052500Y-57550000I0J-250000D01*
G01*
X60052500Y-58450000D01*
G75*
G02*
X59802500Y-58700000I-250000J0D01*
G01*
X59102500Y-58700000D01*
G75*
G02*
X58852500Y-58450000I0J250000D01*
G01*
G37*
G36*
G01*
X60827500Y-84825000D02*
X59877500Y-84825000D01*
G75*
G02*
X59627500Y-84575000I0J250000D01*
G01*
X59627500Y-83900000D01*
G75*
G02*
X59877500Y-83650000I250000J0D01*
G01*
X60827500Y-83650000D01*
G75*
G02*
X61077500Y-83900000I0J-250000D01*
G01*
X61077500Y-84575000D01*
G75*
G02*
X60827500Y-84825000I-250000J0D01*
G01*
G37*
G36*
G01*
X60827500Y-82750000D02*
X59877500Y-82750000D01*
G75*
G02*
X59627500Y-82500000I0J250000D01*
G01*
X59627500Y-81825000D01*
G75*
G02*
X59877500Y-81575000I250000J0D01*
G01*
X60827500Y-81575000D01*
G75*
G02*
X61077500Y-81825000I0J-250000D01*
G01*
X61077500Y-82500000D01*
G75*
G02*
X60827500Y-82750000I-250000J0D01*
G01*
G37*
D10*
X56402500Y-66800000D03*
X59702500Y-66800000D03*
G36*
G01*
X47275000Y-94975000D02*
X47275000Y-94025000D01*
G75*
G02*
X47525000Y-93775000I250000J0D01*
G01*
X48200000Y-93775000D01*
G75*
G02*
X48450000Y-94025000I0J-250000D01*
G01*
X48450000Y-94975000D01*
G75*
G02*
X48200000Y-95225000I-250000J0D01*
G01*
X47525000Y-95225000D01*
G75*
G02*
X47275000Y-94975000I0J250000D01*
G01*
G37*
G36*
G01*
X49350000Y-94975000D02*
X49350000Y-94025000D01*
G75*
G02*
X49600000Y-93775000I250000J0D01*
G01*
X50275000Y-93775000D01*
G75*
G02*
X50525000Y-94025000I0J-250000D01*
G01*
X50525000Y-94975000D01*
G75*
G02*
X50275000Y-95225000I-250000J0D01*
G01*
X49600000Y-95225000D01*
G75*
G02*
X49350000Y-94975000I0J250000D01*
G01*
G37*
G36*
G01*
X57377500Y-73175000D02*
X58327500Y-73175000D01*
G75*
G02*
X58577500Y-73425000I0J-250000D01*
G01*
X58577500Y-74100000D01*
G75*
G02*
X58327500Y-74350000I-250000J0D01*
G01*
X57377500Y-74350000D01*
G75*
G02*
X57127500Y-74100000I0J250000D01*
G01*
X57127500Y-73425000D01*
G75*
G02*
X57377500Y-73175000I250000J0D01*
G01*
G37*
G36*
G01*
X57377500Y-75250000D02*
X58327500Y-75250000D01*
G75*
G02*
X58577500Y-75500000I0J-250000D01*
G01*
X58577500Y-76175000D01*
G75*
G02*
X58327500Y-76425000I-250000J0D01*
G01*
X57377500Y-76425000D01*
G75*
G02*
X57127500Y-76175000I0J250000D01*
G01*
X57127500Y-75500000D01*
G75*
G02*
X57377500Y-75250000I250000J0D01*
G01*
G37*
G36*
G01*
X43177500Y-81575000D02*
X44127500Y-81575000D01*
G75*
G02*
X44377500Y-81825000I0J-250000D01*
G01*
X44377500Y-82500000D01*
G75*
G02*
X44127500Y-82750000I-250000J0D01*
G01*
X43177500Y-82750000D01*
G75*
G02*
X42927500Y-82500000I0J250000D01*
G01*
X42927500Y-81825000D01*
G75*
G02*
X43177500Y-81575000I250000J0D01*
G01*
G37*
G36*
G01*
X43177500Y-83650000D02*
X44127500Y-83650000D01*
G75*
G02*
X44377500Y-83900000I0J-250000D01*
G01*
X44377500Y-84575000D01*
G75*
G02*
X44127500Y-84825000I-250000J0D01*
G01*
X43177500Y-84825000D01*
G75*
G02*
X42927500Y-84575000I0J250000D01*
G01*
X42927500Y-83900000D01*
G75*
G02*
X43177500Y-83650000I250000J0D01*
G01*
G37*
X45650000Y-68100000D03*
X42350000Y-68100000D03*
G36*
G01*
X37975000Y-68275000D02*
X37975000Y-67325000D01*
G75*
G02*
X38225000Y-67075000I250000J0D01*
G01*
X38900000Y-67075000D01*
G75*
G02*
X39150000Y-67325000I0J-250000D01*
G01*
X39150000Y-68275000D01*
G75*
G02*
X38900000Y-68525000I-250000J0D01*
G01*
X38225000Y-68525000D01*
G75*
G02*
X37975000Y-68275000I0J250000D01*
G01*
G37*
G36*
G01*
X40050000Y-68275000D02*
X40050000Y-67325000D01*
G75*
G02*
X40300000Y-67075000I250000J0D01*
G01*
X40975000Y-67075000D01*
G75*
G02*
X41225000Y-67325000I0J-250000D01*
G01*
X41225000Y-68275000D01*
G75*
G02*
X40975000Y-68525000I-250000J0D01*
G01*
X40300000Y-68525000D01*
G75*
G02*
X40050000Y-68275000I0J250000D01*
G01*
G37*
G36*
G01*
X60052500Y-61550000D02*
X60052500Y-62450000D01*
G75*
G02*
X59802500Y-62700000I-250000J0D01*
G01*
X59102500Y-62700000D01*
G75*
G02*
X58852500Y-62450000I0J250000D01*
G01*
X58852500Y-61550000D01*
G75*
G02*
X59102500Y-61300000I250000J0D01*
G01*
X59802500Y-61300000D01*
G75*
G02*
X60052500Y-61550000I0J-250000D01*
G01*
G37*
G36*
G01*
X58052500Y-61550000D02*
X58052500Y-62450000D01*
G75*
G02*
X57802500Y-62700000I-250000J0D01*
G01*
X57102500Y-62700000D01*
G75*
G02*
X56852500Y-62450000I0J250000D01*
G01*
X56852500Y-61550000D01*
G75*
G02*
X57102500Y-61300000I250000J0D01*
G01*
X57802500Y-61300000D01*
G75*
G02*
X58052500Y-61550000I0J-250000D01*
G01*
G37*
G36*
G01*
X38000000Y-74550000D02*
X38000000Y-73650000D01*
G75*
G02*
X38250000Y-73400000I250000J0D01*
G01*
X38950000Y-73400000D01*
G75*
G02*
X39200000Y-73650000I0J-250000D01*
G01*
X39200000Y-74550000D01*
G75*
G02*
X38950000Y-74800000I-250000J0D01*
G01*
X38250000Y-74800000D01*
G75*
G02*
X38000000Y-74550000I0J250000D01*
G01*
G37*
G36*
G01*
X40000000Y-74550000D02*
X40000000Y-73650000D01*
G75*
G02*
X40250000Y-73400000I250000J0D01*
G01*
X40950000Y-73400000D01*
G75*
G02*
X41200000Y-73650000I0J-250000D01*
G01*
X41200000Y-74550000D01*
G75*
G02*
X40950000Y-74800000I-250000J0D01*
G01*
X40250000Y-74800000D01*
G75*
G02*
X40000000Y-74550000I0J250000D01*
G01*
G37*
G36*
G01*
X49302500Y-52240000D02*
X49302500Y-51940000D01*
G75*
G02*
X49452500Y-51790000I150000J0D01*
G01*
X51102500Y-51790000D01*
G75*
G02*
X51252500Y-51940000I0J-150000D01*
G01*
X51252500Y-52240000D01*
G75*
G02*
X51102500Y-52390000I-150000J0D01*
G01*
X49452500Y-52390000D01*
G75*
G02*
X49302500Y-52240000I0J150000D01*
G01*
G37*
G36*
G01*
X49302500Y-53510000D02*
X49302500Y-53210000D01*
G75*
G02*
X49452500Y-53060000I150000J0D01*
G01*
X51102500Y-53060000D01*
G75*
G02*
X51252500Y-53210000I0J-150000D01*
G01*
X51252500Y-53510000D01*
G75*
G02*
X51102500Y-53660000I-150000J0D01*
G01*
X49452500Y-53660000D01*
G75*
G02*
X49302500Y-53510000I0J150000D01*
G01*
G37*
G36*
G01*
X49302500Y-54780000D02*
X49302500Y-54480000D01*
G75*
G02*
X49452500Y-54330000I150000J0D01*
G01*
X51102500Y-54330000D01*
G75*
G02*
X51252500Y-54480000I0J-150000D01*
G01*
X51252500Y-54780000D01*
G75*
G02*
X51102500Y-54930000I-150000J0D01*
G01*
X49452500Y-54930000D01*
G75*
G02*
X49302500Y-54780000I0J150000D01*
G01*
G37*
G36*
G01*
X49302500Y-56050000D02*
X49302500Y-55750000D01*
G75*
G02*
X49452500Y-55600000I150000J0D01*
G01*
X51102500Y-55600000D01*
G75*
G02*
X51252500Y-55750000I0J-150000D01*
G01*
X51252500Y-56050000D01*
G75*
G02*
X51102500Y-56200000I-150000J0D01*
G01*
X49452500Y-56200000D01*
G75*
G02*
X49302500Y-56050000I0J150000D01*
G01*
G37*
G36*
G01*
X49302500Y-57320000D02*
X49302500Y-57020000D01*
G75*
G02*
X49452500Y-56870000I150000J0D01*
G01*
X51102500Y-56870000D01*
G75*
G02*
X51252500Y-57020000I0J-150000D01*
G01*
X51252500Y-57320000D01*
G75*
G02*
X51102500Y-57470000I-150000J0D01*
G01*
X49452500Y-57470000D01*
G75*
G02*
X49302500Y-57320000I0J150000D01*
G01*
G37*
G36*
G01*
X49302500Y-58590000D02*
X49302500Y-58290000D01*
G75*
G02*
X49452500Y-58140000I150000J0D01*
G01*
X51102500Y-58140000D01*
G75*
G02*
X51252500Y-58290000I0J-150000D01*
G01*
X51252500Y-58590000D01*
G75*
G02*
X51102500Y-58740000I-150000J0D01*
G01*
X49452500Y-58740000D01*
G75*
G02*
X49302500Y-58590000I0J150000D01*
G01*
G37*
G36*
G01*
X49302500Y-59860000D02*
X49302500Y-59560000D01*
G75*
G02*
X49452500Y-59410000I150000J0D01*
G01*
X51102500Y-59410000D01*
G75*
G02*
X51252500Y-59560000I0J-150000D01*
G01*
X51252500Y-59860000D01*
G75*
G02*
X51102500Y-60010000I-150000J0D01*
G01*
X49452500Y-60010000D01*
G75*
G02*
X49302500Y-59860000I0J150000D01*
G01*
G37*
G36*
G01*
X54252500Y-59860000D02*
X54252500Y-59560000D01*
G75*
G02*
X54402500Y-59410000I150000J0D01*
G01*
X56052500Y-59410000D01*
G75*
G02*
X56202500Y-59560000I0J-150000D01*
G01*
X56202500Y-59860000D01*
G75*
G02*
X56052500Y-60010000I-150000J0D01*
G01*
X54402500Y-60010000D01*
G75*
G02*
X54252500Y-59860000I0J150000D01*
G01*
G37*
G36*
G01*
X54252500Y-58590000D02*
X54252500Y-58290000D01*
G75*
G02*
X54402500Y-58140000I150000J0D01*
G01*
X56052500Y-58140000D01*
G75*
G02*
X56202500Y-58290000I0J-150000D01*
G01*
X56202500Y-58590000D01*
G75*
G02*
X56052500Y-58740000I-150000J0D01*
G01*
X54402500Y-58740000D01*
G75*
G02*
X54252500Y-58590000I0J150000D01*
G01*
G37*
G36*
G01*
X54252500Y-57320000D02*
X54252500Y-57020000D01*
G75*
G02*
X54402500Y-56870000I150000J0D01*
G01*
X56052500Y-56870000D01*
G75*
G02*
X56202500Y-57020000I0J-150000D01*
G01*
X56202500Y-57320000D01*
G75*
G02*
X56052500Y-57470000I-150000J0D01*
G01*
X54402500Y-57470000D01*
G75*
G02*
X54252500Y-57320000I0J150000D01*
G01*
G37*
G36*
G01*
X54252500Y-56050000D02*
X54252500Y-55750000D01*
G75*
G02*
X54402500Y-55600000I150000J0D01*
G01*
X56052500Y-55600000D01*
G75*
G02*
X56202500Y-55750000I0J-150000D01*
G01*
X56202500Y-56050000D01*
G75*
G02*
X56052500Y-56200000I-150000J0D01*
G01*
X54402500Y-56200000D01*
G75*
G02*
X54252500Y-56050000I0J150000D01*
G01*
G37*
G36*
G01*
X54252500Y-54780000D02*
X54252500Y-54480000D01*
G75*
G02*
X54402500Y-54330000I150000J0D01*
G01*
X56052500Y-54330000D01*
G75*
G02*
X56202500Y-54480000I0J-150000D01*
G01*
X56202500Y-54780000D01*
G75*
G02*
X56052500Y-54930000I-150000J0D01*
G01*
X54402500Y-54930000D01*
G75*
G02*
X54252500Y-54780000I0J150000D01*
G01*
G37*
G36*
G01*
X54252500Y-53510000D02*
X54252500Y-53210000D01*
G75*
G02*
X54402500Y-53060000I150000J0D01*
G01*
X56052500Y-53060000D01*
G75*
G02*
X56202500Y-53210000I0J-150000D01*
G01*
X56202500Y-53510000D01*
G75*
G02*
X56052500Y-53660000I-150000J0D01*
G01*
X54402500Y-53660000D01*
G75*
G02*
X54252500Y-53510000I0J150000D01*
G01*
G37*
G36*
G01*
X54252500Y-52240000D02*
X54252500Y-51940000D01*
G75*
G02*
X54402500Y-51790000I150000J0D01*
G01*
X56052500Y-51790000D01*
G75*
G02*
X56202500Y-51940000I0J-150000D01*
G01*
X56202500Y-52240000D01*
G75*
G02*
X56052500Y-52390000I-150000J0D01*
G01*
X54402500Y-52390000D01*
G75*
G02*
X54252500Y-52240000I0J150000D01*
G01*
G37*
G36*
G01*
X49177500Y-81575000D02*
X50127500Y-81575000D01*
G75*
G02*
X50377500Y-81825000I0J-250000D01*
G01*
X50377500Y-82500000D01*
G75*
G02*
X50127500Y-82750000I-250000J0D01*
G01*
X49177500Y-82750000D01*
G75*
G02*
X48927500Y-82500000I0J250000D01*
G01*
X48927500Y-81825000D01*
G75*
G02*
X49177500Y-81575000I250000J0D01*
G01*
G37*
G36*
G01*
X49177500Y-83650000D02*
X50127500Y-83650000D01*
G75*
G02*
X50377500Y-83900000I0J-250000D01*
G01*
X50377500Y-84575000D01*
G75*
G02*
X50127500Y-84825000I-250000J0D01*
G01*
X49177500Y-84825000D01*
G75*
G02*
X48927500Y-84575000I0J250000D01*
G01*
X48927500Y-83900000D01*
G75*
G02*
X49177500Y-83650000I250000J0D01*
G01*
G37*
G36*
G01*
X53380000Y-99897500D02*
X54580000Y-99897500D01*
G75*
G02*
X54830000Y-100147500I0J-250000D01*
G01*
X54830000Y-101347500D01*
G75*
G02*
X54580000Y-101597500I-250000J0D01*
G01*
X53380000Y-101597500D01*
G75*
G02*
X53130000Y-101347500I0J250000D01*
G01*
X53130000Y-100147500D01*
G75*
G02*
X53380000Y-99897500I250000J0D01*
G01*
G37*
D11*
X53980000Y-103287500D03*
X51440000Y-100747500D03*
X51440000Y-103287500D03*
X48900000Y-100747500D03*
X48900000Y-103287500D03*
X46360000Y-100747500D03*
X46360000Y-103287500D03*
X43820000Y-100747500D03*
X43820000Y-103287500D03*
G36*
G01*
X45625000Y-89475000D02*
X46575000Y-89475000D01*
G75*
G02*
X46825000Y-89725000I0J-250000D01*
G01*
X46825000Y-90400000D01*
G75*
G02*
X46575000Y-90650000I-250000J0D01*
G01*
X45625000Y-90650000D01*
G75*
G02*
X45375000Y-90400000I0J250000D01*
G01*
X45375000Y-89725000D01*
G75*
G02*
X45625000Y-89475000I250000J0D01*
G01*
G37*
G36*
G01*
X45625000Y-91550000D02*
X46575000Y-91550000D01*
G75*
G02*
X46825000Y-91800000I0J-250000D01*
G01*
X46825000Y-92475000D01*
G75*
G02*
X46575000Y-92725000I-250000J0D01*
G01*
X45625000Y-92725000D01*
G75*
G02*
X45375000Y-92475000I0J250000D01*
G01*
X45375000Y-91800000D01*
G75*
G02*
X45625000Y-91550000I250000J0D01*
G01*
G37*
G36*
G01*
X38000000Y-72550000D02*
X38000000Y-71650000D01*
G75*
G02*
X38250000Y-71400000I250000J0D01*
G01*
X38950000Y-71400000D01*
G75*
G02*
X39200000Y-71650000I0J-250000D01*
G01*
X39200000Y-72550000D01*
G75*
G02*
X38950000Y-72800000I-250000J0D01*
G01*
X38250000Y-72800000D01*
G75*
G02*
X38000000Y-72550000I0J250000D01*
G01*
G37*
G36*
G01*
X40000000Y-72550000D02*
X40000000Y-71650000D01*
G75*
G02*
X40250000Y-71400000I250000J0D01*
G01*
X40950000Y-71400000D01*
G75*
G02*
X41200000Y-71650000I0J-250000D01*
G01*
X41200000Y-72550000D01*
G75*
G02*
X40950000Y-72800000I-250000J0D01*
G01*
X40250000Y-72800000D01*
G75*
G02*
X40000000Y-72550000I0J250000D01*
G01*
G37*
G36*
G01*
X45452500Y-54150000D02*
X45452500Y-53250000D01*
G75*
G02*
X45702500Y-53000000I250000J0D01*
G01*
X46402500Y-53000000D01*
G75*
G02*
X46652500Y-53250000I0J-250000D01*
G01*
X46652500Y-54150000D01*
G75*
G02*
X46402500Y-54400000I-250000J0D01*
G01*
X45702500Y-54400000D01*
G75*
G02*
X45452500Y-54150000I0J250000D01*
G01*
G37*
G36*
G01*
X47452500Y-54150000D02*
X47452500Y-53250000D01*
G75*
G02*
X47702500Y-53000000I250000J0D01*
G01*
X48402500Y-53000000D01*
G75*
G02*
X48652500Y-53250000I0J-250000D01*
G01*
X48652500Y-54150000D01*
G75*
G02*
X48402500Y-54400000I-250000J0D01*
G01*
X47702500Y-54400000D01*
G75*
G02*
X47452500Y-54150000I0J250000D01*
G01*
G37*
G36*
G01*
X56852500Y-60450000D02*
X56852500Y-59550000D01*
G75*
G02*
X57102500Y-59300000I250000J0D01*
G01*
X57802500Y-59300000D01*
G75*
G02*
X58052500Y-59550000I0J-250000D01*
G01*
X58052500Y-60450000D01*
G75*
G02*
X57802500Y-60700000I-250000J0D01*
G01*
X57102500Y-60700000D01*
G75*
G02*
X56852500Y-60450000I0J250000D01*
G01*
G37*
G36*
G01*
X58852500Y-60450000D02*
X58852500Y-59550000D01*
G75*
G02*
X59102500Y-59300000I250000J0D01*
G01*
X59802500Y-59300000D01*
G75*
G02*
X60052500Y-59550000I0J-250000D01*
G01*
X60052500Y-60450000D01*
G75*
G02*
X59802500Y-60700000I-250000J0D01*
G01*
X59102500Y-60700000D01*
G75*
G02*
X58852500Y-60450000I0J250000D01*
G01*
G37*
G36*
G01*
X60077500Y-55425000D02*
X60077500Y-56375000D01*
G75*
G02*
X59827500Y-56625000I-250000J0D01*
G01*
X59152500Y-56625000D01*
G75*
G02*
X58902500Y-56375000I0J250000D01*
G01*
X58902500Y-55425000D01*
G75*
G02*
X59152500Y-55175000I250000J0D01*
G01*
X59827500Y-55175000D01*
G75*
G02*
X60077500Y-55425000I0J-250000D01*
G01*
G37*
G36*
G01*
X58002500Y-55425000D02*
X58002500Y-56375000D01*
G75*
G02*
X57752500Y-56625000I-250000J0D01*
G01*
X57077500Y-56625000D01*
G75*
G02*
X56827500Y-56375000I0J250000D01*
G01*
X56827500Y-55425000D01*
G75*
G02*
X57077500Y-55175000I250000J0D01*
G01*
X57752500Y-55175000D01*
G75*
G02*
X58002500Y-55425000I0J-250000D01*
G01*
G37*
G36*
G01*
X54877500Y-73175000D02*
X55827500Y-73175000D01*
G75*
G02*
X56077500Y-73425000I0J-250000D01*
G01*
X56077500Y-74100000D01*
G75*
G02*
X55827500Y-74350000I-250000J0D01*
G01*
X54877500Y-74350000D01*
G75*
G02*
X54627500Y-74100000I0J250000D01*
G01*
X54627500Y-73425000D01*
G75*
G02*
X54877500Y-73175000I250000J0D01*
G01*
G37*
G36*
G01*
X54877500Y-75250000D02*
X55827500Y-75250000D01*
G75*
G02*
X56077500Y-75500000I0J-250000D01*
G01*
X56077500Y-76175000D01*
G75*
G02*
X55827500Y-76425000I-250000J0D01*
G01*
X54877500Y-76425000D01*
G75*
G02*
X54627500Y-76175000I0J250000D01*
G01*
X54627500Y-75500000D01*
G75*
G02*
X54877500Y-75250000I250000J0D01*
G01*
G37*
G36*
G01*
X38352500Y-57550000D02*
X38352500Y-56650000D01*
G75*
G02*
X38602500Y-56400000I250000J0D01*
G01*
X39302500Y-56400000D01*
G75*
G02*
X39552500Y-56650000I0J-250000D01*
G01*
X39552500Y-57550000D01*
G75*
G02*
X39302500Y-57800000I-250000J0D01*
G01*
X38602500Y-57800000D01*
G75*
G02*
X38352500Y-57550000I0J250000D01*
G01*
G37*
G36*
G01*
X40352500Y-57550000D02*
X40352500Y-56650000D01*
G75*
G02*
X40602500Y-56400000I250000J0D01*
G01*
X41302500Y-56400000D01*
G75*
G02*
X41552500Y-56650000I0J-250000D01*
G01*
X41552500Y-57550000D01*
G75*
G02*
X41302500Y-57800000I-250000J0D01*
G01*
X40602500Y-57800000D01*
G75*
G02*
X40352500Y-57550000I0J250000D01*
G01*
G37*
D10*
X56402500Y-64400000D03*
X59702500Y-64400000D03*
G36*
G01*
X49352500Y-62050000D02*
X49352500Y-61150000D01*
G75*
G02*
X49602500Y-60900000I250000J0D01*
G01*
X50302500Y-60900000D01*
G75*
G02*
X50552500Y-61150000I0J-250000D01*
G01*
X50552500Y-62050000D01*
G75*
G02*
X50302500Y-62300000I-250000J0D01*
G01*
X49602500Y-62300000D01*
G75*
G02*
X49352500Y-62050000I0J250000D01*
G01*
G37*
G36*
G01*
X51352500Y-62050000D02*
X51352500Y-61150000D01*
G75*
G02*
X51602500Y-60900000I250000J0D01*
G01*
X52302500Y-60900000D01*
G75*
G02*
X52552500Y-61150000I0J-250000D01*
G01*
X52552500Y-62050000D01*
G75*
G02*
X52302500Y-62300000I-250000J0D01*
G01*
X51602500Y-62300000D01*
G75*
G02*
X51352500Y-62050000I0J250000D01*
G01*
G37*
G36*
G01*
X45452500Y-52150000D02*
X45452500Y-51250000D01*
G75*
G02*
X45702500Y-51000000I250000J0D01*
G01*
X46402500Y-51000000D01*
G75*
G02*
X46652500Y-51250000I0J-250000D01*
G01*
X46652500Y-52150000D01*
G75*
G02*
X46402500Y-52400000I-250000J0D01*
G01*
X45702500Y-52400000D01*
G75*
G02*
X45452500Y-52150000I0J250000D01*
G01*
G37*
G36*
G01*
X47452500Y-52150000D02*
X47452500Y-51250000D01*
G75*
G02*
X47702500Y-51000000I250000J0D01*
G01*
X48402500Y-51000000D01*
G75*
G02*
X48652500Y-51250000I0J-250000D01*
G01*
X48652500Y-52150000D01*
G75*
G02*
X48402500Y-52400000I-250000J0D01*
G01*
X47702500Y-52400000D01*
G75*
G02*
X47452500Y-52150000I0J250000D01*
G01*
G37*
D12*
X60401000Y-71380000D03*
D11*
X57861000Y-71380000D03*
X55321000Y-71380000D03*
X52781000Y-71380000D03*
X50241000Y-71380000D03*
X47701000Y-71380000D03*
X45161000Y-71380000D03*
X45161000Y-86620000D03*
X47701000Y-86620000D03*
X50241000Y-86620000D03*
X52781000Y-86620000D03*
X55321000Y-86620000D03*
X57861000Y-86620000D03*
X60401000Y-86620000D03*
G36*
G01*
X52277500Y-73175000D02*
X53227500Y-73175000D01*
G75*
G02*
X53477500Y-73425000I0J-250000D01*
G01*
X53477500Y-74100000D01*
G75*
G02*
X53227500Y-74350000I-250000J0D01*
G01*
X52277500Y-74350000D01*
G75*
G02*
X52027500Y-74100000I0J250000D01*
G01*
X52027500Y-73425000D01*
G75*
G02*
X52277500Y-73175000I250000J0D01*
G01*
G37*
G36*
G01*
X52277500Y-75250000D02*
X53227500Y-75250000D01*
G75*
G02*
X53477500Y-75500000I0J-250000D01*
G01*
X53477500Y-76175000D01*
G75*
G02*
X53227500Y-76425000I-250000J0D01*
G01*
X52277500Y-76425000D01*
G75*
G02*
X52027500Y-76175000I0J250000D01*
G01*
X52027500Y-75500000D01*
G75*
G02*
X52277500Y-75250000I250000J0D01*
G01*
G37*
G36*
G01*
X59877500Y-73175000D02*
X60827500Y-73175000D01*
G75*
G02*
X61077500Y-73425000I0J-250000D01*
G01*
X61077500Y-74100000D01*
G75*
G02*
X60827500Y-74350000I-250000J0D01*
G01*
X59877500Y-74350000D01*
G75*
G02*
X59627500Y-74100000I0J250000D01*
G01*
X59627500Y-73425000D01*
G75*
G02*
X59877500Y-73175000I250000J0D01*
G01*
G37*
G36*
G01*
X59877500Y-75250000D02*
X60827500Y-75250000D01*
G75*
G02*
X61077500Y-75500000I0J-250000D01*
G01*
X61077500Y-76175000D01*
G75*
G02*
X60827500Y-76425000I-250000J0D01*
G01*
X59877500Y-76425000D01*
G75*
G02*
X59627500Y-76175000I0J250000D01*
G01*
X59627500Y-75500000D01*
G75*
G02*
X59877500Y-75250000I250000J0D01*
G01*
G37*
D10*
X45650000Y-65700000D03*
X42350000Y-65700000D03*
G36*
G01*
X38352500Y-55050000D02*
X38352500Y-54150000D01*
G75*
G02*
X38602500Y-53900000I250000J0D01*
G01*
X39302500Y-53900000D01*
G75*
G02*
X39552500Y-54150000I0J-250000D01*
G01*
X39552500Y-55050000D01*
G75*
G02*
X39302500Y-55300000I-250000J0D01*
G01*
X38602500Y-55300000D01*
G75*
G02*
X38352500Y-55050000I0J250000D01*
G01*
G37*
G36*
G01*
X40352500Y-55050000D02*
X40352500Y-54150000D01*
G75*
G02*
X40602500Y-53900000I250000J0D01*
G01*
X41302500Y-53900000D01*
G75*
G02*
X41552500Y-54150000I0J-250000D01*
G01*
X41552500Y-55050000D01*
G75*
G02*
X41302500Y-55300000I-250000J0D01*
G01*
X40602500Y-55300000D01*
G75*
G02*
X40352500Y-55050000I0J250000D01*
G01*
G37*
G36*
G01*
X51425000Y-89475000D02*
X52375000Y-89475000D01*
G75*
G02*
X52625000Y-89725000I0J-250000D01*
G01*
X52625000Y-90400000D01*
G75*
G02*
X52375000Y-90650000I-250000J0D01*
G01*
X51425000Y-90650000D01*
G75*
G02*
X51175000Y-90400000I0J250000D01*
G01*
X51175000Y-89725000D01*
G75*
G02*
X51425000Y-89475000I250000J0D01*
G01*
G37*
G36*
G01*
X51425000Y-91550000D02*
X52375000Y-91550000D01*
G75*
G02*
X52625000Y-91800000I0J-250000D01*
G01*
X52625000Y-92475000D01*
G75*
G02*
X52375000Y-92725000I-250000J0D01*
G01*
X51425000Y-92725000D01*
G75*
G02*
X51175000Y-92475000I0J250000D01*
G01*
X51175000Y-91800000D01*
G75*
G02*
X51425000Y-91550000I250000J0D01*
G01*
G37*
G36*
G01*
X48677500Y-55425000D02*
X48677500Y-56375000D01*
G75*
G02*
X48427500Y-56625000I-250000J0D01*
G01*
X47752500Y-56625000D01*
G75*
G02*
X47502500Y-56375000I0J250000D01*
G01*
X47502500Y-55425000D01*
G75*
G02*
X47752500Y-55175000I250000J0D01*
G01*
X48427500Y-55175000D01*
G75*
G02*
X48677500Y-55425000I0J-250000D01*
G01*
G37*
G36*
G01*
X46602500Y-55425000D02*
X46602500Y-56375000D01*
G75*
G02*
X46352500Y-56625000I-250000J0D01*
G01*
X45677500Y-56625000D01*
G75*
G02*
X45427500Y-56375000I0J250000D01*
G01*
X45427500Y-55425000D01*
G75*
G02*
X45677500Y-55175000I250000J0D01*
G01*
X46352500Y-55175000D01*
G75*
G02*
X46602500Y-55425000I0J-250000D01*
G01*
G37*
G36*
G01*
X38352500Y-52550000D02*
X38352500Y-51650000D01*
G75*
G02*
X38602500Y-51400000I250000J0D01*
G01*
X39302500Y-51400000D01*
G75*
G02*
X39552500Y-51650000I0J-250000D01*
G01*
X39552500Y-52550000D01*
G75*
G02*
X39302500Y-52800000I-250000J0D01*
G01*
X38602500Y-52800000D01*
G75*
G02*
X38352500Y-52550000I0J250000D01*
G01*
G37*
G36*
G01*
X40352500Y-52550000D02*
X40352500Y-51650000D01*
G75*
G02*
X40602500Y-51400000I250000J0D01*
G01*
X41302500Y-51400000D01*
G75*
G02*
X41552500Y-51650000I0J-250000D01*
G01*
X41552500Y-52550000D01*
G75*
G02*
X41302500Y-52800000I-250000J0D01*
G01*
X40602500Y-52800000D01*
G75*
G02*
X40352500Y-52550000I0J250000D01*
G01*
G37*
G36*
G01*
X55827500Y-84825000D02*
X54877500Y-84825000D01*
G75*
G02*
X54627500Y-84575000I0J250000D01*
G01*
X54627500Y-83900000D01*
G75*
G02*
X54877500Y-83650000I250000J0D01*
G01*
X55827500Y-83650000D01*
G75*
G02*
X56077500Y-83900000I0J-250000D01*
G01*
X56077500Y-84575000D01*
G75*
G02*
X55827500Y-84825000I-250000J0D01*
G01*
G37*
G36*
G01*
X55827500Y-82750000D02*
X54877500Y-82750000D01*
G75*
G02*
X54627500Y-82500000I0J250000D01*
G01*
X54627500Y-81825000D01*
G75*
G02*
X54877500Y-81575000I250000J0D01*
G01*
X55827500Y-81575000D01*
G75*
G02*
X56077500Y-81825000I0J-250000D01*
G01*
X56077500Y-82500000D01*
G75*
G02*
X55827500Y-82750000I-250000J0D01*
G01*
G37*
D13*
X48050000Y-92550000D03*
X49000000Y-92550000D03*
X49950000Y-92550000D03*
X49950000Y-90050000D03*
X48050000Y-90050000D03*
G36*
G01*
X56852500Y-54150000D02*
X56852500Y-53250000D01*
G75*
G02*
X57102500Y-53000000I250000J0D01*
G01*
X57802500Y-53000000D01*
G75*
G02*
X58052500Y-53250000I0J-250000D01*
G01*
X58052500Y-54150000D01*
G75*
G02*
X57802500Y-54400000I-250000J0D01*
G01*
X57102500Y-54400000D01*
G75*
G02*
X56852500Y-54150000I0J250000D01*
G01*
G37*
G36*
G01*
X58852500Y-54150000D02*
X58852500Y-53250000D01*
G75*
G02*
X59102500Y-53000000I250000J0D01*
G01*
X59802500Y-53000000D01*
G75*
G02*
X60052500Y-53250000I0J-250000D01*
G01*
X60052500Y-54150000D01*
G75*
G02*
X59802500Y-54400000I-250000J0D01*
G01*
X59102500Y-54400000D01*
G75*
G02*
X58852500Y-54150000I0J250000D01*
G01*
G37*
D12*
X36300000Y-67800000D03*
D14*
X36300000Y-70340000D03*
X36300000Y-72880000D03*
X36300000Y-75420000D03*
X36300000Y-77960000D03*
X36300000Y-80500000D03*
X36300000Y-83040000D03*
X36300000Y-85580000D03*
D12*
X36300000Y-49500000D03*
D14*
X36300000Y-52040000D03*
X36300000Y-54580000D03*
X36300000Y-57120000D03*
X36300000Y-59660000D03*
X36300000Y-62200000D03*
M02*
