G04 #@! TF.GenerationSoftware,KiCad,Pcbnew,6.0.10+dfsg-1~bpo11+1*
G04 #@! TF.CreationDate,2023-02-18T13:23:28+00:00*
G04 #@! TF.ProjectId,RP2040-VCO,52503230-3430-42d5-9643-4f2e6b696361,rev?*
G04 #@! TF.SameCoordinates,Original*
G04 #@! TF.FileFunction,Legend,Top*
G04 #@! TF.FilePolarity,Positive*
%FSLAX46Y46*%
G04 Gerber Fmt 4.6, Leading zero omitted, Abs format (unit mm)*
G04 Created by KiCad (PCBNEW 6.0.10+dfsg-1~bpo11+1) date 2023-02-18 13:23:28*
%MOMM*%
%LPD*%
G01*
G04 APERTURE LIST*
%ADD10C,0.150000*%
%ADD11C,0.254000*%
%ADD12C,0.120000*%
%ADD13C,0.200000*%
%ADD14R,0.900000X1.200000*%
%ADD15C,1.700000*%
%ADD16R,1.700000X1.700000*%
%ADD17R,0.600000X1.200000*%
%ADD18O,1.700000X1.700000*%
G04 APERTURE END LIST*
D10*
X39457142Y-90266666D02*
X39504761Y-90314285D01*
X39552380Y-90457142D01*
X39552380Y-90552380D01*
X39504761Y-90695238D01*
X39409523Y-90790476D01*
X39314285Y-90838095D01*
X39123809Y-90885714D01*
X38980952Y-90885714D01*
X38790476Y-90838095D01*
X38695238Y-90790476D01*
X38600000Y-90695238D01*
X38552380Y-90552380D01*
X38552380Y-90457142D01*
X38600000Y-90314285D01*
X38647619Y-90266666D01*
X38552380Y-89933333D02*
X38552380Y-89314285D01*
X38933333Y-89647619D01*
X38933333Y-89504761D01*
X38980952Y-89409523D01*
X39028571Y-89361904D01*
X39123809Y-89314285D01*
X39361904Y-89314285D01*
X39457142Y-89361904D01*
X39504761Y-89409523D01*
X39552380Y-89504761D01*
X39552380Y-89790476D01*
X39504761Y-89885714D01*
X39457142Y-89933333D01*
X60357142Y-93766666D02*
X60404761Y-93814285D01*
X60452380Y-93957142D01*
X60452380Y-94052380D01*
X60404761Y-94195238D01*
X60309523Y-94290476D01*
X60214285Y-94338095D01*
X60023809Y-94385714D01*
X59880952Y-94385714D01*
X59690476Y-94338095D01*
X59595238Y-94290476D01*
X59500000Y-94195238D01*
X59452380Y-94052380D01*
X59452380Y-93957142D01*
X59500000Y-93814285D01*
X59547619Y-93766666D01*
X59785714Y-92909523D02*
X60452380Y-92909523D01*
X59404761Y-93147619D02*
X60119047Y-93385714D01*
X60119047Y-92766666D01*
X48104880Y-80542857D02*
X47628690Y-80876190D01*
X48104880Y-81114285D02*
X47104880Y-81114285D01*
X47104880Y-80733333D01*
X47152500Y-80638095D01*
X47200119Y-80590476D01*
X47295357Y-80542857D01*
X47438214Y-80542857D01*
X47533452Y-80590476D01*
X47581071Y-80638095D01*
X47628690Y-80733333D01*
X47628690Y-81114285D01*
X48104880Y-79590476D02*
X48104880Y-80161904D01*
X48104880Y-79876190D02*
X47104880Y-79876190D01*
X47247738Y-79971428D01*
X47342976Y-80066666D01*
X47390595Y-80161904D01*
X47104880Y-78971428D02*
X47104880Y-78876190D01*
X47152500Y-78780952D01*
X47200119Y-78733333D01*
X47295357Y-78685714D01*
X47485833Y-78638095D01*
X47723928Y-78638095D01*
X47914404Y-78685714D01*
X48009642Y-78733333D01*
X48057261Y-78780952D01*
X48104880Y-78876190D01*
X48104880Y-78971428D01*
X48057261Y-79066666D01*
X48009642Y-79114285D01*
X47914404Y-79161904D01*
X47723928Y-79209523D01*
X47485833Y-79209523D01*
X47295357Y-79161904D01*
X47200119Y-79114285D01*
X47152500Y-79066666D01*
X47104880Y-78971428D01*
X61109642Y-52152380D02*
X60776309Y-51676190D01*
X60538214Y-52152380D02*
X60538214Y-51152380D01*
X60919166Y-51152380D01*
X61014404Y-51200000D01*
X61062023Y-51247619D01*
X61109642Y-51342857D01*
X61109642Y-51485714D01*
X61062023Y-51580952D01*
X61014404Y-51628571D01*
X60919166Y-51676190D01*
X60538214Y-51676190D01*
X62062023Y-52152380D02*
X61490595Y-52152380D01*
X61776309Y-52152380D02*
X61776309Y-51152380D01*
X61681071Y-51295238D01*
X61585833Y-51390476D01*
X61490595Y-51438095D01*
X62395357Y-51152380D02*
X63014404Y-51152380D01*
X62681071Y-51533333D01*
X62823928Y-51533333D01*
X62919166Y-51580952D01*
X62966785Y-51628571D01*
X63014404Y-51723809D01*
X63014404Y-51961904D01*
X62966785Y-52057142D01*
X62919166Y-52104761D01*
X62823928Y-52152380D01*
X62538214Y-52152380D01*
X62442976Y-52104761D01*
X62395357Y-52057142D01*
X46104880Y-80642857D02*
X45628690Y-80976190D01*
X46104880Y-81214285D02*
X45104880Y-81214285D01*
X45104880Y-80833333D01*
X45152500Y-80738095D01*
X45200119Y-80690476D01*
X45295357Y-80642857D01*
X45438214Y-80642857D01*
X45533452Y-80690476D01*
X45581071Y-80738095D01*
X45628690Y-80833333D01*
X45628690Y-81214285D01*
X46104880Y-79690476D02*
X46104880Y-80261904D01*
X46104880Y-79976190D02*
X45104880Y-79976190D01*
X45247738Y-80071428D01*
X45342976Y-80166666D01*
X45390595Y-80261904D01*
X45200119Y-79309523D02*
X45152500Y-79261904D01*
X45104880Y-79166666D01*
X45104880Y-78928571D01*
X45152500Y-78833333D01*
X45200119Y-78785714D01*
X45295357Y-78738095D01*
X45390595Y-78738095D01*
X45533452Y-78785714D01*
X46104880Y-79357142D01*
X46104880Y-78738095D01*
X62133333Y-58452380D02*
X61800000Y-57976190D01*
X61561904Y-58452380D02*
X61561904Y-57452380D01*
X61942857Y-57452380D01*
X62038095Y-57500000D01*
X62085714Y-57547619D01*
X62133333Y-57642857D01*
X62133333Y-57785714D01*
X62085714Y-57880952D01*
X62038095Y-57928571D01*
X61942857Y-57976190D01*
X61561904Y-57976190D01*
X62466666Y-57452380D02*
X63133333Y-57452380D01*
X62704761Y-58452380D01*
X62509642Y-83366666D02*
X62557261Y-83414285D01*
X62604880Y-83557142D01*
X62604880Y-83652380D01*
X62557261Y-83795238D01*
X62462023Y-83890476D01*
X62366785Y-83938095D01*
X62176309Y-83985714D01*
X62033452Y-83985714D01*
X61842976Y-83938095D01*
X61747738Y-83890476D01*
X61652500Y-83795238D01*
X61604880Y-83652380D01*
X61604880Y-83557142D01*
X61652500Y-83414285D01*
X61700119Y-83366666D01*
X62033452Y-82795238D02*
X61985833Y-82890476D01*
X61938214Y-82938095D01*
X61842976Y-82985714D01*
X61795357Y-82985714D01*
X61700119Y-82938095D01*
X61652500Y-82890476D01*
X61604880Y-82795238D01*
X61604880Y-82604761D01*
X61652500Y-82509523D01*
X61700119Y-82461904D01*
X61795357Y-82414285D01*
X61842976Y-82414285D01*
X61938214Y-82461904D01*
X61985833Y-82509523D01*
X62033452Y-82604761D01*
X62033452Y-82795238D01*
X62081071Y-82890476D01*
X62128690Y-82938095D01*
X62223928Y-82985714D01*
X62414404Y-82985714D01*
X62509642Y-82938095D01*
X62557261Y-82890476D01*
X62604880Y-82795238D01*
X62604880Y-82604761D01*
X62557261Y-82509523D01*
X62509642Y-82461904D01*
X62414404Y-82414285D01*
X62223928Y-82414285D01*
X62128690Y-82461904D01*
X62081071Y-82509523D01*
X62033452Y-82604761D01*
X60614404Y-67252380D02*
X60614404Y-66252380D01*
X60852500Y-66252380D01*
X60995357Y-66300000D01*
X61090595Y-66395238D01*
X61138214Y-66490476D01*
X61185833Y-66680952D01*
X61185833Y-66823809D01*
X61138214Y-67014285D01*
X61090595Y-67109523D01*
X60995357Y-67204761D01*
X60852500Y-67252380D01*
X60614404Y-67252380D01*
X61519166Y-66252380D02*
X62138214Y-66252380D01*
X61804880Y-66633333D01*
X61947738Y-66633333D01*
X62042976Y-66680952D01*
X62090595Y-66728571D01*
X62138214Y-66823809D01*
X62138214Y-67061904D01*
X62090595Y-67157142D01*
X62042976Y-67204761D01*
X61947738Y-67252380D01*
X61662023Y-67252380D01*
X61566785Y-67204761D01*
X61519166Y-67157142D01*
X45833333Y-94857142D02*
X45785714Y-94904761D01*
X45642857Y-94952380D01*
X45547619Y-94952380D01*
X45404761Y-94904761D01*
X45309523Y-94809523D01*
X45261904Y-94714285D01*
X45214285Y-94523809D01*
X45214285Y-94380952D01*
X45261904Y-94190476D01*
X45309523Y-94095238D01*
X45404761Y-94000000D01*
X45547619Y-93952380D01*
X45642857Y-93952380D01*
X45785714Y-94000000D01*
X45833333Y-94047619D01*
X46309523Y-94952380D02*
X46500000Y-94952380D01*
X46595238Y-94904761D01*
X46642857Y-94857142D01*
X46738095Y-94714285D01*
X46785714Y-94523809D01*
X46785714Y-94142857D01*
X46738095Y-94047619D01*
X46690476Y-94000000D01*
X46595238Y-93952380D01*
X46404761Y-93952380D01*
X46309523Y-94000000D01*
X46261904Y-94047619D01*
X46214285Y-94142857D01*
X46214285Y-94380952D01*
X46261904Y-94476190D01*
X46309523Y-94523809D01*
X46404761Y-94571428D01*
X46595238Y-94571428D01*
X46690476Y-94523809D01*
X46738095Y-94476190D01*
X46785714Y-94380952D01*
X58209642Y-77766666D02*
X58257261Y-77814285D01*
X58304880Y-77957142D01*
X58304880Y-78052380D01*
X58257261Y-78195238D01*
X58162023Y-78290476D01*
X58066785Y-78338095D01*
X57876309Y-78385714D01*
X57733452Y-78385714D01*
X57542976Y-78338095D01*
X57447738Y-78290476D01*
X57352500Y-78195238D01*
X57304880Y-78052380D01*
X57304880Y-77957142D01*
X57352500Y-77814285D01*
X57400119Y-77766666D01*
X58304880Y-76814285D02*
X58304880Y-77385714D01*
X58304880Y-77100000D02*
X57304880Y-77100000D01*
X57447738Y-77195238D01*
X57542976Y-77290476D01*
X57590595Y-77385714D01*
X44009642Y-80542857D02*
X44057261Y-80590476D01*
X44104880Y-80733333D01*
X44104880Y-80828571D01*
X44057261Y-80971428D01*
X43962023Y-81066666D01*
X43866785Y-81114285D01*
X43676309Y-81161904D01*
X43533452Y-81161904D01*
X43342976Y-81114285D01*
X43247738Y-81066666D01*
X43152500Y-80971428D01*
X43104880Y-80828571D01*
X43104880Y-80733333D01*
X43152500Y-80590476D01*
X43200119Y-80542857D01*
X44104880Y-79590476D02*
X44104880Y-80161904D01*
X44104880Y-79876190D02*
X43104880Y-79876190D01*
X43247738Y-79971428D01*
X43342976Y-80066666D01*
X43390595Y-80161904D01*
X43438214Y-78733333D02*
X44104880Y-78733333D01*
X43057261Y-78971428D02*
X43771547Y-79209523D01*
X43771547Y-78590476D01*
X46561904Y-68552380D02*
X46561904Y-67552380D01*
X46800000Y-67552380D01*
X46942857Y-67600000D01*
X47038095Y-67695238D01*
X47085714Y-67790476D01*
X47133333Y-67980952D01*
X47133333Y-68123809D01*
X47085714Y-68314285D01*
X47038095Y-68409523D01*
X46942857Y-68504761D01*
X46800000Y-68552380D01*
X46561904Y-68552380D01*
X47514285Y-67647619D02*
X47561904Y-67600000D01*
X47657142Y-67552380D01*
X47895238Y-67552380D01*
X47990476Y-67600000D01*
X48038095Y-67647619D01*
X48085714Y-67742857D01*
X48085714Y-67838095D01*
X48038095Y-67980952D01*
X47466666Y-68552380D01*
X48085714Y-68552380D01*
X38957142Y-66457142D02*
X38909523Y-66504761D01*
X38766666Y-66552380D01*
X38671428Y-66552380D01*
X38528571Y-66504761D01*
X38433333Y-66409523D01*
X38385714Y-66314285D01*
X38338095Y-66123809D01*
X38338095Y-65980952D01*
X38385714Y-65790476D01*
X38433333Y-65695238D01*
X38528571Y-65600000D01*
X38671428Y-65552380D01*
X38766666Y-65552380D01*
X38909523Y-65600000D01*
X38957142Y-65647619D01*
X39909523Y-66552380D02*
X39338095Y-66552380D01*
X39623809Y-66552380D02*
X39623809Y-65552380D01*
X39528571Y-65695238D01*
X39433333Y-65790476D01*
X39338095Y-65838095D01*
X40766666Y-65552380D02*
X40576190Y-65552380D01*
X40480952Y-65600000D01*
X40433333Y-65647619D01*
X40338095Y-65790476D01*
X40290476Y-65980952D01*
X40290476Y-66361904D01*
X40338095Y-66457142D01*
X40385714Y-66504761D01*
X40480952Y-66552380D01*
X40671428Y-66552380D01*
X40766666Y-66504761D01*
X40814285Y-66457142D01*
X40861904Y-66361904D01*
X40861904Y-66123809D01*
X40814285Y-66028571D01*
X40766666Y-65980952D01*
X40671428Y-65933333D01*
X40480952Y-65933333D01*
X40385714Y-65980952D01*
X40338095Y-66028571D01*
X40290476Y-66123809D01*
X61009642Y-62452380D02*
X60676309Y-61976190D01*
X60438214Y-62452380D02*
X60438214Y-61452380D01*
X60819166Y-61452380D01*
X60914404Y-61500000D01*
X60962023Y-61547619D01*
X61009642Y-61642857D01*
X61009642Y-61785714D01*
X60962023Y-61880952D01*
X60914404Y-61928571D01*
X60819166Y-61976190D01*
X60438214Y-61976190D01*
X61962023Y-62452380D02*
X61390595Y-62452380D01*
X61676309Y-62452380D02*
X61676309Y-61452380D01*
X61581071Y-61595238D01*
X61485833Y-61690476D01*
X61390595Y-61738095D01*
X62819166Y-61785714D02*
X62819166Y-62452380D01*
X62581071Y-61404761D02*
X62342976Y-62119047D01*
X62962023Y-62119047D01*
X39433333Y-76252380D02*
X39100000Y-75776190D01*
X38861904Y-76252380D02*
X38861904Y-75252380D01*
X39242857Y-75252380D01*
X39338095Y-75300000D01*
X39385714Y-75347619D01*
X39433333Y-75442857D01*
X39433333Y-75585714D01*
X39385714Y-75680952D01*
X39338095Y-75728571D01*
X39242857Y-75776190D01*
X38861904Y-75776190D01*
X39766666Y-75252380D02*
X40385714Y-75252380D01*
X40052380Y-75633333D01*
X40195238Y-75633333D01*
X40290476Y-75680952D01*
X40338095Y-75728571D01*
X40385714Y-75823809D01*
X40385714Y-76061904D01*
X40338095Y-76157142D01*
X40290476Y-76204761D01*
X40195238Y-76252380D01*
X39909523Y-76252380D01*
X39814285Y-76204761D01*
X39766666Y-76157142D01*
X51990595Y-50072380D02*
X51990595Y-50881904D01*
X52038214Y-50977142D01*
X52085833Y-51024761D01*
X52181071Y-51072380D01*
X52371547Y-51072380D01*
X52466785Y-51024761D01*
X52514404Y-50977142D01*
X52562023Y-50881904D01*
X52562023Y-50072380D01*
X53562023Y-51072380D02*
X52990595Y-51072380D01*
X53276309Y-51072380D02*
X53276309Y-50072380D01*
X53181071Y-50215238D01*
X53085833Y-50310476D01*
X52990595Y-50358095D01*
X50009642Y-80542857D02*
X50057261Y-80590476D01*
X50104880Y-80733333D01*
X50104880Y-80828571D01*
X50057261Y-80971428D01*
X49962023Y-81066666D01*
X49866785Y-81114285D01*
X49676309Y-81161904D01*
X49533452Y-81161904D01*
X49342976Y-81114285D01*
X49247738Y-81066666D01*
X49152500Y-80971428D01*
X49104880Y-80828571D01*
X49104880Y-80733333D01*
X49152500Y-80590476D01*
X49200119Y-80542857D01*
X50104880Y-79590476D02*
X50104880Y-80161904D01*
X50104880Y-79876190D02*
X49104880Y-79876190D01*
X49247738Y-79971428D01*
X49342976Y-80066666D01*
X49390595Y-80161904D01*
X49104880Y-79257142D02*
X49104880Y-78638095D01*
X49485833Y-78971428D01*
X49485833Y-78828571D01*
X49533452Y-78733333D01*
X49581071Y-78685714D01*
X49676309Y-78638095D01*
X49914404Y-78638095D01*
X50009642Y-78685714D01*
X50057261Y-78733333D01*
X50104880Y-78828571D01*
X50104880Y-79114285D01*
X50057261Y-79209523D01*
X50009642Y-79257142D01*
X48546666Y-95899880D02*
X48546666Y-96614166D01*
X48499047Y-96757023D01*
X48403809Y-96852261D01*
X48260952Y-96899880D01*
X48165714Y-96899880D01*
X48975238Y-95995119D02*
X49022857Y-95947500D01*
X49118095Y-95899880D01*
X49356190Y-95899880D01*
X49451428Y-95947500D01*
X49499047Y-95995119D01*
X49546666Y-96090357D01*
X49546666Y-96185595D01*
X49499047Y-96328452D01*
X48927619Y-96899880D01*
X49546666Y-96899880D01*
X44657142Y-91742857D02*
X44704761Y-91790476D01*
X44752380Y-91933333D01*
X44752380Y-92028571D01*
X44704761Y-92171428D01*
X44609523Y-92266666D01*
X44514285Y-92314285D01*
X44323809Y-92361904D01*
X44180952Y-92361904D01*
X43990476Y-92314285D01*
X43895238Y-92266666D01*
X43800000Y-92171428D01*
X43752380Y-92028571D01*
X43752380Y-91933333D01*
X43800000Y-91790476D01*
X43847619Y-91742857D01*
X44752380Y-90790476D02*
X44752380Y-91361904D01*
X44752380Y-91076190D02*
X43752380Y-91076190D01*
X43895238Y-91171428D01*
X43990476Y-91266666D01*
X44038095Y-91361904D01*
X43847619Y-90409523D02*
X43800000Y-90361904D01*
X43752380Y-90266666D01*
X43752380Y-90028571D01*
X43800000Y-89933333D01*
X43847619Y-89885714D01*
X43942857Y-89838095D01*
X44038095Y-89838095D01*
X44180952Y-89885714D01*
X44752380Y-90457142D01*
X44752380Y-89838095D01*
X39233333Y-70952380D02*
X38900000Y-70476190D01*
X38661904Y-70952380D02*
X38661904Y-69952380D01*
X39042857Y-69952380D01*
X39138095Y-70000000D01*
X39185714Y-70047619D01*
X39233333Y-70142857D01*
X39233333Y-70285714D01*
X39185714Y-70380952D01*
X39138095Y-70428571D01*
X39042857Y-70476190D01*
X38661904Y-70476190D01*
X40090476Y-70285714D02*
X40090476Y-70952380D01*
X39852380Y-69904761D02*
X39614285Y-70619047D01*
X40233333Y-70619047D01*
X46409642Y-50552380D02*
X46076309Y-50076190D01*
X45838214Y-50552380D02*
X45838214Y-49552380D01*
X46219166Y-49552380D01*
X46314404Y-49600000D01*
X46362023Y-49647619D01*
X46409642Y-49742857D01*
X46409642Y-49885714D01*
X46362023Y-49980952D01*
X46314404Y-50028571D01*
X46219166Y-50076190D01*
X45838214Y-50076190D01*
X47362023Y-50552380D02*
X46790595Y-50552380D01*
X47076309Y-50552380D02*
X47076309Y-49552380D01*
X46981071Y-49695238D01*
X46885833Y-49790476D01*
X46790595Y-49838095D01*
X48266785Y-49552380D02*
X47790595Y-49552380D01*
X47742976Y-50028571D01*
X47790595Y-49980952D01*
X47885833Y-49933333D01*
X48123928Y-49933333D01*
X48219166Y-49980952D01*
X48266785Y-50028571D01*
X48314404Y-50123809D01*
X48314404Y-50361904D01*
X48266785Y-50457142D01*
X48219166Y-50504761D01*
X48123928Y-50552380D01*
X47885833Y-50552380D01*
X47790595Y-50504761D01*
X47742976Y-50457142D01*
X61085833Y-60452380D02*
X60752500Y-59976190D01*
X60514404Y-60452380D02*
X60514404Y-59452380D01*
X60895357Y-59452380D01*
X60990595Y-59500000D01*
X61038214Y-59547619D01*
X61085833Y-59642857D01*
X61085833Y-59785714D01*
X61038214Y-59880952D01*
X60990595Y-59928571D01*
X60895357Y-59976190D01*
X60514404Y-59976190D01*
X61657261Y-59880952D02*
X61562023Y-59833333D01*
X61514404Y-59785714D01*
X61466785Y-59690476D01*
X61466785Y-59642857D01*
X61514404Y-59547619D01*
X61562023Y-59500000D01*
X61657261Y-59452380D01*
X61847738Y-59452380D01*
X61942976Y-59500000D01*
X61990595Y-59547619D01*
X62038214Y-59642857D01*
X62038214Y-59690476D01*
X61990595Y-59785714D01*
X61942976Y-59833333D01*
X61847738Y-59880952D01*
X61657261Y-59880952D01*
X61562023Y-59928571D01*
X61514404Y-59976190D01*
X61466785Y-60071428D01*
X61466785Y-60261904D01*
X61514404Y-60357142D01*
X61562023Y-60404761D01*
X61657261Y-60452380D01*
X61847738Y-60452380D01*
X61942976Y-60404761D01*
X61990595Y-60357142D01*
X62038214Y-60261904D01*
X62038214Y-60071428D01*
X61990595Y-59976190D01*
X61942976Y-59928571D01*
X61847738Y-59880952D01*
X62033333Y-56257142D02*
X61985714Y-56304761D01*
X61842857Y-56352380D01*
X61747619Y-56352380D01*
X61604761Y-56304761D01*
X61509523Y-56209523D01*
X61461904Y-56114285D01*
X61414285Y-55923809D01*
X61414285Y-55780952D01*
X61461904Y-55590476D01*
X61509523Y-55495238D01*
X61604761Y-55400000D01*
X61747619Y-55352380D01*
X61842857Y-55352380D01*
X61985714Y-55400000D01*
X62033333Y-55447619D01*
X62366666Y-55352380D02*
X63033333Y-55352380D01*
X62604761Y-56352380D01*
X55709642Y-78742857D02*
X55757261Y-78790476D01*
X55804880Y-78933333D01*
X55804880Y-79028571D01*
X55757261Y-79171428D01*
X55662023Y-79266666D01*
X55566785Y-79314285D01*
X55376309Y-79361904D01*
X55233452Y-79361904D01*
X55042976Y-79314285D01*
X54947738Y-79266666D01*
X54852500Y-79171428D01*
X54804880Y-79028571D01*
X54804880Y-78933333D01*
X54852500Y-78790476D01*
X54900119Y-78742857D01*
X55804880Y-77790476D02*
X55804880Y-78361904D01*
X55804880Y-78076190D02*
X54804880Y-78076190D01*
X54947738Y-78171428D01*
X55042976Y-78266666D01*
X55090595Y-78361904D01*
X54804880Y-76885714D02*
X54804880Y-77361904D01*
X55281071Y-77409523D01*
X55233452Y-77361904D01*
X55185833Y-77266666D01*
X55185833Y-77028571D01*
X55233452Y-76933333D01*
X55281071Y-76885714D01*
X55376309Y-76838095D01*
X55614404Y-76838095D01*
X55709642Y-76885714D01*
X55757261Y-76933333D01*
X55804880Y-77028571D01*
X55804880Y-77266666D01*
X55757261Y-77361904D01*
X55709642Y-77409523D01*
X42585833Y-57552380D02*
X42252500Y-57076190D01*
X42014404Y-57552380D02*
X42014404Y-56552380D01*
X42395357Y-56552380D01*
X42490595Y-56600000D01*
X42538214Y-56647619D01*
X42585833Y-56742857D01*
X42585833Y-56885714D01*
X42538214Y-56980952D01*
X42490595Y-57028571D01*
X42395357Y-57076190D01*
X42014404Y-57076190D01*
X42966785Y-56647619D02*
X43014404Y-56600000D01*
X43109642Y-56552380D01*
X43347738Y-56552380D01*
X43442976Y-56600000D01*
X43490595Y-56647619D01*
X43538214Y-56742857D01*
X43538214Y-56838095D01*
X43490595Y-56980952D01*
X42919166Y-57552380D01*
X43538214Y-57552380D01*
X60614404Y-64852380D02*
X60614404Y-63852380D01*
X60852500Y-63852380D01*
X60995357Y-63900000D01*
X61090595Y-63995238D01*
X61138214Y-64090476D01*
X61185833Y-64280952D01*
X61185833Y-64423809D01*
X61138214Y-64614285D01*
X61090595Y-64709523D01*
X60995357Y-64804761D01*
X60852500Y-64852380D01*
X60614404Y-64852380D01*
X62042976Y-64185714D02*
X62042976Y-64852380D01*
X61804880Y-63804761D02*
X61566785Y-64519047D01*
X62185833Y-64519047D01*
X51033333Y-63752380D02*
X50700000Y-63276190D01*
X50461904Y-63752380D02*
X50461904Y-62752380D01*
X50842857Y-62752380D01*
X50938095Y-62800000D01*
X50985714Y-62847619D01*
X51033333Y-62942857D01*
X51033333Y-63085714D01*
X50985714Y-63180952D01*
X50938095Y-63228571D01*
X50842857Y-63276190D01*
X50461904Y-63276190D01*
X51890476Y-62752380D02*
X51700000Y-62752380D01*
X51604761Y-62800000D01*
X51557142Y-62847619D01*
X51461904Y-62990476D01*
X51414285Y-63180952D01*
X51414285Y-63561904D01*
X51461904Y-63657142D01*
X51509523Y-63704761D01*
X51604761Y-63752380D01*
X51795238Y-63752380D01*
X51890476Y-63704761D01*
X51938095Y-63657142D01*
X51985714Y-63561904D01*
X51985714Y-63323809D01*
X51938095Y-63228571D01*
X51890476Y-63180952D01*
X51795238Y-63133333D01*
X51604761Y-63133333D01*
X51509523Y-63180952D01*
X51461904Y-63228571D01*
X51414285Y-63323809D01*
X46409642Y-49252380D02*
X46076309Y-48776190D01*
X45838214Y-49252380D02*
X45838214Y-48252380D01*
X46219166Y-48252380D01*
X46314404Y-48300000D01*
X46362023Y-48347619D01*
X46409642Y-48442857D01*
X46409642Y-48585714D01*
X46362023Y-48680952D01*
X46314404Y-48728571D01*
X46219166Y-48776190D01*
X45838214Y-48776190D01*
X47362023Y-49252380D02*
X46790595Y-49252380D01*
X47076309Y-49252380D02*
X47076309Y-48252380D01*
X46981071Y-48395238D01*
X46885833Y-48490476D01*
X46790595Y-48538095D01*
X48219166Y-48252380D02*
X48028690Y-48252380D01*
X47933452Y-48300000D01*
X47885833Y-48347619D01*
X47790595Y-48490476D01*
X47742976Y-48680952D01*
X47742976Y-49061904D01*
X47790595Y-49157142D01*
X47838214Y-49204761D01*
X47933452Y-49252380D01*
X48123928Y-49252380D01*
X48219166Y-49204761D01*
X48266785Y-49157142D01*
X48314404Y-49061904D01*
X48314404Y-48823809D01*
X48266785Y-48728571D01*
X48219166Y-48680952D01*
X48123928Y-48633333D01*
X47933452Y-48633333D01*
X47838214Y-48680952D01*
X47790595Y-48728571D01*
X47742976Y-48823809D01*
X41728619Y-78238095D02*
X40919095Y-78238095D01*
X40823857Y-78285714D01*
X40776238Y-78333333D01*
X40728619Y-78428571D01*
X40728619Y-78619047D01*
X40776238Y-78714285D01*
X40823857Y-78761904D01*
X40919095Y-78809523D01*
X41728619Y-78809523D01*
X41633380Y-79238095D02*
X41681000Y-79285714D01*
X41728619Y-79380952D01*
X41728619Y-79619047D01*
X41681000Y-79714285D01*
X41633380Y-79761904D01*
X41538142Y-79809523D01*
X41442904Y-79809523D01*
X41300047Y-79761904D01*
X40728619Y-79190476D01*
X40728619Y-79809523D01*
X53109642Y-77766666D02*
X53157261Y-77814285D01*
X53204880Y-77957142D01*
X53204880Y-78052380D01*
X53157261Y-78195238D01*
X53062023Y-78290476D01*
X52966785Y-78338095D01*
X52776309Y-78385714D01*
X52633452Y-78385714D01*
X52442976Y-78338095D01*
X52347738Y-78290476D01*
X52252500Y-78195238D01*
X52204880Y-78052380D01*
X52204880Y-77957142D01*
X52252500Y-77814285D01*
X52300119Y-77766666D01*
X52300119Y-77385714D02*
X52252500Y-77338095D01*
X52204880Y-77242857D01*
X52204880Y-77004761D01*
X52252500Y-76909523D01*
X52300119Y-76861904D01*
X52395357Y-76814285D01*
X52490595Y-76814285D01*
X52633452Y-76861904D01*
X53204880Y-77433333D01*
X53204880Y-76814285D01*
X60709642Y-77766666D02*
X60757261Y-77814285D01*
X60804880Y-77957142D01*
X60804880Y-78052380D01*
X60757261Y-78195238D01*
X60662023Y-78290476D01*
X60566785Y-78338095D01*
X60376309Y-78385714D01*
X60233452Y-78385714D01*
X60042976Y-78338095D01*
X59947738Y-78290476D01*
X59852500Y-78195238D01*
X59804880Y-78052380D01*
X59804880Y-77957142D01*
X59852500Y-77814285D01*
X59900119Y-77766666D01*
X59804880Y-76861904D02*
X59804880Y-77338095D01*
X60281071Y-77385714D01*
X60233452Y-77338095D01*
X60185833Y-77242857D01*
X60185833Y-77004761D01*
X60233452Y-76909523D01*
X60281071Y-76861904D01*
X60376309Y-76814285D01*
X60614404Y-76814285D01*
X60709642Y-76861904D01*
X60757261Y-76909523D01*
X60804880Y-77004761D01*
X60804880Y-77242857D01*
X60757261Y-77338095D01*
X60709642Y-77385714D01*
X47461904Y-66152380D02*
X47461904Y-65152380D01*
X47700000Y-65152380D01*
X47842857Y-65200000D01*
X47938095Y-65295238D01*
X47985714Y-65390476D01*
X48033333Y-65580952D01*
X48033333Y-65723809D01*
X47985714Y-65914285D01*
X47938095Y-66009523D01*
X47842857Y-66104761D01*
X47700000Y-66152380D01*
X47461904Y-66152380D01*
X48985714Y-66152380D02*
X48414285Y-66152380D01*
X48700000Y-66152380D02*
X48700000Y-65152380D01*
X48604761Y-65295238D01*
X48509523Y-65390476D01*
X48414285Y-65438095D01*
X42585833Y-55052380D02*
X42252500Y-54576190D01*
X42014404Y-55052380D02*
X42014404Y-54052380D01*
X42395357Y-54052380D01*
X42490595Y-54100000D01*
X42538214Y-54147619D01*
X42585833Y-54242857D01*
X42585833Y-54385714D01*
X42538214Y-54480952D01*
X42490595Y-54528571D01*
X42395357Y-54576190D01*
X42014404Y-54576190D01*
X43538214Y-55052380D02*
X42966785Y-55052380D01*
X43252500Y-55052380D02*
X43252500Y-54052380D01*
X43157261Y-54195238D01*
X43062023Y-54290476D01*
X42966785Y-54338095D01*
X53937142Y-91742857D02*
X53984761Y-91790476D01*
X54032380Y-91933333D01*
X54032380Y-92028571D01*
X53984761Y-92171428D01*
X53889523Y-92266666D01*
X53794285Y-92314285D01*
X53603809Y-92361904D01*
X53460952Y-92361904D01*
X53270476Y-92314285D01*
X53175238Y-92266666D01*
X53080000Y-92171428D01*
X53032380Y-92028571D01*
X53032380Y-91933333D01*
X53080000Y-91790476D01*
X53127619Y-91742857D01*
X54032380Y-90790476D02*
X54032380Y-91361904D01*
X54032380Y-91076190D02*
X53032380Y-91076190D01*
X53175238Y-91171428D01*
X53270476Y-91266666D01*
X53318095Y-91361904D01*
X54032380Y-89838095D02*
X54032380Y-90409523D01*
X54032380Y-90123809D02*
X53032380Y-90123809D01*
X53175238Y-90219047D01*
X53270476Y-90314285D01*
X53318095Y-90409523D01*
X46885833Y-57937142D02*
X46838214Y-57984761D01*
X46695357Y-58032380D01*
X46600119Y-58032380D01*
X46457261Y-57984761D01*
X46362023Y-57889523D01*
X46314404Y-57794285D01*
X46266785Y-57603809D01*
X46266785Y-57460952D01*
X46314404Y-57270476D01*
X46362023Y-57175238D01*
X46457261Y-57080000D01*
X46600119Y-57032380D01*
X46695357Y-57032380D01*
X46838214Y-57080000D01*
X46885833Y-57127619D01*
X47742976Y-57032380D02*
X47552500Y-57032380D01*
X47457261Y-57080000D01*
X47409642Y-57127619D01*
X47314404Y-57270476D01*
X47266785Y-57460952D01*
X47266785Y-57841904D01*
X47314404Y-57937142D01*
X47362023Y-57984761D01*
X47457261Y-58032380D01*
X47647738Y-58032380D01*
X47742976Y-57984761D01*
X47790595Y-57937142D01*
X47838214Y-57841904D01*
X47838214Y-57603809D01*
X47790595Y-57508571D01*
X47742976Y-57460952D01*
X47647738Y-57413333D01*
X47457261Y-57413333D01*
X47362023Y-57460952D01*
X47314404Y-57508571D01*
X47266785Y-57603809D01*
X42585833Y-52552380D02*
X42252500Y-52076190D01*
X42014404Y-52552380D02*
X42014404Y-51552380D01*
X42395357Y-51552380D01*
X42490595Y-51600000D01*
X42538214Y-51647619D01*
X42585833Y-51742857D01*
X42585833Y-51885714D01*
X42538214Y-51980952D01*
X42490595Y-52028571D01*
X42395357Y-52076190D01*
X42014404Y-52076190D01*
X43490595Y-51552380D02*
X43014404Y-51552380D01*
X42966785Y-52028571D01*
X43014404Y-51980952D01*
X43109642Y-51933333D01*
X43347738Y-51933333D01*
X43442976Y-51980952D01*
X43490595Y-52028571D01*
X43538214Y-52123809D01*
X43538214Y-52361904D01*
X43490595Y-52457142D01*
X43442976Y-52504761D01*
X43347738Y-52552380D01*
X43109642Y-52552380D01*
X43014404Y-52504761D01*
X42966785Y-52457142D01*
X57609642Y-83842857D02*
X57657261Y-83890476D01*
X57704880Y-84033333D01*
X57704880Y-84128571D01*
X57657261Y-84271428D01*
X57562023Y-84366666D01*
X57466785Y-84414285D01*
X57276309Y-84461904D01*
X57133452Y-84461904D01*
X56942976Y-84414285D01*
X56847738Y-84366666D01*
X56752500Y-84271428D01*
X56704880Y-84128571D01*
X56704880Y-84033333D01*
X56752500Y-83890476D01*
X56800119Y-83842857D01*
X57704880Y-82890476D02*
X57704880Y-83461904D01*
X57704880Y-83176190D02*
X56704880Y-83176190D01*
X56847738Y-83271428D01*
X56942976Y-83366666D01*
X56990595Y-83461904D01*
X56704880Y-82271428D02*
X56704880Y-82176190D01*
X56752500Y-82080952D01*
X56800119Y-82033333D01*
X56895357Y-81985714D01*
X57085833Y-81938095D01*
X57323928Y-81938095D01*
X57514404Y-81985714D01*
X57609642Y-82033333D01*
X57657261Y-82080952D01*
X57704880Y-82176190D01*
X57704880Y-82271428D01*
X57657261Y-82366666D01*
X57609642Y-82414285D01*
X57514404Y-82461904D01*
X57323928Y-82509523D01*
X57085833Y-82509523D01*
X56895357Y-82461904D01*
X56800119Y-82414285D01*
X56752500Y-82366666D01*
X56704880Y-82271428D01*
D11*
X51092380Y-93312023D02*
X51092380Y-94340119D01*
X51152857Y-94461071D01*
X51213333Y-94521547D01*
X51334285Y-94582023D01*
X51576190Y-94582023D01*
X51697142Y-94521547D01*
X51757619Y-94461071D01*
X51818095Y-94340119D01*
X51818095Y-93312023D01*
X52301904Y-93312023D02*
X53088095Y-93312023D01*
X52664761Y-93795833D01*
X52846190Y-93795833D01*
X52967142Y-93856309D01*
X53027619Y-93916785D01*
X53088095Y-94037738D01*
X53088095Y-94340119D01*
X53027619Y-94461071D01*
X52967142Y-94521547D01*
X52846190Y-94582023D01*
X52483333Y-94582023D01*
X52362380Y-94521547D01*
X52301904Y-94461071D01*
D10*
X61109642Y-54152380D02*
X60776309Y-53676190D01*
X60538214Y-54152380D02*
X60538214Y-53152380D01*
X60919166Y-53152380D01*
X61014404Y-53200000D01*
X61062023Y-53247619D01*
X61109642Y-53342857D01*
X61109642Y-53485714D01*
X61062023Y-53580952D01*
X61014404Y-53628571D01*
X60919166Y-53676190D01*
X60538214Y-53676190D01*
X62062023Y-54152380D02*
X61490595Y-54152380D01*
X61776309Y-54152380D02*
X61776309Y-53152380D01*
X61681071Y-53295238D01*
X61585833Y-53390476D01*
X61490595Y-53438095D01*
X63014404Y-54152380D02*
X62442976Y-54152380D01*
X62728690Y-54152380D02*
X62728690Y-53152380D01*
X62633452Y-53295238D01*
X62538214Y-53390476D01*
X62442976Y-53438095D01*
D12*
X38640000Y-94743063D02*
X38640000Y-91287500D01*
X43160000Y-91287500D02*
X41960000Y-91287500D01*
X39340000Y-96547500D02*
X39340000Y-96047500D01*
X39704437Y-95807500D02*
X38640000Y-94743063D01*
X42095563Y-95807500D02*
X41960000Y-95807500D01*
X39090000Y-96297500D02*
X39590000Y-96297500D01*
X39704437Y-95807500D02*
X39840000Y-95807500D01*
X43160000Y-94743063D02*
X43160000Y-91287500D01*
X38640000Y-91287500D02*
X39840000Y-91287500D01*
X42095563Y-95807500D02*
X43160000Y-94743063D01*
X55784437Y-91287500D02*
X54720000Y-92351937D01*
X55784437Y-91287500D02*
X55920000Y-91287500D01*
X58790000Y-90797500D02*
X58290000Y-90797500D01*
X59240000Y-95807500D02*
X58040000Y-95807500D01*
X58540000Y-90547500D02*
X58540000Y-91047500D01*
X54720000Y-95807500D02*
X55920000Y-95807500D01*
X58175563Y-91287500D02*
X59240000Y-92351937D01*
X58175563Y-91287500D02*
X58040000Y-91287500D01*
X54720000Y-92351937D02*
X54720000Y-95807500D01*
X59240000Y-92351937D02*
X59240000Y-95807500D01*
X46917500Y-83427064D02*
X46917500Y-82972936D01*
X48387500Y-83427064D02*
X48387500Y-82972936D01*
X58225436Y-50965000D02*
X58679564Y-50965000D01*
X58225436Y-52435000D02*
X58679564Y-52435000D01*
X46387500Y-83427064D02*
X46387500Y-82972936D01*
X44917500Y-83427064D02*
X44917500Y-82972936D01*
X58225436Y-57265000D02*
X58679564Y-57265000D01*
X58225436Y-58735000D02*
X58679564Y-58735000D01*
X59617500Y-83461252D02*
X59617500Y-82938748D01*
X61087500Y-83461252D02*
X61087500Y-82938748D01*
X55802500Y-65800000D02*
X59702500Y-65800000D01*
X55802500Y-65800000D02*
X55802500Y-67800000D01*
X55802500Y-67800000D02*
X59702500Y-67800000D01*
X48638748Y-95235000D02*
X49161252Y-95235000D01*
X48638748Y-93765000D02*
X49161252Y-93765000D01*
X57117500Y-74538748D02*
X57117500Y-75061252D01*
X58587500Y-74538748D02*
X58587500Y-75061252D01*
X42917500Y-82938748D02*
X42917500Y-83461252D01*
X44387500Y-82938748D02*
X44387500Y-83461252D01*
X46250000Y-67100000D02*
X42350000Y-67100000D01*
X46250000Y-69100000D02*
X46250000Y-67100000D01*
X46250000Y-69100000D02*
X42350000Y-69100000D01*
X39338748Y-67065000D02*
X39861252Y-67065000D01*
X39338748Y-68535000D02*
X39861252Y-68535000D01*
X58679564Y-61265000D02*
X58225436Y-61265000D01*
X58679564Y-62735000D02*
X58225436Y-62735000D01*
X39372936Y-73365000D02*
X39827064Y-73365000D01*
X39372936Y-74835000D02*
X39827064Y-74835000D01*
X52752500Y-51465000D02*
X54702500Y-51465000D01*
X52752500Y-51465000D02*
X49302500Y-51465000D01*
X52752500Y-60335000D02*
X54702500Y-60335000D01*
X52752500Y-60335000D02*
X50802500Y-60335000D01*
X50387500Y-82938748D02*
X50387500Y-83461252D01*
X48917500Y-82938748D02*
X48917500Y-83461252D01*
X46850000Y-98767500D02*
X46850000Y-97457500D01*
X53980000Y-97067500D02*
X54480000Y-96067500D01*
X57890000Y-105267500D02*
X39910000Y-105267500D01*
X50950000Y-97457500D02*
X50950000Y-98767500D01*
X39910000Y-105267500D02*
X39910000Y-98767500D01*
X38610000Y-106577500D02*
X38610000Y-97457500D01*
X53480000Y-96067500D02*
X53980000Y-97067500D01*
X38610000Y-97457500D02*
X59190000Y-97457500D01*
X50950000Y-98767500D02*
X57890000Y-98767500D01*
X46850000Y-98767500D02*
X46850000Y-98767500D01*
X59190000Y-97457500D02*
X59190000Y-106577500D01*
X57890000Y-98767500D02*
X57890000Y-105267500D01*
X54480000Y-96067500D02*
X53480000Y-96067500D01*
X39910000Y-98767500D02*
X46850000Y-98767500D01*
X59190000Y-106577500D02*
X38610000Y-106577500D01*
X45365000Y-90838748D02*
X45365000Y-91361252D01*
X46835000Y-90838748D02*
X46835000Y-91361252D01*
X39372936Y-72835000D02*
X39827064Y-72835000D01*
X39372936Y-71365000D02*
X39827064Y-71365000D01*
X46825436Y-54435000D02*
X47279564Y-54435000D01*
X46825436Y-52965000D02*
X47279564Y-52965000D01*
X58225436Y-59265000D02*
X58679564Y-59265000D01*
X58225436Y-60735000D02*
X58679564Y-60735000D01*
X58713752Y-56635000D02*
X58191248Y-56635000D01*
X58713752Y-55165000D02*
X58191248Y-55165000D01*
X56087500Y-74538748D02*
X56087500Y-75061252D01*
X54617500Y-74538748D02*
X54617500Y-75061252D01*
X39725436Y-57835000D02*
X40179564Y-57835000D01*
X39725436Y-56365000D02*
X40179564Y-56365000D01*
X55802500Y-63400000D02*
X59702500Y-63400000D01*
X55802500Y-63400000D02*
X55802500Y-65400000D01*
X55802500Y-65400000D02*
X59702500Y-65400000D01*
X50725436Y-62335000D02*
X51179564Y-62335000D01*
X50725436Y-60865000D02*
X51179564Y-60865000D01*
X46825436Y-50965000D02*
X47279564Y-50965000D01*
X46825436Y-52435000D02*
X47279564Y-52435000D01*
X61681000Y-85270000D02*
X43781000Y-85270000D01*
X43781000Y-70070000D02*
X43781000Y-72730000D01*
X60351000Y-70070000D02*
X61681000Y-70070000D01*
X59081000Y-70070000D02*
X59081000Y-72730000D01*
X61681000Y-70070000D02*
X61681000Y-71400000D01*
X43781000Y-85270000D02*
X43781000Y-87930000D01*
X59081000Y-72730000D02*
X43781000Y-72730000D01*
X59081000Y-70070000D02*
X43781000Y-70070000D01*
X61681000Y-87930000D02*
X43781000Y-87930000D01*
X61681000Y-85270000D02*
X61681000Y-87930000D01*
X63449000Y-69856000D02*
X42113000Y-69856000D01*
X42113000Y-69856000D02*
X42113000Y-88144000D01*
X42113000Y-88144000D02*
X63449000Y-88144000D01*
X63449000Y-88144000D02*
X63449000Y-69856000D01*
X53487500Y-74538748D02*
X53487500Y-75061252D01*
X52017500Y-74538748D02*
X52017500Y-75061252D01*
X61087500Y-74538748D02*
X61087500Y-75061252D01*
X59617500Y-74538748D02*
X59617500Y-75061252D01*
X46250000Y-66700000D02*
X42350000Y-66700000D01*
X46250000Y-64700000D02*
X42350000Y-64700000D01*
X46250000Y-66700000D02*
X46250000Y-64700000D01*
X39725436Y-55335000D02*
X40179564Y-55335000D01*
X39725436Y-53865000D02*
X40179564Y-53865000D01*
X52635000Y-90838748D02*
X52635000Y-91361252D01*
X51165000Y-90838748D02*
X51165000Y-91361252D01*
X47313752Y-55165000D02*
X46791248Y-55165000D01*
X47313752Y-56635000D02*
X46791248Y-56635000D01*
X39725436Y-51365000D02*
X40179564Y-51365000D01*
X39725436Y-52835000D02*
X40179564Y-52835000D01*
X56087500Y-83461252D02*
X56087500Y-82938748D01*
X54617500Y-83461252D02*
X54617500Y-82938748D01*
D13*
X50480000Y-91000000D02*
X50480000Y-91600000D01*
X47500000Y-93150000D02*
X47500000Y-91950000D01*
X50480000Y-91600000D02*
X47520000Y-91600000D01*
X47520000Y-91000000D02*
X50480000Y-91000000D01*
X47520000Y-91600000D02*
X47520000Y-91000000D01*
D12*
X58225436Y-54435000D02*
X58679564Y-54435000D01*
X58225436Y-52965000D02*
X58679564Y-52965000D01*
%LPC*%
G36*
G01*
X41450000Y-96647500D02*
X40350000Y-96647500D01*
G75*
G02*
X40100000Y-96397500I0J250000D01*
G01*
X40100000Y-94297500D01*
G75*
G02*
X40350000Y-94047500I250000J0D01*
G01*
X41450000Y-94047500D01*
G75*
G02*
X41700000Y-94297500I0J-250000D01*
G01*
X41700000Y-96397500D01*
G75*
G02*
X41450000Y-96647500I-250000J0D01*
G01*
G37*
G36*
G01*
X41450000Y-93047500D02*
X40350000Y-93047500D01*
G75*
G02*
X40100000Y-92797500I0J250000D01*
G01*
X40100000Y-90697500D01*
G75*
G02*
X40350000Y-90447500I250000J0D01*
G01*
X41450000Y-90447500D01*
G75*
G02*
X41700000Y-90697500I0J-250000D01*
G01*
X41700000Y-92797500D01*
G75*
G02*
X41450000Y-93047500I-250000J0D01*
G01*
G37*
G36*
G01*
X56430000Y-90447500D02*
X57530000Y-90447500D01*
G75*
G02*
X57780000Y-90697500I0J-250000D01*
G01*
X57780000Y-92797500D01*
G75*
G02*
X57530000Y-93047500I-250000J0D01*
G01*
X56430000Y-93047500D01*
G75*
G02*
X56180000Y-92797500I0J250000D01*
G01*
X56180000Y-90697500D01*
G75*
G02*
X56430000Y-90447500I250000J0D01*
G01*
G37*
G36*
G01*
X56430000Y-94047500D02*
X57530000Y-94047500D01*
G75*
G02*
X57780000Y-94297500I0J-250000D01*
G01*
X57780000Y-96397500D01*
G75*
G02*
X57530000Y-96647500I-250000J0D01*
G01*
X56430000Y-96647500D01*
G75*
G02*
X56180000Y-96397500I0J250000D01*
G01*
X56180000Y-94297500D01*
G75*
G02*
X56430000Y-94047500I250000J0D01*
G01*
G37*
G36*
G01*
X48102500Y-84800000D02*
X47202500Y-84800000D01*
G75*
G02*
X46952500Y-84550000I0J250000D01*
G01*
X46952500Y-83850000D01*
G75*
G02*
X47202500Y-83600000I250000J0D01*
G01*
X48102500Y-83600000D01*
G75*
G02*
X48352500Y-83850000I0J-250000D01*
G01*
X48352500Y-84550000D01*
G75*
G02*
X48102500Y-84800000I-250000J0D01*
G01*
G37*
G36*
G01*
X48102500Y-82800000D02*
X47202500Y-82800000D01*
G75*
G02*
X46952500Y-82550000I0J250000D01*
G01*
X46952500Y-81850000D01*
G75*
G02*
X47202500Y-81600000I250000J0D01*
G01*
X48102500Y-81600000D01*
G75*
G02*
X48352500Y-81850000I0J-250000D01*
G01*
X48352500Y-82550000D01*
G75*
G02*
X48102500Y-82800000I-250000J0D01*
G01*
G37*
G36*
G01*
X56852500Y-52150000D02*
X56852500Y-51250000D01*
G75*
G02*
X57102500Y-51000000I250000J0D01*
G01*
X57802500Y-51000000D01*
G75*
G02*
X58052500Y-51250000I0J-250000D01*
G01*
X58052500Y-52150000D01*
G75*
G02*
X57802500Y-52400000I-250000J0D01*
G01*
X57102500Y-52400000D01*
G75*
G02*
X56852500Y-52150000I0J250000D01*
G01*
G37*
G36*
G01*
X58852500Y-52150000D02*
X58852500Y-51250000D01*
G75*
G02*
X59102500Y-51000000I250000J0D01*
G01*
X59802500Y-51000000D01*
G75*
G02*
X60052500Y-51250000I0J-250000D01*
G01*
X60052500Y-52150000D01*
G75*
G02*
X59802500Y-52400000I-250000J0D01*
G01*
X59102500Y-52400000D01*
G75*
G02*
X58852500Y-52150000I0J250000D01*
G01*
G37*
G36*
G01*
X46102500Y-84800000D02*
X45202500Y-84800000D01*
G75*
G02*
X44952500Y-84550000I0J250000D01*
G01*
X44952500Y-83850000D01*
G75*
G02*
X45202500Y-83600000I250000J0D01*
G01*
X46102500Y-83600000D01*
G75*
G02*
X46352500Y-83850000I0J-250000D01*
G01*
X46352500Y-84550000D01*
G75*
G02*
X46102500Y-84800000I-250000J0D01*
G01*
G37*
G36*
G01*
X46102500Y-82800000D02*
X45202500Y-82800000D01*
G75*
G02*
X44952500Y-82550000I0J250000D01*
G01*
X44952500Y-81850000D01*
G75*
G02*
X45202500Y-81600000I250000J0D01*
G01*
X46102500Y-81600000D01*
G75*
G02*
X46352500Y-81850000I0J-250000D01*
G01*
X46352500Y-82550000D01*
G75*
G02*
X46102500Y-82800000I-250000J0D01*
G01*
G37*
G36*
G01*
X56852500Y-58450000D02*
X56852500Y-57550000D01*
G75*
G02*
X57102500Y-57300000I250000J0D01*
G01*
X57802500Y-57300000D01*
G75*
G02*
X58052500Y-57550000I0J-250000D01*
G01*
X58052500Y-58450000D01*
G75*
G02*
X57802500Y-58700000I-250000J0D01*
G01*
X57102500Y-58700000D01*
G75*
G02*
X56852500Y-58450000I0J250000D01*
G01*
G37*
G36*
G01*
X58852500Y-58450000D02*
X58852500Y-57550000D01*
G75*
G02*
X59102500Y-57300000I250000J0D01*
G01*
X59802500Y-57300000D01*
G75*
G02*
X60052500Y-57550000I0J-250000D01*
G01*
X60052500Y-58450000D01*
G75*
G02*
X59802500Y-58700000I-250000J0D01*
G01*
X59102500Y-58700000D01*
G75*
G02*
X58852500Y-58450000I0J250000D01*
G01*
G37*
G36*
G01*
X60827500Y-84825000D02*
X59877500Y-84825000D01*
G75*
G02*
X59627500Y-84575000I0J250000D01*
G01*
X59627500Y-83900000D01*
G75*
G02*
X59877500Y-83650000I250000J0D01*
G01*
X60827500Y-83650000D01*
G75*
G02*
X61077500Y-83900000I0J-250000D01*
G01*
X61077500Y-84575000D01*
G75*
G02*
X60827500Y-84825000I-250000J0D01*
G01*
G37*
G36*
G01*
X60827500Y-82750000D02*
X59877500Y-82750000D01*
G75*
G02*
X59627500Y-82500000I0J250000D01*
G01*
X59627500Y-81825000D01*
G75*
G02*
X59877500Y-81575000I250000J0D01*
G01*
X60827500Y-81575000D01*
G75*
G02*
X61077500Y-81825000I0J-250000D01*
G01*
X61077500Y-82500000D01*
G75*
G02*
X60827500Y-82750000I-250000J0D01*
G01*
G37*
D14*
X56402500Y-66800000D03*
X59702500Y-66800000D03*
G36*
G01*
X47275000Y-94975000D02*
X47275000Y-94025000D01*
G75*
G02*
X47525000Y-93775000I250000J0D01*
G01*
X48200000Y-93775000D01*
G75*
G02*
X48450000Y-94025000I0J-250000D01*
G01*
X48450000Y-94975000D01*
G75*
G02*
X48200000Y-95225000I-250000J0D01*
G01*
X47525000Y-95225000D01*
G75*
G02*
X47275000Y-94975000I0J250000D01*
G01*
G37*
G36*
G01*
X49350000Y-94975000D02*
X49350000Y-94025000D01*
G75*
G02*
X49600000Y-93775000I250000J0D01*
G01*
X50275000Y-93775000D01*
G75*
G02*
X50525000Y-94025000I0J-250000D01*
G01*
X50525000Y-94975000D01*
G75*
G02*
X50275000Y-95225000I-250000J0D01*
G01*
X49600000Y-95225000D01*
G75*
G02*
X49350000Y-94975000I0J250000D01*
G01*
G37*
G36*
G01*
X57377500Y-73175000D02*
X58327500Y-73175000D01*
G75*
G02*
X58577500Y-73425000I0J-250000D01*
G01*
X58577500Y-74100000D01*
G75*
G02*
X58327500Y-74350000I-250000J0D01*
G01*
X57377500Y-74350000D01*
G75*
G02*
X57127500Y-74100000I0J250000D01*
G01*
X57127500Y-73425000D01*
G75*
G02*
X57377500Y-73175000I250000J0D01*
G01*
G37*
G36*
G01*
X57377500Y-75250000D02*
X58327500Y-75250000D01*
G75*
G02*
X58577500Y-75500000I0J-250000D01*
G01*
X58577500Y-76175000D01*
G75*
G02*
X58327500Y-76425000I-250000J0D01*
G01*
X57377500Y-76425000D01*
G75*
G02*
X57127500Y-76175000I0J250000D01*
G01*
X57127500Y-75500000D01*
G75*
G02*
X57377500Y-75250000I250000J0D01*
G01*
G37*
G36*
G01*
X43177500Y-81575000D02*
X44127500Y-81575000D01*
G75*
G02*
X44377500Y-81825000I0J-250000D01*
G01*
X44377500Y-82500000D01*
G75*
G02*
X44127500Y-82750000I-250000J0D01*
G01*
X43177500Y-82750000D01*
G75*
G02*
X42927500Y-82500000I0J250000D01*
G01*
X42927500Y-81825000D01*
G75*
G02*
X43177500Y-81575000I250000J0D01*
G01*
G37*
G36*
G01*
X43177500Y-83650000D02*
X44127500Y-83650000D01*
G75*
G02*
X44377500Y-83900000I0J-250000D01*
G01*
X44377500Y-84575000D01*
G75*
G02*
X44127500Y-84825000I-250000J0D01*
G01*
X43177500Y-84825000D01*
G75*
G02*
X42927500Y-84575000I0J250000D01*
G01*
X42927500Y-83900000D01*
G75*
G02*
X43177500Y-83650000I250000J0D01*
G01*
G37*
X45650000Y-68100000D03*
X42350000Y-68100000D03*
G36*
G01*
X37975000Y-68275000D02*
X37975000Y-67325000D01*
G75*
G02*
X38225000Y-67075000I250000J0D01*
G01*
X38900000Y-67075000D01*
G75*
G02*
X39150000Y-67325000I0J-250000D01*
G01*
X39150000Y-68275000D01*
G75*
G02*
X38900000Y-68525000I-250000J0D01*
G01*
X38225000Y-68525000D01*
G75*
G02*
X37975000Y-68275000I0J250000D01*
G01*
G37*
G36*
G01*
X40050000Y-68275000D02*
X40050000Y-67325000D01*
G75*
G02*
X40300000Y-67075000I250000J0D01*
G01*
X40975000Y-67075000D01*
G75*
G02*
X41225000Y-67325000I0J-250000D01*
G01*
X41225000Y-68275000D01*
G75*
G02*
X40975000Y-68525000I-250000J0D01*
G01*
X40300000Y-68525000D01*
G75*
G02*
X40050000Y-68275000I0J250000D01*
G01*
G37*
G36*
G01*
X60052500Y-61550000D02*
X60052500Y-62450000D01*
G75*
G02*
X59802500Y-62700000I-250000J0D01*
G01*
X59102500Y-62700000D01*
G75*
G02*
X58852500Y-62450000I0J250000D01*
G01*
X58852500Y-61550000D01*
G75*
G02*
X59102500Y-61300000I250000J0D01*
G01*
X59802500Y-61300000D01*
G75*
G02*
X60052500Y-61550000I0J-250000D01*
G01*
G37*
G36*
G01*
X58052500Y-61550000D02*
X58052500Y-62450000D01*
G75*
G02*
X57802500Y-62700000I-250000J0D01*
G01*
X57102500Y-62700000D01*
G75*
G02*
X56852500Y-62450000I0J250000D01*
G01*
X56852500Y-61550000D01*
G75*
G02*
X57102500Y-61300000I250000J0D01*
G01*
X57802500Y-61300000D01*
G75*
G02*
X58052500Y-61550000I0J-250000D01*
G01*
G37*
G36*
G01*
X38000000Y-74550000D02*
X38000000Y-73650000D01*
G75*
G02*
X38250000Y-73400000I250000J0D01*
G01*
X38950000Y-73400000D01*
G75*
G02*
X39200000Y-73650000I0J-250000D01*
G01*
X39200000Y-74550000D01*
G75*
G02*
X38950000Y-74800000I-250000J0D01*
G01*
X38250000Y-74800000D01*
G75*
G02*
X38000000Y-74550000I0J250000D01*
G01*
G37*
G36*
G01*
X40000000Y-74550000D02*
X40000000Y-73650000D01*
G75*
G02*
X40250000Y-73400000I250000J0D01*
G01*
X40950000Y-73400000D01*
G75*
G02*
X41200000Y-73650000I0J-250000D01*
G01*
X41200000Y-74550000D01*
G75*
G02*
X40950000Y-74800000I-250000J0D01*
G01*
X40250000Y-74800000D01*
G75*
G02*
X40000000Y-74550000I0J250000D01*
G01*
G37*
G36*
G01*
X49302500Y-52240000D02*
X49302500Y-51940000D01*
G75*
G02*
X49452500Y-51790000I150000J0D01*
G01*
X51102500Y-51790000D01*
G75*
G02*
X51252500Y-51940000I0J-150000D01*
G01*
X51252500Y-52240000D01*
G75*
G02*
X51102500Y-52390000I-150000J0D01*
G01*
X49452500Y-52390000D01*
G75*
G02*
X49302500Y-52240000I0J150000D01*
G01*
G37*
G36*
G01*
X49302500Y-53510000D02*
X49302500Y-53210000D01*
G75*
G02*
X49452500Y-53060000I150000J0D01*
G01*
X51102500Y-53060000D01*
G75*
G02*
X51252500Y-53210000I0J-150000D01*
G01*
X51252500Y-53510000D01*
G75*
G02*
X51102500Y-53660000I-150000J0D01*
G01*
X49452500Y-53660000D01*
G75*
G02*
X49302500Y-53510000I0J150000D01*
G01*
G37*
G36*
G01*
X49302500Y-54780000D02*
X49302500Y-54480000D01*
G75*
G02*
X49452500Y-54330000I150000J0D01*
G01*
X51102500Y-54330000D01*
G75*
G02*
X51252500Y-54480000I0J-150000D01*
G01*
X51252500Y-54780000D01*
G75*
G02*
X51102500Y-54930000I-150000J0D01*
G01*
X49452500Y-54930000D01*
G75*
G02*
X49302500Y-54780000I0J150000D01*
G01*
G37*
G36*
G01*
X49302500Y-56050000D02*
X49302500Y-55750000D01*
G75*
G02*
X49452500Y-55600000I150000J0D01*
G01*
X51102500Y-55600000D01*
G75*
G02*
X51252500Y-55750000I0J-150000D01*
G01*
X51252500Y-56050000D01*
G75*
G02*
X51102500Y-56200000I-150000J0D01*
G01*
X49452500Y-56200000D01*
G75*
G02*
X49302500Y-56050000I0J150000D01*
G01*
G37*
G36*
G01*
X49302500Y-57320000D02*
X49302500Y-57020000D01*
G75*
G02*
X49452500Y-56870000I150000J0D01*
G01*
X51102500Y-56870000D01*
G75*
G02*
X51252500Y-57020000I0J-150000D01*
G01*
X51252500Y-57320000D01*
G75*
G02*
X51102500Y-57470000I-150000J0D01*
G01*
X49452500Y-57470000D01*
G75*
G02*
X49302500Y-57320000I0J150000D01*
G01*
G37*
G36*
G01*
X49302500Y-58590000D02*
X49302500Y-58290000D01*
G75*
G02*
X49452500Y-58140000I150000J0D01*
G01*
X51102500Y-58140000D01*
G75*
G02*
X51252500Y-58290000I0J-150000D01*
G01*
X51252500Y-58590000D01*
G75*
G02*
X51102500Y-58740000I-150000J0D01*
G01*
X49452500Y-58740000D01*
G75*
G02*
X49302500Y-58590000I0J150000D01*
G01*
G37*
G36*
G01*
X49302500Y-59860000D02*
X49302500Y-59560000D01*
G75*
G02*
X49452500Y-59410000I150000J0D01*
G01*
X51102500Y-59410000D01*
G75*
G02*
X51252500Y-59560000I0J-150000D01*
G01*
X51252500Y-59860000D01*
G75*
G02*
X51102500Y-60010000I-150000J0D01*
G01*
X49452500Y-60010000D01*
G75*
G02*
X49302500Y-59860000I0J150000D01*
G01*
G37*
G36*
G01*
X54252500Y-59860000D02*
X54252500Y-59560000D01*
G75*
G02*
X54402500Y-59410000I150000J0D01*
G01*
X56052500Y-59410000D01*
G75*
G02*
X56202500Y-59560000I0J-150000D01*
G01*
X56202500Y-59860000D01*
G75*
G02*
X56052500Y-60010000I-150000J0D01*
G01*
X54402500Y-60010000D01*
G75*
G02*
X54252500Y-59860000I0J150000D01*
G01*
G37*
G36*
G01*
X54252500Y-58590000D02*
X54252500Y-58290000D01*
G75*
G02*
X54402500Y-58140000I150000J0D01*
G01*
X56052500Y-58140000D01*
G75*
G02*
X56202500Y-58290000I0J-150000D01*
G01*
X56202500Y-58590000D01*
G75*
G02*
X56052500Y-58740000I-150000J0D01*
G01*
X54402500Y-58740000D01*
G75*
G02*
X54252500Y-58590000I0J150000D01*
G01*
G37*
G36*
G01*
X54252500Y-57320000D02*
X54252500Y-57020000D01*
G75*
G02*
X54402500Y-56870000I150000J0D01*
G01*
X56052500Y-56870000D01*
G75*
G02*
X56202500Y-57020000I0J-150000D01*
G01*
X56202500Y-57320000D01*
G75*
G02*
X56052500Y-57470000I-150000J0D01*
G01*
X54402500Y-57470000D01*
G75*
G02*
X54252500Y-57320000I0J150000D01*
G01*
G37*
G36*
G01*
X54252500Y-56050000D02*
X54252500Y-55750000D01*
G75*
G02*
X54402500Y-55600000I150000J0D01*
G01*
X56052500Y-55600000D01*
G75*
G02*
X56202500Y-55750000I0J-150000D01*
G01*
X56202500Y-56050000D01*
G75*
G02*
X56052500Y-56200000I-150000J0D01*
G01*
X54402500Y-56200000D01*
G75*
G02*
X54252500Y-56050000I0J150000D01*
G01*
G37*
G36*
G01*
X54252500Y-54780000D02*
X54252500Y-54480000D01*
G75*
G02*
X54402500Y-54330000I150000J0D01*
G01*
X56052500Y-54330000D01*
G75*
G02*
X56202500Y-54480000I0J-150000D01*
G01*
X56202500Y-54780000D01*
G75*
G02*
X56052500Y-54930000I-150000J0D01*
G01*
X54402500Y-54930000D01*
G75*
G02*
X54252500Y-54780000I0J150000D01*
G01*
G37*
G36*
G01*
X54252500Y-53510000D02*
X54252500Y-53210000D01*
G75*
G02*
X54402500Y-53060000I150000J0D01*
G01*
X56052500Y-53060000D01*
G75*
G02*
X56202500Y-53210000I0J-150000D01*
G01*
X56202500Y-53510000D01*
G75*
G02*
X56052500Y-53660000I-150000J0D01*
G01*
X54402500Y-53660000D01*
G75*
G02*
X54252500Y-53510000I0J150000D01*
G01*
G37*
G36*
G01*
X54252500Y-52240000D02*
X54252500Y-51940000D01*
G75*
G02*
X54402500Y-51790000I150000J0D01*
G01*
X56052500Y-51790000D01*
G75*
G02*
X56202500Y-51940000I0J-150000D01*
G01*
X56202500Y-52240000D01*
G75*
G02*
X56052500Y-52390000I-150000J0D01*
G01*
X54402500Y-52390000D01*
G75*
G02*
X54252500Y-52240000I0J150000D01*
G01*
G37*
G36*
G01*
X49177500Y-81575000D02*
X50127500Y-81575000D01*
G75*
G02*
X50377500Y-81825000I0J-250000D01*
G01*
X50377500Y-82500000D01*
G75*
G02*
X50127500Y-82750000I-250000J0D01*
G01*
X49177500Y-82750000D01*
G75*
G02*
X48927500Y-82500000I0J250000D01*
G01*
X48927500Y-81825000D01*
G75*
G02*
X49177500Y-81575000I250000J0D01*
G01*
G37*
G36*
G01*
X49177500Y-83650000D02*
X50127500Y-83650000D01*
G75*
G02*
X50377500Y-83900000I0J-250000D01*
G01*
X50377500Y-84575000D01*
G75*
G02*
X50127500Y-84825000I-250000J0D01*
G01*
X49177500Y-84825000D01*
G75*
G02*
X48927500Y-84575000I0J250000D01*
G01*
X48927500Y-83900000D01*
G75*
G02*
X49177500Y-83650000I250000J0D01*
G01*
G37*
G36*
G01*
X53380000Y-99897500D02*
X54580000Y-99897500D01*
G75*
G02*
X54830000Y-100147500I0J-250000D01*
G01*
X54830000Y-101347500D01*
G75*
G02*
X54580000Y-101597500I-250000J0D01*
G01*
X53380000Y-101597500D01*
G75*
G02*
X53130000Y-101347500I0J250000D01*
G01*
X53130000Y-100147500D01*
G75*
G02*
X53380000Y-99897500I250000J0D01*
G01*
G37*
D15*
X53980000Y-103287500D03*
X51440000Y-100747500D03*
X51440000Y-103287500D03*
X48900000Y-100747500D03*
X48900000Y-103287500D03*
X46360000Y-100747500D03*
X46360000Y-103287500D03*
X43820000Y-100747500D03*
X43820000Y-103287500D03*
G36*
G01*
X45625000Y-89475000D02*
X46575000Y-89475000D01*
G75*
G02*
X46825000Y-89725000I0J-250000D01*
G01*
X46825000Y-90400000D01*
G75*
G02*
X46575000Y-90650000I-250000J0D01*
G01*
X45625000Y-90650000D01*
G75*
G02*
X45375000Y-90400000I0J250000D01*
G01*
X45375000Y-89725000D01*
G75*
G02*
X45625000Y-89475000I250000J0D01*
G01*
G37*
G36*
G01*
X45625000Y-91550000D02*
X46575000Y-91550000D01*
G75*
G02*
X46825000Y-91800000I0J-250000D01*
G01*
X46825000Y-92475000D01*
G75*
G02*
X46575000Y-92725000I-250000J0D01*
G01*
X45625000Y-92725000D01*
G75*
G02*
X45375000Y-92475000I0J250000D01*
G01*
X45375000Y-91800000D01*
G75*
G02*
X45625000Y-91550000I250000J0D01*
G01*
G37*
G36*
G01*
X38000000Y-72550000D02*
X38000000Y-71650000D01*
G75*
G02*
X38250000Y-71400000I250000J0D01*
G01*
X38950000Y-71400000D01*
G75*
G02*
X39200000Y-71650000I0J-250000D01*
G01*
X39200000Y-72550000D01*
G75*
G02*
X38950000Y-72800000I-250000J0D01*
G01*
X38250000Y-72800000D01*
G75*
G02*
X38000000Y-72550000I0J250000D01*
G01*
G37*
G36*
G01*
X40000000Y-72550000D02*
X40000000Y-71650000D01*
G75*
G02*
X40250000Y-71400000I250000J0D01*
G01*
X40950000Y-71400000D01*
G75*
G02*
X41200000Y-71650000I0J-250000D01*
G01*
X41200000Y-72550000D01*
G75*
G02*
X40950000Y-72800000I-250000J0D01*
G01*
X40250000Y-72800000D01*
G75*
G02*
X40000000Y-72550000I0J250000D01*
G01*
G37*
G36*
G01*
X45452500Y-54150000D02*
X45452500Y-53250000D01*
G75*
G02*
X45702500Y-53000000I250000J0D01*
G01*
X46402500Y-53000000D01*
G75*
G02*
X46652500Y-53250000I0J-250000D01*
G01*
X46652500Y-54150000D01*
G75*
G02*
X46402500Y-54400000I-250000J0D01*
G01*
X45702500Y-54400000D01*
G75*
G02*
X45452500Y-54150000I0J250000D01*
G01*
G37*
G36*
G01*
X47452500Y-54150000D02*
X47452500Y-53250000D01*
G75*
G02*
X47702500Y-53000000I250000J0D01*
G01*
X48402500Y-53000000D01*
G75*
G02*
X48652500Y-53250000I0J-250000D01*
G01*
X48652500Y-54150000D01*
G75*
G02*
X48402500Y-54400000I-250000J0D01*
G01*
X47702500Y-54400000D01*
G75*
G02*
X47452500Y-54150000I0J250000D01*
G01*
G37*
G36*
G01*
X56852500Y-60450000D02*
X56852500Y-59550000D01*
G75*
G02*
X57102500Y-59300000I250000J0D01*
G01*
X57802500Y-59300000D01*
G75*
G02*
X58052500Y-59550000I0J-250000D01*
G01*
X58052500Y-60450000D01*
G75*
G02*
X57802500Y-60700000I-250000J0D01*
G01*
X57102500Y-60700000D01*
G75*
G02*
X56852500Y-60450000I0J250000D01*
G01*
G37*
G36*
G01*
X58852500Y-60450000D02*
X58852500Y-59550000D01*
G75*
G02*
X59102500Y-59300000I250000J0D01*
G01*
X59802500Y-59300000D01*
G75*
G02*
X60052500Y-59550000I0J-250000D01*
G01*
X60052500Y-60450000D01*
G75*
G02*
X59802500Y-60700000I-250000J0D01*
G01*
X59102500Y-60700000D01*
G75*
G02*
X58852500Y-60450000I0J250000D01*
G01*
G37*
G36*
G01*
X60077500Y-55425000D02*
X60077500Y-56375000D01*
G75*
G02*
X59827500Y-56625000I-250000J0D01*
G01*
X59152500Y-56625000D01*
G75*
G02*
X58902500Y-56375000I0J250000D01*
G01*
X58902500Y-55425000D01*
G75*
G02*
X59152500Y-55175000I250000J0D01*
G01*
X59827500Y-55175000D01*
G75*
G02*
X60077500Y-55425000I0J-250000D01*
G01*
G37*
G36*
G01*
X58002500Y-55425000D02*
X58002500Y-56375000D01*
G75*
G02*
X57752500Y-56625000I-250000J0D01*
G01*
X57077500Y-56625000D01*
G75*
G02*
X56827500Y-56375000I0J250000D01*
G01*
X56827500Y-55425000D01*
G75*
G02*
X57077500Y-55175000I250000J0D01*
G01*
X57752500Y-55175000D01*
G75*
G02*
X58002500Y-55425000I0J-250000D01*
G01*
G37*
G36*
G01*
X54877500Y-73175000D02*
X55827500Y-73175000D01*
G75*
G02*
X56077500Y-73425000I0J-250000D01*
G01*
X56077500Y-74100000D01*
G75*
G02*
X55827500Y-74350000I-250000J0D01*
G01*
X54877500Y-74350000D01*
G75*
G02*
X54627500Y-74100000I0J250000D01*
G01*
X54627500Y-73425000D01*
G75*
G02*
X54877500Y-73175000I250000J0D01*
G01*
G37*
G36*
G01*
X54877500Y-75250000D02*
X55827500Y-75250000D01*
G75*
G02*
X56077500Y-75500000I0J-250000D01*
G01*
X56077500Y-76175000D01*
G75*
G02*
X55827500Y-76425000I-250000J0D01*
G01*
X54877500Y-76425000D01*
G75*
G02*
X54627500Y-76175000I0J250000D01*
G01*
X54627500Y-75500000D01*
G75*
G02*
X54877500Y-75250000I250000J0D01*
G01*
G37*
G36*
G01*
X38352500Y-57550000D02*
X38352500Y-56650000D01*
G75*
G02*
X38602500Y-56400000I250000J0D01*
G01*
X39302500Y-56400000D01*
G75*
G02*
X39552500Y-56650000I0J-250000D01*
G01*
X39552500Y-57550000D01*
G75*
G02*
X39302500Y-57800000I-250000J0D01*
G01*
X38602500Y-57800000D01*
G75*
G02*
X38352500Y-57550000I0J250000D01*
G01*
G37*
G36*
G01*
X40352500Y-57550000D02*
X40352500Y-56650000D01*
G75*
G02*
X40602500Y-56400000I250000J0D01*
G01*
X41302500Y-56400000D01*
G75*
G02*
X41552500Y-56650000I0J-250000D01*
G01*
X41552500Y-57550000D01*
G75*
G02*
X41302500Y-57800000I-250000J0D01*
G01*
X40602500Y-57800000D01*
G75*
G02*
X40352500Y-57550000I0J250000D01*
G01*
G37*
D14*
X56402500Y-64400000D03*
X59702500Y-64400000D03*
G36*
G01*
X49352500Y-62050000D02*
X49352500Y-61150000D01*
G75*
G02*
X49602500Y-60900000I250000J0D01*
G01*
X50302500Y-60900000D01*
G75*
G02*
X50552500Y-61150000I0J-250000D01*
G01*
X50552500Y-62050000D01*
G75*
G02*
X50302500Y-62300000I-250000J0D01*
G01*
X49602500Y-62300000D01*
G75*
G02*
X49352500Y-62050000I0J250000D01*
G01*
G37*
G36*
G01*
X51352500Y-62050000D02*
X51352500Y-61150000D01*
G75*
G02*
X51602500Y-60900000I250000J0D01*
G01*
X52302500Y-60900000D01*
G75*
G02*
X52552500Y-61150000I0J-250000D01*
G01*
X52552500Y-62050000D01*
G75*
G02*
X52302500Y-62300000I-250000J0D01*
G01*
X51602500Y-62300000D01*
G75*
G02*
X51352500Y-62050000I0J250000D01*
G01*
G37*
G36*
G01*
X45452500Y-52150000D02*
X45452500Y-51250000D01*
G75*
G02*
X45702500Y-51000000I250000J0D01*
G01*
X46402500Y-51000000D01*
G75*
G02*
X46652500Y-51250000I0J-250000D01*
G01*
X46652500Y-52150000D01*
G75*
G02*
X46402500Y-52400000I-250000J0D01*
G01*
X45702500Y-52400000D01*
G75*
G02*
X45452500Y-52150000I0J250000D01*
G01*
G37*
G36*
G01*
X47452500Y-52150000D02*
X47452500Y-51250000D01*
G75*
G02*
X47702500Y-51000000I250000J0D01*
G01*
X48402500Y-51000000D01*
G75*
G02*
X48652500Y-51250000I0J-250000D01*
G01*
X48652500Y-52150000D01*
G75*
G02*
X48402500Y-52400000I-250000J0D01*
G01*
X47702500Y-52400000D01*
G75*
G02*
X47452500Y-52150000I0J250000D01*
G01*
G37*
D16*
X60401000Y-71380000D03*
D15*
X57861000Y-71380000D03*
X55321000Y-71380000D03*
X52781000Y-71380000D03*
X50241000Y-71380000D03*
X47701000Y-71380000D03*
X45161000Y-71380000D03*
X45161000Y-86620000D03*
X47701000Y-86620000D03*
X50241000Y-86620000D03*
X52781000Y-86620000D03*
X55321000Y-86620000D03*
X57861000Y-86620000D03*
X60401000Y-86620000D03*
G36*
G01*
X52277500Y-73175000D02*
X53227500Y-73175000D01*
G75*
G02*
X53477500Y-73425000I0J-250000D01*
G01*
X53477500Y-74100000D01*
G75*
G02*
X53227500Y-74350000I-250000J0D01*
G01*
X52277500Y-74350000D01*
G75*
G02*
X52027500Y-74100000I0J250000D01*
G01*
X52027500Y-73425000D01*
G75*
G02*
X52277500Y-73175000I250000J0D01*
G01*
G37*
G36*
G01*
X52277500Y-75250000D02*
X53227500Y-75250000D01*
G75*
G02*
X53477500Y-75500000I0J-250000D01*
G01*
X53477500Y-76175000D01*
G75*
G02*
X53227500Y-76425000I-250000J0D01*
G01*
X52277500Y-76425000D01*
G75*
G02*
X52027500Y-76175000I0J250000D01*
G01*
X52027500Y-75500000D01*
G75*
G02*
X52277500Y-75250000I250000J0D01*
G01*
G37*
G36*
G01*
X59877500Y-73175000D02*
X60827500Y-73175000D01*
G75*
G02*
X61077500Y-73425000I0J-250000D01*
G01*
X61077500Y-74100000D01*
G75*
G02*
X60827500Y-74350000I-250000J0D01*
G01*
X59877500Y-74350000D01*
G75*
G02*
X59627500Y-74100000I0J250000D01*
G01*
X59627500Y-73425000D01*
G75*
G02*
X59877500Y-73175000I250000J0D01*
G01*
G37*
G36*
G01*
X59877500Y-75250000D02*
X60827500Y-75250000D01*
G75*
G02*
X61077500Y-75500000I0J-250000D01*
G01*
X61077500Y-76175000D01*
G75*
G02*
X60827500Y-76425000I-250000J0D01*
G01*
X59877500Y-76425000D01*
G75*
G02*
X59627500Y-76175000I0J250000D01*
G01*
X59627500Y-75500000D01*
G75*
G02*
X59877500Y-75250000I250000J0D01*
G01*
G37*
D14*
X45650000Y-65700000D03*
X42350000Y-65700000D03*
G36*
G01*
X38352500Y-55050000D02*
X38352500Y-54150000D01*
G75*
G02*
X38602500Y-53900000I250000J0D01*
G01*
X39302500Y-53900000D01*
G75*
G02*
X39552500Y-54150000I0J-250000D01*
G01*
X39552500Y-55050000D01*
G75*
G02*
X39302500Y-55300000I-250000J0D01*
G01*
X38602500Y-55300000D01*
G75*
G02*
X38352500Y-55050000I0J250000D01*
G01*
G37*
G36*
G01*
X40352500Y-55050000D02*
X40352500Y-54150000D01*
G75*
G02*
X40602500Y-53900000I250000J0D01*
G01*
X41302500Y-53900000D01*
G75*
G02*
X41552500Y-54150000I0J-250000D01*
G01*
X41552500Y-55050000D01*
G75*
G02*
X41302500Y-55300000I-250000J0D01*
G01*
X40602500Y-55300000D01*
G75*
G02*
X40352500Y-55050000I0J250000D01*
G01*
G37*
G36*
G01*
X51425000Y-89475000D02*
X52375000Y-89475000D01*
G75*
G02*
X52625000Y-89725000I0J-250000D01*
G01*
X52625000Y-90400000D01*
G75*
G02*
X52375000Y-90650000I-250000J0D01*
G01*
X51425000Y-90650000D01*
G75*
G02*
X51175000Y-90400000I0J250000D01*
G01*
X51175000Y-89725000D01*
G75*
G02*
X51425000Y-89475000I250000J0D01*
G01*
G37*
G36*
G01*
X51425000Y-91550000D02*
X52375000Y-91550000D01*
G75*
G02*
X52625000Y-91800000I0J-250000D01*
G01*
X52625000Y-92475000D01*
G75*
G02*
X52375000Y-92725000I-250000J0D01*
G01*
X51425000Y-92725000D01*
G75*
G02*
X51175000Y-92475000I0J250000D01*
G01*
X51175000Y-91800000D01*
G75*
G02*
X51425000Y-91550000I250000J0D01*
G01*
G37*
G36*
G01*
X48677500Y-55425000D02*
X48677500Y-56375000D01*
G75*
G02*
X48427500Y-56625000I-250000J0D01*
G01*
X47752500Y-56625000D01*
G75*
G02*
X47502500Y-56375000I0J250000D01*
G01*
X47502500Y-55425000D01*
G75*
G02*
X47752500Y-55175000I250000J0D01*
G01*
X48427500Y-55175000D01*
G75*
G02*
X48677500Y-55425000I0J-250000D01*
G01*
G37*
G36*
G01*
X46602500Y-55425000D02*
X46602500Y-56375000D01*
G75*
G02*
X46352500Y-56625000I-250000J0D01*
G01*
X45677500Y-56625000D01*
G75*
G02*
X45427500Y-56375000I0J250000D01*
G01*
X45427500Y-55425000D01*
G75*
G02*
X45677500Y-55175000I250000J0D01*
G01*
X46352500Y-55175000D01*
G75*
G02*
X46602500Y-55425000I0J-250000D01*
G01*
G37*
G36*
G01*
X38352500Y-52550000D02*
X38352500Y-51650000D01*
G75*
G02*
X38602500Y-51400000I250000J0D01*
G01*
X39302500Y-51400000D01*
G75*
G02*
X39552500Y-51650000I0J-250000D01*
G01*
X39552500Y-52550000D01*
G75*
G02*
X39302500Y-52800000I-250000J0D01*
G01*
X38602500Y-52800000D01*
G75*
G02*
X38352500Y-52550000I0J250000D01*
G01*
G37*
G36*
G01*
X40352500Y-52550000D02*
X40352500Y-51650000D01*
G75*
G02*
X40602500Y-51400000I250000J0D01*
G01*
X41302500Y-51400000D01*
G75*
G02*
X41552500Y-51650000I0J-250000D01*
G01*
X41552500Y-52550000D01*
G75*
G02*
X41302500Y-52800000I-250000J0D01*
G01*
X40602500Y-52800000D01*
G75*
G02*
X40352500Y-52550000I0J250000D01*
G01*
G37*
G36*
G01*
X55827500Y-84825000D02*
X54877500Y-84825000D01*
G75*
G02*
X54627500Y-84575000I0J250000D01*
G01*
X54627500Y-83900000D01*
G75*
G02*
X54877500Y-83650000I250000J0D01*
G01*
X55827500Y-83650000D01*
G75*
G02*
X56077500Y-83900000I0J-250000D01*
G01*
X56077500Y-84575000D01*
G75*
G02*
X55827500Y-84825000I-250000J0D01*
G01*
G37*
G36*
G01*
X55827500Y-82750000D02*
X54877500Y-82750000D01*
G75*
G02*
X54627500Y-82500000I0J250000D01*
G01*
X54627500Y-81825000D01*
G75*
G02*
X54877500Y-81575000I250000J0D01*
G01*
X55827500Y-81575000D01*
G75*
G02*
X56077500Y-81825000I0J-250000D01*
G01*
X56077500Y-82500000D01*
G75*
G02*
X55827500Y-82750000I-250000J0D01*
G01*
G37*
D17*
X48050000Y-92550000D03*
X49000000Y-92550000D03*
X49950000Y-92550000D03*
X49950000Y-90050000D03*
X48050000Y-90050000D03*
G36*
G01*
X56852500Y-54150000D02*
X56852500Y-53250000D01*
G75*
G02*
X57102500Y-53000000I250000J0D01*
G01*
X57802500Y-53000000D01*
G75*
G02*
X58052500Y-53250000I0J-250000D01*
G01*
X58052500Y-54150000D01*
G75*
G02*
X57802500Y-54400000I-250000J0D01*
G01*
X57102500Y-54400000D01*
G75*
G02*
X56852500Y-54150000I0J250000D01*
G01*
G37*
G36*
G01*
X58852500Y-54150000D02*
X58852500Y-53250000D01*
G75*
G02*
X59102500Y-53000000I250000J0D01*
G01*
X59802500Y-53000000D01*
G75*
G02*
X60052500Y-53250000I0J-250000D01*
G01*
X60052500Y-54150000D01*
G75*
G02*
X59802500Y-54400000I-250000J0D01*
G01*
X59102500Y-54400000D01*
G75*
G02*
X58852500Y-54150000I0J250000D01*
G01*
G37*
D16*
X36300000Y-67800000D03*
D18*
X36300000Y-70340000D03*
X36300000Y-72880000D03*
X36300000Y-75420000D03*
X36300000Y-77960000D03*
X36300000Y-80500000D03*
X36300000Y-83040000D03*
X36300000Y-85580000D03*
D16*
X36300000Y-49500000D03*
D18*
X36300000Y-52040000D03*
X36300000Y-54580000D03*
X36300000Y-57120000D03*
X36300000Y-59660000D03*
X36300000Y-62200000D03*
M02*
