G04 #@! TF.GenerationSoftware,KiCad,Pcbnew,7.0.1.1-36-gbcf78dbe24-dirty-deb11*
G04 #@! TF.CreationDate,2023-04-09T19:21:00+00:00*
G04 #@! TF.ProjectId,RP2040-VCO,52503230-3430-42d5-9643-4f2e6b696361,rev?*
G04 #@! TF.SameCoordinates,Original*
G04 #@! TF.FileFunction,Legend,Bot*
G04 #@! TF.FilePolarity,Positive*
%FSLAX46Y46*%
G04 Gerber Fmt 4.6, Leading zero omitted, Abs format (unit mm)*
G04 Created by KiCad (PCBNEW 7.0.1.1-36-gbcf78dbe24-dirty-deb11) date 2023-04-09 19:21:00*
%MOMM*%
%LPD*%
G01*
G04 APERTURE LIST*
%ADD10C,0.300000*%
%ADD11C,0.150000*%
%ADD12C,0.120000*%
%ADD13C,3.200000*%
%ADD14R,1.700000X1.700000*%
%ADD15O,1.700000X1.700000*%
%ADD16C,1.700000*%
G04 APERTURE END LIST*
D10*
X68428571Y-143293928D02*
X68428571Y-144365357D01*
X68428571Y-144365357D02*
X68500000Y-144579642D01*
X68500000Y-144579642D02*
X68642857Y-144722500D01*
X68642857Y-144722500D02*
X68857143Y-144793928D01*
X68857143Y-144793928D02*
X69000000Y-144793928D01*
X67000000Y-144793928D02*
X67714286Y-144793928D01*
X67714286Y-144793928D02*
X67714286Y-143293928D01*
X65642857Y-144651071D02*
X65714285Y-144722500D01*
X65714285Y-144722500D02*
X65928571Y-144793928D01*
X65928571Y-144793928D02*
X66071428Y-144793928D01*
X66071428Y-144793928D02*
X66285714Y-144722500D01*
X66285714Y-144722500D02*
X66428571Y-144579642D01*
X66428571Y-144579642D02*
X66500000Y-144436785D01*
X66500000Y-144436785D02*
X66571428Y-144151071D01*
X66571428Y-144151071D02*
X66571428Y-143936785D01*
X66571428Y-143936785D02*
X66500000Y-143651071D01*
X66500000Y-143651071D02*
X66428571Y-143508214D01*
X66428571Y-143508214D02*
X66285714Y-143365357D01*
X66285714Y-143365357D02*
X66071428Y-143293928D01*
X66071428Y-143293928D02*
X65928571Y-143293928D01*
X65928571Y-143293928D02*
X65714285Y-143365357D01*
X65714285Y-143365357D02*
X65642857Y-143436785D01*
X64571428Y-143293928D02*
X64571428Y-144365357D01*
X64571428Y-144365357D02*
X64642857Y-144579642D01*
X64642857Y-144579642D02*
X64785714Y-144722500D01*
X64785714Y-144722500D02*
X65000000Y-144793928D01*
X65000000Y-144793928D02*
X65142857Y-144793928D01*
X63142857Y-144793928D02*
X63857143Y-144793928D01*
X63857143Y-144793928D02*
X63857143Y-143293928D01*
X61785714Y-144651071D02*
X61857142Y-144722500D01*
X61857142Y-144722500D02*
X62071428Y-144793928D01*
X62071428Y-144793928D02*
X62214285Y-144793928D01*
X62214285Y-144793928D02*
X62428571Y-144722500D01*
X62428571Y-144722500D02*
X62571428Y-144579642D01*
X62571428Y-144579642D02*
X62642857Y-144436785D01*
X62642857Y-144436785D02*
X62714285Y-144151071D01*
X62714285Y-144151071D02*
X62714285Y-143936785D01*
X62714285Y-143936785D02*
X62642857Y-143651071D01*
X62642857Y-143651071D02*
X62571428Y-143508214D01*
X62571428Y-143508214D02*
X62428571Y-143365357D01*
X62428571Y-143365357D02*
X62214285Y-143293928D01*
X62214285Y-143293928D02*
X62071428Y-143293928D01*
X62071428Y-143293928D02*
X61857142Y-143365357D01*
X61857142Y-143365357D02*
X61785714Y-143436785D01*
X60714285Y-143293928D02*
X60714285Y-144365357D01*
X60714285Y-144365357D02*
X60785714Y-144579642D01*
X60785714Y-144579642D02*
X60928571Y-144722500D01*
X60928571Y-144722500D02*
X61142857Y-144793928D01*
X61142857Y-144793928D02*
X61285714Y-144793928D01*
X59285714Y-144793928D02*
X60000000Y-144793928D01*
X60000000Y-144793928D02*
X60000000Y-143293928D01*
X57928571Y-144651071D02*
X57999999Y-144722500D01*
X57999999Y-144722500D02*
X58214285Y-144793928D01*
X58214285Y-144793928D02*
X58357142Y-144793928D01*
X58357142Y-144793928D02*
X58571428Y-144722500D01*
X58571428Y-144722500D02*
X58714285Y-144579642D01*
X58714285Y-144579642D02*
X58785714Y-144436785D01*
X58785714Y-144436785D02*
X58857142Y-144151071D01*
X58857142Y-144151071D02*
X58857142Y-143936785D01*
X58857142Y-143936785D02*
X58785714Y-143651071D01*
X58785714Y-143651071D02*
X58714285Y-143508214D01*
X58714285Y-143508214D02*
X58571428Y-143365357D01*
X58571428Y-143365357D02*
X58357142Y-143293928D01*
X58357142Y-143293928D02*
X58214285Y-143293928D01*
X58214285Y-143293928D02*
X57999999Y-143365357D01*
X57999999Y-143365357D02*
X57928571Y-143436785D01*
X56857142Y-143293928D02*
X56857142Y-144365357D01*
X56857142Y-144365357D02*
X56928571Y-144579642D01*
X56928571Y-144579642D02*
X57071428Y-144722500D01*
X57071428Y-144722500D02*
X57285714Y-144793928D01*
X57285714Y-144793928D02*
X57428571Y-144793928D01*
X55428571Y-144793928D02*
X56142857Y-144793928D01*
X56142857Y-144793928D02*
X56142857Y-143293928D01*
X54071428Y-144651071D02*
X54142856Y-144722500D01*
X54142856Y-144722500D02*
X54357142Y-144793928D01*
X54357142Y-144793928D02*
X54499999Y-144793928D01*
X54499999Y-144793928D02*
X54714285Y-144722500D01*
X54714285Y-144722500D02*
X54857142Y-144579642D01*
X54857142Y-144579642D02*
X54928571Y-144436785D01*
X54928571Y-144436785D02*
X54999999Y-144151071D01*
X54999999Y-144151071D02*
X54999999Y-143936785D01*
X54999999Y-143936785D02*
X54928571Y-143651071D01*
X54928571Y-143651071D02*
X54857142Y-143508214D01*
X54857142Y-143508214D02*
X54714285Y-143365357D01*
X54714285Y-143365357D02*
X54499999Y-143293928D01*
X54499999Y-143293928D02*
X54357142Y-143293928D01*
X54357142Y-143293928D02*
X54142856Y-143365357D01*
X54142856Y-143365357D02*
X54071428Y-143436785D01*
D11*
X55462619Y-135446666D02*
X56176904Y-135446666D01*
X56176904Y-135446666D02*
X56319761Y-135399047D01*
X56319761Y-135399047D02*
X56415000Y-135303809D01*
X56415000Y-135303809D02*
X56462619Y-135160952D01*
X56462619Y-135160952D02*
X56462619Y-135065714D01*
X55891190Y-136065714D02*
X55843571Y-135970476D01*
X55843571Y-135970476D02*
X55795952Y-135922857D01*
X55795952Y-135922857D02*
X55700714Y-135875238D01*
X55700714Y-135875238D02*
X55653095Y-135875238D01*
X55653095Y-135875238D02*
X55557857Y-135922857D01*
X55557857Y-135922857D02*
X55510238Y-135970476D01*
X55510238Y-135970476D02*
X55462619Y-136065714D01*
X55462619Y-136065714D02*
X55462619Y-136256190D01*
X55462619Y-136256190D02*
X55510238Y-136351428D01*
X55510238Y-136351428D02*
X55557857Y-136399047D01*
X55557857Y-136399047D02*
X55653095Y-136446666D01*
X55653095Y-136446666D02*
X55700714Y-136446666D01*
X55700714Y-136446666D02*
X55795952Y-136399047D01*
X55795952Y-136399047D02*
X55843571Y-136351428D01*
X55843571Y-136351428D02*
X55891190Y-136256190D01*
X55891190Y-136256190D02*
X55891190Y-136065714D01*
X55891190Y-136065714D02*
X55938809Y-135970476D01*
X55938809Y-135970476D02*
X55986428Y-135922857D01*
X55986428Y-135922857D02*
X56081666Y-135875238D01*
X56081666Y-135875238D02*
X56272142Y-135875238D01*
X56272142Y-135875238D02*
X56367380Y-135922857D01*
X56367380Y-135922857D02*
X56415000Y-135970476D01*
X56415000Y-135970476D02*
X56462619Y-136065714D01*
X56462619Y-136065714D02*
X56462619Y-136256190D01*
X56462619Y-136256190D02*
X56415000Y-136351428D01*
X56415000Y-136351428D02*
X56367380Y-136399047D01*
X56367380Y-136399047D02*
X56272142Y-136446666D01*
X56272142Y-136446666D02*
X56081666Y-136446666D01*
X56081666Y-136446666D02*
X55986428Y-136399047D01*
X55986428Y-136399047D02*
X55938809Y-136351428D01*
X55938809Y-136351428D02*
X55891190Y-136256190D01*
X60738095Y-99437380D02*
X60738095Y-98627857D01*
X60738095Y-98627857D02*
X60785714Y-98532619D01*
X60785714Y-98532619D02*
X60833333Y-98485000D01*
X60833333Y-98485000D02*
X60928571Y-98437380D01*
X60928571Y-98437380D02*
X61119047Y-98437380D01*
X61119047Y-98437380D02*
X61214285Y-98485000D01*
X61214285Y-98485000D02*
X61261904Y-98532619D01*
X61261904Y-98532619D02*
X61309523Y-98627857D01*
X61309523Y-98627857D02*
X61309523Y-99437380D01*
X61690476Y-99437380D02*
X62309523Y-99437380D01*
X62309523Y-99437380D02*
X61976190Y-99056428D01*
X61976190Y-99056428D02*
X62119047Y-99056428D01*
X62119047Y-99056428D02*
X62214285Y-99008809D01*
X62214285Y-99008809D02*
X62261904Y-98961190D01*
X62261904Y-98961190D02*
X62309523Y-98865952D01*
X62309523Y-98865952D02*
X62309523Y-98627857D01*
X62309523Y-98627857D02*
X62261904Y-98532619D01*
X62261904Y-98532619D02*
X62214285Y-98485000D01*
X62214285Y-98485000D02*
X62119047Y-98437380D01*
X62119047Y-98437380D02*
X61833333Y-98437380D01*
X61833333Y-98437380D02*
X61738095Y-98485000D01*
X61738095Y-98485000D02*
X61690476Y-98532619D01*
D12*
X55620000Y-140380000D02*
X56620000Y-140880000D01*
X55620000Y-141380000D02*
X55620000Y-140380000D01*
X56620000Y-140880000D02*
X55620000Y-141380000D01*
X57010000Y-125510000D02*
X57010000Y-146090000D01*
X57010000Y-137850000D02*
X58320000Y-137850000D01*
X57010000Y-146090000D02*
X66130000Y-146090000D01*
X58320000Y-126810000D02*
X58320000Y-133750000D01*
X58320000Y-133750000D02*
X57010000Y-133750000D01*
X58320000Y-133750000D02*
X58320000Y-133750000D01*
X58320000Y-137850000D02*
X58320000Y-144790000D01*
X58320000Y-144790000D02*
X64820000Y-144790000D01*
X64820000Y-126810000D02*
X58320000Y-126810000D01*
X64820000Y-144790000D02*
X64820000Y-126810000D01*
X66130000Y-125510000D02*
X57010000Y-125510000D01*
X66130000Y-146090000D02*
X66130000Y-125510000D01*
X52570000Y-101500000D02*
X55230000Y-101500000D01*
X52570000Y-116800000D02*
X52570000Y-101500000D01*
X52570000Y-116800000D02*
X55230000Y-116800000D01*
X52570000Y-118070000D02*
X52570000Y-119400000D01*
X52570000Y-119400000D02*
X53900000Y-119400000D01*
X55230000Y-116800000D02*
X55230000Y-101500000D01*
X67770000Y-101500000D02*
X70430000Y-101500000D01*
X67770000Y-119400000D02*
X67770000Y-101500000D01*
X67770000Y-119400000D02*
X70430000Y-119400000D01*
X70430000Y-119400000D02*
X70430000Y-101500000D01*
X52356000Y-121168000D02*
X70644000Y-121168000D01*
X70644000Y-121168000D02*
X70644000Y-99832000D01*
X70644000Y-99832000D02*
X52356000Y-99832000D01*
X52356000Y-99832000D02*
X52356000Y-121168000D01*
X56420000Y-121504000D02*
X66580000Y-121504000D01*
X66580000Y-121504000D02*
X66580000Y-114900000D01*
X66580000Y-114900000D02*
X56420000Y-114900000D01*
X56420000Y-114900000D02*
X56420000Y-121504000D01*
%LPC*%
D13*
X68000000Y-96000000D03*
D14*
X69700000Y-49500000D03*
D15*
X69700000Y-52040000D03*
X69700000Y-54580000D03*
X69700000Y-57120000D03*
X69700000Y-59660000D03*
X69700000Y-62200000D03*
D14*
X53300000Y-67800000D03*
D15*
X53300000Y-70340000D03*
X53300000Y-72880000D03*
X53300000Y-75420000D03*
X53300000Y-77960000D03*
X53300000Y-80500000D03*
X53300000Y-83040000D03*
X53300000Y-85580000D03*
G36*
G01*
X59450000Y-141480000D02*
X59450000Y-140280000D01*
G75*
G02*
X59700000Y-140030000I250000J0D01*
G01*
X60900000Y-140030000D01*
G75*
G02*
X61150000Y-140280000I0J-250000D01*
G01*
X61150000Y-141480000D01*
G75*
G02*
X60900000Y-141730000I-250000J0D01*
G01*
X59700000Y-141730000D01*
G75*
G02*
X59450000Y-141480000I0J250000D01*
G01*
G37*
D16*
X62840000Y-140880000D03*
X60300000Y-138340000D03*
X62840000Y-138340000D03*
X60300000Y-135800000D03*
X62840000Y-135800000D03*
X60300000Y-133260000D03*
X62840000Y-133260000D03*
X60300000Y-130720000D03*
X62840000Y-130720000D03*
D14*
X53880000Y-118120000D03*
D16*
X53880000Y-115580000D03*
X53880000Y-113040000D03*
X53880000Y-110500000D03*
X53880000Y-107960000D03*
X53880000Y-105420000D03*
X53880000Y-102880000D03*
X69120000Y-102880000D03*
X69120000Y-105420000D03*
X69120000Y-107960000D03*
X69120000Y-110500000D03*
X69120000Y-113040000D03*
X69120000Y-115580000D03*
X69120000Y-118120000D03*
M02*
