M48
; DRILL file {KiCad 6.0.10+dfsg-1~bpo11+1} date Sat Feb 18 13:23:28 2023
; FORMAT={-:-/ absolute / metric / decimal}
; #@! TF.CreationDate,2023-02-18T13:23:28+00:00
; #@! TF.GenerationSoftware,Kicad,Pcbnew,6.0.10+dfsg-1~bpo11+1
; #@! TF.FileFunction,Plated,1,2,PTH
FMAT,2
METRIC
; #@! TA.AperFunction,Plated,PTH,ViaDrill
T1C0.400
; #@! TA.AperFunction,Plated,PTH,ComponentDrill
T2C1.000
%
G90
G05
T1
X39.6Y-62.6
X39.6Y-83.4
X40.2Y-69.5
X40.4Y-83.0
X40.4Y-83.9
X41.1Y-69.5
X41.1Y-70.4
X41.9Y-59.9
X41.9Y-60.8
X43.4Y-63.4
X44.1Y-93.1
X44.1Y-94.0
X44.3Y-63.4
X44.3Y-89.3
X44.7Y-54.4
X44.7Y-55.3
X45.2Y-63.4
X45.2Y-96.4
X46.1Y-96.4
X46.8Y-65.7
X47.0Y-96.4
X47.4Y-61.6
X49.0Y-77.8
X49.4Y-63.4
X50.0Y-64.1
X50.5Y-64.8
X50.7Y-96.0
X51.4Y-65.7
X51.6Y-95.1
X51.6Y-96.0
X51.9Y-55.9
X52.0Y-53.3
X52.5Y-95.1
X52.5Y-96.0
X52.8Y-57.0
X52.8Y-57.9
X52.8Y-58.9
X52.9Y-48.8
X53.3Y-52.5
X53.3Y-53.4
X53.3Y-54.4
X53.6Y-55.9
X53.8Y-48.8
X54.0Y-77.3
X54.0Y-78.2
X54.1Y-61.8
X54.1Y-62.7
X54.1Y-63.6
X54.1Y-64.5
X54.7Y-48.8
X55.6Y-48.8
X56.2Y-80.0
X56.5Y-48.8
X56.6Y-77.3
X56.6Y-78.2
X57.1Y-80.0
X58.0Y-80.0
X58.1Y-64.4
X58.9Y-80.0
X59.1Y-77.2
X59.1Y-78.1
X60.4Y-68.7
X60.8Y-55.9
X60.8Y-56.9
X60.9Y-67.9
X61.2Y-63.1
X61.4Y-68.7
T2
X36.3Y-49.5
X36.3Y-52.04
X36.3Y-54.58
X36.3Y-57.12
X36.3Y-59.66
X36.3Y-62.2
X36.3Y-67.8
X36.3Y-70.34
X36.3Y-72.88
X36.3Y-75.42
X36.3Y-77.96
X36.3Y-80.5
X36.3Y-83.04
X36.3Y-85.58
X43.82Y-100.748
X43.82Y-103.287
X45.161Y-71.38
X45.161Y-86.62
X46.36Y-100.748
X46.36Y-103.287
X47.701Y-71.38
X47.701Y-86.62
X48.9Y-100.748
X48.9Y-103.287
X50.241Y-71.38
X50.241Y-86.62
X51.44Y-100.748
X51.44Y-103.287
X52.781Y-71.38
X52.781Y-86.62
X53.98Y-100.748
X53.98Y-103.287
X55.321Y-71.38
X55.321Y-86.62
X57.861Y-71.38
X57.861Y-86.62
X60.401Y-71.38
X60.401Y-86.62
T0
M30
