G04 #@! TF.GenerationSoftware,KiCad,Pcbnew,6.0.10+dfsg-1~bpo11+1*
G04 #@! TF.CreationDate,2023-02-18T13:23:28+00:00*
G04 #@! TF.ProjectId,RP2040-VCO,52503230-3430-42d5-9643-4f2e6b696361,rev?*
G04 #@! TF.SameCoordinates,Original*
G04 #@! TF.FileFunction,Copper,L2,Bot*
G04 #@! TF.FilePolarity,Positive*
%FSLAX46Y46*%
G04 Gerber Fmt 4.6, Leading zero omitted, Abs format (unit mm)*
G04 Created by KiCad (PCBNEW 6.0.10+dfsg-1~bpo11+1) date 2023-02-18 13:23:28*
%MOMM*%
%LPD*%
G01*
G04 APERTURE LIST*
G04 #@! TA.AperFunction,ComponentPad*
%ADD10C,1.700000*%
G04 #@! TD*
G04 #@! TA.AperFunction,ComponentPad*
%ADD11R,1.700000X1.700000*%
G04 #@! TD*
G04 #@! TA.AperFunction,ComponentPad*
%ADD12O,1.700000X1.700000*%
G04 #@! TD*
G04 #@! TA.AperFunction,ViaPad*
%ADD13C,0.800000*%
G04 #@! TD*
G04 #@! TA.AperFunction,Conductor*
%ADD14C,0.300000*%
G04 #@! TD*
G04 APERTURE END LIST*
G04 #@! TA.AperFunction,ComponentPad*
G36*
G01*
X53380000Y-99897500D02*
X54580000Y-99897500D01*
G75*
G02*
X54830000Y-100147500I0J-250000D01*
G01*
X54830000Y-101347500D01*
G75*
G02*
X54580000Y-101597500I-250000J0D01*
G01*
X53380000Y-101597500D01*
G75*
G02*
X53130000Y-101347500I0J250000D01*
G01*
X53130000Y-100147500D01*
G75*
G02*
X53380000Y-99897500I250000J0D01*
G01*
G37*
G04 #@! TD.AperFunction*
D10*
X53980000Y-103287500D03*
X51440000Y-100747500D03*
X51440000Y-103287500D03*
X48900000Y-100747500D03*
X48900000Y-103287500D03*
X46360000Y-100747500D03*
X46360000Y-103287500D03*
X43820000Y-100747500D03*
X43820000Y-103287500D03*
D11*
X60401000Y-71380000D03*
D10*
X57861000Y-71380000D03*
X55321000Y-71380000D03*
X52781000Y-71380000D03*
X50241000Y-71380000D03*
X47701000Y-71380000D03*
X45161000Y-71380000D03*
X45161000Y-86620000D03*
X47701000Y-86620000D03*
X50241000Y-86620000D03*
X52781000Y-86620000D03*
X55321000Y-86620000D03*
X57861000Y-86620000D03*
X60401000Y-86620000D03*
D11*
X36300000Y-67800000D03*
D12*
X36300000Y-70340000D03*
X36300000Y-72880000D03*
X36300000Y-75420000D03*
X36300000Y-77960000D03*
X36300000Y-80500000D03*
X36300000Y-83040000D03*
X36300000Y-85580000D03*
D11*
X36300000Y-49500000D03*
D12*
X36300000Y-52040000D03*
X36300000Y-54580000D03*
X36300000Y-57120000D03*
X36300000Y-59660000D03*
X36300000Y-62200000D03*
D13*
X54000000Y-77300000D03*
X44300000Y-63400000D03*
X47000000Y-96400000D03*
X40200000Y-69500000D03*
X56200000Y-80000000D03*
X50500000Y-64800000D03*
X59100000Y-77200000D03*
X60400000Y-68700000D03*
X41100000Y-69500000D03*
X44700000Y-54400000D03*
X51600000Y-95100000D03*
X53300000Y-53400000D03*
X56600000Y-78200000D03*
X54100000Y-63600000D03*
X54700000Y-48800000D03*
X52800000Y-58900000D03*
X53800000Y-48800000D03*
X61400000Y-68700000D03*
X52500000Y-95100000D03*
X41100000Y-70400000D03*
X44100000Y-94000000D03*
X60900000Y-67900000D03*
X44100000Y-93100000D03*
X53300000Y-52500000D03*
X45200000Y-63400000D03*
X52800000Y-57900000D03*
X50700000Y-96000000D03*
X52900000Y-48800000D03*
X56600000Y-77300000D03*
X49400000Y-63400000D03*
X40400000Y-83000000D03*
X54100000Y-64500000D03*
X54100000Y-61800000D03*
X59100000Y-78100000D03*
X50000000Y-64100000D03*
X46100000Y-96400000D03*
X60800000Y-56900000D03*
X52800000Y-57000000D03*
X56500000Y-48800000D03*
X58000000Y-80000000D03*
X55600000Y-48800000D03*
X41900000Y-60800000D03*
X54000000Y-78200000D03*
X58900000Y-80000000D03*
X52500000Y-96000000D03*
X58100000Y-64400000D03*
X39600000Y-83400000D03*
X45200000Y-96400000D03*
X40400000Y-83900000D03*
X41900000Y-59900000D03*
X43400000Y-63400000D03*
X57100000Y-80000000D03*
X60800000Y-55900000D03*
X44700000Y-55300000D03*
X51600000Y-96000000D03*
X53300000Y-54400000D03*
X54100000Y-62700000D03*
X61200000Y-63100000D03*
X51900000Y-55900000D03*
X53600000Y-55900000D03*
X44300000Y-89300000D03*
X46800000Y-65700000D03*
X51400000Y-65700000D03*
X39600000Y-62600000D03*
X47400000Y-61600000D03*
X49000000Y-77800000D03*
X52000000Y-53300000D03*
D14*
X45019511Y-104487011D02*
X43820000Y-103287500D01*
X63100000Y-98600000D02*
X57212989Y-104487011D01*
X63100000Y-61893573D02*
X63100000Y-98600000D01*
X57212989Y-104487011D02*
X45019511Y-104487011D01*
X51900000Y-55900000D02*
X52649511Y-55150489D01*
X52649511Y-55150489D02*
X56356916Y-55150489D01*
X56356916Y-55150489D02*
X63100000Y-61893573D01*
X53600000Y-55900000D02*
X56400000Y-55900000D01*
X62600480Y-62100480D02*
X62600480Y-92127020D01*
X62600480Y-92127020D02*
X53980000Y-100747500D01*
X56400000Y-55900000D02*
X62600480Y-62100480D01*
X44300000Y-89300000D02*
X37600000Y-89300000D01*
X35000000Y-86700000D02*
X35000000Y-60960000D01*
X35000000Y-60960000D02*
X36300000Y-59660000D01*
X37600000Y-89300000D02*
X35000000Y-86700000D01*
X46501489Y-77800489D02*
X55321000Y-86620000D01*
X39800000Y-65700000D02*
X46800000Y-65700000D01*
X36300000Y-62200000D02*
X39800000Y-65700000D01*
X46501489Y-65998511D02*
X46501489Y-77800489D01*
X51400000Y-65700000D02*
X46800000Y-65700000D01*
X46800000Y-65700000D02*
X46501489Y-65998511D01*
X47400000Y-61600000D02*
X40600000Y-61600000D01*
X40600000Y-61600000D02*
X39600000Y-62600000D01*
X52200000Y-62740030D02*
X52200000Y-67300000D01*
X51000000Y-54300000D02*
X51000000Y-61540030D01*
X51000000Y-61540030D02*
X52200000Y-62740030D01*
X52200000Y-67300000D02*
X49000000Y-70500000D01*
X49000000Y-70500000D02*
X49000000Y-77800000D01*
X52000000Y-53300000D02*
X51000000Y-54300000D01*
G04 #@! TA.AperFunction,Conductor*
G36*
X35829443Y-63474567D02*
G01*
X35919692Y-63509030D01*
X35924760Y-63510061D01*
X35924763Y-63510062D01*
X36032008Y-63531881D01*
X36138597Y-63553567D01*
X36143772Y-63553757D01*
X36143774Y-63553757D01*
X36356673Y-63561564D01*
X36356677Y-63561564D01*
X36361837Y-63561753D01*
X36366957Y-63561097D01*
X36366959Y-63561097D01*
X36436153Y-63552233D01*
X36583416Y-63533368D01*
X36602632Y-63527603D01*
X36673626Y-63527185D01*
X36727934Y-63559193D01*
X39276341Y-66107600D01*
X39284331Y-66116381D01*
X39284339Y-66116390D01*
X39288584Y-66123080D01*
X39294359Y-66128503D01*
X39340274Y-66171620D01*
X39343116Y-66174375D01*
X39363667Y-66194926D01*
X39366801Y-66197357D01*
X39367163Y-66197638D01*
X39376191Y-66205348D01*
X39409867Y-66236972D01*
X39416818Y-66240793D01*
X39416819Y-66240794D01*
X39428655Y-66247301D01*
X39445184Y-66258158D01*
X39455869Y-66266447D01*
X39455871Y-66266448D01*
X39462131Y-66271304D01*
X39504544Y-66289657D01*
X39515181Y-66294868D01*
X39555663Y-66317124D01*
X39563342Y-66319096D01*
X39563343Y-66319096D01*
X39576434Y-66322457D01*
X39595136Y-66328859D01*
X39614823Y-66337379D01*
X39622652Y-66338619D01*
X39660448Y-66344605D01*
X39672074Y-66347013D01*
X39709135Y-66356529D01*
X39709136Y-66356529D01*
X39716812Y-66358500D01*
X39738258Y-66358500D01*
X39757968Y-66360051D01*
X39779151Y-66363406D01*
X39825135Y-66359059D01*
X39836994Y-66358500D01*
X45716989Y-66358500D01*
X45785110Y-66378502D01*
X45831603Y-66432158D01*
X45842989Y-66484500D01*
X45842989Y-70001979D01*
X45822987Y-70070100D01*
X45769331Y-70116593D01*
X45699057Y-70126697D01*
X45674930Y-70120752D01*
X45514091Y-70063796D01*
X45514083Y-70063794D01*
X45509212Y-70062069D01*
X45504119Y-70061162D01*
X45504116Y-70061161D01*
X45294373Y-70023800D01*
X45294367Y-70023799D01*
X45289284Y-70022894D01*
X45215452Y-70021992D01*
X45071081Y-70020228D01*
X45071079Y-70020228D01*
X45065911Y-70020165D01*
X44845091Y-70053955D01*
X44632756Y-70123357D01*
X44434607Y-70226507D01*
X44430474Y-70229610D01*
X44430471Y-70229612D01*
X44260100Y-70357530D01*
X44255965Y-70360635D01*
X44216525Y-70401907D01*
X44162280Y-70458671D01*
X44101629Y-70522138D01*
X43975743Y-70706680D01*
X43928716Y-70807992D01*
X43913018Y-70841811D01*
X43881688Y-70909305D01*
X43821989Y-71124570D01*
X43798251Y-71346695D01*
X43798548Y-71351848D01*
X43798548Y-71351851D01*
X43809138Y-71535516D01*
X43811110Y-71569715D01*
X43812247Y-71574761D01*
X43812248Y-71574767D01*
X43823199Y-71623357D01*
X43860222Y-71787639D01*
X43944266Y-71994616D01*
X43981685Y-72055678D01*
X44058291Y-72180688D01*
X44060987Y-72185088D01*
X44207250Y-72353938D01*
X44379126Y-72496632D01*
X44572000Y-72609338D01*
X44576825Y-72611180D01*
X44576826Y-72611181D01*
X44619988Y-72627663D01*
X44780692Y-72689030D01*
X44785760Y-72690061D01*
X44785763Y-72690062D01*
X44893017Y-72711883D01*
X44999597Y-72733567D01*
X45004772Y-72733757D01*
X45004774Y-72733757D01*
X45217673Y-72741564D01*
X45217677Y-72741564D01*
X45222837Y-72741753D01*
X45227957Y-72741097D01*
X45227959Y-72741097D01*
X45439288Y-72714025D01*
X45439289Y-72714025D01*
X45444416Y-72713368D01*
X45449366Y-72711883D01*
X45653429Y-72650661D01*
X45653434Y-72650659D01*
X45658384Y-72649174D01*
X45663036Y-72646895D01*
X45667835Y-72645014D01*
X45668395Y-72646443D01*
X45731545Y-72635615D01*
X45796899Y-72663352D01*
X45836882Y-72722019D01*
X45842989Y-72760771D01*
X45842989Y-77718433D01*
X45842430Y-77730289D01*
X45840701Y-77738026D01*
X45840950Y-77745948D01*
X45842927Y-77808858D01*
X45842989Y-77812816D01*
X45842989Y-77841921D01*
X45843545Y-77846321D01*
X45844477Y-77858153D01*
X45845927Y-77904320D01*
X45848139Y-77911933D01*
X45848139Y-77911934D01*
X45851908Y-77924905D01*
X45855919Y-77944271D01*
X45858607Y-77965553D01*
X45861523Y-77972918D01*
X45861524Y-77972922D01*
X45875615Y-78008510D01*
X45879454Y-78019720D01*
X45892344Y-78064089D01*
X45903264Y-78082554D01*
X45911955Y-78100294D01*
X45919854Y-78120245D01*
X45947005Y-78157615D01*
X45953522Y-78167537D01*
X45972996Y-78200466D01*
X45972999Y-78200470D01*
X45977036Y-78207296D01*
X45992200Y-78222460D01*
X46005040Y-78237493D01*
X46017648Y-78254846D01*
X46053241Y-78284291D01*
X46062021Y-78292281D01*
X52815292Y-85045552D01*
X52849318Y-85107864D01*
X52844253Y-85178679D01*
X52801706Y-85235515D01*
X52735186Y-85260326D01*
X52724659Y-85260638D01*
X52691081Y-85260228D01*
X52691079Y-85260228D01*
X52685911Y-85260165D01*
X52465091Y-85293955D01*
X52252756Y-85363357D01*
X52054607Y-85466507D01*
X52050474Y-85469610D01*
X52050471Y-85469612D01*
X51880100Y-85597530D01*
X51875965Y-85600635D01*
X51721629Y-85762138D01*
X51614201Y-85919621D01*
X51559293Y-85964621D01*
X51488768Y-85972792D01*
X51425021Y-85941538D01*
X51404324Y-85917054D01*
X51323822Y-85792617D01*
X51323820Y-85792614D01*
X51321014Y-85788277D01*
X51170670Y-85623051D01*
X51166619Y-85619852D01*
X51166615Y-85619848D01*
X50999414Y-85487800D01*
X50999410Y-85487798D01*
X50995359Y-85484598D01*
X50799789Y-85376638D01*
X50794920Y-85374914D01*
X50794916Y-85374912D01*
X50594087Y-85303795D01*
X50594083Y-85303794D01*
X50589212Y-85302069D01*
X50584119Y-85301162D01*
X50584116Y-85301161D01*
X50374373Y-85263800D01*
X50374367Y-85263799D01*
X50369284Y-85262894D01*
X50295452Y-85261992D01*
X50151081Y-85260228D01*
X50151079Y-85260228D01*
X50145911Y-85260165D01*
X49925091Y-85293955D01*
X49712756Y-85363357D01*
X49514607Y-85466507D01*
X49510474Y-85469610D01*
X49510471Y-85469612D01*
X49340100Y-85597530D01*
X49335965Y-85600635D01*
X49181629Y-85762138D01*
X49074201Y-85919621D01*
X49019293Y-85964621D01*
X48948768Y-85972792D01*
X48885021Y-85941538D01*
X48864324Y-85917054D01*
X48783822Y-85792617D01*
X48783820Y-85792614D01*
X48781014Y-85788277D01*
X48630670Y-85623051D01*
X48626619Y-85619852D01*
X48626615Y-85619848D01*
X48459414Y-85487800D01*
X48459410Y-85487798D01*
X48455359Y-85484598D01*
X48259789Y-85376638D01*
X48254920Y-85374914D01*
X48254916Y-85374912D01*
X48054087Y-85303795D01*
X48054083Y-85303794D01*
X48049212Y-85302069D01*
X48044119Y-85301162D01*
X48044116Y-85301161D01*
X47834373Y-85263800D01*
X47834367Y-85263799D01*
X47829284Y-85262894D01*
X47755452Y-85261992D01*
X47611081Y-85260228D01*
X47611079Y-85260228D01*
X47605911Y-85260165D01*
X47385091Y-85293955D01*
X47172756Y-85363357D01*
X46974607Y-85466507D01*
X46970474Y-85469610D01*
X46970471Y-85469612D01*
X46800100Y-85597530D01*
X46795965Y-85600635D01*
X46641629Y-85762138D01*
X46534201Y-85919621D01*
X46479293Y-85964621D01*
X46408768Y-85972792D01*
X46345021Y-85941538D01*
X46324324Y-85917054D01*
X46243822Y-85792617D01*
X46243820Y-85792614D01*
X46241014Y-85788277D01*
X46090670Y-85623051D01*
X46086619Y-85619852D01*
X46086615Y-85619848D01*
X45919414Y-85487800D01*
X45919410Y-85487798D01*
X45915359Y-85484598D01*
X45719789Y-85376638D01*
X45714920Y-85374914D01*
X45714916Y-85374912D01*
X45514087Y-85303795D01*
X45514083Y-85303794D01*
X45509212Y-85302069D01*
X45504119Y-85301162D01*
X45504116Y-85301161D01*
X45294373Y-85263800D01*
X45294367Y-85263799D01*
X45289284Y-85262894D01*
X45215452Y-85261992D01*
X45071081Y-85260228D01*
X45071079Y-85260228D01*
X45065911Y-85260165D01*
X44845091Y-85293955D01*
X44632756Y-85363357D01*
X44434607Y-85466507D01*
X44430474Y-85469610D01*
X44430471Y-85469612D01*
X44260100Y-85597530D01*
X44255965Y-85600635D01*
X44101629Y-85762138D01*
X43975743Y-85946680D01*
X43960003Y-85980590D01*
X43913018Y-86081811D01*
X43881688Y-86149305D01*
X43821989Y-86364570D01*
X43798251Y-86586695D01*
X43798548Y-86591848D01*
X43798548Y-86591851D01*
X43807850Y-86753173D01*
X43811110Y-86809715D01*
X43812247Y-86814761D01*
X43812248Y-86814767D01*
X43833275Y-86908069D01*
X43860222Y-87027639D01*
X43944266Y-87234616D01*
X43995019Y-87317438D01*
X44058291Y-87420688D01*
X44060987Y-87425088D01*
X44207250Y-87593938D01*
X44379126Y-87736632D01*
X44572000Y-87849338D01*
X44780692Y-87929030D01*
X44785760Y-87930061D01*
X44785763Y-87930062D01*
X44890604Y-87951392D01*
X44999597Y-87973567D01*
X45004772Y-87973757D01*
X45004774Y-87973757D01*
X45217673Y-87981564D01*
X45217677Y-87981564D01*
X45222837Y-87981753D01*
X45227957Y-87981097D01*
X45227959Y-87981097D01*
X45439288Y-87954025D01*
X45439289Y-87954025D01*
X45444416Y-87953368D01*
X45449366Y-87951883D01*
X45653429Y-87890661D01*
X45653434Y-87890659D01*
X45658384Y-87889174D01*
X45858994Y-87790896D01*
X46040860Y-87661173D01*
X46199096Y-87503489D01*
X46258594Y-87420689D01*
X46329453Y-87322077D01*
X46330776Y-87323028D01*
X46377645Y-87279857D01*
X46447580Y-87267625D01*
X46513026Y-87295144D01*
X46540875Y-87326994D01*
X46600987Y-87425088D01*
X46747250Y-87593938D01*
X46919126Y-87736632D01*
X47112000Y-87849338D01*
X47320692Y-87929030D01*
X47325760Y-87930061D01*
X47325763Y-87930062D01*
X47430604Y-87951392D01*
X47539597Y-87973567D01*
X47544772Y-87973757D01*
X47544774Y-87973757D01*
X47757673Y-87981564D01*
X47757677Y-87981564D01*
X47762837Y-87981753D01*
X47767957Y-87981097D01*
X47767959Y-87981097D01*
X47979288Y-87954025D01*
X47979289Y-87954025D01*
X47984416Y-87953368D01*
X47989366Y-87951883D01*
X48193429Y-87890661D01*
X48193434Y-87890659D01*
X48198384Y-87889174D01*
X48398994Y-87790896D01*
X48580860Y-87661173D01*
X48739096Y-87503489D01*
X48798594Y-87420689D01*
X48869453Y-87322077D01*
X48870776Y-87323028D01*
X48917645Y-87279857D01*
X48987580Y-87267625D01*
X49053026Y-87295144D01*
X49080875Y-87326994D01*
X49140987Y-87425088D01*
X49287250Y-87593938D01*
X49459126Y-87736632D01*
X49652000Y-87849338D01*
X49860692Y-87929030D01*
X49865760Y-87930061D01*
X49865763Y-87930062D01*
X49970604Y-87951392D01*
X50079597Y-87973567D01*
X50084772Y-87973757D01*
X50084774Y-87973757D01*
X50297673Y-87981564D01*
X50297677Y-87981564D01*
X50302837Y-87981753D01*
X50307957Y-87981097D01*
X50307959Y-87981097D01*
X50519288Y-87954025D01*
X50519289Y-87954025D01*
X50524416Y-87953368D01*
X50529366Y-87951883D01*
X50733429Y-87890661D01*
X50733434Y-87890659D01*
X50738384Y-87889174D01*
X50938994Y-87790896D01*
X51120860Y-87661173D01*
X51279096Y-87503489D01*
X51338594Y-87420689D01*
X51409453Y-87322077D01*
X51410776Y-87323028D01*
X51457645Y-87279857D01*
X51527580Y-87267625D01*
X51593026Y-87295144D01*
X51620875Y-87326994D01*
X51680987Y-87425088D01*
X51827250Y-87593938D01*
X51999126Y-87736632D01*
X52192000Y-87849338D01*
X52400692Y-87929030D01*
X52405760Y-87930061D01*
X52405763Y-87930062D01*
X52510604Y-87951392D01*
X52619597Y-87973567D01*
X52624772Y-87973757D01*
X52624774Y-87973757D01*
X52837673Y-87981564D01*
X52837677Y-87981564D01*
X52842837Y-87981753D01*
X52847957Y-87981097D01*
X52847959Y-87981097D01*
X53059288Y-87954025D01*
X53059289Y-87954025D01*
X53064416Y-87953368D01*
X53069366Y-87951883D01*
X53273429Y-87890661D01*
X53273434Y-87890659D01*
X53278384Y-87889174D01*
X53478994Y-87790896D01*
X53660860Y-87661173D01*
X53819096Y-87503489D01*
X53878594Y-87420689D01*
X53949453Y-87322077D01*
X53950776Y-87323028D01*
X53997645Y-87279857D01*
X54067580Y-87267625D01*
X54133026Y-87295144D01*
X54160875Y-87326994D01*
X54220987Y-87425088D01*
X54367250Y-87593938D01*
X54539126Y-87736632D01*
X54732000Y-87849338D01*
X54940692Y-87929030D01*
X54945760Y-87930061D01*
X54945763Y-87930062D01*
X55050604Y-87951392D01*
X55159597Y-87973567D01*
X55164772Y-87973757D01*
X55164774Y-87973757D01*
X55377673Y-87981564D01*
X55377677Y-87981564D01*
X55382837Y-87981753D01*
X55387957Y-87981097D01*
X55387959Y-87981097D01*
X55599288Y-87954025D01*
X55599289Y-87954025D01*
X55604416Y-87953368D01*
X55609366Y-87951883D01*
X55813429Y-87890661D01*
X55813434Y-87890659D01*
X55818384Y-87889174D01*
X56018994Y-87790896D01*
X56083544Y-87744853D01*
X57100977Y-87744853D01*
X57106258Y-87751907D01*
X57267756Y-87846279D01*
X57277042Y-87850729D01*
X57476001Y-87926703D01*
X57485899Y-87929579D01*
X57694595Y-87972038D01*
X57704823Y-87973257D01*
X57917650Y-87981062D01*
X57927936Y-87980595D01*
X58139185Y-87953534D01*
X58149262Y-87951392D01*
X58353255Y-87890191D01*
X58362842Y-87886433D01*
X58554098Y-87792738D01*
X58562944Y-87787465D01*
X58610247Y-87753723D01*
X58618648Y-87743023D01*
X58611660Y-87729870D01*
X57873812Y-86992022D01*
X57859868Y-86984408D01*
X57858035Y-86984539D01*
X57851420Y-86988790D01*
X57107737Y-87732473D01*
X57100977Y-87744853D01*
X56083544Y-87744853D01*
X56200860Y-87661173D01*
X56359096Y-87503489D01*
X56418594Y-87420689D01*
X56489453Y-87322077D01*
X56490640Y-87322930D01*
X56537960Y-87279362D01*
X56607897Y-87267145D01*
X56673338Y-87294678D01*
X56701166Y-87326512D01*
X56727459Y-87369419D01*
X56737916Y-87378880D01*
X56746694Y-87375096D01*
X57488978Y-86632812D01*
X57496592Y-86618868D01*
X57496461Y-86617035D01*
X57492210Y-86610420D01*
X56750849Y-85869059D01*
X56739313Y-85862759D01*
X56727031Y-85872382D01*
X56694499Y-85920072D01*
X56639587Y-85965075D01*
X56569063Y-85973246D01*
X56505316Y-85941992D01*
X56484618Y-85917508D01*
X56403822Y-85792617D01*
X56403820Y-85792614D01*
X56401014Y-85788277D01*
X56250670Y-85623051D01*
X56246619Y-85619852D01*
X56246615Y-85619848D01*
X56090338Y-85496427D01*
X57102223Y-85496427D01*
X57108968Y-85508758D01*
X57848188Y-86247978D01*
X57862132Y-86255592D01*
X57863965Y-86255461D01*
X57870580Y-86251210D01*
X58614389Y-85507401D01*
X58621410Y-85494544D01*
X58614611Y-85485213D01*
X58610554Y-85482518D01*
X58424117Y-85379599D01*
X58414705Y-85375369D01*
X58213959Y-85304280D01*
X58203989Y-85301646D01*
X57994327Y-85264301D01*
X57984073Y-85263331D01*
X57771116Y-85260728D01*
X57760832Y-85261448D01*
X57550321Y-85293661D01*
X57540293Y-85296050D01*
X57337868Y-85362212D01*
X57328359Y-85366209D01*
X57139466Y-85464540D01*
X57130734Y-85470039D01*
X57110677Y-85485099D01*
X57102223Y-85496427D01*
X56090338Y-85496427D01*
X56079414Y-85487800D01*
X56079410Y-85487798D01*
X56075359Y-85484598D01*
X55879789Y-85376638D01*
X55874920Y-85374914D01*
X55874916Y-85374912D01*
X55674087Y-85303795D01*
X55674083Y-85303794D01*
X55669212Y-85302069D01*
X55664119Y-85301162D01*
X55664116Y-85301161D01*
X55454373Y-85263800D01*
X55454367Y-85263799D01*
X55449284Y-85262894D01*
X55375452Y-85261992D01*
X55231081Y-85260228D01*
X55231079Y-85260228D01*
X55225911Y-85260165D01*
X55005091Y-85293955D01*
X55004928Y-85292891D01*
X54939329Y-85289488D01*
X54891948Y-85259688D01*
X48447383Y-78815123D01*
X48413357Y-78752811D01*
X48418422Y-78681996D01*
X48460969Y-78625160D01*
X48527489Y-78600349D01*
X48587726Y-78610921D01*
X48717712Y-78668794D01*
X48811112Y-78688647D01*
X48898056Y-78707128D01*
X48898061Y-78707128D01*
X48904513Y-78708500D01*
X49095487Y-78708500D01*
X49101939Y-78707128D01*
X49101944Y-78707128D01*
X49188888Y-78688647D01*
X49282288Y-78668794D01*
X49297375Y-78662077D01*
X49450722Y-78593803D01*
X49450724Y-78593802D01*
X49456752Y-78591118D01*
X49611253Y-78478866D01*
X49739040Y-78336944D01*
X49810653Y-78212907D01*
X49831223Y-78177279D01*
X49831224Y-78177278D01*
X49834527Y-78171556D01*
X49893542Y-77989928D01*
X49895330Y-77972922D01*
X49912814Y-77806565D01*
X49913504Y-77800000D01*
X49906990Y-77738026D01*
X49894232Y-77616635D01*
X49894232Y-77616633D01*
X49893542Y-77610072D01*
X49834527Y-77428444D01*
X49739040Y-77263056D01*
X49690864Y-77209551D01*
X49660146Y-77145544D01*
X49658500Y-77125241D01*
X49658500Y-72794809D01*
X49678502Y-72726688D01*
X49732158Y-72680195D01*
X49802432Y-72670091D01*
X49829450Y-72677100D01*
X49850133Y-72684998D01*
X49860692Y-72689030D01*
X49865760Y-72690061D01*
X49865763Y-72690062D01*
X49973017Y-72711883D01*
X50079597Y-72733567D01*
X50084772Y-72733757D01*
X50084774Y-72733757D01*
X50297673Y-72741564D01*
X50297677Y-72741564D01*
X50302837Y-72741753D01*
X50307957Y-72741097D01*
X50307959Y-72741097D01*
X50519288Y-72714025D01*
X50519289Y-72714025D01*
X50524416Y-72713368D01*
X50529366Y-72711883D01*
X50733429Y-72650661D01*
X50733434Y-72650659D01*
X50738384Y-72649174D01*
X50938994Y-72550896D01*
X51120860Y-72421173D01*
X51279096Y-72263489D01*
X51338594Y-72180689D01*
X51409453Y-72082077D01*
X51410776Y-72083028D01*
X51457645Y-72039857D01*
X51527580Y-72027625D01*
X51593026Y-72055144D01*
X51620875Y-72086994D01*
X51680987Y-72185088D01*
X51827250Y-72353938D01*
X51999126Y-72496632D01*
X52192000Y-72609338D01*
X52196825Y-72611180D01*
X52196826Y-72611181D01*
X52239988Y-72627663D01*
X52400692Y-72689030D01*
X52405760Y-72690061D01*
X52405763Y-72690062D01*
X52513017Y-72711883D01*
X52619597Y-72733567D01*
X52624772Y-72733757D01*
X52624774Y-72733757D01*
X52837673Y-72741564D01*
X52837677Y-72741564D01*
X52842837Y-72741753D01*
X52847957Y-72741097D01*
X52847959Y-72741097D01*
X53059288Y-72714025D01*
X53059289Y-72714025D01*
X53064416Y-72713368D01*
X53069366Y-72711883D01*
X53273429Y-72650661D01*
X53273434Y-72650659D01*
X53278384Y-72649174D01*
X53478994Y-72550896D01*
X53660860Y-72421173D01*
X53819096Y-72263489D01*
X53878594Y-72180689D01*
X53949453Y-72082077D01*
X53950776Y-72083028D01*
X53997645Y-72039857D01*
X54067580Y-72027625D01*
X54133026Y-72055144D01*
X54160875Y-72086994D01*
X54220987Y-72185088D01*
X54367250Y-72353938D01*
X54539126Y-72496632D01*
X54732000Y-72609338D01*
X54736825Y-72611180D01*
X54736826Y-72611181D01*
X54779988Y-72627663D01*
X54940692Y-72689030D01*
X54945760Y-72690061D01*
X54945763Y-72690062D01*
X55053017Y-72711883D01*
X55159597Y-72733567D01*
X55164772Y-72733757D01*
X55164774Y-72733757D01*
X55377673Y-72741564D01*
X55377677Y-72741564D01*
X55382837Y-72741753D01*
X55387957Y-72741097D01*
X55387959Y-72741097D01*
X55599288Y-72714025D01*
X55599289Y-72714025D01*
X55604416Y-72713368D01*
X55609366Y-72711883D01*
X55813429Y-72650661D01*
X55813434Y-72650659D01*
X55818384Y-72649174D01*
X56018994Y-72550896D01*
X56200860Y-72421173D01*
X56359096Y-72263489D01*
X56418594Y-72180689D01*
X56489453Y-72082077D01*
X56490776Y-72083028D01*
X56537645Y-72039857D01*
X56607580Y-72027625D01*
X56673026Y-72055144D01*
X56700875Y-72086994D01*
X56760987Y-72185088D01*
X56907250Y-72353938D01*
X57079126Y-72496632D01*
X57272000Y-72609338D01*
X57276825Y-72611180D01*
X57276826Y-72611181D01*
X57319988Y-72627663D01*
X57480692Y-72689030D01*
X57485760Y-72690061D01*
X57485763Y-72690062D01*
X57593017Y-72711883D01*
X57699597Y-72733567D01*
X57704772Y-72733757D01*
X57704774Y-72733757D01*
X57917673Y-72741564D01*
X57917677Y-72741564D01*
X57922837Y-72741753D01*
X57927957Y-72741097D01*
X57927959Y-72741097D01*
X58139288Y-72714025D01*
X58139289Y-72714025D01*
X58144416Y-72713368D01*
X58149366Y-72711883D01*
X58353429Y-72650661D01*
X58353434Y-72650659D01*
X58358384Y-72649174D01*
X58558994Y-72550896D01*
X58740860Y-72421173D01*
X58849091Y-72313319D01*
X58911462Y-72279404D01*
X58982268Y-72284592D01*
X59039030Y-72327238D01*
X59056012Y-72358341D01*
X59100385Y-72476705D01*
X59187739Y-72593261D01*
X59304295Y-72680615D01*
X59440684Y-72731745D01*
X59502866Y-72738500D01*
X61299134Y-72738500D01*
X61361316Y-72731745D01*
X61497705Y-72680615D01*
X61614261Y-72593261D01*
X61663515Y-72527541D01*
X61696231Y-72483889D01*
X61696231Y-72483888D01*
X61701615Y-72476705D01*
X61704767Y-72468297D01*
X61705460Y-72467032D01*
X61755718Y-72416886D01*
X61825109Y-72401872D01*
X61891602Y-72426757D01*
X61934085Y-72483641D01*
X61941980Y-72527541D01*
X61941980Y-86159342D01*
X61921978Y-86227463D01*
X61868322Y-86273956D01*
X61798048Y-86284060D01*
X61733468Y-86254566D01*
X61693776Y-86190037D01*
X61692692Y-86185722D01*
X61692692Y-86185721D01*
X61691431Y-86180702D01*
X61602354Y-85975840D01*
X61481014Y-85788277D01*
X61330670Y-85623051D01*
X61326619Y-85619852D01*
X61326615Y-85619848D01*
X61159414Y-85487800D01*
X61159410Y-85487798D01*
X61155359Y-85484598D01*
X60959789Y-85376638D01*
X60954920Y-85374914D01*
X60954916Y-85374912D01*
X60754087Y-85303795D01*
X60754083Y-85303794D01*
X60749212Y-85302069D01*
X60744119Y-85301162D01*
X60744116Y-85301161D01*
X60534373Y-85263800D01*
X60534367Y-85263799D01*
X60529284Y-85262894D01*
X60455452Y-85261992D01*
X60311081Y-85260228D01*
X60311079Y-85260228D01*
X60305911Y-85260165D01*
X60085091Y-85293955D01*
X59872756Y-85363357D01*
X59674607Y-85466507D01*
X59670474Y-85469610D01*
X59670471Y-85469612D01*
X59500100Y-85597530D01*
X59495965Y-85600635D01*
X59341629Y-85762138D01*
X59234204Y-85919618D01*
X59233898Y-85920066D01*
X59178987Y-85965069D01*
X59108462Y-85973240D01*
X59044715Y-85941986D01*
X59024017Y-85917501D01*
X58994062Y-85871197D01*
X58983377Y-85861995D01*
X58973812Y-85866398D01*
X58233022Y-86607188D01*
X58225408Y-86621132D01*
X58225539Y-86622965D01*
X58229790Y-86629580D01*
X58971474Y-87371264D01*
X58983484Y-87377823D01*
X58995223Y-87368855D01*
X59029022Y-87321819D01*
X59030277Y-87322721D01*
X59077391Y-87279355D01*
X59147330Y-87267148D01*
X59212767Y-87294691D01*
X59240580Y-87326513D01*
X59298287Y-87420683D01*
X59298291Y-87420688D01*
X59300987Y-87425088D01*
X59447250Y-87593938D01*
X59619126Y-87736632D01*
X59812000Y-87849338D01*
X60020692Y-87929030D01*
X60025760Y-87930061D01*
X60025763Y-87930062D01*
X60130604Y-87951392D01*
X60239597Y-87973567D01*
X60244772Y-87973757D01*
X60244774Y-87973757D01*
X60457673Y-87981564D01*
X60457677Y-87981564D01*
X60462837Y-87981753D01*
X60467957Y-87981097D01*
X60467959Y-87981097D01*
X60679288Y-87954025D01*
X60679289Y-87954025D01*
X60684416Y-87953368D01*
X60689366Y-87951883D01*
X60893429Y-87890661D01*
X60893434Y-87890659D01*
X60898384Y-87889174D01*
X61098994Y-87790896D01*
X61280860Y-87661173D01*
X61439096Y-87503489D01*
X61498594Y-87420689D01*
X61566435Y-87326277D01*
X61569453Y-87322077D01*
X61582995Y-87294678D01*
X61666136Y-87126453D01*
X61666137Y-87126451D01*
X61668430Y-87121811D01*
X61695422Y-87032970D01*
X61734363Y-86973606D01*
X61799217Y-86944719D01*
X61869393Y-86955480D01*
X61922611Y-87002474D01*
X61941980Y-87069599D01*
X61941980Y-91802070D01*
X61921978Y-91870191D01*
X61905075Y-91891165D01*
X54444145Y-99352095D01*
X54381833Y-99386121D01*
X54355050Y-99389000D01*
X53329600Y-99389000D01*
X53326354Y-99389337D01*
X53326350Y-99389337D01*
X53230692Y-99399262D01*
X53230688Y-99399263D01*
X53223834Y-99399974D01*
X53217298Y-99402155D01*
X53217296Y-99402155D01*
X53154631Y-99423062D01*
X53056054Y-99455950D01*
X52905652Y-99549022D01*
X52900479Y-99554204D01*
X52844762Y-99610018D01*
X52780695Y-99674197D01*
X52776855Y-99680427D01*
X52776854Y-99680428D01*
X52733630Y-99750551D01*
X52687885Y-99824762D01*
X52685581Y-99831709D01*
X52663236Y-99899077D01*
X52622806Y-99957437D01*
X52596330Y-99973866D01*
X52552811Y-99993899D01*
X51812022Y-100734688D01*
X51804408Y-100748632D01*
X51804539Y-100750465D01*
X51808790Y-100757080D01*
X52550474Y-101498764D01*
X52590998Y-101520893D01*
X52603589Y-101523632D01*
X52653791Y-101573835D01*
X52662726Y-101594342D01*
X52688450Y-101671446D01*
X52781522Y-101821848D01*
X52906697Y-101946805D01*
X52912927Y-101950645D01*
X52912928Y-101950646D01*
X53039104Y-102028422D01*
X53057262Y-102039615D01*
X53064209Y-102041919D01*
X53066276Y-102042883D01*
X53119561Y-102089799D01*
X53139023Y-102158076D01*
X53118482Y-102226036D01*
X53088681Y-102257837D01*
X53074965Y-102268135D01*
X52920629Y-102429638D01*
X52847693Y-102536559D01*
X52812898Y-102587566D01*
X52757987Y-102632569D01*
X52687462Y-102640740D01*
X52623715Y-102609486D01*
X52603017Y-102585001D01*
X52573062Y-102538697D01*
X52562377Y-102529495D01*
X52552812Y-102533898D01*
X51529095Y-103557615D01*
X51466783Y-103591641D01*
X51395968Y-103586576D01*
X51350905Y-103557615D01*
X50329849Y-102536559D01*
X50318313Y-102530259D01*
X50306028Y-102539884D01*
X50273192Y-102588020D01*
X50218281Y-102633023D01*
X50147756Y-102641194D01*
X50084009Y-102609940D01*
X50063311Y-102585455D01*
X50033062Y-102538697D01*
X50022377Y-102529495D01*
X50012812Y-102533898D01*
X48989095Y-103557615D01*
X48926783Y-103591641D01*
X48855968Y-103586576D01*
X48810905Y-103557615D01*
X47789849Y-102536559D01*
X47778313Y-102530259D01*
X47766028Y-102539884D01*
X47733192Y-102588020D01*
X47678281Y-102633023D01*
X47607756Y-102641194D01*
X47544009Y-102609940D01*
X47523311Y-102585455D01*
X47493062Y-102538697D01*
X47482377Y-102529495D01*
X47472812Y-102533898D01*
X46449095Y-103557615D01*
X46386783Y-103591641D01*
X46315968Y-103586576D01*
X46270905Y-103557615D01*
X45249849Y-102536559D01*
X45238313Y-102530259D01*
X45226031Y-102539882D01*
X45193499Y-102587572D01*
X45138587Y-102632575D01*
X45068063Y-102640746D01*
X45004316Y-102609492D01*
X44983618Y-102585008D01*
X44902822Y-102460117D01*
X44902820Y-102460114D01*
X44900014Y-102455777D01*
X44749670Y-102290551D01*
X44745616Y-102287349D01*
X44745615Y-102287348D01*
X44578414Y-102155300D01*
X44578410Y-102155298D01*
X44574359Y-102152098D01*
X44533053Y-102129296D01*
X44483084Y-102078864D01*
X44468312Y-102009421D01*
X44493428Y-101943016D01*
X44520780Y-101916409D01*
X44582544Y-101872353D01*
X45599977Y-101872353D01*
X45605258Y-101879407D01*
X45652479Y-101907001D01*
X45701203Y-101958639D01*
X45714274Y-102028422D01*
X45687543Y-102094194D01*
X45647087Y-102127553D01*
X45638466Y-102132041D01*
X45629734Y-102137539D01*
X45609677Y-102152599D01*
X45601223Y-102163927D01*
X45607968Y-102176258D01*
X46347188Y-102915478D01*
X46361132Y-102923092D01*
X46362965Y-102922961D01*
X46369580Y-102918710D01*
X47113389Y-102174901D01*
X47120410Y-102162044D01*
X47113611Y-102152713D01*
X47109559Y-102150021D01*
X47072116Y-102129352D01*
X47022145Y-102078920D01*
X47007373Y-102009477D01*
X47032489Y-101943072D01*
X47059840Y-101916465D01*
X47109247Y-101881223D01*
X47116211Y-101872353D01*
X48139977Y-101872353D01*
X48145258Y-101879407D01*
X48192479Y-101907001D01*
X48241203Y-101958639D01*
X48254274Y-102028422D01*
X48227543Y-102094194D01*
X48187087Y-102127553D01*
X48178466Y-102132041D01*
X48169734Y-102137539D01*
X48149677Y-102152599D01*
X48141223Y-102163927D01*
X48147968Y-102176258D01*
X48887188Y-102915478D01*
X48901132Y-102923092D01*
X48902965Y-102922961D01*
X48909580Y-102918710D01*
X49653389Y-102174901D01*
X49660410Y-102162044D01*
X49653611Y-102152713D01*
X49649559Y-102150021D01*
X49612116Y-102129352D01*
X49562145Y-102078920D01*
X49547373Y-102009477D01*
X49572489Y-101943072D01*
X49599840Y-101916465D01*
X49649247Y-101881223D01*
X49656211Y-101872353D01*
X50679977Y-101872353D01*
X50685258Y-101879407D01*
X50732479Y-101907001D01*
X50781203Y-101958639D01*
X50794274Y-102028422D01*
X50767543Y-102094194D01*
X50727087Y-102127553D01*
X50718466Y-102132041D01*
X50709734Y-102137539D01*
X50689677Y-102152599D01*
X50681223Y-102163927D01*
X50687968Y-102176258D01*
X51427188Y-102915478D01*
X51441132Y-102923092D01*
X51442965Y-102922961D01*
X51449580Y-102918710D01*
X52193389Y-102174901D01*
X52200410Y-102162044D01*
X52193611Y-102152713D01*
X52189559Y-102150021D01*
X52152116Y-102129352D01*
X52102145Y-102078920D01*
X52087373Y-102009477D01*
X52112489Y-101943072D01*
X52139840Y-101916465D01*
X52189247Y-101881223D01*
X52197648Y-101870523D01*
X52190660Y-101857370D01*
X51452812Y-101119522D01*
X51438868Y-101111908D01*
X51437035Y-101112039D01*
X51430420Y-101116290D01*
X50686737Y-101859973D01*
X50679977Y-101872353D01*
X49656211Y-101872353D01*
X49657648Y-101870523D01*
X49650660Y-101857370D01*
X48912812Y-101119522D01*
X48898868Y-101111908D01*
X48897035Y-101112039D01*
X48890420Y-101116290D01*
X48146737Y-101859973D01*
X48139977Y-101872353D01*
X47116211Y-101872353D01*
X47117648Y-101870523D01*
X47110660Y-101857370D01*
X46372812Y-101119522D01*
X46358868Y-101111908D01*
X46357035Y-101112039D01*
X46350420Y-101116290D01*
X45606737Y-101859973D01*
X45599977Y-101872353D01*
X44582544Y-101872353D01*
X44585110Y-101870523D01*
X44699860Y-101788673D01*
X44858096Y-101630989D01*
X44884430Y-101594342D01*
X44988453Y-101449577D01*
X44989640Y-101450430D01*
X45036960Y-101406862D01*
X45106897Y-101394645D01*
X45172338Y-101422178D01*
X45200166Y-101454012D01*
X45226459Y-101496919D01*
X45236916Y-101506380D01*
X45245694Y-101502596D01*
X45987978Y-100760312D01*
X45994356Y-100748632D01*
X46724408Y-100748632D01*
X46724539Y-100750465D01*
X46728790Y-100757080D01*
X47470474Y-101498764D01*
X47482484Y-101505323D01*
X47494223Y-101496355D01*
X47528022Y-101449319D01*
X47529149Y-101450129D01*
X47576659Y-101406381D01*
X47646596Y-101394161D01*
X47712038Y-101421691D01*
X47739870Y-101453529D01*
X47766459Y-101496919D01*
X47776916Y-101506380D01*
X47785694Y-101502596D01*
X48527978Y-100760312D01*
X48534356Y-100748632D01*
X49264408Y-100748632D01*
X49264539Y-100750465D01*
X49268790Y-100757080D01*
X50010474Y-101498764D01*
X50022484Y-101505323D01*
X50034223Y-101496355D01*
X50068022Y-101449319D01*
X50069149Y-101450129D01*
X50116659Y-101406381D01*
X50186596Y-101394161D01*
X50252038Y-101421691D01*
X50279870Y-101453529D01*
X50306459Y-101496919D01*
X50316916Y-101506380D01*
X50325694Y-101502596D01*
X51067978Y-100760312D01*
X51075592Y-100746368D01*
X51075461Y-100744535D01*
X51071210Y-100737920D01*
X50329849Y-99996559D01*
X50318313Y-99990259D01*
X50306028Y-99999884D01*
X50273192Y-100048020D01*
X50218281Y-100093023D01*
X50147756Y-100101194D01*
X50084009Y-100069940D01*
X50063311Y-100045455D01*
X50033062Y-99998697D01*
X50022377Y-99989495D01*
X50012812Y-99993898D01*
X49272022Y-100734688D01*
X49264408Y-100748632D01*
X48534356Y-100748632D01*
X48535592Y-100746368D01*
X48535461Y-100744535D01*
X48531210Y-100737920D01*
X47789849Y-99996559D01*
X47778313Y-99990259D01*
X47766028Y-99999884D01*
X47733192Y-100048020D01*
X47678281Y-100093023D01*
X47607756Y-100101194D01*
X47544009Y-100069940D01*
X47523311Y-100045455D01*
X47493062Y-99998697D01*
X47482377Y-99989495D01*
X47472812Y-99993898D01*
X46732022Y-100734688D01*
X46724408Y-100748632D01*
X45994356Y-100748632D01*
X45995592Y-100746368D01*
X45995461Y-100744535D01*
X45991210Y-100737920D01*
X45249849Y-99996559D01*
X45238313Y-99990259D01*
X45226031Y-99999882D01*
X45193499Y-100047572D01*
X45138587Y-100092575D01*
X45068063Y-100100746D01*
X45004316Y-100069492D01*
X44983618Y-100045008D01*
X44902822Y-99920117D01*
X44902820Y-99920114D01*
X44900014Y-99915777D01*
X44749670Y-99750551D01*
X44745619Y-99747352D01*
X44745615Y-99747348D01*
X44589338Y-99623927D01*
X45601223Y-99623927D01*
X45607968Y-99636258D01*
X46347188Y-100375478D01*
X46361132Y-100383092D01*
X46362965Y-100382961D01*
X46369580Y-100378710D01*
X47113389Y-99634901D01*
X47119382Y-99623927D01*
X48141223Y-99623927D01*
X48147968Y-99636258D01*
X48887188Y-100375478D01*
X48901132Y-100383092D01*
X48902965Y-100382961D01*
X48909580Y-100378710D01*
X49653389Y-99634901D01*
X49659382Y-99623927D01*
X50681223Y-99623927D01*
X50687968Y-99636258D01*
X51427188Y-100375478D01*
X51441132Y-100383092D01*
X51442965Y-100382961D01*
X51449580Y-100378710D01*
X52193389Y-99634901D01*
X52200410Y-99622044D01*
X52193611Y-99612713D01*
X52189554Y-99610018D01*
X52003117Y-99507099D01*
X51993705Y-99502869D01*
X51792959Y-99431780D01*
X51782989Y-99429146D01*
X51573327Y-99391801D01*
X51563073Y-99390831D01*
X51350116Y-99388228D01*
X51339832Y-99388948D01*
X51129321Y-99421161D01*
X51119293Y-99423550D01*
X50916868Y-99489712D01*
X50907359Y-99493709D01*
X50718466Y-99592040D01*
X50709734Y-99597539D01*
X50689677Y-99612599D01*
X50681223Y-99623927D01*
X49659382Y-99623927D01*
X49660410Y-99622044D01*
X49653611Y-99612713D01*
X49649554Y-99610018D01*
X49463117Y-99507099D01*
X49453705Y-99502869D01*
X49252959Y-99431780D01*
X49242989Y-99429146D01*
X49033327Y-99391801D01*
X49023073Y-99390831D01*
X48810116Y-99388228D01*
X48799832Y-99388948D01*
X48589321Y-99421161D01*
X48579293Y-99423550D01*
X48376868Y-99489712D01*
X48367359Y-99493709D01*
X48178466Y-99592040D01*
X48169734Y-99597539D01*
X48149677Y-99612599D01*
X48141223Y-99623927D01*
X47119382Y-99623927D01*
X47120410Y-99622044D01*
X47113611Y-99612713D01*
X47109554Y-99610018D01*
X46923117Y-99507099D01*
X46913705Y-99502869D01*
X46712959Y-99431780D01*
X46702989Y-99429146D01*
X46493327Y-99391801D01*
X46483073Y-99390831D01*
X46270116Y-99388228D01*
X46259832Y-99388948D01*
X46049321Y-99421161D01*
X46039293Y-99423550D01*
X45836868Y-99489712D01*
X45827359Y-99493709D01*
X45638466Y-99592040D01*
X45629734Y-99597539D01*
X45609677Y-99612599D01*
X45601223Y-99623927D01*
X44589338Y-99623927D01*
X44578414Y-99615300D01*
X44578410Y-99615298D01*
X44574359Y-99612098D01*
X44378789Y-99504138D01*
X44373920Y-99502414D01*
X44373916Y-99502412D01*
X44173087Y-99431295D01*
X44173083Y-99431294D01*
X44168212Y-99429569D01*
X44163119Y-99428662D01*
X44163116Y-99428661D01*
X43953373Y-99391300D01*
X43953367Y-99391299D01*
X43948284Y-99390394D01*
X43874452Y-99389492D01*
X43730081Y-99387728D01*
X43730079Y-99387728D01*
X43724911Y-99387665D01*
X43504091Y-99421455D01*
X43291756Y-99490857D01*
X43093607Y-99594007D01*
X43089474Y-99597110D01*
X43089471Y-99597112D01*
X42919100Y-99725030D01*
X42914965Y-99728135D01*
X42911393Y-99731873D01*
X42828580Y-99818532D01*
X42760629Y-99889638D01*
X42634743Y-100074180D01*
X42540688Y-100276805D01*
X42480989Y-100492070D01*
X42457251Y-100714195D01*
X42457548Y-100719348D01*
X42457548Y-100719351D01*
X42459910Y-100760312D01*
X42470110Y-100937215D01*
X42471247Y-100942261D01*
X42471248Y-100942267D01*
X42492275Y-101035569D01*
X42519222Y-101155139D01*
X42603266Y-101362116D01*
X42640072Y-101422178D01*
X42690008Y-101503666D01*
X42719987Y-101552588D01*
X42866250Y-101721438D01*
X43038126Y-101864132D01*
X43049063Y-101870523D01*
X43111445Y-101906976D01*
X43160169Y-101958614D01*
X43173240Y-102028397D01*
X43146509Y-102094169D01*
X43106055Y-102127527D01*
X43093607Y-102134007D01*
X43089474Y-102137110D01*
X43089471Y-102137112D01*
X42919100Y-102265030D01*
X42914965Y-102268135D01*
X42760629Y-102429638D01*
X42634743Y-102614180D01*
X42540688Y-102816805D01*
X42480989Y-103032070D01*
X42457251Y-103254195D01*
X42457548Y-103259348D01*
X42457548Y-103259351D01*
X42463011Y-103354090D01*
X42470110Y-103477215D01*
X42471247Y-103482261D01*
X42471248Y-103482267D01*
X42488229Y-103557615D01*
X42519222Y-103695139D01*
X42603266Y-103902116D01*
X42719987Y-104092588D01*
X42866250Y-104261438D01*
X43038126Y-104404132D01*
X43231000Y-104516838D01*
X43439692Y-104596530D01*
X43444760Y-104597561D01*
X43444763Y-104597562D01*
X43552012Y-104619382D01*
X43658597Y-104641067D01*
X43663772Y-104641257D01*
X43663774Y-104641257D01*
X43876673Y-104649064D01*
X43876677Y-104649064D01*
X43881837Y-104649253D01*
X43886957Y-104648597D01*
X43886959Y-104648597D01*
X43956153Y-104639733D01*
X44103416Y-104620868D01*
X44122631Y-104615103D01*
X44193623Y-104614685D01*
X44247933Y-104646693D01*
X44495856Y-104894616D01*
X44503846Y-104903396D01*
X44508095Y-104910091D01*
X44513873Y-104915517D01*
X44513874Y-104915518D01*
X44559768Y-104958615D01*
X44562610Y-104961370D01*
X44583178Y-104981938D01*
X44586681Y-104984655D01*
X44595706Y-104992363D01*
X44629378Y-105023983D01*
X44636329Y-105027804D01*
X44636330Y-105027805D01*
X44648169Y-105034314D01*
X44664693Y-105045168D01*
X44674782Y-105052993D01*
X44681643Y-105058315D01*
X44688915Y-105061462D01*
X44688917Y-105061463D01*
X44724046Y-105076665D01*
X44734706Y-105081887D01*
X44764679Y-105098365D01*
X44775174Y-105104135D01*
X44795952Y-105109470D01*
X44814642Y-105115869D01*
X44834335Y-105124391D01*
X44869074Y-105129893D01*
X44879959Y-105131617D01*
X44891582Y-105134024D01*
X44916265Y-105140361D01*
X44936323Y-105145511D01*
X44957770Y-105145511D01*
X44977480Y-105147062D01*
X44998663Y-105150417D01*
X45044652Y-105146070D01*
X45056507Y-105145511D01*
X57130933Y-105145511D01*
X57142789Y-105146070D01*
X57142792Y-105146070D01*
X57150526Y-105147799D01*
X57221358Y-105145573D01*
X57225316Y-105145511D01*
X57254421Y-105145511D01*
X57258821Y-105144955D01*
X57270653Y-105144023D01*
X57316820Y-105142573D01*
X57337410Y-105136591D01*
X57356771Y-105132581D01*
X57364405Y-105131617D01*
X57370193Y-105130886D01*
X57370194Y-105130886D01*
X57378053Y-105129893D01*
X57385418Y-105126977D01*
X57385422Y-105126976D01*
X57421010Y-105112885D01*
X57432220Y-105109046D01*
X57476589Y-105096156D01*
X57495054Y-105085236D01*
X57512794Y-105076545D01*
X57532745Y-105068646D01*
X57570118Y-105041493D01*
X57580037Y-105034978D01*
X57612966Y-105015504D01*
X57612970Y-105015501D01*
X57619796Y-105011464D01*
X57634960Y-104996300D01*
X57649994Y-104983459D01*
X57667346Y-104970852D01*
X57696792Y-104935258D01*
X57704781Y-104926479D01*
X62976405Y-99654855D01*
X63038717Y-99620829D01*
X63109532Y-99625894D01*
X63166368Y-99668441D01*
X63191179Y-99734961D01*
X63191500Y-99743950D01*
X63191500Y-106865500D01*
X63171498Y-106933621D01*
X63117842Y-106980114D01*
X63065500Y-106991500D01*
X35334500Y-106991500D01*
X35266379Y-106971498D01*
X35219886Y-106917842D01*
X35208500Y-106865500D01*
X35208500Y-88143950D01*
X35228502Y-88075829D01*
X35282158Y-88029336D01*
X35352432Y-88019232D01*
X35417012Y-88048726D01*
X35423595Y-88054855D01*
X37076341Y-89707600D01*
X37084331Y-89716381D01*
X37084339Y-89716390D01*
X37088584Y-89723080D01*
X37094359Y-89728503D01*
X37140274Y-89771620D01*
X37143116Y-89774375D01*
X37163667Y-89794926D01*
X37166801Y-89797357D01*
X37167163Y-89797638D01*
X37176191Y-89805348D01*
X37209867Y-89836972D01*
X37216818Y-89840793D01*
X37216819Y-89840794D01*
X37228655Y-89847301D01*
X37245183Y-89858157D01*
X37262131Y-89871304D01*
X37304545Y-89889659D01*
X37315183Y-89894871D01*
X37355663Y-89917124D01*
X37363340Y-89919095D01*
X37363345Y-89919097D01*
X37376426Y-89922455D01*
X37395134Y-89928860D01*
X37414823Y-89937380D01*
X37422649Y-89938619D01*
X37422651Y-89938620D01*
X37447159Y-89942501D01*
X37460459Y-89944608D01*
X37472070Y-89947012D01*
X37503107Y-89954981D01*
X37509135Y-89956529D01*
X37509136Y-89956529D01*
X37516812Y-89958500D01*
X37538258Y-89958500D01*
X37557968Y-89960051D01*
X37579151Y-89963406D01*
X37625140Y-89959059D01*
X37636995Y-89958500D01*
X43619776Y-89958500D01*
X43687897Y-89978502D01*
X43693834Y-89982562D01*
X43843248Y-90091118D01*
X43849276Y-90093802D01*
X43849278Y-90093803D01*
X44011681Y-90166109D01*
X44017712Y-90168794D01*
X44111112Y-90188647D01*
X44198056Y-90207128D01*
X44198061Y-90207128D01*
X44204513Y-90208500D01*
X44395487Y-90208500D01*
X44401939Y-90207128D01*
X44401944Y-90207128D01*
X44488888Y-90188647D01*
X44582288Y-90168794D01*
X44588319Y-90166109D01*
X44750722Y-90093803D01*
X44750724Y-90093802D01*
X44756752Y-90091118D01*
X44911253Y-89978866D01*
X44939932Y-89947015D01*
X45034621Y-89841852D01*
X45034622Y-89841851D01*
X45039040Y-89836944D01*
X45134527Y-89671556D01*
X45193542Y-89489928D01*
X45213504Y-89300000D01*
X45193542Y-89110072D01*
X45134527Y-88928444D01*
X45039040Y-88763056D01*
X44911253Y-88621134D01*
X44756752Y-88508882D01*
X44750724Y-88506198D01*
X44750722Y-88506197D01*
X44588319Y-88433891D01*
X44588318Y-88433891D01*
X44582288Y-88431206D01*
X44488887Y-88411353D01*
X44401944Y-88392872D01*
X44401939Y-88392872D01*
X44395487Y-88391500D01*
X44204513Y-88391500D01*
X44198061Y-88392872D01*
X44198056Y-88392872D01*
X44111113Y-88411353D01*
X44017712Y-88431206D01*
X44011682Y-88433891D01*
X44011681Y-88433891D01*
X43849278Y-88506197D01*
X43849276Y-88506198D01*
X43843248Y-88508882D01*
X43694092Y-88617251D01*
X43693837Y-88617436D01*
X43626969Y-88641294D01*
X43619776Y-88641500D01*
X37924949Y-88641500D01*
X37856828Y-88621498D01*
X37835854Y-88604595D01*
X36375920Y-87144660D01*
X36341894Y-87082348D01*
X36346959Y-87011532D01*
X36389506Y-86954697D01*
X36449003Y-86930587D01*
X36539048Y-86919052D01*
X36578289Y-86914025D01*
X36578292Y-86914024D01*
X36583416Y-86913368D01*
X36588366Y-86911883D01*
X36792429Y-86850661D01*
X36792434Y-86850659D01*
X36797384Y-86849174D01*
X36997994Y-86750896D01*
X37179860Y-86621173D01*
X37184013Y-86617035D01*
X37334435Y-86467137D01*
X37338096Y-86463489D01*
X37468453Y-86282077D01*
X37481608Y-86255461D01*
X37565136Y-86086453D01*
X37565137Y-86086451D01*
X37567430Y-86081811D01*
X37632370Y-85868069D01*
X37661529Y-85646590D01*
X37662104Y-85623051D01*
X37663074Y-85583365D01*
X37663074Y-85583361D01*
X37663156Y-85580000D01*
X37644852Y-85357361D01*
X37590431Y-85140702D01*
X37501354Y-84935840D01*
X37380014Y-84748277D01*
X37229670Y-84583051D01*
X37225619Y-84579852D01*
X37225615Y-84579848D01*
X37058414Y-84447800D01*
X37058410Y-84447798D01*
X37054359Y-84444598D01*
X37013053Y-84421796D01*
X36963084Y-84371364D01*
X36948312Y-84301921D01*
X36973428Y-84235516D01*
X37000780Y-84208909D01*
X37044603Y-84177650D01*
X37179860Y-84081173D01*
X37338096Y-83923489D01*
X37468453Y-83742077D01*
X37567430Y-83541811D01*
X37632370Y-83328069D01*
X37661529Y-83106590D01*
X37663156Y-83040000D01*
X37644852Y-82817361D01*
X37590431Y-82600702D01*
X37501354Y-82395840D01*
X37380014Y-82208277D01*
X37229670Y-82043051D01*
X37225619Y-82039852D01*
X37225615Y-82039848D01*
X37058414Y-81907800D01*
X37058410Y-81907798D01*
X37054359Y-81904598D01*
X37013053Y-81881796D01*
X36963084Y-81831364D01*
X36948312Y-81761921D01*
X36973428Y-81695516D01*
X37000780Y-81668909D01*
X37044603Y-81637650D01*
X37179860Y-81541173D01*
X37338096Y-81383489D01*
X37468453Y-81202077D01*
X37567430Y-81001811D01*
X37632370Y-80788069D01*
X37661529Y-80566590D01*
X37663156Y-80500000D01*
X37644852Y-80277361D01*
X37590431Y-80060702D01*
X37501354Y-79855840D01*
X37380014Y-79668277D01*
X37229670Y-79503051D01*
X37225619Y-79499852D01*
X37225615Y-79499848D01*
X37058414Y-79367800D01*
X37058410Y-79367798D01*
X37054359Y-79364598D01*
X37013053Y-79341796D01*
X36963084Y-79291364D01*
X36948312Y-79221921D01*
X36973428Y-79155516D01*
X37000780Y-79128909D01*
X37044603Y-79097650D01*
X37179860Y-79001173D01*
X37338096Y-78843489D01*
X37468453Y-78662077D01*
X37486699Y-78625160D01*
X37565136Y-78466453D01*
X37565137Y-78466451D01*
X37567430Y-78461811D01*
X37621365Y-78284291D01*
X37630865Y-78253023D01*
X37630865Y-78253021D01*
X37632370Y-78248069D01*
X37661529Y-78026590D01*
X37661971Y-78008510D01*
X37663074Y-77963365D01*
X37663074Y-77963361D01*
X37663156Y-77960000D01*
X37644852Y-77737361D01*
X37590431Y-77520702D01*
X37501354Y-77315840D01*
X37432593Y-77209551D01*
X37382822Y-77132617D01*
X37382820Y-77132614D01*
X37380014Y-77128277D01*
X37229670Y-76963051D01*
X37225619Y-76959852D01*
X37225615Y-76959848D01*
X37058414Y-76827800D01*
X37058410Y-76827798D01*
X37054359Y-76824598D01*
X37012569Y-76801529D01*
X36962598Y-76751097D01*
X36947826Y-76681654D01*
X36972942Y-76615248D01*
X37000294Y-76588641D01*
X37175328Y-76463792D01*
X37183200Y-76457139D01*
X37334052Y-76306812D01*
X37340730Y-76298965D01*
X37465003Y-76126020D01*
X37470313Y-76117183D01*
X37564670Y-75926267D01*
X37568469Y-75916672D01*
X37630377Y-75712910D01*
X37632555Y-75702837D01*
X37633986Y-75691962D01*
X37631775Y-75677778D01*
X37618617Y-75674000D01*
X36172000Y-75674000D01*
X36103879Y-75653998D01*
X36057386Y-75600342D01*
X36046000Y-75548000D01*
X36046000Y-75292000D01*
X36066002Y-75223879D01*
X36119658Y-75177386D01*
X36172000Y-75166000D01*
X37618344Y-75166000D01*
X37631875Y-75162027D01*
X37633180Y-75152947D01*
X37591214Y-74985875D01*
X37587894Y-74976124D01*
X37502972Y-74780814D01*
X37498105Y-74771739D01*
X37382426Y-74592926D01*
X37376136Y-74584757D01*
X37232806Y-74427240D01*
X37225273Y-74420215D01*
X37058139Y-74288222D01*
X37049556Y-74282520D01*
X37012602Y-74262120D01*
X36962631Y-74211687D01*
X36947859Y-74142245D01*
X36972975Y-74075839D01*
X37000327Y-74049232D01*
X37023797Y-74032491D01*
X37179860Y-73921173D01*
X37338096Y-73763489D01*
X37468453Y-73582077D01*
X37567430Y-73381811D01*
X37632370Y-73168069D01*
X37661529Y-72946590D01*
X37663156Y-72880000D01*
X37644852Y-72657361D01*
X37590431Y-72440702D01*
X37501354Y-72235840D01*
X37405061Y-72086994D01*
X37382822Y-72052617D01*
X37382820Y-72052614D01*
X37380014Y-72048277D01*
X37229670Y-71883051D01*
X37225619Y-71879852D01*
X37225615Y-71879848D01*
X37058414Y-71747800D01*
X37058410Y-71747798D01*
X37054359Y-71744598D01*
X37013053Y-71721796D01*
X36963084Y-71671364D01*
X36948312Y-71601921D01*
X36973428Y-71535516D01*
X37000780Y-71508909D01*
X37044603Y-71477650D01*
X37179860Y-71381173D01*
X37338096Y-71223489D01*
X37468453Y-71042077D01*
X37531606Y-70914297D01*
X37565136Y-70846453D01*
X37565137Y-70846451D01*
X37567430Y-70841811D01*
X37632370Y-70628069D01*
X37661529Y-70406590D01*
X37661611Y-70403240D01*
X37663074Y-70343365D01*
X37663074Y-70343361D01*
X37663156Y-70340000D01*
X37644852Y-70117361D01*
X37590431Y-69900702D01*
X37501354Y-69695840D01*
X37380014Y-69508277D01*
X37376532Y-69504450D01*
X37232798Y-69346488D01*
X37201746Y-69282642D01*
X37210141Y-69212143D01*
X37255317Y-69157375D01*
X37281761Y-69143706D01*
X37388297Y-69103767D01*
X37396705Y-69100615D01*
X37513261Y-69013261D01*
X37600615Y-68896705D01*
X37651745Y-68760316D01*
X37658500Y-68698134D01*
X37658500Y-66901866D01*
X37651745Y-66839684D01*
X37600615Y-66703295D01*
X37513261Y-66586739D01*
X37396705Y-66499385D01*
X37260316Y-66448255D01*
X37198134Y-66441500D01*
X35784500Y-66441500D01*
X35716379Y-66421498D01*
X35669886Y-66367842D01*
X35658500Y-66315500D01*
X35658500Y-63592279D01*
X35678502Y-63524158D01*
X35732158Y-63477665D01*
X35802432Y-63467561D01*
X35829443Y-63474567D01*
G37*
G04 #@! TD.AperFunction*
G04 #@! TA.AperFunction,Conductor*
G36*
X52827884Y-56397709D02*
G01*
X52852868Y-56426542D01*
X52853776Y-56425882D01*
X52857659Y-56431226D01*
X52860960Y-56436944D01*
X52988747Y-56578866D01*
X53011511Y-56595405D01*
X53128912Y-56680702D01*
X53143248Y-56691118D01*
X53149276Y-56693802D01*
X53149278Y-56693803D01*
X53311681Y-56766109D01*
X53317712Y-56768794D01*
X53411113Y-56788647D01*
X53498056Y-56807128D01*
X53498061Y-56807128D01*
X53504513Y-56808500D01*
X53695487Y-56808500D01*
X53701939Y-56807128D01*
X53701944Y-56807128D01*
X53788887Y-56788647D01*
X53882288Y-56768794D01*
X53888319Y-56766109D01*
X54050722Y-56693803D01*
X54050724Y-56693802D01*
X54056752Y-56691118D01*
X54071089Y-56680702D01*
X54188489Y-56595405D01*
X54206163Y-56582564D01*
X54273031Y-56558706D01*
X54280224Y-56558500D01*
X56075050Y-56558500D01*
X56143171Y-56578502D01*
X56164145Y-56595405D01*
X61905075Y-62336335D01*
X61939101Y-62398647D01*
X61941980Y-62425430D01*
X61941980Y-70232459D01*
X61921978Y-70300580D01*
X61868322Y-70347073D01*
X61798048Y-70357177D01*
X61733468Y-70327683D01*
X61705460Y-70292968D01*
X61704766Y-70291701D01*
X61701615Y-70283295D01*
X61696230Y-70276109D01*
X61619642Y-70173919D01*
X61614261Y-70166739D01*
X61497705Y-70079385D01*
X61361316Y-70028255D01*
X61299134Y-70021500D01*
X59502866Y-70021500D01*
X59440684Y-70028255D01*
X59304295Y-70079385D01*
X59187739Y-70166739D01*
X59100385Y-70283295D01*
X59097233Y-70291703D01*
X59055919Y-70401907D01*
X59013277Y-70458671D01*
X58946716Y-70483371D01*
X58877367Y-70468163D01*
X58844743Y-70442476D01*
X58794151Y-70386875D01*
X58794142Y-70386866D01*
X58790670Y-70383051D01*
X58786619Y-70379852D01*
X58786615Y-70379848D01*
X58619414Y-70247800D01*
X58619410Y-70247798D01*
X58615359Y-70244598D01*
X58419789Y-70136638D01*
X58414920Y-70134914D01*
X58414916Y-70134912D01*
X58214087Y-70063795D01*
X58214083Y-70063794D01*
X58209212Y-70062069D01*
X58204119Y-70061162D01*
X58204116Y-70061161D01*
X57994373Y-70023800D01*
X57994367Y-70023799D01*
X57989284Y-70022894D01*
X57915452Y-70021992D01*
X57771081Y-70020228D01*
X57771079Y-70020228D01*
X57765911Y-70020165D01*
X57545091Y-70053955D01*
X57332756Y-70123357D01*
X57134607Y-70226507D01*
X57130474Y-70229610D01*
X57130471Y-70229612D01*
X56960100Y-70357530D01*
X56955965Y-70360635D01*
X56916525Y-70401907D01*
X56862280Y-70458671D01*
X56801629Y-70522138D01*
X56694201Y-70679621D01*
X56639293Y-70724621D01*
X56568768Y-70732792D01*
X56505021Y-70701538D01*
X56484324Y-70677054D01*
X56403822Y-70552617D01*
X56403820Y-70552614D01*
X56401014Y-70548277D01*
X56250670Y-70383051D01*
X56246619Y-70379852D01*
X56246615Y-70379848D01*
X56079414Y-70247800D01*
X56079410Y-70247798D01*
X56075359Y-70244598D01*
X55879789Y-70136638D01*
X55874920Y-70134914D01*
X55874916Y-70134912D01*
X55674087Y-70063795D01*
X55674083Y-70063794D01*
X55669212Y-70062069D01*
X55664119Y-70061162D01*
X55664116Y-70061161D01*
X55454373Y-70023800D01*
X55454367Y-70023799D01*
X55449284Y-70022894D01*
X55375452Y-70021992D01*
X55231081Y-70020228D01*
X55231079Y-70020228D01*
X55225911Y-70020165D01*
X55005091Y-70053955D01*
X54792756Y-70123357D01*
X54594607Y-70226507D01*
X54590474Y-70229610D01*
X54590471Y-70229612D01*
X54420100Y-70357530D01*
X54415965Y-70360635D01*
X54376525Y-70401907D01*
X54322280Y-70458671D01*
X54261629Y-70522138D01*
X54154201Y-70679621D01*
X54099293Y-70724621D01*
X54028768Y-70732792D01*
X53965021Y-70701538D01*
X53944324Y-70677054D01*
X53863822Y-70552617D01*
X53863820Y-70552614D01*
X53861014Y-70548277D01*
X53710670Y-70383051D01*
X53706619Y-70379852D01*
X53706615Y-70379848D01*
X53539414Y-70247800D01*
X53539410Y-70247798D01*
X53535359Y-70244598D01*
X53339789Y-70136638D01*
X53334920Y-70134914D01*
X53334916Y-70134912D01*
X53134087Y-70063795D01*
X53134083Y-70063794D01*
X53129212Y-70062069D01*
X53124119Y-70061162D01*
X53124116Y-70061161D01*
X52914373Y-70023800D01*
X52914367Y-70023799D01*
X52909284Y-70022894D01*
X52835452Y-70021992D01*
X52691081Y-70020228D01*
X52691079Y-70020228D01*
X52685911Y-70020165D01*
X52465091Y-70053955D01*
X52252756Y-70123357D01*
X52054607Y-70226507D01*
X52050474Y-70229610D01*
X52050471Y-70229612D01*
X51880100Y-70357530D01*
X51875965Y-70360635D01*
X51836525Y-70401907D01*
X51782280Y-70458671D01*
X51721629Y-70522138D01*
X51614201Y-70679621D01*
X51559293Y-70724621D01*
X51488768Y-70732792D01*
X51425021Y-70701538D01*
X51404324Y-70677054D01*
X51323822Y-70552617D01*
X51323820Y-70552614D01*
X51321014Y-70548277D01*
X51170670Y-70383051D01*
X51166619Y-70379852D01*
X51166615Y-70379848D01*
X50999414Y-70247800D01*
X50999410Y-70247798D01*
X50995359Y-70244598D01*
X50799789Y-70136638D01*
X50794920Y-70134914D01*
X50794916Y-70134912D01*
X50614972Y-70071191D01*
X50557436Y-70029597D01*
X50531520Y-69963499D01*
X50545454Y-69893883D01*
X50567937Y-69863323D01*
X52607600Y-67823659D01*
X52616381Y-67815669D01*
X52616390Y-67815661D01*
X52623080Y-67811416D01*
X52671621Y-67759725D01*
X52674375Y-67756884D01*
X52694926Y-67736333D01*
X52697638Y-67732837D01*
X52705349Y-67723808D01*
X52731544Y-67695913D01*
X52736972Y-67690133D01*
X52747301Y-67671345D01*
X52758158Y-67654816D01*
X52766447Y-67644131D01*
X52766448Y-67644129D01*
X52771304Y-67637869D01*
X52789657Y-67595456D01*
X52794868Y-67584819D01*
X52817124Y-67544337D01*
X52822457Y-67523566D01*
X52828859Y-67504864D01*
X52837379Y-67485177D01*
X52844605Y-67439552D01*
X52847013Y-67427926D01*
X52856529Y-67390865D01*
X52856529Y-67390864D01*
X52858500Y-67383188D01*
X52858500Y-67361742D01*
X52860051Y-67342031D01*
X52862166Y-67328678D01*
X52863406Y-67320849D01*
X52859059Y-67274864D01*
X52858500Y-67263006D01*
X52858500Y-62822086D01*
X52859059Y-62810230D01*
X52859059Y-62810227D01*
X52860788Y-62802493D01*
X52858562Y-62731661D01*
X52858500Y-62727703D01*
X52858500Y-62698598D01*
X52857944Y-62694198D01*
X52857012Y-62682360D01*
X52855811Y-62644124D01*
X52855562Y-62636199D01*
X52849580Y-62615609D01*
X52845570Y-62596246D01*
X52843875Y-62582826D01*
X52843875Y-62582825D01*
X52842882Y-62574966D01*
X52839966Y-62567601D01*
X52839965Y-62567597D01*
X52825874Y-62532009D01*
X52822035Y-62520799D01*
X52809145Y-62476430D01*
X52798229Y-62457973D01*
X52789534Y-62440223D01*
X52781635Y-62420274D01*
X52774223Y-62410072D01*
X52754477Y-62382894D01*
X52747960Y-62372973D01*
X52724452Y-62333223D01*
X52709291Y-62318062D01*
X52696449Y-62303027D01*
X52683841Y-62285673D01*
X52648242Y-62256223D01*
X52639473Y-62248244D01*
X51695403Y-61304173D01*
X51661379Y-61241863D01*
X51658500Y-61215080D01*
X51658500Y-56932397D01*
X51678502Y-56864276D01*
X51732158Y-56817783D01*
X51797668Y-56807087D01*
X51798058Y-56807128D01*
X51804513Y-56808500D01*
X51995487Y-56808500D01*
X52001939Y-56807128D01*
X52001944Y-56807128D01*
X52088887Y-56788647D01*
X52182288Y-56768794D01*
X52188319Y-56766109D01*
X52350722Y-56693803D01*
X52350724Y-56693802D01*
X52356752Y-56691118D01*
X52371089Y-56680702D01*
X52488489Y-56595405D01*
X52511253Y-56578866D01*
X52639040Y-56436944D01*
X52642341Y-56431226D01*
X52646224Y-56425882D01*
X52647878Y-56427084D01*
X52692259Y-56384764D01*
X52761972Y-56371325D01*
X52827884Y-56397709D01*
G37*
G04 #@! TD.AperFunction*
G04 #@! TA.AperFunction,Conductor*
G36*
X63133621Y-48028502D02*
G01*
X63180114Y-48082158D01*
X63191500Y-48134500D01*
X63191500Y-60749623D01*
X63171498Y-60817744D01*
X63117842Y-60864237D01*
X63047568Y-60874341D01*
X62982988Y-60844847D01*
X62976405Y-60838718D01*
X56880571Y-54742884D01*
X56872581Y-54734104D01*
X56872579Y-54734102D01*
X56868332Y-54727409D01*
X56850881Y-54711021D01*
X56816659Y-54678885D01*
X56813817Y-54676130D01*
X56793249Y-54655562D01*
X56789742Y-54652842D01*
X56780720Y-54645136D01*
X56776529Y-54641200D01*
X56747049Y-54613517D01*
X56740097Y-54609695D01*
X56728258Y-54603186D01*
X56711734Y-54592332D01*
X56701048Y-54584044D01*
X56694784Y-54579185D01*
X56687512Y-54576038D01*
X56687510Y-54576037D01*
X56652381Y-54560835D01*
X56641721Y-54555613D01*
X56608200Y-54537184D01*
X56608198Y-54537183D01*
X56601253Y-54533365D01*
X56580475Y-54528030D01*
X56561785Y-54521631D01*
X56542092Y-54513109D01*
X56496468Y-54505883D01*
X56484845Y-54503476D01*
X56450573Y-54494677D01*
X56440104Y-54491989D01*
X56418657Y-54491989D01*
X56398947Y-54490438D01*
X56377764Y-54487083D01*
X56331775Y-54491430D01*
X56319920Y-54491989D01*
X52731571Y-54491989D01*
X52719714Y-54491430D01*
X52711974Y-54489700D01*
X52704049Y-54489949D01*
X52704048Y-54489949D01*
X52641110Y-54491927D01*
X52637152Y-54491989D01*
X52608079Y-54491989D01*
X52604145Y-54492486D01*
X52604143Y-54492486D01*
X52603700Y-54492542D01*
X52591865Y-54493474D01*
X52559075Y-54494505D01*
X52553600Y-54494677D01*
X52553599Y-54494677D01*
X52545680Y-54494926D01*
X52525955Y-54500657D01*
X52525082Y-54500910D01*
X52505729Y-54504918D01*
X52502254Y-54505357D01*
X52484447Y-54507607D01*
X52477079Y-54510524D01*
X52477076Y-54510525D01*
X52441493Y-54524614D01*
X52430258Y-54528460D01*
X52393527Y-54539131D01*
X52393524Y-54539132D01*
X52385911Y-54541344D01*
X52367446Y-54552264D01*
X52349706Y-54560955D01*
X52329755Y-54568854D01*
X52292385Y-54596005D01*
X52282463Y-54602522D01*
X52249534Y-54621996D01*
X52249530Y-54621999D01*
X52242704Y-54626036D01*
X52227540Y-54641200D01*
X52212507Y-54654040D01*
X52195154Y-54666648D01*
X52185031Y-54678885D01*
X52165709Y-54702241D01*
X52157719Y-54711021D01*
X51914145Y-54954595D01*
X51851833Y-54988621D01*
X51825050Y-54991500D01*
X51804513Y-54991500D01*
X51798058Y-54992872D01*
X51797668Y-54992913D01*
X51727830Y-54980140D01*
X51675984Y-54931637D01*
X51658500Y-54867603D01*
X51658500Y-54624950D01*
X51678502Y-54556829D01*
X51695405Y-54535855D01*
X51985855Y-54245405D01*
X52048167Y-54211379D01*
X52074950Y-54208500D01*
X52095487Y-54208500D01*
X52101939Y-54207128D01*
X52101944Y-54207128D01*
X52188888Y-54188647D01*
X52282288Y-54168794D01*
X52301034Y-54160448D01*
X52450722Y-54093803D01*
X52450724Y-54093802D01*
X52456752Y-54091118D01*
X52463746Y-54086037D01*
X52515113Y-54048716D01*
X52611253Y-53978866D01*
X52626320Y-53962132D01*
X52734621Y-53841852D01*
X52734622Y-53841851D01*
X52739040Y-53836944D01*
X52834527Y-53671556D01*
X52893542Y-53489928D01*
X52898569Y-53442104D01*
X52912814Y-53306565D01*
X52913504Y-53300000D01*
X52893542Y-53110072D01*
X52834527Y-52928444D01*
X52739040Y-52763056D01*
X52720151Y-52742077D01*
X52615675Y-52626045D01*
X52615674Y-52626044D01*
X52611253Y-52621134D01*
X52456752Y-52508882D01*
X52450724Y-52506198D01*
X52450722Y-52506197D01*
X52288319Y-52433891D01*
X52288318Y-52433891D01*
X52282288Y-52431206D01*
X52188887Y-52411353D01*
X52101944Y-52392872D01*
X52101939Y-52392872D01*
X52095487Y-52391500D01*
X51904513Y-52391500D01*
X51898061Y-52392872D01*
X51898056Y-52392872D01*
X51811113Y-52411353D01*
X51717712Y-52431206D01*
X51711682Y-52433891D01*
X51711681Y-52433891D01*
X51549278Y-52506197D01*
X51549276Y-52506198D01*
X51543248Y-52508882D01*
X51388747Y-52621134D01*
X51384326Y-52626044D01*
X51384325Y-52626045D01*
X51279850Y-52742077D01*
X51260960Y-52763056D01*
X51165473Y-52928444D01*
X51106458Y-53110072D01*
X51105768Y-53116635D01*
X51105768Y-53116636D01*
X51093245Y-53235786D01*
X51066232Y-53301442D01*
X51057030Y-53311710D01*
X50592395Y-53776345D01*
X50583615Y-53784335D01*
X50583613Y-53784337D01*
X50576920Y-53788584D01*
X50571494Y-53794362D01*
X50571493Y-53794363D01*
X50528396Y-53840257D01*
X50525641Y-53843099D01*
X50505073Y-53863667D01*
X50502356Y-53867170D01*
X50494648Y-53876195D01*
X50463028Y-53909867D01*
X50459207Y-53916818D01*
X50459206Y-53916819D01*
X50452697Y-53928658D01*
X50441843Y-53945182D01*
X50434018Y-53955271D01*
X50428696Y-53962132D01*
X50425549Y-53969404D01*
X50425548Y-53969406D01*
X50410346Y-54004535D01*
X50405124Y-54015195D01*
X50382876Y-54055663D01*
X50377541Y-54076441D01*
X50371142Y-54095131D01*
X50362620Y-54114824D01*
X50357727Y-54145720D01*
X50355394Y-54160448D01*
X50352987Y-54172071D01*
X50341500Y-54216812D01*
X50341500Y-54238259D01*
X50339949Y-54257969D01*
X50336594Y-54279152D01*
X50337340Y-54287043D01*
X50340941Y-54325138D01*
X50341500Y-54336996D01*
X50341500Y-61457974D01*
X50340941Y-61469830D01*
X50339212Y-61477567D01*
X50339461Y-61485489D01*
X50341438Y-61548399D01*
X50341500Y-61552357D01*
X50341500Y-61581462D01*
X50342056Y-61585862D01*
X50342988Y-61597694D01*
X50344438Y-61643861D01*
X50346650Y-61651474D01*
X50346650Y-61651475D01*
X50350419Y-61664446D01*
X50354430Y-61683812D01*
X50357118Y-61705094D01*
X50360034Y-61712459D01*
X50360035Y-61712463D01*
X50374126Y-61748051D01*
X50377965Y-61759261D01*
X50390855Y-61803630D01*
X50401775Y-61822095D01*
X50410466Y-61839835D01*
X50418365Y-61859786D01*
X50445516Y-61897156D01*
X50452033Y-61907078D01*
X50471507Y-61940007D01*
X50471510Y-61940011D01*
X50475547Y-61946837D01*
X50490711Y-61962001D01*
X50503551Y-61977034D01*
X50516159Y-61994387D01*
X50551752Y-62023832D01*
X50560521Y-62031811D01*
X51504596Y-62975885D01*
X51538620Y-63038196D01*
X51541500Y-63064979D01*
X51541500Y-64665500D01*
X51521498Y-64733621D01*
X51467842Y-64780114D01*
X51415500Y-64791500D01*
X51304513Y-64791500D01*
X51298061Y-64792872D01*
X51298056Y-64792872D01*
X51211112Y-64811353D01*
X51117712Y-64831206D01*
X51111682Y-64833891D01*
X51111681Y-64833891D01*
X50949278Y-64906197D01*
X50949276Y-64906198D01*
X50943248Y-64908882D01*
X50937907Y-64912762D01*
X50937906Y-64912763D01*
X50793837Y-65017436D01*
X50726969Y-65041294D01*
X50719776Y-65041500D01*
X47480224Y-65041500D01*
X47412103Y-65021498D01*
X47406163Y-65017436D01*
X47262094Y-64912763D01*
X47262093Y-64912762D01*
X47256752Y-64908882D01*
X47250724Y-64906198D01*
X47250722Y-64906197D01*
X47088319Y-64833891D01*
X47088318Y-64833891D01*
X47082288Y-64831206D01*
X46988888Y-64811353D01*
X46901944Y-64792872D01*
X46901939Y-64792872D01*
X46895487Y-64791500D01*
X46704513Y-64791500D01*
X46698061Y-64792872D01*
X46698056Y-64792872D01*
X46611112Y-64811353D01*
X46517712Y-64831206D01*
X46511682Y-64833891D01*
X46511681Y-64833891D01*
X46349278Y-64906197D01*
X46349276Y-64906198D01*
X46343248Y-64908882D01*
X46337907Y-64912762D01*
X46337906Y-64912763D01*
X46193837Y-65017436D01*
X46126969Y-65041294D01*
X46119776Y-65041500D01*
X40124949Y-65041500D01*
X40056828Y-65021498D01*
X40035854Y-65004595D01*
X37659457Y-62628197D01*
X37644060Y-62600000D01*
X38686496Y-62600000D01*
X38687186Y-62606565D01*
X38700127Y-62729688D01*
X38706458Y-62789928D01*
X38765473Y-62971556D01*
X38860960Y-63136944D01*
X38988747Y-63278866D01*
X39143248Y-63391118D01*
X39149276Y-63393802D01*
X39149278Y-63393803D01*
X39311681Y-63466109D01*
X39317712Y-63468794D01*
X39411112Y-63488647D01*
X39498056Y-63507128D01*
X39498061Y-63507128D01*
X39504513Y-63508500D01*
X39695487Y-63508500D01*
X39701939Y-63507128D01*
X39701944Y-63507128D01*
X39788888Y-63488647D01*
X39882288Y-63468794D01*
X39888319Y-63466109D01*
X40050722Y-63393803D01*
X40050724Y-63393802D01*
X40056752Y-63391118D01*
X40211253Y-63278866D01*
X40339040Y-63136944D01*
X40434527Y-62971556D01*
X40483093Y-62822086D01*
X40491502Y-62796207D01*
X40491502Y-62796205D01*
X40493542Y-62789928D01*
X40506755Y-62664213D01*
X40533768Y-62598558D01*
X40542970Y-62588290D01*
X40835855Y-62295405D01*
X40898167Y-62261379D01*
X40924950Y-62258500D01*
X46719776Y-62258500D01*
X46787897Y-62278502D01*
X46793834Y-62282562D01*
X46798116Y-62285673D01*
X46931929Y-62382894D01*
X46943248Y-62391118D01*
X46949276Y-62393802D01*
X46949278Y-62393803D01*
X47093414Y-62457976D01*
X47117712Y-62468794D01*
X47184273Y-62482942D01*
X47298056Y-62507128D01*
X47298061Y-62507128D01*
X47304513Y-62508500D01*
X47495487Y-62508500D01*
X47501939Y-62507128D01*
X47501944Y-62507128D01*
X47615727Y-62482942D01*
X47682288Y-62468794D01*
X47706586Y-62457976D01*
X47850722Y-62393803D01*
X47850724Y-62393802D01*
X47856752Y-62391118D01*
X47868072Y-62382894D01*
X47944157Y-62327614D01*
X48011253Y-62278866D01*
X48139040Y-62136944D01*
X48218428Y-61999440D01*
X48231223Y-61977279D01*
X48231224Y-61977278D01*
X48234527Y-61971556D01*
X48293542Y-61789928D01*
X48296087Y-61765720D01*
X48312814Y-61606565D01*
X48313504Y-61600000D01*
X48293542Y-61410072D01*
X48234527Y-61228444D01*
X48139040Y-61063056D01*
X48119899Y-61041797D01*
X48015675Y-60926045D01*
X48015674Y-60926044D01*
X48011253Y-60921134D01*
X47884317Y-60828909D01*
X47862094Y-60812763D01*
X47862093Y-60812762D01*
X47856752Y-60808882D01*
X47850724Y-60806198D01*
X47850722Y-60806197D01*
X47688319Y-60733891D01*
X47688318Y-60733891D01*
X47682288Y-60731206D01*
X47588888Y-60711353D01*
X47501944Y-60692872D01*
X47501939Y-60692872D01*
X47495487Y-60691500D01*
X47304513Y-60691500D01*
X47298061Y-60692872D01*
X47298056Y-60692872D01*
X47211112Y-60711353D01*
X47117712Y-60731206D01*
X47111682Y-60733891D01*
X47111681Y-60733891D01*
X46949278Y-60806197D01*
X46949276Y-60806198D01*
X46943248Y-60808882D01*
X46937907Y-60812762D01*
X46937906Y-60812763D01*
X46879062Y-60855516D01*
X46794092Y-60917251D01*
X46793837Y-60917436D01*
X46726969Y-60941294D01*
X46719776Y-60941500D01*
X40682060Y-60941500D01*
X40670203Y-60940941D01*
X40662463Y-60939211D01*
X40654538Y-60939460D01*
X40654537Y-60939460D01*
X40591599Y-60941438D01*
X40587641Y-60941500D01*
X40558568Y-60941500D01*
X40554634Y-60941997D01*
X40554632Y-60941997D01*
X40554189Y-60942053D01*
X40542354Y-60942985D01*
X40509564Y-60944016D01*
X40504089Y-60944188D01*
X40504088Y-60944188D01*
X40496169Y-60944437D01*
X40476444Y-60950168D01*
X40475571Y-60950421D01*
X40456218Y-60954429D01*
X40452743Y-60954868D01*
X40434936Y-60957118D01*
X40427568Y-60960035D01*
X40427565Y-60960036D01*
X40391982Y-60974125D01*
X40380747Y-60977971D01*
X40344016Y-60988642D01*
X40344013Y-60988643D01*
X40336400Y-60990855D01*
X40317935Y-61001775D01*
X40300195Y-61010466D01*
X40280244Y-61018365D01*
X40247993Y-61041797D01*
X40242874Y-61045516D01*
X40232952Y-61052033D01*
X40200023Y-61071507D01*
X40200019Y-61071510D01*
X40193193Y-61075547D01*
X40178029Y-61090711D01*
X40162996Y-61103551D01*
X40145643Y-61116159D01*
X40116198Y-61151752D01*
X40108208Y-61160532D01*
X39614145Y-61654595D01*
X39551833Y-61688621D01*
X39525050Y-61691500D01*
X39504513Y-61691500D01*
X39498061Y-61692872D01*
X39498056Y-61692872D01*
X39411113Y-61711353D01*
X39317712Y-61731206D01*
X39311682Y-61733891D01*
X39311681Y-61733891D01*
X39149278Y-61806197D01*
X39149276Y-61806198D01*
X39143248Y-61808882D01*
X39137907Y-61812762D01*
X39137906Y-61812763D01*
X39087843Y-61849136D01*
X38988747Y-61921134D01*
X38984326Y-61926044D01*
X38984325Y-61926045D01*
X38938414Y-61977035D01*
X38860960Y-62063056D01*
X38765473Y-62228444D01*
X38706458Y-62410072D01*
X38705768Y-62416633D01*
X38705768Y-62416635D01*
X38698799Y-62482942D01*
X38686496Y-62600000D01*
X37644060Y-62600000D01*
X37625431Y-62565885D01*
X37627994Y-62502473D01*
X37632370Y-62488069D01*
X37661529Y-62266590D01*
X37661875Y-62252440D01*
X37663074Y-62203365D01*
X37663074Y-62203361D01*
X37663156Y-62200000D01*
X37644852Y-61977361D01*
X37590431Y-61760702D01*
X37501354Y-61555840D01*
X37411298Y-61416635D01*
X37382822Y-61372617D01*
X37382820Y-61372614D01*
X37380014Y-61368277D01*
X37229670Y-61203051D01*
X37225619Y-61199852D01*
X37225615Y-61199848D01*
X37058414Y-61067800D01*
X37058410Y-61067798D01*
X37054359Y-61064598D01*
X37013053Y-61041796D01*
X36963084Y-60991364D01*
X36948312Y-60921921D01*
X36973428Y-60855516D01*
X37000780Y-60828909D01*
X37111935Y-60749623D01*
X37179860Y-60701173D01*
X37338096Y-60543489D01*
X37468453Y-60362077D01*
X37567430Y-60161811D01*
X37632370Y-59948069D01*
X37661529Y-59726590D01*
X37663156Y-59660000D01*
X37644852Y-59437361D01*
X37590431Y-59220702D01*
X37501354Y-59015840D01*
X37380014Y-58828277D01*
X37229670Y-58663051D01*
X37225619Y-58659852D01*
X37225615Y-58659848D01*
X37058414Y-58527800D01*
X37058410Y-58527798D01*
X37054359Y-58524598D01*
X37013053Y-58501796D01*
X36963084Y-58451364D01*
X36948312Y-58381921D01*
X36973428Y-58315516D01*
X37000780Y-58288909D01*
X37058207Y-58247947D01*
X37179860Y-58161173D01*
X37207798Y-58133333D01*
X37334435Y-58007137D01*
X37338096Y-58003489D01*
X37387371Y-57934916D01*
X37465435Y-57826277D01*
X37468453Y-57822077D01*
X37567430Y-57621811D01*
X37632370Y-57408069D01*
X37661529Y-57186590D01*
X37663156Y-57120000D01*
X37644852Y-56897361D01*
X37590431Y-56680702D01*
X37501354Y-56475840D01*
X37380014Y-56288277D01*
X37229670Y-56123051D01*
X37225619Y-56119852D01*
X37225615Y-56119848D01*
X37058414Y-55987800D01*
X37058410Y-55987798D01*
X37054359Y-55984598D01*
X37013053Y-55961796D01*
X36963084Y-55911364D01*
X36948312Y-55841921D01*
X36973428Y-55775516D01*
X37000780Y-55748909D01*
X37058207Y-55707947D01*
X37179860Y-55621173D01*
X37207798Y-55593333D01*
X37334435Y-55467137D01*
X37338096Y-55463489D01*
X37387371Y-55394916D01*
X37465435Y-55286277D01*
X37468453Y-55282077D01*
X37567430Y-55081811D01*
X37632370Y-54868069D01*
X37661529Y-54646590D01*
X37662130Y-54621996D01*
X37663074Y-54583365D01*
X37663074Y-54583361D01*
X37663156Y-54580000D01*
X37644852Y-54357361D01*
X37590431Y-54140702D01*
X37501354Y-53935840D01*
X37433676Y-53831226D01*
X37382822Y-53752617D01*
X37382820Y-53752614D01*
X37380014Y-53748277D01*
X37229670Y-53583051D01*
X37225619Y-53579852D01*
X37225615Y-53579848D01*
X37058414Y-53447800D01*
X37058410Y-53447798D01*
X37054359Y-53444598D01*
X37013053Y-53421796D01*
X36963084Y-53371364D01*
X36948312Y-53301921D01*
X36973428Y-53235516D01*
X37000780Y-53208909D01*
X37058207Y-53167947D01*
X37179860Y-53081173D01*
X37207798Y-53053333D01*
X37261209Y-53000107D01*
X37338096Y-52923489D01*
X37387371Y-52854916D01*
X37465435Y-52746277D01*
X37468453Y-52742077D01*
X37528227Y-52621134D01*
X37565136Y-52546453D01*
X37565137Y-52546451D01*
X37567430Y-52541811D01*
X37632370Y-52328069D01*
X37661529Y-52106590D01*
X37663156Y-52040000D01*
X37644852Y-51817361D01*
X37590431Y-51600702D01*
X37501354Y-51395840D01*
X37380014Y-51208277D01*
X37376540Y-51204459D01*
X37376533Y-51204450D01*
X37232435Y-51046088D01*
X37201383Y-50982242D01*
X37209779Y-50911744D01*
X37254956Y-50856976D01*
X37281400Y-50843307D01*
X37388052Y-50803325D01*
X37403649Y-50794786D01*
X37505724Y-50718285D01*
X37518285Y-50705724D01*
X37594786Y-50603649D01*
X37603324Y-50588054D01*
X37648478Y-50467606D01*
X37652105Y-50452351D01*
X37657631Y-50401486D01*
X37658000Y-50394672D01*
X37658000Y-49772115D01*
X37653525Y-49756876D01*
X37652135Y-49755671D01*
X37644452Y-49754000D01*
X36172000Y-49754000D01*
X36103879Y-49733998D01*
X36057386Y-49680342D01*
X36046000Y-49628000D01*
X36046000Y-49372000D01*
X36066002Y-49303879D01*
X36119658Y-49257386D01*
X36172000Y-49246000D01*
X37639884Y-49246000D01*
X37655123Y-49241525D01*
X37656328Y-49240135D01*
X37657999Y-49232452D01*
X37657999Y-48605331D01*
X37657629Y-48598510D01*
X37652105Y-48547648D01*
X37648479Y-48532396D01*
X37603324Y-48411946D01*
X37594786Y-48396351D01*
X37518285Y-48294276D01*
X37505724Y-48281715D01*
X37443827Y-48235326D01*
X37401312Y-48178467D01*
X37396286Y-48107649D01*
X37430346Y-48045355D01*
X37492677Y-48011365D01*
X37519392Y-48008500D01*
X63065500Y-48008500D01*
X63133621Y-48028502D01*
G37*
G04 #@! TD.AperFunction*
M02*
