G04 #@! TF.GenerationSoftware,KiCad,Pcbnew,6.0.10+dfsg-1~bpo11+1*
G04 #@! TF.CreationDate,2023-02-18T13:34:55+00:00*
G04 #@! TF.ProjectId,RP2040-VCO,52503230-3430-42d5-9643-4f2e6b696361,rev?*
G04 #@! TF.SameCoordinates,Original*
G04 #@! TF.FileFunction,Soldermask,Bot*
G04 #@! TF.FilePolarity,Negative*
%FSLAX46Y46*%
G04 Gerber Fmt 4.6, Leading zero omitted, Abs format (unit mm)*
G04 Created by KiCad (PCBNEW 6.0.10+dfsg-1~bpo11+1) date 2023-02-18 13:34:55*
%MOMM*%
%LPD*%
G01*
G04 APERTURE LIST*
%ADD10C,1.700000*%
%ADD11R,1.700000X1.700000*%
%ADD12O,1.700000X1.700000*%
G04 APERTURE END LIST*
G36*
G01*
X53380000Y-99897500D02*
X54580000Y-99897500D01*
G75*
G02*
X54830000Y-100147500I0J-250000D01*
G01*
X54830000Y-101347500D01*
G75*
G02*
X54580000Y-101597500I-250000J0D01*
G01*
X53380000Y-101597500D01*
G75*
G02*
X53130000Y-101347500I0J250000D01*
G01*
X53130000Y-100147500D01*
G75*
G02*
X53380000Y-99897500I250000J0D01*
G01*
G37*
D10*
X53980000Y-103287500D03*
X51440000Y-100747500D03*
X51440000Y-103287500D03*
X48900000Y-100747500D03*
X48900000Y-103287500D03*
X46360000Y-100747500D03*
X46360000Y-103287500D03*
X43820000Y-100747500D03*
X43820000Y-103287500D03*
D11*
X60401000Y-71380000D03*
D10*
X57861000Y-71380000D03*
X55321000Y-71380000D03*
X52781000Y-71380000D03*
X50241000Y-71380000D03*
X47701000Y-71380000D03*
X45161000Y-71380000D03*
X45161000Y-86620000D03*
X47701000Y-86620000D03*
X50241000Y-86620000D03*
X52781000Y-86620000D03*
X55321000Y-86620000D03*
X57861000Y-86620000D03*
X60401000Y-86620000D03*
D11*
X36300000Y-67800000D03*
D12*
X36300000Y-70340000D03*
X36300000Y-72880000D03*
X36300000Y-75420000D03*
X36300000Y-77960000D03*
X36300000Y-80500000D03*
X36300000Y-83040000D03*
X36300000Y-85580000D03*
D11*
X36300000Y-49500000D03*
D12*
X36300000Y-52040000D03*
X36300000Y-54580000D03*
X36300000Y-57120000D03*
X36300000Y-59660000D03*
X36300000Y-62200000D03*
M02*
