G04 #@! TF.GenerationSoftware,KiCad,Pcbnew,6.0.10+dfsg-1~bpo11+1*
G04 #@! TF.CreationDate,2023-02-18T13:34:55+00:00*
G04 #@! TF.ProjectId,RP2040-VCO,52503230-3430-42d5-9643-4f2e6b696361,rev?*
G04 #@! TF.SameCoordinates,Original*
G04 #@! TF.FileFunction,Copper,L1,Top*
G04 #@! TF.FilePolarity,Positive*
%FSLAX46Y46*%
G04 Gerber Fmt 4.6, Leading zero omitted, Abs format (unit mm)*
G04 Created by KiCad (PCBNEW 6.0.10+dfsg-1~bpo11+1) date 2023-02-18 13:34:55*
%MOMM*%
%LPD*%
G01*
G04 APERTURE LIST*
G04 #@! TA.AperFunction,SMDPad,CuDef*
%ADD10R,0.900000X1.200000*%
G04 #@! TD*
G04 #@! TA.AperFunction,ComponentPad*
%ADD11C,1.700000*%
G04 #@! TD*
G04 #@! TA.AperFunction,ComponentPad*
%ADD12R,1.700000X1.700000*%
G04 #@! TD*
G04 #@! TA.AperFunction,SMDPad,CuDef*
%ADD13R,0.600000X1.200000*%
G04 #@! TD*
G04 #@! TA.AperFunction,ComponentPad*
%ADD14O,1.700000X1.700000*%
G04 #@! TD*
G04 #@! TA.AperFunction,ViaPad*
%ADD15C,0.800000*%
G04 #@! TD*
G04 #@! TA.AperFunction,Conductor*
%ADD16C,0.300000*%
G04 #@! TD*
G04 APERTURE END LIST*
G04 #@! TA.AperFunction,SMDPad,CuDef*
G36*
G01*
X41450000Y-96647500D02*
X40350000Y-96647500D01*
G75*
G02*
X40100000Y-96397500I0J250000D01*
G01*
X40100000Y-94297500D01*
G75*
G02*
X40350000Y-94047500I250000J0D01*
G01*
X41450000Y-94047500D01*
G75*
G02*
X41700000Y-94297500I0J-250000D01*
G01*
X41700000Y-96397500D01*
G75*
G02*
X41450000Y-96647500I-250000J0D01*
G01*
G37*
G04 #@! TD.AperFunction*
G04 #@! TA.AperFunction,SMDPad,CuDef*
G36*
G01*
X41450000Y-93047500D02*
X40350000Y-93047500D01*
G75*
G02*
X40100000Y-92797500I0J250000D01*
G01*
X40100000Y-90697500D01*
G75*
G02*
X40350000Y-90447500I250000J0D01*
G01*
X41450000Y-90447500D01*
G75*
G02*
X41700000Y-90697500I0J-250000D01*
G01*
X41700000Y-92797500D01*
G75*
G02*
X41450000Y-93047500I-250000J0D01*
G01*
G37*
G04 #@! TD.AperFunction*
G04 #@! TA.AperFunction,SMDPad,CuDef*
G36*
G01*
X56430000Y-90447500D02*
X57530000Y-90447500D01*
G75*
G02*
X57780000Y-90697500I0J-250000D01*
G01*
X57780000Y-92797500D01*
G75*
G02*
X57530000Y-93047500I-250000J0D01*
G01*
X56430000Y-93047500D01*
G75*
G02*
X56180000Y-92797500I0J250000D01*
G01*
X56180000Y-90697500D01*
G75*
G02*
X56430000Y-90447500I250000J0D01*
G01*
G37*
G04 #@! TD.AperFunction*
G04 #@! TA.AperFunction,SMDPad,CuDef*
G36*
G01*
X56430000Y-94047500D02*
X57530000Y-94047500D01*
G75*
G02*
X57780000Y-94297500I0J-250000D01*
G01*
X57780000Y-96397500D01*
G75*
G02*
X57530000Y-96647500I-250000J0D01*
G01*
X56430000Y-96647500D01*
G75*
G02*
X56180000Y-96397500I0J250000D01*
G01*
X56180000Y-94297500D01*
G75*
G02*
X56430000Y-94047500I250000J0D01*
G01*
G37*
G04 #@! TD.AperFunction*
G04 #@! TA.AperFunction,SMDPad,CuDef*
G36*
G01*
X48102500Y-84800000D02*
X47202500Y-84800000D01*
G75*
G02*
X46952500Y-84550000I0J250000D01*
G01*
X46952500Y-83850000D01*
G75*
G02*
X47202500Y-83600000I250000J0D01*
G01*
X48102500Y-83600000D01*
G75*
G02*
X48352500Y-83850000I0J-250000D01*
G01*
X48352500Y-84550000D01*
G75*
G02*
X48102500Y-84800000I-250000J0D01*
G01*
G37*
G04 #@! TD.AperFunction*
G04 #@! TA.AperFunction,SMDPad,CuDef*
G36*
G01*
X48102500Y-82800000D02*
X47202500Y-82800000D01*
G75*
G02*
X46952500Y-82550000I0J250000D01*
G01*
X46952500Y-81850000D01*
G75*
G02*
X47202500Y-81600000I250000J0D01*
G01*
X48102500Y-81600000D01*
G75*
G02*
X48352500Y-81850000I0J-250000D01*
G01*
X48352500Y-82550000D01*
G75*
G02*
X48102500Y-82800000I-250000J0D01*
G01*
G37*
G04 #@! TD.AperFunction*
G04 #@! TA.AperFunction,SMDPad,CuDef*
G36*
G01*
X56852500Y-52150000D02*
X56852500Y-51250000D01*
G75*
G02*
X57102500Y-51000000I250000J0D01*
G01*
X57802500Y-51000000D01*
G75*
G02*
X58052500Y-51250000I0J-250000D01*
G01*
X58052500Y-52150000D01*
G75*
G02*
X57802500Y-52400000I-250000J0D01*
G01*
X57102500Y-52400000D01*
G75*
G02*
X56852500Y-52150000I0J250000D01*
G01*
G37*
G04 #@! TD.AperFunction*
G04 #@! TA.AperFunction,SMDPad,CuDef*
G36*
G01*
X58852500Y-52150000D02*
X58852500Y-51250000D01*
G75*
G02*
X59102500Y-51000000I250000J0D01*
G01*
X59802500Y-51000000D01*
G75*
G02*
X60052500Y-51250000I0J-250000D01*
G01*
X60052500Y-52150000D01*
G75*
G02*
X59802500Y-52400000I-250000J0D01*
G01*
X59102500Y-52400000D01*
G75*
G02*
X58852500Y-52150000I0J250000D01*
G01*
G37*
G04 #@! TD.AperFunction*
G04 #@! TA.AperFunction,SMDPad,CuDef*
G36*
G01*
X46102500Y-84800000D02*
X45202500Y-84800000D01*
G75*
G02*
X44952500Y-84550000I0J250000D01*
G01*
X44952500Y-83850000D01*
G75*
G02*
X45202500Y-83600000I250000J0D01*
G01*
X46102500Y-83600000D01*
G75*
G02*
X46352500Y-83850000I0J-250000D01*
G01*
X46352500Y-84550000D01*
G75*
G02*
X46102500Y-84800000I-250000J0D01*
G01*
G37*
G04 #@! TD.AperFunction*
G04 #@! TA.AperFunction,SMDPad,CuDef*
G36*
G01*
X46102500Y-82800000D02*
X45202500Y-82800000D01*
G75*
G02*
X44952500Y-82550000I0J250000D01*
G01*
X44952500Y-81850000D01*
G75*
G02*
X45202500Y-81600000I250000J0D01*
G01*
X46102500Y-81600000D01*
G75*
G02*
X46352500Y-81850000I0J-250000D01*
G01*
X46352500Y-82550000D01*
G75*
G02*
X46102500Y-82800000I-250000J0D01*
G01*
G37*
G04 #@! TD.AperFunction*
G04 #@! TA.AperFunction,SMDPad,CuDef*
G36*
G01*
X56852500Y-58450000D02*
X56852500Y-57550000D01*
G75*
G02*
X57102500Y-57300000I250000J0D01*
G01*
X57802500Y-57300000D01*
G75*
G02*
X58052500Y-57550000I0J-250000D01*
G01*
X58052500Y-58450000D01*
G75*
G02*
X57802500Y-58700000I-250000J0D01*
G01*
X57102500Y-58700000D01*
G75*
G02*
X56852500Y-58450000I0J250000D01*
G01*
G37*
G04 #@! TD.AperFunction*
G04 #@! TA.AperFunction,SMDPad,CuDef*
G36*
G01*
X58852500Y-58450000D02*
X58852500Y-57550000D01*
G75*
G02*
X59102500Y-57300000I250000J0D01*
G01*
X59802500Y-57300000D01*
G75*
G02*
X60052500Y-57550000I0J-250000D01*
G01*
X60052500Y-58450000D01*
G75*
G02*
X59802500Y-58700000I-250000J0D01*
G01*
X59102500Y-58700000D01*
G75*
G02*
X58852500Y-58450000I0J250000D01*
G01*
G37*
G04 #@! TD.AperFunction*
G04 #@! TA.AperFunction,SMDPad,CuDef*
G36*
G01*
X60827500Y-84825000D02*
X59877500Y-84825000D01*
G75*
G02*
X59627500Y-84575000I0J250000D01*
G01*
X59627500Y-83900000D01*
G75*
G02*
X59877500Y-83650000I250000J0D01*
G01*
X60827500Y-83650000D01*
G75*
G02*
X61077500Y-83900000I0J-250000D01*
G01*
X61077500Y-84575000D01*
G75*
G02*
X60827500Y-84825000I-250000J0D01*
G01*
G37*
G04 #@! TD.AperFunction*
G04 #@! TA.AperFunction,SMDPad,CuDef*
G36*
G01*
X60827500Y-82750000D02*
X59877500Y-82750000D01*
G75*
G02*
X59627500Y-82500000I0J250000D01*
G01*
X59627500Y-81825000D01*
G75*
G02*
X59877500Y-81575000I250000J0D01*
G01*
X60827500Y-81575000D01*
G75*
G02*
X61077500Y-81825000I0J-250000D01*
G01*
X61077500Y-82500000D01*
G75*
G02*
X60827500Y-82750000I-250000J0D01*
G01*
G37*
G04 #@! TD.AperFunction*
D10*
X56402500Y-66800000D03*
X59702500Y-66800000D03*
G04 #@! TA.AperFunction,SMDPad,CuDef*
G36*
G01*
X47275000Y-94975000D02*
X47275000Y-94025000D01*
G75*
G02*
X47525000Y-93775000I250000J0D01*
G01*
X48200000Y-93775000D01*
G75*
G02*
X48450000Y-94025000I0J-250000D01*
G01*
X48450000Y-94975000D01*
G75*
G02*
X48200000Y-95225000I-250000J0D01*
G01*
X47525000Y-95225000D01*
G75*
G02*
X47275000Y-94975000I0J250000D01*
G01*
G37*
G04 #@! TD.AperFunction*
G04 #@! TA.AperFunction,SMDPad,CuDef*
G36*
G01*
X49350000Y-94975000D02*
X49350000Y-94025000D01*
G75*
G02*
X49600000Y-93775000I250000J0D01*
G01*
X50275000Y-93775000D01*
G75*
G02*
X50525000Y-94025000I0J-250000D01*
G01*
X50525000Y-94975000D01*
G75*
G02*
X50275000Y-95225000I-250000J0D01*
G01*
X49600000Y-95225000D01*
G75*
G02*
X49350000Y-94975000I0J250000D01*
G01*
G37*
G04 #@! TD.AperFunction*
G04 #@! TA.AperFunction,SMDPad,CuDef*
G36*
G01*
X57377500Y-73175000D02*
X58327500Y-73175000D01*
G75*
G02*
X58577500Y-73425000I0J-250000D01*
G01*
X58577500Y-74100000D01*
G75*
G02*
X58327500Y-74350000I-250000J0D01*
G01*
X57377500Y-74350000D01*
G75*
G02*
X57127500Y-74100000I0J250000D01*
G01*
X57127500Y-73425000D01*
G75*
G02*
X57377500Y-73175000I250000J0D01*
G01*
G37*
G04 #@! TD.AperFunction*
G04 #@! TA.AperFunction,SMDPad,CuDef*
G36*
G01*
X57377500Y-75250000D02*
X58327500Y-75250000D01*
G75*
G02*
X58577500Y-75500000I0J-250000D01*
G01*
X58577500Y-76175000D01*
G75*
G02*
X58327500Y-76425000I-250000J0D01*
G01*
X57377500Y-76425000D01*
G75*
G02*
X57127500Y-76175000I0J250000D01*
G01*
X57127500Y-75500000D01*
G75*
G02*
X57377500Y-75250000I250000J0D01*
G01*
G37*
G04 #@! TD.AperFunction*
G04 #@! TA.AperFunction,SMDPad,CuDef*
G36*
G01*
X43177500Y-81575000D02*
X44127500Y-81575000D01*
G75*
G02*
X44377500Y-81825000I0J-250000D01*
G01*
X44377500Y-82500000D01*
G75*
G02*
X44127500Y-82750000I-250000J0D01*
G01*
X43177500Y-82750000D01*
G75*
G02*
X42927500Y-82500000I0J250000D01*
G01*
X42927500Y-81825000D01*
G75*
G02*
X43177500Y-81575000I250000J0D01*
G01*
G37*
G04 #@! TD.AperFunction*
G04 #@! TA.AperFunction,SMDPad,CuDef*
G36*
G01*
X43177500Y-83650000D02*
X44127500Y-83650000D01*
G75*
G02*
X44377500Y-83900000I0J-250000D01*
G01*
X44377500Y-84575000D01*
G75*
G02*
X44127500Y-84825000I-250000J0D01*
G01*
X43177500Y-84825000D01*
G75*
G02*
X42927500Y-84575000I0J250000D01*
G01*
X42927500Y-83900000D01*
G75*
G02*
X43177500Y-83650000I250000J0D01*
G01*
G37*
G04 #@! TD.AperFunction*
X45650000Y-68100000D03*
X42350000Y-68100000D03*
G04 #@! TA.AperFunction,SMDPad,CuDef*
G36*
G01*
X37975000Y-68275000D02*
X37975000Y-67325000D01*
G75*
G02*
X38225000Y-67075000I250000J0D01*
G01*
X38900000Y-67075000D01*
G75*
G02*
X39150000Y-67325000I0J-250000D01*
G01*
X39150000Y-68275000D01*
G75*
G02*
X38900000Y-68525000I-250000J0D01*
G01*
X38225000Y-68525000D01*
G75*
G02*
X37975000Y-68275000I0J250000D01*
G01*
G37*
G04 #@! TD.AperFunction*
G04 #@! TA.AperFunction,SMDPad,CuDef*
G36*
G01*
X40050000Y-68275000D02*
X40050000Y-67325000D01*
G75*
G02*
X40300000Y-67075000I250000J0D01*
G01*
X40975000Y-67075000D01*
G75*
G02*
X41225000Y-67325000I0J-250000D01*
G01*
X41225000Y-68275000D01*
G75*
G02*
X40975000Y-68525000I-250000J0D01*
G01*
X40300000Y-68525000D01*
G75*
G02*
X40050000Y-68275000I0J250000D01*
G01*
G37*
G04 #@! TD.AperFunction*
G04 #@! TA.AperFunction,SMDPad,CuDef*
G36*
G01*
X60052500Y-61550000D02*
X60052500Y-62450000D01*
G75*
G02*
X59802500Y-62700000I-250000J0D01*
G01*
X59102500Y-62700000D01*
G75*
G02*
X58852500Y-62450000I0J250000D01*
G01*
X58852500Y-61550000D01*
G75*
G02*
X59102500Y-61300000I250000J0D01*
G01*
X59802500Y-61300000D01*
G75*
G02*
X60052500Y-61550000I0J-250000D01*
G01*
G37*
G04 #@! TD.AperFunction*
G04 #@! TA.AperFunction,SMDPad,CuDef*
G36*
G01*
X58052500Y-61550000D02*
X58052500Y-62450000D01*
G75*
G02*
X57802500Y-62700000I-250000J0D01*
G01*
X57102500Y-62700000D01*
G75*
G02*
X56852500Y-62450000I0J250000D01*
G01*
X56852500Y-61550000D01*
G75*
G02*
X57102500Y-61300000I250000J0D01*
G01*
X57802500Y-61300000D01*
G75*
G02*
X58052500Y-61550000I0J-250000D01*
G01*
G37*
G04 #@! TD.AperFunction*
G04 #@! TA.AperFunction,SMDPad,CuDef*
G36*
G01*
X38000000Y-74550000D02*
X38000000Y-73650000D01*
G75*
G02*
X38250000Y-73400000I250000J0D01*
G01*
X38950000Y-73400000D01*
G75*
G02*
X39200000Y-73650000I0J-250000D01*
G01*
X39200000Y-74550000D01*
G75*
G02*
X38950000Y-74800000I-250000J0D01*
G01*
X38250000Y-74800000D01*
G75*
G02*
X38000000Y-74550000I0J250000D01*
G01*
G37*
G04 #@! TD.AperFunction*
G04 #@! TA.AperFunction,SMDPad,CuDef*
G36*
G01*
X40000000Y-74550000D02*
X40000000Y-73650000D01*
G75*
G02*
X40250000Y-73400000I250000J0D01*
G01*
X40950000Y-73400000D01*
G75*
G02*
X41200000Y-73650000I0J-250000D01*
G01*
X41200000Y-74550000D01*
G75*
G02*
X40950000Y-74800000I-250000J0D01*
G01*
X40250000Y-74800000D01*
G75*
G02*
X40000000Y-74550000I0J250000D01*
G01*
G37*
G04 #@! TD.AperFunction*
G04 #@! TA.AperFunction,SMDPad,CuDef*
G36*
G01*
X49302500Y-52240000D02*
X49302500Y-51940000D01*
G75*
G02*
X49452500Y-51790000I150000J0D01*
G01*
X51102500Y-51790000D01*
G75*
G02*
X51252500Y-51940000I0J-150000D01*
G01*
X51252500Y-52240000D01*
G75*
G02*
X51102500Y-52390000I-150000J0D01*
G01*
X49452500Y-52390000D01*
G75*
G02*
X49302500Y-52240000I0J150000D01*
G01*
G37*
G04 #@! TD.AperFunction*
G04 #@! TA.AperFunction,SMDPad,CuDef*
G36*
G01*
X49302500Y-53510000D02*
X49302500Y-53210000D01*
G75*
G02*
X49452500Y-53060000I150000J0D01*
G01*
X51102500Y-53060000D01*
G75*
G02*
X51252500Y-53210000I0J-150000D01*
G01*
X51252500Y-53510000D01*
G75*
G02*
X51102500Y-53660000I-150000J0D01*
G01*
X49452500Y-53660000D01*
G75*
G02*
X49302500Y-53510000I0J150000D01*
G01*
G37*
G04 #@! TD.AperFunction*
G04 #@! TA.AperFunction,SMDPad,CuDef*
G36*
G01*
X49302500Y-54780000D02*
X49302500Y-54480000D01*
G75*
G02*
X49452500Y-54330000I150000J0D01*
G01*
X51102500Y-54330000D01*
G75*
G02*
X51252500Y-54480000I0J-150000D01*
G01*
X51252500Y-54780000D01*
G75*
G02*
X51102500Y-54930000I-150000J0D01*
G01*
X49452500Y-54930000D01*
G75*
G02*
X49302500Y-54780000I0J150000D01*
G01*
G37*
G04 #@! TD.AperFunction*
G04 #@! TA.AperFunction,SMDPad,CuDef*
G36*
G01*
X49302500Y-56050000D02*
X49302500Y-55750000D01*
G75*
G02*
X49452500Y-55600000I150000J0D01*
G01*
X51102500Y-55600000D01*
G75*
G02*
X51252500Y-55750000I0J-150000D01*
G01*
X51252500Y-56050000D01*
G75*
G02*
X51102500Y-56200000I-150000J0D01*
G01*
X49452500Y-56200000D01*
G75*
G02*
X49302500Y-56050000I0J150000D01*
G01*
G37*
G04 #@! TD.AperFunction*
G04 #@! TA.AperFunction,SMDPad,CuDef*
G36*
G01*
X49302500Y-57320000D02*
X49302500Y-57020000D01*
G75*
G02*
X49452500Y-56870000I150000J0D01*
G01*
X51102500Y-56870000D01*
G75*
G02*
X51252500Y-57020000I0J-150000D01*
G01*
X51252500Y-57320000D01*
G75*
G02*
X51102500Y-57470000I-150000J0D01*
G01*
X49452500Y-57470000D01*
G75*
G02*
X49302500Y-57320000I0J150000D01*
G01*
G37*
G04 #@! TD.AperFunction*
G04 #@! TA.AperFunction,SMDPad,CuDef*
G36*
G01*
X49302500Y-58590000D02*
X49302500Y-58290000D01*
G75*
G02*
X49452500Y-58140000I150000J0D01*
G01*
X51102500Y-58140000D01*
G75*
G02*
X51252500Y-58290000I0J-150000D01*
G01*
X51252500Y-58590000D01*
G75*
G02*
X51102500Y-58740000I-150000J0D01*
G01*
X49452500Y-58740000D01*
G75*
G02*
X49302500Y-58590000I0J150000D01*
G01*
G37*
G04 #@! TD.AperFunction*
G04 #@! TA.AperFunction,SMDPad,CuDef*
G36*
G01*
X49302500Y-59860000D02*
X49302500Y-59560000D01*
G75*
G02*
X49452500Y-59410000I150000J0D01*
G01*
X51102500Y-59410000D01*
G75*
G02*
X51252500Y-59560000I0J-150000D01*
G01*
X51252500Y-59860000D01*
G75*
G02*
X51102500Y-60010000I-150000J0D01*
G01*
X49452500Y-60010000D01*
G75*
G02*
X49302500Y-59860000I0J150000D01*
G01*
G37*
G04 #@! TD.AperFunction*
G04 #@! TA.AperFunction,SMDPad,CuDef*
G36*
G01*
X54252500Y-59860000D02*
X54252500Y-59560000D01*
G75*
G02*
X54402500Y-59410000I150000J0D01*
G01*
X56052500Y-59410000D01*
G75*
G02*
X56202500Y-59560000I0J-150000D01*
G01*
X56202500Y-59860000D01*
G75*
G02*
X56052500Y-60010000I-150000J0D01*
G01*
X54402500Y-60010000D01*
G75*
G02*
X54252500Y-59860000I0J150000D01*
G01*
G37*
G04 #@! TD.AperFunction*
G04 #@! TA.AperFunction,SMDPad,CuDef*
G36*
G01*
X54252500Y-58590000D02*
X54252500Y-58290000D01*
G75*
G02*
X54402500Y-58140000I150000J0D01*
G01*
X56052500Y-58140000D01*
G75*
G02*
X56202500Y-58290000I0J-150000D01*
G01*
X56202500Y-58590000D01*
G75*
G02*
X56052500Y-58740000I-150000J0D01*
G01*
X54402500Y-58740000D01*
G75*
G02*
X54252500Y-58590000I0J150000D01*
G01*
G37*
G04 #@! TD.AperFunction*
G04 #@! TA.AperFunction,SMDPad,CuDef*
G36*
G01*
X54252500Y-57320000D02*
X54252500Y-57020000D01*
G75*
G02*
X54402500Y-56870000I150000J0D01*
G01*
X56052500Y-56870000D01*
G75*
G02*
X56202500Y-57020000I0J-150000D01*
G01*
X56202500Y-57320000D01*
G75*
G02*
X56052500Y-57470000I-150000J0D01*
G01*
X54402500Y-57470000D01*
G75*
G02*
X54252500Y-57320000I0J150000D01*
G01*
G37*
G04 #@! TD.AperFunction*
G04 #@! TA.AperFunction,SMDPad,CuDef*
G36*
G01*
X54252500Y-56050000D02*
X54252500Y-55750000D01*
G75*
G02*
X54402500Y-55600000I150000J0D01*
G01*
X56052500Y-55600000D01*
G75*
G02*
X56202500Y-55750000I0J-150000D01*
G01*
X56202500Y-56050000D01*
G75*
G02*
X56052500Y-56200000I-150000J0D01*
G01*
X54402500Y-56200000D01*
G75*
G02*
X54252500Y-56050000I0J150000D01*
G01*
G37*
G04 #@! TD.AperFunction*
G04 #@! TA.AperFunction,SMDPad,CuDef*
G36*
G01*
X54252500Y-54780000D02*
X54252500Y-54480000D01*
G75*
G02*
X54402500Y-54330000I150000J0D01*
G01*
X56052500Y-54330000D01*
G75*
G02*
X56202500Y-54480000I0J-150000D01*
G01*
X56202500Y-54780000D01*
G75*
G02*
X56052500Y-54930000I-150000J0D01*
G01*
X54402500Y-54930000D01*
G75*
G02*
X54252500Y-54780000I0J150000D01*
G01*
G37*
G04 #@! TD.AperFunction*
G04 #@! TA.AperFunction,SMDPad,CuDef*
G36*
G01*
X54252500Y-53510000D02*
X54252500Y-53210000D01*
G75*
G02*
X54402500Y-53060000I150000J0D01*
G01*
X56052500Y-53060000D01*
G75*
G02*
X56202500Y-53210000I0J-150000D01*
G01*
X56202500Y-53510000D01*
G75*
G02*
X56052500Y-53660000I-150000J0D01*
G01*
X54402500Y-53660000D01*
G75*
G02*
X54252500Y-53510000I0J150000D01*
G01*
G37*
G04 #@! TD.AperFunction*
G04 #@! TA.AperFunction,SMDPad,CuDef*
G36*
G01*
X54252500Y-52240000D02*
X54252500Y-51940000D01*
G75*
G02*
X54402500Y-51790000I150000J0D01*
G01*
X56052500Y-51790000D01*
G75*
G02*
X56202500Y-51940000I0J-150000D01*
G01*
X56202500Y-52240000D01*
G75*
G02*
X56052500Y-52390000I-150000J0D01*
G01*
X54402500Y-52390000D01*
G75*
G02*
X54252500Y-52240000I0J150000D01*
G01*
G37*
G04 #@! TD.AperFunction*
G04 #@! TA.AperFunction,SMDPad,CuDef*
G36*
G01*
X49177500Y-81575000D02*
X50127500Y-81575000D01*
G75*
G02*
X50377500Y-81825000I0J-250000D01*
G01*
X50377500Y-82500000D01*
G75*
G02*
X50127500Y-82750000I-250000J0D01*
G01*
X49177500Y-82750000D01*
G75*
G02*
X48927500Y-82500000I0J250000D01*
G01*
X48927500Y-81825000D01*
G75*
G02*
X49177500Y-81575000I250000J0D01*
G01*
G37*
G04 #@! TD.AperFunction*
G04 #@! TA.AperFunction,SMDPad,CuDef*
G36*
G01*
X49177500Y-83650000D02*
X50127500Y-83650000D01*
G75*
G02*
X50377500Y-83900000I0J-250000D01*
G01*
X50377500Y-84575000D01*
G75*
G02*
X50127500Y-84825000I-250000J0D01*
G01*
X49177500Y-84825000D01*
G75*
G02*
X48927500Y-84575000I0J250000D01*
G01*
X48927500Y-83900000D01*
G75*
G02*
X49177500Y-83650000I250000J0D01*
G01*
G37*
G04 #@! TD.AperFunction*
G04 #@! TA.AperFunction,ComponentPad*
G36*
G01*
X53380000Y-99897500D02*
X54580000Y-99897500D01*
G75*
G02*
X54830000Y-100147500I0J-250000D01*
G01*
X54830000Y-101347500D01*
G75*
G02*
X54580000Y-101597500I-250000J0D01*
G01*
X53380000Y-101597500D01*
G75*
G02*
X53130000Y-101347500I0J250000D01*
G01*
X53130000Y-100147500D01*
G75*
G02*
X53380000Y-99897500I250000J0D01*
G01*
G37*
G04 #@! TD.AperFunction*
D11*
X53980000Y-103287500D03*
X51440000Y-100747500D03*
X51440000Y-103287500D03*
X48900000Y-100747500D03*
X48900000Y-103287500D03*
X46360000Y-100747500D03*
X46360000Y-103287500D03*
X43820000Y-100747500D03*
X43820000Y-103287500D03*
G04 #@! TA.AperFunction,SMDPad,CuDef*
G36*
G01*
X45625000Y-89475000D02*
X46575000Y-89475000D01*
G75*
G02*
X46825000Y-89725000I0J-250000D01*
G01*
X46825000Y-90400000D01*
G75*
G02*
X46575000Y-90650000I-250000J0D01*
G01*
X45625000Y-90650000D01*
G75*
G02*
X45375000Y-90400000I0J250000D01*
G01*
X45375000Y-89725000D01*
G75*
G02*
X45625000Y-89475000I250000J0D01*
G01*
G37*
G04 #@! TD.AperFunction*
G04 #@! TA.AperFunction,SMDPad,CuDef*
G36*
G01*
X45625000Y-91550000D02*
X46575000Y-91550000D01*
G75*
G02*
X46825000Y-91800000I0J-250000D01*
G01*
X46825000Y-92475000D01*
G75*
G02*
X46575000Y-92725000I-250000J0D01*
G01*
X45625000Y-92725000D01*
G75*
G02*
X45375000Y-92475000I0J250000D01*
G01*
X45375000Y-91800000D01*
G75*
G02*
X45625000Y-91550000I250000J0D01*
G01*
G37*
G04 #@! TD.AperFunction*
G04 #@! TA.AperFunction,SMDPad,CuDef*
G36*
G01*
X38000000Y-72550000D02*
X38000000Y-71650000D01*
G75*
G02*
X38250000Y-71400000I250000J0D01*
G01*
X38950000Y-71400000D01*
G75*
G02*
X39200000Y-71650000I0J-250000D01*
G01*
X39200000Y-72550000D01*
G75*
G02*
X38950000Y-72800000I-250000J0D01*
G01*
X38250000Y-72800000D01*
G75*
G02*
X38000000Y-72550000I0J250000D01*
G01*
G37*
G04 #@! TD.AperFunction*
G04 #@! TA.AperFunction,SMDPad,CuDef*
G36*
G01*
X40000000Y-72550000D02*
X40000000Y-71650000D01*
G75*
G02*
X40250000Y-71400000I250000J0D01*
G01*
X40950000Y-71400000D01*
G75*
G02*
X41200000Y-71650000I0J-250000D01*
G01*
X41200000Y-72550000D01*
G75*
G02*
X40950000Y-72800000I-250000J0D01*
G01*
X40250000Y-72800000D01*
G75*
G02*
X40000000Y-72550000I0J250000D01*
G01*
G37*
G04 #@! TD.AperFunction*
G04 #@! TA.AperFunction,SMDPad,CuDef*
G36*
G01*
X45452500Y-54150000D02*
X45452500Y-53250000D01*
G75*
G02*
X45702500Y-53000000I250000J0D01*
G01*
X46402500Y-53000000D01*
G75*
G02*
X46652500Y-53250000I0J-250000D01*
G01*
X46652500Y-54150000D01*
G75*
G02*
X46402500Y-54400000I-250000J0D01*
G01*
X45702500Y-54400000D01*
G75*
G02*
X45452500Y-54150000I0J250000D01*
G01*
G37*
G04 #@! TD.AperFunction*
G04 #@! TA.AperFunction,SMDPad,CuDef*
G36*
G01*
X47452500Y-54150000D02*
X47452500Y-53250000D01*
G75*
G02*
X47702500Y-53000000I250000J0D01*
G01*
X48402500Y-53000000D01*
G75*
G02*
X48652500Y-53250000I0J-250000D01*
G01*
X48652500Y-54150000D01*
G75*
G02*
X48402500Y-54400000I-250000J0D01*
G01*
X47702500Y-54400000D01*
G75*
G02*
X47452500Y-54150000I0J250000D01*
G01*
G37*
G04 #@! TD.AperFunction*
G04 #@! TA.AperFunction,SMDPad,CuDef*
G36*
G01*
X56852500Y-60450000D02*
X56852500Y-59550000D01*
G75*
G02*
X57102500Y-59300000I250000J0D01*
G01*
X57802500Y-59300000D01*
G75*
G02*
X58052500Y-59550000I0J-250000D01*
G01*
X58052500Y-60450000D01*
G75*
G02*
X57802500Y-60700000I-250000J0D01*
G01*
X57102500Y-60700000D01*
G75*
G02*
X56852500Y-60450000I0J250000D01*
G01*
G37*
G04 #@! TD.AperFunction*
G04 #@! TA.AperFunction,SMDPad,CuDef*
G36*
G01*
X58852500Y-60450000D02*
X58852500Y-59550000D01*
G75*
G02*
X59102500Y-59300000I250000J0D01*
G01*
X59802500Y-59300000D01*
G75*
G02*
X60052500Y-59550000I0J-250000D01*
G01*
X60052500Y-60450000D01*
G75*
G02*
X59802500Y-60700000I-250000J0D01*
G01*
X59102500Y-60700000D01*
G75*
G02*
X58852500Y-60450000I0J250000D01*
G01*
G37*
G04 #@! TD.AperFunction*
G04 #@! TA.AperFunction,SMDPad,CuDef*
G36*
G01*
X60077500Y-55425000D02*
X60077500Y-56375000D01*
G75*
G02*
X59827500Y-56625000I-250000J0D01*
G01*
X59152500Y-56625000D01*
G75*
G02*
X58902500Y-56375000I0J250000D01*
G01*
X58902500Y-55425000D01*
G75*
G02*
X59152500Y-55175000I250000J0D01*
G01*
X59827500Y-55175000D01*
G75*
G02*
X60077500Y-55425000I0J-250000D01*
G01*
G37*
G04 #@! TD.AperFunction*
G04 #@! TA.AperFunction,SMDPad,CuDef*
G36*
G01*
X58002500Y-55425000D02*
X58002500Y-56375000D01*
G75*
G02*
X57752500Y-56625000I-250000J0D01*
G01*
X57077500Y-56625000D01*
G75*
G02*
X56827500Y-56375000I0J250000D01*
G01*
X56827500Y-55425000D01*
G75*
G02*
X57077500Y-55175000I250000J0D01*
G01*
X57752500Y-55175000D01*
G75*
G02*
X58002500Y-55425000I0J-250000D01*
G01*
G37*
G04 #@! TD.AperFunction*
G04 #@! TA.AperFunction,SMDPad,CuDef*
G36*
G01*
X54877500Y-73175000D02*
X55827500Y-73175000D01*
G75*
G02*
X56077500Y-73425000I0J-250000D01*
G01*
X56077500Y-74100000D01*
G75*
G02*
X55827500Y-74350000I-250000J0D01*
G01*
X54877500Y-74350000D01*
G75*
G02*
X54627500Y-74100000I0J250000D01*
G01*
X54627500Y-73425000D01*
G75*
G02*
X54877500Y-73175000I250000J0D01*
G01*
G37*
G04 #@! TD.AperFunction*
G04 #@! TA.AperFunction,SMDPad,CuDef*
G36*
G01*
X54877500Y-75250000D02*
X55827500Y-75250000D01*
G75*
G02*
X56077500Y-75500000I0J-250000D01*
G01*
X56077500Y-76175000D01*
G75*
G02*
X55827500Y-76425000I-250000J0D01*
G01*
X54877500Y-76425000D01*
G75*
G02*
X54627500Y-76175000I0J250000D01*
G01*
X54627500Y-75500000D01*
G75*
G02*
X54877500Y-75250000I250000J0D01*
G01*
G37*
G04 #@! TD.AperFunction*
G04 #@! TA.AperFunction,SMDPad,CuDef*
G36*
G01*
X38352500Y-57550000D02*
X38352500Y-56650000D01*
G75*
G02*
X38602500Y-56400000I250000J0D01*
G01*
X39302500Y-56400000D01*
G75*
G02*
X39552500Y-56650000I0J-250000D01*
G01*
X39552500Y-57550000D01*
G75*
G02*
X39302500Y-57800000I-250000J0D01*
G01*
X38602500Y-57800000D01*
G75*
G02*
X38352500Y-57550000I0J250000D01*
G01*
G37*
G04 #@! TD.AperFunction*
G04 #@! TA.AperFunction,SMDPad,CuDef*
G36*
G01*
X40352500Y-57550000D02*
X40352500Y-56650000D01*
G75*
G02*
X40602500Y-56400000I250000J0D01*
G01*
X41302500Y-56400000D01*
G75*
G02*
X41552500Y-56650000I0J-250000D01*
G01*
X41552500Y-57550000D01*
G75*
G02*
X41302500Y-57800000I-250000J0D01*
G01*
X40602500Y-57800000D01*
G75*
G02*
X40352500Y-57550000I0J250000D01*
G01*
G37*
G04 #@! TD.AperFunction*
D10*
X56402500Y-64400000D03*
X59702500Y-64400000D03*
G04 #@! TA.AperFunction,SMDPad,CuDef*
G36*
G01*
X49352500Y-62050000D02*
X49352500Y-61150000D01*
G75*
G02*
X49602500Y-60900000I250000J0D01*
G01*
X50302500Y-60900000D01*
G75*
G02*
X50552500Y-61150000I0J-250000D01*
G01*
X50552500Y-62050000D01*
G75*
G02*
X50302500Y-62300000I-250000J0D01*
G01*
X49602500Y-62300000D01*
G75*
G02*
X49352500Y-62050000I0J250000D01*
G01*
G37*
G04 #@! TD.AperFunction*
G04 #@! TA.AperFunction,SMDPad,CuDef*
G36*
G01*
X51352500Y-62050000D02*
X51352500Y-61150000D01*
G75*
G02*
X51602500Y-60900000I250000J0D01*
G01*
X52302500Y-60900000D01*
G75*
G02*
X52552500Y-61150000I0J-250000D01*
G01*
X52552500Y-62050000D01*
G75*
G02*
X52302500Y-62300000I-250000J0D01*
G01*
X51602500Y-62300000D01*
G75*
G02*
X51352500Y-62050000I0J250000D01*
G01*
G37*
G04 #@! TD.AperFunction*
G04 #@! TA.AperFunction,SMDPad,CuDef*
G36*
G01*
X45452500Y-52150000D02*
X45452500Y-51250000D01*
G75*
G02*
X45702500Y-51000000I250000J0D01*
G01*
X46402500Y-51000000D01*
G75*
G02*
X46652500Y-51250000I0J-250000D01*
G01*
X46652500Y-52150000D01*
G75*
G02*
X46402500Y-52400000I-250000J0D01*
G01*
X45702500Y-52400000D01*
G75*
G02*
X45452500Y-52150000I0J250000D01*
G01*
G37*
G04 #@! TD.AperFunction*
G04 #@! TA.AperFunction,SMDPad,CuDef*
G36*
G01*
X47452500Y-52150000D02*
X47452500Y-51250000D01*
G75*
G02*
X47702500Y-51000000I250000J0D01*
G01*
X48402500Y-51000000D01*
G75*
G02*
X48652500Y-51250000I0J-250000D01*
G01*
X48652500Y-52150000D01*
G75*
G02*
X48402500Y-52400000I-250000J0D01*
G01*
X47702500Y-52400000D01*
G75*
G02*
X47452500Y-52150000I0J250000D01*
G01*
G37*
G04 #@! TD.AperFunction*
D12*
X60401000Y-71380000D03*
D11*
X57861000Y-71380000D03*
X55321000Y-71380000D03*
X52781000Y-71380000D03*
X50241000Y-71380000D03*
X47701000Y-71380000D03*
X45161000Y-71380000D03*
X45161000Y-86620000D03*
X47701000Y-86620000D03*
X50241000Y-86620000D03*
X52781000Y-86620000D03*
X55321000Y-86620000D03*
X57861000Y-86620000D03*
X60401000Y-86620000D03*
G04 #@! TA.AperFunction,SMDPad,CuDef*
G36*
G01*
X52277500Y-73175000D02*
X53227500Y-73175000D01*
G75*
G02*
X53477500Y-73425000I0J-250000D01*
G01*
X53477500Y-74100000D01*
G75*
G02*
X53227500Y-74350000I-250000J0D01*
G01*
X52277500Y-74350000D01*
G75*
G02*
X52027500Y-74100000I0J250000D01*
G01*
X52027500Y-73425000D01*
G75*
G02*
X52277500Y-73175000I250000J0D01*
G01*
G37*
G04 #@! TD.AperFunction*
G04 #@! TA.AperFunction,SMDPad,CuDef*
G36*
G01*
X52277500Y-75250000D02*
X53227500Y-75250000D01*
G75*
G02*
X53477500Y-75500000I0J-250000D01*
G01*
X53477500Y-76175000D01*
G75*
G02*
X53227500Y-76425000I-250000J0D01*
G01*
X52277500Y-76425000D01*
G75*
G02*
X52027500Y-76175000I0J250000D01*
G01*
X52027500Y-75500000D01*
G75*
G02*
X52277500Y-75250000I250000J0D01*
G01*
G37*
G04 #@! TD.AperFunction*
G04 #@! TA.AperFunction,SMDPad,CuDef*
G36*
G01*
X59877500Y-73175000D02*
X60827500Y-73175000D01*
G75*
G02*
X61077500Y-73425000I0J-250000D01*
G01*
X61077500Y-74100000D01*
G75*
G02*
X60827500Y-74350000I-250000J0D01*
G01*
X59877500Y-74350000D01*
G75*
G02*
X59627500Y-74100000I0J250000D01*
G01*
X59627500Y-73425000D01*
G75*
G02*
X59877500Y-73175000I250000J0D01*
G01*
G37*
G04 #@! TD.AperFunction*
G04 #@! TA.AperFunction,SMDPad,CuDef*
G36*
G01*
X59877500Y-75250000D02*
X60827500Y-75250000D01*
G75*
G02*
X61077500Y-75500000I0J-250000D01*
G01*
X61077500Y-76175000D01*
G75*
G02*
X60827500Y-76425000I-250000J0D01*
G01*
X59877500Y-76425000D01*
G75*
G02*
X59627500Y-76175000I0J250000D01*
G01*
X59627500Y-75500000D01*
G75*
G02*
X59877500Y-75250000I250000J0D01*
G01*
G37*
G04 #@! TD.AperFunction*
D10*
X45650000Y-65700000D03*
X42350000Y-65700000D03*
G04 #@! TA.AperFunction,SMDPad,CuDef*
G36*
G01*
X38352500Y-55050000D02*
X38352500Y-54150000D01*
G75*
G02*
X38602500Y-53900000I250000J0D01*
G01*
X39302500Y-53900000D01*
G75*
G02*
X39552500Y-54150000I0J-250000D01*
G01*
X39552500Y-55050000D01*
G75*
G02*
X39302500Y-55300000I-250000J0D01*
G01*
X38602500Y-55300000D01*
G75*
G02*
X38352500Y-55050000I0J250000D01*
G01*
G37*
G04 #@! TD.AperFunction*
G04 #@! TA.AperFunction,SMDPad,CuDef*
G36*
G01*
X40352500Y-55050000D02*
X40352500Y-54150000D01*
G75*
G02*
X40602500Y-53900000I250000J0D01*
G01*
X41302500Y-53900000D01*
G75*
G02*
X41552500Y-54150000I0J-250000D01*
G01*
X41552500Y-55050000D01*
G75*
G02*
X41302500Y-55300000I-250000J0D01*
G01*
X40602500Y-55300000D01*
G75*
G02*
X40352500Y-55050000I0J250000D01*
G01*
G37*
G04 #@! TD.AperFunction*
G04 #@! TA.AperFunction,SMDPad,CuDef*
G36*
G01*
X51425000Y-89475000D02*
X52375000Y-89475000D01*
G75*
G02*
X52625000Y-89725000I0J-250000D01*
G01*
X52625000Y-90400000D01*
G75*
G02*
X52375000Y-90650000I-250000J0D01*
G01*
X51425000Y-90650000D01*
G75*
G02*
X51175000Y-90400000I0J250000D01*
G01*
X51175000Y-89725000D01*
G75*
G02*
X51425000Y-89475000I250000J0D01*
G01*
G37*
G04 #@! TD.AperFunction*
G04 #@! TA.AperFunction,SMDPad,CuDef*
G36*
G01*
X51425000Y-91550000D02*
X52375000Y-91550000D01*
G75*
G02*
X52625000Y-91800000I0J-250000D01*
G01*
X52625000Y-92475000D01*
G75*
G02*
X52375000Y-92725000I-250000J0D01*
G01*
X51425000Y-92725000D01*
G75*
G02*
X51175000Y-92475000I0J250000D01*
G01*
X51175000Y-91800000D01*
G75*
G02*
X51425000Y-91550000I250000J0D01*
G01*
G37*
G04 #@! TD.AperFunction*
G04 #@! TA.AperFunction,SMDPad,CuDef*
G36*
G01*
X48677500Y-55425000D02*
X48677500Y-56375000D01*
G75*
G02*
X48427500Y-56625000I-250000J0D01*
G01*
X47752500Y-56625000D01*
G75*
G02*
X47502500Y-56375000I0J250000D01*
G01*
X47502500Y-55425000D01*
G75*
G02*
X47752500Y-55175000I250000J0D01*
G01*
X48427500Y-55175000D01*
G75*
G02*
X48677500Y-55425000I0J-250000D01*
G01*
G37*
G04 #@! TD.AperFunction*
G04 #@! TA.AperFunction,SMDPad,CuDef*
G36*
G01*
X46602500Y-55425000D02*
X46602500Y-56375000D01*
G75*
G02*
X46352500Y-56625000I-250000J0D01*
G01*
X45677500Y-56625000D01*
G75*
G02*
X45427500Y-56375000I0J250000D01*
G01*
X45427500Y-55425000D01*
G75*
G02*
X45677500Y-55175000I250000J0D01*
G01*
X46352500Y-55175000D01*
G75*
G02*
X46602500Y-55425000I0J-250000D01*
G01*
G37*
G04 #@! TD.AperFunction*
G04 #@! TA.AperFunction,SMDPad,CuDef*
G36*
G01*
X38352500Y-52550000D02*
X38352500Y-51650000D01*
G75*
G02*
X38602500Y-51400000I250000J0D01*
G01*
X39302500Y-51400000D01*
G75*
G02*
X39552500Y-51650000I0J-250000D01*
G01*
X39552500Y-52550000D01*
G75*
G02*
X39302500Y-52800000I-250000J0D01*
G01*
X38602500Y-52800000D01*
G75*
G02*
X38352500Y-52550000I0J250000D01*
G01*
G37*
G04 #@! TD.AperFunction*
G04 #@! TA.AperFunction,SMDPad,CuDef*
G36*
G01*
X40352500Y-52550000D02*
X40352500Y-51650000D01*
G75*
G02*
X40602500Y-51400000I250000J0D01*
G01*
X41302500Y-51400000D01*
G75*
G02*
X41552500Y-51650000I0J-250000D01*
G01*
X41552500Y-52550000D01*
G75*
G02*
X41302500Y-52800000I-250000J0D01*
G01*
X40602500Y-52800000D01*
G75*
G02*
X40352500Y-52550000I0J250000D01*
G01*
G37*
G04 #@! TD.AperFunction*
G04 #@! TA.AperFunction,SMDPad,CuDef*
G36*
G01*
X55827500Y-84825000D02*
X54877500Y-84825000D01*
G75*
G02*
X54627500Y-84575000I0J250000D01*
G01*
X54627500Y-83900000D01*
G75*
G02*
X54877500Y-83650000I250000J0D01*
G01*
X55827500Y-83650000D01*
G75*
G02*
X56077500Y-83900000I0J-250000D01*
G01*
X56077500Y-84575000D01*
G75*
G02*
X55827500Y-84825000I-250000J0D01*
G01*
G37*
G04 #@! TD.AperFunction*
G04 #@! TA.AperFunction,SMDPad,CuDef*
G36*
G01*
X55827500Y-82750000D02*
X54877500Y-82750000D01*
G75*
G02*
X54627500Y-82500000I0J250000D01*
G01*
X54627500Y-81825000D01*
G75*
G02*
X54877500Y-81575000I250000J0D01*
G01*
X55827500Y-81575000D01*
G75*
G02*
X56077500Y-81825000I0J-250000D01*
G01*
X56077500Y-82500000D01*
G75*
G02*
X55827500Y-82750000I-250000J0D01*
G01*
G37*
G04 #@! TD.AperFunction*
D13*
X48050000Y-92550000D03*
X49000000Y-92550000D03*
X49950000Y-92550000D03*
X49950000Y-90050000D03*
X48050000Y-90050000D03*
G04 #@! TA.AperFunction,SMDPad,CuDef*
G36*
G01*
X56852500Y-54150000D02*
X56852500Y-53250000D01*
G75*
G02*
X57102500Y-53000000I250000J0D01*
G01*
X57802500Y-53000000D01*
G75*
G02*
X58052500Y-53250000I0J-250000D01*
G01*
X58052500Y-54150000D01*
G75*
G02*
X57802500Y-54400000I-250000J0D01*
G01*
X57102500Y-54400000D01*
G75*
G02*
X56852500Y-54150000I0J250000D01*
G01*
G37*
G04 #@! TD.AperFunction*
G04 #@! TA.AperFunction,SMDPad,CuDef*
G36*
G01*
X58852500Y-54150000D02*
X58852500Y-53250000D01*
G75*
G02*
X59102500Y-53000000I250000J0D01*
G01*
X59802500Y-53000000D01*
G75*
G02*
X60052500Y-53250000I0J-250000D01*
G01*
X60052500Y-54150000D01*
G75*
G02*
X59802500Y-54400000I-250000J0D01*
G01*
X59102500Y-54400000D01*
G75*
G02*
X58852500Y-54150000I0J250000D01*
G01*
G37*
G04 #@! TD.AperFunction*
D12*
X36300000Y-67800000D03*
D14*
X36300000Y-70340000D03*
X36300000Y-72880000D03*
X36300000Y-75420000D03*
X36300000Y-77960000D03*
X36300000Y-80500000D03*
X36300000Y-83040000D03*
X36300000Y-85580000D03*
D12*
X36300000Y-49500000D03*
D14*
X36300000Y-52040000D03*
X36300000Y-54580000D03*
X36300000Y-57120000D03*
X36300000Y-59660000D03*
X36300000Y-62200000D03*
D15*
X54000000Y-77300000D03*
X44300000Y-63400000D03*
X47000000Y-96400000D03*
X40200000Y-69500000D03*
X56200000Y-80000000D03*
X50500000Y-64800000D03*
X59100000Y-77200000D03*
X60400000Y-68700000D03*
X41100000Y-69500000D03*
X44700000Y-54400000D03*
X51600000Y-95100000D03*
X53300000Y-53400000D03*
X56600000Y-78200000D03*
X54100000Y-63600000D03*
X54700000Y-48800000D03*
X52800000Y-58900000D03*
X53800000Y-48800000D03*
X61400000Y-68700000D03*
X52500000Y-95100000D03*
X41100000Y-70400000D03*
X44100000Y-94000000D03*
X60900000Y-67900000D03*
X44100000Y-93100000D03*
X53300000Y-52500000D03*
X45200000Y-63400000D03*
X52800000Y-57900000D03*
X50700000Y-96000000D03*
X52900000Y-48800000D03*
X56600000Y-77300000D03*
X49400000Y-63400000D03*
X40400000Y-83000000D03*
X54100000Y-64500000D03*
X54100000Y-61800000D03*
X59100000Y-78100000D03*
X50000000Y-64100000D03*
X46100000Y-96400000D03*
X60800000Y-56900000D03*
X52800000Y-57000000D03*
X56500000Y-48800000D03*
X58000000Y-80000000D03*
X55600000Y-48800000D03*
X41900000Y-60800000D03*
X54000000Y-78200000D03*
X58900000Y-80000000D03*
X52500000Y-96000000D03*
X58100000Y-64400000D03*
X39600000Y-83400000D03*
X45200000Y-96400000D03*
X40400000Y-83900000D03*
X41900000Y-59900000D03*
X43400000Y-63400000D03*
X57100000Y-80000000D03*
X60800000Y-55900000D03*
X44700000Y-55300000D03*
X51600000Y-96000000D03*
X53300000Y-54400000D03*
X54100000Y-62700000D03*
X61200000Y-63100000D03*
X51900000Y-55900000D03*
X53600000Y-55900000D03*
X44300000Y-89300000D03*
X46800000Y-65700000D03*
X51400000Y-65700000D03*
X39600000Y-62600000D03*
X47400000Y-61600000D03*
X49000000Y-77800000D03*
X52000000Y-53300000D03*
D16*
X46015000Y-55900000D02*
X45300000Y-55900000D01*
X49000000Y-93562500D02*
X49000000Y-92550000D01*
X45300000Y-55900000D02*
X44700000Y-55300000D01*
X49937500Y-94500000D02*
X49000000Y-93562500D01*
X43820000Y-100747500D02*
X43820000Y-103287500D01*
X48090000Y-55900000D02*
X51900000Y-55900000D01*
X47015000Y-95347500D02*
X47862500Y-94500000D01*
X49600000Y-91547500D02*
X48403478Y-91547500D01*
X36300000Y-85600000D02*
X36300000Y-90747500D01*
X40900000Y-95347500D02*
X47015000Y-95347500D01*
X36300000Y-90747500D02*
X40900000Y-95347500D01*
X43820000Y-100747500D02*
X43820000Y-98267500D01*
X48403478Y-91547500D02*
X48050000Y-91900978D01*
X47862500Y-92737500D02*
X48050000Y-92550000D01*
X48050000Y-91900978D02*
X48050000Y-92550000D01*
X43820000Y-98267500D02*
X40900000Y-95347500D01*
X49950000Y-91897500D02*
X49600000Y-91547500D01*
X49950000Y-92550000D02*
X49950000Y-91897500D01*
X47862500Y-94500000D02*
X47862500Y-92737500D01*
X53980000Y-103287500D02*
X53980000Y-100747500D01*
X53980000Y-98347500D02*
X56980000Y-95347500D01*
X53980000Y-100747500D02*
X53980000Y-98347500D01*
X57415000Y-55900000D02*
X53600000Y-55900000D01*
X55517500Y-51800000D02*
X55227500Y-52090000D01*
X57452500Y-51800000D02*
X55517500Y-51800000D01*
X57452500Y-51800000D02*
X59452500Y-53800000D01*
X54600000Y-74800000D02*
X56815000Y-74800000D01*
X56815000Y-74800000D02*
X57852500Y-73762500D01*
X53980511Y-69421583D02*
X53980511Y-74180511D01*
X53980511Y-74180511D02*
X54600000Y-74800000D01*
X57852500Y-73762500D02*
X57852500Y-71388500D01*
X42300000Y-55947500D02*
X42300000Y-57741072D01*
X42300000Y-57741072D02*
X53980511Y-69421583D01*
X40952500Y-54600000D02*
X42300000Y-55947500D01*
X57852500Y-71388500D02*
X57861000Y-71380000D01*
X52781000Y-71380000D02*
X52781000Y-68928500D01*
X52752500Y-73762500D02*
X52752500Y-71408500D01*
X52781000Y-68928500D02*
X40952500Y-57100000D01*
X52752500Y-71408500D02*
X52781000Y-71380000D01*
X61600000Y-75010000D02*
X61600000Y-76700000D01*
X42350000Y-65700000D02*
X43250000Y-65700000D01*
X45650000Y-68100000D02*
X44600000Y-68100000D01*
X51440511Y-77940511D02*
X51440511Y-70740511D01*
X61600000Y-76700000D02*
X59049511Y-79250489D01*
X40600000Y-74100000D02*
X40600000Y-72100000D01*
X60352500Y-73762500D02*
X60352500Y-71428500D01*
X60352500Y-71428500D02*
X60401000Y-71380000D01*
X51440511Y-70740511D02*
X48800000Y-68100000D01*
X43250000Y-65700000D02*
X45650000Y-68100000D01*
X59049511Y-79250489D02*
X52750489Y-79250489D01*
X44600000Y-68100000D02*
X40600000Y-72100000D01*
X52750489Y-79250489D02*
X51440511Y-77940511D01*
X60352500Y-73762500D02*
X61600000Y-75010000D01*
X48800000Y-68100000D02*
X45650000Y-68100000D01*
X46100000Y-90062500D02*
X48037500Y-90062500D01*
X60352500Y-84237500D02*
X60352500Y-86571500D01*
X46100000Y-90062500D02*
X45062500Y-90062500D01*
X49100000Y-89000000D02*
X48050000Y-90050000D01*
X58021000Y-89000000D02*
X49100000Y-89000000D01*
X45062500Y-90062500D02*
X44500000Y-89500000D01*
X44500000Y-89500000D02*
X44300000Y-89300000D01*
X60352500Y-86571500D02*
X60401000Y-86620000D01*
X60401000Y-86620000D02*
X58021000Y-89000000D01*
X48037500Y-90062500D02*
X48050000Y-90050000D01*
X52500000Y-66800000D02*
X56402500Y-66800000D01*
X46800000Y-65700000D02*
X45650000Y-65700000D01*
X55352500Y-86588500D02*
X55321000Y-86620000D01*
X51400000Y-65700000D02*
X52500000Y-66800000D01*
X55352500Y-84237500D02*
X55352500Y-86588500D01*
X47652500Y-82200000D02*
X49615000Y-82200000D01*
X49615000Y-82200000D02*
X49652500Y-82162500D01*
X45652500Y-84200000D02*
X47652500Y-82200000D01*
X59702500Y-66800000D02*
X58802500Y-66800000D01*
X56402500Y-63050000D02*
X57452500Y-62000000D01*
X56402500Y-64400000D02*
X56402500Y-63050000D01*
X62500000Y-64002500D02*
X59702500Y-66800000D01*
X59702500Y-66800000D02*
X59702500Y-66998500D01*
X62500000Y-54847500D02*
X62500000Y-64002500D01*
X59452500Y-51800000D02*
X62500000Y-54847500D01*
X58802500Y-66800000D02*
X56402500Y-64400000D01*
X55352500Y-71411500D02*
X55321000Y-71380000D01*
X59702500Y-66998500D02*
X55321000Y-71380000D01*
X55352500Y-73762500D02*
X55352500Y-71411500D01*
X38562500Y-67800000D02*
X36300000Y-67800000D01*
X36320000Y-57100000D02*
X36300000Y-57120000D01*
X38952500Y-57100000D02*
X36320000Y-57100000D01*
X38952500Y-52100000D02*
X36360000Y-52100000D01*
X37520000Y-74100000D02*
X36300000Y-72880000D01*
X38600000Y-74100000D02*
X37520000Y-74100000D01*
X57452500Y-58000000D02*
X55667500Y-58000000D01*
X47400000Y-61600000D02*
X48449520Y-62649520D01*
X39600000Y-62800000D02*
X39600000Y-62600000D01*
X39600000Y-68422849D02*
X39600000Y-62800000D01*
X48449520Y-62649520D02*
X50902980Y-62649520D01*
X54816073Y-58440000D02*
X55227500Y-58440000D01*
X36300000Y-70340000D02*
X37682849Y-70340000D01*
X37682849Y-70340000D02*
X39600000Y-68422849D01*
X50902980Y-62649520D02*
X51952500Y-61600000D01*
X51952500Y-61303573D02*
X54816073Y-58440000D01*
X51952500Y-61600000D02*
X51952500Y-61303573D01*
X55667500Y-58000000D02*
X55227500Y-58440000D01*
X40952500Y-52852500D02*
X45270000Y-57170000D01*
X45270000Y-57170000D02*
X50277500Y-57170000D01*
X40952500Y-52100000D02*
X40952500Y-52852500D01*
X38952500Y-54600000D02*
X36320000Y-54600000D01*
X36320000Y-54600000D02*
X36300000Y-54580000D01*
X50277500Y-58440000D02*
X50277500Y-59710000D01*
X50277500Y-59710000D02*
X50277500Y-61275000D01*
X50277500Y-61275000D02*
X49952500Y-61600000D01*
X57452500Y-60000000D02*
X55517500Y-60000000D01*
X55517500Y-60000000D02*
X55227500Y-59710000D01*
X57452500Y-60000000D02*
X59452500Y-58000000D01*
X47652500Y-86571500D02*
X47701000Y-86620000D01*
X47652500Y-84200000D02*
X47652500Y-86571500D01*
X58552500Y-54800000D02*
X61200000Y-54800000D01*
X55227500Y-53360000D02*
X57012500Y-53360000D01*
X62000480Y-55600480D02*
X62000480Y-58799520D01*
X60800000Y-60000000D02*
X59452500Y-60000000D01*
X62000480Y-58799520D02*
X60800000Y-60000000D01*
X57452500Y-53700000D02*
X58552500Y-54800000D01*
X61200000Y-54800000D02*
X62000480Y-55600480D01*
X57012500Y-53360000D02*
X57452500Y-53800000D01*
X41121000Y-80500000D02*
X50241000Y-71380000D01*
X36300000Y-80500000D02*
X41121000Y-80500000D01*
X45161000Y-71380000D02*
X45161000Y-75039000D01*
X42240000Y-77960000D02*
X36300000Y-77960000D01*
X45161000Y-75039000D02*
X42240000Y-77960000D01*
X45161000Y-86620000D02*
X39860000Y-86620000D01*
X39860000Y-86620000D02*
X36300000Y-83060000D01*
X49950000Y-90050000D02*
X51887500Y-90050000D01*
X51887500Y-90050000D02*
X51900000Y-90062500D01*
X49000000Y-77800000D02*
X48500000Y-77800000D01*
X45652500Y-80647500D02*
X45652500Y-82200000D01*
X43690000Y-82200000D02*
X43652500Y-82162500D01*
X45652500Y-82200000D02*
X43690000Y-82200000D01*
X48052500Y-53700000D02*
X49937500Y-53700000D01*
X51740000Y-53360000D02*
X51800000Y-53300000D01*
X49937500Y-53700000D02*
X50277500Y-53360000D01*
X50277500Y-53360000D02*
X51740000Y-53360000D01*
X51800000Y-53300000D02*
X52000000Y-53300000D01*
X48500000Y-77800000D02*
X45652500Y-80647500D01*
X40637500Y-67800000D02*
X40600000Y-67762500D01*
X40300000Y-51000000D02*
X45352500Y-51000000D01*
X40002980Y-58402980D02*
X40002980Y-51297020D01*
X40600000Y-59000000D02*
X40002980Y-58402980D01*
X45352500Y-51000000D02*
X46052500Y-51700000D01*
X40600000Y-67762500D02*
X40600000Y-59000000D01*
X40002980Y-51297020D02*
X40300000Y-51000000D01*
X48052500Y-51700000D02*
X48026250Y-51700000D01*
X50277500Y-52090000D02*
X48442500Y-52090000D01*
X48442500Y-52090000D02*
X48052500Y-51700000D01*
X48026250Y-51700000D02*
X46052500Y-53673750D01*
G04 #@! TA.AperFunction,Conductor*
G36*
X63109532Y-64428393D02*
G01*
X63166368Y-64470940D01*
X63191179Y-64537460D01*
X63191500Y-64546449D01*
X63191500Y-106865500D01*
X63171498Y-106933621D01*
X63117842Y-106980114D01*
X63065500Y-106991500D01*
X35334500Y-106991500D01*
X35266379Y-106971498D01*
X35219886Y-106917842D01*
X35208500Y-106865500D01*
X35208500Y-86707947D01*
X35228502Y-86639826D01*
X35282158Y-86593333D01*
X35352432Y-86583229D01*
X35414985Y-86611003D01*
X35425822Y-86620000D01*
X35518126Y-86696632D01*
X35522583Y-86699236D01*
X35522588Y-86699240D01*
X35579070Y-86732245D01*
X35627794Y-86783883D01*
X35641500Y-86841033D01*
X35641500Y-90665444D01*
X35640941Y-90677300D01*
X35639212Y-90685037D01*
X35640397Y-90722738D01*
X35641438Y-90755869D01*
X35641500Y-90759827D01*
X35641500Y-90788932D01*
X35642056Y-90793332D01*
X35642988Y-90805164D01*
X35644438Y-90851331D01*
X35646650Y-90858944D01*
X35646650Y-90858945D01*
X35650419Y-90871916D01*
X35654430Y-90891282D01*
X35657118Y-90912564D01*
X35660034Y-90919929D01*
X35660035Y-90919933D01*
X35674126Y-90955521D01*
X35677965Y-90966731D01*
X35690855Y-91011100D01*
X35701775Y-91029565D01*
X35710466Y-91047305D01*
X35718365Y-91067256D01*
X35745516Y-91104626D01*
X35752033Y-91114548D01*
X35771507Y-91147477D01*
X35771510Y-91147481D01*
X35775547Y-91154307D01*
X35790711Y-91169471D01*
X35803551Y-91184504D01*
X35816159Y-91201857D01*
X35836032Y-91218297D01*
X35851752Y-91231302D01*
X35860532Y-91239292D01*
X37719753Y-93098512D01*
X39554595Y-94933354D01*
X39588621Y-94995666D01*
X39591500Y-95022449D01*
X39591500Y-96447900D01*
X39602474Y-96553666D01*
X39658450Y-96721446D01*
X39751522Y-96871848D01*
X39876697Y-96996805D01*
X39882927Y-97000645D01*
X39882928Y-97000646D01*
X40020090Y-97085194D01*
X40027262Y-97089615D01*
X40073731Y-97105028D01*
X40188611Y-97143132D01*
X40188613Y-97143132D01*
X40195139Y-97145297D01*
X40201975Y-97145997D01*
X40201978Y-97145998D01*
X40245031Y-97150409D01*
X40299600Y-97156000D01*
X41500400Y-97156000D01*
X41503646Y-97155663D01*
X41503650Y-97155663D01*
X41599308Y-97145738D01*
X41599312Y-97145737D01*
X41606166Y-97145026D01*
X41612706Y-97142844D01*
X41612711Y-97142843D01*
X41652327Y-97129627D01*
X41723276Y-97127043D01*
X41781296Y-97160056D01*
X43124595Y-98503355D01*
X43158621Y-98565667D01*
X43161500Y-98592450D01*
X43161500Y-99482205D01*
X43141498Y-99550326D01*
X43101441Y-99587072D01*
X43102570Y-99588864D01*
X43098200Y-99591616D01*
X43093607Y-99594007D01*
X43089465Y-99597117D01*
X42979901Y-99679380D01*
X42914965Y-99728135D01*
X42911393Y-99731873D01*
X42828580Y-99818532D01*
X42760629Y-99889638D01*
X42634743Y-100074180D01*
X42540688Y-100276805D01*
X42480989Y-100492070D01*
X42457251Y-100714195D01*
X42457548Y-100719348D01*
X42457548Y-100719351D01*
X42459910Y-100760312D01*
X42470110Y-100937215D01*
X42471247Y-100942261D01*
X42471248Y-100942267D01*
X42492275Y-101035569D01*
X42519222Y-101155139D01*
X42603266Y-101362116D01*
X42640072Y-101422178D01*
X42690008Y-101503666D01*
X42719987Y-101552588D01*
X42866250Y-101721438D01*
X43038126Y-101864132D01*
X43042583Y-101866736D01*
X43042588Y-101866740D01*
X43099070Y-101899745D01*
X43147794Y-101951383D01*
X43161500Y-102008533D01*
X43161500Y-102022205D01*
X43141498Y-102090326D01*
X43101441Y-102127072D01*
X43102570Y-102128864D01*
X43098200Y-102131616D01*
X43093607Y-102134007D01*
X43089465Y-102137117D01*
X42928677Y-102257840D01*
X42914965Y-102268135D01*
X42760629Y-102429638D01*
X42634743Y-102614180D01*
X42540688Y-102816805D01*
X42480989Y-103032070D01*
X42457251Y-103254195D01*
X42457548Y-103259348D01*
X42457548Y-103259351D01*
X42463011Y-103354090D01*
X42470110Y-103477215D01*
X42471247Y-103482261D01*
X42471248Y-103482267D01*
X42491119Y-103570439D01*
X42519222Y-103695139D01*
X42603266Y-103902116D01*
X42640072Y-103962178D01*
X42717288Y-104088183D01*
X42719987Y-104092588D01*
X42866250Y-104261438D01*
X43038126Y-104404132D01*
X43231000Y-104516838D01*
X43439692Y-104596530D01*
X43444760Y-104597561D01*
X43444763Y-104597562D01*
X43549604Y-104618892D01*
X43658597Y-104641067D01*
X43663772Y-104641257D01*
X43663774Y-104641257D01*
X43876673Y-104649064D01*
X43876677Y-104649064D01*
X43881837Y-104649253D01*
X43886957Y-104648597D01*
X43886959Y-104648597D01*
X44098288Y-104621525D01*
X44098289Y-104621525D01*
X44103416Y-104620868D01*
X44108366Y-104619383D01*
X44312429Y-104558161D01*
X44312434Y-104558159D01*
X44317384Y-104556674D01*
X44517994Y-104458396D01*
X44582544Y-104412353D01*
X45599977Y-104412353D01*
X45605258Y-104419407D01*
X45766756Y-104513779D01*
X45776042Y-104518229D01*
X45975001Y-104594203D01*
X45984899Y-104597079D01*
X46193595Y-104639538D01*
X46203823Y-104640757D01*
X46416650Y-104648562D01*
X46426936Y-104648095D01*
X46638185Y-104621034D01*
X46648262Y-104618892D01*
X46852255Y-104557691D01*
X46861842Y-104553933D01*
X47053098Y-104460238D01*
X47061944Y-104454965D01*
X47109247Y-104421223D01*
X47116211Y-104412353D01*
X48139977Y-104412353D01*
X48145258Y-104419407D01*
X48306756Y-104513779D01*
X48316042Y-104518229D01*
X48515001Y-104594203D01*
X48524899Y-104597079D01*
X48733595Y-104639538D01*
X48743823Y-104640757D01*
X48956650Y-104648562D01*
X48966936Y-104648095D01*
X49178185Y-104621034D01*
X49188262Y-104618892D01*
X49392255Y-104557691D01*
X49401842Y-104553933D01*
X49593098Y-104460238D01*
X49601944Y-104454965D01*
X49649247Y-104421223D01*
X49656211Y-104412353D01*
X50679977Y-104412353D01*
X50685258Y-104419407D01*
X50846756Y-104513779D01*
X50856042Y-104518229D01*
X51055001Y-104594203D01*
X51064899Y-104597079D01*
X51273595Y-104639538D01*
X51283823Y-104640757D01*
X51496650Y-104648562D01*
X51506936Y-104648095D01*
X51718185Y-104621034D01*
X51728262Y-104618892D01*
X51932255Y-104557691D01*
X51941842Y-104553933D01*
X52133098Y-104460238D01*
X52141944Y-104454965D01*
X52189247Y-104421223D01*
X52197648Y-104410523D01*
X52190660Y-104397370D01*
X51452812Y-103659522D01*
X51438868Y-103651908D01*
X51437035Y-103652039D01*
X51430420Y-103656290D01*
X50686737Y-104399973D01*
X50679977Y-104412353D01*
X49656211Y-104412353D01*
X49657648Y-104410523D01*
X49650660Y-104397370D01*
X48912812Y-103659522D01*
X48898868Y-103651908D01*
X48897035Y-103652039D01*
X48890420Y-103656290D01*
X48146737Y-104399973D01*
X48139977Y-104412353D01*
X47116211Y-104412353D01*
X47117648Y-104410523D01*
X47110660Y-104397370D01*
X46372812Y-103659522D01*
X46358868Y-103651908D01*
X46357035Y-103652039D01*
X46350420Y-103656290D01*
X45606737Y-104399973D01*
X45599977Y-104412353D01*
X44582544Y-104412353D01*
X44699860Y-104328673D01*
X44858096Y-104170989D01*
X44917594Y-104088189D01*
X44988453Y-103989577D01*
X44989640Y-103990430D01*
X45036960Y-103946862D01*
X45106897Y-103934645D01*
X45172338Y-103962178D01*
X45200166Y-103994012D01*
X45226459Y-104036919D01*
X45236916Y-104046380D01*
X45245694Y-104042596D01*
X45987978Y-103300312D01*
X45994356Y-103288632D01*
X46724408Y-103288632D01*
X46724539Y-103290465D01*
X46728790Y-103297080D01*
X47470474Y-104038764D01*
X47482484Y-104045323D01*
X47494223Y-104036355D01*
X47528022Y-103989319D01*
X47529149Y-103990129D01*
X47576659Y-103946381D01*
X47646596Y-103934161D01*
X47712038Y-103961691D01*
X47739870Y-103993529D01*
X47766459Y-104036919D01*
X47776916Y-104046380D01*
X47785694Y-104042596D01*
X48527978Y-103300312D01*
X48534356Y-103288632D01*
X49264408Y-103288632D01*
X49264539Y-103290465D01*
X49268790Y-103297080D01*
X50010474Y-104038764D01*
X50022484Y-104045323D01*
X50034223Y-104036355D01*
X50068022Y-103989319D01*
X50069149Y-103990129D01*
X50116659Y-103946381D01*
X50186596Y-103934161D01*
X50252038Y-103961691D01*
X50279870Y-103993529D01*
X50306459Y-104036919D01*
X50316916Y-104046380D01*
X50325694Y-104042596D01*
X51067978Y-103300312D01*
X51074356Y-103288632D01*
X51804408Y-103288632D01*
X51804539Y-103290465D01*
X51808790Y-103297080D01*
X52550474Y-104038764D01*
X52562484Y-104045323D01*
X52574223Y-104036355D01*
X52608022Y-103989319D01*
X52609277Y-103990221D01*
X52656391Y-103946855D01*
X52726330Y-103934648D01*
X52791767Y-103962191D01*
X52819580Y-103994013D01*
X52877287Y-104088183D01*
X52877291Y-104088188D01*
X52879987Y-104092588D01*
X53026250Y-104261438D01*
X53198126Y-104404132D01*
X53391000Y-104516838D01*
X53599692Y-104596530D01*
X53604760Y-104597561D01*
X53604763Y-104597562D01*
X53709604Y-104618892D01*
X53818597Y-104641067D01*
X53823772Y-104641257D01*
X53823774Y-104641257D01*
X54036673Y-104649064D01*
X54036677Y-104649064D01*
X54041837Y-104649253D01*
X54046957Y-104648597D01*
X54046959Y-104648597D01*
X54258288Y-104621525D01*
X54258289Y-104621525D01*
X54263416Y-104620868D01*
X54268366Y-104619383D01*
X54472429Y-104558161D01*
X54472434Y-104558159D01*
X54477384Y-104556674D01*
X54677994Y-104458396D01*
X54859860Y-104328673D01*
X55018096Y-104170989D01*
X55077594Y-104088189D01*
X55145435Y-103993777D01*
X55148453Y-103989577D01*
X55161995Y-103962178D01*
X55245136Y-103793953D01*
X55245137Y-103793951D01*
X55247430Y-103789311D01*
X55312370Y-103575569D01*
X55341529Y-103354090D01*
X55343156Y-103287500D01*
X55324852Y-103064861D01*
X55270431Y-102848202D01*
X55181354Y-102643340D01*
X55060014Y-102455777D01*
X54909670Y-102290551D01*
X54867006Y-102256857D01*
X54825944Y-102198941D01*
X54822712Y-102128018D01*
X54858337Y-102066607D01*
X54891647Y-102043876D01*
X54897007Y-102041365D01*
X54903946Y-102039050D01*
X55054348Y-101945978D01*
X55179305Y-101820803D01*
X55201357Y-101785029D01*
X55268275Y-101676468D01*
X55268276Y-101676466D01*
X55272115Y-101670238D01*
X55327797Y-101502361D01*
X55338500Y-101397900D01*
X55338500Y-100097100D01*
X55338077Y-100093023D01*
X55328238Y-99998192D01*
X55328237Y-99998188D01*
X55327526Y-99991334D01*
X55293598Y-99889638D01*
X55273868Y-99830502D01*
X55271550Y-99823554D01*
X55178478Y-99673152D01*
X55053303Y-99548195D01*
X55047072Y-99544354D01*
X54908968Y-99459225D01*
X54908966Y-99459224D01*
X54902738Y-99455385D01*
X54736248Y-99400163D01*
X54736246Y-99400162D01*
X54734861Y-99399703D01*
X54734943Y-99399456D01*
X54675672Y-99367322D01*
X54641460Y-99305112D01*
X54638500Y-99277960D01*
X54638500Y-98672450D01*
X54658502Y-98604329D01*
X54675405Y-98583355D01*
X56098759Y-97160001D01*
X56161071Y-97125975D01*
X56227521Y-97129503D01*
X56268611Y-97143132D01*
X56268613Y-97143132D01*
X56275139Y-97145297D01*
X56281975Y-97145997D01*
X56281978Y-97145998D01*
X56325031Y-97150409D01*
X56379600Y-97156000D01*
X57580400Y-97156000D01*
X57583646Y-97155663D01*
X57583650Y-97155663D01*
X57679308Y-97145738D01*
X57679312Y-97145737D01*
X57686166Y-97145026D01*
X57692702Y-97142845D01*
X57692704Y-97142845D01*
X57824806Y-97098772D01*
X57853946Y-97089050D01*
X58004348Y-96995978D01*
X58129305Y-96870803D01*
X58222115Y-96720238D01*
X58277797Y-96552361D01*
X58288500Y-96447900D01*
X58288500Y-94247100D01*
X58287922Y-94241525D01*
X58278238Y-94148192D01*
X58278237Y-94148188D01*
X58277526Y-94141334D01*
X58221550Y-93973554D01*
X58128478Y-93823152D01*
X58003303Y-93698195D01*
X57932352Y-93654460D01*
X57884860Y-93601689D01*
X57873436Y-93531617D01*
X57901710Y-93466494D01*
X57932166Y-93440057D01*
X57997807Y-93399437D01*
X58009208Y-93390401D01*
X58123739Y-93275671D01*
X58132751Y-93264260D01*
X58217816Y-93126257D01*
X58223963Y-93113076D01*
X58275138Y-92958790D01*
X58278005Y-92945414D01*
X58287672Y-92851062D01*
X58288000Y-92844646D01*
X58288000Y-92019615D01*
X58283525Y-92004376D01*
X58282135Y-92003171D01*
X58274452Y-92001500D01*
X55690116Y-92001500D01*
X55674877Y-92005975D01*
X55673672Y-92007365D01*
X55672001Y-92015048D01*
X55672001Y-92844595D01*
X55672338Y-92851114D01*
X55682257Y-92946706D01*
X55685149Y-92960100D01*
X55736588Y-93114284D01*
X55742761Y-93127462D01*
X55828063Y-93265307D01*
X55837099Y-93276708D01*
X55951829Y-93391239D01*
X55963240Y-93400251D01*
X56027646Y-93439951D01*
X56075139Y-93492723D01*
X56086563Y-93562794D01*
X56058289Y-93627918D01*
X56027834Y-93654354D01*
X55955652Y-93699022D01*
X55830695Y-93824197D01*
X55737885Y-93974762D01*
X55682203Y-94142639D01*
X55671500Y-94247100D01*
X55671500Y-95672550D01*
X55651498Y-95740671D01*
X55634595Y-95761645D01*
X53572395Y-97823845D01*
X53563615Y-97831835D01*
X53563613Y-97831837D01*
X53556920Y-97836084D01*
X53551494Y-97841862D01*
X53551493Y-97841863D01*
X53508396Y-97887757D01*
X53505641Y-97890599D01*
X53485073Y-97911167D01*
X53482356Y-97914670D01*
X53474648Y-97923695D01*
X53443028Y-97957367D01*
X53439207Y-97964318D01*
X53439206Y-97964319D01*
X53432697Y-97976158D01*
X53421843Y-97992682D01*
X53418432Y-97997080D01*
X53408696Y-98009632D01*
X53405549Y-98016904D01*
X53405548Y-98016906D01*
X53390346Y-98052035D01*
X53385124Y-98062695D01*
X53362876Y-98103163D01*
X53357541Y-98123941D01*
X53351142Y-98142631D01*
X53342620Y-98162324D01*
X53341380Y-98170155D01*
X53335394Y-98207948D01*
X53332987Y-98219571D01*
X53331319Y-98226068D01*
X53321500Y-98264312D01*
X53321500Y-98285759D01*
X53319949Y-98305469D01*
X53316594Y-98326652D01*
X53318760Y-98349560D01*
X53320941Y-98372638D01*
X53321500Y-98384496D01*
X53321500Y-99277958D01*
X53301498Y-99346079D01*
X53247842Y-99392572D01*
X53226322Y-99399716D01*
X53223834Y-99399974D01*
X53056054Y-99455950D01*
X52905652Y-99549022D01*
X52900479Y-99554204D01*
X52844762Y-99610018D01*
X52780695Y-99674197D01*
X52776855Y-99680427D01*
X52776854Y-99680428D01*
X52733630Y-99750551D01*
X52687885Y-99824762D01*
X52685581Y-99831709D01*
X52663236Y-99899077D01*
X52622806Y-99957437D01*
X52596330Y-99973866D01*
X52552811Y-99993899D01*
X51812022Y-100734688D01*
X51804408Y-100748632D01*
X51804539Y-100750465D01*
X51808790Y-100757080D01*
X52550474Y-101498764D01*
X52590998Y-101520893D01*
X52603589Y-101523632D01*
X52653791Y-101573835D01*
X52662726Y-101594342D01*
X52688450Y-101671446D01*
X52781522Y-101821848D01*
X52906697Y-101946805D01*
X52912927Y-101950645D01*
X52912928Y-101950646D01*
X53039104Y-102028422D01*
X53057262Y-102039615D01*
X53064209Y-102041919D01*
X53066276Y-102042883D01*
X53119561Y-102089799D01*
X53139023Y-102158076D01*
X53118482Y-102226036D01*
X53088681Y-102257837D01*
X53074965Y-102268135D01*
X52920629Y-102429638D01*
X52847693Y-102536559D01*
X52812898Y-102587566D01*
X52757987Y-102632569D01*
X52687462Y-102640740D01*
X52623715Y-102609486D01*
X52603017Y-102585001D01*
X52573062Y-102538697D01*
X52562377Y-102529495D01*
X52552812Y-102533898D01*
X51812022Y-103274688D01*
X51804408Y-103288632D01*
X51074356Y-103288632D01*
X51075592Y-103286368D01*
X51075461Y-103284535D01*
X51071210Y-103277920D01*
X50329849Y-102536559D01*
X50318313Y-102530259D01*
X50306028Y-102539884D01*
X50273192Y-102588020D01*
X50218281Y-102633023D01*
X50147756Y-102641194D01*
X50084009Y-102609940D01*
X50063311Y-102585455D01*
X50033062Y-102538697D01*
X50022377Y-102529495D01*
X50012812Y-102533898D01*
X49272022Y-103274688D01*
X49264408Y-103288632D01*
X48534356Y-103288632D01*
X48535592Y-103286368D01*
X48535461Y-103284535D01*
X48531210Y-103277920D01*
X47789849Y-102536559D01*
X47778313Y-102530259D01*
X47766028Y-102539884D01*
X47733192Y-102588020D01*
X47678281Y-102633023D01*
X47607756Y-102641194D01*
X47544009Y-102609940D01*
X47523311Y-102585455D01*
X47493062Y-102538697D01*
X47482377Y-102529495D01*
X47472812Y-102533898D01*
X46732022Y-103274688D01*
X46724408Y-103288632D01*
X45994356Y-103288632D01*
X45995592Y-103286368D01*
X45995461Y-103284535D01*
X45991210Y-103277920D01*
X45249849Y-102536559D01*
X45238313Y-102530259D01*
X45226031Y-102539882D01*
X45193499Y-102587572D01*
X45138587Y-102632575D01*
X45068063Y-102640746D01*
X45004316Y-102609492D01*
X44983618Y-102585008D01*
X44902822Y-102460117D01*
X44902820Y-102460114D01*
X44900014Y-102455777D01*
X44749670Y-102290551D01*
X44745616Y-102287349D01*
X44745615Y-102287348D01*
X44578412Y-102155299D01*
X44574359Y-102152098D01*
X44569841Y-102149604D01*
X44569835Y-102149600D01*
X44543605Y-102135120D01*
X44493635Y-102084687D01*
X44478500Y-102024812D01*
X44478500Y-102011461D01*
X44498502Y-101943340D01*
X44531332Y-101908882D01*
X44570109Y-101881223D01*
X44582544Y-101872353D01*
X45599977Y-101872353D01*
X45605258Y-101879407D01*
X45652479Y-101907001D01*
X45701203Y-101958639D01*
X45714274Y-102028422D01*
X45687543Y-102094194D01*
X45647087Y-102127553D01*
X45638466Y-102132041D01*
X45629734Y-102137539D01*
X45609677Y-102152599D01*
X45601223Y-102163927D01*
X45607968Y-102176258D01*
X46347188Y-102915478D01*
X46361132Y-102923092D01*
X46362965Y-102922961D01*
X46369580Y-102918710D01*
X47113389Y-102174901D01*
X47120410Y-102162044D01*
X47113611Y-102152713D01*
X47109559Y-102150021D01*
X47072116Y-102129352D01*
X47022145Y-102078920D01*
X47007373Y-102009477D01*
X47032489Y-101943072D01*
X47059840Y-101916465D01*
X47109247Y-101881223D01*
X47116211Y-101872353D01*
X48139977Y-101872353D01*
X48145258Y-101879407D01*
X48192479Y-101907001D01*
X48241203Y-101958639D01*
X48254274Y-102028422D01*
X48227543Y-102094194D01*
X48187087Y-102127553D01*
X48178466Y-102132041D01*
X48169734Y-102137539D01*
X48149677Y-102152599D01*
X48141223Y-102163927D01*
X48147968Y-102176258D01*
X48887188Y-102915478D01*
X48901132Y-102923092D01*
X48902965Y-102922961D01*
X48909580Y-102918710D01*
X49653389Y-102174901D01*
X49660410Y-102162044D01*
X49653611Y-102152713D01*
X49649559Y-102150021D01*
X49612116Y-102129352D01*
X49562145Y-102078920D01*
X49547373Y-102009477D01*
X49572489Y-101943072D01*
X49599840Y-101916465D01*
X49649247Y-101881223D01*
X49656211Y-101872353D01*
X50679977Y-101872353D01*
X50685258Y-101879407D01*
X50732479Y-101907001D01*
X50781203Y-101958639D01*
X50794274Y-102028422D01*
X50767543Y-102094194D01*
X50727087Y-102127553D01*
X50718466Y-102132041D01*
X50709734Y-102137539D01*
X50689677Y-102152599D01*
X50681223Y-102163927D01*
X50687968Y-102176258D01*
X51427188Y-102915478D01*
X51441132Y-102923092D01*
X51442965Y-102922961D01*
X51449580Y-102918710D01*
X52193389Y-102174901D01*
X52200410Y-102162044D01*
X52193611Y-102152713D01*
X52189559Y-102150021D01*
X52152116Y-102129352D01*
X52102145Y-102078920D01*
X52087373Y-102009477D01*
X52112489Y-101943072D01*
X52139840Y-101916465D01*
X52189247Y-101881223D01*
X52197648Y-101870523D01*
X52190660Y-101857370D01*
X51452812Y-101119522D01*
X51438868Y-101111908D01*
X51437035Y-101112039D01*
X51430420Y-101116290D01*
X50686737Y-101859973D01*
X50679977Y-101872353D01*
X49656211Y-101872353D01*
X49657648Y-101870523D01*
X49650660Y-101857370D01*
X48912812Y-101119522D01*
X48898868Y-101111908D01*
X48897035Y-101112039D01*
X48890420Y-101116290D01*
X48146737Y-101859973D01*
X48139977Y-101872353D01*
X47116211Y-101872353D01*
X47117648Y-101870523D01*
X47110660Y-101857370D01*
X46372812Y-101119522D01*
X46358868Y-101111908D01*
X46357035Y-101112039D01*
X46350420Y-101116290D01*
X45606737Y-101859973D01*
X45599977Y-101872353D01*
X44582544Y-101872353D01*
X44699860Y-101788673D01*
X44858096Y-101630989D01*
X44884430Y-101594342D01*
X44988453Y-101449577D01*
X44989640Y-101450430D01*
X45036960Y-101406862D01*
X45106897Y-101394645D01*
X45172338Y-101422178D01*
X45200166Y-101454012D01*
X45226459Y-101496919D01*
X45236916Y-101506380D01*
X45245694Y-101502596D01*
X45987978Y-100760312D01*
X45994356Y-100748632D01*
X46724408Y-100748632D01*
X46724539Y-100750465D01*
X46728790Y-100757080D01*
X47470474Y-101498764D01*
X47482484Y-101505323D01*
X47494223Y-101496355D01*
X47528022Y-101449319D01*
X47529149Y-101450129D01*
X47576659Y-101406381D01*
X47646596Y-101394161D01*
X47712038Y-101421691D01*
X47739870Y-101453529D01*
X47766459Y-101496919D01*
X47776916Y-101506380D01*
X47785694Y-101502596D01*
X48527978Y-100760312D01*
X48534356Y-100748632D01*
X49264408Y-100748632D01*
X49264539Y-100750465D01*
X49268790Y-100757080D01*
X50010474Y-101498764D01*
X50022484Y-101505323D01*
X50034223Y-101496355D01*
X50068022Y-101449319D01*
X50069149Y-101450129D01*
X50116659Y-101406381D01*
X50186596Y-101394161D01*
X50252038Y-101421691D01*
X50279870Y-101453529D01*
X50306459Y-101496919D01*
X50316916Y-101506380D01*
X50325694Y-101502596D01*
X51067978Y-100760312D01*
X51075592Y-100746368D01*
X51075461Y-100744535D01*
X51071210Y-100737920D01*
X50329849Y-99996559D01*
X50318313Y-99990259D01*
X50306028Y-99999884D01*
X50273192Y-100048020D01*
X50218281Y-100093023D01*
X50147756Y-100101194D01*
X50084009Y-100069940D01*
X50063311Y-100045455D01*
X50033062Y-99998697D01*
X50022377Y-99989495D01*
X50012812Y-99993898D01*
X49272022Y-100734688D01*
X49264408Y-100748632D01*
X48534356Y-100748632D01*
X48535592Y-100746368D01*
X48535461Y-100744535D01*
X48531210Y-100737920D01*
X47789849Y-99996559D01*
X47778313Y-99990259D01*
X47766028Y-99999884D01*
X47733192Y-100048020D01*
X47678281Y-100093023D01*
X47607756Y-100101194D01*
X47544009Y-100069940D01*
X47523311Y-100045455D01*
X47493062Y-99998697D01*
X47482377Y-99989495D01*
X47472812Y-99993898D01*
X46732022Y-100734688D01*
X46724408Y-100748632D01*
X45994356Y-100748632D01*
X45995592Y-100746368D01*
X45995461Y-100744535D01*
X45991210Y-100737920D01*
X45249849Y-99996559D01*
X45238313Y-99990259D01*
X45226031Y-99999882D01*
X45193499Y-100047572D01*
X45138587Y-100092575D01*
X45068063Y-100100746D01*
X45004316Y-100069492D01*
X44983618Y-100045008D01*
X44902822Y-99920117D01*
X44902820Y-99920114D01*
X44900014Y-99915777D01*
X44749670Y-99750551D01*
X44745619Y-99747352D01*
X44745615Y-99747348D01*
X44589337Y-99623927D01*
X45601223Y-99623927D01*
X45607968Y-99636258D01*
X46347188Y-100375478D01*
X46361132Y-100383092D01*
X46362965Y-100382961D01*
X46369580Y-100378710D01*
X47113389Y-99634901D01*
X47119382Y-99623927D01*
X48141223Y-99623927D01*
X48147968Y-99636258D01*
X48887188Y-100375478D01*
X48901132Y-100383092D01*
X48902965Y-100382961D01*
X48909580Y-100378710D01*
X49653389Y-99634901D01*
X49659382Y-99623927D01*
X50681223Y-99623927D01*
X50687968Y-99636258D01*
X51427188Y-100375478D01*
X51441132Y-100383092D01*
X51442965Y-100382961D01*
X51449580Y-100378710D01*
X52193389Y-99634901D01*
X52200410Y-99622044D01*
X52193611Y-99612713D01*
X52189554Y-99610018D01*
X52003117Y-99507099D01*
X51993705Y-99502869D01*
X51792959Y-99431780D01*
X51782989Y-99429146D01*
X51573327Y-99391801D01*
X51563073Y-99390831D01*
X51350116Y-99388228D01*
X51339832Y-99388948D01*
X51129321Y-99421161D01*
X51119293Y-99423550D01*
X50916868Y-99489712D01*
X50907359Y-99493709D01*
X50718466Y-99592040D01*
X50709734Y-99597539D01*
X50689677Y-99612599D01*
X50681223Y-99623927D01*
X49659382Y-99623927D01*
X49660410Y-99622044D01*
X49653611Y-99612713D01*
X49649554Y-99610018D01*
X49463117Y-99507099D01*
X49453705Y-99502869D01*
X49252959Y-99431780D01*
X49242989Y-99429146D01*
X49033327Y-99391801D01*
X49023073Y-99390831D01*
X48810116Y-99388228D01*
X48799832Y-99388948D01*
X48589321Y-99421161D01*
X48579293Y-99423550D01*
X48376868Y-99489712D01*
X48367359Y-99493709D01*
X48178466Y-99592040D01*
X48169734Y-99597539D01*
X48149677Y-99612599D01*
X48141223Y-99623927D01*
X47119382Y-99623927D01*
X47120410Y-99622044D01*
X47113611Y-99612713D01*
X47109554Y-99610018D01*
X46923117Y-99507099D01*
X46913705Y-99502869D01*
X46712959Y-99431780D01*
X46702989Y-99429146D01*
X46493327Y-99391801D01*
X46483073Y-99390831D01*
X46270116Y-99388228D01*
X46259832Y-99388948D01*
X46049321Y-99421161D01*
X46039293Y-99423550D01*
X45836868Y-99489712D01*
X45827359Y-99493709D01*
X45638466Y-99592040D01*
X45629734Y-99597539D01*
X45609677Y-99612599D01*
X45601223Y-99623927D01*
X44589337Y-99623927D01*
X44578412Y-99615299D01*
X44574359Y-99612098D01*
X44569841Y-99609604D01*
X44569835Y-99609600D01*
X44543605Y-99595120D01*
X44493635Y-99544687D01*
X44478500Y-99484812D01*
X44478500Y-98349560D01*
X44479059Y-98337703D01*
X44480789Y-98329963D01*
X44479712Y-98295676D01*
X44478562Y-98259099D01*
X44478500Y-98255141D01*
X44478500Y-98226068D01*
X44477947Y-98221689D01*
X44477014Y-98209846D01*
X44476955Y-98207948D01*
X44475563Y-98163669D01*
X44469579Y-98143071D01*
X44465571Y-98123718D01*
X44465132Y-98120243D01*
X44462882Y-98102436D01*
X44445875Y-98059482D01*
X44442029Y-98048247D01*
X44431358Y-98011516D01*
X44431357Y-98011513D01*
X44429145Y-98003900D01*
X44418225Y-97985435D01*
X44409534Y-97967695D01*
X44401635Y-97947744D01*
X44374482Y-97910371D01*
X44367967Y-97900452D01*
X44348493Y-97867523D01*
X44348490Y-97867519D01*
X44344453Y-97860693D01*
X44329289Y-97845529D01*
X44316448Y-97830495D01*
X44303841Y-97813143D01*
X44268247Y-97783697D01*
X44259468Y-97775708D01*
X42704855Y-96221095D01*
X42670829Y-96158783D01*
X42675894Y-96087968D01*
X42718441Y-96031132D01*
X42784961Y-96006321D01*
X42793950Y-96006000D01*
X46932944Y-96006000D01*
X46944800Y-96006559D01*
X46944803Y-96006559D01*
X46952537Y-96008288D01*
X47023369Y-96006062D01*
X47027327Y-96006000D01*
X47056432Y-96006000D01*
X47060832Y-96005444D01*
X47072664Y-96004512D01*
X47118831Y-96003062D01*
X47139421Y-95997080D01*
X47158782Y-95993070D01*
X47165770Y-95992188D01*
X47172204Y-95991375D01*
X47172205Y-95991375D01*
X47180064Y-95990382D01*
X47187429Y-95987466D01*
X47187433Y-95987465D01*
X47223021Y-95973374D01*
X47234231Y-95969535D01*
X47278600Y-95956645D01*
X47297065Y-95945725D01*
X47314805Y-95937034D01*
X47334756Y-95929135D01*
X47372129Y-95901982D01*
X47382048Y-95895467D01*
X47414977Y-95875993D01*
X47414981Y-95875990D01*
X47421807Y-95871953D01*
X47436971Y-95856789D01*
X47452005Y-95843948D01*
X47462943Y-95836001D01*
X47469357Y-95831341D01*
X47498803Y-95795747D01*
X47506792Y-95786968D01*
X47523355Y-95770405D01*
X47585667Y-95736379D01*
X47612450Y-95733500D01*
X48250400Y-95733500D01*
X48253646Y-95733163D01*
X48253650Y-95733163D01*
X48349308Y-95723238D01*
X48349312Y-95723237D01*
X48356166Y-95722526D01*
X48362702Y-95720345D01*
X48362704Y-95720345D01*
X48516998Y-95668868D01*
X48523946Y-95666550D01*
X48674348Y-95573478D01*
X48799305Y-95448303D01*
X48802102Y-95443765D01*
X48859353Y-95403176D01*
X48930276Y-95399946D01*
X48991687Y-95435572D01*
X48999062Y-95444068D01*
X49007098Y-95454207D01*
X49121829Y-95568739D01*
X49133240Y-95577751D01*
X49271243Y-95662816D01*
X49284424Y-95668963D01*
X49438710Y-95720138D01*
X49452086Y-95723005D01*
X49546438Y-95732672D01*
X49552854Y-95733000D01*
X49665385Y-95733000D01*
X49680624Y-95728525D01*
X49681829Y-95727135D01*
X49683500Y-95719452D01*
X49683500Y-95714884D01*
X50191500Y-95714884D01*
X50195975Y-95730123D01*
X50197365Y-95731328D01*
X50205048Y-95732999D01*
X50322095Y-95732999D01*
X50328614Y-95732662D01*
X50424206Y-95722743D01*
X50437600Y-95719851D01*
X50591784Y-95668412D01*
X50604962Y-95662239D01*
X50742807Y-95576937D01*
X50754208Y-95567901D01*
X50868739Y-95453171D01*
X50877751Y-95441760D01*
X50962816Y-95303757D01*
X50968963Y-95290576D01*
X51020138Y-95136290D01*
X51023005Y-95122914D01*
X51032672Y-95028562D01*
X51033000Y-95022146D01*
X51033000Y-94772115D01*
X51028525Y-94756876D01*
X51027135Y-94755671D01*
X51019452Y-94754000D01*
X50209615Y-94754000D01*
X50194376Y-94758475D01*
X50193171Y-94759865D01*
X50191500Y-94767548D01*
X50191500Y-95714884D01*
X49683500Y-95714884D01*
X49683500Y-94372000D01*
X49703502Y-94303879D01*
X49757158Y-94257386D01*
X49809500Y-94246000D01*
X51014884Y-94246000D01*
X51030123Y-94241525D01*
X51031328Y-94240135D01*
X51032999Y-94232452D01*
X51032999Y-93977905D01*
X51032662Y-93971386D01*
X51022743Y-93875794D01*
X51019851Y-93862400D01*
X50968412Y-93708216D01*
X50962239Y-93695038D01*
X50876937Y-93557193D01*
X50867901Y-93545792D01*
X50762969Y-93441042D01*
X50728890Y-93378759D01*
X50734005Y-93307641D01*
X50748970Y-93267721D01*
X50748972Y-93267714D01*
X50751745Y-93260316D01*
X50758500Y-93198134D01*
X50758500Y-93180070D01*
X50778502Y-93111949D01*
X50832158Y-93065456D01*
X50902432Y-93055352D01*
X50950678Y-93076070D01*
X50952009Y-93073910D01*
X51096243Y-93162816D01*
X51109424Y-93168963D01*
X51263710Y-93220138D01*
X51277086Y-93223005D01*
X51371438Y-93232672D01*
X51377854Y-93233000D01*
X51627885Y-93233000D01*
X51643124Y-93228525D01*
X51644329Y-93227135D01*
X51646000Y-93219452D01*
X51646000Y-93214884D01*
X52154000Y-93214884D01*
X52158475Y-93230123D01*
X52159865Y-93231328D01*
X52167548Y-93232999D01*
X52422095Y-93232999D01*
X52428614Y-93232662D01*
X52524206Y-93222743D01*
X52537600Y-93219851D01*
X52691784Y-93168412D01*
X52704962Y-93162239D01*
X52842807Y-93076937D01*
X52854208Y-93067901D01*
X52968739Y-92953171D01*
X52977751Y-92941760D01*
X53062816Y-92803757D01*
X53068963Y-92790576D01*
X53120138Y-92636290D01*
X53123005Y-92622914D01*
X53132672Y-92528562D01*
X53133000Y-92522146D01*
X53133000Y-92409615D01*
X53128525Y-92394376D01*
X53127135Y-92393171D01*
X53119452Y-92391500D01*
X52172115Y-92391500D01*
X52156876Y-92395975D01*
X52155671Y-92397365D01*
X52154000Y-92405048D01*
X52154000Y-93214884D01*
X51646000Y-93214884D01*
X51646000Y-92009500D01*
X51666002Y-91941379D01*
X51719658Y-91894886D01*
X51772000Y-91883500D01*
X53114884Y-91883500D01*
X53130123Y-91879025D01*
X53131328Y-91877635D01*
X53132999Y-91869952D01*
X53132999Y-91752905D01*
X53132662Y-91746386D01*
X53122743Y-91650794D01*
X53119851Y-91637400D01*
X53068412Y-91483216D01*
X53064744Y-91475385D01*
X55672000Y-91475385D01*
X55676475Y-91490624D01*
X55677865Y-91491829D01*
X55685548Y-91493500D01*
X56707885Y-91493500D01*
X56723124Y-91489025D01*
X56724329Y-91487635D01*
X56726000Y-91479952D01*
X56726000Y-91475385D01*
X57234000Y-91475385D01*
X57238475Y-91490624D01*
X57239865Y-91491829D01*
X57247548Y-91493500D01*
X58269884Y-91493500D01*
X58285123Y-91489025D01*
X58286328Y-91487635D01*
X58287999Y-91479952D01*
X58287999Y-90650405D01*
X58287662Y-90643886D01*
X58277743Y-90548294D01*
X58274851Y-90534900D01*
X58223412Y-90380716D01*
X58217239Y-90367538D01*
X58131937Y-90229693D01*
X58122901Y-90218292D01*
X58008171Y-90103761D01*
X57996760Y-90094749D01*
X57858757Y-90009684D01*
X57845576Y-90003537D01*
X57691290Y-89952362D01*
X57677914Y-89949495D01*
X57583562Y-89939828D01*
X57577145Y-89939500D01*
X57252115Y-89939500D01*
X57236876Y-89943975D01*
X57235671Y-89945365D01*
X57234000Y-89953048D01*
X57234000Y-91475385D01*
X56726000Y-91475385D01*
X56726000Y-89957616D01*
X56721525Y-89942377D01*
X56720135Y-89941172D01*
X56712452Y-89939501D01*
X56382905Y-89939501D01*
X56376386Y-89939838D01*
X56280794Y-89949757D01*
X56267400Y-89952649D01*
X56113216Y-90004088D01*
X56100038Y-90010261D01*
X55962193Y-90095563D01*
X55950792Y-90104599D01*
X55836261Y-90219329D01*
X55827249Y-90230740D01*
X55742184Y-90368743D01*
X55736037Y-90381924D01*
X55684862Y-90536210D01*
X55681995Y-90549586D01*
X55672328Y-90643938D01*
X55672000Y-90650355D01*
X55672000Y-91475385D01*
X53064744Y-91475385D01*
X53062239Y-91470038D01*
X52976937Y-91332193D01*
X52967901Y-91320792D01*
X52853172Y-91206262D01*
X52844238Y-91199206D01*
X52803177Y-91141288D01*
X52799947Y-91070365D01*
X52835574Y-91008954D01*
X52843407Y-91002154D01*
X52849348Y-90998478D01*
X52974305Y-90873303D01*
X52978146Y-90867072D01*
X53063275Y-90728968D01*
X53063276Y-90728966D01*
X53067115Y-90722738D01*
X53118488Y-90567853D01*
X53120632Y-90561389D01*
X53120632Y-90561387D01*
X53122797Y-90554861D01*
X53124642Y-90536859D01*
X53133172Y-90453598D01*
X53133500Y-90450400D01*
X53133500Y-89784500D01*
X53153502Y-89716379D01*
X53207158Y-89669886D01*
X53259500Y-89658500D01*
X57938944Y-89658500D01*
X57950800Y-89659059D01*
X57950803Y-89659059D01*
X57958537Y-89660788D01*
X58029369Y-89658562D01*
X58033327Y-89658500D01*
X58062432Y-89658500D01*
X58066832Y-89657944D01*
X58078664Y-89657012D01*
X58124831Y-89655562D01*
X58145421Y-89649580D01*
X58164782Y-89645570D01*
X58171770Y-89644688D01*
X58178204Y-89643875D01*
X58178205Y-89643875D01*
X58186064Y-89642882D01*
X58193429Y-89639966D01*
X58193433Y-89639965D01*
X58229021Y-89625874D01*
X58240231Y-89622035D01*
X58284600Y-89609145D01*
X58303065Y-89598225D01*
X58320805Y-89589534D01*
X58340756Y-89581635D01*
X58378129Y-89554482D01*
X58388048Y-89547967D01*
X58420977Y-89528493D01*
X58420981Y-89528490D01*
X58427807Y-89524453D01*
X58442971Y-89509289D01*
X58458005Y-89496448D01*
X58468943Y-89488501D01*
X58475357Y-89483841D01*
X58504803Y-89448247D01*
X58512792Y-89439468D01*
X59974927Y-87977332D01*
X60037239Y-87943307D01*
X60089140Y-87942956D01*
X60239597Y-87973567D01*
X60244773Y-87973757D01*
X60244775Y-87973757D01*
X60457673Y-87981564D01*
X60457677Y-87981564D01*
X60462837Y-87981753D01*
X60467957Y-87981097D01*
X60467959Y-87981097D01*
X60679288Y-87954025D01*
X60679289Y-87954025D01*
X60684416Y-87953368D01*
X60719121Y-87942956D01*
X60893429Y-87890661D01*
X60893434Y-87890659D01*
X60898384Y-87889174D01*
X61098994Y-87790896D01*
X61280860Y-87661173D01*
X61439096Y-87503489D01*
X61569453Y-87322077D01*
X61581105Y-87298502D01*
X61666136Y-87126453D01*
X61666137Y-87126451D01*
X61668430Y-87121811D01*
X61733370Y-86908069D01*
X61762529Y-86686590D01*
X61764156Y-86620000D01*
X61745852Y-86397361D01*
X61691431Y-86180702D01*
X61602354Y-85975840D01*
X61481014Y-85788277D01*
X61330670Y-85623051D01*
X61326619Y-85619852D01*
X61326615Y-85619848D01*
X61159416Y-85487802D01*
X61159413Y-85487800D01*
X61155359Y-85484598D01*
X61150836Y-85482101D01*
X61146617Y-85479298D01*
X61100947Y-85424939D01*
X61091916Y-85354519D01*
X61122391Y-85290396D01*
X61152389Y-85268073D01*
X61151446Y-85266550D01*
X61295620Y-85177332D01*
X61301848Y-85173478D01*
X61426805Y-85048303D01*
X61519615Y-84897738D01*
X61575297Y-84729861D01*
X61576089Y-84722138D01*
X61585667Y-84628650D01*
X61586000Y-84625400D01*
X61586000Y-83849600D01*
X61580812Y-83799600D01*
X61575738Y-83750692D01*
X61575737Y-83750688D01*
X61575026Y-83743834D01*
X61519050Y-83576054D01*
X61425978Y-83425652D01*
X61300803Y-83300695D01*
X61296265Y-83297898D01*
X61255676Y-83240647D01*
X61252446Y-83169724D01*
X61288072Y-83108313D01*
X61296568Y-83100938D01*
X61306707Y-83092902D01*
X61421239Y-82978171D01*
X61430251Y-82966760D01*
X61515316Y-82828757D01*
X61521463Y-82815576D01*
X61572638Y-82661290D01*
X61575505Y-82647914D01*
X61585172Y-82553562D01*
X61585500Y-82547146D01*
X61585500Y-82434615D01*
X61581025Y-82419376D01*
X61579635Y-82418171D01*
X61571952Y-82416500D01*
X59137616Y-82416500D01*
X59122377Y-82420975D01*
X59121172Y-82422365D01*
X59119501Y-82430048D01*
X59119501Y-82547095D01*
X59119838Y-82553614D01*
X59129757Y-82649206D01*
X59132649Y-82662600D01*
X59184088Y-82816784D01*
X59190261Y-82829962D01*
X59275563Y-82967807D01*
X59284599Y-82979208D01*
X59399328Y-83093738D01*
X59408262Y-83100794D01*
X59449323Y-83158712D01*
X59452553Y-83229635D01*
X59416926Y-83291046D01*
X59409093Y-83297846D01*
X59403152Y-83301522D01*
X59278195Y-83426697D01*
X59274355Y-83432927D01*
X59274354Y-83432928D01*
X59216206Y-83527262D01*
X59185385Y-83577262D01*
X59129703Y-83745139D01*
X59119000Y-83849600D01*
X59119000Y-84625400D01*
X59119337Y-84628646D01*
X59119337Y-84628650D01*
X59129252Y-84724206D01*
X59129974Y-84731166D01*
X59132155Y-84737702D01*
X59132155Y-84737704D01*
X59176228Y-84869806D01*
X59185950Y-84898946D01*
X59279022Y-85049348D01*
X59404197Y-85174305D01*
X59410427Y-85178145D01*
X59410428Y-85178146D01*
X59547788Y-85262816D01*
X59554762Y-85267115D01*
X59579521Y-85275327D01*
X59593564Y-85279985D01*
X59651924Y-85320416D01*
X59679160Y-85385981D01*
X59666626Y-85455862D01*
X59629552Y-85500335D01*
X59495965Y-85600635D01*
X59341629Y-85762138D01*
X59234204Y-85919618D01*
X59233898Y-85920066D01*
X59178987Y-85965069D01*
X59108462Y-85973240D01*
X59044715Y-85941986D01*
X59024017Y-85917501D01*
X58994062Y-85871197D01*
X58983377Y-85861995D01*
X58973812Y-85866398D01*
X57107737Y-87732473D01*
X57100977Y-87744853D01*
X57106258Y-87751907D01*
X57267756Y-87846279D01*
X57277042Y-87850729D01*
X57476001Y-87926703D01*
X57485899Y-87929579D01*
X57694595Y-87972038D01*
X57704823Y-87973257D01*
X57813027Y-87977225D01*
X57880369Y-87999709D01*
X57924865Y-88055033D01*
X57932387Y-88125630D01*
X57897505Y-88192235D01*
X57785145Y-88304595D01*
X57722833Y-88338621D01*
X57696050Y-88341500D01*
X49182056Y-88341500D01*
X49170200Y-88340941D01*
X49170197Y-88340941D01*
X49162463Y-88339212D01*
X49107446Y-88340941D01*
X49091631Y-88341438D01*
X49087673Y-88341500D01*
X49058568Y-88341500D01*
X49054168Y-88342056D01*
X49042336Y-88342988D01*
X48996169Y-88344438D01*
X48975579Y-88350420D01*
X48956218Y-88354430D01*
X48949230Y-88355312D01*
X48942796Y-88356125D01*
X48942795Y-88356125D01*
X48934936Y-88357118D01*
X48927571Y-88360034D01*
X48927567Y-88360035D01*
X48891979Y-88374126D01*
X48880769Y-88377965D01*
X48836400Y-88390855D01*
X48817943Y-88401771D01*
X48800193Y-88410466D01*
X48780244Y-88418365D01*
X48773833Y-88423023D01*
X48773831Y-88423024D01*
X48742864Y-88445523D01*
X48732946Y-88452038D01*
X48693193Y-88475548D01*
X48678032Y-88490709D01*
X48663000Y-88503548D01*
X48645643Y-88516159D01*
X48640590Y-88522267D01*
X48616194Y-88551757D01*
X48608204Y-88560537D01*
X48264146Y-88904595D01*
X48201834Y-88938621D01*
X48175051Y-88941500D01*
X47701866Y-88941500D01*
X47639684Y-88948255D01*
X47503295Y-88999385D01*
X47386739Y-89086739D01*
X47381358Y-89093919D01*
X47381357Y-89093920D01*
X47312279Y-89186090D01*
X47255419Y-89228605D01*
X47184601Y-89233631D01*
X47122435Y-89199698D01*
X47053483Y-89130866D01*
X47048303Y-89125695D01*
X47012773Y-89103794D01*
X46903968Y-89036725D01*
X46903966Y-89036724D01*
X46897738Y-89032885D01*
X46737254Y-88979655D01*
X46736389Y-88979368D01*
X46736387Y-88979368D01*
X46729861Y-88977203D01*
X46723025Y-88976503D01*
X46723022Y-88976502D01*
X46679969Y-88972091D01*
X46625400Y-88966500D01*
X45574600Y-88966500D01*
X45571354Y-88966837D01*
X45571350Y-88966837D01*
X45475692Y-88976762D01*
X45475688Y-88976763D01*
X45468834Y-88977474D01*
X45462298Y-88979655D01*
X45462296Y-88979655D01*
X45302061Y-89033114D01*
X45231112Y-89035698D01*
X45170028Y-88999515D01*
X45142352Y-88952527D01*
X45138769Y-88941500D01*
X45134527Y-88928444D01*
X45039040Y-88763056D01*
X44911253Y-88621134D01*
X44756752Y-88508882D01*
X44750724Y-88506198D01*
X44750722Y-88506197D01*
X44588319Y-88433891D01*
X44588318Y-88433891D01*
X44582288Y-88431206D01*
X44484733Y-88410470D01*
X44401944Y-88392872D01*
X44401939Y-88392872D01*
X44395487Y-88391500D01*
X44204513Y-88391500D01*
X44198061Y-88392872D01*
X44198056Y-88392872D01*
X44115267Y-88410470D01*
X44017712Y-88431206D01*
X44011682Y-88433891D01*
X44011681Y-88433891D01*
X43849278Y-88506197D01*
X43849276Y-88506198D01*
X43843248Y-88508882D01*
X43688747Y-88621134D01*
X43560960Y-88763056D01*
X43465473Y-88928444D01*
X43406458Y-89110072D01*
X43405768Y-89116633D01*
X43405768Y-89116635D01*
X43404816Y-89125695D01*
X43386496Y-89300000D01*
X43387186Y-89306565D01*
X43401597Y-89443674D01*
X43406458Y-89489928D01*
X43465473Y-89671556D01*
X43560960Y-89836944D01*
X43565378Y-89841851D01*
X43565379Y-89841852D01*
X43662301Y-89949495D01*
X43688747Y-89978866D01*
X43843248Y-90091118D01*
X43849276Y-90093802D01*
X43849278Y-90093803D01*
X43990840Y-90156830D01*
X44017712Y-90168794D01*
X44093776Y-90184962D01*
X44198056Y-90207128D01*
X44198061Y-90207128D01*
X44204513Y-90208500D01*
X44225050Y-90208500D01*
X44293171Y-90228502D01*
X44314145Y-90245405D01*
X44538845Y-90470105D01*
X44546835Y-90478885D01*
X44551084Y-90485580D01*
X44556862Y-90491006D01*
X44556863Y-90491007D01*
X44602757Y-90534104D01*
X44605599Y-90536859D01*
X44626167Y-90557427D01*
X44629670Y-90560144D01*
X44638695Y-90567852D01*
X44672367Y-90599472D01*
X44679318Y-90603293D01*
X44679319Y-90603294D01*
X44691158Y-90609803D01*
X44707682Y-90620657D01*
X44718365Y-90628943D01*
X44724632Y-90633804D01*
X44731907Y-90636952D01*
X44767036Y-90652154D01*
X44777681Y-90657369D01*
X44818163Y-90679624D01*
X44825837Y-90681594D01*
X44825844Y-90681597D01*
X44838926Y-90684955D01*
X44857634Y-90691360D01*
X44877323Y-90699880D01*
X44881640Y-90700564D01*
X44940144Y-90737925D01*
X44952300Y-90754406D01*
X45026522Y-90874348D01*
X45151697Y-90999305D01*
X45156235Y-91002102D01*
X45196824Y-91059353D01*
X45200054Y-91130276D01*
X45164428Y-91191687D01*
X45155932Y-91199062D01*
X45145793Y-91207098D01*
X45031261Y-91321829D01*
X45022249Y-91333240D01*
X44937184Y-91471243D01*
X44931037Y-91484424D01*
X44879862Y-91638710D01*
X44876995Y-91652086D01*
X44867328Y-91746438D01*
X44867000Y-91752855D01*
X44867000Y-91865385D01*
X44871475Y-91880624D01*
X44872865Y-91881829D01*
X44880548Y-91883500D01*
X46228000Y-91883500D01*
X46296121Y-91903502D01*
X46342614Y-91957158D01*
X46354000Y-92009500D01*
X46354000Y-93214884D01*
X46358475Y-93230123D01*
X46359865Y-93231328D01*
X46367548Y-93232999D01*
X46622095Y-93232999D01*
X46628614Y-93232662D01*
X46724206Y-93222743D01*
X46737600Y-93219851D01*
X46891784Y-93168412D01*
X46904963Y-93162238D01*
X47011697Y-93096189D01*
X47080149Y-93077351D01*
X47147919Y-93098512D01*
X47193490Y-93152953D01*
X47204000Y-93203333D01*
X47204000Y-93261425D01*
X47183998Y-93329546D01*
X47144304Y-93368568D01*
X47050652Y-93426522D01*
X46925695Y-93551697D01*
X46921855Y-93557927D01*
X46921854Y-93557928D01*
X46837760Y-93694354D01*
X46832885Y-93702262D01*
X46777203Y-93870139D01*
X46766500Y-93974600D01*
X46766500Y-94563000D01*
X46746498Y-94631121D01*
X46692842Y-94677614D01*
X46640500Y-94689000D01*
X42334500Y-94689000D01*
X42266379Y-94668998D01*
X42219886Y-94615342D01*
X42208500Y-94563000D01*
X42208500Y-94247100D01*
X42207922Y-94241525D01*
X42198238Y-94148192D01*
X42198237Y-94148188D01*
X42197526Y-94141334D01*
X42141550Y-93973554D01*
X42048478Y-93823152D01*
X41923303Y-93698195D01*
X41852352Y-93654460D01*
X41804860Y-93601689D01*
X41793436Y-93531617D01*
X41821710Y-93466494D01*
X41852166Y-93440057D01*
X41917807Y-93399437D01*
X41929208Y-93390401D01*
X42043739Y-93275671D01*
X42052751Y-93264260D01*
X42137816Y-93126257D01*
X42143963Y-93113076D01*
X42195138Y-92958790D01*
X42198005Y-92945414D01*
X42207672Y-92851062D01*
X42208000Y-92844646D01*
X42208000Y-92522095D01*
X44867001Y-92522095D01*
X44867338Y-92528614D01*
X44877257Y-92624206D01*
X44880149Y-92637600D01*
X44931588Y-92791784D01*
X44937761Y-92804962D01*
X45023063Y-92942807D01*
X45032099Y-92954208D01*
X45146829Y-93068739D01*
X45158240Y-93077751D01*
X45296243Y-93162816D01*
X45309424Y-93168963D01*
X45463710Y-93220138D01*
X45477086Y-93223005D01*
X45571438Y-93232672D01*
X45577854Y-93233000D01*
X45827885Y-93233000D01*
X45843124Y-93228525D01*
X45844329Y-93227135D01*
X45846000Y-93219452D01*
X45846000Y-92409615D01*
X45841525Y-92394376D01*
X45840135Y-92393171D01*
X45832452Y-92391500D01*
X44885116Y-92391500D01*
X44869877Y-92395975D01*
X44868672Y-92397365D01*
X44867001Y-92405048D01*
X44867001Y-92522095D01*
X42208000Y-92522095D01*
X42208000Y-92019615D01*
X42203525Y-92004376D01*
X42202135Y-92003171D01*
X42194452Y-92001500D01*
X39610116Y-92001500D01*
X39594877Y-92005975D01*
X39593672Y-92007365D01*
X39592001Y-92015048D01*
X39592001Y-92804052D01*
X39571999Y-92872173D01*
X39518343Y-92918666D01*
X39448069Y-92928770D01*
X39383489Y-92899276D01*
X39376906Y-92893147D01*
X38503375Y-92019615D01*
X37959145Y-91475385D01*
X39592000Y-91475385D01*
X39596475Y-91490624D01*
X39597865Y-91491829D01*
X39605548Y-91493500D01*
X40627885Y-91493500D01*
X40643124Y-91489025D01*
X40644329Y-91487635D01*
X40646000Y-91479952D01*
X40646000Y-91475385D01*
X41154000Y-91475385D01*
X41158475Y-91490624D01*
X41159865Y-91491829D01*
X41167548Y-91493500D01*
X42189884Y-91493500D01*
X42205123Y-91489025D01*
X42206328Y-91487635D01*
X42207999Y-91479952D01*
X42207999Y-90650405D01*
X42207662Y-90643886D01*
X42197743Y-90548294D01*
X42194851Y-90534900D01*
X42143412Y-90380716D01*
X42137239Y-90367538D01*
X42051937Y-90229693D01*
X42042901Y-90218292D01*
X41928171Y-90103761D01*
X41916760Y-90094749D01*
X41778757Y-90009684D01*
X41765576Y-90003537D01*
X41611290Y-89952362D01*
X41597914Y-89949495D01*
X41503562Y-89939828D01*
X41497145Y-89939500D01*
X41172115Y-89939500D01*
X41156876Y-89943975D01*
X41155671Y-89945365D01*
X41154000Y-89953048D01*
X41154000Y-91475385D01*
X40646000Y-91475385D01*
X40646000Y-89957616D01*
X40641525Y-89942377D01*
X40640135Y-89941172D01*
X40632452Y-89939501D01*
X40302905Y-89939501D01*
X40296386Y-89939838D01*
X40200794Y-89949757D01*
X40187400Y-89952649D01*
X40033216Y-90004088D01*
X40020038Y-90010261D01*
X39882193Y-90095563D01*
X39870792Y-90104599D01*
X39756261Y-90219329D01*
X39747249Y-90230740D01*
X39662184Y-90368743D01*
X39656037Y-90381924D01*
X39604862Y-90536210D01*
X39601995Y-90549586D01*
X39592328Y-90643938D01*
X39592000Y-90650355D01*
X39592000Y-91475385D01*
X37959145Y-91475385D01*
X36995405Y-90511645D01*
X36961379Y-90449333D01*
X36958500Y-90422550D01*
X36958500Y-86843961D01*
X36978502Y-86775840D01*
X37011332Y-86741382D01*
X37024142Y-86732245D01*
X37179860Y-86621173D01*
X37184013Y-86617035D01*
X37334435Y-86467137D01*
X37338096Y-86463489D01*
X37387371Y-86394916D01*
X37465435Y-86286277D01*
X37468453Y-86282077D01*
X37481608Y-86255461D01*
X37565136Y-86086453D01*
X37565137Y-86086451D01*
X37567430Y-86081811D01*
X37610048Y-85941538D01*
X37630865Y-85873023D01*
X37630865Y-85873021D01*
X37632370Y-85868069D01*
X37661529Y-85646590D01*
X37661540Y-85646131D01*
X37686570Y-85580280D01*
X37743669Y-85538088D01*
X37814515Y-85533465D01*
X37876061Y-85567321D01*
X39336341Y-87027600D01*
X39344331Y-87036381D01*
X39344339Y-87036390D01*
X39348584Y-87043080D01*
X39354359Y-87048503D01*
X39400274Y-87091620D01*
X39403116Y-87094375D01*
X39423667Y-87114926D01*
X39426801Y-87117357D01*
X39427163Y-87117638D01*
X39436191Y-87125348D01*
X39469867Y-87156972D01*
X39476818Y-87160793D01*
X39476819Y-87160794D01*
X39488655Y-87167301D01*
X39505184Y-87178158D01*
X39515869Y-87186447D01*
X39515871Y-87186448D01*
X39522131Y-87191304D01*
X39564544Y-87209657D01*
X39575181Y-87214868D01*
X39615663Y-87237124D01*
X39623342Y-87239096D01*
X39623343Y-87239096D01*
X39636434Y-87242457D01*
X39655136Y-87248859D01*
X39674823Y-87257379D01*
X39682652Y-87258619D01*
X39720448Y-87264605D01*
X39732074Y-87267013D01*
X39769135Y-87276529D01*
X39769136Y-87276529D01*
X39776812Y-87278500D01*
X39798258Y-87278500D01*
X39817968Y-87280051D01*
X39839151Y-87283406D01*
X39885140Y-87279059D01*
X39896995Y-87278500D01*
X43900594Y-87278500D01*
X43968715Y-87298502D01*
X44008027Y-87338665D01*
X44060987Y-87425088D01*
X44207250Y-87593938D01*
X44379126Y-87736632D01*
X44572000Y-87849338D01*
X44780692Y-87929030D01*
X44785760Y-87930061D01*
X44785763Y-87930062D01*
X44850865Y-87943307D01*
X44999597Y-87973567D01*
X45004772Y-87973757D01*
X45004774Y-87973757D01*
X45217673Y-87981564D01*
X45217677Y-87981564D01*
X45222837Y-87981753D01*
X45227957Y-87981097D01*
X45227959Y-87981097D01*
X45439288Y-87954025D01*
X45439289Y-87954025D01*
X45444416Y-87953368D01*
X45479121Y-87942956D01*
X45653429Y-87890661D01*
X45653434Y-87890659D01*
X45658384Y-87889174D01*
X45858994Y-87790896D01*
X46040860Y-87661173D01*
X46199096Y-87503489D01*
X46329453Y-87322077D01*
X46330776Y-87323028D01*
X46377645Y-87279857D01*
X46447580Y-87267625D01*
X46513026Y-87295144D01*
X46540875Y-87326994D01*
X46600987Y-87425088D01*
X46747250Y-87593938D01*
X46919126Y-87736632D01*
X47112000Y-87849338D01*
X47320692Y-87929030D01*
X47325760Y-87930061D01*
X47325763Y-87930062D01*
X47390865Y-87943307D01*
X47539597Y-87973567D01*
X47544772Y-87973757D01*
X47544774Y-87973757D01*
X47757673Y-87981564D01*
X47757677Y-87981564D01*
X47762837Y-87981753D01*
X47767957Y-87981097D01*
X47767959Y-87981097D01*
X47979288Y-87954025D01*
X47979289Y-87954025D01*
X47984416Y-87953368D01*
X48019121Y-87942956D01*
X48193429Y-87890661D01*
X48193434Y-87890659D01*
X48198384Y-87889174D01*
X48398994Y-87790896D01*
X48580860Y-87661173D01*
X48739096Y-87503489D01*
X48869453Y-87322077D01*
X48870776Y-87323028D01*
X48917645Y-87279857D01*
X48987580Y-87267625D01*
X49053026Y-87295144D01*
X49080875Y-87326994D01*
X49140987Y-87425088D01*
X49287250Y-87593938D01*
X49459126Y-87736632D01*
X49652000Y-87849338D01*
X49860692Y-87929030D01*
X49865760Y-87930061D01*
X49865763Y-87930062D01*
X49930865Y-87943307D01*
X50079597Y-87973567D01*
X50084772Y-87973757D01*
X50084774Y-87973757D01*
X50297673Y-87981564D01*
X50297677Y-87981564D01*
X50302837Y-87981753D01*
X50307957Y-87981097D01*
X50307959Y-87981097D01*
X50519288Y-87954025D01*
X50519289Y-87954025D01*
X50524416Y-87953368D01*
X50559121Y-87942956D01*
X50733429Y-87890661D01*
X50733434Y-87890659D01*
X50738384Y-87889174D01*
X50938994Y-87790896D01*
X51120860Y-87661173D01*
X51279096Y-87503489D01*
X51409453Y-87322077D01*
X51410776Y-87323028D01*
X51457645Y-87279857D01*
X51527580Y-87267625D01*
X51593026Y-87295144D01*
X51620875Y-87326994D01*
X51680987Y-87425088D01*
X51827250Y-87593938D01*
X51999126Y-87736632D01*
X52192000Y-87849338D01*
X52400692Y-87929030D01*
X52405760Y-87930061D01*
X52405763Y-87930062D01*
X52470865Y-87943307D01*
X52619597Y-87973567D01*
X52624772Y-87973757D01*
X52624774Y-87973757D01*
X52837673Y-87981564D01*
X52837677Y-87981564D01*
X52842837Y-87981753D01*
X52847957Y-87981097D01*
X52847959Y-87981097D01*
X53059288Y-87954025D01*
X53059289Y-87954025D01*
X53064416Y-87953368D01*
X53099121Y-87942956D01*
X53273429Y-87890661D01*
X53273434Y-87890659D01*
X53278384Y-87889174D01*
X53478994Y-87790896D01*
X53660860Y-87661173D01*
X53819096Y-87503489D01*
X53949453Y-87322077D01*
X53950776Y-87323028D01*
X53997645Y-87279857D01*
X54067580Y-87267625D01*
X54133026Y-87295144D01*
X54160875Y-87326994D01*
X54220987Y-87425088D01*
X54367250Y-87593938D01*
X54539126Y-87736632D01*
X54732000Y-87849338D01*
X54940692Y-87929030D01*
X54945760Y-87930061D01*
X54945763Y-87930062D01*
X55010865Y-87943307D01*
X55159597Y-87973567D01*
X55164772Y-87973757D01*
X55164774Y-87973757D01*
X55377673Y-87981564D01*
X55377677Y-87981564D01*
X55382837Y-87981753D01*
X55387957Y-87981097D01*
X55387959Y-87981097D01*
X55599288Y-87954025D01*
X55599289Y-87954025D01*
X55604416Y-87953368D01*
X55639121Y-87942956D01*
X55813429Y-87890661D01*
X55813434Y-87890659D01*
X55818384Y-87889174D01*
X56018994Y-87790896D01*
X56200860Y-87661173D01*
X56359096Y-87503489D01*
X56489453Y-87322077D01*
X56490640Y-87322930D01*
X56537960Y-87279362D01*
X56607897Y-87267145D01*
X56673338Y-87294678D01*
X56701166Y-87326512D01*
X56727459Y-87369419D01*
X56737916Y-87378880D01*
X56746694Y-87375096D01*
X57488978Y-86632812D01*
X57496592Y-86618868D01*
X57496461Y-86617035D01*
X57492210Y-86610420D01*
X56750849Y-85869059D01*
X56739313Y-85862759D01*
X56727031Y-85872382D01*
X56694499Y-85920072D01*
X56639587Y-85965075D01*
X56569063Y-85973246D01*
X56505316Y-85941992D01*
X56484618Y-85917508D01*
X56403822Y-85792617D01*
X56403820Y-85792614D01*
X56401014Y-85788277D01*
X56250670Y-85623051D01*
X56246619Y-85619852D01*
X56246615Y-85619848D01*
X56126742Y-85525178D01*
X56090337Y-85496427D01*
X57102223Y-85496427D01*
X57108968Y-85508758D01*
X57848188Y-86247978D01*
X57862132Y-86255592D01*
X57863965Y-86255461D01*
X57870580Y-86251210D01*
X58614389Y-85507401D01*
X58621410Y-85494544D01*
X58614611Y-85485213D01*
X58610554Y-85482518D01*
X58424117Y-85379599D01*
X58414705Y-85375369D01*
X58213959Y-85304280D01*
X58203989Y-85301646D01*
X57994327Y-85264301D01*
X57984073Y-85263331D01*
X57771116Y-85260728D01*
X57760832Y-85261448D01*
X57550321Y-85293661D01*
X57540293Y-85296050D01*
X57337868Y-85362212D01*
X57328359Y-85366209D01*
X57139466Y-85464540D01*
X57130734Y-85470039D01*
X57110677Y-85485099D01*
X57102223Y-85496427D01*
X56090337Y-85496427D01*
X56086923Y-85493731D01*
X56045861Y-85435815D01*
X56042629Y-85364892D01*
X56078254Y-85303480D01*
X56125139Y-85275327D01*
X56144501Y-85268867D01*
X56151446Y-85266550D01*
X56187213Y-85244417D01*
X56295620Y-85177332D01*
X56301848Y-85173478D01*
X56426805Y-85048303D01*
X56519615Y-84897738D01*
X56575297Y-84729861D01*
X56576089Y-84722138D01*
X56585667Y-84628650D01*
X56586000Y-84625400D01*
X56586000Y-83849600D01*
X56580812Y-83799600D01*
X56575738Y-83750692D01*
X56575737Y-83750688D01*
X56575026Y-83743834D01*
X56519050Y-83576054D01*
X56425978Y-83425652D01*
X56300803Y-83300695D01*
X56296265Y-83297898D01*
X56255676Y-83240647D01*
X56252446Y-83169724D01*
X56288072Y-83108313D01*
X56296568Y-83100938D01*
X56306707Y-83092902D01*
X56421239Y-82978171D01*
X56430251Y-82966760D01*
X56515316Y-82828757D01*
X56521463Y-82815576D01*
X56572638Y-82661290D01*
X56575505Y-82647914D01*
X56585172Y-82553562D01*
X56585500Y-82547146D01*
X56585500Y-82434615D01*
X56581025Y-82419376D01*
X56579635Y-82418171D01*
X56571952Y-82416500D01*
X54137616Y-82416500D01*
X54122377Y-82420975D01*
X54121172Y-82422365D01*
X54119501Y-82430048D01*
X54119501Y-82547095D01*
X54119838Y-82553614D01*
X54129757Y-82649206D01*
X54132649Y-82662600D01*
X54184088Y-82816784D01*
X54190261Y-82829962D01*
X54275563Y-82967807D01*
X54284599Y-82979208D01*
X54399328Y-83093738D01*
X54408262Y-83100794D01*
X54449323Y-83158712D01*
X54452553Y-83229635D01*
X54416926Y-83291046D01*
X54409093Y-83297846D01*
X54403152Y-83301522D01*
X54278195Y-83426697D01*
X54274355Y-83432927D01*
X54274354Y-83432928D01*
X54216206Y-83527262D01*
X54185385Y-83577262D01*
X54129703Y-83745139D01*
X54119000Y-83849600D01*
X54119000Y-84625400D01*
X54119337Y-84628646D01*
X54119337Y-84628650D01*
X54129252Y-84724206D01*
X54129974Y-84731166D01*
X54132155Y-84737702D01*
X54132155Y-84737704D01*
X54176228Y-84869806D01*
X54185950Y-84898946D01*
X54279022Y-85049348D01*
X54404197Y-85174305D01*
X54410427Y-85178145D01*
X54410428Y-85178146D01*
X54517939Y-85244417D01*
X54554762Y-85267115D01*
X54555517Y-85267365D01*
X54606790Y-85312511D01*
X54626250Y-85380788D01*
X54605708Y-85448748D01*
X54575912Y-85480543D01*
X54415965Y-85600635D01*
X54261629Y-85762138D01*
X54154201Y-85919621D01*
X54099293Y-85964621D01*
X54028768Y-85972792D01*
X53965021Y-85941538D01*
X53944324Y-85917054D01*
X53863822Y-85792617D01*
X53863820Y-85792614D01*
X53861014Y-85788277D01*
X53710670Y-85623051D01*
X53706619Y-85619852D01*
X53706615Y-85619848D01*
X53539414Y-85487800D01*
X53539410Y-85487798D01*
X53535359Y-85484598D01*
X53528025Y-85480549D01*
X53471000Y-85449070D01*
X53339789Y-85376638D01*
X53334920Y-85374914D01*
X53334916Y-85374912D01*
X53134087Y-85303795D01*
X53134083Y-85303794D01*
X53129212Y-85302069D01*
X53124119Y-85301162D01*
X53124116Y-85301161D01*
X52914373Y-85263800D01*
X52914367Y-85263799D01*
X52909284Y-85262894D01*
X52835452Y-85261992D01*
X52691081Y-85260228D01*
X52691079Y-85260228D01*
X52685911Y-85260165D01*
X52465091Y-85293955D01*
X52252756Y-85363357D01*
X52054607Y-85466507D01*
X52050474Y-85469610D01*
X52050471Y-85469612D01*
X51930404Y-85559761D01*
X51875965Y-85600635D01*
X51721629Y-85762138D01*
X51614201Y-85919621D01*
X51559293Y-85964621D01*
X51488768Y-85972792D01*
X51425021Y-85941538D01*
X51404324Y-85917054D01*
X51323822Y-85792617D01*
X51323820Y-85792614D01*
X51321014Y-85788277D01*
X51170670Y-85623051D01*
X51166619Y-85619852D01*
X51166615Y-85619848D01*
X50999414Y-85487800D01*
X50999410Y-85487798D01*
X50995359Y-85484598D01*
X50988025Y-85480549D01*
X50931000Y-85449070D01*
X50799789Y-85376638D01*
X50794920Y-85374914D01*
X50794916Y-85374912D01*
X50691247Y-85338201D01*
X50633711Y-85296607D01*
X50607795Y-85230509D01*
X50621729Y-85160893D01*
X50644134Y-85130410D01*
X50721239Y-85053171D01*
X50730251Y-85041760D01*
X50815316Y-84903757D01*
X50821463Y-84890576D01*
X50872638Y-84736290D01*
X50875505Y-84722914D01*
X50885172Y-84628562D01*
X50885500Y-84622146D01*
X50885500Y-84509615D01*
X50881025Y-84494376D01*
X50879635Y-84493171D01*
X50871952Y-84491500D01*
X49524500Y-84491500D01*
X49456379Y-84471498D01*
X49409886Y-84417842D01*
X49398500Y-84365500D01*
X49398500Y-84109500D01*
X49418502Y-84041379D01*
X49472158Y-83994886D01*
X49524500Y-83983500D01*
X50867384Y-83983500D01*
X50882623Y-83979025D01*
X50883828Y-83977635D01*
X50885499Y-83969952D01*
X50885499Y-83852905D01*
X50885162Y-83846386D01*
X50875243Y-83750794D01*
X50872351Y-83737400D01*
X50820912Y-83583216D01*
X50814739Y-83570038D01*
X50729437Y-83432193D01*
X50720401Y-83420792D01*
X50605672Y-83306262D01*
X50596738Y-83299206D01*
X50555677Y-83241288D01*
X50552447Y-83170365D01*
X50588074Y-83108954D01*
X50595907Y-83102154D01*
X50601848Y-83098478D01*
X50726805Y-82973303D01*
X50819615Y-82822738D01*
X50875297Y-82654861D01*
X50886000Y-82550400D01*
X50886000Y-81890385D01*
X54119500Y-81890385D01*
X54123975Y-81905624D01*
X54125365Y-81906829D01*
X54133048Y-81908500D01*
X55080385Y-81908500D01*
X55095624Y-81904025D01*
X55096829Y-81902635D01*
X55098500Y-81894952D01*
X55098500Y-81890385D01*
X55606500Y-81890385D01*
X55610975Y-81905624D01*
X55612365Y-81906829D01*
X55620048Y-81908500D01*
X56567384Y-81908500D01*
X56582623Y-81904025D01*
X56583828Y-81902635D01*
X56585499Y-81894952D01*
X56585499Y-81890385D01*
X59119500Y-81890385D01*
X59123975Y-81905624D01*
X59125365Y-81906829D01*
X59133048Y-81908500D01*
X60080385Y-81908500D01*
X60095624Y-81904025D01*
X60096829Y-81902635D01*
X60098500Y-81894952D01*
X60098500Y-81890385D01*
X60606500Y-81890385D01*
X60610975Y-81905624D01*
X60612365Y-81906829D01*
X60620048Y-81908500D01*
X61567384Y-81908500D01*
X61582623Y-81904025D01*
X61583828Y-81902635D01*
X61585499Y-81894952D01*
X61585499Y-81777905D01*
X61585162Y-81771386D01*
X61575243Y-81675794D01*
X61572351Y-81662400D01*
X61520912Y-81508216D01*
X61514739Y-81495038D01*
X61429437Y-81357193D01*
X61420401Y-81345792D01*
X61305671Y-81231261D01*
X61294260Y-81222249D01*
X61156257Y-81137184D01*
X61143076Y-81131037D01*
X60988790Y-81079862D01*
X60975414Y-81076995D01*
X60881062Y-81067328D01*
X60874645Y-81067000D01*
X60624615Y-81067000D01*
X60609376Y-81071475D01*
X60608171Y-81072865D01*
X60606500Y-81080548D01*
X60606500Y-81890385D01*
X60098500Y-81890385D01*
X60098500Y-81085116D01*
X60094025Y-81069877D01*
X60092635Y-81068672D01*
X60084952Y-81067001D01*
X59830405Y-81067001D01*
X59823886Y-81067338D01*
X59728294Y-81077257D01*
X59714900Y-81080149D01*
X59560716Y-81131588D01*
X59547538Y-81137761D01*
X59409693Y-81223063D01*
X59398292Y-81232099D01*
X59283761Y-81346829D01*
X59274749Y-81358240D01*
X59189684Y-81496243D01*
X59183537Y-81509424D01*
X59132362Y-81663710D01*
X59129495Y-81677086D01*
X59119828Y-81771438D01*
X59119500Y-81777855D01*
X59119500Y-81890385D01*
X56585499Y-81890385D01*
X56585499Y-81777905D01*
X56585162Y-81771386D01*
X56575243Y-81675794D01*
X56572351Y-81662400D01*
X56520912Y-81508216D01*
X56514739Y-81495038D01*
X56429437Y-81357193D01*
X56420401Y-81345792D01*
X56305671Y-81231261D01*
X56294260Y-81222249D01*
X56156257Y-81137184D01*
X56143076Y-81131037D01*
X55988790Y-81079862D01*
X55975414Y-81076995D01*
X55881062Y-81067328D01*
X55874645Y-81067000D01*
X55624615Y-81067000D01*
X55609376Y-81071475D01*
X55608171Y-81072865D01*
X55606500Y-81080548D01*
X55606500Y-81890385D01*
X55098500Y-81890385D01*
X55098500Y-81085116D01*
X55094025Y-81069877D01*
X55092635Y-81068672D01*
X55084952Y-81067001D01*
X54830405Y-81067001D01*
X54823886Y-81067338D01*
X54728294Y-81077257D01*
X54714900Y-81080149D01*
X54560716Y-81131588D01*
X54547538Y-81137761D01*
X54409693Y-81223063D01*
X54398292Y-81232099D01*
X54283761Y-81346829D01*
X54274749Y-81358240D01*
X54189684Y-81496243D01*
X54183537Y-81509424D01*
X54132362Y-81663710D01*
X54129495Y-81677086D01*
X54119828Y-81771438D01*
X54119500Y-81777855D01*
X54119500Y-81890385D01*
X50886000Y-81890385D01*
X50886000Y-81774600D01*
X50885434Y-81769144D01*
X50875738Y-81675692D01*
X50875737Y-81675688D01*
X50875026Y-81668834D01*
X50856508Y-81613327D01*
X50821368Y-81508002D01*
X50819050Y-81501054D01*
X50725978Y-81350652D01*
X50600803Y-81225695D01*
X50562488Y-81202077D01*
X50456468Y-81136725D01*
X50456466Y-81136724D01*
X50450238Y-81132885D01*
X50345750Y-81098228D01*
X50288889Y-81079368D01*
X50288887Y-81079368D01*
X50282361Y-81077203D01*
X50275525Y-81076503D01*
X50275522Y-81076502D01*
X50232469Y-81072091D01*
X50177900Y-81066500D01*
X49127100Y-81066500D01*
X49123854Y-81066837D01*
X49123850Y-81066837D01*
X49028192Y-81076762D01*
X49028188Y-81076763D01*
X49021334Y-81077474D01*
X49014798Y-81079655D01*
X49014796Y-81079655D01*
X48894066Y-81119934D01*
X48853554Y-81133450D01*
X48703152Y-81226522D01*
X48699458Y-81230223D01*
X48634444Y-81256535D01*
X48564680Y-81243363D01*
X48555877Y-81238412D01*
X48431468Y-81161725D01*
X48431466Y-81161724D01*
X48425238Y-81157885D01*
X48278291Y-81109145D01*
X48263889Y-81104368D01*
X48263887Y-81104368D01*
X48257361Y-81102203D01*
X48250525Y-81101503D01*
X48250522Y-81101502D01*
X48207469Y-81097091D01*
X48152900Y-81091500D01*
X47152100Y-81091500D01*
X47148854Y-81091837D01*
X47148850Y-81091837D01*
X47053192Y-81101762D01*
X47053188Y-81101763D01*
X47046334Y-81102474D01*
X47039798Y-81104655D01*
X47039796Y-81104655D01*
X46942296Y-81137184D01*
X46878554Y-81158450D01*
X46728152Y-81251522D01*
X46728036Y-81251638D01*
X46664957Y-81277173D01*
X46595192Y-81264004D01*
X46578249Y-81253136D01*
X46575803Y-81250695D01*
X46440554Y-81167326D01*
X46431468Y-81161725D01*
X46431466Y-81161724D01*
X46425238Y-81157885D01*
X46397330Y-81148628D01*
X46338972Y-81108197D01*
X46311736Y-81042633D01*
X46311000Y-81029036D01*
X46311000Y-80972450D01*
X46331002Y-80904329D01*
X46347905Y-80883355D01*
X48549059Y-78682201D01*
X48611371Y-78648175D01*
X48682186Y-78653240D01*
X48689377Y-78656178D01*
X48717712Y-78668794D01*
X48759340Y-78677642D01*
X48898056Y-78707128D01*
X48898061Y-78707128D01*
X48904513Y-78708500D01*
X49095487Y-78708500D01*
X49101939Y-78707128D01*
X49101944Y-78707128D01*
X49219213Y-78682201D01*
X49282288Y-78668794D01*
X49297375Y-78662077D01*
X49450722Y-78593803D01*
X49450724Y-78593802D01*
X49456752Y-78591118D01*
X49483084Y-78571987D01*
X49512157Y-78550864D01*
X49611253Y-78478866D01*
X49615675Y-78473955D01*
X49734621Y-78341852D01*
X49734622Y-78341851D01*
X49739040Y-78336944D01*
X49834527Y-78171556D01*
X49893542Y-77989928D01*
X49913504Y-77800000D01*
X49893542Y-77610072D01*
X49834527Y-77428444D01*
X49739040Y-77263056D01*
X49697604Y-77217036D01*
X49615675Y-77126045D01*
X49615674Y-77126044D01*
X49611253Y-77121134D01*
X49456752Y-77008882D01*
X49450724Y-77006198D01*
X49450722Y-77006197D01*
X49288319Y-76933891D01*
X49288318Y-76933891D01*
X49282288Y-76931206D01*
X49188888Y-76911353D01*
X49101944Y-76892872D01*
X49101939Y-76892872D01*
X49095487Y-76891500D01*
X48904513Y-76891500D01*
X48898061Y-76892872D01*
X48898056Y-76892872D01*
X48811112Y-76911353D01*
X48717712Y-76931206D01*
X48711682Y-76933891D01*
X48711681Y-76933891D01*
X48549278Y-77006197D01*
X48549276Y-77006198D01*
X48543248Y-77008882D01*
X48388747Y-77121134D01*
X48384325Y-77126045D01*
X48379423Y-77130459D01*
X48377788Y-77128643D01*
X48334130Y-77155079D01*
X48334937Y-77157117D01*
X48291979Y-77174126D01*
X48280769Y-77177965D01*
X48236400Y-77190855D01*
X48217935Y-77201775D01*
X48200195Y-77210466D01*
X48180244Y-77218365D01*
X48145043Y-77243940D01*
X48142874Y-77245516D01*
X48132952Y-77252033D01*
X48100023Y-77271507D01*
X48100019Y-77271510D01*
X48093193Y-77275547D01*
X48078029Y-77290711D01*
X48062996Y-77303551D01*
X48045643Y-77316159D01*
X48016198Y-77351752D01*
X48008208Y-77360532D01*
X45244895Y-80123845D01*
X45236115Y-80131835D01*
X45236113Y-80131837D01*
X45229420Y-80136084D01*
X45223994Y-80141862D01*
X45223993Y-80141863D01*
X45180896Y-80187757D01*
X45178141Y-80190599D01*
X45157573Y-80211167D01*
X45154856Y-80214670D01*
X45147148Y-80223695D01*
X45115528Y-80257367D01*
X45111707Y-80264318D01*
X45111706Y-80264319D01*
X45105197Y-80276158D01*
X45094343Y-80292682D01*
X45086518Y-80302771D01*
X45081196Y-80309632D01*
X45078049Y-80316904D01*
X45078048Y-80316906D01*
X45062846Y-80352035D01*
X45057624Y-80362695D01*
X45035376Y-80403163D01*
X45030041Y-80423941D01*
X45023642Y-80442631D01*
X45015120Y-80462324D01*
X45013880Y-80470155D01*
X45007894Y-80507948D01*
X45005487Y-80519571D01*
X44994000Y-80564312D01*
X44994000Y-80585759D01*
X44992449Y-80605469D01*
X44989094Y-80626652D01*
X44989840Y-80634543D01*
X44993441Y-80672638D01*
X44994000Y-80684496D01*
X44994000Y-81029143D01*
X44973998Y-81097264D01*
X44920342Y-81143757D01*
X44907878Y-81148666D01*
X44885505Y-81156130D01*
X44885498Y-81156133D01*
X44878554Y-81158450D01*
X44759539Y-81232099D01*
X44749412Y-81238366D01*
X44680960Y-81257204D01*
X44613191Y-81236043D01*
X44605762Y-81230645D01*
X44600803Y-81225695D01*
X44576922Y-81210974D01*
X44456468Y-81136725D01*
X44456466Y-81136724D01*
X44450238Y-81132885D01*
X44345750Y-81098228D01*
X44288889Y-81079368D01*
X44288887Y-81079368D01*
X44282361Y-81077203D01*
X44275525Y-81076503D01*
X44275522Y-81076502D01*
X44232469Y-81072091D01*
X44177900Y-81066500D01*
X43127100Y-81066500D01*
X43123854Y-81066837D01*
X43123850Y-81066837D01*
X43028192Y-81076762D01*
X43028188Y-81076763D01*
X43021334Y-81077474D01*
X43014798Y-81079655D01*
X43014796Y-81079655D01*
X42894066Y-81119934D01*
X42853554Y-81133450D01*
X42703152Y-81226522D01*
X42578195Y-81351697D01*
X42485385Y-81502262D01*
X42429703Y-81670139D01*
X42419000Y-81774600D01*
X42419000Y-82550400D01*
X42419337Y-82553646D01*
X42419337Y-82553650D01*
X42429252Y-82649206D01*
X42429974Y-82656166D01*
X42485950Y-82823946D01*
X42579022Y-82974348D01*
X42704197Y-83099305D01*
X42708735Y-83102102D01*
X42749324Y-83159353D01*
X42752554Y-83230276D01*
X42716928Y-83291687D01*
X42708432Y-83299062D01*
X42698293Y-83307098D01*
X42583761Y-83421829D01*
X42574749Y-83433240D01*
X42489684Y-83571243D01*
X42483537Y-83584424D01*
X42432362Y-83738710D01*
X42429495Y-83752086D01*
X42419828Y-83846438D01*
X42419500Y-83852855D01*
X42419500Y-83965385D01*
X42423975Y-83980624D01*
X42425365Y-83981829D01*
X42433048Y-83983500D01*
X43780500Y-83983500D01*
X43848621Y-84003502D01*
X43895114Y-84057158D01*
X43906500Y-84109500D01*
X43906500Y-85314884D01*
X43910975Y-85330123D01*
X43912365Y-85331328D01*
X43920048Y-85332999D01*
X44174595Y-85332999D01*
X44181112Y-85332662D01*
X44229827Y-85327607D01*
X44299648Y-85340472D01*
X44351431Y-85389042D01*
X44368733Y-85457898D01*
X44346063Y-85525178D01*
X44318484Y-85553694D01*
X44310404Y-85559761D01*
X44255965Y-85600635D01*
X44101629Y-85762138D01*
X44098720Y-85766403D01*
X44098714Y-85766411D01*
X44003149Y-85906504D01*
X43948238Y-85951507D01*
X43899061Y-85961500D01*
X40184949Y-85961500D01*
X40116828Y-85941498D01*
X40095854Y-85924595D01*
X38793355Y-84622095D01*
X42419501Y-84622095D01*
X42419838Y-84628614D01*
X42429757Y-84724206D01*
X42432649Y-84737600D01*
X42484088Y-84891784D01*
X42490261Y-84904962D01*
X42575563Y-85042807D01*
X42584599Y-85054208D01*
X42699329Y-85168739D01*
X42710740Y-85177751D01*
X42848743Y-85262816D01*
X42861924Y-85268963D01*
X43016210Y-85320138D01*
X43029586Y-85323005D01*
X43123938Y-85332672D01*
X43130354Y-85333000D01*
X43380385Y-85333000D01*
X43395624Y-85328525D01*
X43396829Y-85327135D01*
X43398500Y-85319452D01*
X43398500Y-84509615D01*
X43394025Y-84494376D01*
X43392635Y-84493171D01*
X43384952Y-84491500D01*
X42437616Y-84491500D01*
X42422377Y-84495975D01*
X42421172Y-84497365D01*
X42419501Y-84505048D01*
X42419501Y-84622095D01*
X38793355Y-84622095D01*
X37654796Y-83483536D01*
X37620770Y-83421224D01*
X37623333Y-83357813D01*
X37632370Y-83328069D01*
X37661529Y-83106590D01*
X37661611Y-83103240D01*
X37663074Y-83043365D01*
X37663074Y-83043361D01*
X37663156Y-83040000D01*
X37644852Y-82817361D01*
X37590431Y-82600702D01*
X37501354Y-82395840D01*
X37380014Y-82208277D01*
X37229670Y-82043051D01*
X37225619Y-82039852D01*
X37225615Y-82039848D01*
X37058414Y-81907800D01*
X37058410Y-81907798D01*
X37054359Y-81904598D01*
X37013053Y-81881796D01*
X36963084Y-81831364D01*
X36948312Y-81761921D01*
X36973428Y-81695516D01*
X37000780Y-81668909D01*
X37058207Y-81627947D01*
X37179860Y-81541173D01*
X37207798Y-81513333D01*
X37334435Y-81387137D01*
X37338096Y-81383489D01*
X37356992Y-81357193D01*
X37462060Y-81210974D01*
X37518055Y-81167326D01*
X37564383Y-81158500D01*
X41038944Y-81158500D01*
X41050800Y-81159059D01*
X41050803Y-81159059D01*
X41058537Y-81160788D01*
X41129369Y-81158562D01*
X41133327Y-81158500D01*
X41162432Y-81158500D01*
X41166832Y-81157944D01*
X41178664Y-81157012D01*
X41224831Y-81155562D01*
X41245421Y-81149580D01*
X41264782Y-81145570D01*
X41271770Y-81144688D01*
X41278204Y-81143875D01*
X41278205Y-81143875D01*
X41286064Y-81142882D01*
X41293429Y-81139966D01*
X41293433Y-81139965D01*
X41329021Y-81125874D01*
X41340231Y-81122035D01*
X41384600Y-81109145D01*
X41403065Y-81098225D01*
X41420805Y-81089534D01*
X41440756Y-81081635D01*
X41478129Y-81054482D01*
X41488048Y-81047967D01*
X41520977Y-81028493D01*
X41520981Y-81028490D01*
X41527807Y-81024453D01*
X41542971Y-81009289D01*
X41558005Y-80996448D01*
X41568943Y-80988501D01*
X41575357Y-80983841D01*
X41604803Y-80948247D01*
X41612792Y-80939468D01*
X49814928Y-72737332D01*
X49877240Y-72703306D01*
X49929140Y-72702956D01*
X50079597Y-72733567D01*
X50084772Y-72733757D01*
X50084774Y-72733757D01*
X50297673Y-72741564D01*
X50297677Y-72741564D01*
X50302837Y-72741753D01*
X50307957Y-72741097D01*
X50307959Y-72741097D01*
X50519288Y-72714025D01*
X50519289Y-72714025D01*
X50524416Y-72713368D01*
X50529373Y-72711881D01*
X50529377Y-72711880D01*
X50619803Y-72684751D01*
X50690798Y-72684333D01*
X50750749Y-72722365D01*
X50780621Y-72786772D01*
X50782011Y-72805436D01*
X50782011Y-77858455D01*
X50781452Y-77870311D01*
X50779723Y-77878048D01*
X50779972Y-77885970D01*
X50781949Y-77948880D01*
X50782011Y-77952838D01*
X50782011Y-77981943D01*
X50782567Y-77986343D01*
X50783499Y-77998175D01*
X50784949Y-78044342D01*
X50787161Y-78051955D01*
X50787161Y-78051956D01*
X50790930Y-78064927D01*
X50794941Y-78084293D01*
X50797629Y-78105575D01*
X50800545Y-78112940D01*
X50800546Y-78112944D01*
X50814637Y-78148532D01*
X50818476Y-78159742D01*
X50831366Y-78204111D01*
X50842286Y-78222576D01*
X50850977Y-78240316D01*
X50858876Y-78260267D01*
X50886027Y-78297637D01*
X50892544Y-78307559D01*
X50912018Y-78340488D01*
X50912021Y-78340492D01*
X50916058Y-78347318D01*
X50931222Y-78362482D01*
X50944062Y-78377515D01*
X50956670Y-78394868D01*
X50992263Y-78424313D01*
X51001043Y-78432303D01*
X52226834Y-79658094D01*
X52234824Y-79666874D01*
X52239073Y-79673569D01*
X52244851Y-79678995D01*
X52244852Y-79678996D01*
X52290746Y-79722093D01*
X52293588Y-79724848D01*
X52314156Y-79745416D01*
X52317659Y-79748133D01*
X52326684Y-79755841D01*
X52360356Y-79787461D01*
X52367307Y-79791282D01*
X52367308Y-79791283D01*
X52379147Y-79797792D01*
X52395671Y-79808646D01*
X52405760Y-79816471D01*
X52412621Y-79821793D01*
X52419893Y-79824940D01*
X52419895Y-79824941D01*
X52455024Y-79840143D01*
X52465684Y-79845365D01*
X52495657Y-79861843D01*
X52506152Y-79867613D01*
X52526930Y-79872948D01*
X52545620Y-79879347D01*
X52565313Y-79887869D01*
X52600052Y-79893371D01*
X52610937Y-79895095D01*
X52622560Y-79897502D01*
X52647243Y-79903839D01*
X52667301Y-79908989D01*
X52688748Y-79908989D01*
X52708458Y-79910540D01*
X52729641Y-79913895D01*
X52775630Y-79909548D01*
X52787485Y-79908989D01*
X58967455Y-79908989D01*
X58979311Y-79909548D01*
X58979314Y-79909548D01*
X58987048Y-79911277D01*
X59057880Y-79909051D01*
X59061838Y-79908989D01*
X59090943Y-79908989D01*
X59095343Y-79908433D01*
X59107175Y-79907501D01*
X59153342Y-79906051D01*
X59173932Y-79900069D01*
X59193293Y-79896059D01*
X59200927Y-79895095D01*
X59206715Y-79894364D01*
X59206716Y-79894364D01*
X59214575Y-79893371D01*
X59221940Y-79890455D01*
X59221944Y-79890454D01*
X59257532Y-79876363D01*
X59268742Y-79872524D01*
X59313111Y-79859634D01*
X59331576Y-79848714D01*
X59349316Y-79840023D01*
X59369267Y-79832124D01*
X59406640Y-79804971D01*
X59416559Y-79798456D01*
X59449488Y-79778982D01*
X59449492Y-79778979D01*
X59456318Y-79774942D01*
X59471482Y-79759778D01*
X59486516Y-79746937D01*
X59503868Y-79734330D01*
X59533314Y-79698736D01*
X59541303Y-79689957D01*
X62007605Y-77223655D01*
X62016385Y-77215665D01*
X62016387Y-77215663D01*
X62023080Y-77211416D01*
X62071605Y-77159742D01*
X62074359Y-77156901D01*
X62094927Y-77136333D01*
X62097647Y-77132826D01*
X62105353Y-77123804D01*
X62111507Y-77117251D01*
X62136972Y-77090133D01*
X62140794Y-77083181D01*
X62147303Y-77071342D01*
X62158157Y-77054818D01*
X62166443Y-77044135D01*
X62166444Y-77044134D01*
X62171304Y-77037868D01*
X62189654Y-76995464D01*
X62194869Y-76984819D01*
X62217124Y-76944337D01*
X62219094Y-76936663D01*
X62219097Y-76936656D01*
X62222455Y-76923574D01*
X62228861Y-76904862D01*
X62234233Y-76892448D01*
X62237380Y-76885177D01*
X62240922Y-76862816D01*
X62244607Y-76839544D01*
X62247012Y-76827930D01*
X62258500Y-76783188D01*
X62258500Y-76761742D01*
X62260051Y-76742032D01*
X62262166Y-76728678D01*
X62262166Y-76728677D01*
X62263406Y-76720848D01*
X62259059Y-76674859D01*
X62258500Y-76663004D01*
X62258500Y-75092056D01*
X62259059Y-75080200D01*
X62259059Y-75080197D01*
X62260788Y-75072463D01*
X62258562Y-75001631D01*
X62258500Y-74997673D01*
X62258500Y-74968568D01*
X62257944Y-74964168D01*
X62257012Y-74952330D01*
X62256659Y-74941075D01*
X62255562Y-74906169D01*
X62249580Y-74885579D01*
X62245570Y-74866216D01*
X62243875Y-74852796D01*
X62243875Y-74852795D01*
X62242882Y-74844936D01*
X62239966Y-74837571D01*
X62239965Y-74837567D01*
X62225876Y-74801982D01*
X62222031Y-74790753D01*
X62212908Y-74759353D01*
X62209145Y-74746399D01*
X62198230Y-74727943D01*
X62189531Y-74710187D01*
X62187422Y-74704861D01*
X62181635Y-74690244D01*
X62154480Y-74652868D01*
X62147965Y-74642949D01*
X62128492Y-74610023D01*
X62128489Y-74610019D01*
X62124452Y-74603193D01*
X62109291Y-74588032D01*
X62096449Y-74572997D01*
X62083841Y-74555643D01*
X62048242Y-74526193D01*
X62039463Y-74518204D01*
X61622905Y-74101646D01*
X61588879Y-74039334D01*
X61586000Y-74012551D01*
X61586000Y-73374600D01*
X61575026Y-73268834D01*
X61546017Y-73181882D01*
X61521368Y-73108002D01*
X61519050Y-73101054D01*
X61425978Y-72950652D01*
X61387538Y-72912279D01*
X61353459Y-72849997D01*
X61358462Y-72779177D01*
X61400959Y-72722304D01*
X61432327Y-72705124D01*
X61432821Y-72704939D01*
X61484480Y-72685573D01*
X61489295Y-72683768D01*
X61489296Y-72683767D01*
X61497705Y-72680615D01*
X61614261Y-72593261D01*
X61701615Y-72476705D01*
X61752745Y-72340316D01*
X61759500Y-72278134D01*
X61759500Y-70481866D01*
X61752745Y-70419684D01*
X61701615Y-70283295D01*
X61614261Y-70166739D01*
X61497705Y-70079385D01*
X61361316Y-70028255D01*
X61299134Y-70021500D01*
X59502866Y-70021500D01*
X59440684Y-70028255D01*
X59304295Y-70079385D01*
X59187739Y-70166739D01*
X59100385Y-70283295D01*
X59097233Y-70291703D01*
X59055919Y-70401907D01*
X59013277Y-70458671D01*
X58946716Y-70483371D01*
X58877367Y-70468163D01*
X58844743Y-70442476D01*
X58794151Y-70386875D01*
X58794142Y-70386866D01*
X58790670Y-70383051D01*
X58786619Y-70379852D01*
X58786615Y-70379848D01*
X58619414Y-70247800D01*
X58619410Y-70247798D01*
X58615359Y-70244598D01*
X58419789Y-70136638D01*
X58414920Y-70134914D01*
X58414916Y-70134912D01*
X58214087Y-70063795D01*
X58214083Y-70063794D01*
X58209212Y-70062069D01*
X58204119Y-70061162D01*
X58204116Y-70061161D01*
X57994373Y-70023800D01*
X57994367Y-70023799D01*
X57989284Y-70022894D01*
X57967183Y-70022624D01*
X57912940Y-70021961D01*
X57845069Y-70001128D01*
X57799235Y-69946908D01*
X57789991Y-69876516D01*
X57820271Y-69812300D01*
X57825385Y-69806875D01*
X59686855Y-67945405D01*
X59749167Y-67911379D01*
X59775950Y-67908500D01*
X60200634Y-67908500D01*
X60262816Y-67901745D01*
X60399205Y-67850615D01*
X60515761Y-67763261D01*
X60603115Y-67646705D01*
X60654245Y-67510316D01*
X60661000Y-67448134D01*
X60661000Y-66824950D01*
X60681002Y-66756829D01*
X60697905Y-66735855D01*
X62907600Y-64526159D01*
X62916381Y-64518169D01*
X62916390Y-64518161D01*
X62923080Y-64513916D01*
X62971621Y-64462225D01*
X62974375Y-64459384D01*
X62976405Y-64457354D01*
X63038717Y-64423328D01*
X63109532Y-64428393D01*
G37*
G04 #@! TD.AperFunction*
G04 #@! TA.AperFunction,Conductor*
G36*
X59133047Y-75583500D02*
G01*
X60480500Y-75583500D01*
X60548621Y-75603502D01*
X60595114Y-75657158D01*
X60606500Y-75709500D01*
X60606500Y-75965500D01*
X60586498Y-76033621D01*
X60532842Y-76080114D01*
X60480500Y-76091500D01*
X59119501Y-76091500D01*
X59119501Y-76091396D01*
X59078246Y-76092869D01*
X59071953Y-76091500D01*
X58124615Y-76091500D01*
X58109376Y-76095975D01*
X58108171Y-76097365D01*
X58106500Y-76105048D01*
X58106500Y-76914884D01*
X58110975Y-76930123D01*
X58112365Y-76931328D01*
X58120048Y-76932999D01*
X58374595Y-76932999D01*
X58381114Y-76932662D01*
X58476706Y-76922743D01*
X58490100Y-76919851D01*
X58644284Y-76868412D01*
X58657462Y-76862239D01*
X58795307Y-76776937D01*
X58806708Y-76767901D01*
X58921239Y-76653171D01*
X58930251Y-76641760D01*
X58995196Y-76536399D01*
X59047968Y-76488906D01*
X59118040Y-76477482D01*
X59183163Y-76505756D01*
X59209600Y-76536212D01*
X59275563Y-76642807D01*
X59284599Y-76654208D01*
X59399329Y-76768739D01*
X59410740Y-76777751D01*
X59548743Y-76862816D01*
X59561924Y-76868963D01*
X59716210Y-76920138D01*
X59729586Y-76923005D01*
X59823938Y-76932672D01*
X59830354Y-76933000D01*
X60131551Y-76932999D01*
X60199671Y-76953001D01*
X60246164Y-77006656D01*
X60256269Y-77076930D01*
X60226776Y-77141511D01*
X60220646Y-77148094D01*
X58813656Y-78555084D01*
X58751344Y-78589110D01*
X58724561Y-78591989D01*
X53075439Y-78591989D01*
X53007318Y-78571987D01*
X52986344Y-78555084D01*
X52135916Y-77704656D01*
X52101890Y-77642344D01*
X52099011Y-77615561D01*
X52099011Y-77058891D01*
X52119013Y-76990770D01*
X52172669Y-76944277D01*
X52227137Y-76933882D01*
X52227137Y-76933000D01*
X52480385Y-76933000D01*
X52495624Y-76928525D01*
X52496829Y-76927135D01*
X52498500Y-76919452D01*
X52498500Y-75709500D01*
X52518502Y-75641379D01*
X52572158Y-75594886D01*
X52624500Y-75583500D01*
X52880500Y-75583500D01*
X52948621Y-75603502D01*
X52995114Y-75657158D01*
X53006500Y-75709500D01*
X53006500Y-76914884D01*
X53010975Y-76930123D01*
X53012365Y-76931328D01*
X53020048Y-76932999D01*
X53274595Y-76932999D01*
X53281114Y-76932662D01*
X53376706Y-76922743D01*
X53390100Y-76919851D01*
X53544284Y-76868412D01*
X53557462Y-76862239D01*
X53695307Y-76776937D01*
X53706708Y-76767901D01*
X53821239Y-76653171D01*
X53830251Y-76641760D01*
X53915316Y-76503757D01*
X53921464Y-76490574D01*
X53932947Y-76455953D01*
X53973377Y-76397593D01*
X54038941Y-76370356D01*
X54108823Y-76382889D01*
X54160835Y-76431214D01*
X54172064Y-76455744D01*
X54184088Y-76491784D01*
X54190261Y-76504962D01*
X54275563Y-76642807D01*
X54284599Y-76654208D01*
X54399329Y-76768739D01*
X54410740Y-76777751D01*
X54548743Y-76862816D01*
X54561924Y-76868963D01*
X54716210Y-76920138D01*
X54729586Y-76923005D01*
X54823938Y-76932672D01*
X54830354Y-76933000D01*
X55080385Y-76933000D01*
X55095624Y-76928525D01*
X55096829Y-76927135D01*
X55098500Y-76919452D01*
X55098500Y-76914884D01*
X55606500Y-76914884D01*
X55610975Y-76930123D01*
X55612365Y-76931328D01*
X55620048Y-76932999D01*
X55874595Y-76932999D01*
X55881114Y-76932662D01*
X55976706Y-76922743D01*
X55990100Y-76919851D01*
X56144284Y-76868412D01*
X56157462Y-76862239D01*
X56295307Y-76776937D01*
X56306708Y-76767901D01*
X56421239Y-76653171D01*
X56430251Y-76641760D01*
X56495196Y-76536399D01*
X56547968Y-76488906D01*
X56618040Y-76477482D01*
X56683163Y-76505756D01*
X56709600Y-76536212D01*
X56775563Y-76642807D01*
X56784599Y-76654208D01*
X56899329Y-76768739D01*
X56910740Y-76777751D01*
X57048743Y-76862816D01*
X57061924Y-76868963D01*
X57216210Y-76920138D01*
X57229586Y-76923005D01*
X57323938Y-76932672D01*
X57330354Y-76933000D01*
X57580385Y-76933000D01*
X57595624Y-76928525D01*
X57596829Y-76927135D01*
X57598500Y-76919452D01*
X57598500Y-76109615D01*
X57594025Y-76094376D01*
X57592635Y-76093171D01*
X57584952Y-76091500D01*
X56619501Y-76091500D01*
X56619501Y-76091396D01*
X56578246Y-76092869D01*
X56571953Y-76091500D01*
X55624615Y-76091500D01*
X55609376Y-76095975D01*
X55608171Y-76097365D01*
X55606500Y-76105048D01*
X55606500Y-76914884D01*
X55098500Y-76914884D01*
X55098500Y-75709500D01*
X55118502Y-75641379D01*
X55172158Y-75594886D01*
X55224500Y-75583500D01*
X56585499Y-75583500D01*
X56585499Y-75583604D01*
X56626754Y-75582131D01*
X56633047Y-75583500D01*
X59085499Y-75583500D01*
X59085499Y-75583604D01*
X59126754Y-75582131D01*
X59133047Y-75583500D01*
G37*
G04 #@! TD.AperFunction*
G04 #@! TA.AperFunction,Conductor*
G36*
X48543171Y-68778502D02*
G01*
X48564145Y-68795405D01*
X49709189Y-69940449D01*
X49743215Y-70002761D01*
X49738150Y-70073576D01*
X49695603Y-70130412D01*
X49678278Y-70141305D01*
X49514607Y-70226507D01*
X49510474Y-70229610D01*
X49510471Y-70229612D01*
X49402287Y-70310839D01*
X49335965Y-70360635D01*
X49296525Y-70401907D01*
X49242280Y-70458671D01*
X49181629Y-70522138D01*
X49074201Y-70679621D01*
X49019293Y-70724621D01*
X48948768Y-70732792D01*
X48885021Y-70701538D01*
X48864324Y-70677054D01*
X48783822Y-70552617D01*
X48783820Y-70552614D01*
X48781014Y-70548277D01*
X48630670Y-70383051D01*
X48626619Y-70379852D01*
X48626615Y-70379848D01*
X48459414Y-70247800D01*
X48459410Y-70247798D01*
X48455359Y-70244598D01*
X48259789Y-70136638D01*
X48254920Y-70134914D01*
X48254916Y-70134912D01*
X48054087Y-70063795D01*
X48054083Y-70063794D01*
X48049212Y-70062069D01*
X48044119Y-70061162D01*
X48044116Y-70061161D01*
X47834373Y-70023800D01*
X47834367Y-70023799D01*
X47829284Y-70022894D01*
X47755452Y-70021992D01*
X47611081Y-70020228D01*
X47611079Y-70020228D01*
X47605911Y-70020165D01*
X47385091Y-70053955D01*
X47172756Y-70123357D01*
X47099757Y-70161358D01*
X46984487Y-70221364D01*
X46974607Y-70226507D01*
X46970474Y-70229610D01*
X46970471Y-70229612D01*
X46862287Y-70310839D01*
X46795965Y-70360635D01*
X46756525Y-70401907D01*
X46702280Y-70458671D01*
X46641629Y-70522138D01*
X46534201Y-70679621D01*
X46479293Y-70724621D01*
X46408768Y-70732792D01*
X46345021Y-70701538D01*
X46324324Y-70677054D01*
X46243822Y-70552617D01*
X46243820Y-70552614D01*
X46241014Y-70548277D01*
X46090670Y-70383051D01*
X46086619Y-70379852D01*
X46086615Y-70379848D01*
X45919414Y-70247800D01*
X45919410Y-70247798D01*
X45915359Y-70244598D01*
X45719789Y-70136638D01*
X45714920Y-70134914D01*
X45714916Y-70134912D01*
X45514087Y-70063795D01*
X45514083Y-70063794D01*
X45509212Y-70062069D01*
X45504119Y-70061162D01*
X45504116Y-70061161D01*
X45294373Y-70023800D01*
X45294367Y-70023799D01*
X45289284Y-70022894D01*
X45215452Y-70021992D01*
X45071081Y-70020228D01*
X45071079Y-70020228D01*
X45065911Y-70020165D01*
X44845091Y-70053955D01*
X44632756Y-70123357D01*
X44559757Y-70161358D01*
X44444487Y-70221364D01*
X44434607Y-70226507D01*
X44430474Y-70229610D01*
X44430471Y-70229612D01*
X44322287Y-70310839D01*
X44255965Y-70360635D01*
X44216525Y-70401907D01*
X44162280Y-70458671D01*
X44101629Y-70522138D01*
X43975743Y-70706680D01*
X43940004Y-70783674D01*
X43888945Y-70893672D01*
X43881688Y-70909305D01*
X43821989Y-71124570D01*
X43798251Y-71346695D01*
X43798548Y-71351848D01*
X43798548Y-71351851D01*
X43809138Y-71535516D01*
X43811110Y-71569715D01*
X43812247Y-71574761D01*
X43812248Y-71574767D01*
X43823199Y-71623357D01*
X43860222Y-71787639D01*
X43900103Y-71885855D01*
X43936281Y-71974950D01*
X43944266Y-71994616D01*
X43981685Y-72055678D01*
X44058291Y-72180688D01*
X44060987Y-72185088D01*
X44207250Y-72353938D01*
X44379126Y-72496632D01*
X44383583Y-72499236D01*
X44383588Y-72499240D01*
X44440070Y-72532245D01*
X44488794Y-72583883D01*
X44502500Y-72641033D01*
X44502500Y-74714050D01*
X44482498Y-74782171D01*
X44465595Y-74803145D01*
X42004145Y-77264595D01*
X41941833Y-77298621D01*
X41915050Y-77301500D01*
X37560632Y-77301500D01*
X37492511Y-77281498D01*
X37454840Y-77243940D01*
X37382822Y-77132617D01*
X37382820Y-77132614D01*
X37380014Y-77128277D01*
X37229670Y-76963051D01*
X37225619Y-76959852D01*
X37225615Y-76959848D01*
X37058414Y-76827800D01*
X37058410Y-76827798D01*
X37054359Y-76824598D01*
X37012569Y-76801529D01*
X36962598Y-76751097D01*
X36947826Y-76681654D01*
X36972942Y-76615248D01*
X37000294Y-76588641D01*
X37175328Y-76463792D01*
X37183200Y-76457139D01*
X37334052Y-76306812D01*
X37340730Y-76298965D01*
X37465003Y-76126020D01*
X37470313Y-76117183D01*
X37564670Y-75926267D01*
X37568469Y-75916672D01*
X37630377Y-75712910D01*
X37632555Y-75702837D01*
X37633986Y-75691962D01*
X37631775Y-75677778D01*
X37618617Y-75674000D01*
X36172000Y-75674000D01*
X36103879Y-75653998D01*
X36057386Y-75600342D01*
X36046000Y-75548000D01*
X36046000Y-75292000D01*
X36066002Y-75223879D01*
X36119658Y-75177386D01*
X36172000Y-75166000D01*
X37618344Y-75166000D01*
X37653247Y-75155751D01*
X37679887Y-75138631D01*
X37750883Y-75138631D01*
X37781502Y-75152267D01*
X37920090Y-75237694D01*
X37927262Y-75242115D01*
X38007005Y-75268564D01*
X38088611Y-75295632D01*
X38088613Y-75295632D01*
X38095139Y-75297797D01*
X38101975Y-75298497D01*
X38101978Y-75298498D01*
X38138844Y-75302275D01*
X38199600Y-75308500D01*
X39000400Y-75308500D01*
X39003646Y-75308163D01*
X39003650Y-75308163D01*
X39099308Y-75298238D01*
X39099312Y-75298237D01*
X39106166Y-75297526D01*
X39112702Y-75295345D01*
X39112704Y-75295345D01*
X39244806Y-75251272D01*
X39273946Y-75241550D01*
X39424348Y-75148478D01*
X39510784Y-75061891D01*
X39573066Y-75027812D01*
X39643886Y-75032815D01*
X39688976Y-75061736D01*
X39776697Y-75149305D01*
X39782927Y-75153145D01*
X39782928Y-75153146D01*
X39920090Y-75237694D01*
X39927262Y-75242115D01*
X40007005Y-75268564D01*
X40088611Y-75295632D01*
X40088613Y-75295632D01*
X40095139Y-75297797D01*
X40101975Y-75298497D01*
X40101978Y-75298498D01*
X40138844Y-75302275D01*
X40199600Y-75308500D01*
X41000400Y-75308500D01*
X41003646Y-75308163D01*
X41003650Y-75308163D01*
X41099308Y-75298238D01*
X41099312Y-75298237D01*
X41106166Y-75297526D01*
X41112702Y-75295345D01*
X41112704Y-75295345D01*
X41244806Y-75251272D01*
X41273946Y-75241550D01*
X41424348Y-75148478D01*
X41549305Y-75023303D01*
X41585457Y-74964654D01*
X41638275Y-74878968D01*
X41638276Y-74878966D01*
X41642115Y-74872738D01*
X41697797Y-74704861D01*
X41698897Y-74694131D01*
X41708172Y-74603598D01*
X41708500Y-74600400D01*
X41708500Y-73599600D01*
X41697526Y-73493834D01*
X41641550Y-73326054D01*
X41548478Y-73175652D01*
X41548362Y-73175536D01*
X41522827Y-73112457D01*
X41535996Y-73042692D01*
X41546864Y-73025749D01*
X41549305Y-73023303D01*
X41597277Y-72945479D01*
X41638275Y-72878968D01*
X41638276Y-72878966D01*
X41642115Y-72872738D01*
X41668564Y-72792995D01*
X41695632Y-72711389D01*
X41695632Y-72711387D01*
X41697797Y-72704861D01*
X41699314Y-72690062D01*
X41704337Y-72641033D01*
X41708500Y-72600400D01*
X41708500Y-71974950D01*
X41728502Y-71906829D01*
X41745405Y-71885855D01*
X43172589Y-70458671D01*
X44618848Y-69012411D01*
X44681160Y-68978385D01*
X44751975Y-68983450D01*
X44808769Y-69025941D01*
X44831357Y-69056080D01*
X44836739Y-69063261D01*
X44953295Y-69150615D01*
X45089684Y-69201745D01*
X45151866Y-69208500D01*
X46148134Y-69208500D01*
X46210316Y-69201745D01*
X46346705Y-69150615D01*
X46463261Y-69063261D01*
X46550615Y-68946705D01*
X46590516Y-68840270D01*
X46633158Y-68783506D01*
X46699719Y-68758806D01*
X46708498Y-68758500D01*
X48475050Y-68758500D01*
X48543171Y-68778502D01*
G37*
G04 #@! TD.AperFunction*
G04 #@! TA.AperFunction,Conductor*
G36*
X43279606Y-66668112D02*
G01*
X43308378Y-66689638D01*
X44104646Y-67485906D01*
X44138672Y-67548218D01*
X44133607Y-67619033D01*
X44104650Y-67664091D01*
X43441897Y-68326843D01*
X43379588Y-68360867D01*
X43326024Y-68360867D01*
X43294455Y-68354000D01*
X42622115Y-68354000D01*
X42606876Y-68358475D01*
X42605671Y-68359865D01*
X42604000Y-68367548D01*
X42604000Y-69112551D01*
X42583998Y-69180672D01*
X42567097Y-69201644D01*
X41740485Y-70028255D01*
X40914145Y-70854595D01*
X40851833Y-70888621D01*
X40825050Y-70891500D01*
X40199600Y-70891500D01*
X40196354Y-70891837D01*
X40196350Y-70891837D01*
X40100692Y-70901762D01*
X40100688Y-70901763D01*
X40093834Y-70902474D01*
X40087298Y-70904655D01*
X40087296Y-70904655D01*
X40001794Y-70933181D01*
X39926054Y-70958450D01*
X39775652Y-71051522D01*
X39770479Y-71056704D01*
X39688862Y-71138463D01*
X39626579Y-71172542D01*
X39555759Y-71167539D01*
X39510671Y-71138618D01*
X39428171Y-71056261D01*
X39416760Y-71047249D01*
X39278757Y-70962184D01*
X39265576Y-70956037D01*
X39111290Y-70904862D01*
X39097914Y-70901995D01*
X39003562Y-70892328D01*
X38997145Y-70892000D01*
X38872115Y-70892000D01*
X38856876Y-70896475D01*
X38855671Y-70897865D01*
X38854000Y-70905548D01*
X38854000Y-72228000D01*
X38833998Y-72296121D01*
X38780342Y-72342614D01*
X38728000Y-72354000D01*
X38472000Y-72354000D01*
X38403879Y-72333998D01*
X38357386Y-72280342D01*
X38346000Y-72228000D01*
X38346000Y-70910116D01*
X38341525Y-70894877D01*
X38340135Y-70893672D01*
X38335890Y-70892749D01*
X38273577Y-70858725D01*
X38239551Y-70796414D01*
X38244614Y-70725598D01*
X38273576Y-70680533D01*
X39929597Y-69024512D01*
X39991909Y-68990486D01*
X40058358Y-68994014D01*
X40138608Y-69020631D01*
X40138610Y-69020631D01*
X40145139Y-69022797D01*
X40151975Y-69023497D01*
X40151978Y-69023498D01*
X40195031Y-69027909D01*
X40249600Y-69033500D01*
X41025400Y-69033500D01*
X41028646Y-69033163D01*
X41028650Y-69033163D01*
X41124308Y-69023238D01*
X41124312Y-69023237D01*
X41131166Y-69022526D01*
X41137702Y-69020345D01*
X41137704Y-69020345D01*
X41291998Y-68968868D01*
X41298946Y-68966550D01*
X41306019Y-68962173D01*
X41314302Y-68957048D01*
X41382754Y-68938211D01*
X41450523Y-68959373D01*
X41481429Y-68988628D01*
X41531714Y-69055723D01*
X41544276Y-69068285D01*
X41646351Y-69144786D01*
X41661946Y-69153324D01*
X41782394Y-69198478D01*
X41797649Y-69202105D01*
X41848514Y-69207631D01*
X41855328Y-69208000D01*
X42077885Y-69208000D01*
X42093124Y-69203525D01*
X42094329Y-69202135D01*
X42096000Y-69194452D01*
X42096000Y-67972000D01*
X42116002Y-67903879D01*
X42169658Y-67857386D01*
X42222000Y-67846000D01*
X43289884Y-67846000D01*
X43305123Y-67841525D01*
X43306328Y-67840135D01*
X43307999Y-67832452D01*
X43307999Y-67455331D01*
X43307629Y-67448510D01*
X43302105Y-67397648D01*
X43298479Y-67382396D01*
X43253324Y-67261946D01*
X43244786Y-67246351D01*
X43168285Y-67144276D01*
X43155724Y-67131715D01*
X43053649Y-67055214D01*
X43038054Y-67046676D01*
X42962226Y-67018249D01*
X42905462Y-66975607D01*
X42880762Y-66909046D01*
X42895970Y-66839697D01*
X42946256Y-66789579D01*
X42962226Y-66782285D01*
X43038297Y-66753767D01*
X43046705Y-66750615D01*
X43143721Y-66677906D01*
X43210224Y-66653059D01*
X43279606Y-66668112D01*
G37*
G04 #@! TD.AperFunction*
G04 #@! TA.AperFunction,Conductor*
G36*
X41245671Y-58328502D02*
G01*
X41266645Y-58345405D01*
X52085595Y-69164355D01*
X52119621Y-69226667D01*
X52122500Y-69253450D01*
X52122500Y-70114705D01*
X52102498Y-70182826D01*
X52062441Y-70219572D01*
X52063570Y-70221364D01*
X52059201Y-70224116D01*
X52054607Y-70226507D01*
X52045151Y-70233607D01*
X52029613Y-70245273D01*
X51963128Y-70270178D01*
X51893733Y-70255185D01*
X51864866Y-70233607D01*
X50600128Y-68968868D01*
X49323655Y-67692395D01*
X49315665Y-67683615D01*
X49315663Y-67683613D01*
X49311416Y-67676920D01*
X49259742Y-67628395D01*
X49256901Y-67625641D01*
X49236333Y-67605073D01*
X49232826Y-67602353D01*
X49223804Y-67594647D01*
X49190133Y-67563028D01*
X49183181Y-67559206D01*
X49171342Y-67552697D01*
X49154818Y-67541843D01*
X49144132Y-67533555D01*
X49137868Y-67528696D01*
X49130596Y-67525549D01*
X49130594Y-67525548D01*
X49095465Y-67510346D01*
X49084805Y-67505124D01*
X49051284Y-67486695D01*
X49051282Y-67486694D01*
X49044337Y-67482876D01*
X49023559Y-67477541D01*
X49004869Y-67471142D01*
X48985176Y-67462620D01*
X48939552Y-67455394D01*
X48927929Y-67452987D01*
X48899928Y-67445798D01*
X48883188Y-67441500D01*
X48861741Y-67441500D01*
X48842031Y-67439949D01*
X48820848Y-67436594D01*
X48774859Y-67440941D01*
X48763004Y-67441500D01*
X46708498Y-67441500D01*
X46640377Y-67421498D01*
X46593884Y-67367842D01*
X46590516Y-67359730D01*
X46553767Y-67261703D01*
X46550615Y-67253295D01*
X46463261Y-67136739D01*
X46346705Y-67049385D01*
X46262938Y-67017982D01*
X46206174Y-66975340D01*
X46181474Y-66908779D01*
X46196681Y-66839430D01*
X46246967Y-66789312D01*
X46262938Y-66782018D01*
X46338297Y-66753767D01*
X46346705Y-66750615D01*
X46463261Y-66663261D01*
X46470907Y-66653059D01*
X46483536Y-66636209D01*
X46540395Y-66593694D01*
X46610555Y-66588528D01*
X46704513Y-66608500D01*
X46895487Y-66608500D01*
X46901939Y-66607128D01*
X46901944Y-66607128D01*
X46997864Y-66586739D01*
X47082288Y-66568794D01*
X47131901Y-66546705D01*
X47250722Y-66493803D01*
X47250724Y-66493802D01*
X47256752Y-66491118D01*
X47272969Y-66479336D01*
X47400758Y-66386491D01*
X47411253Y-66378866D01*
X47539040Y-66236944D01*
X47634527Y-66071556D01*
X47693542Y-65889928D01*
X47708314Y-65749385D01*
X47712814Y-65706565D01*
X47713504Y-65700000D01*
X47693542Y-65510072D01*
X47634527Y-65328444D01*
X47539040Y-65163056D01*
X47525412Y-65147920D01*
X47415675Y-65026045D01*
X47415674Y-65026044D01*
X47411253Y-65021134D01*
X47256752Y-64908882D01*
X47250724Y-64906198D01*
X47250722Y-64906197D01*
X47088319Y-64833891D01*
X47088318Y-64833891D01*
X47082288Y-64831206D01*
X46988888Y-64811353D01*
X46901944Y-64792872D01*
X46901939Y-64792872D01*
X46895487Y-64791500D01*
X46704513Y-64791500D01*
X46610555Y-64811472D01*
X46539767Y-64806070D01*
X46483536Y-64763791D01*
X46468644Y-64743921D01*
X46468642Y-64743919D01*
X46463261Y-64736739D01*
X46346705Y-64649385D01*
X46210316Y-64598255D01*
X46148134Y-64591500D01*
X45151866Y-64591500D01*
X45089684Y-64598255D01*
X44953295Y-64649385D01*
X44836739Y-64736739D01*
X44749385Y-64853295D01*
X44698255Y-64989684D01*
X44691500Y-65051866D01*
X44691500Y-65906050D01*
X44671498Y-65974171D01*
X44617842Y-66020664D01*
X44547568Y-66030768D01*
X44482988Y-66001274D01*
X44476405Y-65995145D01*
X43773655Y-65292395D01*
X43765665Y-65283615D01*
X43765663Y-65283613D01*
X43761416Y-65276920D01*
X43709742Y-65228395D01*
X43706901Y-65225641D01*
X43686333Y-65205073D01*
X43682826Y-65202353D01*
X43673804Y-65194647D01*
X43645913Y-65168456D01*
X43640133Y-65163028D01*
X43633181Y-65159206D01*
X43621342Y-65152697D01*
X43604818Y-65141843D01*
X43594132Y-65133555D01*
X43587868Y-65128696D01*
X43580596Y-65125549D01*
X43580594Y-65125548D01*
X43545465Y-65110346D01*
X43534805Y-65105124D01*
X43501284Y-65086695D01*
X43501282Y-65086694D01*
X43494337Y-65082876D01*
X43473559Y-65077541D01*
X43454869Y-65071142D01*
X43435176Y-65062620D01*
X43402526Y-65057449D01*
X43394894Y-65056240D01*
X43330741Y-65025827D01*
X43296623Y-64976021D01*
X43253767Y-64861703D01*
X43250615Y-64853295D01*
X43163261Y-64736739D01*
X43046705Y-64649385D01*
X42910316Y-64598255D01*
X42848134Y-64591500D01*
X41851866Y-64591500D01*
X41789684Y-64598255D01*
X41653295Y-64649385D01*
X41536739Y-64736739D01*
X41531358Y-64743919D01*
X41531357Y-64743920D01*
X41485326Y-64805339D01*
X41428467Y-64847854D01*
X41357648Y-64852880D01*
X41295355Y-64818820D01*
X41261365Y-64756489D01*
X41258500Y-64729774D01*
X41258500Y-59082059D01*
X41259059Y-59070203D01*
X41260789Y-59062463D01*
X41258827Y-59000024D01*
X41258562Y-58991609D01*
X41258500Y-58987651D01*
X41258500Y-58958568D01*
X41257946Y-58954179D01*
X41257013Y-58942337D01*
X41255811Y-58904094D01*
X41255562Y-58896169D01*
X41249580Y-58875579D01*
X41245570Y-58856216D01*
X41244902Y-58850923D01*
X41242882Y-58834936D01*
X41239966Y-58827571D01*
X41239965Y-58827567D01*
X41225874Y-58791979D01*
X41222035Y-58780769D01*
X41209145Y-58736400D01*
X41198225Y-58717935D01*
X41189534Y-58700195D01*
X41181635Y-58680244D01*
X41154482Y-58642871D01*
X41147967Y-58632952D01*
X41128493Y-58600023D01*
X41128490Y-58600019D01*
X41124453Y-58593193D01*
X41109289Y-58578029D01*
X41096448Y-58562995D01*
X41088501Y-58552057D01*
X41083841Y-58545643D01*
X41066847Y-58531584D01*
X41027109Y-58472750D01*
X41025488Y-58401772D01*
X41062497Y-58341185D01*
X41126387Y-58310225D01*
X41147163Y-58308500D01*
X41177550Y-58308500D01*
X41245671Y-58328502D01*
G37*
G04 #@! TD.AperFunction*
G04 #@! TA.AperFunction,Conductor*
G36*
X53943319Y-60348181D02*
G01*
X53983709Y-60374139D01*
X53983825Y-60373989D01*
X53985511Y-60375297D01*
X53988382Y-60377142D01*
X53995693Y-60384453D01*
X54002517Y-60388489D01*
X54002520Y-60388491D01*
X54088718Y-60439468D01*
X54138899Y-60469145D01*
X54146510Y-60471356D01*
X54146512Y-60471357D01*
X54188148Y-60483453D01*
X54298669Y-60515562D01*
X54305074Y-60516066D01*
X54305079Y-60516067D01*
X54333542Y-60518307D01*
X54333550Y-60518307D01*
X54335998Y-60518500D01*
X55062693Y-60518500D01*
X55126184Y-60539127D01*
X55127368Y-60536973D01*
X55146158Y-60547303D01*
X55162682Y-60558157D01*
X55172771Y-60565982D01*
X55179632Y-60571304D01*
X55186904Y-60574451D01*
X55186906Y-60574452D01*
X55222035Y-60589654D01*
X55232695Y-60594876D01*
X55262668Y-60611354D01*
X55273163Y-60617124D01*
X55293941Y-60622459D01*
X55312631Y-60628858D01*
X55332324Y-60637380D01*
X55367063Y-60642882D01*
X55377948Y-60644606D01*
X55389571Y-60647013D01*
X55414254Y-60653350D01*
X55434312Y-60658500D01*
X55455759Y-60658500D01*
X55475469Y-60660051D01*
X55496652Y-60663406D01*
X55542641Y-60659059D01*
X55554496Y-60658500D01*
X56281643Y-60658500D01*
X56349764Y-60678502D01*
X56396257Y-60732158D01*
X56401166Y-60744622D01*
X56408630Y-60766995D01*
X56408633Y-60767002D01*
X56410950Y-60773946D01*
X56504022Y-60924348D01*
X56504138Y-60924464D01*
X56529673Y-60987543D01*
X56516504Y-61057308D01*
X56505636Y-61074251D01*
X56503195Y-61076697D01*
X56482418Y-61110403D01*
X56428548Y-61197797D01*
X56410385Y-61227262D01*
X56383936Y-61307005D01*
X56372283Y-61342138D01*
X56354703Y-61395139D01*
X56344000Y-61499600D01*
X56344000Y-62125050D01*
X56323998Y-62193171D01*
X56307095Y-62214145D01*
X55994897Y-62526343D01*
X55986118Y-62534332D01*
X55986112Y-62534337D01*
X55979420Y-62538584D01*
X55973995Y-62544361D01*
X55930895Y-62590258D01*
X55928140Y-62593100D01*
X55907573Y-62613667D01*
X55904856Y-62617170D01*
X55897148Y-62626195D01*
X55865528Y-62659867D01*
X55861707Y-62666818D01*
X55861706Y-62666819D01*
X55855197Y-62678658D01*
X55844343Y-62695182D01*
X55839202Y-62701811D01*
X55831196Y-62712132D01*
X55828049Y-62719404D01*
X55828048Y-62719406D01*
X55812846Y-62754535D01*
X55807624Y-62765195D01*
X55791049Y-62795345D01*
X55785376Y-62805663D01*
X55780041Y-62826441D01*
X55773642Y-62845131D01*
X55765120Y-62864824D01*
X55763880Y-62872655D01*
X55757894Y-62910448D01*
X55755487Y-62922071D01*
X55748298Y-62950072D01*
X55744000Y-62966812D01*
X55744000Y-62988259D01*
X55742449Y-63007969D01*
X55739094Y-63029152D01*
X55743211Y-63072700D01*
X55743441Y-63075138D01*
X55744000Y-63086996D01*
X55744000Y-63257725D01*
X55723998Y-63325846D01*
X55693565Y-63358551D01*
X55589239Y-63436739D01*
X55501885Y-63553295D01*
X55450755Y-63689684D01*
X55444000Y-63751866D01*
X55444000Y-65048134D01*
X55450755Y-65110316D01*
X55501885Y-65246705D01*
X55589239Y-65363261D01*
X55705795Y-65450615D01*
X55714203Y-65453767D01*
X55789562Y-65482018D01*
X55846326Y-65524660D01*
X55871026Y-65591221D01*
X55855819Y-65660570D01*
X55805533Y-65710688D01*
X55789562Y-65717982D01*
X55705795Y-65749385D01*
X55589239Y-65836739D01*
X55501885Y-65953295D01*
X55498733Y-65961703D01*
X55461984Y-66059730D01*
X55419342Y-66116494D01*
X55352781Y-66141194D01*
X55344002Y-66141500D01*
X52824950Y-66141500D01*
X52756829Y-66121498D01*
X52735855Y-66104595D01*
X52342970Y-65711710D01*
X52308944Y-65649398D01*
X52306755Y-65635786D01*
X52294232Y-65516636D01*
X52294232Y-65516635D01*
X52293542Y-65510072D01*
X52290837Y-65501745D01*
X52236569Y-65334729D01*
X52234527Y-65328444D01*
X52139040Y-65163056D01*
X52125412Y-65147920D01*
X52015675Y-65026045D01*
X52015674Y-65026044D01*
X52011253Y-65021134D01*
X51856752Y-64908882D01*
X51850724Y-64906198D01*
X51850722Y-64906197D01*
X51688319Y-64833891D01*
X51688318Y-64833891D01*
X51682288Y-64831206D01*
X51588888Y-64811353D01*
X51501944Y-64792872D01*
X51501939Y-64792872D01*
X51495487Y-64791500D01*
X51304513Y-64791500D01*
X51298061Y-64792872D01*
X51298056Y-64792872D01*
X51211112Y-64811353D01*
X51117712Y-64831206D01*
X51111682Y-64833891D01*
X51111681Y-64833891D01*
X50949278Y-64906197D01*
X50949276Y-64906198D01*
X50943248Y-64908882D01*
X50788747Y-65021134D01*
X50784325Y-65026045D01*
X50784324Y-65026046D01*
X50746147Y-65068445D01*
X50685701Y-65105684D01*
X50614717Y-65104332D01*
X50563417Y-65073229D01*
X49013303Y-63523115D01*
X48979277Y-63460803D01*
X48984342Y-63389988D01*
X49026889Y-63333152D01*
X49093409Y-63308341D01*
X49102398Y-63308020D01*
X50820924Y-63308020D01*
X50832780Y-63308579D01*
X50832783Y-63308579D01*
X50840517Y-63310308D01*
X50911349Y-63308082D01*
X50915307Y-63308020D01*
X50944412Y-63308020D01*
X50948812Y-63307464D01*
X50960644Y-63306532D01*
X51006811Y-63305082D01*
X51027401Y-63299100D01*
X51046762Y-63295090D01*
X51053750Y-63294208D01*
X51060184Y-63293395D01*
X51060185Y-63293395D01*
X51068044Y-63292402D01*
X51075409Y-63289486D01*
X51075413Y-63289485D01*
X51111001Y-63275394D01*
X51122211Y-63271555D01*
X51166580Y-63258665D01*
X51185045Y-63247745D01*
X51202785Y-63239054D01*
X51222736Y-63231155D01*
X51260109Y-63204002D01*
X51270028Y-63197487D01*
X51302957Y-63178013D01*
X51302961Y-63178010D01*
X51309787Y-63173973D01*
X51324951Y-63158809D01*
X51339985Y-63145968D01*
X51350923Y-63138021D01*
X51357337Y-63133361D01*
X51386783Y-63097767D01*
X51394772Y-63088988D01*
X51638355Y-62845405D01*
X51700667Y-62811379D01*
X51727450Y-62808500D01*
X52352900Y-62808500D01*
X52356146Y-62808163D01*
X52356150Y-62808163D01*
X52451808Y-62798238D01*
X52451812Y-62798237D01*
X52458666Y-62797526D01*
X52465202Y-62795345D01*
X52465204Y-62795345D01*
X52619498Y-62743868D01*
X52626446Y-62741550D01*
X52776848Y-62648478D01*
X52901805Y-62523303D01*
X52915923Y-62500400D01*
X52990775Y-62378968D01*
X52990776Y-62378966D01*
X52994615Y-62372738D01*
X53030934Y-62263240D01*
X53048132Y-62211389D01*
X53048132Y-62211387D01*
X53050297Y-62204861D01*
X53061000Y-62100400D01*
X53061000Y-61178524D01*
X53081002Y-61110403D01*
X53097905Y-61089429D01*
X53810192Y-60377142D01*
X53872504Y-60343116D01*
X53943319Y-60348181D01*
G37*
G04 #@! TD.AperFunction*
G04 #@! TA.AperFunction,Conductor*
G36*
X61759532Y-60075894D02*
G01*
X61816368Y-60118441D01*
X61841179Y-60184961D01*
X61841500Y-60193950D01*
X61841500Y-63677551D01*
X61821498Y-63745672D01*
X61804595Y-63766646D01*
X60864825Y-64706416D01*
X60802513Y-64740442D01*
X60731698Y-64735377D01*
X60674862Y-64692830D01*
X60657508Y-64658161D01*
X60654635Y-64655671D01*
X60646952Y-64654000D01*
X58762616Y-64654000D01*
X58747377Y-64658475D01*
X58746172Y-64659865D01*
X58744501Y-64667548D01*
X58744501Y-65044669D01*
X58744871Y-65051490D01*
X58750395Y-65102352D01*
X58754021Y-65117604D01*
X58799176Y-65238054D01*
X58807714Y-65253649D01*
X58884215Y-65355724D01*
X58896776Y-65368285D01*
X58998851Y-65444786D01*
X59014446Y-65453324D01*
X59090274Y-65481751D01*
X59147038Y-65524393D01*
X59171738Y-65590954D01*
X59156530Y-65660303D01*
X59106244Y-65710421D01*
X59090274Y-65717715D01*
X59089562Y-65717982D01*
X59005795Y-65749385D01*
X58908779Y-65822094D01*
X58842276Y-65846941D01*
X58772894Y-65831888D01*
X58744122Y-65810362D01*
X57397905Y-64464145D01*
X57363879Y-64401833D01*
X57361000Y-64375050D01*
X57361000Y-63751866D01*
X57354245Y-63689684D01*
X57303115Y-63553295D01*
X57215761Y-63436739D01*
X57208581Y-63431358D01*
X57202231Y-63425008D01*
X57204478Y-63422761D01*
X57171357Y-63378456D01*
X57166338Y-63307637D01*
X57200403Y-63245347D01*
X57262738Y-63211362D01*
X57289441Y-63208500D01*
X57852900Y-63208500D01*
X57856146Y-63208163D01*
X57856150Y-63208163D01*
X57951808Y-63198238D01*
X57951812Y-63198237D01*
X57958666Y-63197526D01*
X57965202Y-63195345D01*
X57965204Y-63195345D01*
X58119498Y-63143868D01*
X58126446Y-63141550D01*
X58276848Y-63048478D01*
X58310352Y-63014916D01*
X58363638Y-62961537D01*
X58425921Y-62927458D01*
X58496741Y-62932461D01*
X58541829Y-62961382D01*
X58624329Y-63043739D01*
X58635740Y-63052751D01*
X58773743Y-63137816D01*
X58786924Y-63143963D01*
X58900470Y-63181625D01*
X58958829Y-63222056D01*
X58986066Y-63287620D01*
X58973532Y-63357502D01*
X58936366Y-63402045D01*
X58896775Y-63431716D01*
X58884215Y-63444276D01*
X58807714Y-63546351D01*
X58799176Y-63561946D01*
X58754022Y-63682394D01*
X58750395Y-63697649D01*
X58744869Y-63748514D01*
X58744500Y-63755328D01*
X58744500Y-64127885D01*
X58748975Y-64143124D01*
X58750365Y-64144329D01*
X58758048Y-64146000D01*
X60642384Y-64146000D01*
X60657623Y-64141525D01*
X60658828Y-64140135D01*
X60660499Y-64132452D01*
X60660499Y-63755331D01*
X60660129Y-63748510D01*
X60654605Y-63697648D01*
X60650979Y-63682396D01*
X60605824Y-63561946D01*
X60597286Y-63546351D01*
X60520785Y-63444276D01*
X60508224Y-63431715D01*
X60406149Y-63355214D01*
X60390554Y-63346676D01*
X60262707Y-63298748D01*
X60263548Y-63296504D01*
X60212272Y-63267216D01*
X60179447Y-63204263D01*
X60185868Y-63133558D01*
X60229495Y-63077548D01*
X60236754Y-63072700D01*
X60270310Y-63051934D01*
X60281708Y-63042901D01*
X60396239Y-62928171D01*
X60405251Y-62916760D01*
X60490316Y-62778757D01*
X60496463Y-62765576D01*
X60547638Y-62611290D01*
X60550505Y-62597914D01*
X60560172Y-62503562D01*
X60560500Y-62497146D01*
X60560500Y-62272115D01*
X60556025Y-62256876D01*
X60554635Y-62255671D01*
X60546952Y-62254000D01*
X59324500Y-62254000D01*
X59256379Y-62233998D01*
X59209886Y-62180342D01*
X59198500Y-62128000D01*
X59198500Y-61872000D01*
X59218502Y-61803879D01*
X59272158Y-61757386D01*
X59324500Y-61746000D01*
X60542384Y-61746000D01*
X60557623Y-61741525D01*
X60558828Y-61740135D01*
X60560499Y-61732452D01*
X60560499Y-61502905D01*
X60560162Y-61496386D01*
X60550243Y-61400794D01*
X60547351Y-61387400D01*
X60495912Y-61233216D01*
X60489739Y-61220038D01*
X60404436Y-61082191D01*
X60401645Y-61078670D01*
X60375006Y-61012860D01*
X60388176Y-60943096D01*
X60399196Y-60925917D01*
X60401805Y-60923303D01*
X60422742Y-60889338D01*
X60490775Y-60778968D01*
X60490776Y-60778966D01*
X60494615Y-60772738D01*
X60503872Y-60744830D01*
X60544303Y-60686472D01*
X60609867Y-60659236D01*
X60623464Y-60658500D01*
X60717944Y-60658500D01*
X60729800Y-60659059D01*
X60729803Y-60659059D01*
X60737537Y-60660788D01*
X60808369Y-60658562D01*
X60812327Y-60658500D01*
X60841432Y-60658500D01*
X60845832Y-60657944D01*
X60857664Y-60657012D01*
X60903831Y-60655562D01*
X60924421Y-60649580D01*
X60943782Y-60645570D01*
X60951416Y-60644606D01*
X60957204Y-60643875D01*
X60957205Y-60643875D01*
X60965064Y-60642882D01*
X60972429Y-60639966D01*
X60972433Y-60639965D01*
X61008021Y-60625874D01*
X61019231Y-60622035D01*
X61063600Y-60609145D01*
X61082065Y-60598225D01*
X61099805Y-60589534D01*
X61119756Y-60581635D01*
X61157129Y-60554482D01*
X61167048Y-60547967D01*
X61199977Y-60528493D01*
X61199981Y-60528490D01*
X61206807Y-60524453D01*
X61221971Y-60509289D01*
X61237005Y-60496448D01*
X61247943Y-60488501D01*
X61254357Y-60483841D01*
X61283803Y-60448247D01*
X61291792Y-60439468D01*
X61626405Y-60104855D01*
X61688717Y-60070829D01*
X61759532Y-60075894D01*
G37*
G04 #@! TD.AperFunction*
G04 #@! TA.AperFunction,Conductor*
G36*
X52827884Y-56397709D02*
G01*
X52852868Y-56426542D01*
X52853776Y-56425882D01*
X52857659Y-56431226D01*
X52860960Y-56436944D01*
X52988747Y-56578866D01*
X53143248Y-56691118D01*
X53149276Y-56693802D01*
X53149278Y-56693803D01*
X53311681Y-56766109D01*
X53317712Y-56768794D01*
X53411113Y-56788647D01*
X53498056Y-56807128D01*
X53498061Y-56807128D01*
X53504513Y-56808500D01*
X53626663Y-56808500D01*
X53694784Y-56828502D01*
X53741277Y-56882158D01*
X53746182Y-56904552D01*
X53750980Y-56911971D01*
X53759870Y-56916000D01*
X55355500Y-56916000D01*
X55423621Y-56936002D01*
X55470114Y-56989658D01*
X55481500Y-57042000D01*
X55481500Y-57275591D01*
X55461498Y-57343712D01*
X55407061Y-57389937D01*
X55403900Y-57390855D01*
X55385435Y-57401775D01*
X55367684Y-57410470D01*
X55355857Y-57415153D01*
X55309477Y-57424000D01*
X53765622Y-57424000D01*
X53752091Y-57427973D01*
X53750956Y-57435871D01*
X53791607Y-57575790D01*
X53797852Y-57590221D01*
X53874411Y-57719677D01*
X53880371Y-57727360D01*
X53906320Y-57793444D01*
X53892422Y-57863067D01*
X53882079Y-57879161D01*
X53878047Y-57883193D01*
X53793355Y-58026399D01*
X53746938Y-58186169D01*
X53744000Y-58223498D01*
X53744000Y-58528623D01*
X53723998Y-58596744D01*
X53707095Y-58617718D01*
X51970218Y-60354595D01*
X51907906Y-60388621D01*
X51881123Y-60391500D01*
X51774111Y-60391500D01*
X51705990Y-60371498D01*
X51659497Y-60317842D01*
X51649393Y-60247568D01*
X51665656Y-60201364D01*
X51711645Y-60123601D01*
X51758062Y-59963831D01*
X51759707Y-59942939D01*
X51760807Y-59928958D01*
X51760807Y-59928950D01*
X51761000Y-59926502D01*
X51761000Y-59493498D01*
X51758062Y-59456169D01*
X51711645Y-59296399D01*
X51626953Y-59153193D01*
X51624271Y-59150511D01*
X51598998Y-59086139D01*
X51612900Y-59016516D01*
X51623072Y-59000688D01*
X51626953Y-58996807D01*
X51711645Y-58853601D01*
X51717742Y-58832617D01*
X51737411Y-58764914D01*
X51758062Y-58693831D01*
X51758755Y-58685038D01*
X51760807Y-58658958D01*
X51760807Y-58658950D01*
X51761000Y-58656502D01*
X51761000Y-58223498D01*
X51758062Y-58186169D01*
X51711645Y-58026399D01*
X51626953Y-57883193D01*
X51624271Y-57880511D01*
X51598998Y-57816139D01*
X51612900Y-57746516D01*
X51623072Y-57730688D01*
X51626953Y-57726807D01*
X51711645Y-57583601D01*
X51713915Y-57575790D01*
X51729028Y-57523769D01*
X51758062Y-57423831D01*
X51759114Y-57410472D01*
X51760807Y-57388958D01*
X51760807Y-57388950D01*
X51761000Y-57386502D01*
X51761000Y-56953498D01*
X51760283Y-56944384D01*
X51774880Y-56874904D01*
X51824723Y-56824346D01*
X51885895Y-56808500D01*
X51995487Y-56808500D01*
X52001939Y-56807128D01*
X52001944Y-56807128D01*
X52088887Y-56788647D01*
X52182288Y-56768794D01*
X52188319Y-56766109D01*
X52350722Y-56693803D01*
X52350724Y-56693802D01*
X52356752Y-56691118D01*
X52511253Y-56578866D01*
X52639040Y-56436944D01*
X52642341Y-56431226D01*
X52646224Y-56425882D01*
X52647878Y-56427084D01*
X52692259Y-56384764D01*
X52761972Y-56371325D01*
X52827884Y-56397709D01*
G37*
G04 #@! TD.AperFunction*
G04 #@! TA.AperFunction,Conductor*
G36*
X60943171Y-55478502D02*
G01*
X60964145Y-55495405D01*
X61305075Y-55836335D01*
X61339101Y-55898647D01*
X61341980Y-55925430D01*
X61341980Y-58474570D01*
X61321978Y-58542691D01*
X61305075Y-58563665D01*
X60663379Y-59205361D01*
X60601067Y-59239387D01*
X60530252Y-59234322D01*
X60473416Y-59191775D01*
X60467146Y-59182578D01*
X60400978Y-59075652D01*
X60400862Y-59075536D01*
X60375327Y-59012457D01*
X60388496Y-58942692D01*
X60399364Y-58925749D01*
X60401805Y-58923303D01*
X60486158Y-58786458D01*
X60490775Y-58778968D01*
X60490776Y-58778966D01*
X60494615Y-58772738D01*
X60533953Y-58654138D01*
X60548132Y-58611389D01*
X60548132Y-58611387D01*
X60550297Y-58604861D01*
X60551493Y-58593193D01*
X60558124Y-58528472D01*
X60561000Y-58500400D01*
X60561000Y-57499600D01*
X60560663Y-57496350D01*
X60550738Y-57400692D01*
X60550737Y-57400688D01*
X60550026Y-57393834D01*
X60494050Y-57226054D01*
X60400978Y-57075652D01*
X60395799Y-57070482D01*
X60395795Y-57070477D01*
X60389056Y-57063750D01*
X60354979Y-57001467D01*
X60359984Y-56930647D01*
X60388904Y-56885562D01*
X60421239Y-56853171D01*
X60430251Y-56841760D01*
X60515316Y-56703757D01*
X60521463Y-56690576D01*
X60572638Y-56536290D01*
X60575505Y-56522914D01*
X60585172Y-56428562D01*
X60585500Y-56422146D01*
X60585500Y-56172115D01*
X60581025Y-56156876D01*
X60579635Y-56155671D01*
X60571952Y-56154000D01*
X59362000Y-56154000D01*
X59293879Y-56133998D01*
X59247386Y-56080342D01*
X59236000Y-56028000D01*
X59236000Y-55772000D01*
X59256002Y-55703879D01*
X59309658Y-55657386D01*
X59362000Y-55646000D01*
X60567384Y-55646000D01*
X60582623Y-55641525D01*
X60583828Y-55640135D01*
X60585499Y-55632452D01*
X60585499Y-55584500D01*
X60605501Y-55516379D01*
X60659157Y-55469886D01*
X60711499Y-55458500D01*
X60875050Y-55458500D01*
X60943171Y-55478502D01*
G37*
G04 #@! TD.AperFunction*
G04 #@! TA.AperFunction,Conductor*
G36*
X44886121Y-51678502D02*
G01*
X44932614Y-51732158D01*
X44944000Y-51784500D01*
X44944000Y-52200400D01*
X44944337Y-52203646D01*
X44944337Y-52203650D01*
X44950946Y-52267340D01*
X44954974Y-52306166D01*
X44957155Y-52312702D01*
X44957155Y-52312704D01*
X44967540Y-52343831D01*
X45010950Y-52473946D01*
X45104022Y-52624348D01*
X45104138Y-52624464D01*
X45129673Y-52687543D01*
X45116504Y-52757308D01*
X45105636Y-52774251D01*
X45103195Y-52776697D01*
X45010385Y-52927262D01*
X44987666Y-52995758D01*
X44962709Y-53071003D01*
X44954703Y-53095139D01*
X44954003Y-53101975D01*
X44954002Y-53101978D01*
X44950000Y-53141042D01*
X44944000Y-53199600D01*
X44944000Y-54200400D01*
X44944337Y-54203646D01*
X44944337Y-54203650D01*
X44954074Y-54297489D01*
X44954974Y-54306166D01*
X44957155Y-54312702D01*
X44957155Y-54312704D01*
X44982071Y-54387386D01*
X45010950Y-54473946D01*
X45104022Y-54624348D01*
X45109204Y-54629521D01*
X45109208Y-54629526D01*
X45165941Y-54686161D01*
X45200020Y-54748443D01*
X45195017Y-54819263D01*
X45166096Y-54864351D01*
X45083761Y-54946829D01*
X45074749Y-54958240D01*
X44989684Y-55096243D01*
X44983537Y-55109424D01*
X44932362Y-55263710D01*
X44929495Y-55277086D01*
X44919828Y-55371438D01*
X44919500Y-55377855D01*
X44919500Y-55584050D01*
X44899498Y-55652171D01*
X44845842Y-55698664D01*
X44775568Y-55708768D01*
X44710988Y-55679274D01*
X44704405Y-55673145D01*
X42027018Y-52995758D01*
X41992992Y-52933446D01*
X41996520Y-52866996D01*
X42048132Y-52711389D01*
X42048132Y-52711387D01*
X42050297Y-52704861D01*
X42052072Y-52687543D01*
X42058814Y-52621734D01*
X42061000Y-52600400D01*
X42061000Y-51784500D01*
X42081002Y-51716379D01*
X42134658Y-51669886D01*
X42187000Y-51658500D01*
X44818000Y-51658500D01*
X44886121Y-51678502D01*
G37*
G04 #@! TD.AperFunction*
G04 #@! TA.AperFunction,Conductor*
G36*
X63133621Y-48028502D02*
G01*
X63180114Y-48082158D01*
X63191500Y-48134500D01*
X63191500Y-54297489D01*
X63171498Y-54365610D01*
X63117842Y-54412103D01*
X63047568Y-54422207D01*
X62983865Y-54393114D01*
X62983841Y-54393143D01*
X62983732Y-54393053D01*
X62948247Y-54363697D01*
X62939468Y-54355708D01*
X60597905Y-52014145D01*
X60563879Y-51951833D01*
X60561000Y-51925050D01*
X60561000Y-51199600D01*
X60560093Y-51190855D01*
X60550738Y-51100692D01*
X60550737Y-51100688D01*
X60550026Y-51093834D01*
X60537639Y-51056704D01*
X60496368Y-50933002D01*
X60494050Y-50926054D01*
X60400978Y-50775652D01*
X60275803Y-50650695D01*
X60174181Y-50588054D01*
X60131468Y-50561725D01*
X60131466Y-50561724D01*
X60125238Y-50557885D01*
X60045495Y-50531436D01*
X59963889Y-50504368D01*
X59963887Y-50504368D01*
X59957361Y-50502203D01*
X59950525Y-50501503D01*
X59950522Y-50501502D01*
X59907469Y-50497091D01*
X59852900Y-50491500D01*
X59052100Y-50491500D01*
X59048854Y-50491837D01*
X59048850Y-50491837D01*
X58953192Y-50501762D01*
X58953188Y-50501763D01*
X58946334Y-50502474D01*
X58939798Y-50504655D01*
X58939796Y-50504655D01*
X58905315Y-50516159D01*
X58778554Y-50558450D01*
X58628152Y-50651522D01*
X58574045Y-50705724D01*
X58541716Y-50738109D01*
X58479434Y-50772188D01*
X58408614Y-50767185D01*
X58363525Y-50738264D01*
X58280983Y-50655866D01*
X58275803Y-50650695D01*
X58174181Y-50588054D01*
X58131468Y-50561725D01*
X58131466Y-50561724D01*
X58125238Y-50557885D01*
X58045495Y-50531436D01*
X57963889Y-50504368D01*
X57963887Y-50504368D01*
X57957361Y-50502203D01*
X57950525Y-50501503D01*
X57950522Y-50501502D01*
X57907469Y-50497091D01*
X57852900Y-50491500D01*
X57052100Y-50491500D01*
X57048854Y-50491837D01*
X57048850Y-50491837D01*
X56953192Y-50501762D01*
X56953188Y-50501763D01*
X56946334Y-50502474D01*
X56939798Y-50504655D01*
X56939796Y-50504655D01*
X56905315Y-50516159D01*
X56778554Y-50558450D01*
X56628152Y-50651522D01*
X56503195Y-50776697D01*
X56499355Y-50782927D01*
X56499354Y-50782928D01*
X56425665Y-50902474D01*
X56410385Y-50927262D01*
X56392149Y-50982242D01*
X56367961Y-51055167D01*
X56327531Y-51113527D01*
X56261966Y-51140764D01*
X56248368Y-51141500D01*
X55599559Y-51141500D01*
X55587703Y-51140941D01*
X55579963Y-51139211D01*
X55572037Y-51139460D01*
X55572036Y-51139460D01*
X55509111Y-51141438D01*
X55505153Y-51141500D01*
X55476068Y-51141500D01*
X55472137Y-51141997D01*
X55472130Y-51141997D01*
X55471679Y-51142054D01*
X55459843Y-51142986D01*
X55413669Y-51144438D01*
X55393079Y-51150420D01*
X55373718Y-51154430D01*
X55366730Y-51155312D01*
X55360296Y-51156125D01*
X55360295Y-51156125D01*
X55352436Y-51157118D01*
X55345071Y-51160034D01*
X55345067Y-51160035D01*
X55309479Y-51174126D01*
X55298269Y-51177965D01*
X55253900Y-51190855D01*
X55235435Y-51201775D01*
X55217695Y-51210466D01*
X55197744Y-51218365D01*
X55160374Y-51245516D01*
X55150451Y-51252034D01*
X55130295Y-51263954D01*
X55066157Y-51281500D01*
X54335998Y-51281500D01*
X54333550Y-51281693D01*
X54333542Y-51281693D01*
X54305079Y-51283933D01*
X54305074Y-51283934D01*
X54298669Y-51284438D01*
X54198731Y-51313472D01*
X54146512Y-51328643D01*
X54146510Y-51328644D01*
X54138899Y-51330855D01*
X54132072Y-51334892D01*
X54132073Y-51334892D01*
X54002520Y-51411509D01*
X54002517Y-51411511D01*
X53995693Y-51415547D01*
X53878047Y-51533193D01*
X53874011Y-51540017D01*
X53874009Y-51540020D01*
X53810393Y-51647589D01*
X53793355Y-51676399D01*
X53746938Y-51836169D01*
X53744000Y-51873498D01*
X53744000Y-52306502D01*
X53746938Y-52343831D01*
X53748733Y-52350008D01*
X53784740Y-52473946D01*
X53793355Y-52503601D01*
X53878047Y-52646807D01*
X53880729Y-52649489D01*
X53906002Y-52713861D01*
X53892100Y-52783484D01*
X53881928Y-52799312D01*
X53878047Y-52803193D01*
X53793355Y-52946399D01*
X53746938Y-53106169D01*
X53744000Y-53143498D01*
X53744000Y-53576502D01*
X53746938Y-53613831D01*
X53765202Y-53676697D01*
X53787259Y-53752617D01*
X53793355Y-53773601D01*
X53878047Y-53916807D01*
X53880987Y-53919747D01*
X53906320Y-53984266D01*
X53892421Y-54053889D01*
X53880374Y-54072636D01*
X53874410Y-54080324D01*
X53797852Y-54209779D01*
X53791607Y-54224210D01*
X53752561Y-54358605D01*
X53752601Y-54372706D01*
X53759870Y-54376000D01*
X55355500Y-54376000D01*
X55423621Y-54396002D01*
X55470114Y-54449658D01*
X55481500Y-54502000D01*
X55481500Y-54758000D01*
X55461498Y-54826121D01*
X55407842Y-54872614D01*
X55355500Y-54884000D01*
X53765622Y-54884000D01*
X53750451Y-54888455D01*
X53723251Y-54948013D01*
X53663524Y-54986396D01*
X53628027Y-54991500D01*
X53504513Y-54991500D01*
X53498061Y-54992872D01*
X53498056Y-54992872D01*
X53411112Y-55011353D01*
X53317712Y-55031206D01*
X53311682Y-55033891D01*
X53311681Y-55033891D01*
X53149278Y-55106197D01*
X53149276Y-55106198D01*
X53143248Y-55108882D01*
X52988747Y-55221134D01*
X52984326Y-55226044D01*
X52984325Y-55226045D01*
X52888781Y-55332158D01*
X52860960Y-55363056D01*
X52857659Y-55368774D01*
X52853776Y-55374118D01*
X52852122Y-55372916D01*
X52807741Y-55415236D01*
X52738028Y-55428675D01*
X52672116Y-55402291D01*
X52647132Y-55373458D01*
X52646224Y-55374118D01*
X52642341Y-55368774D01*
X52639040Y-55363056D01*
X52611220Y-55332158D01*
X52515675Y-55226045D01*
X52515674Y-55226044D01*
X52511253Y-55221134D01*
X52356752Y-55108882D01*
X52350724Y-55106198D01*
X52350722Y-55106197D01*
X52188319Y-55033891D01*
X52188318Y-55033891D01*
X52182288Y-55031206D01*
X52088888Y-55011353D01*
X52001944Y-54992872D01*
X52001939Y-54992872D01*
X51995487Y-54991500D01*
X51878337Y-54991500D01*
X51810216Y-54971498D01*
X51763723Y-54917842D01*
X51758818Y-54895448D01*
X51754020Y-54888029D01*
X51745130Y-54884000D01*
X50149500Y-54884000D01*
X50081379Y-54863998D01*
X50034886Y-54810342D01*
X50023500Y-54758000D01*
X50023500Y-54502000D01*
X50043502Y-54433879D01*
X50097158Y-54387386D01*
X50149500Y-54376000D01*
X51739378Y-54376000D01*
X51752909Y-54372027D01*
X51754706Y-54359524D01*
X51754889Y-54295346D01*
X51793443Y-54235729D01*
X51858108Y-54206420D01*
X51891366Y-54207573D01*
X51891485Y-54206437D01*
X51898056Y-54207128D01*
X51904513Y-54208500D01*
X52095487Y-54208500D01*
X52101939Y-54207128D01*
X52101944Y-54207128D01*
X52188888Y-54188647D01*
X52282288Y-54168794D01*
X52288319Y-54166109D01*
X52450722Y-54093803D01*
X52450724Y-54093802D01*
X52456752Y-54091118D01*
X52611253Y-53978866D01*
X52615675Y-53973955D01*
X52734621Y-53841852D01*
X52734622Y-53841851D01*
X52739040Y-53836944D01*
X52805323Y-53722138D01*
X52831223Y-53677279D01*
X52831224Y-53677278D01*
X52834527Y-53671556D01*
X52893542Y-53489928D01*
X52896851Y-53458450D01*
X52912814Y-53306565D01*
X52913504Y-53300000D01*
X52893542Y-53110072D01*
X52834527Y-52928444D01*
X52739040Y-52763056D01*
X52733865Y-52757308D01*
X52615675Y-52626045D01*
X52615674Y-52626044D01*
X52611253Y-52621134D01*
X52456752Y-52508882D01*
X52450724Y-52506198D01*
X52450722Y-52506197D01*
X52288319Y-52433891D01*
X52288318Y-52433891D01*
X52282288Y-52431206D01*
X52188887Y-52411353D01*
X52101944Y-52392872D01*
X52101939Y-52392872D01*
X52095487Y-52391500D01*
X51904513Y-52391500D01*
X51899595Y-52392545D01*
X51830328Y-52379876D01*
X51778483Y-52331372D01*
X51761000Y-52267340D01*
X51761000Y-51873498D01*
X51758062Y-51836169D01*
X51711645Y-51676399D01*
X51694607Y-51647589D01*
X51630991Y-51540020D01*
X51630989Y-51540017D01*
X51626953Y-51533193D01*
X51509307Y-51415547D01*
X51502483Y-51411511D01*
X51502480Y-51411509D01*
X51372927Y-51334892D01*
X51372928Y-51334892D01*
X51366101Y-51330855D01*
X51358490Y-51328644D01*
X51358488Y-51328643D01*
X51306269Y-51313472D01*
X51206331Y-51284438D01*
X51199926Y-51283934D01*
X51199921Y-51283933D01*
X51171458Y-51281693D01*
X51171450Y-51281693D01*
X51169002Y-51281500D01*
X49385998Y-51281500D01*
X49383550Y-51281693D01*
X49383542Y-51281693D01*
X49355079Y-51283933D01*
X49355074Y-51283934D01*
X49348669Y-51284438D01*
X49331550Y-51289412D01*
X49319940Y-51292784D01*
X49248944Y-51292579D01*
X49189329Y-51254024D01*
X49159463Y-51184789D01*
X49158624Y-51176697D01*
X49154734Y-51139211D01*
X49150738Y-51100693D01*
X49150737Y-51100690D01*
X49150026Y-51093834D01*
X49137639Y-51056704D01*
X49096368Y-50933002D01*
X49094050Y-50926054D01*
X49000978Y-50775652D01*
X48875803Y-50650695D01*
X48774181Y-50588054D01*
X48731468Y-50561725D01*
X48731466Y-50561724D01*
X48725238Y-50557885D01*
X48645495Y-50531436D01*
X48563889Y-50504368D01*
X48563887Y-50504368D01*
X48557361Y-50502203D01*
X48550525Y-50501503D01*
X48550522Y-50501502D01*
X48507469Y-50497091D01*
X48452900Y-50491500D01*
X47652100Y-50491500D01*
X47648854Y-50491837D01*
X47648850Y-50491837D01*
X47553192Y-50501762D01*
X47553188Y-50501763D01*
X47546334Y-50502474D01*
X47539798Y-50504655D01*
X47539796Y-50504655D01*
X47505315Y-50516159D01*
X47378554Y-50558450D01*
X47228152Y-50651522D01*
X47174045Y-50705724D01*
X47141716Y-50738109D01*
X47079434Y-50772188D01*
X47008614Y-50767185D01*
X46963525Y-50738264D01*
X46880983Y-50655866D01*
X46875803Y-50650695D01*
X46774181Y-50588054D01*
X46731468Y-50561725D01*
X46731466Y-50561724D01*
X46725238Y-50557885D01*
X46645495Y-50531436D01*
X46563889Y-50504368D01*
X46563887Y-50504368D01*
X46557361Y-50502203D01*
X46550525Y-50501503D01*
X46550522Y-50501502D01*
X46507469Y-50497091D01*
X46452900Y-50491500D01*
X45821071Y-50491500D01*
X45747495Y-50467594D01*
X45742633Y-50463028D01*
X45735691Y-50459212D01*
X45735686Y-50459208D01*
X45723842Y-50452697D01*
X45707318Y-50441843D01*
X45696632Y-50433555D01*
X45690368Y-50428696D01*
X45683096Y-50425549D01*
X45683094Y-50425548D01*
X45647965Y-50410346D01*
X45637305Y-50405124D01*
X45603784Y-50386695D01*
X45603782Y-50386694D01*
X45596837Y-50382876D01*
X45576059Y-50377541D01*
X45557369Y-50371142D01*
X45537676Y-50362620D01*
X45492052Y-50355394D01*
X45480429Y-50352987D01*
X45446161Y-50344189D01*
X45435688Y-50341500D01*
X45414241Y-50341500D01*
X45394531Y-50339949D01*
X45373348Y-50336594D01*
X45327359Y-50340941D01*
X45315504Y-50341500D01*
X40382059Y-50341500D01*
X40370203Y-50340941D01*
X40362463Y-50339211D01*
X40354537Y-50339460D01*
X40354536Y-50339460D01*
X40291611Y-50341438D01*
X40287653Y-50341500D01*
X40258568Y-50341500D01*
X40254637Y-50341997D01*
X40254630Y-50341997D01*
X40254179Y-50342054D01*
X40242343Y-50342986D01*
X40196169Y-50344438D01*
X40175579Y-50350420D01*
X40156218Y-50354430D01*
X40149230Y-50355312D01*
X40142796Y-50356125D01*
X40142795Y-50356125D01*
X40134936Y-50357118D01*
X40127571Y-50360034D01*
X40127567Y-50360035D01*
X40091979Y-50374126D01*
X40080769Y-50377965D01*
X40036400Y-50390855D01*
X40017935Y-50401775D01*
X40000195Y-50410466D01*
X39980244Y-50418365D01*
X39942874Y-50445516D01*
X39932952Y-50452033D01*
X39900023Y-50471507D01*
X39900019Y-50471510D01*
X39893193Y-50475547D01*
X39878029Y-50490711D01*
X39862996Y-50503551D01*
X39845643Y-50516159D01*
X39816198Y-50551752D01*
X39808208Y-50560532D01*
X39595375Y-50773365D01*
X39586595Y-50781355D01*
X39586593Y-50781357D01*
X39579900Y-50785604D01*
X39574474Y-50791382D01*
X39574473Y-50791383D01*
X39531376Y-50837277D01*
X39528621Y-50840119D01*
X39508053Y-50860687D01*
X39506449Y-50859083D01*
X39454432Y-50892506D01*
X39406102Y-50896951D01*
X39352900Y-50891500D01*
X38552100Y-50891500D01*
X38548854Y-50891837D01*
X38548850Y-50891837D01*
X38453192Y-50901762D01*
X38453188Y-50901763D01*
X38446334Y-50902474D01*
X38439798Y-50904655D01*
X38439796Y-50904655D01*
X38351213Y-50934209D01*
X38278554Y-50958450D01*
X38128152Y-51051522D01*
X38003195Y-51176697D01*
X37999355Y-51182927D01*
X37999354Y-51182928D01*
X37931638Y-51292784D01*
X37910385Y-51327262D01*
X37903721Y-51347354D01*
X37901129Y-51355169D01*
X37860697Y-51413528D01*
X37795133Y-51440764D01*
X37781536Y-51441500D01*
X37599448Y-51441500D01*
X37531327Y-51421498D01*
X37493656Y-51383940D01*
X37382822Y-51212617D01*
X37382820Y-51212614D01*
X37380014Y-51208277D01*
X37376540Y-51204459D01*
X37376533Y-51204450D01*
X37232435Y-51046088D01*
X37201383Y-50982242D01*
X37209779Y-50911744D01*
X37254956Y-50856976D01*
X37281400Y-50843307D01*
X37388052Y-50803325D01*
X37403649Y-50794786D01*
X37505724Y-50718285D01*
X37518285Y-50705724D01*
X37594786Y-50603649D01*
X37603324Y-50588054D01*
X37648478Y-50467606D01*
X37652105Y-50452351D01*
X37657631Y-50401486D01*
X37658000Y-50394672D01*
X37658000Y-49772115D01*
X37653525Y-49756876D01*
X37652135Y-49755671D01*
X37644452Y-49754000D01*
X36172000Y-49754000D01*
X36103879Y-49733998D01*
X36057386Y-49680342D01*
X36046000Y-49628000D01*
X36046000Y-49372000D01*
X36066002Y-49303879D01*
X36119658Y-49257386D01*
X36172000Y-49246000D01*
X37639884Y-49246000D01*
X37655123Y-49241525D01*
X37656328Y-49240135D01*
X37657999Y-49232452D01*
X37657999Y-48605331D01*
X37657629Y-48598510D01*
X37652105Y-48547648D01*
X37648479Y-48532396D01*
X37603324Y-48411946D01*
X37594786Y-48396351D01*
X37518285Y-48294276D01*
X37505724Y-48281715D01*
X37443827Y-48235326D01*
X37401312Y-48178467D01*
X37396286Y-48107649D01*
X37430346Y-48045355D01*
X37492677Y-48011365D01*
X37519392Y-48008500D01*
X63065500Y-48008500D01*
X63133621Y-48028502D01*
G37*
G04 #@! TD.AperFunction*
M02*
