%TF.GenerationSoftware,KiCad,Pcbnew,7.0.1.1-36-gbcf78dbe24-dirty-deb11*%
%TF.CreationDate,Date%
%TF.ProjectId,RP2040-VCO,52503230-3430-42d5-9643-4f2e6b696361,rev?*%
%TF.SameCoordinates,Original*%
%TF.FileFunction,Drillmap*%
%TF.FilePolarity,Positive*%
%FSLAX45Y45*%
G04 Gerber Fmt 4.5, Leading zero omitted, Abs format (unit mm)*
G04 Created by KiCad*
%MOMM*%
%LPD*%
G01*
G04 APERTURE LIST*
%ADD10C,0.050000*%
%ADD11C,0.200000*%
%ADD12C,0.030000*%
%ADD13C,0.040000*%
%ADD14C,0.100000*%
G04 APERTURE END LIST*
D10*
X7150000Y-3650000D02*
X7150000Y-14650000D01*
X5150000Y-3650000D02*
X5150000Y-14650000D01*
X5150000Y-14650000D02*
X7150000Y-14650000D01*
X5150000Y-3650000D02*
X7150000Y-3650000D01*
D11*
D12*
X6455000Y-8765000D02*
X6485000Y-8795000D01*
X6485000Y-8765000D02*
X6455000Y-8795000D01*
X6455000Y-8835000D02*
X6485000Y-8865000D01*
X6485000Y-8835000D02*
X6455000Y-8865000D01*
D13*
X5380000Y-8940000D02*
G75*
G03*
X5380000Y-8940000I-20000J0D01*
G01*
X5380000Y-9030000D02*
G75*
G03*
X5380000Y-9030000I-20000J0D01*
G01*
X5380000Y-9120000D02*
G75*
G03*
X5380000Y-9120000I-20000J0D01*
G01*
X5420000Y-9850000D02*
G75*
G03*
X5420000Y-9850000I-20000J0D01*
G01*
X5430000Y-13130000D02*
G75*
G03*
X5430000Y-13130000I-20000J0D01*
G01*
X5520000Y-4930000D02*
G75*
G03*
X5520000Y-4930000I-20000J0D01*
G01*
X5520000Y-5020000D02*
G75*
G03*
X5520000Y-5020000I-20000J0D01*
G01*
X5540000Y-7020000D02*
G75*
G03*
X5540000Y-7020000I-20000J0D01*
G01*
X5610000Y-4930000D02*
G75*
G03*
X5610000Y-4930000I-20000J0D01*
G01*
X5610000Y-5020000D02*
G75*
G03*
X5610000Y-5020000I-20000J0D01*
G01*
X5630000Y-7300000D02*
G75*
G03*
X5630000Y-7300000I-20000J0D01*
G01*
X5640000Y-9140000D02*
G75*
G03*
X5640000Y-9140000I-20000J0D01*
G01*
X5640000Y-9230000D02*
G75*
G03*
X5640000Y-9230000I-20000J0D01*
G01*
X5640000Y-9320000D02*
G75*
G03*
X5640000Y-9320000I-20000J0D01*
G01*
X5780000Y-6910000D02*
G75*
G03*
X5780000Y-6910000I-20000J0D01*
G01*
X5880000Y-7140000D02*
G75*
G03*
X5880000Y-7140000I-20000J0D01*
G01*
X5880000Y-9780000D02*
G75*
G03*
X5880000Y-9780000I-20000J0D01*
G01*
X5880000Y-9880000D02*
G75*
G03*
X5880000Y-9880000I-20000J0D01*
G01*
X5940000Y-11990000D02*
G75*
G03*
X5940000Y-11990000I-20000J0D01*
G01*
X5960000Y-9830000D02*
G75*
G03*
X5960000Y-9830000I-20000J0D01*
G01*
X5970000Y-10150000D02*
G75*
G03*
X5970000Y-10150000I-20000J0D01*
G01*
X5990000Y-12070000D02*
G75*
G03*
X5990000Y-12070000I-20000J0D01*
G01*
X6000000Y-8310000D02*
G75*
G03*
X6000000Y-8310000I-20000J0D01*
G01*
X6000000Y-8400000D02*
G75*
G03*
X6000000Y-8400000I-20000J0D01*
G01*
X6010000Y-8150000D02*
G75*
G03*
X6010000Y-8150000I-20000J0D01*
G01*
X6040000Y-11990000D02*
G75*
G03*
X6040000Y-11990000I-20000J0D01*
G01*
X6240000Y-6160000D02*
G75*
G03*
X6240000Y-6160000I-20000J0D01*
G01*
X6240000Y-6250000D02*
G75*
G03*
X6240000Y-6250000I-20000J0D01*
G01*
X6240000Y-7950000D02*
G75*
G03*
X6240000Y-7950000I-20000J0D01*
G01*
X6250000Y-6850000D02*
G75*
G03*
X6250000Y-6850000I-20000J0D01*
G01*
X6314950Y-5710000D02*
G75*
G03*
X6314950Y-5710000I-20000J0D01*
G01*
X6380000Y-5460000D02*
G75*
G03*
X6380000Y-5460000I-20000J0D01*
G01*
X6440000Y-6850000D02*
G75*
G03*
X6440000Y-6850000I-20000J0D01*
G01*
X6454950Y-6980000D02*
G75*
G03*
X6454950Y-6980000I-20000J0D01*
G01*
X6570000Y-5960000D02*
G75*
G03*
X6570000Y-5960000I-20000J0D01*
G01*
X6610000Y-7530000D02*
G75*
G03*
X6610000Y-7530000I-20000J0D01*
G01*
X6610000Y-7620000D02*
G75*
G03*
X6610000Y-7620000I-20000J0D01*
G01*
X6620000Y-6050000D02*
G75*
G03*
X6620000Y-6050000I-20000J0D01*
G01*
X6630000Y-8450000D02*
G75*
G03*
X6630000Y-8450000I-20000J0D01*
G01*
X6630000Y-8540000D02*
G75*
G03*
X6630000Y-8540000I-20000J0D01*
G01*
X6630000Y-8630000D02*
G75*
G03*
X6630000Y-8630000I-20000J0D01*
G01*
X6640000Y-10940000D02*
G75*
G03*
X6640000Y-10940000I-20000J0D01*
G01*
X6670000Y-5960000D02*
G75*
G03*
X6670000Y-5960000I-20000J0D01*
G01*
X6720000Y-13280000D02*
G75*
G03*
X6720000Y-13280000I-20000J0D01*
G01*
X6730000Y-10940000D02*
G75*
G03*
X6730000Y-10940000I-20000J0D01*
G01*
X6770000Y-13370000D02*
G75*
G03*
X6770000Y-13370000I-20000J0D01*
G01*
X6820000Y-13280000D02*
G75*
G03*
X6820000Y-13280000I-20000J0D01*
G01*
X6920000Y-7730000D02*
G75*
G03*
X6920000Y-7730000I-20000J0D01*
G01*
X6920000Y-13120000D02*
G75*
G03*
X6920000Y-13120000I-20000J0D01*
G01*
X6990000Y-8710000D02*
G75*
G03*
X6990000Y-8710000I-20000J0D01*
G01*
X6990000Y-8800000D02*
G75*
G03*
X6990000Y-8800000I-20000J0D01*
G01*
X6990000Y-8890000D02*
G75*
G03*
X6990000Y-8890000I-20000J0D01*
G01*
X7020000Y-6410000D02*
G75*
G03*
X7020000Y-6410000I-20000J0D01*
G01*
D14*
X5330000Y-6730000D02*
X5330000Y-6830000D01*
X5280000Y-6780000D02*
X5380000Y-6780000D01*
X5330000Y-6984000D02*
X5330000Y-7084000D01*
X5280000Y-7034000D02*
X5380000Y-7034000D01*
X5330000Y-7238000D02*
X5330000Y-7338000D01*
X5280000Y-7288000D02*
X5380000Y-7288000D01*
X5330000Y-7492000D02*
X5330000Y-7592000D01*
X5280000Y-7542000D02*
X5380000Y-7542000D01*
X5330000Y-7746000D02*
X5330000Y-7846000D01*
X5280000Y-7796000D02*
X5380000Y-7796000D01*
X5330000Y-8000000D02*
X5330000Y-8100000D01*
X5280000Y-8050000D02*
X5380000Y-8050000D01*
X5330000Y-8254000D02*
X5330000Y-8354000D01*
X5280000Y-8304000D02*
X5380000Y-8304000D01*
X5330000Y-8508000D02*
X5330000Y-8608000D01*
X5280000Y-8558000D02*
X5380000Y-8558000D01*
X5388000Y-10238000D02*
X5388000Y-10338000D01*
X5338000Y-10288000D02*
X5438000Y-10288000D01*
X5388000Y-10492000D02*
X5388000Y-10592000D01*
X5338000Y-10542000D02*
X5438000Y-10542000D01*
X5388000Y-10746000D02*
X5388000Y-10846000D01*
X5338000Y-10796000D02*
X5438000Y-10796000D01*
X5388000Y-11000000D02*
X5388000Y-11100000D01*
X5338000Y-11050000D02*
X5438000Y-11050000D01*
X5388000Y-11254000D02*
X5388000Y-11354000D01*
X5338000Y-11304000D02*
X5438000Y-11304000D01*
X5388000Y-11508000D02*
X5388000Y-11608000D01*
X5338000Y-11558000D02*
X5438000Y-11558000D01*
X5388000Y-11762000D02*
X5388000Y-11862000D01*
X5338000Y-11812000D02*
X5438000Y-11812000D01*
X6030000Y-13022000D02*
X6030000Y-13122000D01*
X5980000Y-13072000D02*
X6080000Y-13072000D01*
X6030000Y-13276000D02*
X6030000Y-13376000D01*
X5980000Y-13326000D02*
X6080000Y-13326000D01*
X6030000Y-13530000D02*
X6030000Y-13630000D01*
X5980000Y-13580000D02*
X6080000Y-13580000D01*
X6030000Y-13784000D02*
X6030000Y-13884000D01*
X5980000Y-13834000D02*
X6080000Y-13834000D01*
X6030000Y-14038000D02*
X6030000Y-14138000D01*
X5980000Y-14088000D02*
X6080000Y-14088000D01*
X6284000Y-13022000D02*
X6284000Y-13122000D01*
X6234000Y-13072000D02*
X6334000Y-13072000D01*
X6284000Y-13276000D02*
X6284000Y-13376000D01*
X6234000Y-13326000D02*
X6334000Y-13326000D01*
X6284000Y-13530000D02*
X6284000Y-13630000D01*
X6234000Y-13580000D02*
X6334000Y-13580000D01*
X6284000Y-13784000D02*
X6284000Y-13884000D01*
X6234000Y-13834000D02*
X6334000Y-13834000D01*
X6284000Y-14038000D02*
X6284000Y-14138000D01*
X6234000Y-14088000D02*
X6334000Y-14088000D01*
X6912000Y-10238000D02*
X6912000Y-10338000D01*
X6862000Y-10288000D02*
X6962000Y-10288000D01*
X6912000Y-10492000D02*
X6912000Y-10592000D01*
X6862000Y-10542000D02*
X6962000Y-10542000D01*
X6912000Y-10746000D02*
X6912000Y-10846000D01*
X6862000Y-10796000D02*
X6962000Y-10796000D01*
X6912000Y-11000000D02*
X6912000Y-11100000D01*
X6862000Y-11050000D02*
X6962000Y-11050000D01*
X6912000Y-11254000D02*
X6912000Y-11354000D01*
X6862000Y-11304000D02*
X6962000Y-11304000D01*
X6912000Y-11508000D02*
X6912000Y-11608000D01*
X6862000Y-11558000D02*
X6962000Y-11558000D01*
X6912000Y-11762000D02*
X6912000Y-11862000D01*
X6862000Y-11812000D02*
X6962000Y-11812000D01*
X6970000Y-4900000D02*
X6970000Y-5000000D01*
X6920000Y-4950000D02*
X7020000Y-4950000D01*
X6970000Y-5154000D02*
X6970000Y-5254000D01*
X6920000Y-5204000D02*
X7020000Y-5204000D01*
X6970000Y-5408000D02*
X6970000Y-5508000D01*
X6920000Y-5458000D02*
X7020000Y-5458000D01*
X6970000Y-5662000D02*
X6970000Y-5762000D01*
X6920000Y-5712000D02*
X7020000Y-5712000D01*
X6970000Y-5916000D02*
X6970000Y-6016000D01*
X6920000Y-5966000D02*
X7020000Y-5966000D01*
X6970000Y-6170000D02*
X6970000Y-6270000D01*
X6920000Y-6220000D02*
X7020000Y-6220000D01*
D11*
X5395119Y-14965024D02*
X5395119Y-14765024D01*
X5395119Y-14765024D02*
X5442738Y-14765024D01*
X5442738Y-14765024D02*
X5471310Y-14774548D01*
X5471310Y-14774548D02*
X5490357Y-14793595D01*
X5490357Y-14793595D02*
X5499881Y-14812643D01*
X5499881Y-14812643D02*
X5509405Y-14850738D01*
X5509405Y-14850738D02*
X5509405Y-14879309D01*
X5509405Y-14879309D02*
X5499881Y-14917405D01*
X5499881Y-14917405D02*
X5490357Y-14936452D01*
X5490357Y-14936452D02*
X5471310Y-14955500D01*
X5471310Y-14955500D02*
X5442738Y-14965024D01*
X5442738Y-14965024D02*
X5395119Y-14965024D01*
X5595119Y-14965024D02*
X5595119Y-14831690D01*
X5595119Y-14869786D02*
X5604643Y-14850738D01*
X5604643Y-14850738D02*
X5614167Y-14841214D01*
X5614167Y-14841214D02*
X5633214Y-14831690D01*
X5633214Y-14831690D02*
X5652262Y-14831690D01*
X5718928Y-14965024D02*
X5718928Y-14831690D01*
X5718928Y-14765024D02*
X5709405Y-14774548D01*
X5709405Y-14774548D02*
X5718928Y-14784071D01*
X5718928Y-14784071D02*
X5728452Y-14774548D01*
X5728452Y-14774548D02*
X5718928Y-14765024D01*
X5718928Y-14765024D02*
X5718928Y-14784071D01*
X5842738Y-14965024D02*
X5823690Y-14955500D01*
X5823690Y-14955500D02*
X5814167Y-14936452D01*
X5814167Y-14936452D02*
X5814167Y-14765024D01*
X5947500Y-14965024D02*
X5928452Y-14955500D01*
X5928452Y-14955500D02*
X5918928Y-14936452D01*
X5918928Y-14936452D02*
X5918928Y-14765024D01*
X6176071Y-14965024D02*
X6176071Y-14765024D01*
X6176071Y-14765024D02*
X6242738Y-14907881D01*
X6242738Y-14907881D02*
X6309405Y-14765024D01*
X6309405Y-14765024D02*
X6309405Y-14965024D01*
X6490357Y-14965024D02*
X6490357Y-14860262D01*
X6490357Y-14860262D02*
X6480833Y-14841214D01*
X6480833Y-14841214D02*
X6461786Y-14831690D01*
X6461786Y-14831690D02*
X6423690Y-14831690D01*
X6423690Y-14831690D02*
X6404643Y-14841214D01*
X6490357Y-14955500D02*
X6471309Y-14965024D01*
X6471309Y-14965024D02*
X6423690Y-14965024D01*
X6423690Y-14965024D02*
X6404643Y-14955500D01*
X6404643Y-14955500D02*
X6395119Y-14936452D01*
X6395119Y-14936452D02*
X6395119Y-14917405D01*
X6395119Y-14917405D02*
X6404643Y-14898357D01*
X6404643Y-14898357D02*
X6423690Y-14888833D01*
X6423690Y-14888833D02*
X6471309Y-14888833D01*
X6471309Y-14888833D02*
X6490357Y-14879309D01*
X6585595Y-14831690D02*
X6585595Y-15031690D01*
X6585595Y-14841214D02*
X6604643Y-14831690D01*
X6604643Y-14831690D02*
X6642738Y-14831690D01*
X6642738Y-14831690D02*
X6661786Y-14841214D01*
X6661786Y-14841214D02*
X6671309Y-14850738D01*
X6671309Y-14850738D02*
X6680833Y-14869786D01*
X6680833Y-14869786D02*
X6680833Y-14926928D01*
X6680833Y-14926928D02*
X6671309Y-14945976D01*
X6671309Y-14945976D02*
X6661786Y-14955500D01*
X6661786Y-14955500D02*
X6642738Y-14965024D01*
X6642738Y-14965024D02*
X6604643Y-14965024D01*
X6604643Y-14965024D02*
X6585595Y-14955500D01*
X6766548Y-14945976D02*
X6776071Y-14955500D01*
X6776071Y-14955500D02*
X6766548Y-14965024D01*
X6766548Y-14965024D02*
X6757024Y-14955500D01*
X6757024Y-14955500D02*
X6766548Y-14945976D01*
X6766548Y-14945976D02*
X6766548Y-14965024D01*
X6766548Y-14841214D02*
X6776071Y-14850738D01*
X6776071Y-14850738D02*
X6766548Y-14860262D01*
X6766548Y-14860262D02*
X6757024Y-14850738D01*
X6757024Y-14850738D02*
X6766548Y-14841214D01*
X6766548Y-14841214D02*
X6766548Y-14860262D01*
D12*
X5117500Y-15277500D02*
X5147500Y-15307500D01*
X5147500Y-15277500D02*
X5117500Y-15307500D01*
D11*
X5433214Y-15185024D02*
X5452262Y-15185024D01*
X5452262Y-15185024D02*
X5471310Y-15194548D01*
X5471310Y-15194548D02*
X5480833Y-15204071D01*
X5480833Y-15204071D02*
X5490357Y-15223119D01*
X5490357Y-15223119D02*
X5499881Y-15261214D01*
X5499881Y-15261214D02*
X5499881Y-15308833D01*
X5499881Y-15308833D02*
X5490357Y-15346928D01*
X5490357Y-15346928D02*
X5480833Y-15365976D01*
X5480833Y-15365976D02*
X5471310Y-15375500D01*
X5471310Y-15375500D02*
X5452262Y-15385024D01*
X5452262Y-15385024D02*
X5433214Y-15385024D01*
X5433214Y-15385024D02*
X5414167Y-15375500D01*
X5414167Y-15375500D02*
X5404643Y-15365976D01*
X5404643Y-15365976D02*
X5395119Y-15346928D01*
X5395119Y-15346928D02*
X5385595Y-15308833D01*
X5385595Y-15308833D02*
X5385595Y-15261214D01*
X5385595Y-15261214D02*
X5395119Y-15223119D01*
X5395119Y-15223119D02*
X5404643Y-15204071D01*
X5404643Y-15204071D02*
X5414167Y-15194548D01*
X5414167Y-15194548D02*
X5433214Y-15185024D01*
X5585595Y-15365976D02*
X5595119Y-15375500D01*
X5595119Y-15375500D02*
X5585595Y-15385024D01*
X5585595Y-15385024D02*
X5576071Y-15375500D01*
X5576071Y-15375500D02*
X5585595Y-15365976D01*
X5585595Y-15365976D02*
X5585595Y-15385024D01*
X5661786Y-15185024D02*
X5785595Y-15185024D01*
X5785595Y-15185024D02*
X5718928Y-15261214D01*
X5718928Y-15261214D02*
X5747500Y-15261214D01*
X5747500Y-15261214D02*
X5766548Y-15270738D01*
X5766548Y-15270738D02*
X5776071Y-15280262D01*
X5776071Y-15280262D02*
X5785595Y-15299309D01*
X5785595Y-15299309D02*
X5785595Y-15346928D01*
X5785595Y-15346928D02*
X5776071Y-15365976D01*
X5776071Y-15365976D02*
X5766548Y-15375500D01*
X5766548Y-15375500D02*
X5747500Y-15385024D01*
X5747500Y-15385024D02*
X5690357Y-15385024D01*
X5690357Y-15385024D02*
X5671309Y-15375500D01*
X5671309Y-15375500D02*
X5661786Y-15365976D01*
X5909405Y-15185024D02*
X5928452Y-15185024D01*
X5928452Y-15185024D02*
X5947500Y-15194548D01*
X5947500Y-15194548D02*
X5957024Y-15204071D01*
X5957024Y-15204071D02*
X5966548Y-15223119D01*
X5966548Y-15223119D02*
X5976071Y-15261214D01*
X5976071Y-15261214D02*
X5976071Y-15308833D01*
X5976071Y-15308833D02*
X5966548Y-15346928D01*
X5966548Y-15346928D02*
X5957024Y-15365976D01*
X5957024Y-15365976D02*
X5947500Y-15375500D01*
X5947500Y-15375500D02*
X5928452Y-15385024D01*
X5928452Y-15385024D02*
X5909405Y-15385024D01*
X5909405Y-15385024D02*
X5890357Y-15375500D01*
X5890357Y-15375500D02*
X5880833Y-15365976D01*
X5880833Y-15365976D02*
X5871309Y-15346928D01*
X5871309Y-15346928D02*
X5861786Y-15308833D01*
X5861786Y-15308833D02*
X5861786Y-15261214D01*
X5861786Y-15261214D02*
X5871309Y-15223119D01*
X5871309Y-15223119D02*
X5880833Y-15204071D01*
X5880833Y-15204071D02*
X5890357Y-15194548D01*
X5890357Y-15194548D02*
X5909405Y-15185024D01*
X6099881Y-15185024D02*
X6118929Y-15185024D01*
X6118929Y-15185024D02*
X6137976Y-15194548D01*
X6137976Y-15194548D02*
X6147500Y-15204071D01*
X6147500Y-15204071D02*
X6157024Y-15223119D01*
X6157024Y-15223119D02*
X6166548Y-15261214D01*
X6166548Y-15261214D02*
X6166548Y-15308833D01*
X6166548Y-15308833D02*
X6157024Y-15346928D01*
X6157024Y-15346928D02*
X6147500Y-15365976D01*
X6147500Y-15365976D02*
X6137976Y-15375500D01*
X6137976Y-15375500D02*
X6118929Y-15385024D01*
X6118929Y-15385024D02*
X6099881Y-15385024D01*
X6099881Y-15385024D02*
X6080833Y-15375500D01*
X6080833Y-15375500D02*
X6071309Y-15365976D01*
X6071309Y-15365976D02*
X6061786Y-15346928D01*
X6061786Y-15346928D02*
X6052262Y-15308833D01*
X6052262Y-15308833D02*
X6052262Y-15261214D01*
X6052262Y-15261214D02*
X6061786Y-15223119D01*
X6061786Y-15223119D02*
X6071309Y-15204071D01*
X6071309Y-15204071D02*
X6080833Y-15194548D01*
X6080833Y-15194548D02*
X6099881Y-15185024D01*
X6252262Y-15385024D02*
X6252262Y-15251690D01*
X6252262Y-15270738D02*
X6261786Y-15261214D01*
X6261786Y-15261214D02*
X6280833Y-15251690D01*
X6280833Y-15251690D02*
X6309405Y-15251690D01*
X6309405Y-15251690D02*
X6328452Y-15261214D01*
X6328452Y-15261214D02*
X6337976Y-15280262D01*
X6337976Y-15280262D02*
X6337976Y-15385024D01*
X6337976Y-15280262D02*
X6347500Y-15261214D01*
X6347500Y-15261214D02*
X6366548Y-15251690D01*
X6366548Y-15251690D02*
X6395119Y-15251690D01*
X6395119Y-15251690D02*
X6414167Y-15261214D01*
X6414167Y-15261214D02*
X6423690Y-15280262D01*
X6423690Y-15280262D02*
X6423690Y-15385024D01*
X6518929Y-15385024D02*
X6518929Y-15251690D01*
X6518929Y-15270738D02*
X6528452Y-15261214D01*
X6528452Y-15261214D02*
X6547500Y-15251690D01*
X6547500Y-15251690D02*
X6576071Y-15251690D01*
X6576071Y-15251690D02*
X6595119Y-15261214D01*
X6595119Y-15261214D02*
X6604643Y-15280262D01*
X6604643Y-15280262D02*
X6604643Y-15385024D01*
X6604643Y-15280262D02*
X6614167Y-15261214D01*
X6614167Y-15261214D02*
X6633214Y-15251690D01*
X6633214Y-15251690D02*
X6661786Y-15251690D01*
X6661786Y-15251690D02*
X6680833Y-15261214D01*
X6680833Y-15261214D02*
X6690357Y-15280262D01*
X6690357Y-15280262D02*
X6690357Y-15385024D01*
X7080833Y-15175500D02*
X6909405Y-15432643D01*
X7337976Y-15185024D02*
X7357024Y-15185024D01*
X7357024Y-15185024D02*
X7376072Y-15194548D01*
X7376072Y-15194548D02*
X7385595Y-15204071D01*
X7385595Y-15204071D02*
X7395119Y-15223119D01*
X7395119Y-15223119D02*
X7404643Y-15261214D01*
X7404643Y-15261214D02*
X7404643Y-15308833D01*
X7404643Y-15308833D02*
X7395119Y-15346928D01*
X7395119Y-15346928D02*
X7385595Y-15365976D01*
X7385595Y-15365976D02*
X7376072Y-15375500D01*
X7376072Y-15375500D02*
X7357024Y-15385024D01*
X7357024Y-15385024D02*
X7337976Y-15385024D01*
X7337976Y-15385024D02*
X7318929Y-15375500D01*
X7318929Y-15375500D02*
X7309405Y-15365976D01*
X7309405Y-15365976D02*
X7299881Y-15346928D01*
X7299881Y-15346928D02*
X7290357Y-15308833D01*
X7290357Y-15308833D02*
X7290357Y-15261214D01*
X7290357Y-15261214D02*
X7299881Y-15223119D01*
X7299881Y-15223119D02*
X7309405Y-15204071D01*
X7309405Y-15204071D02*
X7318929Y-15194548D01*
X7318929Y-15194548D02*
X7337976Y-15185024D01*
X7490357Y-15365976D02*
X7499881Y-15375500D01*
X7499881Y-15375500D02*
X7490357Y-15385024D01*
X7490357Y-15385024D02*
X7480833Y-15375500D01*
X7480833Y-15375500D02*
X7490357Y-15365976D01*
X7490357Y-15365976D02*
X7490357Y-15385024D01*
X7623691Y-15185024D02*
X7642738Y-15185024D01*
X7642738Y-15185024D02*
X7661786Y-15194548D01*
X7661786Y-15194548D02*
X7671310Y-15204071D01*
X7671310Y-15204071D02*
X7680833Y-15223119D01*
X7680833Y-15223119D02*
X7690357Y-15261214D01*
X7690357Y-15261214D02*
X7690357Y-15308833D01*
X7690357Y-15308833D02*
X7680833Y-15346928D01*
X7680833Y-15346928D02*
X7671310Y-15365976D01*
X7671310Y-15365976D02*
X7661786Y-15375500D01*
X7661786Y-15375500D02*
X7642738Y-15385024D01*
X7642738Y-15385024D02*
X7623691Y-15385024D01*
X7623691Y-15385024D02*
X7604643Y-15375500D01*
X7604643Y-15375500D02*
X7595119Y-15365976D01*
X7595119Y-15365976D02*
X7585595Y-15346928D01*
X7585595Y-15346928D02*
X7576072Y-15308833D01*
X7576072Y-15308833D02*
X7576072Y-15261214D01*
X7576072Y-15261214D02*
X7585595Y-15223119D01*
X7585595Y-15223119D02*
X7595119Y-15204071D01*
X7595119Y-15204071D02*
X7604643Y-15194548D01*
X7604643Y-15194548D02*
X7623691Y-15185024D01*
X7880833Y-15385024D02*
X7766548Y-15385024D01*
X7823691Y-15385024D02*
X7823691Y-15185024D01*
X7823691Y-15185024D02*
X7804643Y-15213595D01*
X7804643Y-15213595D02*
X7785595Y-15232643D01*
X7785595Y-15232643D02*
X7766548Y-15242167D01*
X8071310Y-15385024D02*
X7957024Y-15385024D01*
X8014167Y-15385024D02*
X8014167Y-15185024D01*
X8014167Y-15185024D02*
X7995119Y-15213595D01*
X7995119Y-15213595D02*
X7976072Y-15232643D01*
X7976072Y-15232643D02*
X7957024Y-15242167D01*
X8185595Y-15270738D02*
X8166548Y-15261214D01*
X8166548Y-15261214D02*
X8157024Y-15251690D01*
X8157024Y-15251690D02*
X8147500Y-15232643D01*
X8147500Y-15232643D02*
X8147500Y-15223119D01*
X8147500Y-15223119D02*
X8157024Y-15204071D01*
X8157024Y-15204071D02*
X8166548Y-15194548D01*
X8166548Y-15194548D02*
X8185595Y-15185024D01*
X8185595Y-15185024D02*
X8223691Y-15185024D01*
X8223691Y-15185024D02*
X8242738Y-15194548D01*
X8242738Y-15194548D02*
X8252262Y-15204071D01*
X8252262Y-15204071D02*
X8261786Y-15223119D01*
X8261786Y-15223119D02*
X8261786Y-15232643D01*
X8261786Y-15232643D02*
X8252262Y-15251690D01*
X8252262Y-15251690D02*
X8242738Y-15261214D01*
X8242738Y-15261214D02*
X8223691Y-15270738D01*
X8223691Y-15270738D02*
X8185595Y-15270738D01*
X8185595Y-15270738D02*
X8166548Y-15280262D01*
X8166548Y-15280262D02*
X8157024Y-15289786D01*
X8157024Y-15289786D02*
X8147500Y-15308833D01*
X8147500Y-15308833D02*
X8147500Y-15346928D01*
X8147500Y-15346928D02*
X8157024Y-15365976D01*
X8157024Y-15365976D02*
X8166548Y-15375500D01*
X8166548Y-15375500D02*
X8185595Y-15385024D01*
X8185595Y-15385024D02*
X8223691Y-15385024D01*
X8223691Y-15385024D02*
X8242738Y-15375500D01*
X8242738Y-15375500D02*
X8252262Y-15365976D01*
X8252262Y-15365976D02*
X8261786Y-15346928D01*
X8261786Y-15346928D02*
X8261786Y-15308833D01*
X8261786Y-15308833D02*
X8252262Y-15289786D01*
X8252262Y-15289786D02*
X8242738Y-15280262D01*
X8242738Y-15280262D02*
X8223691Y-15270738D01*
X8337976Y-15185024D02*
X8337976Y-15223119D01*
X8414167Y-15185024D02*
X8414167Y-15223119D01*
X8709405Y-15461214D02*
X8699881Y-15451690D01*
X8699881Y-15451690D02*
X8680834Y-15423119D01*
X8680834Y-15423119D02*
X8671310Y-15404071D01*
X8671310Y-15404071D02*
X8661786Y-15375500D01*
X8661786Y-15375500D02*
X8652262Y-15327881D01*
X8652262Y-15327881D02*
X8652262Y-15289786D01*
X8652262Y-15289786D02*
X8661786Y-15242167D01*
X8661786Y-15242167D02*
X8671310Y-15213595D01*
X8671310Y-15213595D02*
X8680834Y-15194548D01*
X8680834Y-15194548D02*
X8699881Y-15165976D01*
X8699881Y-15165976D02*
X8709405Y-15156452D01*
X8776072Y-15204071D02*
X8785596Y-15194548D01*
X8785596Y-15194548D02*
X8804643Y-15185024D01*
X8804643Y-15185024D02*
X8852262Y-15185024D01*
X8852262Y-15185024D02*
X8871310Y-15194548D01*
X8871310Y-15194548D02*
X8880834Y-15204071D01*
X8880834Y-15204071D02*
X8890357Y-15223119D01*
X8890357Y-15223119D02*
X8890357Y-15242167D01*
X8890357Y-15242167D02*
X8880834Y-15270738D01*
X8880834Y-15270738D02*
X8766548Y-15385024D01*
X8766548Y-15385024D02*
X8890357Y-15385024D01*
X9128453Y-15385024D02*
X9128453Y-15185024D01*
X9214167Y-15385024D02*
X9214167Y-15280262D01*
X9214167Y-15280262D02*
X9204643Y-15261214D01*
X9204643Y-15261214D02*
X9185596Y-15251690D01*
X9185596Y-15251690D02*
X9157024Y-15251690D01*
X9157024Y-15251690D02*
X9137977Y-15261214D01*
X9137977Y-15261214D02*
X9128453Y-15270738D01*
X9337977Y-15385024D02*
X9318929Y-15375500D01*
X9318929Y-15375500D02*
X9309405Y-15365976D01*
X9309405Y-15365976D02*
X9299881Y-15346928D01*
X9299881Y-15346928D02*
X9299881Y-15289786D01*
X9299881Y-15289786D02*
X9309405Y-15270738D01*
X9309405Y-15270738D02*
X9318929Y-15261214D01*
X9318929Y-15261214D02*
X9337977Y-15251690D01*
X9337977Y-15251690D02*
X9366548Y-15251690D01*
X9366548Y-15251690D02*
X9385596Y-15261214D01*
X9385596Y-15261214D02*
X9395119Y-15270738D01*
X9395119Y-15270738D02*
X9404643Y-15289786D01*
X9404643Y-15289786D02*
X9404643Y-15346928D01*
X9404643Y-15346928D02*
X9395119Y-15365976D01*
X9395119Y-15365976D02*
X9385596Y-15375500D01*
X9385596Y-15375500D02*
X9366548Y-15385024D01*
X9366548Y-15385024D02*
X9337977Y-15385024D01*
X9518929Y-15385024D02*
X9499881Y-15375500D01*
X9499881Y-15375500D02*
X9490358Y-15356452D01*
X9490358Y-15356452D02*
X9490358Y-15185024D01*
X9671310Y-15375500D02*
X9652262Y-15385024D01*
X9652262Y-15385024D02*
X9614167Y-15385024D01*
X9614167Y-15385024D02*
X9595119Y-15375500D01*
X9595119Y-15375500D02*
X9585596Y-15356452D01*
X9585596Y-15356452D02*
X9585596Y-15280262D01*
X9585596Y-15280262D02*
X9595119Y-15261214D01*
X9595119Y-15261214D02*
X9614167Y-15251690D01*
X9614167Y-15251690D02*
X9652262Y-15251690D01*
X9652262Y-15251690D02*
X9671310Y-15261214D01*
X9671310Y-15261214D02*
X9680834Y-15280262D01*
X9680834Y-15280262D02*
X9680834Y-15299309D01*
X9680834Y-15299309D02*
X9585596Y-15318357D01*
X9757024Y-15375500D02*
X9776072Y-15385024D01*
X9776072Y-15385024D02*
X9814167Y-15385024D01*
X9814167Y-15385024D02*
X9833215Y-15375500D01*
X9833215Y-15375500D02*
X9842739Y-15356452D01*
X9842739Y-15356452D02*
X9842739Y-15346928D01*
X9842739Y-15346928D02*
X9833215Y-15327881D01*
X9833215Y-15327881D02*
X9814167Y-15318357D01*
X9814167Y-15318357D02*
X9785596Y-15318357D01*
X9785596Y-15318357D02*
X9766548Y-15308833D01*
X9766548Y-15308833D02*
X9757024Y-15289786D01*
X9757024Y-15289786D02*
X9757024Y-15280262D01*
X9757024Y-15280262D02*
X9766548Y-15261214D01*
X9766548Y-15261214D02*
X9785596Y-15251690D01*
X9785596Y-15251690D02*
X9814167Y-15251690D01*
X9814167Y-15251690D02*
X9833215Y-15261214D01*
X9909405Y-15461214D02*
X9918929Y-15451690D01*
X9918929Y-15451690D02*
X9937977Y-15423119D01*
X9937977Y-15423119D02*
X9947500Y-15404071D01*
X9947500Y-15404071D02*
X9957024Y-15375500D01*
X9957024Y-15375500D02*
X9966548Y-15327881D01*
X9966548Y-15327881D02*
X9966548Y-15289786D01*
X9966548Y-15289786D02*
X9957024Y-15242167D01*
X9957024Y-15242167D02*
X9947500Y-15213595D01*
X9947500Y-15213595D02*
X9937977Y-15194548D01*
X9937977Y-15194548D02*
X9918929Y-15165976D01*
X9918929Y-15165976D02*
X9909405Y-15156452D01*
D13*
X5147500Y-15556500D02*
G75*
G03*
X5147500Y-15556500I-20000J0D01*
G01*
D11*
X5433214Y-15449024D02*
X5452262Y-15449024D01*
X5452262Y-15449024D02*
X5471310Y-15458548D01*
X5471310Y-15458548D02*
X5480833Y-15468071D01*
X5480833Y-15468071D02*
X5490357Y-15487119D01*
X5490357Y-15487119D02*
X5499881Y-15525214D01*
X5499881Y-15525214D02*
X5499881Y-15572833D01*
X5499881Y-15572833D02*
X5490357Y-15610928D01*
X5490357Y-15610928D02*
X5480833Y-15629976D01*
X5480833Y-15629976D02*
X5471310Y-15639500D01*
X5471310Y-15639500D02*
X5452262Y-15649024D01*
X5452262Y-15649024D02*
X5433214Y-15649024D01*
X5433214Y-15649024D02*
X5414167Y-15639500D01*
X5414167Y-15639500D02*
X5404643Y-15629976D01*
X5404643Y-15629976D02*
X5395119Y-15610928D01*
X5395119Y-15610928D02*
X5385595Y-15572833D01*
X5385595Y-15572833D02*
X5385595Y-15525214D01*
X5385595Y-15525214D02*
X5395119Y-15487119D01*
X5395119Y-15487119D02*
X5404643Y-15468071D01*
X5404643Y-15468071D02*
X5414167Y-15458548D01*
X5414167Y-15458548D02*
X5433214Y-15449024D01*
X5585595Y-15629976D02*
X5595119Y-15639500D01*
X5595119Y-15639500D02*
X5585595Y-15649024D01*
X5585595Y-15649024D02*
X5576071Y-15639500D01*
X5576071Y-15639500D02*
X5585595Y-15629976D01*
X5585595Y-15629976D02*
X5585595Y-15649024D01*
X5766548Y-15515690D02*
X5766548Y-15649024D01*
X5718928Y-15439500D02*
X5671309Y-15582357D01*
X5671309Y-15582357D02*
X5795119Y-15582357D01*
X5909405Y-15449024D02*
X5928452Y-15449024D01*
X5928452Y-15449024D02*
X5947500Y-15458548D01*
X5947500Y-15458548D02*
X5957024Y-15468071D01*
X5957024Y-15468071D02*
X5966548Y-15487119D01*
X5966548Y-15487119D02*
X5976071Y-15525214D01*
X5976071Y-15525214D02*
X5976071Y-15572833D01*
X5976071Y-15572833D02*
X5966548Y-15610928D01*
X5966548Y-15610928D02*
X5957024Y-15629976D01*
X5957024Y-15629976D02*
X5947500Y-15639500D01*
X5947500Y-15639500D02*
X5928452Y-15649024D01*
X5928452Y-15649024D02*
X5909405Y-15649024D01*
X5909405Y-15649024D02*
X5890357Y-15639500D01*
X5890357Y-15639500D02*
X5880833Y-15629976D01*
X5880833Y-15629976D02*
X5871309Y-15610928D01*
X5871309Y-15610928D02*
X5861786Y-15572833D01*
X5861786Y-15572833D02*
X5861786Y-15525214D01*
X5861786Y-15525214D02*
X5871309Y-15487119D01*
X5871309Y-15487119D02*
X5880833Y-15468071D01*
X5880833Y-15468071D02*
X5890357Y-15458548D01*
X5890357Y-15458548D02*
X5909405Y-15449024D01*
X6099881Y-15449024D02*
X6118929Y-15449024D01*
X6118929Y-15449024D02*
X6137976Y-15458548D01*
X6137976Y-15458548D02*
X6147500Y-15468071D01*
X6147500Y-15468071D02*
X6157024Y-15487119D01*
X6157024Y-15487119D02*
X6166548Y-15525214D01*
X6166548Y-15525214D02*
X6166548Y-15572833D01*
X6166548Y-15572833D02*
X6157024Y-15610928D01*
X6157024Y-15610928D02*
X6147500Y-15629976D01*
X6147500Y-15629976D02*
X6137976Y-15639500D01*
X6137976Y-15639500D02*
X6118929Y-15649024D01*
X6118929Y-15649024D02*
X6099881Y-15649024D01*
X6099881Y-15649024D02*
X6080833Y-15639500D01*
X6080833Y-15639500D02*
X6071309Y-15629976D01*
X6071309Y-15629976D02*
X6061786Y-15610928D01*
X6061786Y-15610928D02*
X6052262Y-15572833D01*
X6052262Y-15572833D02*
X6052262Y-15525214D01*
X6052262Y-15525214D02*
X6061786Y-15487119D01*
X6061786Y-15487119D02*
X6071309Y-15468071D01*
X6071309Y-15468071D02*
X6080833Y-15458548D01*
X6080833Y-15458548D02*
X6099881Y-15449024D01*
X6252262Y-15649024D02*
X6252262Y-15515690D01*
X6252262Y-15534738D02*
X6261786Y-15525214D01*
X6261786Y-15525214D02*
X6280833Y-15515690D01*
X6280833Y-15515690D02*
X6309405Y-15515690D01*
X6309405Y-15515690D02*
X6328452Y-15525214D01*
X6328452Y-15525214D02*
X6337976Y-15544262D01*
X6337976Y-15544262D02*
X6337976Y-15649024D01*
X6337976Y-15544262D02*
X6347500Y-15525214D01*
X6347500Y-15525214D02*
X6366548Y-15515690D01*
X6366548Y-15515690D02*
X6395119Y-15515690D01*
X6395119Y-15515690D02*
X6414167Y-15525214D01*
X6414167Y-15525214D02*
X6423690Y-15544262D01*
X6423690Y-15544262D02*
X6423690Y-15649024D01*
X6518929Y-15649024D02*
X6518929Y-15515690D01*
X6518929Y-15534738D02*
X6528452Y-15525214D01*
X6528452Y-15525214D02*
X6547500Y-15515690D01*
X6547500Y-15515690D02*
X6576071Y-15515690D01*
X6576071Y-15515690D02*
X6595119Y-15525214D01*
X6595119Y-15525214D02*
X6604643Y-15544262D01*
X6604643Y-15544262D02*
X6604643Y-15649024D01*
X6604643Y-15544262D02*
X6614167Y-15525214D01*
X6614167Y-15525214D02*
X6633214Y-15515690D01*
X6633214Y-15515690D02*
X6661786Y-15515690D01*
X6661786Y-15515690D02*
X6680833Y-15525214D01*
X6680833Y-15525214D02*
X6690357Y-15544262D01*
X6690357Y-15544262D02*
X6690357Y-15649024D01*
X7080833Y-15439500D02*
X6909405Y-15696643D01*
X7337976Y-15449024D02*
X7357024Y-15449024D01*
X7357024Y-15449024D02*
X7376072Y-15458548D01*
X7376072Y-15458548D02*
X7385595Y-15468071D01*
X7385595Y-15468071D02*
X7395119Y-15487119D01*
X7395119Y-15487119D02*
X7404643Y-15525214D01*
X7404643Y-15525214D02*
X7404643Y-15572833D01*
X7404643Y-15572833D02*
X7395119Y-15610928D01*
X7395119Y-15610928D02*
X7385595Y-15629976D01*
X7385595Y-15629976D02*
X7376072Y-15639500D01*
X7376072Y-15639500D02*
X7357024Y-15649024D01*
X7357024Y-15649024D02*
X7337976Y-15649024D01*
X7337976Y-15649024D02*
X7318929Y-15639500D01*
X7318929Y-15639500D02*
X7309405Y-15629976D01*
X7309405Y-15629976D02*
X7299881Y-15610928D01*
X7299881Y-15610928D02*
X7290357Y-15572833D01*
X7290357Y-15572833D02*
X7290357Y-15525214D01*
X7290357Y-15525214D02*
X7299881Y-15487119D01*
X7299881Y-15487119D02*
X7309405Y-15468071D01*
X7309405Y-15468071D02*
X7318929Y-15458548D01*
X7318929Y-15458548D02*
X7337976Y-15449024D01*
X7490357Y-15629976D02*
X7499881Y-15639500D01*
X7499881Y-15639500D02*
X7490357Y-15649024D01*
X7490357Y-15649024D02*
X7480833Y-15639500D01*
X7480833Y-15639500D02*
X7490357Y-15629976D01*
X7490357Y-15629976D02*
X7490357Y-15649024D01*
X7623691Y-15449024D02*
X7642738Y-15449024D01*
X7642738Y-15449024D02*
X7661786Y-15458548D01*
X7661786Y-15458548D02*
X7671310Y-15468071D01*
X7671310Y-15468071D02*
X7680833Y-15487119D01*
X7680833Y-15487119D02*
X7690357Y-15525214D01*
X7690357Y-15525214D02*
X7690357Y-15572833D01*
X7690357Y-15572833D02*
X7680833Y-15610928D01*
X7680833Y-15610928D02*
X7671310Y-15629976D01*
X7671310Y-15629976D02*
X7661786Y-15639500D01*
X7661786Y-15639500D02*
X7642738Y-15649024D01*
X7642738Y-15649024D02*
X7623691Y-15649024D01*
X7623691Y-15649024D02*
X7604643Y-15639500D01*
X7604643Y-15639500D02*
X7595119Y-15629976D01*
X7595119Y-15629976D02*
X7585595Y-15610928D01*
X7585595Y-15610928D02*
X7576072Y-15572833D01*
X7576072Y-15572833D02*
X7576072Y-15525214D01*
X7576072Y-15525214D02*
X7585595Y-15487119D01*
X7585595Y-15487119D02*
X7595119Y-15468071D01*
X7595119Y-15468071D02*
X7604643Y-15458548D01*
X7604643Y-15458548D02*
X7623691Y-15449024D01*
X7880833Y-15649024D02*
X7766548Y-15649024D01*
X7823691Y-15649024D02*
X7823691Y-15449024D01*
X7823691Y-15449024D02*
X7804643Y-15477595D01*
X7804643Y-15477595D02*
X7785595Y-15496643D01*
X7785595Y-15496643D02*
X7766548Y-15506167D01*
X8061786Y-15449024D02*
X7966548Y-15449024D01*
X7966548Y-15449024D02*
X7957024Y-15544262D01*
X7957024Y-15544262D02*
X7966548Y-15534738D01*
X7966548Y-15534738D02*
X7985595Y-15525214D01*
X7985595Y-15525214D02*
X8033214Y-15525214D01*
X8033214Y-15525214D02*
X8052262Y-15534738D01*
X8052262Y-15534738D02*
X8061786Y-15544262D01*
X8061786Y-15544262D02*
X8071310Y-15563309D01*
X8071310Y-15563309D02*
X8071310Y-15610928D01*
X8071310Y-15610928D02*
X8061786Y-15629976D01*
X8061786Y-15629976D02*
X8052262Y-15639500D01*
X8052262Y-15639500D02*
X8033214Y-15649024D01*
X8033214Y-15649024D02*
X7985595Y-15649024D01*
X7985595Y-15649024D02*
X7966548Y-15639500D01*
X7966548Y-15639500D02*
X7957024Y-15629976D01*
X8137976Y-15449024D02*
X8271310Y-15449024D01*
X8271310Y-15449024D02*
X8185595Y-15649024D01*
X8337976Y-15449024D02*
X8337976Y-15487119D01*
X8414167Y-15449024D02*
X8414167Y-15487119D01*
X8709405Y-15725214D02*
X8699881Y-15715690D01*
X8699881Y-15715690D02*
X8680834Y-15687119D01*
X8680834Y-15687119D02*
X8671310Y-15668071D01*
X8671310Y-15668071D02*
X8661786Y-15639500D01*
X8661786Y-15639500D02*
X8652262Y-15591881D01*
X8652262Y-15591881D02*
X8652262Y-15553786D01*
X8652262Y-15553786D02*
X8661786Y-15506167D01*
X8661786Y-15506167D02*
X8671310Y-15477595D01*
X8671310Y-15477595D02*
X8680834Y-15458548D01*
X8680834Y-15458548D02*
X8699881Y-15429976D01*
X8699881Y-15429976D02*
X8709405Y-15420452D01*
X8880834Y-15449024D02*
X8785596Y-15449024D01*
X8785596Y-15449024D02*
X8776072Y-15544262D01*
X8776072Y-15544262D02*
X8785596Y-15534738D01*
X8785596Y-15534738D02*
X8804643Y-15525214D01*
X8804643Y-15525214D02*
X8852262Y-15525214D01*
X8852262Y-15525214D02*
X8871310Y-15534738D01*
X8871310Y-15534738D02*
X8880834Y-15544262D01*
X8880834Y-15544262D02*
X8890357Y-15563309D01*
X8890357Y-15563309D02*
X8890357Y-15610928D01*
X8890357Y-15610928D02*
X8880834Y-15629976D01*
X8880834Y-15629976D02*
X8871310Y-15639500D01*
X8871310Y-15639500D02*
X8852262Y-15649024D01*
X8852262Y-15649024D02*
X8804643Y-15649024D01*
X8804643Y-15649024D02*
X8785596Y-15639500D01*
X8785596Y-15639500D02*
X8776072Y-15629976D01*
X8957024Y-15449024D02*
X9080834Y-15449024D01*
X9080834Y-15449024D02*
X9014167Y-15525214D01*
X9014167Y-15525214D02*
X9042738Y-15525214D01*
X9042738Y-15525214D02*
X9061786Y-15534738D01*
X9061786Y-15534738D02*
X9071310Y-15544262D01*
X9071310Y-15544262D02*
X9080834Y-15563309D01*
X9080834Y-15563309D02*
X9080834Y-15610928D01*
X9080834Y-15610928D02*
X9071310Y-15629976D01*
X9071310Y-15629976D02*
X9061786Y-15639500D01*
X9061786Y-15639500D02*
X9042738Y-15649024D01*
X9042738Y-15649024D02*
X8985596Y-15649024D01*
X8985596Y-15649024D02*
X8966548Y-15639500D01*
X8966548Y-15639500D02*
X8957024Y-15629976D01*
X9318929Y-15649024D02*
X9318929Y-15449024D01*
X9404643Y-15649024D02*
X9404643Y-15544262D01*
X9404643Y-15544262D02*
X9395119Y-15525214D01*
X9395119Y-15525214D02*
X9376072Y-15515690D01*
X9376072Y-15515690D02*
X9347500Y-15515690D01*
X9347500Y-15515690D02*
X9328453Y-15525214D01*
X9328453Y-15525214D02*
X9318929Y-15534738D01*
X9528453Y-15649024D02*
X9509405Y-15639500D01*
X9509405Y-15639500D02*
X9499881Y-15629976D01*
X9499881Y-15629976D02*
X9490358Y-15610928D01*
X9490358Y-15610928D02*
X9490358Y-15553786D01*
X9490358Y-15553786D02*
X9499881Y-15534738D01*
X9499881Y-15534738D02*
X9509405Y-15525214D01*
X9509405Y-15525214D02*
X9528453Y-15515690D01*
X9528453Y-15515690D02*
X9557024Y-15515690D01*
X9557024Y-15515690D02*
X9576072Y-15525214D01*
X9576072Y-15525214D02*
X9585596Y-15534738D01*
X9585596Y-15534738D02*
X9595119Y-15553786D01*
X9595119Y-15553786D02*
X9595119Y-15610928D01*
X9595119Y-15610928D02*
X9585596Y-15629976D01*
X9585596Y-15629976D02*
X9576072Y-15639500D01*
X9576072Y-15639500D02*
X9557024Y-15649024D01*
X9557024Y-15649024D02*
X9528453Y-15649024D01*
X9709405Y-15649024D02*
X9690358Y-15639500D01*
X9690358Y-15639500D02*
X9680834Y-15620452D01*
X9680834Y-15620452D02*
X9680834Y-15449024D01*
X9861786Y-15639500D02*
X9842739Y-15649024D01*
X9842739Y-15649024D02*
X9804643Y-15649024D01*
X9804643Y-15649024D02*
X9785596Y-15639500D01*
X9785596Y-15639500D02*
X9776072Y-15620452D01*
X9776072Y-15620452D02*
X9776072Y-15544262D01*
X9776072Y-15544262D02*
X9785596Y-15525214D01*
X9785596Y-15525214D02*
X9804643Y-15515690D01*
X9804643Y-15515690D02*
X9842739Y-15515690D01*
X9842739Y-15515690D02*
X9861786Y-15525214D01*
X9861786Y-15525214D02*
X9871310Y-15544262D01*
X9871310Y-15544262D02*
X9871310Y-15563309D01*
X9871310Y-15563309D02*
X9776072Y-15582357D01*
X9947500Y-15639500D02*
X9966548Y-15649024D01*
X9966548Y-15649024D02*
X10004643Y-15649024D01*
X10004643Y-15649024D02*
X10023691Y-15639500D01*
X10023691Y-15639500D02*
X10033215Y-15620452D01*
X10033215Y-15620452D02*
X10033215Y-15610928D01*
X10033215Y-15610928D02*
X10023691Y-15591881D01*
X10023691Y-15591881D02*
X10004643Y-15582357D01*
X10004643Y-15582357D02*
X9976072Y-15582357D01*
X9976072Y-15582357D02*
X9957024Y-15572833D01*
X9957024Y-15572833D02*
X9947500Y-15553786D01*
X9947500Y-15553786D02*
X9947500Y-15544262D01*
X9947500Y-15544262D02*
X9957024Y-15525214D01*
X9957024Y-15525214D02*
X9976072Y-15515690D01*
X9976072Y-15515690D02*
X10004643Y-15515690D01*
X10004643Y-15515690D02*
X10023691Y-15525214D01*
X10099881Y-15725214D02*
X10109405Y-15715690D01*
X10109405Y-15715690D02*
X10128453Y-15687119D01*
X10128453Y-15687119D02*
X10137977Y-15668071D01*
X10137977Y-15668071D02*
X10147500Y-15639500D01*
X10147500Y-15639500D02*
X10157024Y-15591881D01*
X10157024Y-15591881D02*
X10157024Y-15553786D01*
X10157024Y-15553786D02*
X10147500Y-15506167D01*
X10147500Y-15506167D02*
X10137977Y-15477595D01*
X10137977Y-15477595D02*
X10128453Y-15458548D01*
X10128453Y-15458548D02*
X10109405Y-15429976D01*
X10109405Y-15429976D02*
X10099881Y-15420452D01*
D14*
X5097500Y-15770500D02*
X5097500Y-15870500D01*
X5047500Y-15820500D02*
X5147500Y-15820500D01*
D11*
X5499881Y-15913024D02*
X5385595Y-15913024D01*
X5442738Y-15913024D02*
X5442738Y-15713024D01*
X5442738Y-15713024D02*
X5423690Y-15741595D01*
X5423690Y-15741595D02*
X5404643Y-15760643D01*
X5404643Y-15760643D02*
X5385595Y-15770167D01*
X5585595Y-15893976D02*
X5595119Y-15903500D01*
X5595119Y-15903500D02*
X5585595Y-15913024D01*
X5585595Y-15913024D02*
X5576071Y-15903500D01*
X5576071Y-15903500D02*
X5585595Y-15893976D01*
X5585595Y-15893976D02*
X5585595Y-15913024D01*
X5718928Y-15713024D02*
X5737976Y-15713024D01*
X5737976Y-15713024D02*
X5757024Y-15722548D01*
X5757024Y-15722548D02*
X5766548Y-15732071D01*
X5766548Y-15732071D02*
X5776071Y-15751119D01*
X5776071Y-15751119D02*
X5785595Y-15789214D01*
X5785595Y-15789214D02*
X5785595Y-15836833D01*
X5785595Y-15836833D02*
X5776071Y-15874928D01*
X5776071Y-15874928D02*
X5766548Y-15893976D01*
X5766548Y-15893976D02*
X5757024Y-15903500D01*
X5757024Y-15903500D02*
X5737976Y-15913024D01*
X5737976Y-15913024D02*
X5718928Y-15913024D01*
X5718928Y-15913024D02*
X5699881Y-15903500D01*
X5699881Y-15903500D02*
X5690357Y-15893976D01*
X5690357Y-15893976D02*
X5680833Y-15874928D01*
X5680833Y-15874928D02*
X5671309Y-15836833D01*
X5671309Y-15836833D02*
X5671309Y-15789214D01*
X5671309Y-15789214D02*
X5680833Y-15751119D01*
X5680833Y-15751119D02*
X5690357Y-15732071D01*
X5690357Y-15732071D02*
X5699881Y-15722548D01*
X5699881Y-15722548D02*
X5718928Y-15713024D01*
X5909405Y-15713024D02*
X5928452Y-15713024D01*
X5928452Y-15713024D02*
X5947500Y-15722548D01*
X5947500Y-15722548D02*
X5957024Y-15732071D01*
X5957024Y-15732071D02*
X5966548Y-15751119D01*
X5966548Y-15751119D02*
X5976071Y-15789214D01*
X5976071Y-15789214D02*
X5976071Y-15836833D01*
X5976071Y-15836833D02*
X5966548Y-15874928D01*
X5966548Y-15874928D02*
X5957024Y-15893976D01*
X5957024Y-15893976D02*
X5947500Y-15903500D01*
X5947500Y-15903500D02*
X5928452Y-15913024D01*
X5928452Y-15913024D02*
X5909405Y-15913024D01*
X5909405Y-15913024D02*
X5890357Y-15903500D01*
X5890357Y-15903500D02*
X5880833Y-15893976D01*
X5880833Y-15893976D02*
X5871309Y-15874928D01*
X5871309Y-15874928D02*
X5861786Y-15836833D01*
X5861786Y-15836833D02*
X5861786Y-15789214D01*
X5861786Y-15789214D02*
X5871309Y-15751119D01*
X5871309Y-15751119D02*
X5880833Y-15732071D01*
X5880833Y-15732071D02*
X5890357Y-15722548D01*
X5890357Y-15722548D02*
X5909405Y-15713024D01*
X6099881Y-15713024D02*
X6118929Y-15713024D01*
X6118929Y-15713024D02*
X6137976Y-15722548D01*
X6137976Y-15722548D02*
X6147500Y-15732071D01*
X6147500Y-15732071D02*
X6157024Y-15751119D01*
X6157024Y-15751119D02*
X6166548Y-15789214D01*
X6166548Y-15789214D02*
X6166548Y-15836833D01*
X6166548Y-15836833D02*
X6157024Y-15874928D01*
X6157024Y-15874928D02*
X6147500Y-15893976D01*
X6147500Y-15893976D02*
X6137976Y-15903500D01*
X6137976Y-15903500D02*
X6118929Y-15913024D01*
X6118929Y-15913024D02*
X6099881Y-15913024D01*
X6099881Y-15913024D02*
X6080833Y-15903500D01*
X6080833Y-15903500D02*
X6071309Y-15893976D01*
X6071309Y-15893976D02*
X6061786Y-15874928D01*
X6061786Y-15874928D02*
X6052262Y-15836833D01*
X6052262Y-15836833D02*
X6052262Y-15789214D01*
X6052262Y-15789214D02*
X6061786Y-15751119D01*
X6061786Y-15751119D02*
X6071309Y-15732071D01*
X6071309Y-15732071D02*
X6080833Y-15722548D01*
X6080833Y-15722548D02*
X6099881Y-15713024D01*
X6252262Y-15913024D02*
X6252262Y-15779690D01*
X6252262Y-15798738D02*
X6261786Y-15789214D01*
X6261786Y-15789214D02*
X6280833Y-15779690D01*
X6280833Y-15779690D02*
X6309405Y-15779690D01*
X6309405Y-15779690D02*
X6328452Y-15789214D01*
X6328452Y-15789214D02*
X6337976Y-15808262D01*
X6337976Y-15808262D02*
X6337976Y-15913024D01*
X6337976Y-15808262D02*
X6347500Y-15789214D01*
X6347500Y-15789214D02*
X6366548Y-15779690D01*
X6366548Y-15779690D02*
X6395119Y-15779690D01*
X6395119Y-15779690D02*
X6414167Y-15789214D01*
X6414167Y-15789214D02*
X6423690Y-15808262D01*
X6423690Y-15808262D02*
X6423690Y-15913024D01*
X6518929Y-15913024D02*
X6518929Y-15779690D01*
X6518929Y-15798738D02*
X6528452Y-15789214D01*
X6528452Y-15789214D02*
X6547500Y-15779690D01*
X6547500Y-15779690D02*
X6576071Y-15779690D01*
X6576071Y-15779690D02*
X6595119Y-15789214D01*
X6595119Y-15789214D02*
X6604643Y-15808262D01*
X6604643Y-15808262D02*
X6604643Y-15913024D01*
X6604643Y-15808262D02*
X6614167Y-15789214D01*
X6614167Y-15789214D02*
X6633214Y-15779690D01*
X6633214Y-15779690D02*
X6661786Y-15779690D01*
X6661786Y-15779690D02*
X6680833Y-15789214D01*
X6680833Y-15789214D02*
X6690357Y-15808262D01*
X6690357Y-15808262D02*
X6690357Y-15913024D01*
X7080833Y-15703500D02*
X6909405Y-15960643D01*
X7337976Y-15713024D02*
X7357024Y-15713024D01*
X7357024Y-15713024D02*
X7376072Y-15722548D01*
X7376072Y-15722548D02*
X7385595Y-15732071D01*
X7385595Y-15732071D02*
X7395119Y-15751119D01*
X7395119Y-15751119D02*
X7404643Y-15789214D01*
X7404643Y-15789214D02*
X7404643Y-15836833D01*
X7404643Y-15836833D02*
X7395119Y-15874928D01*
X7395119Y-15874928D02*
X7385595Y-15893976D01*
X7385595Y-15893976D02*
X7376072Y-15903500D01*
X7376072Y-15903500D02*
X7357024Y-15913024D01*
X7357024Y-15913024D02*
X7337976Y-15913024D01*
X7337976Y-15913024D02*
X7318929Y-15903500D01*
X7318929Y-15903500D02*
X7309405Y-15893976D01*
X7309405Y-15893976D02*
X7299881Y-15874928D01*
X7299881Y-15874928D02*
X7290357Y-15836833D01*
X7290357Y-15836833D02*
X7290357Y-15789214D01*
X7290357Y-15789214D02*
X7299881Y-15751119D01*
X7299881Y-15751119D02*
X7309405Y-15732071D01*
X7309405Y-15732071D02*
X7318929Y-15722548D01*
X7318929Y-15722548D02*
X7337976Y-15713024D01*
X7490357Y-15893976D02*
X7499881Y-15903500D01*
X7499881Y-15903500D02*
X7490357Y-15913024D01*
X7490357Y-15913024D02*
X7480833Y-15903500D01*
X7480833Y-15903500D02*
X7490357Y-15893976D01*
X7490357Y-15893976D02*
X7490357Y-15913024D01*
X7623691Y-15713024D02*
X7642738Y-15713024D01*
X7642738Y-15713024D02*
X7661786Y-15722548D01*
X7661786Y-15722548D02*
X7671310Y-15732071D01*
X7671310Y-15732071D02*
X7680833Y-15751119D01*
X7680833Y-15751119D02*
X7690357Y-15789214D01*
X7690357Y-15789214D02*
X7690357Y-15836833D01*
X7690357Y-15836833D02*
X7680833Y-15874928D01*
X7680833Y-15874928D02*
X7671310Y-15893976D01*
X7671310Y-15893976D02*
X7661786Y-15903500D01*
X7661786Y-15903500D02*
X7642738Y-15913024D01*
X7642738Y-15913024D02*
X7623691Y-15913024D01*
X7623691Y-15913024D02*
X7604643Y-15903500D01*
X7604643Y-15903500D02*
X7595119Y-15893976D01*
X7595119Y-15893976D02*
X7585595Y-15874928D01*
X7585595Y-15874928D02*
X7576072Y-15836833D01*
X7576072Y-15836833D02*
X7576072Y-15789214D01*
X7576072Y-15789214D02*
X7585595Y-15751119D01*
X7585595Y-15751119D02*
X7595119Y-15732071D01*
X7595119Y-15732071D02*
X7604643Y-15722548D01*
X7604643Y-15722548D02*
X7623691Y-15713024D01*
X7757024Y-15713024D02*
X7880833Y-15713024D01*
X7880833Y-15713024D02*
X7814167Y-15789214D01*
X7814167Y-15789214D02*
X7842738Y-15789214D01*
X7842738Y-15789214D02*
X7861786Y-15798738D01*
X7861786Y-15798738D02*
X7871310Y-15808262D01*
X7871310Y-15808262D02*
X7880833Y-15827309D01*
X7880833Y-15827309D02*
X7880833Y-15874928D01*
X7880833Y-15874928D02*
X7871310Y-15893976D01*
X7871310Y-15893976D02*
X7861786Y-15903500D01*
X7861786Y-15903500D02*
X7842738Y-15913024D01*
X7842738Y-15913024D02*
X7785595Y-15913024D01*
X7785595Y-15913024D02*
X7766548Y-15903500D01*
X7766548Y-15903500D02*
X7757024Y-15893976D01*
X7976072Y-15913024D02*
X8014167Y-15913024D01*
X8014167Y-15913024D02*
X8033214Y-15903500D01*
X8033214Y-15903500D02*
X8042738Y-15893976D01*
X8042738Y-15893976D02*
X8061786Y-15865405D01*
X8061786Y-15865405D02*
X8071310Y-15827309D01*
X8071310Y-15827309D02*
X8071310Y-15751119D01*
X8071310Y-15751119D02*
X8061786Y-15732071D01*
X8061786Y-15732071D02*
X8052262Y-15722548D01*
X8052262Y-15722548D02*
X8033214Y-15713024D01*
X8033214Y-15713024D02*
X7995119Y-15713024D01*
X7995119Y-15713024D02*
X7976072Y-15722548D01*
X7976072Y-15722548D02*
X7966548Y-15732071D01*
X7966548Y-15732071D02*
X7957024Y-15751119D01*
X7957024Y-15751119D02*
X7957024Y-15798738D01*
X7957024Y-15798738D02*
X7966548Y-15817786D01*
X7966548Y-15817786D02*
X7976072Y-15827309D01*
X7976072Y-15827309D02*
X7995119Y-15836833D01*
X7995119Y-15836833D02*
X8033214Y-15836833D01*
X8033214Y-15836833D02*
X8052262Y-15827309D01*
X8052262Y-15827309D02*
X8061786Y-15817786D01*
X8061786Y-15817786D02*
X8071310Y-15798738D01*
X8242738Y-15779690D02*
X8242738Y-15913024D01*
X8195119Y-15703500D02*
X8147500Y-15846357D01*
X8147500Y-15846357D02*
X8271310Y-15846357D01*
X8337976Y-15713024D02*
X8337976Y-15751119D01*
X8414167Y-15713024D02*
X8414167Y-15751119D01*
X8709405Y-15989214D02*
X8699881Y-15979690D01*
X8699881Y-15979690D02*
X8680834Y-15951119D01*
X8680834Y-15951119D02*
X8671310Y-15932071D01*
X8671310Y-15932071D02*
X8661786Y-15903500D01*
X8661786Y-15903500D02*
X8652262Y-15855881D01*
X8652262Y-15855881D02*
X8652262Y-15817786D01*
X8652262Y-15817786D02*
X8661786Y-15770167D01*
X8661786Y-15770167D02*
X8671310Y-15741595D01*
X8671310Y-15741595D02*
X8680834Y-15722548D01*
X8680834Y-15722548D02*
X8699881Y-15693976D01*
X8699881Y-15693976D02*
X8709405Y-15684452D01*
X8766548Y-15713024D02*
X8890357Y-15713024D01*
X8890357Y-15713024D02*
X8823691Y-15789214D01*
X8823691Y-15789214D02*
X8852262Y-15789214D01*
X8852262Y-15789214D02*
X8871310Y-15798738D01*
X8871310Y-15798738D02*
X8880834Y-15808262D01*
X8880834Y-15808262D02*
X8890357Y-15827309D01*
X8890357Y-15827309D02*
X8890357Y-15874928D01*
X8890357Y-15874928D02*
X8880834Y-15893976D01*
X8880834Y-15893976D02*
X8871310Y-15903500D01*
X8871310Y-15903500D02*
X8852262Y-15913024D01*
X8852262Y-15913024D02*
X8795119Y-15913024D01*
X8795119Y-15913024D02*
X8776072Y-15903500D01*
X8776072Y-15903500D02*
X8766548Y-15893976D01*
X9004643Y-15798738D02*
X8985596Y-15789214D01*
X8985596Y-15789214D02*
X8976072Y-15779690D01*
X8976072Y-15779690D02*
X8966548Y-15760643D01*
X8966548Y-15760643D02*
X8966548Y-15751119D01*
X8966548Y-15751119D02*
X8976072Y-15732071D01*
X8976072Y-15732071D02*
X8985596Y-15722548D01*
X8985596Y-15722548D02*
X9004643Y-15713024D01*
X9004643Y-15713024D02*
X9042738Y-15713024D01*
X9042738Y-15713024D02*
X9061786Y-15722548D01*
X9061786Y-15722548D02*
X9071310Y-15732071D01*
X9071310Y-15732071D02*
X9080834Y-15751119D01*
X9080834Y-15751119D02*
X9080834Y-15760643D01*
X9080834Y-15760643D02*
X9071310Y-15779690D01*
X9071310Y-15779690D02*
X9061786Y-15789214D01*
X9061786Y-15789214D02*
X9042738Y-15798738D01*
X9042738Y-15798738D02*
X9004643Y-15798738D01*
X9004643Y-15798738D02*
X8985596Y-15808262D01*
X8985596Y-15808262D02*
X8976072Y-15817786D01*
X8976072Y-15817786D02*
X8966548Y-15836833D01*
X8966548Y-15836833D02*
X8966548Y-15874928D01*
X8966548Y-15874928D02*
X8976072Y-15893976D01*
X8976072Y-15893976D02*
X8985596Y-15903500D01*
X8985596Y-15903500D02*
X9004643Y-15913024D01*
X9004643Y-15913024D02*
X9042738Y-15913024D01*
X9042738Y-15913024D02*
X9061786Y-15903500D01*
X9061786Y-15903500D02*
X9071310Y-15893976D01*
X9071310Y-15893976D02*
X9080834Y-15874928D01*
X9080834Y-15874928D02*
X9080834Y-15836833D01*
X9080834Y-15836833D02*
X9071310Y-15817786D01*
X9071310Y-15817786D02*
X9061786Y-15808262D01*
X9061786Y-15808262D02*
X9042738Y-15798738D01*
X9318929Y-15913024D02*
X9318929Y-15713024D01*
X9404643Y-15913024D02*
X9404643Y-15808262D01*
X9404643Y-15808262D02*
X9395119Y-15789214D01*
X9395119Y-15789214D02*
X9376072Y-15779690D01*
X9376072Y-15779690D02*
X9347500Y-15779690D01*
X9347500Y-15779690D02*
X9328453Y-15789214D01*
X9328453Y-15789214D02*
X9318929Y-15798738D01*
X9528453Y-15913024D02*
X9509405Y-15903500D01*
X9509405Y-15903500D02*
X9499881Y-15893976D01*
X9499881Y-15893976D02*
X9490358Y-15874928D01*
X9490358Y-15874928D02*
X9490358Y-15817786D01*
X9490358Y-15817786D02*
X9499881Y-15798738D01*
X9499881Y-15798738D02*
X9509405Y-15789214D01*
X9509405Y-15789214D02*
X9528453Y-15779690D01*
X9528453Y-15779690D02*
X9557024Y-15779690D01*
X9557024Y-15779690D02*
X9576072Y-15789214D01*
X9576072Y-15789214D02*
X9585596Y-15798738D01*
X9585596Y-15798738D02*
X9595119Y-15817786D01*
X9595119Y-15817786D02*
X9595119Y-15874928D01*
X9595119Y-15874928D02*
X9585596Y-15893976D01*
X9585596Y-15893976D02*
X9576072Y-15903500D01*
X9576072Y-15903500D02*
X9557024Y-15913024D01*
X9557024Y-15913024D02*
X9528453Y-15913024D01*
X9709405Y-15913024D02*
X9690358Y-15903500D01*
X9690358Y-15903500D02*
X9680834Y-15884452D01*
X9680834Y-15884452D02*
X9680834Y-15713024D01*
X9861786Y-15903500D02*
X9842739Y-15913024D01*
X9842739Y-15913024D02*
X9804643Y-15913024D01*
X9804643Y-15913024D02*
X9785596Y-15903500D01*
X9785596Y-15903500D02*
X9776072Y-15884452D01*
X9776072Y-15884452D02*
X9776072Y-15808262D01*
X9776072Y-15808262D02*
X9785596Y-15789214D01*
X9785596Y-15789214D02*
X9804643Y-15779690D01*
X9804643Y-15779690D02*
X9842739Y-15779690D01*
X9842739Y-15779690D02*
X9861786Y-15789214D01*
X9861786Y-15789214D02*
X9871310Y-15808262D01*
X9871310Y-15808262D02*
X9871310Y-15827309D01*
X9871310Y-15827309D02*
X9776072Y-15846357D01*
X9947500Y-15903500D02*
X9966548Y-15913024D01*
X9966548Y-15913024D02*
X10004643Y-15913024D01*
X10004643Y-15913024D02*
X10023691Y-15903500D01*
X10023691Y-15903500D02*
X10033215Y-15884452D01*
X10033215Y-15884452D02*
X10033215Y-15874928D01*
X10033215Y-15874928D02*
X10023691Y-15855881D01*
X10023691Y-15855881D02*
X10004643Y-15846357D01*
X10004643Y-15846357D02*
X9976072Y-15846357D01*
X9976072Y-15846357D02*
X9957024Y-15836833D01*
X9957024Y-15836833D02*
X9947500Y-15817786D01*
X9947500Y-15817786D02*
X9947500Y-15808262D01*
X9947500Y-15808262D02*
X9957024Y-15789214D01*
X9957024Y-15789214D02*
X9976072Y-15779690D01*
X9976072Y-15779690D02*
X10004643Y-15779690D01*
X10004643Y-15779690D02*
X10023691Y-15789214D01*
X10099881Y-15989214D02*
X10109405Y-15979690D01*
X10109405Y-15979690D02*
X10128453Y-15951119D01*
X10128453Y-15951119D02*
X10137977Y-15932071D01*
X10137977Y-15932071D02*
X10147500Y-15903500D01*
X10147500Y-15903500D02*
X10157024Y-15855881D01*
X10157024Y-15855881D02*
X10157024Y-15817786D01*
X10157024Y-15817786D02*
X10147500Y-15770167D01*
X10147500Y-15770167D02*
X10137977Y-15741595D01*
X10137977Y-15741595D02*
X10128453Y-15722548D01*
X10128453Y-15722548D02*
X10109405Y-15693976D01*
X10109405Y-15693976D02*
X10099881Y-15684452D01*
M02*
