G04 #@! TF.GenerationSoftware,KiCad,Pcbnew,7.0.1.1-36-gbcf78dbe24-dirty-deb11*
G04 #@! TF.CreationDate,2023-04-09T19:27:53+00:00*
G04 #@! TF.ProjectId,RP2040-VCO,52503230-3430-42d5-9643-4f2e6b696361,rev?*
G04 #@! TF.SameCoordinates,Original*
G04 #@! TF.FileFunction,Legend,Top*
G04 #@! TF.FilePolarity,Positive*
%FSLAX46Y46*%
G04 Gerber Fmt 4.6, Leading zero omitted, Abs format (unit mm)*
G04 Created by KiCad (PCBNEW 7.0.1.1-36-gbcf78dbe24-dirty-deb11) date 2023-04-09 19:27:53*
%MOMM*%
%LPD*%
G01*
G04 APERTURE LIST*
%ADD10C,0.120000*%
%ADD11C,0.150000*%
%ADD12C,0.254000*%
%ADD13C,0.200000*%
%ADD14C,3.200000*%
%ADD15R,1.700000X1.700000*%
%ADD16O,1.700000X1.700000*%
%ADD17R,0.600000X1.200000*%
%ADD18C,1.700000*%
G04 APERTURE END LIST*
D10*
X67600000Y-80700000D02*
X67600000Y-82700000D01*
X60941421Y-64900000D02*
G75*
G03*
X60941421Y-64900000I-141421J0D01*
G01*
X60800000Y-88300000D02*
X60800000Y-90300000D01*
X67600000Y-78300000D02*
X67600000Y-80300000D01*
X60800000Y-85900000D02*
X60800000Y-87900000D01*
D11*
X57671428Y-39542619D02*
X57338095Y-39066428D01*
X57100000Y-39542619D02*
X57100000Y-38542619D01*
X57100000Y-38542619D02*
X57480952Y-38542619D01*
X57480952Y-38542619D02*
X57576190Y-38590238D01*
X57576190Y-38590238D02*
X57623809Y-38637857D01*
X57623809Y-38637857D02*
X57671428Y-38733095D01*
X57671428Y-38733095D02*
X57671428Y-38875952D01*
X57671428Y-38875952D02*
X57623809Y-38971190D01*
X57623809Y-38971190D02*
X57576190Y-39018809D01*
X57576190Y-39018809D02*
X57480952Y-39066428D01*
X57480952Y-39066428D02*
X57100000Y-39066428D01*
X58100000Y-39542619D02*
X58100000Y-38542619D01*
X58100000Y-38542619D02*
X58480952Y-38542619D01*
X58480952Y-38542619D02*
X58576190Y-38590238D01*
X58576190Y-38590238D02*
X58623809Y-38637857D01*
X58623809Y-38637857D02*
X58671428Y-38733095D01*
X58671428Y-38733095D02*
X58671428Y-38875952D01*
X58671428Y-38875952D02*
X58623809Y-38971190D01*
X58623809Y-38971190D02*
X58576190Y-39018809D01*
X58576190Y-39018809D02*
X58480952Y-39066428D01*
X58480952Y-39066428D02*
X58100000Y-39066428D01*
X59052381Y-38637857D02*
X59100000Y-38590238D01*
X59100000Y-38590238D02*
X59195238Y-38542619D01*
X59195238Y-38542619D02*
X59433333Y-38542619D01*
X59433333Y-38542619D02*
X59528571Y-38590238D01*
X59528571Y-38590238D02*
X59576190Y-38637857D01*
X59576190Y-38637857D02*
X59623809Y-38733095D01*
X59623809Y-38733095D02*
X59623809Y-38828333D01*
X59623809Y-38828333D02*
X59576190Y-38971190D01*
X59576190Y-38971190D02*
X59004762Y-39542619D01*
X59004762Y-39542619D02*
X59623809Y-39542619D01*
X60242857Y-38542619D02*
X60338095Y-38542619D01*
X60338095Y-38542619D02*
X60433333Y-38590238D01*
X60433333Y-38590238D02*
X60480952Y-38637857D01*
X60480952Y-38637857D02*
X60528571Y-38733095D01*
X60528571Y-38733095D02*
X60576190Y-38923571D01*
X60576190Y-38923571D02*
X60576190Y-39161666D01*
X60576190Y-39161666D02*
X60528571Y-39352142D01*
X60528571Y-39352142D02*
X60480952Y-39447380D01*
X60480952Y-39447380D02*
X60433333Y-39495000D01*
X60433333Y-39495000D02*
X60338095Y-39542619D01*
X60338095Y-39542619D02*
X60242857Y-39542619D01*
X60242857Y-39542619D02*
X60147619Y-39495000D01*
X60147619Y-39495000D02*
X60100000Y-39447380D01*
X60100000Y-39447380D02*
X60052381Y-39352142D01*
X60052381Y-39352142D02*
X60004762Y-39161666D01*
X60004762Y-39161666D02*
X60004762Y-38923571D01*
X60004762Y-38923571D02*
X60052381Y-38733095D01*
X60052381Y-38733095D02*
X60100000Y-38637857D01*
X60100000Y-38637857D02*
X60147619Y-38590238D01*
X60147619Y-38590238D02*
X60242857Y-38542619D01*
X61433333Y-38875952D02*
X61433333Y-39542619D01*
X61195238Y-38495000D02*
X60957143Y-39209285D01*
X60957143Y-39209285D02*
X61576190Y-39209285D01*
X62147619Y-38542619D02*
X62242857Y-38542619D01*
X62242857Y-38542619D02*
X62338095Y-38590238D01*
X62338095Y-38590238D02*
X62385714Y-38637857D01*
X62385714Y-38637857D02*
X62433333Y-38733095D01*
X62433333Y-38733095D02*
X62480952Y-38923571D01*
X62480952Y-38923571D02*
X62480952Y-39161666D01*
X62480952Y-39161666D02*
X62433333Y-39352142D01*
X62433333Y-39352142D02*
X62385714Y-39447380D01*
X62385714Y-39447380D02*
X62338095Y-39495000D01*
X62338095Y-39495000D02*
X62242857Y-39542619D01*
X62242857Y-39542619D02*
X62147619Y-39542619D01*
X62147619Y-39542619D02*
X62052381Y-39495000D01*
X62052381Y-39495000D02*
X62004762Y-39447380D01*
X62004762Y-39447380D02*
X61957143Y-39352142D01*
X61957143Y-39352142D02*
X61909524Y-39161666D01*
X61909524Y-39161666D02*
X61909524Y-38923571D01*
X61909524Y-38923571D02*
X61957143Y-38733095D01*
X61957143Y-38733095D02*
X62004762Y-38637857D01*
X62004762Y-38637857D02*
X62052381Y-38590238D01*
X62052381Y-38590238D02*
X62147619Y-38542619D01*
X63528572Y-38542619D02*
X63861905Y-39542619D01*
X63861905Y-39542619D02*
X64195238Y-38542619D01*
X65100000Y-39447380D02*
X65052381Y-39495000D01*
X65052381Y-39495000D02*
X64909524Y-39542619D01*
X64909524Y-39542619D02*
X64814286Y-39542619D01*
X64814286Y-39542619D02*
X64671429Y-39495000D01*
X64671429Y-39495000D02*
X64576191Y-39399761D01*
X64576191Y-39399761D02*
X64528572Y-39304523D01*
X64528572Y-39304523D02*
X64480953Y-39114047D01*
X64480953Y-39114047D02*
X64480953Y-38971190D01*
X64480953Y-38971190D02*
X64528572Y-38780714D01*
X64528572Y-38780714D02*
X64576191Y-38685476D01*
X64576191Y-38685476D02*
X64671429Y-38590238D01*
X64671429Y-38590238D02*
X64814286Y-38542619D01*
X64814286Y-38542619D02*
X64909524Y-38542619D01*
X64909524Y-38542619D02*
X65052381Y-38590238D01*
X65052381Y-38590238D02*
X65100000Y-38637857D01*
X65719048Y-38542619D02*
X65909524Y-38542619D01*
X65909524Y-38542619D02*
X66004762Y-38590238D01*
X66004762Y-38590238D02*
X66100000Y-38685476D01*
X66100000Y-38685476D02*
X66147619Y-38875952D01*
X66147619Y-38875952D02*
X66147619Y-39209285D01*
X66147619Y-39209285D02*
X66100000Y-39399761D01*
X66100000Y-39399761D02*
X66004762Y-39495000D01*
X66004762Y-39495000D02*
X65909524Y-39542619D01*
X65909524Y-39542619D02*
X65719048Y-39542619D01*
X65719048Y-39542619D02*
X65623810Y-39495000D01*
X65623810Y-39495000D02*
X65528572Y-39399761D01*
X65528572Y-39399761D02*
X65480953Y-39209285D01*
X65480953Y-39209285D02*
X65480953Y-38875952D01*
X65480953Y-38875952D02*
X65528572Y-38685476D01*
X65528572Y-38685476D02*
X65623810Y-38590238D01*
X65623810Y-38590238D02*
X65719048Y-38542619D01*
X55338095Y-40162619D02*
X55671428Y-41162619D01*
X55671428Y-41162619D02*
X56004761Y-40162619D01*
X56861904Y-41162619D02*
X56290476Y-41162619D01*
X56576190Y-41162619D02*
X56576190Y-40162619D01*
X56576190Y-40162619D02*
X56480952Y-40305476D01*
X56480952Y-40305476D02*
X56385714Y-40400714D01*
X56385714Y-40400714D02*
X56290476Y-40448333D01*
X57290476Y-41067380D02*
X57338095Y-41115000D01*
X57338095Y-41115000D02*
X57290476Y-41162619D01*
X57290476Y-41162619D02*
X57242857Y-41115000D01*
X57242857Y-41115000D02*
X57290476Y-41067380D01*
X57290476Y-41067380D02*
X57290476Y-41162619D01*
X58290475Y-41162619D02*
X57719047Y-41162619D01*
X58004761Y-41162619D02*
X58004761Y-40162619D01*
X58004761Y-40162619D02*
X57909523Y-40305476D01*
X57909523Y-40305476D02*
X57814285Y-40400714D01*
X57814285Y-40400714D02*
X57719047Y-40448333D01*
X59814285Y-40638809D02*
X59957142Y-40686428D01*
X59957142Y-40686428D02*
X60004761Y-40734047D01*
X60004761Y-40734047D02*
X60052380Y-40829285D01*
X60052380Y-40829285D02*
X60052380Y-40972142D01*
X60052380Y-40972142D02*
X60004761Y-41067380D01*
X60004761Y-41067380D02*
X59957142Y-41115000D01*
X59957142Y-41115000D02*
X59861904Y-41162619D01*
X59861904Y-41162619D02*
X59480952Y-41162619D01*
X59480952Y-41162619D02*
X59480952Y-40162619D01*
X59480952Y-40162619D02*
X59814285Y-40162619D01*
X59814285Y-40162619D02*
X59909523Y-40210238D01*
X59909523Y-40210238D02*
X59957142Y-40257857D01*
X59957142Y-40257857D02*
X60004761Y-40353095D01*
X60004761Y-40353095D02*
X60004761Y-40448333D01*
X60004761Y-40448333D02*
X59957142Y-40543571D01*
X59957142Y-40543571D02*
X59909523Y-40591190D01*
X59909523Y-40591190D02*
X59814285Y-40638809D01*
X59814285Y-40638809D02*
X59480952Y-40638809D01*
X60623809Y-41162619D02*
X60528571Y-41115000D01*
X60528571Y-41115000D02*
X60480952Y-41019761D01*
X60480952Y-41019761D02*
X60480952Y-40162619D01*
X61385714Y-41115000D02*
X61290476Y-41162619D01*
X61290476Y-41162619D02*
X61100000Y-41162619D01*
X61100000Y-41162619D02*
X61004762Y-41115000D01*
X61004762Y-41115000D02*
X60957143Y-41019761D01*
X60957143Y-41019761D02*
X60957143Y-40638809D01*
X60957143Y-40638809D02*
X61004762Y-40543571D01*
X61004762Y-40543571D02*
X61100000Y-40495952D01*
X61100000Y-40495952D02*
X61290476Y-40495952D01*
X61290476Y-40495952D02*
X61385714Y-40543571D01*
X61385714Y-40543571D02*
X61433333Y-40638809D01*
X61433333Y-40638809D02*
X61433333Y-40734047D01*
X61433333Y-40734047D02*
X60957143Y-40829285D01*
X62242857Y-41115000D02*
X62147619Y-41162619D01*
X62147619Y-41162619D02*
X61957143Y-41162619D01*
X61957143Y-41162619D02*
X61861905Y-41115000D01*
X61861905Y-41115000D02*
X61814286Y-41019761D01*
X61814286Y-41019761D02*
X61814286Y-40638809D01*
X61814286Y-40638809D02*
X61861905Y-40543571D01*
X61861905Y-40543571D02*
X61957143Y-40495952D01*
X61957143Y-40495952D02*
X62147619Y-40495952D01*
X62147619Y-40495952D02*
X62242857Y-40543571D01*
X62242857Y-40543571D02*
X62290476Y-40638809D01*
X62290476Y-40638809D02*
X62290476Y-40734047D01*
X62290476Y-40734047D02*
X61814286Y-40829285D01*
X62719048Y-40495952D02*
X62719048Y-41495952D01*
X62719048Y-40543571D02*
X62814286Y-40495952D01*
X62814286Y-40495952D02*
X63004762Y-40495952D01*
X63004762Y-40495952D02*
X63100000Y-40543571D01*
X63100000Y-40543571D02*
X63147619Y-40591190D01*
X63147619Y-40591190D02*
X63195238Y-40686428D01*
X63195238Y-40686428D02*
X63195238Y-40972142D01*
X63195238Y-40972142D02*
X63147619Y-41067380D01*
X63147619Y-41067380D02*
X63100000Y-41115000D01*
X63100000Y-41115000D02*
X63004762Y-41162619D01*
X63004762Y-41162619D02*
X62814286Y-41162619D01*
X62814286Y-41162619D02*
X62719048Y-41115000D01*
X63576191Y-41115000D02*
X63719048Y-41162619D01*
X63719048Y-41162619D02*
X63957143Y-41162619D01*
X63957143Y-41162619D02*
X64052381Y-41115000D01*
X64052381Y-41115000D02*
X64100000Y-41067380D01*
X64100000Y-41067380D02*
X64147619Y-40972142D01*
X64147619Y-40972142D02*
X64147619Y-40876904D01*
X64147619Y-40876904D02*
X64100000Y-40781666D01*
X64100000Y-40781666D02*
X64052381Y-40734047D01*
X64052381Y-40734047D02*
X63957143Y-40686428D01*
X63957143Y-40686428D02*
X63766667Y-40638809D01*
X63766667Y-40638809D02*
X63671429Y-40591190D01*
X63671429Y-40591190D02*
X63623810Y-40543571D01*
X63623810Y-40543571D02*
X63576191Y-40448333D01*
X63576191Y-40448333D02*
X63576191Y-40353095D01*
X63576191Y-40353095D02*
X63623810Y-40257857D01*
X63623810Y-40257857D02*
X63671429Y-40210238D01*
X63671429Y-40210238D02*
X63766667Y-40162619D01*
X63766667Y-40162619D02*
X64004762Y-40162619D01*
X64004762Y-40162619D02*
X64147619Y-40210238D01*
X64719048Y-41162619D02*
X64623810Y-41115000D01*
X64623810Y-41115000D02*
X64576191Y-41067380D01*
X64576191Y-41067380D02*
X64528572Y-40972142D01*
X64528572Y-40972142D02*
X64528572Y-40686428D01*
X64528572Y-40686428D02*
X64576191Y-40591190D01*
X64576191Y-40591190D02*
X64623810Y-40543571D01*
X64623810Y-40543571D02*
X64719048Y-40495952D01*
X64719048Y-40495952D02*
X64861905Y-40495952D01*
X64861905Y-40495952D02*
X64957143Y-40543571D01*
X64957143Y-40543571D02*
X65004762Y-40591190D01*
X65004762Y-40591190D02*
X65052381Y-40686428D01*
X65052381Y-40686428D02*
X65052381Y-40972142D01*
X65052381Y-40972142D02*
X65004762Y-41067380D01*
X65004762Y-41067380D02*
X64957143Y-41115000D01*
X64957143Y-41115000D02*
X64861905Y-41162619D01*
X64861905Y-41162619D02*
X64719048Y-41162619D01*
X65909524Y-40495952D02*
X65909524Y-41162619D01*
X65480953Y-40495952D02*
X65480953Y-41019761D01*
X65480953Y-41019761D02*
X65528572Y-41115000D01*
X65528572Y-41115000D02*
X65623810Y-41162619D01*
X65623810Y-41162619D02*
X65766667Y-41162619D01*
X65766667Y-41162619D02*
X65861905Y-41115000D01*
X65861905Y-41115000D02*
X65909524Y-41067380D01*
X66385715Y-40495952D02*
X66385715Y-41162619D01*
X66385715Y-40591190D02*
X66433334Y-40543571D01*
X66433334Y-40543571D02*
X66528572Y-40495952D01*
X66528572Y-40495952D02*
X66671429Y-40495952D01*
X66671429Y-40495952D02*
X66766667Y-40543571D01*
X66766667Y-40543571D02*
X66814286Y-40638809D01*
X66814286Y-40638809D02*
X66814286Y-41162619D01*
X67719048Y-41162619D02*
X67719048Y-40162619D01*
X67719048Y-41115000D02*
X67623810Y-41162619D01*
X67623810Y-41162619D02*
X67433334Y-41162619D01*
X67433334Y-41162619D02*
X67338096Y-41115000D01*
X67338096Y-41115000D02*
X67290477Y-41067380D01*
X67290477Y-41067380D02*
X67242858Y-40972142D01*
X67242858Y-40972142D02*
X67242858Y-40686428D01*
X67242858Y-40686428D02*
X67290477Y-40591190D01*
X67290477Y-40591190D02*
X67338096Y-40543571D01*
X67338096Y-40543571D02*
X67433334Y-40495952D01*
X67433334Y-40495952D02*
X67623810Y-40495952D01*
X67623810Y-40495952D02*
X67719048Y-40543571D01*
X59885714Y-41877857D02*
X59933333Y-41830238D01*
X59933333Y-41830238D02*
X60028571Y-41782619D01*
X60028571Y-41782619D02*
X60266666Y-41782619D01*
X60266666Y-41782619D02*
X60361904Y-41830238D01*
X60361904Y-41830238D02*
X60409523Y-41877857D01*
X60409523Y-41877857D02*
X60457142Y-41973095D01*
X60457142Y-41973095D02*
X60457142Y-42068333D01*
X60457142Y-42068333D02*
X60409523Y-42211190D01*
X60409523Y-42211190D02*
X59838095Y-42782619D01*
X59838095Y-42782619D02*
X60457142Y-42782619D01*
X61076190Y-41782619D02*
X61171428Y-41782619D01*
X61171428Y-41782619D02*
X61266666Y-41830238D01*
X61266666Y-41830238D02*
X61314285Y-41877857D01*
X61314285Y-41877857D02*
X61361904Y-41973095D01*
X61361904Y-41973095D02*
X61409523Y-42163571D01*
X61409523Y-42163571D02*
X61409523Y-42401666D01*
X61409523Y-42401666D02*
X61361904Y-42592142D01*
X61361904Y-42592142D02*
X61314285Y-42687380D01*
X61314285Y-42687380D02*
X61266666Y-42735000D01*
X61266666Y-42735000D02*
X61171428Y-42782619D01*
X61171428Y-42782619D02*
X61076190Y-42782619D01*
X61076190Y-42782619D02*
X60980952Y-42735000D01*
X60980952Y-42735000D02*
X60933333Y-42687380D01*
X60933333Y-42687380D02*
X60885714Y-42592142D01*
X60885714Y-42592142D02*
X60838095Y-42401666D01*
X60838095Y-42401666D02*
X60838095Y-42163571D01*
X60838095Y-42163571D02*
X60885714Y-41973095D01*
X60885714Y-41973095D02*
X60933333Y-41877857D01*
X60933333Y-41877857D02*
X60980952Y-41830238D01*
X60980952Y-41830238D02*
X61076190Y-41782619D01*
X61790476Y-41877857D02*
X61838095Y-41830238D01*
X61838095Y-41830238D02*
X61933333Y-41782619D01*
X61933333Y-41782619D02*
X62171428Y-41782619D01*
X62171428Y-41782619D02*
X62266666Y-41830238D01*
X62266666Y-41830238D02*
X62314285Y-41877857D01*
X62314285Y-41877857D02*
X62361904Y-41973095D01*
X62361904Y-41973095D02*
X62361904Y-42068333D01*
X62361904Y-42068333D02*
X62314285Y-42211190D01*
X62314285Y-42211190D02*
X61742857Y-42782619D01*
X61742857Y-42782619D02*
X62361904Y-42782619D01*
X62695238Y-41782619D02*
X63314285Y-41782619D01*
X63314285Y-41782619D02*
X62980952Y-42163571D01*
X62980952Y-42163571D02*
X63123809Y-42163571D01*
X63123809Y-42163571D02*
X63219047Y-42211190D01*
X63219047Y-42211190D02*
X63266666Y-42258809D01*
X63266666Y-42258809D02*
X63314285Y-42354047D01*
X63314285Y-42354047D02*
X63314285Y-42592142D01*
X63314285Y-42592142D02*
X63266666Y-42687380D01*
X63266666Y-42687380D02*
X63219047Y-42735000D01*
X63219047Y-42735000D02*
X63123809Y-42782619D01*
X63123809Y-42782619D02*
X62838095Y-42782619D01*
X62838095Y-42782619D02*
X62742857Y-42735000D01*
X62742857Y-42735000D02*
X62695238Y-42687380D01*
X57761904Y-44262619D02*
X57761904Y-43262619D01*
X57761904Y-43643571D02*
X57857142Y-43595952D01*
X57857142Y-43595952D02*
X58047618Y-43595952D01*
X58047618Y-43595952D02*
X58142856Y-43643571D01*
X58142856Y-43643571D02*
X58190475Y-43691190D01*
X58190475Y-43691190D02*
X58238094Y-43786428D01*
X58238094Y-43786428D02*
X58238094Y-44072142D01*
X58238094Y-44072142D02*
X58190475Y-44167380D01*
X58190475Y-44167380D02*
X58142856Y-44215000D01*
X58142856Y-44215000D02*
X58047618Y-44262619D01*
X58047618Y-44262619D02*
X57857142Y-44262619D01*
X57857142Y-44262619D02*
X57761904Y-44215000D01*
X58809523Y-44262619D02*
X58714285Y-44215000D01*
X58714285Y-44215000D02*
X58666666Y-44167380D01*
X58666666Y-44167380D02*
X58619047Y-44072142D01*
X58619047Y-44072142D02*
X58619047Y-43786428D01*
X58619047Y-43786428D02*
X58666666Y-43691190D01*
X58666666Y-43691190D02*
X58714285Y-43643571D01*
X58714285Y-43643571D02*
X58809523Y-43595952D01*
X58809523Y-43595952D02*
X58952380Y-43595952D01*
X58952380Y-43595952D02*
X59047618Y-43643571D01*
X59047618Y-43643571D02*
X59095237Y-43691190D01*
X59095237Y-43691190D02*
X59142856Y-43786428D01*
X59142856Y-43786428D02*
X59142856Y-44072142D01*
X59142856Y-44072142D02*
X59095237Y-44167380D01*
X59095237Y-44167380D02*
X59047618Y-44215000D01*
X59047618Y-44215000D02*
X58952380Y-44262619D01*
X58952380Y-44262619D02*
X58809523Y-44262619D01*
X59999999Y-44262619D02*
X59999999Y-43738809D01*
X59999999Y-43738809D02*
X59952380Y-43643571D01*
X59952380Y-43643571D02*
X59857142Y-43595952D01*
X59857142Y-43595952D02*
X59666666Y-43595952D01*
X59666666Y-43595952D02*
X59571428Y-43643571D01*
X59999999Y-44215000D02*
X59904761Y-44262619D01*
X59904761Y-44262619D02*
X59666666Y-44262619D01*
X59666666Y-44262619D02*
X59571428Y-44215000D01*
X59571428Y-44215000D02*
X59523809Y-44119761D01*
X59523809Y-44119761D02*
X59523809Y-44024523D01*
X59523809Y-44024523D02*
X59571428Y-43929285D01*
X59571428Y-43929285D02*
X59666666Y-43881666D01*
X59666666Y-43881666D02*
X59904761Y-43881666D01*
X59904761Y-43881666D02*
X59999999Y-43834047D01*
X60476190Y-44262619D02*
X60476190Y-43595952D01*
X60476190Y-43786428D02*
X60523809Y-43691190D01*
X60523809Y-43691190D02*
X60571428Y-43643571D01*
X60571428Y-43643571D02*
X60666666Y-43595952D01*
X60666666Y-43595952D02*
X60761904Y-43595952D01*
X61523809Y-44262619D02*
X61523809Y-43262619D01*
X61523809Y-44215000D02*
X61428571Y-44262619D01*
X61428571Y-44262619D02*
X61238095Y-44262619D01*
X61238095Y-44262619D02*
X61142857Y-44215000D01*
X61142857Y-44215000D02*
X61095238Y-44167380D01*
X61095238Y-44167380D02*
X61047619Y-44072142D01*
X61047619Y-44072142D02*
X61047619Y-43786428D01*
X61047619Y-43786428D02*
X61095238Y-43691190D01*
X61095238Y-43691190D02*
X61142857Y-43643571D01*
X61142857Y-43643571D02*
X61238095Y-43595952D01*
X61238095Y-43595952D02*
X61428571Y-43595952D01*
X61428571Y-43595952D02*
X61523809Y-43643571D01*
X62714286Y-43357857D02*
X62761905Y-43310238D01*
X62761905Y-43310238D02*
X62857143Y-43262619D01*
X62857143Y-43262619D02*
X63095238Y-43262619D01*
X63095238Y-43262619D02*
X63190476Y-43310238D01*
X63190476Y-43310238D02*
X63238095Y-43357857D01*
X63238095Y-43357857D02*
X63285714Y-43453095D01*
X63285714Y-43453095D02*
X63285714Y-43548333D01*
X63285714Y-43548333D02*
X63238095Y-43691190D01*
X63238095Y-43691190D02*
X62666667Y-44262619D01*
X62666667Y-44262619D02*
X63285714Y-44262619D01*
X64428571Y-43215000D02*
X63571429Y-44500714D01*
X64714286Y-43357857D02*
X64761905Y-43310238D01*
X64761905Y-43310238D02*
X64857143Y-43262619D01*
X64857143Y-43262619D02*
X65095238Y-43262619D01*
X65095238Y-43262619D02*
X65190476Y-43310238D01*
X65190476Y-43310238D02*
X65238095Y-43357857D01*
X65238095Y-43357857D02*
X65285714Y-43453095D01*
X65285714Y-43453095D02*
X65285714Y-43548333D01*
X65285714Y-43548333D02*
X65238095Y-43691190D01*
X65238095Y-43691190D02*
X64666667Y-44262619D01*
X64666667Y-44262619D02*
X65285714Y-44262619D01*
X53357142Y-123667380D02*
X53309523Y-123715000D01*
X53309523Y-123715000D02*
X53166666Y-123762619D01*
X53166666Y-123762619D02*
X53071428Y-123762619D01*
X53071428Y-123762619D02*
X52928571Y-123715000D01*
X52928571Y-123715000D02*
X52833333Y-123619761D01*
X52833333Y-123619761D02*
X52785714Y-123524523D01*
X52785714Y-123524523D02*
X52738095Y-123334047D01*
X52738095Y-123334047D02*
X52738095Y-123191190D01*
X52738095Y-123191190D02*
X52785714Y-123000714D01*
X52785714Y-123000714D02*
X52833333Y-122905476D01*
X52833333Y-122905476D02*
X52928571Y-122810238D01*
X52928571Y-122810238D02*
X53071428Y-122762619D01*
X53071428Y-122762619D02*
X53166666Y-122762619D01*
X53166666Y-122762619D02*
X53309523Y-122810238D01*
X53309523Y-122810238D02*
X53357142Y-122857857D01*
X54309523Y-123762619D02*
X53738095Y-123762619D01*
X54023809Y-123762619D02*
X54023809Y-122762619D01*
X54023809Y-122762619D02*
X53928571Y-122905476D01*
X53928571Y-122905476D02*
X53833333Y-123000714D01*
X53833333Y-123000714D02*
X53738095Y-123048333D01*
X55166666Y-123095952D02*
X55166666Y-123762619D01*
X54928571Y-122715000D02*
X54690476Y-123429285D01*
X54690476Y-123429285D02*
X55309523Y-123429285D01*
X68357142Y-123467380D02*
X68309523Y-123515000D01*
X68309523Y-123515000D02*
X68166666Y-123562619D01*
X68166666Y-123562619D02*
X68071428Y-123562619D01*
X68071428Y-123562619D02*
X67928571Y-123515000D01*
X67928571Y-123515000D02*
X67833333Y-123419761D01*
X67833333Y-123419761D02*
X67785714Y-123324523D01*
X67785714Y-123324523D02*
X67738095Y-123134047D01*
X67738095Y-123134047D02*
X67738095Y-122991190D01*
X67738095Y-122991190D02*
X67785714Y-122800714D01*
X67785714Y-122800714D02*
X67833333Y-122705476D01*
X67833333Y-122705476D02*
X67928571Y-122610238D01*
X67928571Y-122610238D02*
X68071428Y-122562619D01*
X68071428Y-122562619D02*
X68166666Y-122562619D01*
X68166666Y-122562619D02*
X68309523Y-122610238D01*
X68309523Y-122610238D02*
X68357142Y-122657857D01*
X69309523Y-123562619D02*
X68738095Y-123562619D01*
X69023809Y-123562619D02*
X69023809Y-122562619D01*
X69023809Y-122562619D02*
X68928571Y-122705476D01*
X68928571Y-122705476D02*
X68833333Y-122800714D01*
X68833333Y-122800714D02*
X68738095Y-122848333D01*
X70214285Y-122562619D02*
X69738095Y-122562619D01*
X69738095Y-122562619D02*
X69690476Y-123038809D01*
X69690476Y-123038809D02*
X69738095Y-122991190D01*
X69738095Y-122991190D02*
X69833333Y-122943571D01*
X69833333Y-122943571D02*
X70071428Y-122943571D01*
X70071428Y-122943571D02*
X70166666Y-122991190D01*
X70166666Y-122991190D02*
X70214285Y-123038809D01*
X70214285Y-123038809D02*
X70261904Y-123134047D01*
X70261904Y-123134047D02*
X70261904Y-123372142D01*
X70261904Y-123372142D02*
X70214285Y-123467380D01*
X70214285Y-123467380D02*
X70166666Y-123515000D01*
X70166666Y-123515000D02*
X70071428Y-123562619D01*
X70071428Y-123562619D02*
X69833333Y-123562619D01*
X69833333Y-123562619D02*
X69738095Y-123515000D01*
X69738095Y-123515000D02*
X69690476Y-123467380D01*
X62157142Y-105862619D02*
X61823809Y-105386428D01*
X61585714Y-105862619D02*
X61585714Y-104862619D01*
X61585714Y-104862619D02*
X61966666Y-104862619D01*
X61966666Y-104862619D02*
X62061904Y-104910238D01*
X62061904Y-104910238D02*
X62109523Y-104957857D01*
X62109523Y-104957857D02*
X62157142Y-105053095D01*
X62157142Y-105053095D02*
X62157142Y-105195952D01*
X62157142Y-105195952D02*
X62109523Y-105291190D01*
X62109523Y-105291190D02*
X62061904Y-105338809D01*
X62061904Y-105338809D02*
X61966666Y-105386428D01*
X61966666Y-105386428D02*
X61585714Y-105386428D01*
X63109523Y-105862619D02*
X62538095Y-105862619D01*
X62823809Y-105862619D02*
X62823809Y-104862619D01*
X62823809Y-104862619D02*
X62728571Y-105005476D01*
X62728571Y-105005476D02*
X62633333Y-105100714D01*
X62633333Y-105100714D02*
X62538095Y-105148333D01*
X64014285Y-104862619D02*
X63538095Y-104862619D01*
X63538095Y-104862619D02*
X63490476Y-105338809D01*
X63490476Y-105338809D02*
X63538095Y-105291190D01*
X63538095Y-105291190D02*
X63633333Y-105243571D01*
X63633333Y-105243571D02*
X63871428Y-105243571D01*
X63871428Y-105243571D02*
X63966666Y-105291190D01*
X63966666Y-105291190D02*
X64014285Y-105338809D01*
X64014285Y-105338809D02*
X64061904Y-105434047D01*
X64061904Y-105434047D02*
X64061904Y-105672142D01*
X64061904Y-105672142D02*
X64014285Y-105767380D01*
X64014285Y-105767380D02*
X63966666Y-105815000D01*
X63966666Y-105815000D02*
X63871428Y-105862619D01*
X63871428Y-105862619D02*
X63633333Y-105862619D01*
X63633333Y-105862619D02*
X63538095Y-105815000D01*
X63538095Y-105815000D02*
X63490476Y-105767380D01*
X67238095Y-92262619D02*
X67238095Y-91262619D01*
X67238095Y-91738809D02*
X67809523Y-91738809D01*
X67809523Y-92262619D02*
X67809523Y-91262619D01*
X68238095Y-91357857D02*
X68285714Y-91310238D01*
X68285714Y-91310238D02*
X68380952Y-91262619D01*
X68380952Y-91262619D02*
X68619047Y-91262619D01*
X68619047Y-91262619D02*
X68714285Y-91310238D01*
X68714285Y-91310238D02*
X68761904Y-91357857D01*
X68761904Y-91357857D02*
X68809523Y-91453095D01*
X68809523Y-91453095D02*
X68809523Y-91548333D01*
X68809523Y-91548333D02*
X68761904Y-91691190D01*
X68761904Y-91691190D02*
X68190476Y-92262619D01*
X68190476Y-92262619D02*
X68809523Y-92262619D01*
X68833333Y-78062619D02*
X68500000Y-77586428D01*
X68261905Y-78062619D02*
X68261905Y-77062619D01*
X68261905Y-77062619D02*
X68642857Y-77062619D01*
X68642857Y-77062619D02*
X68738095Y-77110238D01*
X68738095Y-77110238D02*
X68785714Y-77157857D01*
X68785714Y-77157857D02*
X68833333Y-77253095D01*
X68833333Y-77253095D02*
X68833333Y-77395952D01*
X68833333Y-77395952D02*
X68785714Y-77491190D01*
X68785714Y-77491190D02*
X68738095Y-77538809D01*
X68738095Y-77538809D02*
X68642857Y-77586428D01*
X68642857Y-77586428D02*
X68261905Y-77586428D01*
X69690476Y-77395952D02*
X69690476Y-78062619D01*
X69452381Y-77015000D02*
X69214286Y-77729285D01*
X69214286Y-77729285D02*
X69833333Y-77729285D01*
X62257142Y-103862619D02*
X61923809Y-103386428D01*
X61685714Y-103862619D02*
X61685714Y-102862619D01*
X61685714Y-102862619D02*
X62066666Y-102862619D01*
X62066666Y-102862619D02*
X62161904Y-102910238D01*
X62161904Y-102910238D02*
X62209523Y-102957857D01*
X62209523Y-102957857D02*
X62257142Y-103053095D01*
X62257142Y-103053095D02*
X62257142Y-103195952D01*
X62257142Y-103195952D02*
X62209523Y-103291190D01*
X62209523Y-103291190D02*
X62161904Y-103338809D01*
X62161904Y-103338809D02*
X62066666Y-103386428D01*
X62066666Y-103386428D02*
X61685714Y-103386428D01*
X63209523Y-103862619D02*
X62638095Y-103862619D01*
X62923809Y-103862619D02*
X62923809Y-102862619D01*
X62923809Y-102862619D02*
X62828571Y-103005476D01*
X62828571Y-103005476D02*
X62733333Y-103100714D01*
X62733333Y-103100714D02*
X62638095Y-103148333D01*
X64066666Y-103195952D02*
X64066666Y-103862619D01*
X63828571Y-102815000D02*
X63590476Y-103529285D01*
X63590476Y-103529285D02*
X64209523Y-103529285D01*
X68833333Y-82162619D02*
X68500000Y-81686428D01*
X68261905Y-82162619D02*
X68261905Y-81162619D01*
X68261905Y-81162619D02*
X68642857Y-81162619D01*
X68642857Y-81162619D02*
X68738095Y-81210238D01*
X68738095Y-81210238D02*
X68785714Y-81257857D01*
X68785714Y-81257857D02*
X68833333Y-81353095D01*
X68833333Y-81353095D02*
X68833333Y-81495952D01*
X68833333Y-81495952D02*
X68785714Y-81591190D01*
X68785714Y-81591190D02*
X68738095Y-81638809D01*
X68738095Y-81638809D02*
X68642857Y-81686428D01*
X68642857Y-81686428D02*
X68261905Y-81686428D01*
X69404762Y-81591190D02*
X69309524Y-81543571D01*
X69309524Y-81543571D02*
X69261905Y-81495952D01*
X69261905Y-81495952D02*
X69214286Y-81400714D01*
X69214286Y-81400714D02*
X69214286Y-81353095D01*
X69214286Y-81353095D02*
X69261905Y-81257857D01*
X69261905Y-81257857D02*
X69309524Y-81210238D01*
X69309524Y-81210238D02*
X69404762Y-81162619D01*
X69404762Y-81162619D02*
X69595238Y-81162619D01*
X69595238Y-81162619D02*
X69690476Y-81210238D01*
X69690476Y-81210238D02*
X69738095Y-81257857D01*
X69738095Y-81257857D02*
X69785714Y-81353095D01*
X69785714Y-81353095D02*
X69785714Y-81400714D01*
X69785714Y-81400714D02*
X69738095Y-81495952D01*
X69738095Y-81495952D02*
X69690476Y-81543571D01*
X69690476Y-81543571D02*
X69595238Y-81591190D01*
X69595238Y-81591190D02*
X69404762Y-81591190D01*
X69404762Y-81591190D02*
X69309524Y-81638809D01*
X69309524Y-81638809D02*
X69261905Y-81686428D01*
X69261905Y-81686428D02*
X69214286Y-81781666D01*
X69214286Y-81781666D02*
X69214286Y-81972142D01*
X69214286Y-81972142D02*
X69261905Y-82067380D01*
X69261905Y-82067380D02*
X69309524Y-82115000D01*
X69309524Y-82115000D02*
X69404762Y-82162619D01*
X69404762Y-82162619D02*
X69595238Y-82162619D01*
X69595238Y-82162619D02*
X69690476Y-82115000D01*
X69690476Y-82115000D02*
X69738095Y-82067380D01*
X69738095Y-82067380D02*
X69785714Y-81972142D01*
X69785714Y-81972142D02*
X69785714Y-81781666D01*
X69785714Y-81781666D02*
X69738095Y-81686428D01*
X69738095Y-81686428D02*
X69690476Y-81638809D01*
X69690476Y-81638809D02*
X69595238Y-81591190D01*
X65457142Y-116767380D02*
X65409523Y-116815000D01*
X65409523Y-116815000D02*
X65266666Y-116862619D01*
X65266666Y-116862619D02*
X65171428Y-116862619D01*
X65171428Y-116862619D02*
X65028571Y-116815000D01*
X65028571Y-116815000D02*
X64933333Y-116719761D01*
X64933333Y-116719761D02*
X64885714Y-116624523D01*
X64885714Y-116624523D02*
X64838095Y-116434047D01*
X64838095Y-116434047D02*
X64838095Y-116291190D01*
X64838095Y-116291190D02*
X64885714Y-116100714D01*
X64885714Y-116100714D02*
X64933333Y-116005476D01*
X64933333Y-116005476D02*
X65028571Y-115910238D01*
X65028571Y-115910238D02*
X65171428Y-115862619D01*
X65171428Y-115862619D02*
X65266666Y-115862619D01*
X65266666Y-115862619D02*
X65409523Y-115910238D01*
X65409523Y-115910238D02*
X65457142Y-115957857D01*
X66409523Y-116862619D02*
X65838095Y-116862619D01*
X66123809Y-116862619D02*
X66123809Y-115862619D01*
X66123809Y-115862619D02*
X66028571Y-116005476D01*
X66028571Y-116005476D02*
X65933333Y-116100714D01*
X65933333Y-116100714D02*
X65838095Y-116148333D01*
X67361904Y-116862619D02*
X66790476Y-116862619D01*
X67076190Y-116862619D02*
X67076190Y-115862619D01*
X67076190Y-115862619D02*
X66980952Y-116005476D01*
X66980952Y-116005476D02*
X66885714Y-116100714D01*
X66885714Y-116100714D02*
X66790476Y-116148333D01*
X64261905Y-77975119D02*
X64261905Y-76975119D01*
X64261905Y-76975119D02*
X64500000Y-76975119D01*
X64500000Y-76975119D02*
X64642857Y-77022738D01*
X64642857Y-77022738D02*
X64738095Y-77117976D01*
X64738095Y-77117976D02*
X64785714Y-77213214D01*
X64785714Y-77213214D02*
X64833333Y-77403690D01*
X64833333Y-77403690D02*
X64833333Y-77546547D01*
X64833333Y-77546547D02*
X64785714Y-77737023D01*
X64785714Y-77737023D02*
X64738095Y-77832261D01*
X64738095Y-77832261D02*
X64642857Y-77927500D01*
X64642857Y-77927500D02*
X64500000Y-77975119D01*
X64500000Y-77975119D02*
X64261905Y-77975119D01*
X65785714Y-77975119D02*
X65214286Y-77975119D01*
X65500000Y-77975119D02*
X65500000Y-76975119D01*
X65500000Y-76975119D02*
X65404762Y-77117976D01*
X65404762Y-77117976D02*
X65309524Y-77213214D01*
X65309524Y-77213214D02*
X65214286Y-77260833D01*
X57857142Y-128617380D02*
X57809523Y-128665000D01*
X57809523Y-128665000D02*
X57666666Y-128712619D01*
X57666666Y-128712619D02*
X57571428Y-128712619D01*
X57571428Y-128712619D02*
X57428571Y-128665000D01*
X57428571Y-128665000D02*
X57333333Y-128569761D01*
X57333333Y-128569761D02*
X57285714Y-128474523D01*
X57285714Y-128474523D02*
X57238095Y-128284047D01*
X57238095Y-128284047D02*
X57238095Y-128141190D01*
X57238095Y-128141190D02*
X57285714Y-127950714D01*
X57285714Y-127950714D02*
X57333333Y-127855476D01*
X57333333Y-127855476D02*
X57428571Y-127760238D01*
X57428571Y-127760238D02*
X57571428Y-127712619D01*
X57571428Y-127712619D02*
X57666666Y-127712619D01*
X57666666Y-127712619D02*
X57809523Y-127760238D01*
X57809523Y-127760238D02*
X57857142Y-127807857D01*
X58809523Y-128712619D02*
X58238095Y-128712619D01*
X58523809Y-128712619D02*
X58523809Y-127712619D01*
X58523809Y-127712619D02*
X58428571Y-127855476D01*
X58428571Y-127855476D02*
X58333333Y-127950714D01*
X58333333Y-127950714D02*
X58238095Y-127998333D01*
X59666666Y-127712619D02*
X59476190Y-127712619D01*
X59476190Y-127712619D02*
X59380952Y-127760238D01*
X59380952Y-127760238D02*
X59333333Y-127807857D01*
X59333333Y-127807857D02*
X59238095Y-127950714D01*
X59238095Y-127950714D02*
X59190476Y-128141190D01*
X59190476Y-128141190D02*
X59190476Y-128522142D01*
X59190476Y-128522142D02*
X59238095Y-128617380D01*
X59238095Y-128617380D02*
X59285714Y-128665000D01*
X59285714Y-128665000D02*
X59380952Y-128712619D01*
X59380952Y-128712619D02*
X59571428Y-128712619D01*
X59571428Y-128712619D02*
X59666666Y-128665000D01*
X59666666Y-128665000D02*
X59714285Y-128617380D01*
X59714285Y-128617380D02*
X59761904Y-128522142D01*
X59761904Y-128522142D02*
X59761904Y-128284047D01*
X59761904Y-128284047D02*
X59714285Y-128188809D01*
X59714285Y-128188809D02*
X59666666Y-128141190D01*
X59666666Y-128141190D02*
X59571428Y-128093571D01*
X59571428Y-128093571D02*
X59380952Y-128093571D01*
X59380952Y-128093571D02*
X59285714Y-128141190D01*
X59285714Y-128141190D02*
X59238095Y-128188809D01*
X59238095Y-128188809D02*
X59190476Y-128284047D01*
X59533333Y-115967380D02*
X59485714Y-116015000D01*
X59485714Y-116015000D02*
X59342857Y-116062619D01*
X59342857Y-116062619D02*
X59247619Y-116062619D01*
X59247619Y-116062619D02*
X59104762Y-116015000D01*
X59104762Y-116015000D02*
X59009524Y-115919761D01*
X59009524Y-115919761D02*
X58961905Y-115824523D01*
X58961905Y-115824523D02*
X58914286Y-115634047D01*
X58914286Y-115634047D02*
X58914286Y-115491190D01*
X58914286Y-115491190D02*
X58961905Y-115300714D01*
X58961905Y-115300714D02*
X59009524Y-115205476D01*
X59009524Y-115205476D02*
X59104762Y-115110238D01*
X59104762Y-115110238D02*
X59247619Y-115062619D01*
X59247619Y-115062619D02*
X59342857Y-115062619D01*
X59342857Y-115062619D02*
X59485714Y-115110238D01*
X59485714Y-115110238D02*
X59533333Y-115157857D01*
X60009524Y-116062619D02*
X60200000Y-116062619D01*
X60200000Y-116062619D02*
X60295238Y-116015000D01*
X60295238Y-116015000D02*
X60342857Y-115967380D01*
X60342857Y-115967380D02*
X60438095Y-115824523D01*
X60438095Y-115824523D02*
X60485714Y-115634047D01*
X60485714Y-115634047D02*
X60485714Y-115253095D01*
X60485714Y-115253095D02*
X60438095Y-115157857D01*
X60438095Y-115157857D02*
X60390476Y-115110238D01*
X60390476Y-115110238D02*
X60295238Y-115062619D01*
X60295238Y-115062619D02*
X60104762Y-115062619D01*
X60104762Y-115062619D02*
X60009524Y-115110238D01*
X60009524Y-115110238D02*
X59961905Y-115157857D01*
X59961905Y-115157857D02*
X59914286Y-115253095D01*
X59914286Y-115253095D02*
X59914286Y-115491190D01*
X59914286Y-115491190D02*
X59961905Y-115586428D01*
X59961905Y-115586428D02*
X60009524Y-115634047D01*
X60009524Y-115634047D02*
X60104762Y-115681666D01*
X60104762Y-115681666D02*
X60295238Y-115681666D01*
X60295238Y-115681666D02*
X60390476Y-115634047D01*
X60390476Y-115634047D02*
X60438095Y-115586428D01*
X60438095Y-115586428D02*
X60485714Y-115491190D01*
X69366666Y-46632619D02*
X69366666Y-47346904D01*
X69366666Y-47346904D02*
X69319047Y-47489761D01*
X69319047Y-47489761D02*
X69223809Y-47585000D01*
X69223809Y-47585000D02*
X69080952Y-47632619D01*
X69080952Y-47632619D02*
X68985714Y-47632619D01*
X70366666Y-47632619D02*
X69795238Y-47632619D01*
X70080952Y-47632619D02*
X70080952Y-46632619D01*
X70080952Y-46632619D02*
X69985714Y-46775476D01*
X69985714Y-46775476D02*
X69890476Y-46870714D01*
X69890476Y-46870714D02*
X69795238Y-46918333D01*
X62633333Y-101767380D02*
X62585714Y-101815000D01*
X62585714Y-101815000D02*
X62442857Y-101862619D01*
X62442857Y-101862619D02*
X62347619Y-101862619D01*
X62347619Y-101862619D02*
X62204762Y-101815000D01*
X62204762Y-101815000D02*
X62109524Y-101719761D01*
X62109524Y-101719761D02*
X62061905Y-101624523D01*
X62061905Y-101624523D02*
X62014286Y-101434047D01*
X62014286Y-101434047D02*
X62014286Y-101291190D01*
X62014286Y-101291190D02*
X62061905Y-101100714D01*
X62061905Y-101100714D02*
X62109524Y-101005476D01*
X62109524Y-101005476D02*
X62204762Y-100910238D01*
X62204762Y-100910238D02*
X62347619Y-100862619D01*
X62347619Y-100862619D02*
X62442857Y-100862619D01*
X62442857Y-100862619D02*
X62585714Y-100910238D01*
X62585714Y-100910238D02*
X62633333Y-100957857D01*
X63490476Y-101195952D02*
X63490476Y-101862619D01*
X63252381Y-100815000D02*
X63014286Y-101529285D01*
X63014286Y-101529285D02*
X63633333Y-101529285D01*
X57461905Y-91762619D02*
X57461905Y-90762619D01*
X57461905Y-90762619D02*
X57700000Y-90762619D01*
X57700000Y-90762619D02*
X57842857Y-90810238D01*
X57842857Y-90810238D02*
X57938095Y-90905476D01*
X57938095Y-90905476D02*
X57985714Y-91000714D01*
X57985714Y-91000714D02*
X58033333Y-91191190D01*
X58033333Y-91191190D02*
X58033333Y-91334047D01*
X58033333Y-91334047D02*
X57985714Y-91524523D01*
X57985714Y-91524523D02*
X57938095Y-91619761D01*
X57938095Y-91619761D02*
X57842857Y-91715000D01*
X57842857Y-91715000D02*
X57700000Y-91762619D01*
X57700000Y-91762619D02*
X57461905Y-91762619D01*
X58890476Y-91095952D02*
X58890476Y-91762619D01*
X58652381Y-90715000D02*
X58414286Y-91429285D01*
X58414286Y-91429285D02*
X59033333Y-91429285D01*
X57433333Y-60167380D02*
X57385714Y-60215000D01*
X57385714Y-60215000D02*
X57242857Y-60262619D01*
X57242857Y-60262619D02*
X57147619Y-60262619D01*
X57147619Y-60262619D02*
X57004762Y-60215000D01*
X57004762Y-60215000D02*
X56909524Y-60119761D01*
X56909524Y-60119761D02*
X56861905Y-60024523D01*
X56861905Y-60024523D02*
X56814286Y-59834047D01*
X56814286Y-59834047D02*
X56814286Y-59691190D01*
X56814286Y-59691190D02*
X56861905Y-59500714D01*
X56861905Y-59500714D02*
X56909524Y-59405476D01*
X56909524Y-59405476D02*
X57004762Y-59310238D01*
X57004762Y-59310238D02*
X57147619Y-59262619D01*
X57147619Y-59262619D02*
X57242857Y-59262619D01*
X57242857Y-59262619D02*
X57385714Y-59310238D01*
X57385714Y-59310238D02*
X57433333Y-59357857D01*
X58385714Y-60262619D02*
X57814286Y-60262619D01*
X58100000Y-60262619D02*
X58100000Y-59262619D01*
X58100000Y-59262619D02*
X58004762Y-59405476D01*
X58004762Y-59405476D02*
X57909524Y-59500714D01*
X57909524Y-59500714D02*
X57814286Y-59548333D01*
X68457142Y-84862619D02*
X68123809Y-84386428D01*
X67885714Y-84862619D02*
X67885714Y-83862619D01*
X67885714Y-83862619D02*
X68266666Y-83862619D01*
X68266666Y-83862619D02*
X68361904Y-83910238D01*
X68361904Y-83910238D02*
X68409523Y-83957857D01*
X68409523Y-83957857D02*
X68457142Y-84053095D01*
X68457142Y-84053095D02*
X68457142Y-84195952D01*
X68457142Y-84195952D02*
X68409523Y-84291190D01*
X68409523Y-84291190D02*
X68361904Y-84338809D01*
X68361904Y-84338809D02*
X68266666Y-84386428D01*
X68266666Y-84386428D02*
X67885714Y-84386428D01*
X69409523Y-84862619D02*
X68838095Y-84862619D01*
X69123809Y-84862619D02*
X69123809Y-83862619D01*
X69123809Y-83862619D02*
X69028571Y-84005476D01*
X69028571Y-84005476D02*
X68933333Y-84100714D01*
X68933333Y-84100714D02*
X68838095Y-84148333D01*
X69790476Y-83957857D02*
X69838095Y-83910238D01*
X69838095Y-83910238D02*
X69933333Y-83862619D01*
X69933333Y-83862619D02*
X70171428Y-83862619D01*
X70171428Y-83862619D02*
X70266666Y-83910238D01*
X70266666Y-83910238D02*
X70314285Y-83957857D01*
X70314285Y-83957857D02*
X70361904Y-84053095D01*
X70361904Y-84053095D02*
X70361904Y-84148333D01*
X70361904Y-84148333D02*
X70314285Y-84291190D01*
X70314285Y-84291190D02*
X69742857Y-84862619D01*
X69742857Y-84862619D02*
X70361904Y-84862619D01*
X56457142Y-79762619D02*
X56123809Y-79286428D01*
X55885714Y-79762619D02*
X55885714Y-78762619D01*
X55885714Y-78762619D02*
X56266666Y-78762619D01*
X56266666Y-78762619D02*
X56361904Y-78810238D01*
X56361904Y-78810238D02*
X56409523Y-78857857D01*
X56409523Y-78857857D02*
X56457142Y-78953095D01*
X56457142Y-78953095D02*
X56457142Y-79095952D01*
X56457142Y-79095952D02*
X56409523Y-79191190D01*
X56409523Y-79191190D02*
X56361904Y-79238809D01*
X56361904Y-79238809D02*
X56266666Y-79286428D01*
X56266666Y-79286428D02*
X55885714Y-79286428D01*
X57409523Y-79762619D02*
X56838095Y-79762619D01*
X57123809Y-79762619D02*
X57123809Y-78762619D01*
X57123809Y-78762619D02*
X57028571Y-78905476D01*
X57028571Y-78905476D02*
X56933333Y-79000714D01*
X56933333Y-79000714D02*
X56838095Y-79048333D01*
X57742857Y-78762619D02*
X58361904Y-78762619D01*
X58361904Y-78762619D02*
X58028571Y-79143571D01*
X58028571Y-79143571D02*
X58171428Y-79143571D01*
X58171428Y-79143571D02*
X58266666Y-79191190D01*
X58266666Y-79191190D02*
X58314285Y-79238809D01*
X58314285Y-79238809D02*
X58361904Y-79334047D01*
X58361904Y-79334047D02*
X58361904Y-79572142D01*
X58361904Y-79572142D02*
X58314285Y-79667380D01*
X58314285Y-79667380D02*
X58266666Y-79715000D01*
X58266666Y-79715000D02*
X58171428Y-79762619D01*
X58171428Y-79762619D02*
X57885714Y-79762619D01*
X57885714Y-79762619D02*
X57790476Y-79715000D01*
X57790476Y-79715000D02*
X57742857Y-79667380D01*
X62538095Y-63982619D02*
X62538095Y-64792142D01*
X62538095Y-64792142D02*
X62585714Y-64887380D01*
X62585714Y-64887380D02*
X62633333Y-64935000D01*
X62633333Y-64935000D02*
X62728571Y-64982619D01*
X62728571Y-64982619D02*
X62919047Y-64982619D01*
X62919047Y-64982619D02*
X63014285Y-64935000D01*
X63014285Y-64935000D02*
X63061904Y-64887380D01*
X63061904Y-64887380D02*
X63109523Y-64792142D01*
X63109523Y-64792142D02*
X63109523Y-63982619D01*
X64109523Y-64982619D02*
X63538095Y-64982619D01*
X63823809Y-64982619D02*
X63823809Y-63982619D01*
X63823809Y-63982619D02*
X63728571Y-64125476D01*
X63728571Y-64125476D02*
X63633333Y-64220714D01*
X63633333Y-64220714D02*
X63538095Y-64268333D01*
X62633333Y-107867380D02*
X62585714Y-107915000D01*
X62585714Y-107915000D02*
X62442857Y-107962619D01*
X62442857Y-107962619D02*
X62347619Y-107962619D01*
X62347619Y-107962619D02*
X62204762Y-107915000D01*
X62204762Y-107915000D02*
X62109524Y-107819761D01*
X62109524Y-107819761D02*
X62061905Y-107724523D01*
X62061905Y-107724523D02*
X62014286Y-107534047D01*
X62014286Y-107534047D02*
X62014286Y-107391190D01*
X62014286Y-107391190D02*
X62061905Y-107200714D01*
X62061905Y-107200714D02*
X62109524Y-107105476D01*
X62109524Y-107105476D02*
X62204762Y-107010238D01*
X62204762Y-107010238D02*
X62347619Y-106962619D01*
X62347619Y-106962619D02*
X62442857Y-106962619D01*
X62442857Y-106962619D02*
X62585714Y-107010238D01*
X62585714Y-107010238D02*
X62633333Y-107057857D01*
X63538095Y-106962619D02*
X63061905Y-106962619D01*
X63061905Y-106962619D02*
X63014286Y-107438809D01*
X63014286Y-107438809D02*
X63061905Y-107391190D01*
X63061905Y-107391190D02*
X63157143Y-107343571D01*
X63157143Y-107343571D02*
X63395238Y-107343571D01*
X63395238Y-107343571D02*
X63490476Y-107391190D01*
X63490476Y-107391190D02*
X63538095Y-107438809D01*
X63538095Y-107438809D02*
X63585714Y-107534047D01*
X63585714Y-107534047D02*
X63585714Y-107772142D01*
X63585714Y-107772142D02*
X63538095Y-107867380D01*
X63538095Y-107867380D02*
X63490476Y-107915000D01*
X63490476Y-107915000D02*
X63395238Y-107962619D01*
X63395238Y-107962619D02*
X63157143Y-107962619D01*
X63157143Y-107962619D02*
X63061905Y-107915000D01*
X63061905Y-107915000D02*
X63014286Y-107867380D01*
X57167380Y-125492857D02*
X57215000Y-125540476D01*
X57215000Y-125540476D02*
X57262619Y-125683333D01*
X57262619Y-125683333D02*
X57262619Y-125778571D01*
X57262619Y-125778571D02*
X57215000Y-125921428D01*
X57215000Y-125921428D02*
X57119761Y-126016666D01*
X57119761Y-126016666D02*
X57024523Y-126064285D01*
X57024523Y-126064285D02*
X56834047Y-126111904D01*
X56834047Y-126111904D02*
X56691190Y-126111904D01*
X56691190Y-126111904D02*
X56500714Y-126064285D01*
X56500714Y-126064285D02*
X56405476Y-126016666D01*
X56405476Y-126016666D02*
X56310238Y-125921428D01*
X56310238Y-125921428D02*
X56262619Y-125778571D01*
X56262619Y-125778571D02*
X56262619Y-125683333D01*
X56262619Y-125683333D02*
X56310238Y-125540476D01*
X56310238Y-125540476D02*
X56357857Y-125492857D01*
X57262619Y-124540476D02*
X57262619Y-125111904D01*
X57262619Y-124826190D02*
X56262619Y-124826190D01*
X56262619Y-124826190D02*
X56405476Y-124921428D01*
X56405476Y-124921428D02*
X56500714Y-125016666D01*
X56500714Y-125016666D02*
X56548333Y-125111904D01*
X56357857Y-124159523D02*
X56310238Y-124111904D01*
X56310238Y-124111904D02*
X56262619Y-124016666D01*
X56262619Y-124016666D02*
X56262619Y-123778571D01*
X56262619Y-123778571D02*
X56310238Y-123683333D01*
X56310238Y-123683333D02*
X56357857Y-123635714D01*
X56357857Y-123635714D02*
X56453095Y-123588095D01*
X56453095Y-123588095D02*
X56548333Y-123588095D01*
X56548333Y-123588095D02*
X56691190Y-123635714D01*
X56691190Y-123635714D02*
X57262619Y-124207142D01*
X57262619Y-124207142D02*
X57262619Y-123588095D01*
X56457142Y-78562619D02*
X56123809Y-78086428D01*
X55885714Y-78562619D02*
X55885714Y-77562619D01*
X55885714Y-77562619D02*
X56266666Y-77562619D01*
X56266666Y-77562619D02*
X56361904Y-77610238D01*
X56361904Y-77610238D02*
X56409523Y-77657857D01*
X56409523Y-77657857D02*
X56457142Y-77753095D01*
X56457142Y-77753095D02*
X56457142Y-77895952D01*
X56457142Y-77895952D02*
X56409523Y-77991190D01*
X56409523Y-77991190D02*
X56361904Y-78038809D01*
X56361904Y-78038809D02*
X56266666Y-78086428D01*
X56266666Y-78086428D02*
X55885714Y-78086428D01*
X57409523Y-78562619D02*
X56838095Y-78562619D01*
X57123809Y-78562619D02*
X57123809Y-77562619D01*
X57123809Y-77562619D02*
X57028571Y-77705476D01*
X57028571Y-77705476D02*
X56933333Y-77800714D01*
X56933333Y-77800714D02*
X56838095Y-77848333D01*
X58028571Y-77562619D02*
X58123809Y-77562619D01*
X58123809Y-77562619D02*
X58219047Y-77610238D01*
X58219047Y-77610238D02*
X58266666Y-77657857D01*
X58266666Y-77657857D02*
X58314285Y-77753095D01*
X58314285Y-77753095D02*
X58361904Y-77943571D01*
X58361904Y-77943571D02*
X58361904Y-78181666D01*
X58361904Y-78181666D02*
X58314285Y-78372142D01*
X58314285Y-78372142D02*
X58266666Y-78467380D01*
X58266666Y-78467380D02*
X58219047Y-78515000D01*
X58219047Y-78515000D02*
X58123809Y-78562619D01*
X58123809Y-78562619D02*
X58028571Y-78562619D01*
X58028571Y-78562619D02*
X57933333Y-78515000D01*
X57933333Y-78515000D02*
X57885714Y-78467380D01*
X57885714Y-78467380D02*
X57838095Y-78372142D01*
X57838095Y-78372142D02*
X57790476Y-78181666D01*
X57790476Y-78181666D02*
X57790476Y-77943571D01*
X57790476Y-77943571D02*
X57838095Y-77753095D01*
X57838095Y-77753095D02*
X57885714Y-77657857D01*
X57885714Y-77657857D02*
X57933333Y-77610238D01*
X57933333Y-77610238D02*
X58028571Y-77562619D01*
X57433333Y-62862619D02*
X57100000Y-62386428D01*
X56861905Y-62862619D02*
X56861905Y-61862619D01*
X56861905Y-61862619D02*
X57242857Y-61862619D01*
X57242857Y-61862619D02*
X57338095Y-61910238D01*
X57338095Y-61910238D02*
X57385714Y-61957857D01*
X57385714Y-61957857D02*
X57433333Y-62053095D01*
X57433333Y-62053095D02*
X57433333Y-62195952D01*
X57433333Y-62195952D02*
X57385714Y-62291190D01*
X57385714Y-62291190D02*
X57338095Y-62338809D01*
X57338095Y-62338809D02*
X57242857Y-62386428D01*
X57242857Y-62386428D02*
X56861905Y-62386428D01*
X57766667Y-61862619D02*
X58433333Y-61862619D01*
X58433333Y-61862619D02*
X58004762Y-62862619D01*
X68833333Y-83462619D02*
X68500000Y-82986428D01*
X68261905Y-83462619D02*
X68261905Y-82462619D01*
X68261905Y-82462619D02*
X68642857Y-82462619D01*
X68642857Y-82462619D02*
X68738095Y-82510238D01*
X68738095Y-82510238D02*
X68785714Y-82557857D01*
X68785714Y-82557857D02*
X68833333Y-82653095D01*
X68833333Y-82653095D02*
X68833333Y-82795952D01*
X68833333Y-82795952D02*
X68785714Y-82891190D01*
X68785714Y-82891190D02*
X68738095Y-82938809D01*
X68738095Y-82938809D02*
X68642857Y-82986428D01*
X68642857Y-82986428D02*
X68261905Y-82986428D01*
X69309524Y-83462619D02*
X69500000Y-83462619D01*
X69500000Y-83462619D02*
X69595238Y-83415000D01*
X69595238Y-83415000D02*
X69642857Y-83367380D01*
X69642857Y-83367380D02*
X69738095Y-83224523D01*
X69738095Y-83224523D02*
X69785714Y-83034047D01*
X69785714Y-83034047D02*
X69785714Y-82653095D01*
X69785714Y-82653095D02*
X69738095Y-82557857D01*
X69738095Y-82557857D02*
X69690476Y-82510238D01*
X69690476Y-82510238D02*
X69595238Y-82462619D01*
X69595238Y-82462619D02*
X69404762Y-82462619D01*
X69404762Y-82462619D02*
X69309524Y-82510238D01*
X69309524Y-82510238D02*
X69261905Y-82557857D01*
X69261905Y-82557857D02*
X69214286Y-82653095D01*
X69214286Y-82653095D02*
X69214286Y-82891190D01*
X69214286Y-82891190D02*
X69261905Y-82986428D01*
X69261905Y-82986428D02*
X69309524Y-83034047D01*
X69309524Y-83034047D02*
X69404762Y-83081666D01*
X69404762Y-83081666D02*
X69595238Y-83081666D01*
X69595238Y-83081666D02*
X69690476Y-83034047D01*
X69690476Y-83034047D02*
X69738095Y-82986428D01*
X69738095Y-82986428D02*
X69785714Y-82891190D01*
X68833333Y-80667380D02*
X68785714Y-80715000D01*
X68785714Y-80715000D02*
X68642857Y-80762619D01*
X68642857Y-80762619D02*
X68547619Y-80762619D01*
X68547619Y-80762619D02*
X68404762Y-80715000D01*
X68404762Y-80715000D02*
X68309524Y-80619761D01*
X68309524Y-80619761D02*
X68261905Y-80524523D01*
X68261905Y-80524523D02*
X68214286Y-80334047D01*
X68214286Y-80334047D02*
X68214286Y-80191190D01*
X68214286Y-80191190D02*
X68261905Y-80000714D01*
X68261905Y-80000714D02*
X68309524Y-79905476D01*
X68309524Y-79905476D02*
X68404762Y-79810238D01*
X68404762Y-79810238D02*
X68547619Y-79762619D01*
X68547619Y-79762619D02*
X68642857Y-79762619D01*
X68642857Y-79762619D02*
X68785714Y-79810238D01*
X68785714Y-79810238D02*
X68833333Y-79857857D01*
X69214286Y-79857857D02*
X69261905Y-79810238D01*
X69261905Y-79810238D02*
X69357143Y-79762619D01*
X69357143Y-79762619D02*
X69595238Y-79762619D01*
X69595238Y-79762619D02*
X69690476Y-79810238D01*
X69690476Y-79810238D02*
X69738095Y-79857857D01*
X69738095Y-79857857D02*
X69785714Y-79953095D01*
X69785714Y-79953095D02*
X69785714Y-80048333D01*
X69785714Y-80048333D02*
X69738095Y-80191190D01*
X69738095Y-80191190D02*
X69166667Y-80762619D01*
X69166667Y-80762619D02*
X69785714Y-80762619D01*
X52966666Y-64932619D02*
X52966666Y-65646904D01*
X52966666Y-65646904D02*
X52919047Y-65789761D01*
X52919047Y-65789761D02*
X52823809Y-65885000D01*
X52823809Y-65885000D02*
X52680952Y-65932619D01*
X52680952Y-65932619D02*
X52585714Y-65932619D01*
X53395238Y-65027857D02*
X53442857Y-64980238D01*
X53442857Y-64980238D02*
X53538095Y-64932619D01*
X53538095Y-64932619D02*
X53776190Y-64932619D01*
X53776190Y-64932619D02*
X53871428Y-64980238D01*
X53871428Y-64980238D02*
X53919047Y-65027857D01*
X53919047Y-65027857D02*
X53966666Y-65123095D01*
X53966666Y-65123095D02*
X53966666Y-65218333D01*
X53966666Y-65218333D02*
X53919047Y-65361190D01*
X53919047Y-65361190D02*
X53347619Y-65932619D01*
X53347619Y-65932619D02*
X53966666Y-65932619D01*
X59633333Y-113367380D02*
X59585714Y-113415000D01*
X59585714Y-113415000D02*
X59442857Y-113462619D01*
X59442857Y-113462619D02*
X59347619Y-113462619D01*
X59347619Y-113462619D02*
X59204762Y-113415000D01*
X59204762Y-113415000D02*
X59109524Y-113319761D01*
X59109524Y-113319761D02*
X59061905Y-113224523D01*
X59061905Y-113224523D02*
X59014286Y-113034047D01*
X59014286Y-113034047D02*
X59014286Y-112891190D01*
X59014286Y-112891190D02*
X59061905Y-112700714D01*
X59061905Y-112700714D02*
X59109524Y-112605476D01*
X59109524Y-112605476D02*
X59204762Y-112510238D01*
X59204762Y-112510238D02*
X59347619Y-112462619D01*
X59347619Y-112462619D02*
X59442857Y-112462619D01*
X59442857Y-112462619D02*
X59585714Y-112510238D01*
X59585714Y-112510238D02*
X59633333Y-112557857D01*
X59966667Y-112462619D02*
X60633333Y-112462619D01*
X60633333Y-112462619D02*
X60204762Y-113462619D01*
X62933333Y-57562619D02*
X62600000Y-57086428D01*
X62361905Y-57562619D02*
X62361905Y-56562619D01*
X62361905Y-56562619D02*
X62742857Y-56562619D01*
X62742857Y-56562619D02*
X62838095Y-56610238D01*
X62838095Y-56610238D02*
X62885714Y-56657857D01*
X62885714Y-56657857D02*
X62933333Y-56753095D01*
X62933333Y-56753095D02*
X62933333Y-56895952D01*
X62933333Y-56895952D02*
X62885714Y-56991190D01*
X62885714Y-56991190D02*
X62838095Y-57038809D01*
X62838095Y-57038809D02*
X62742857Y-57086428D01*
X62742857Y-57086428D02*
X62361905Y-57086428D01*
X63266667Y-56562619D02*
X63885714Y-56562619D01*
X63885714Y-56562619D02*
X63552381Y-56943571D01*
X63552381Y-56943571D02*
X63695238Y-56943571D01*
X63695238Y-56943571D02*
X63790476Y-56991190D01*
X63790476Y-56991190D02*
X63838095Y-57038809D01*
X63838095Y-57038809D02*
X63885714Y-57134047D01*
X63885714Y-57134047D02*
X63885714Y-57372142D01*
X63885714Y-57372142D02*
X63838095Y-57467380D01*
X63838095Y-57467380D02*
X63790476Y-57515000D01*
X63790476Y-57515000D02*
X63695238Y-57562619D01*
X63695238Y-57562619D02*
X63409524Y-57562619D01*
X63409524Y-57562619D02*
X63314286Y-57515000D01*
X63314286Y-57515000D02*
X63266667Y-57467380D01*
X64294405Y-83875119D02*
X64294405Y-82875119D01*
X64294405Y-82875119D02*
X64532500Y-82875119D01*
X64532500Y-82875119D02*
X64675357Y-82922738D01*
X64675357Y-82922738D02*
X64770595Y-83017976D01*
X64770595Y-83017976D02*
X64818214Y-83113214D01*
X64818214Y-83113214D02*
X64865833Y-83303690D01*
X64865833Y-83303690D02*
X64865833Y-83446547D01*
X64865833Y-83446547D02*
X64818214Y-83637023D01*
X64818214Y-83637023D02*
X64770595Y-83732261D01*
X64770595Y-83732261D02*
X64675357Y-83827500D01*
X64675357Y-83827500D02*
X64532500Y-83875119D01*
X64532500Y-83875119D02*
X64294405Y-83875119D01*
X65246786Y-82970357D02*
X65294405Y-82922738D01*
X65294405Y-82922738D02*
X65389643Y-82875119D01*
X65389643Y-82875119D02*
X65627738Y-82875119D01*
X65627738Y-82875119D02*
X65722976Y-82922738D01*
X65722976Y-82922738D02*
X65770595Y-82970357D01*
X65770595Y-82970357D02*
X65818214Y-83065595D01*
X65818214Y-83065595D02*
X65818214Y-83160833D01*
X65818214Y-83160833D02*
X65770595Y-83303690D01*
X65770595Y-83303690D02*
X65199167Y-83875119D01*
X65199167Y-83875119D02*
X65818214Y-83875119D01*
X60857142Y-77662619D02*
X60523809Y-77186428D01*
X60285714Y-77662619D02*
X60285714Y-76662619D01*
X60285714Y-76662619D02*
X60666666Y-76662619D01*
X60666666Y-76662619D02*
X60761904Y-76710238D01*
X60761904Y-76710238D02*
X60809523Y-76757857D01*
X60809523Y-76757857D02*
X60857142Y-76853095D01*
X60857142Y-76853095D02*
X60857142Y-76995952D01*
X60857142Y-76995952D02*
X60809523Y-77091190D01*
X60809523Y-77091190D02*
X60761904Y-77138809D01*
X60761904Y-77138809D02*
X60666666Y-77186428D01*
X60666666Y-77186428D02*
X60285714Y-77186428D01*
X61809523Y-77662619D02*
X61238095Y-77662619D01*
X61523809Y-77662619D02*
X61523809Y-76662619D01*
X61523809Y-76662619D02*
X61428571Y-76805476D01*
X61428571Y-76805476D02*
X61333333Y-76900714D01*
X61333333Y-76900714D02*
X61238095Y-76948333D01*
X62761904Y-77662619D02*
X62190476Y-77662619D01*
X62476190Y-77662619D02*
X62476190Y-76662619D01*
X62476190Y-76662619D02*
X62380952Y-76805476D01*
X62380952Y-76805476D02*
X62285714Y-76900714D01*
X62285714Y-76900714D02*
X62190476Y-76948333D01*
X57433333Y-61562619D02*
X57100000Y-61086428D01*
X56861905Y-61562619D02*
X56861905Y-60562619D01*
X56861905Y-60562619D02*
X57242857Y-60562619D01*
X57242857Y-60562619D02*
X57338095Y-60610238D01*
X57338095Y-60610238D02*
X57385714Y-60657857D01*
X57385714Y-60657857D02*
X57433333Y-60753095D01*
X57433333Y-60753095D02*
X57433333Y-60895952D01*
X57433333Y-60895952D02*
X57385714Y-60991190D01*
X57385714Y-60991190D02*
X57338095Y-61038809D01*
X57338095Y-61038809D02*
X57242857Y-61086428D01*
X57242857Y-61086428D02*
X56861905Y-61086428D01*
X58338095Y-60562619D02*
X57861905Y-60562619D01*
X57861905Y-60562619D02*
X57814286Y-61038809D01*
X57814286Y-61038809D02*
X57861905Y-60991190D01*
X57861905Y-60991190D02*
X57957143Y-60943571D01*
X57957143Y-60943571D02*
X58195238Y-60943571D01*
X58195238Y-60943571D02*
X58290476Y-60991190D01*
X58290476Y-60991190D02*
X58338095Y-61038809D01*
X58338095Y-61038809D02*
X58385714Y-61134047D01*
X58385714Y-61134047D02*
X58385714Y-61372142D01*
X58385714Y-61372142D02*
X58338095Y-61467380D01*
X58338095Y-61467380D02*
X58290476Y-61515000D01*
X58290476Y-61515000D02*
X58195238Y-61562619D01*
X58195238Y-61562619D02*
X57957143Y-61562619D01*
X57957143Y-61562619D02*
X57861905Y-61515000D01*
X57861905Y-61515000D02*
X57814286Y-61467380D01*
X59633333Y-110867380D02*
X59585714Y-110915000D01*
X59585714Y-110915000D02*
X59442857Y-110962619D01*
X59442857Y-110962619D02*
X59347619Y-110962619D01*
X59347619Y-110962619D02*
X59204762Y-110915000D01*
X59204762Y-110915000D02*
X59109524Y-110819761D01*
X59109524Y-110819761D02*
X59061905Y-110724523D01*
X59061905Y-110724523D02*
X59014286Y-110534047D01*
X59014286Y-110534047D02*
X59014286Y-110391190D01*
X59014286Y-110391190D02*
X59061905Y-110200714D01*
X59061905Y-110200714D02*
X59109524Y-110105476D01*
X59109524Y-110105476D02*
X59204762Y-110010238D01*
X59204762Y-110010238D02*
X59347619Y-109962619D01*
X59347619Y-109962619D02*
X59442857Y-109962619D01*
X59442857Y-109962619D02*
X59585714Y-110010238D01*
X59585714Y-110010238D02*
X59633333Y-110057857D01*
X60490476Y-109962619D02*
X60300000Y-109962619D01*
X60300000Y-109962619D02*
X60204762Y-110010238D01*
X60204762Y-110010238D02*
X60157143Y-110057857D01*
X60157143Y-110057857D02*
X60061905Y-110200714D01*
X60061905Y-110200714D02*
X60014286Y-110391190D01*
X60014286Y-110391190D02*
X60014286Y-110772142D01*
X60014286Y-110772142D02*
X60061905Y-110867380D01*
X60061905Y-110867380D02*
X60109524Y-110915000D01*
X60109524Y-110915000D02*
X60204762Y-110962619D01*
X60204762Y-110962619D02*
X60395238Y-110962619D01*
X60395238Y-110962619D02*
X60490476Y-110915000D01*
X60490476Y-110915000D02*
X60538095Y-110867380D01*
X60538095Y-110867380D02*
X60585714Y-110772142D01*
X60585714Y-110772142D02*
X60585714Y-110534047D01*
X60585714Y-110534047D02*
X60538095Y-110438809D01*
X60538095Y-110438809D02*
X60490476Y-110391190D01*
X60490476Y-110391190D02*
X60395238Y-110343571D01*
X60395238Y-110343571D02*
X60204762Y-110343571D01*
X60204762Y-110343571D02*
X60109524Y-110391190D01*
X60109524Y-110391190D02*
X60061905Y-110438809D01*
X60061905Y-110438809D02*
X60014286Y-110534047D01*
X59557142Y-118467380D02*
X59509523Y-118515000D01*
X59509523Y-118515000D02*
X59366666Y-118562619D01*
X59366666Y-118562619D02*
X59271428Y-118562619D01*
X59271428Y-118562619D02*
X59128571Y-118515000D01*
X59128571Y-118515000D02*
X59033333Y-118419761D01*
X59033333Y-118419761D02*
X58985714Y-118324523D01*
X58985714Y-118324523D02*
X58938095Y-118134047D01*
X58938095Y-118134047D02*
X58938095Y-117991190D01*
X58938095Y-117991190D02*
X58985714Y-117800714D01*
X58985714Y-117800714D02*
X59033333Y-117705476D01*
X59033333Y-117705476D02*
X59128571Y-117610238D01*
X59128571Y-117610238D02*
X59271428Y-117562619D01*
X59271428Y-117562619D02*
X59366666Y-117562619D01*
X59366666Y-117562619D02*
X59509523Y-117610238D01*
X59509523Y-117610238D02*
X59557142Y-117657857D01*
X60509523Y-118562619D02*
X59938095Y-118562619D01*
X60223809Y-118562619D02*
X60223809Y-117562619D01*
X60223809Y-117562619D02*
X60128571Y-117705476D01*
X60128571Y-117705476D02*
X60033333Y-117800714D01*
X60033333Y-117800714D02*
X59938095Y-117848333D01*
X61128571Y-117562619D02*
X61223809Y-117562619D01*
X61223809Y-117562619D02*
X61319047Y-117610238D01*
X61319047Y-117610238D02*
X61366666Y-117657857D01*
X61366666Y-117657857D02*
X61414285Y-117753095D01*
X61414285Y-117753095D02*
X61461904Y-117943571D01*
X61461904Y-117943571D02*
X61461904Y-118181666D01*
X61461904Y-118181666D02*
X61414285Y-118372142D01*
X61414285Y-118372142D02*
X61366666Y-118467380D01*
X61366666Y-118467380D02*
X61319047Y-118515000D01*
X61319047Y-118515000D02*
X61223809Y-118562619D01*
X61223809Y-118562619D02*
X61128571Y-118562619D01*
X61128571Y-118562619D02*
X61033333Y-118515000D01*
X61033333Y-118515000D02*
X60985714Y-118467380D01*
X60985714Y-118467380D02*
X60938095Y-118372142D01*
X60938095Y-118372142D02*
X60890476Y-118181666D01*
X60890476Y-118181666D02*
X60890476Y-117943571D01*
X60890476Y-117943571D02*
X60938095Y-117753095D01*
X60938095Y-117753095D02*
X60985714Y-117657857D01*
X60985714Y-117657857D02*
X61033333Y-117610238D01*
X61033333Y-117610238D02*
X61128571Y-117562619D01*
X57461905Y-89362619D02*
X57461905Y-88362619D01*
X57461905Y-88362619D02*
X57700000Y-88362619D01*
X57700000Y-88362619D02*
X57842857Y-88410238D01*
X57842857Y-88410238D02*
X57938095Y-88505476D01*
X57938095Y-88505476D02*
X57985714Y-88600714D01*
X57985714Y-88600714D02*
X58033333Y-88791190D01*
X58033333Y-88791190D02*
X58033333Y-88934047D01*
X58033333Y-88934047D02*
X57985714Y-89124523D01*
X57985714Y-89124523D02*
X57938095Y-89219761D01*
X57938095Y-89219761D02*
X57842857Y-89315000D01*
X57842857Y-89315000D02*
X57700000Y-89362619D01*
X57700000Y-89362619D02*
X57461905Y-89362619D01*
X58366667Y-88362619D02*
X58985714Y-88362619D01*
X58985714Y-88362619D02*
X58652381Y-88743571D01*
X58652381Y-88743571D02*
X58795238Y-88743571D01*
X58795238Y-88743571D02*
X58890476Y-88791190D01*
X58890476Y-88791190D02*
X58938095Y-88838809D01*
X58938095Y-88838809D02*
X58985714Y-88934047D01*
X58985714Y-88934047D02*
X58985714Y-89172142D01*
X58985714Y-89172142D02*
X58938095Y-89267380D01*
X58938095Y-89267380D02*
X58890476Y-89315000D01*
X58890476Y-89315000D02*
X58795238Y-89362619D01*
X58795238Y-89362619D02*
X58509524Y-89362619D01*
X58509524Y-89362619D02*
X58414286Y-89315000D01*
X58414286Y-89315000D02*
X58366667Y-89267380D01*
X62933333Y-55062619D02*
X62600000Y-54586428D01*
X62361905Y-55062619D02*
X62361905Y-54062619D01*
X62361905Y-54062619D02*
X62742857Y-54062619D01*
X62742857Y-54062619D02*
X62838095Y-54110238D01*
X62838095Y-54110238D02*
X62885714Y-54157857D01*
X62885714Y-54157857D02*
X62933333Y-54253095D01*
X62933333Y-54253095D02*
X62933333Y-54395952D01*
X62933333Y-54395952D02*
X62885714Y-54491190D01*
X62885714Y-54491190D02*
X62838095Y-54538809D01*
X62838095Y-54538809D02*
X62742857Y-54586428D01*
X62742857Y-54586428D02*
X62361905Y-54586428D01*
X63314286Y-54157857D02*
X63361905Y-54110238D01*
X63361905Y-54110238D02*
X63457143Y-54062619D01*
X63457143Y-54062619D02*
X63695238Y-54062619D01*
X63695238Y-54062619D02*
X63790476Y-54110238D01*
X63790476Y-54110238D02*
X63838095Y-54157857D01*
X63838095Y-54157857D02*
X63885714Y-54253095D01*
X63885714Y-54253095D02*
X63885714Y-54348333D01*
X63885714Y-54348333D02*
X63838095Y-54491190D01*
X63838095Y-54491190D02*
X63266667Y-55062619D01*
X63266667Y-55062619D02*
X63885714Y-55062619D01*
X66447380Y-125492857D02*
X66495000Y-125540476D01*
X66495000Y-125540476D02*
X66542619Y-125683333D01*
X66542619Y-125683333D02*
X66542619Y-125778571D01*
X66542619Y-125778571D02*
X66495000Y-125921428D01*
X66495000Y-125921428D02*
X66399761Y-126016666D01*
X66399761Y-126016666D02*
X66304523Y-126064285D01*
X66304523Y-126064285D02*
X66114047Y-126111904D01*
X66114047Y-126111904D02*
X65971190Y-126111904D01*
X65971190Y-126111904D02*
X65780714Y-126064285D01*
X65780714Y-126064285D02*
X65685476Y-126016666D01*
X65685476Y-126016666D02*
X65590238Y-125921428D01*
X65590238Y-125921428D02*
X65542619Y-125778571D01*
X65542619Y-125778571D02*
X65542619Y-125683333D01*
X65542619Y-125683333D02*
X65590238Y-125540476D01*
X65590238Y-125540476D02*
X65637857Y-125492857D01*
X66542619Y-124540476D02*
X66542619Y-125111904D01*
X66542619Y-124826190D02*
X65542619Y-124826190D01*
X65542619Y-124826190D02*
X65685476Y-124921428D01*
X65685476Y-124921428D02*
X65780714Y-125016666D01*
X65780714Y-125016666D02*
X65828333Y-125111904D01*
X65542619Y-124207142D02*
X65542619Y-123588095D01*
X65542619Y-123588095D02*
X65923571Y-123921428D01*
X65923571Y-123921428D02*
X65923571Y-123778571D01*
X65923571Y-123778571D02*
X65971190Y-123683333D01*
X65971190Y-123683333D02*
X66018809Y-123635714D01*
X66018809Y-123635714D02*
X66114047Y-123588095D01*
X66114047Y-123588095D02*
X66352142Y-123588095D01*
X66352142Y-123588095D02*
X66447380Y-123635714D01*
X66447380Y-123635714D02*
X66495000Y-123683333D01*
X66495000Y-123683333D02*
X66542619Y-123778571D01*
X66542619Y-123778571D02*
X66542619Y-124064285D01*
X66542619Y-124064285D02*
X66495000Y-124159523D01*
X66495000Y-124159523D02*
X66447380Y-124207142D01*
X57133333Y-72267380D02*
X57085714Y-72315000D01*
X57085714Y-72315000D02*
X56942857Y-72362619D01*
X56942857Y-72362619D02*
X56847619Y-72362619D01*
X56847619Y-72362619D02*
X56704762Y-72315000D01*
X56704762Y-72315000D02*
X56609524Y-72219761D01*
X56609524Y-72219761D02*
X56561905Y-72124523D01*
X56561905Y-72124523D02*
X56514286Y-71934047D01*
X56514286Y-71934047D02*
X56514286Y-71791190D01*
X56514286Y-71791190D02*
X56561905Y-71600714D01*
X56561905Y-71600714D02*
X56609524Y-71505476D01*
X56609524Y-71505476D02*
X56704762Y-71410238D01*
X56704762Y-71410238D02*
X56847619Y-71362619D01*
X56847619Y-71362619D02*
X56942857Y-71362619D01*
X56942857Y-71362619D02*
X57085714Y-71410238D01*
X57085714Y-71410238D02*
X57133333Y-71457857D01*
X57466667Y-71362619D02*
X58085714Y-71362619D01*
X58085714Y-71362619D02*
X57752381Y-71743571D01*
X57752381Y-71743571D02*
X57895238Y-71743571D01*
X57895238Y-71743571D02*
X57990476Y-71791190D01*
X57990476Y-71791190D02*
X58038095Y-71838809D01*
X58038095Y-71838809D02*
X58085714Y-71934047D01*
X58085714Y-71934047D02*
X58085714Y-72172142D01*
X58085714Y-72172142D02*
X58038095Y-72267380D01*
X58038095Y-72267380D02*
X57990476Y-72315000D01*
X57990476Y-72315000D02*
X57895238Y-72362619D01*
X57895238Y-72362619D02*
X57609524Y-72362619D01*
X57609524Y-72362619D02*
X57514286Y-72315000D01*
X57514286Y-72315000D02*
X57466667Y-72267380D01*
X62933333Y-52562619D02*
X62600000Y-52086428D01*
X62361905Y-52562619D02*
X62361905Y-51562619D01*
X62361905Y-51562619D02*
X62742857Y-51562619D01*
X62742857Y-51562619D02*
X62838095Y-51610238D01*
X62838095Y-51610238D02*
X62885714Y-51657857D01*
X62885714Y-51657857D02*
X62933333Y-51753095D01*
X62933333Y-51753095D02*
X62933333Y-51895952D01*
X62933333Y-51895952D02*
X62885714Y-51991190D01*
X62885714Y-51991190D02*
X62838095Y-52038809D01*
X62838095Y-52038809D02*
X62742857Y-52086428D01*
X62742857Y-52086428D02*
X62361905Y-52086428D01*
X63885714Y-52562619D02*
X63314286Y-52562619D01*
X63600000Y-52562619D02*
X63600000Y-51562619D01*
X63600000Y-51562619D02*
X63504762Y-51705476D01*
X63504762Y-51705476D02*
X63409524Y-51800714D01*
X63409524Y-51800714D02*
X63314286Y-51848333D01*
X65933333Y-111767380D02*
X65885714Y-111815000D01*
X65885714Y-111815000D02*
X65742857Y-111862619D01*
X65742857Y-111862619D02*
X65647619Y-111862619D01*
X65647619Y-111862619D02*
X65504762Y-111815000D01*
X65504762Y-111815000D02*
X65409524Y-111719761D01*
X65409524Y-111719761D02*
X65361905Y-111624523D01*
X65361905Y-111624523D02*
X65314286Y-111434047D01*
X65314286Y-111434047D02*
X65314286Y-111291190D01*
X65314286Y-111291190D02*
X65361905Y-111100714D01*
X65361905Y-111100714D02*
X65409524Y-111005476D01*
X65409524Y-111005476D02*
X65504762Y-110910238D01*
X65504762Y-110910238D02*
X65647619Y-110862619D01*
X65647619Y-110862619D02*
X65742857Y-110862619D01*
X65742857Y-110862619D02*
X65885714Y-110910238D01*
X65885714Y-110910238D02*
X65933333Y-110957857D01*
X66504762Y-111291190D02*
X66409524Y-111243571D01*
X66409524Y-111243571D02*
X66361905Y-111195952D01*
X66361905Y-111195952D02*
X66314286Y-111100714D01*
X66314286Y-111100714D02*
X66314286Y-111053095D01*
X66314286Y-111053095D02*
X66361905Y-110957857D01*
X66361905Y-110957857D02*
X66409524Y-110910238D01*
X66409524Y-110910238D02*
X66504762Y-110862619D01*
X66504762Y-110862619D02*
X66695238Y-110862619D01*
X66695238Y-110862619D02*
X66790476Y-110910238D01*
X66790476Y-110910238D02*
X66838095Y-110957857D01*
X66838095Y-110957857D02*
X66885714Y-111053095D01*
X66885714Y-111053095D02*
X66885714Y-111100714D01*
X66885714Y-111100714D02*
X66838095Y-111195952D01*
X66838095Y-111195952D02*
X66790476Y-111243571D01*
X66790476Y-111243571D02*
X66695238Y-111291190D01*
X66695238Y-111291190D02*
X66504762Y-111291190D01*
X66504762Y-111291190D02*
X66409524Y-111338809D01*
X66409524Y-111338809D02*
X66361905Y-111386428D01*
X66361905Y-111386428D02*
X66314286Y-111481666D01*
X66314286Y-111481666D02*
X66314286Y-111672142D01*
X66314286Y-111672142D02*
X66361905Y-111767380D01*
X66361905Y-111767380D02*
X66409524Y-111815000D01*
X66409524Y-111815000D02*
X66504762Y-111862619D01*
X66504762Y-111862619D02*
X66695238Y-111862619D01*
X66695238Y-111862619D02*
X66790476Y-111815000D01*
X66790476Y-111815000D02*
X66838095Y-111767380D01*
X66838095Y-111767380D02*
X66885714Y-111672142D01*
X66885714Y-111672142D02*
X66885714Y-111481666D01*
X66885714Y-111481666D02*
X66838095Y-111386428D01*
X66838095Y-111386428D02*
X66790476Y-111338809D01*
X66790476Y-111338809D02*
X66695238Y-111291190D01*
D12*
X63592380Y-127075026D02*
X63592380Y-128103121D01*
X63592380Y-128103121D02*
X63652857Y-128224073D01*
X63652857Y-128224073D02*
X63713333Y-128284550D01*
X63713333Y-128284550D02*
X63834285Y-128345026D01*
X63834285Y-128345026D02*
X64076190Y-128345026D01*
X64076190Y-128345026D02*
X64197142Y-128284550D01*
X64197142Y-128284550D02*
X64257619Y-128224073D01*
X64257619Y-128224073D02*
X64318095Y-128103121D01*
X64318095Y-128103121D02*
X64318095Y-127075026D01*
X64862380Y-127195978D02*
X64922856Y-127135502D01*
X64922856Y-127135502D02*
X65043809Y-127075026D01*
X65043809Y-127075026D02*
X65346190Y-127075026D01*
X65346190Y-127075026D02*
X65467142Y-127135502D01*
X65467142Y-127135502D02*
X65527618Y-127195978D01*
X65527618Y-127195978D02*
X65588095Y-127316930D01*
X65588095Y-127316930D02*
X65588095Y-127437883D01*
X65588095Y-127437883D02*
X65527618Y-127619311D01*
X65527618Y-127619311D02*
X64801904Y-128345026D01*
X64801904Y-128345026D02*
X65588095Y-128345026D01*
D11*
X68833333Y-79362619D02*
X68500000Y-78886428D01*
X68261905Y-79362619D02*
X68261905Y-78362619D01*
X68261905Y-78362619D02*
X68642857Y-78362619D01*
X68642857Y-78362619D02*
X68738095Y-78410238D01*
X68738095Y-78410238D02*
X68785714Y-78457857D01*
X68785714Y-78457857D02*
X68833333Y-78553095D01*
X68833333Y-78553095D02*
X68833333Y-78695952D01*
X68833333Y-78695952D02*
X68785714Y-78791190D01*
X68785714Y-78791190D02*
X68738095Y-78838809D01*
X68738095Y-78838809D02*
X68642857Y-78886428D01*
X68642857Y-78886428D02*
X68261905Y-78886428D01*
X69690476Y-78362619D02*
X69500000Y-78362619D01*
X69500000Y-78362619D02*
X69404762Y-78410238D01*
X69404762Y-78410238D02*
X69357143Y-78457857D01*
X69357143Y-78457857D02*
X69261905Y-78600714D01*
X69261905Y-78600714D02*
X69214286Y-78791190D01*
X69214286Y-78791190D02*
X69214286Y-79172142D01*
X69214286Y-79172142D02*
X69261905Y-79267380D01*
X69261905Y-79267380D02*
X69309524Y-79315000D01*
X69309524Y-79315000D02*
X69404762Y-79362619D01*
X69404762Y-79362619D02*
X69595238Y-79362619D01*
X69595238Y-79362619D02*
X69690476Y-79315000D01*
X69690476Y-79315000D02*
X69738095Y-79267380D01*
X69738095Y-79267380D02*
X69785714Y-79172142D01*
X69785714Y-79172142D02*
X69785714Y-78934047D01*
X69785714Y-78934047D02*
X69738095Y-78838809D01*
X69738095Y-78838809D02*
X69690476Y-78791190D01*
X69690476Y-78791190D02*
X69595238Y-78743571D01*
X69595238Y-78743571D02*
X69404762Y-78743571D01*
X69404762Y-78743571D02*
X69309524Y-78791190D01*
X69309524Y-78791190D02*
X69261905Y-78838809D01*
X69261905Y-78838809D02*
X69214286Y-78934047D01*
D10*
X52440000Y-130300000D02*
X52440000Y-129800000D01*
X52190000Y-130050000D02*
X52690000Y-130050000D01*
X52804437Y-129560000D02*
X52940000Y-129560000D01*
X52804437Y-129560000D02*
X51740000Y-128495563D01*
X55195563Y-129560000D02*
X55060000Y-129560000D01*
X55195563Y-129560000D02*
X56260000Y-128495563D01*
X51740000Y-128495563D02*
X51740000Y-125040000D01*
X56260000Y-128495563D02*
X56260000Y-125040000D01*
X51740000Y-125040000D02*
X52940000Y-125040000D01*
X56260000Y-125040000D02*
X55060000Y-125040000D01*
X70560000Y-124200000D02*
X70560000Y-124700000D01*
X70810000Y-124450000D02*
X70310000Y-124450000D01*
X70195563Y-124940000D02*
X70060000Y-124940000D01*
X70195563Y-124940000D02*
X71260000Y-126004437D01*
X67804437Y-124940000D02*
X67940000Y-124940000D01*
X67804437Y-124940000D02*
X66740000Y-126004437D01*
X71260000Y-126004437D02*
X71260000Y-129460000D01*
X66740000Y-126004437D02*
X66740000Y-129460000D01*
X71260000Y-129460000D02*
X70060000Y-129460000D01*
X66740000Y-129460000D02*
X67940000Y-129460000D01*
X66327064Y-106135000D02*
X65872936Y-106135000D01*
X66327064Y-104665000D02*
X65872936Y-104665000D01*
X68772936Y-64665000D02*
X69227064Y-64665000D01*
X68772936Y-66135000D02*
X69227064Y-66135000D01*
X66327064Y-104135000D02*
X65872936Y-104135000D01*
X66327064Y-102665000D02*
X65872936Y-102665000D01*
X68772936Y-71165000D02*
X69227064Y-71165000D01*
X68772936Y-72635000D02*
X69227064Y-72635000D01*
X66361252Y-118835000D02*
X65838748Y-118835000D01*
X66361252Y-117365000D02*
X65838748Y-117365000D01*
X67360000Y-80300000D02*
X67360000Y-78300000D01*
X67360000Y-80300000D02*
X63350000Y-80300000D01*
X67360000Y-78300000D02*
X63350000Y-78300000D01*
X61138748Y-127515000D02*
X61661252Y-127515000D01*
X61138748Y-128985000D02*
X61661252Y-128985000D01*
X56638748Y-114865000D02*
X57161252Y-114865000D01*
X56638748Y-116335000D02*
X57161252Y-116335000D01*
X68370000Y-48170000D02*
X69700000Y-48170000D01*
X68370000Y-49500000D02*
X68370000Y-48170000D01*
X68370000Y-50770000D02*
X68370000Y-63530000D01*
X68370000Y-50770000D02*
X71030000Y-50770000D01*
X68370000Y-63530000D02*
X71030000Y-63530000D01*
X71030000Y-50770000D02*
X71030000Y-63530000D01*
X65838748Y-100665000D02*
X66361252Y-100665000D01*
X65838748Y-102135000D02*
X66361252Y-102135000D01*
X60560000Y-90300000D02*
X60560000Y-88300000D01*
X60560000Y-90300000D02*
X56550000Y-90300000D01*
X60560000Y-88300000D02*
X56550000Y-88300000D01*
X57338748Y-63265000D02*
X57861252Y-63265000D01*
X57338748Y-64735000D02*
X57861252Y-64735000D01*
X69227064Y-76635000D02*
X68772936Y-76635000D01*
X69227064Y-75165000D02*
X68772936Y-75165000D01*
X56872936Y-75765000D02*
X57327064Y-75765000D01*
X56872936Y-77235000D02*
X57327064Y-77235000D01*
X63300000Y-65365000D02*
X59850000Y-65365000D01*
X63300000Y-65365000D02*
X65250000Y-65365000D01*
X63300000Y-74235000D02*
X61350000Y-74235000D01*
X63300000Y-74235000D02*
X65250000Y-74235000D01*
X65838748Y-106765000D02*
X66361252Y-106765000D01*
X65838748Y-108235000D02*
X66361252Y-108235000D01*
X59335000Y-124588748D02*
X59335000Y-125111252D01*
X57865000Y-124588748D02*
X57865000Y-125111252D01*
X56872936Y-73765000D02*
X57327064Y-73765000D01*
X56872936Y-75235000D02*
X57327064Y-75235000D01*
X57372936Y-67265000D02*
X57827064Y-67265000D01*
X57372936Y-68735000D02*
X57827064Y-68735000D01*
X68772936Y-73165000D02*
X69227064Y-73165000D01*
X68772936Y-74635000D02*
X69227064Y-74635000D01*
X69261252Y-70435000D02*
X68738748Y-70435000D01*
X69261252Y-68965000D02*
X68738748Y-68965000D01*
X51970000Y-66470000D02*
X53300000Y-66470000D01*
X51970000Y-67800000D02*
X51970000Y-66470000D01*
X51970000Y-69070000D02*
X51970000Y-86910000D01*
X51970000Y-69070000D02*
X54630000Y-69070000D01*
X51970000Y-86910000D02*
X54630000Y-86910000D01*
X54630000Y-69070000D02*
X54630000Y-86910000D01*
X56676248Y-112265000D02*
X57198752Y-112265000D01*
X56676248Y-113735000D02*
X57198752Y-113735000D01*
X66127064Y-57835000D02*
X65672936Y-57835000D01*
X66127064Y-56365000D02*
X65672936Y-56365000D01*
X67360000Y-82700000D02*
X67360000Y-80700000D01*
X67360000Y-82700000D02*
X63350000Y-82700000D01*
X67360000Y-80700000D02*
X63350000Y-80700000D01*
X61272936Y-74765000D02*
X61727064Y-74765000D01*
X61272936Y-76235000D02*
X61727064Y-76235000D01*
X57372936Y-65265000D02*
X57827064Y-65265000D01*
X57372936Y-66735000D02*
X57827064Y-66735000D01*
X56738748Y-109765000D02*
X57261252Y-109765000D01*
X56738748Y-111235000D02*
X57261252Y-111235000D01*
X56638748Y-117365000D02*
X57161252Y-117365000D01*
X56638748Y-118835000D02*
X57161252Y-118835000D01*
X60560000Y-87900000D02*
X60560000Y-85900000D01*
X60560000Y-87900000D02*
X56550000Y-87900000D01*
X60560000Y-85900000D02*
X56550000Y-85900000D01*
X66127064Y-55335000D02*
X65672936Y-55335000D01*
X66127064Y-53865000D02*
X65672936Y-53865000D01*
X65135000Y-124588748D02*
X65135000Y-125111252D01*
X63665000Y-124588748D02*
X63665000Y-125111252D01*
X57861252Y-70935000D02*
X57338748Y-70935000D01*
X57861252Y-69465000D02*
X57338748Y-69465000D01*
X66127064Y-52835000D02*
X65672936Y-52835000D01*
X66127064Y-51365000D02*
X65672936Y-51365000D01*
X66361252Y-113735000D02*
X65838748Y-113735000D01*
X66361252Y-112265000D02*
X65838748Y-112265000D01*
D13*
X60000000Y-126900000D02*
X60000000Y-125700000D01*
X60020000Y-125350000D02*
X60020000Y-124750000D01*
X62980000Y-125350000D02*
X60020000Y-125350000D01*
X60020000Y-124750000D02*
X62980000Y-124750000D01*
X62980000Y-124750000D02*
X62980000Y-125350000D01*
D10*
X68772936Y-66665000D02*
X69227064Y-66665000D01*
X68772936Y-68135000D02*
X69227064Y-68135000D01*
%LPC*%
G36*
G01*
X54550000Y-130400000D02*
X53450000Y-130400000D01*
G75*
G02*
X53200000Y-130150000I0J250000D01*
G01*
X53200000Y-128050000D01*
G75*
G02*
X53450000Y-127800000I250000J0D01*
G01*
X54550000Y-127800000D01*
G75*
G02*
X54800000Y-128050000I0J-250000D01*
G01*
X54800000Y-130150000D01*
G75*
G02*
X54550000Y-130400000I-250000J0D01*
G01*
G37*
G36*
G01*
X54550000Y-126800000D02*
X53450000Y-126800000D01*
G75*
G02*
X53200000Y-126550000I0J250000D01*
G01*
X53200000Y-124450000D01*
G75*
G02*
X53450000Y-124200000I250000J0D01*
G01*
X54550000Y-124200000D01*
G75*
G02*
X54800000Y-124450000I0J-250000D01*
G01*
X54800000Y-126550000D01*
G75*
G02*
X54550000Y-126800000I-250000J0D01*
G01*
G37*
G36*
G01*
X68450000Y-124100000D02*
X69550000Y-124100000D01*
G75*
G02*
X69800000Y-124350000I0J-250000D01*
G01*
X69800000Y-126450000D01*
G75*
G02*
X69550000Y-126700000I-250000J0D01*
G01*
X68450000Y-126700000D01*
G75*
G02*
X68200000Y-126450000I0J250000D01*
G01*
X68200000Y-124350000D01*
G75*
G02*
X68450000Y-124100000I250000J0D01*
G01*
G37*
G36*
G01*
X68450000Y-127700000D02*
X69550000Y-127700000D01*
G75*
G02*
X69800000Y-127950000I0J-250000D01*
G01*
X69800000Y-130050000D01*
G75*
G02*
X69550000Y-130300000I-250000J0D01*
G01*
X68450000Y-130300000D01*
G75*
G02*
X68200000Y-130050000I0J250000D01*
G01*
X68200000Y-127950000D01*
G75*
G02*
X68450000Y-127700000I250000J0D01*
G01*
G37*
G36*
G01*
X67700000Y-104950000D02*
X67700000Y-105850000D01*
G75*
G02*
X67450000Y-106100000I-250000J0D01*
G01*
X66750000Y-106100000D01*
G75*
G02*
X66500000Y-105850000I0J250000D01*
G01*
X66500000Y-104950000D01*
G75*
G02*
X66750000Y-104700000I250000J0D01*
G01*
X67450000Y-104700000D01*
G75*
G02*
X67700000Y-104950000I0J-250000D01*
G01*
G37*
G36*
G01*
X65700000Y-104950000D02*
X65700000Y-105850000D01*
G75*
G02*
X65450000Y-106100000I-250000J0D01*
G01*
X64750000Y-106100000D01*
G75*
G02*
X64500000Y-105850000I0J250000D01*
G01*
X64500000Y-104950000D01*
G75*
G02*
X64750000Y-104700000I250000J0D01*
G01*
X65450000Y-104700000D01*
G75*
G02*
X65700000Y-104950000I0J-250000D01*
G01*
G37*
D14*
X68000000Y-96000000D03*
G36*
G01*
X67400000Y-65850000D02*
X67400000Y-64950000D01*
G75*
G02*
X67650000Y-64700000I250000J0D01*
G01*
X68350000Y-64700000D01*
G75*
G02*
X68600000Y-64950000I0J-250000D01*
G01*
X68600000Y-65850000D01*
G75*
G02*
X68350000Y-66100000I-250000J0D01*
G01*
X67650000Y-66100000D01*
G75*
G02*
X67400000Y-65850000I0J250000D01*
G01*
G37*
G36*
G01*
X69400000Y-65850000D02*
X69400000Y-64950000D01*
G75*
G02*
X69650000Y-64700000I250000J0D01*
G01*
X70350000Y-64700000D01*
G75*
G02*
X70600000Y-64950000I0J-250000D01*
G01*
X70600000Y-65850000D01*
G75*
G02*
X70350000Y-66100000I-250000J0D01*
G01*
X69650000Y-66100000D01*
G75*
G02*
X69400000Y-65850000I0J250000D01*
G01*
G37*
G36*
G01*
X67700000Y-102950000D02*
X67700000Y-103850000D01*
G75*
G02*
X67450000Y-104100000I-250000J0D01*
G01*
X66750000Y-104100000D01*
G75*
G02*
X66500000Y-103850000I0J250000D01*
G01*
X66500000Y-102950000D01*
G75*
G02*
X66750000Y-102700000I250000J0D01*
G01*
X67450000Y-102700000D01*
G75*
G02*
X67700000Y-102950000I0J-250000D01*
G01*
G37*
G36*
G01*
X65700000Y-102950000D02*
X65700000Y-103850000D01*
G75*
G02*
X65450000Y-104100000I-250000J0D01*
G01*
X64750000Y-104100000D01*
G75*
G02*
X64500000Y-103850000I0J250000D01*
G01*
X64500000Y-102950000D01*
G75*
G02*
X64750000Y-102700000I250000J0D01*
G01*
X65450000Y-102700000D01*
G75*
G02*
X65700000Y-102950000I0J-250000D01*
G01*
G37*
G36*
G01*
X67400000Y-72350000D02*
X67400000Y-71450000D01*
G75*
G02*
X67650000Y-71200000I250000J0D01*
G01*
X68350000Y-71200000D01*
G75*
G02*
X68600000Y-71450000I0J-250000D01*
G01*
X68600000Y-72350000D01*
G75*
G02*
X68350000Y-72600000I-250000J0D01*
G01*
X67650000Y-72600000D01*
G75*
G02*
X67400000Y-72350000I0J250000D01*
G01*
G37*
G36*
G01*
X69400000Y-72350000D02*
X69400000Y-71450000D01*
G75*
G02*
X69650000Y-71200000I250000J0D01*
G01*
X70350000Y-71200000D01*
G75*
G02*
X70600000Y-71450000I0J-250000D01*
G01*
X70600000Y-72350000D01*
G75*
G02*
X70350000Y-72600000I-250000J0D01*
G01*
X69650000Y-72600000D01*
G75*
G02*
X69400000Y-72350000I0J250000D01*
G01*
G37*
G36*
G01*
X67725000Y-117625000D02*
X67725000Y-118575000D01*
G75*
G02*
X67475000Y-118825000I-250000J0D01*
G01*
X66800000Y-118825000D01*
G75*
G02*
X66550000Y-118575000I0J250000D01*
G01*
X66550000Y-117625000D01*
G75*
G02*
X66800000Y-117375000I250000J0D01*
G01*
X67475000Y-117375000D01*
G75*
G02*
X67725000Y-117625000I0J-250000D01*
G01*
G37*
G36*
G01*
X65650000Y-117625000D02*
X65650000Y-118575000D01*
G75*
G02*
X65400000Y-118825000I-250000J0D01*
G01*
X64725000Y-118825000D01*
G75*
G02*
X64475000Y-118575000I0J250000D01*
G01*
X64475000Y-117625000D01*
G75*
G02*
X64725000Y-117375000I250000J0D01*
G01*
X65400000Y-117375000D01*
G75*
G02*
X65650000Y-117625000I0J-250000D01*
G01*
G37*
G36*
G01*
X67200000Y-78975000D02*
X67200000Y-79625000D01*
G75*
G02*
X66925000Y-79900000I-275000J0D01*
G01*
X66375000Y-79900000D01*
G75*
G02*
X66100000Y-79625000I0J275000D01*
G01*
X66100000Y-78975000D01*
G75*
G02*
X66375000Y-78700000I275000J0D01*
G01*
X66925000Y-78700000D01*
G75*
G02*
X67200000Y-78975000I0J-275000D01*
G01*
G37*
G36*
G01*
X63900000Y-78975000D02*
X63900000Y-79625000D01*
G75*
G02*
X63625000Y-79900000I-275000J0D01*
G01*
X63075000Y-79900000D01*
G75*
G02*
X62800000Y-79625000I0J275000D01*
G01*
X62800000Y-78975000D01*
G75*
G02*
X63075000Y-78700000I275000J0D01*
G01*
X63625000Y-78700000D01*
G75*
G02*
X63900000Y-78975000I0J-275000D01*
G01*
G37*
G36*
G01*
X59775000Y-128725000D02*
X59775000Y-127775000D01*
G75*
G02*
X60025000Y-127525000I250000J0D01*
G01*
X60700000Y-127525000D01*
G75*
G02*
X60950000Y-127775000I0J-250000D01*
G01*
X60950000Y-128725000D01*
G75*
G02*
X60700000Y-128975000I-250000J0D01*
G01*
X60025000Y-128975000D01*
G75*
G02*
X59775000Y-128725000I0J250000D01*
G01*
G37*
G36*
G01*
X61850000Y-128725000D02*
X61850000Y-127775000D01*
G75*
G02*
X62100000Y-127525000I250000J0D01*
G01*
X62775000Y-127525000D01*
G75*
G02*
X63025000Y-127775000I0J-250000D01*
G01*
X63025000Y-128725000D01*
G75*
G02*
X62775000Y-128975000I-250000J0D01*
G01*
X62100000Y-128975000D01*
G75*
G02*
X61850000Y-128725000I0J250000D01*
G01*
G37*
G36*
G01*
X55275000Y-116075000D02*
X55275000Y-115125000D01*
G75*
G02*
X55525000Y-114875000I250000J0D01*
G01*
X56200000Y-114875000D01*
G75*
G02*
X56450000Y-115125000I0J-250000D01*
G01*
X56450000Y-116075000D01*
G75*
G02*
X56200000Y-116325000I-250000J0D01*
G01*
X55525000Y-116325000D01*
G75*
G02*
X55275000Y-116075000I0J250000D01*
G01*
G37*
G36*
G01*
X57350000Y-116075000D02*
X57350000Y-115125000D01*
G75*
G02*
X57600000Y-114875000I250000J0D01*
G01*
X58275000Y-114875000D01*
G75*
G02*
X58525000Y-115125000I0J-250000D01*
G01*
X58525000Y-116075000D01*
G75*
G02*
X58275000Y-116325000I-250000J0D01*
G01*
X57600000Y-116325000D01*
G75*
G02*
X57350000Y-116075000I0J250000D01*
G01*
G37*
D15*
X69700000Y-49500000D03*
D16*
X69700000Y-52040000D03*
X69700000Y-54580000D03*
X69700000Y-57120000D03*
X69700000Y-59660000D03*
X69700000Y-62200000D03*
G36*
G01*
X64475000Y-101875000D02*
X64475000Y-100925000D01*
G75*
G02*
X64725000Y-100675000I250000J0D01*
G01*
X65400000Y-100675000D01*
G75*
G02*
X65650000Y-100925000I0J-250000D01*
G01*
X65650000Y-101875000D01*
G75*
G02*
X65400000Y-102125000I-250000J0D01*
G01*
X64725000Y-102125000D01*
G75*
G02*
X64475000Y-101875000I0J250000D01*
G01*
G37*
G36*
G01*
X66550000Y-101875000D02*
X66550000Y-100925000D01*
G75*
G02*
X66800000Y-100675000I250000J0D01*
G01*
X67475000Y-100675000D01*
G75*
G02*
X67725000Y-100925000I0J-250000D01*
G01*
X67725000Y-101875000D01*
G75*
G02*
X67475000Y-102125000I-250000J0D01*
G01*
X66800000Y-102125000D01*
G75*
G02*
X66550000Y-101875000I0J250000D01*
G01*
G37*
G36*
G01*
X60400000Y-88975000D02*
X60400000Y-89625000D01*
G75*
G02*
X60125000Y-89900000I-275000J0D01*
G01*
X59575000Y-89900000D01*
G75*
G02*
X59300000Y-89625000I0J275000D01*
G01*
X59300000Y-88975000D01*
G75*
G02*
X59575000Y-88700000I275000J0D01*
G01*
X60125000Y-88700000D01*
G75*
G02*
X60400000Y-88975000I0J-275000D01*
G01*
G37*
G36*
G01*
X57100000Y-88975000D02*
X57100000Y-89625000D01*
G75*
G02*
X56825000Y-89900000I-275000J0D01*
G01*
X56275000Y-89900000D01*
G75*
G02*
X56000000Y-89625000I0J275000D01*
G01*
X56000000Y-88975000D01*
G75*
G02*
X56275000Y-88700000I275000J0D01*
G01*
X56825000Y-88700000D01*
G75*
G02*
X57100000Y-88975000I0J-275000D01*
G01*
G37*
G36*
G01*
X55975000Y-64475000D02*
X55975000Y-63525000D01*
G75*
G02*
X56225000Y-63275000I250000J0D01*
G01*
X56900000Y-63275000D01*
G75*
G02*
X57150000Y-63525000I0J-250000D01*
G01*
X57150000Y-64475000D01*
G75*
G02*
X56900000Y-64725000I-250000J0D01*
G01*
X56225000Y-64725000D01*
G75*
G02*
X55975000Y-64475000I0J250000D01*
G01*
G37*
G36*
G01*
X58050000Y-64475000D02*
X58050000Y-63525000D01*
G75*
G02*
X58300000Y-63275000I250000J0D01*
G01*
X58975000Y-63275000D01*
G75*
G02*
X59225000Y-63525000I0J-250000D01*
G01*
X59225000Y-64475000D01*
G75*
G02*
X58975000Y-64725000I-250000J0D01*
G01*
X58300000Y-64725000D01*
G75*
G02*
X58050000Y-64475000I0J250000D01*
G01*
G37*
G36*
G01*
X70600000Y-75450000D02*
X70600000Y-76350000D01*
G75*
G02*
X70350000Y-76600000I-250000J0D01*
G01*
X69650000Y-76600000D01*
G75*
G02*
X69400000Y-76350000I0J250000D01*
G01*
X69400000Y-75450000D01*
G75*
G02*
X69650000Y-75200000I250000J0D01*
G01*
X70350000Y-75200000D01*
G75*
G02*
X70600000Y-75450000I0J-250000D01*
G01*
G37*
G36*
G01*
X68600000Y-75450000D02*
X68600000Y-76350000D01*
G75*
G02*
X68350000Y-76600000I-250000J0D01*
G01*
X67650000Y-76600000D01*
G75*
G02*
X67400000Y-76350000I0J250000D01*
G01*
X67400000Y-75450000D01*
G75*
G02*
X67650000Y-75200000I250000J0D01*
G01*
X68350000Y-75200000D01*
G75*
G02*
X68600000Y-75450000I0J-250000D01*
G01*
G37*
G36*
G01*
X55500000Y-76950000D02*
X55500000Y-76050000D01*
G75*
G02*
X55750000Y-75800000I250000J0D01*
G01*
X56450000Y-75800000D01*
G75*
G02*
X56700000Y-76050000I0J-250000D01*
G01*
X56700000Y-76950000D01*
G75*
G02*
X56450000Y-77200000I-250000J0D01*
G01*
X55750000Y-77200000D01*
G75*
G02*
X55500000Y-76950000I0J250000D01*
G01*
G37*
G36*
G01*
X57500000Y-76950000D02*
X57500000Y-76050000D01*
G75*
G02*
X57750000Y-75800000I250000J0D01*
G01*
X58450000Y-75800000D01*
G75*
G02*
X58700000Y-76050000I0J-250000D01*
G01*
X58700000Y-76950000D01*
G75*
G02*
X58450000Y-77200000I-250000J0D01*
G01*
X57750000Y-77200000D01*
G75*
G02*
X57500000Y-76950000I0J250000D01*
G01*
G37*
G36*
G01*
X59775000Y-66140000D02*
X59775000Y-65840000D01*
G75*
G02*
X59925000Y-65690000I150000J0D01*
G01*
X61675000Y-65690000D01*
G75*
G02*
X61825000Y-65840000I0J-150000D01*
G01*
X61825000Y-66140000D01*
G75*
G02*
X61675000Y-66290000I-150000J0D01*
G01*
X59925000Y-66290000D01*
G75*
G02*
X59775000Y-66140000I0J150000D01*
G01*
G37*
G36*
G01*
X59775000Y-67410000D02*
X59775000Y-67110000D01*
G75*
G02*
X59925000Y-66960000I150000J0D01*
G01*
X61675000Y-66960000D01*
G75*
G02*
X61825000Y-67110000I0J-150000D01*
G01*
X61825000Y-67410000D01*
G75*
G02*
X61675000Y-67560000I-150000J0D01*
G01*
X59925000Y-67560000D01*
G75*
G02*
X59775000Y-67410000I0J150000D01*
G01*
G37*
G36*
G01*
X59775000Y-68680000D02*
X59775000Y-68380000D01*
G75*
G02*
X59925000Y-68230000I150000J0D01*
G01*
X61675000Y-68230000D01*
G75*
G02*
X61825000Y-68380000I0J-150000D01*
G01*
X61825000Y-68680000D01*
G75*
G02*
X61675000Y-68830000I-150000J0D01*
G01*
X59925000Y-68830000D01*
G75*
G02*
X59775000Y-68680000I0J150000D01*
G01*
G37*
G36*
G01*
X59775000Y-69950000D02*
X59775000Y-69650000D01*
G75*
G02*
X59925000Y-69500000I150000J0D01*
G01*
X61675000Y-69500000D01*
G75*
G02*
X61825000Y-69650000I0J-150000D01*
G01*
X61825000Y-69950000D01*
G75*
G02*
X61675000Y-70100000I-150000J0D01*
G01*
X59925000Y-70100000D01*
G75*
G02*
X59775000Y-69950000I0J150000D01*
G01*
G37*
G36*
G01*
X59775000Y-71220000D02*
X59775000Y-70920000D01*
G75*
G02*
X59925000Y-70770000I150000J0D01*
G01*
X61675000Y-70770000D01*
G75*
G02*
X61825000Y-70920000I0J-150000D01*
G01*
X61825000Y-71220000D01*
G75*
G02*
X61675000Y-71370000I-150000J0D01*
G01*
X59925000Y-71370000D01*
G75*
G02*
X59775000Y-71220000I0J150000D01*
G01*
G37*
G36*
G01*
X59775000Y-72490000D02*
X59775000Y-72190000D01*
G75*
G02*
X59925000Y-72040000I150000J0D01*
G01*
X61675000Y-72040000D01*
G75*
G02*
X61825000Y-72190000I0J-150000D01*
G01*
X61825000Y-72490000D01*
G75*
G02*
X61675000Y-72640000I-150000J0D01*
G01*
X59925000Y-72640000D01*
G75*
G02*
X59775000Y-72490000I0J150000D01*
G01*
G37*
G36*
G01*
X59775000Y-73760000D02*
X59775000Y-73460000D01*
G75*
G02*
X59925000Y-73310000I150000J0D01*
G01*
X61675000Y-73310000D01*
G75*
G02*
X61825000Y-73460000I0J-150000D01*
G01*
X61825000Y-73760000D01*
G75*
G02*
X61675000Y-73910000I-150000J0D01*
G01*
X59925000Y-73910000D01*
G75*
G02*
X59775000Y-73760000I0J150000D01*
G01*
G37*
G36*
G01*
X64775000Y-73760000D02*
X64775000Y-73460000D01*
G75*
G02*
X64925000Y-73310000I150000J0D01*
G01*
X66675000Y-73310000D01*
G75*
G02*
X66825000Y-73460000I0J-150000D01*
G01*
X66825000Y-73760000D01*
G75*
G02*
X66675000Y-73910000I-150000J0D01*
G01*
X64925000Y-73910000D01*
G75*
G02*
X64775000Y-73760000I0J150000D01*
G01*
G37*
G36*
G01*
X64775000Y-72490000D02*
X64775000Y-72190000D01*
G75*
G02*
X64925000Y-72040000I150000J0D01*
G01*
X66675000Y-72040000D01*
G75*
G02*
X66825000Y-72190000I0J-150000D01*
G01*
X66825000Y-72490000D01*
G75*
G02*
X66675000Y-72640000I-150000J0D01*
G01*
X64925000Y-72640000D01*
G75*
G02*
X64775000Y-72490000I0J150000D01*
G01*
G37*
G36*
G01*
X64775000Y-71220000D02*
X64775000Y-70920000D01*
G75*
G02*
X64925000Y-70770000I150000J0D01*
G01*
X66675000Y-70770000D01*
G75*
G02*
X66825000Y-70920000I0J-150000D01*
G01*
X66825000Y-71220000D01*
G75*
G02*
X66675000Y-71370000I-150000J0D01*
G01*
X64925000Y-71370000D01*
G75*
G02*
X64775000Y-71220000I0J150000D01*
G01*
G37*
G36*
G01*
X64775000Y-69950000D02*
X64775000Y-69650000D01*
G75*
G02*
X64925000Y-69500000I150000J0D01*
G01*
X66675000Y-69500000D01*
G75*
G02*
X66825000Y-69650000I0J-150000D01*
G01*
X66825000Y-69950000D01*
G75*
G02*
X66675000Y-70100000I-150000J0D01*
G01*
X64925000Y-70100000D01*
G75*
G02*
X64775000Y-69950000I0J150000D01*
G01*
G37*
G36*
G01*
X64775000Y-68680000D02*
X64775000Y-68380000D01*
G75*
G02*
X64925000Y-68230000I150000J0D01*
G01*
X66675000Y-68230000D01*
G75*
G02*
X66825000Y-68380000I0J-150000D01*
G01*
X66825000Y-68680000D01*
G75*
G02*
X66675000Y-68830000I-150000J0D01*
G01*
X64925000Y-68830000D01*
G75*
G02*
X64775000Y-68680000I0J150000D01*
G01*
G37*
G36*
G01*
X64775000Y-67410000D02*
X64775000Y-67110000D01*
G75*
G02*
X64925000Y-66960000I150000J0D01*
G01*
X66675000Y-66960000D01*
G75*
G02*
X66825000Y-67110000I0J-150000D01*
G01*
X66825000Y-67410000D01*
G75*
G02*
X66675000Y-67560000I-150000J0D01*
G01*
X64925000Y-67560000D01*
G75*
G02*
X64775000Y-67410000I0J150000D01*
G01*
G37*
G36*
G01*
X64775000Y-66140000D02*
X64775000Y-65840000D01*
G75*
G02*
X64925000Y-65690000I150000J0D01*
G01*
X66675000Y-65690000D01*
G75*
G02*
X66825000Y-65840000I0J-150000D01*
G01*
X66825000Y-66140000D01*
G75*
G02*
X66675000Y-66290000I-150000J0D01*
G01*
X64925000Y-66290000D01*
G75*
G02*
X64775000Y-66140000I0J150000D01*
G01*
G37*
G36*
G01*
X64475000Y-107975000D02*
X64475000Y-107025000D01*
G75*
G02*
X64725000Y-106775000I250000J0D01*
G01*
X65400000Y-106775000D01*
G75*
G02*
X65650000Y-107025000I0J-250000D01*
G01*
X65650000Y-107975000D01*
G75*
G02*
X65400000Y-108225000I-250000J0D01*
G01*
X64725000Y-108225000D01*
G75*
G02*
X64475000Y-107975000I0J250000D01*
G01*
G37*
G36*
G01*
X66550000Y-107975000D02*
X66550000Y-107025000D01*
G75*
G02*
X66800000Y-106775000I250000J0D01*
G01*
X67475000Y-106775000D01*
G75*
G02*
X67725000Y-107025000I0J-250000D01*
G01*
X67725000Y-107975000D01*
G75*
G02*
X67475000Y-108225000I-250000J0D01*
G01*
X66800000Y-108225000D01*
G75*
G02*
X66550000Y-107975000I0J250000D01*
G01*
G37*
G36*
G01*
X58125000Y-123225000D02*
X59075000Y-123225000D01*
G75*
G02*
X59325000Y-123475000I0J-250000D01*
G01*
X59325000Y-124150000D01*
G75*
G02*
X59075000Y-124400000I-250000J0D01*
G01*
X58125000Y-124400000D01*
G75*
G02*
X57875000Y-124150000I0J250000D01*
G01*
X57875000Y-123475000D01*
G75*
G02*
X58125000Y-123225000I250000J0D01*
G01*
G37*
G36*
G01*
X58125000Y-125300000D02*
X59075000Y-125300000D01*
G75*
G02*
X59325000Y-125550000I0J-250000D01*
G01*
X59325000Y-126225000D01*
G75*
G02*
X59075000Y-126475000I-250000J0D01*
G01*
X58125000Y-126475000D01*
G75*
G02*
X57875000Y-126225000I0J250000D01*
G01*
X57875000Y-125550000D01*
G75*
G02*
X58125000Y-125300000I250000J0D01*
G01*
G37*
G36*
G01*
X55500000Y-74950000D02*
X55500000Y-74050000D01*
G75*
G02*
X55750000Y-73800000I250000J0D01*
G01*
X56450000Y-73800000D01*
G75*
G02*
X56700000Y-74050000I0J-250000D01*
G01*
X56700000Y-74950000D01*
G75*
G02*
X56450000Y-75200000I-250000J0D01*
G01*
X55750000Y-75200000D01*
G75*
G02*
X55500000Y-74950000I0J250000D01*
G01*
G37*
G36*
G01*
X57500000Y-74950000D02*
X57500000Y-74050000D01*
G75*
G02*
X57750000Y-73800000I250000J0D01*
G01*
X58450000Y-73800000D01*
G75*
G02*
X58700000Y-74050000I0J-250000D01*
G01*
X58700000Y-74950000D01*
G75*
G02*
X58450000Y-75200000I-250000J0D01*
G01*
X57750000Y-75200000D01*
G75*
G02*
X57500000Y-74950000I0J250000D01*
G01*
G37*
G36*
G01*
X56000000Y-68450000D02*
X56000000Y-67550000D01*
G75*
G02*
X56250000Y-67300000I250000J0D01*
G01*
X56950000Y-67300000D01*
G75*
G02*
X57200000Y-67550000I0J-250000D01*
G01*
X57200000Y-68450000D01*
G75*
G02*
X56950000Y-68700000I-250000J0D01*
G01*
X56250000Y-68700000D01*
G75*
G02*
X56000000Y-68450000I0J250000D01*
G01*
G37*
G36*
G01*
X58000000Y-68450000D02*
X58000000Y-67550000D01*
G75*
G02*
X58250000Y-67300000I250000J0D01*
G01*
X58950000Y-67300000D01*
G75*
G02*
X59200000Y-67550000I0J-250000D01*
G01*
X59200000Y-68450000D01*
G75*
G02*
X58950000Y-68700000I-250000J0D01*
G01*
X58250000Y-68700000D01*
G75*
G02*
X58000000Y-68450000I0J250000D01*
G01*
G37*
G36*
G01*
X67400000Y-74350000D02*
X67400000Y-73450000D01*
G75*
G02*
X67650000Y-73200000I250000J0D01*
G01*
X68350000Y-73200000D01*
G75*
G02*
X68600000Y-73450000I0J-250000D01*
G01*
X68600000Y-74350000D01*
G75*
G02*
X68350000Y-74600000I-250000J0D01*
G01*
X67650000Y-74600000D01*
G75*
G02*
X67400000Y-74350000I0J250000D01*
G01*
G37*
G36*
G01*
X69400000Y-74350000D02*
X69400000Y-73450000D01*
G75*
G02*
X69650000Y-73200000I250000J0D01*
G01*
X70350000Y-73200000D01*
G75*
G02*
X70600000Y-73450000I0J-250000D01*
G01*
X70600000Y-74350000D01*
G75*
G02*
X70350000Y-74600000I-250000J0D01*
G01*
X69650000Y-74600000D01*
G75*
G02*
X69400000Y-74350000I0J250000D01*
G01*
G37*
G36*
G01*
X70625000Y-69225000D02*
X70625000Y-70175000D01*
G75*
G02*
X70375000Y-70425000I-250000J0D01*
G01*
X69700000Y-70425000D01*
G75*
G02*
X69450000Y-70175000I0J250000D01*
G01*
X69450000Y-69225000D01*
G75*
G02*
X69700000Y-68975000I250000J0D01*
G01*
X70375000Y-68975000D01*
G75*
G02*
X70625000Y-69225000I0J-250000D01*
G01*
G37*
G36*
G01*
X68550000Y-69225000D02*
X68550000Y-70175000D01*
G75*
G02*
X68300000Y-70425000I-250000J0D01*
G01*
X67625000Y-70425000D01*
G75*
G02*
X67375000Y-70175000I0J250000D01*
G01*
X67375000Y-69225000D01*
G75*
G02*
X67625000Y-68975000I250000J0D01*
G01*
X68300000Y-68975000D01*
G75*
G02*
X68550000Y-69225000I0J-250000D01*
G01*
G37*
D15*
X53300000Y-67800000D03*
D16*
X53300000Y-70340000D03*
X53300000Y-72880000D03*
X53300000Y-75420000D03*
X53300000Y-77960000D03*
X53300000Y-80500000D03*
X53300000Y-83040000D03*
X53300000Y-85580000D03*
G36*
G01*
X55312500Y-113475000D02*
X55312500Y-112525000D01*
G75*
G02*
X55562500Y-112275000I250000J0D01*
G01*
X56237500Y-112275000D01*
G75*
G02*
X56487500Y-112525000I0J-250000D01*
G01*
X56487500Y-113475000D01*
G75*
G02*
X56237500Y-113725000I-250000J0D01*
G01*
X55562500Y-113725000D01*
G75*
G02*
X55312500Y-113475000I0J250000D01*
G01*
G37*
G36*
G01*
X57387500Y-113475000D02*
X57387500Y-112525000D01*
G75*
G02*
X57637500Y-112275000I250000J0D01*
G01*
X58312500Y-112275000D01*
G75*
G02*
X58562500Y-112525000I0J-250000D01*
G01*
X58562500Y-113475000D01*
G75*
G02*
X58312500Y-113725000I-250000J0D01*
G01*
X57637500Y-113725000D01*
G75*
G02*
X57387500Y-113475000I0J250000D01*
G01*
G37*
G36*
G01*
X67500000Y-56650000D02*
X67500000Y-57550000D01*
G75*
G02*
X67250000Y-57800000I-250000J0D01*
G01*
X66550000Y-57800000D01*
G75*
G02*
X66300000Y-57550000I0J250000D01*
G01*
X66300000Y-56650000D01*
G75*
G02*
X66550000Y-56400000I250000J0D01*
G01*
X67250000Y-56400000D01*
G75*
G02*
X67500000Y-56650000I0J-250000D01*
G01*
G37*
G36*
G01*
X65500000Y-56650000D02*
X65500000Y-57550000D01*
G75*
G02*
X65250000Y-57800000I-250000J0D01*
G01*
X64550000Y-57800000D01*
G75*
G02*
X64300000Y-57550000I0J250000D01*
G01*
X64300000Y-56650000D01*
G75*
G02*
X64550000Y-56400000I250000J0D01*
G01*
X65250000Y-56400000D01*
G75*
G02*
X65500000Y-56650000I0J-250000D01*
G01*
G37*
G36*
G01*
X67200000Y-81375000D02*
X67200000Y-82025000D01*
G75*
G02*
X66925000Y-82300000I-275000J0D01*
G01*
X66375000Y-82300000D01*
G75*
G02*
X66100000Y-82025000I0J275000D01*
G01*
X66100000Y-81375000D01*
G75*
G02*
X66375000Y-81100000I275000J0D01*
G01*
X66925000Y-81100000D01*
G75*
G02*
X67200000Y-81375000I0J-275000D01*
G01*
G37*
G36*
G01*
X63900000Y-81375000D02*
X63900000Y-82025000D01*
G75*
G02*
X63625000Y-82300000I-275000J0D01*
G01*
X63075000Y-82300000D01*
G75*
G02*
X62800000Y-82025000I0J275000D01*
G01*
X62800000Y-81375000D01*
G75*
G02*
X63075000Y-81100000I275000J0D01*
G01*
X63625000Y-81100000D01*
G75*
G02*
X63900000Y-81375000I0J-275000D01*
G01*
G37*
G36*
G01*
X59900000Y-75950000D02*
X59900000Y-75050000D01*
G75*
G02*
X60150000Y-74800000I250000J0D01*
G01*
X60850000Y-74800000D01*
G75*
G02*
X61100000Y-75050000I0J-250000D01*
G01*
X61100000Y-75950000D01*
G75*
G02*
X60850000Y-76200000I-250000J0D01*
G01*
X60150000Y-76200000D01*
G75*
G02*
X59900000Y-75950000I0J250000D01*
G01*
G37*
G36*
G01*
X61900000Y-75950000D02*
X61900000Y-75050000D01*
G75*
G02*
X62150000Y-74800000I250000J0D01*
G01*
X62850000Y-74800000D01*
G75*
G02*
X63100000Y-75050000I0J-250000D01*
G01*
X63100000Y-75950000D01*
G75*
G02*
X62850000Y-76200000I-250000J0D01*
G01*
X62150000Y-76200000D01*
G75*
G02*
X61900000Y-75950000I0J250000D01*
G01*
G37*
G36*
G01*
X56000000Y-66450000D02*
X56000000Y-65550000D01*
G75*
G02*
X56250000Y-65300000I250000J0D01*
G01*
X56950000Y-65300000D01*
G75*
G02*
X57200000Y-65550000I0J-250000D01*
G01*
X57200000Y-66450000D01*
G75*
G02*
X56950000Y-66700000I-250000J0D01*
G01*
X56250000Y-66700000D01*
G75*
G02*
X56000000Y-66450000I0J250000D01*
G01*
G37*
G36*
G01*
X58000000Y-66450000D02*
X58000000Y-65550000D01*
G75*
G02*
X58250000Y-65300000I250000J0D01*
G01*
X58950000Y-65300000D01*
G75*
G02*
X59200000Y-65550000I0J-250000D01*
G01*
X59200000Y-66450000D01*
G75*
G02*
X58950000Y-66700000I-250000J0D01*
G01*
X58250000Y-66700000D01*
G75*
G02*
X58000000Y-66450000I0J250000D01*
G01*
G37*
G36*
G01*
X55375000Y-110975000D02*
X55375000Y-110025000D01*
G75*
G02*
X55625000Y-109775000I250000J0D01*
G01*
X56300000Y-109775000D01*
G75*
G02*
X56550000Y-110025000I0J-250000D01*
G01*
X56550000Y-110975000D01*
G75*
G02*
X56300000Y-111225000I-250000J0D01*
G01*
X55625000Y-111225000D01*
G75*
G02*
X55375000Y-110975000I0J250000D01*
G01*
G37*
G36*
G01*
X57450000Y-110975000D02*
X57450000Y-110025000D01*
G75*
G02*
X57700000Y-109775000I250000J0D01*
G01*
X58375000Y-109775000D01*
G75*
G02*
X58625000Y-110025000I0J-250000D01*
G01*
X58625000Y-110975000D01*
G75*
G02*
X58375000Y-111225000I-250000J0D01*
G01*
X57700000Y-111225000D01*
G75*
G02*
X57450000Y-110975000I0J250000D01*
G01*
G37*
G36*
G01*
X55275000Y-118575000D02*
X55275000Y-117625000D01*
G75*
G02*
X55525000Y-117375000I250000J0D01*
G01*
X56200000Y-117375000D01*
G75*
G02*
X56450000Y-117625000I0J-250000D01*
G01*
X56450000Y-118575000D01*
G75*
G02*
X56200000Y-118825000I-250000J0D01*
G01*
X55525000Y-118825000D01*
G75*
G02*
X55275000Y-118575000I0J250000D01*
G01*
G37*
G36*
G01*
X57350000Y-118575000D02*
X57350000Y-117625000D01*
G75*
G02*
X57600000Y-117375000I250000J0D01*
G01*
X58275000Y-117375000D01*
G75*
G02*
X58525000Y-117625000I0J-250000D01*
G01*
X58525000Y-118575000D01*
G75*
G02*
X58275000Y-118825000I-250000J0D01*
G01*
X57600000Y-118825000D01*
G75*
G02*
X57350000Y-118575000I0J250000D01*
G01*
G37*
G36*
G01*
X60400000Y-86575000D02*
X60400000Y-87225000D01*
G75*
G02*
X60125000Y-87500000I-275000J0D01*
G01*
X59575000Y-87500000D01*
G75*
G02*
X59300000Y-87225000I0J275000D01*
G01*
X59300000Y-86575000D01*
G75*
G02*
X59575000Y-86300000I275000J0D01*
G01*
X60125000Y-86300000D01*
G75*
G02*
X60400000Y-86575000I0J-275000D01*
G01*
G37*
G36*
G01*
X57100000Y-86575000D02*
X57100000Y-87225000D01*
G75*
G02*
X56825000Y-87500000I-275000J0D01*
G01*
X56275000Y-87500000D01*
G75*
G02*
X56000000Y-87225000I0J275000D01*
G01*
X56000000Y-86575000D01*
G75*
G02*
X56275000Y-86300000I275000J0D01*
G01*
X56825000Y-86300000D01*
G75*
G02*
X57100000Y-86575000I0J-275000D01*
G01*
G37*
G36*
G01*
X67500000Y-54150000D02*
X67500000Y-55050000D01*
G75*
G02*
X67250000Y-55300000I-250000J0D01*
G01*
X66550000Y-55300000D01*
G75*
G02*
X66300000Y-55050000I0J250000D01*
G01*
X66300000Y-54150000D01*
G75*
G02*
X66550000Y-53900000I250000J0D01*
G01*
X67250000Y-53900000D01*
G75*
G02*
X67500000Y-54150000I0J-250000D01*
G01*
G37*
G36*
G01*
X65500000Y-54150000D02*
X65500000Y-55050000D01*
G75*
G02*
X65250000Y-55300000I-250000J0D01*
G01*
X64550000Y-55300000D01*
G75*
G02*
X64300000Y-55050000I0J250000D01*
G01*
X64300000Y-54150000D01*
G75*
G02*
X64550000Y-53900000I250000J0D01*
G01*
X65250000Y-53900000D01*
G75*
G02*
X65500000Y-54150000I0J-250000D01*
G01*
G37*
G36*
G01*
X63925000Y-123225000D02*
X64875000Y-123225000D01*
G75*
G02*
X65125000Y-123475000I0J-250000D01*
G01*
X65125000Y-124150000D01*
G75*
G02*
X64875000Y-124400000I-250000J0D01*
G01*
X63925000Y-124400000D01*
G75*
G02*
X63675000Y-124150000I0J250000D01*
G01*
X63675000Y-123475000D01*
G75*
G02*
X63925000Y-123225000I250000J0D01*
G01*
G37*
G36*
G01*
X63925000Y-125300000D02*
X64875000Y-125300000D01*
G75*
G02*
X65125000Y-125550000I0J-250000D01*
G01*
X65125000Y-126225000D01*
G75*
G02*
X64875000Y-126475000I-250000J0D01*
G01*
X63925000Y-126475000D01*
G75*
G02*
X63675000Y-126225000I0J250000D01*
G01*
X63675000Y-125550000D01*
G75*
G02*
X63925000Y-125300000I250000J0D01*
G01*
G37*
G36*
G01*
X59225000Y-69725000D02*
X59225000Y-70675000D01*
G75*
G02*
X58975000Y-70925000I-250000J0D01*
G01*
X58300000Y-70925000D01*
G75*
G02*
X58050000Y-70675000I0J250000D01*
G01*
X58050000Y-69725000D01*
G75*
G02*
X58300000Y-69475000I250000J0D01*
G01*
X58975000Y-69475000D01*
G75*
G02*
X59225000Y-69725000I0J-250000D01*
G01*
G37*
G36*
G01*
X57150000Y-69725000D02*
X57150000Y-70675000D01*
G75*
G02*
X56900000Y-70925000I-250000J0D01*
G01*
X56225000Y-70925000D01*
G75*
G02*
X55975000Y-70675000I0J250000D01*
G01*
X55975000Y-69725000D01*
G75*
G02*
X56225000Y-69475000I250000J0D01*
G01*
X56900000Y-69475000D01*
G75*
G02*
X57150000Y-69725000I0J-250000D01*
G01*
G37*
G36*
G01*
X67500000Y-51650000D02*
X67500000Y-52550000D01*
G75*
G02*
X67250000Y-52800000I-250000J0D01*
G01*
X66550000Y-52800000D01*
G75*
G02*
X66300000Y-52550000I0J250000D01*
G01*
X66300000Y-51650000D01*
G75*
G02*
X66550000Y-51400000I250000J0D01*
G01*
X67250000Y-51400000D01*
G75*
G02*
X67500000Y-51650000I0J-250000D01*
G01*
G37*
G36*
G01*
X65500000Y-51650000D02*
X65500000Y-52550000D01*
G75*
G02*
X65250000Y-52800000I-250000J0D01*
G01*
X64550000Y-52800000D01*
G75*
G02*
X64300000Y-52550000I0J250000D01*
G01*
X64300000Y-51650000D01*
G75*
G02*
X64550000Y-51400000I250000J0D01*
G01*
X65250000Y-51400000D01*
G75*
G02*
X65500000Y-51650000I0J-250000D01*
G01*
G37*
G36*
G01*
X67725000Y-112525000D02*
X67725000Y-113475000D01*
G75*
G02*
X67475000Y-113725000I-250000J0D01*
G01*
X66800000Y-113725000D01*
G75*
G02*
X66550000Y-113475000I0J250000D01*
G01*
X66550000Y-112525000D01*
G75*
G02*
X66800000Y-112275000I250000J0D01*
G01*
X67475000Y-112275000D01*
G75*
G02*
X67725000Y-112525000I0J-250000D01*
G01*
G37*
G36*
G01*
X65650000Y-112525000D02*
X65650000Y-113475000D01*
G75*
G02*
X65400000Y-113725000I-250000J0D01*
G01*
X64725000Y-113725000D01*
G75*
G02*
X64475000Y-113475000I0J250000D01*
G01*
X64475000Y-112525000D01*
G75*
G02*
X64725000Y-112275000I250000J0D01*
G01*
X65400000Y-112275000D01*
G75*
G02*
X65650000Y-112525000I0J-250000D01*
G01*
G37*
D17*
X60550000Y-126300000D03*
X61500000Y-126300000D03*
X62450000Y-126300000D03*
X62450000Y-123800000D03*
X60550000Y-123800000D03*
G36*
G01*
X67400000Y-67850000D02*
X67400000Y-66950000D01*
G75*
G02*
X67650000Y-66700000I250000J0D01*
G01*
X68350000Y-66700000D01*
G75*
G02*
X68600000Y-66950000I0J-250000D01*
G01*
X68600000Y-67850000D01*
G75*
G02*
X68350000Y-68100000I-250000J0D01*
G01*
X67650000Y-68100000D01*
G75*
G02*
X67400000Y-67850000I0J250000D01*
G01*
G37*
G36*
G01*
X69400000Y-67850000D02*
X69400000Y-66950000D01*
G75*
G02*
X69650000Y-66700000I250000J0D01*
G01*
X70350000Y-66700000D01*
G75*
G02*
X70600000Y-66950000I0J-250000D01*
G01*
X70600000Y-67850000D01*
G75*
G02*
X70350000Y-68100000I-250000J0D01*
G01*
X69650000Y-68100000D01*
G75*
G02*
X69400000Y-67850000I0J250000D01*
G01*
G37*
G36*
G01*
X59450000Y-141480000D02*
X59450000Y-140280000D01*
G75*
G02*
X59700000Y-140030000I250000J0D01*
G01*
X60900000Y-140030000D01*
G75*
G02*
X61150000Y-140280000I0J-250000D01*
G01*
X61150000Y-141480000D01*
G75*
G02*
X60900000Y-141730000I-250000J0D01*
G01*
X59700000Y-141730000D01*
G75*
G02*
X59450000Y-141480000I0J250000D01*
G01*
G37*
D18*
X62840000Y-140880000D03*
X60300000Y-138340000D03*
X62840000Y-138340000D03*
X60300000Y-135800000D03*
X62840000Y-135800000D03*
X60300000Y-133260000D03*
X62840000Y-133260000D03*
X60300000Y-130720000D03*
X62840000Y-130720000D03*
D15*
X53880000Y-118120000D03*
D18*
X53880000Y-115580000D03*
X53880000Y-113040000D03*
X53880000Y-110500000D03*
X53880000Y-107960000D03*
X53880000Y-105420000D03*
X53880000Y-102880000D03*
X69120000Y-102880000D03*
X69120000Y-105420000D03*
X69120000Y-107960000D03*
X69120000Y-110500000D03*
X69120000Y-113040000D03*
X69120000Y-115580000D03*
X69120000Y-118120000D03*
M02*
