G04 #@! TF.GenerationSoftware,KiCad,Pcbnew,7.0.5.1-1-g8f565ef7f0-dirty-deb11*
G04 #@! TF.CreationDate,2023-06-10T10:54:20+00:00*
G04 #@! TF.ProjectId,RP2040-VCO,52503230-3430-42d5-9643-4f2e6b696361,rev?*
G04 #@! TF.SameCoordinates,Original*
G04 #@! TF.FileFunction,Soldermask,Top*
G04 #@! TF.FilePolarity,Negative*
%FSLAX46Y46*%
G04 Gerber Fmt 4.6, Leading zero omitted, Abs format (unit mm)*
G04 Created by KiCad (PCBNEW 7.0.5.1-1-g8f565ef7f0-dirty-deb11) date 2023-06-10 10:54:20*
%MOMM*%
%LPD*%
G01*
G04 APERTURE LIST*
%ADD10C,3.200000*%
%ADD11R,1.700000X1.700000*%
%ADD12O,1.700000X1.700000*%
%ADD13R,0.600000X1.200000*%
%ADD14C,1.700000*%
G04 APERTURE END LIST*
G36*
G01*
X54550000Y-130400000D02*
X53450000Y-130400000D01*
G75*
G02*
X53200000Y-130150000I0J250000D01*
G01*
X53200000Y-128050000D01*
G75*
G02*
X53450000Y-127800000I250000J0D01*
G01*
X54550000Y-127800000D01*
G75*
G02*
X54800000Y-128050000I0J-250000D01*
G01*
X54800000Y-130150000D01*
G75*
G02*
X54550000Y-130400000I-250000J0D01*
G01*
G37*
G36*
G01*
X54550000Y-126800000D02*
X53450000Y-126800000D01*
G75*
G02*
X53200000Y-126550000I0J250000D01*
G01*
X53200000Y-124450000D01*
G75*
G02*
X53450000Y-124200000I250000J0D01*
G01*
X54550000Y-124200000D01*
G75*
G02*
X54800000Y-124450000I0J-250000D01*
G01*
X54800000Y-126550000D01*
G75*
G02*
X54550000Y-126800000I-250000J0D01*
G01*
G37*
G36*
G01*
X68450000Y-124100000D02*
X69550000Y-124100000D01*
G75*
G02*
X69800000Y-124350000I0J-250000D01*
G01*
X69800000Y-126450000D01*
G75*
G02*
X69550000Y-126700000I-250000J0D01*
G01*
X68450000Y-126700000D01*
G75*
G02*
X68200000Y-126450000I0J250000D01*
G01*
X68200000Y-124350000D01*
G75*
G02*
X68450000Y-124100000I250000J0D01*
G01*
G37*
G36*
G01*
X68450000Y-127700000D02*
X69550000Y-127700000D01*
G75*
G02*
X69800000Y-127950000I0J-250000D01*
G01*
X69800000Y-130050000D01*
G75*
G02*
X69550000Y-130300000I-250000J0D01*
G01*
X68450000Y-130300000D01*
G75*
G02*
X68200000Y-130050000I0J250000D01*
G01*
X68200000Y-127950000D01*
G75*
G02*
X68450000Y-127700000I250000J0D01*
G01*
G37*
G36*
G01*
X67700000Y-104950000D02*
X67700000Y-105850000D01*
G75*
G02*
X67450000Y-106100000I-250000J0D01*
G01*
X66750000Y-106100000D01*
G75*
G02*
X66500000Y-105850000I0J250000D01*
G01*
X66500000Y-104950000D01*
G75*
G02*
X66750000Y-104700000I250000J0D01*
G01*
X67450000Y-104700000D01*
G75*
G02*
X67700000Y-104950000I0J-250000D01*
G01*
G37*
G36*
G01*
X65700000Y-104950000D02*
X65700000Y-105850000D01*
G75*
G02*
X65450000Y-106100000I-250000J0D01*
G01*
X64750000Y-106100000D01*
G75*
G02*
X64500000Y-105850000I0J250000D01*
G01*
X64500000Y-104950000D01*
G75*
G02*
X64750000Y-104700000I250000J0D01*
G01*
X65450000Y-104700000D01*
G75*
G02*
X65700000Y-104950000I0J-250000D01*
G01*
G37*
D10*
X68000000Y-96000000D03*
G36*
G01*
X67400000Y-65850000D02*
X67400000Y-64950000D01*
G75*
G02*
X67650000Y-64700000I250000J0D01*
G01*
X68350000Y-64700000D01*
G75*
G02*
X68600000Y-64950000I0J-250000D01*
G01*
X68600000Y-65850000D01*
G75*
G02*
X68350000Y-66100000I-250000J0D01*
G01*
X67650000Y-66100000D01*
G75*
G02*
X67400000Y-65850000I0J250000D01*
G01*
G37*
G36*
G01*
X69400000Y-65850000D02*
X69400000Y-64950000D01*
G75*
G02*
X69650000Y-64700000I250000J0D01*
G01*
X70350000Y-64700000D01*
G75*
G02*
X70600000Y-64950000I0J-250000D01*
G01*
X70600000Y-65850000D01*
G75*
G02*
X70350000Y-66100000I-250000J0D01*
G01*
X69650000Y-66100000D01*
G75*
G02*
X69400000Y-65850000I0J250000D01*
G01*
G37*
G36*
G01*
X67700000Y-102950000D02*
X67700000Y-103850000D01*
G75*
G02*
X67450000Y-104100000I-250000J0D01*
G01*
X66750000Y-104100000D01*
G75*
G02*
X66500000Y-103850000I0J250000D01*
G01*
X66500000Y-102950000D01*
G75*
G02*
X66750000Y-102700000I250000J0D01*
G01*
X67450000Y-102700000D01*
G75*
G02*
X67700000Y-102950000I0J-250000D01*
G01*
G37*
G36*
G01*
X65700000Y-102950000D02*
X65700000Y-103850000D01*
G75*
G02*
X65450000Y-104100000I-250000J0D01*
G01*
X64750000Y-104100000D01*
G75*
G02*
X64500000Y-103850000I0J250000D01*
G01*
X64500000Y-102950000D01*
G75*
G02*
X64750000Y-102700000I250000J0D01*
G01*
X65450000Y-102700000D01*
G75*
G02*
X65700000Y-102950000I0J-250000D01*
G01*
G37*
G36*
G01*
X67400000Y-72350000D02*
X67400000Y-71450000D01*
G75*
G02*
X67650000Y-71200000I250000J0D01*
G01*
X68350000Y-71200000D01*
G75*
G02*
X68600000Y-71450000I0J-250000D01*
G01*
X68600000Y-72350000D01*
G75*
G02*
X68350000Y-72600000I-250000J0D01*
G01*
X67650000Y-72600000D01*
G75*
G02*
X67400000Y-72350000I0J250000D01*
G01*
G37*
G36*
G01*
X69400000Y-72350000D02*
X69400000Y-71450000D01*
G75*
G02*
X69650000Y-71200000I250000J0D01*
G01*
X70350000Y-71200000D01*
G75*
G02*
X70600000Y-71450000I0J-250000D01*
G01*
X70600000Y-72350000D01*
G75*
G02*
X70350000Y-72600000I-250000J0D01*
G01*
X69650000Y-72600000D01*
G75*
G02*
X69400000Y-72350000I0J250000D01*
G01*
G37*
G36*
G01*
X67725000Y-117625000D02*
X67725000Y-118575000D01*
G75*
G02*
X67475000Y-118825000I-250000J0D01*
G01*
X66800000Y-118825000D01*
G75*
G02*
X66550000Y-118575000I0J250000D01*
G01*
X66550000Y-117625000D01*
G75*
G02*
X66800000Y-117375000I250000J0D01*
G01*
X67475000Y-117375000D01*
G75*
G02*
X67725000Y-117625000I0J-250000D01*
G01*
G37*
G36*
G01*
X65650000Y-117625000D02*
X65650000Y-118575000D01*
G75*
G02*
X65400000Y-118825000I-250000J0D01*
G01*
X64725000Y-118825000D01*
G75*
G02*
X64475000Y-118575000I0J250000D01*
G01*
X64475000Y-117625000D01*
G75*
G02*
X64725000Y-117375000I250000J0D01*
G01*
X65400000Y-117375000D01*
G75*
G02*
X65650000Y-117625000I0J-250000D01*
G01*
G37*
G36*
G01*
X67200000Y-78975000D02*
X67200000Y-79625000D01*
G75*
G02*
X66925000Y-79900000I-275000J0D01*
G01*
X66375000Y-79900000D01*
G75*
G02*
X66100000Y-79625000I0J275000D01*
G01*
X66100000Y-78975000D01*
G75*
G02*
X66375000Y-78700000I275000J0D01*
G01*
X66925000Y-78700000D01*
G75*
G02*
X67200000Y-78975000I0J-275000D01*
G01*
G37*
G36*
G01*
X63900000Y-78975000D02*
X63900000Y-79625000D01*
G75*
G02*
X63625000Y-79900000I-275000J0D01*
G01*
X63075000Y-79900000D01*
G75*
G02*
X62800000Y-79625000I0J275000D01*
G01*
X62800000Y-78975000D01*
G75*
G02*
X63075000Y-78700000I275000J0D01*
G01*
X63625000Y-78700000D01*
G75*
G02*
X63900000Y-78975000I0J-275000D01*
G01*
G37*
G36*
G01*
X59775000Y-128725000D02*
X59775000Y-127775000D01*
G75*
G02*
X60025000Y-127525000I250000J0D01*
G01*
X60700000Y-127525000D01*
G75*
G02*
X60950000Y-127775000I0J-250000D01*
G01*
X60950000Y-128725000D01*
G75*
G02*
X60700000Y-128975000I-250000J0D01*
G01*
X60025000Y-128975000D01*
G75*
G02*
X59775000Y-128725000I0J250000D01*
G01*
G37*
G36*
G01*
X61850000Y-128725000D02*
X61850000Y-127775000D01*
G75*
G02*
X62100000Y-127525000I250000J0D01*
G01*
X62775000Y-127525000D01*
G75*
G02*
X63025000Y-127775000I0J-250000D01*
G01*
X63025000Y-128725000D01*
G75*
G02*
X62775000Y-128975000I-250000J0D01*
G01*
X62100000Y-128975000D01*
G75*
G02*
X61850000Y-128725000I0J250000D01*
G01*
G37*
G36*
G01*
X55275000Y-116075000D02*
X55275000Y-115125000D01*
G75*
G02*
X55525000Y-114875000I250000J0D01*
G01*
X56200000Y-114875000D01*
G75*
G02*
X56450000Y-115125000I0J-250000D01*
G01*
X56450000Y-116075000D01*
G75*
G02*
X56200000Y-116325000I-250000J0D01*
G01*
X55525000Y-116325000D01*
G75*
G02*
X55275000Y-116075000I0J250000D01*
G01*
G37*
G36*
G01*
X57350000Y-116075000D02*
X57350000Y-115125000D01*
G75*
G02*
X57600000Y-114875000I250000J0D01*
G01*
X58275000Y-114875000D01*
G75*
G02*
X58525000Y-115125000I0J-250000D01*
G01*
X58525000Y-116075000D01*
G75*
G02*
X58275000Y-116325000I-250000J0D01*
G01*
X57600000Y-116325000D01*
G75*
G02*
X57350000Y-116075000I0J250000D01*
G01*
G37*
D11*
X69700000Y-49500000D03*
D12*
X69700000Y-52040000D03*
X69700000Y-54580000D03*
X69700000Y-57120000D03*
X69700000Y-59660000D03*
X69700000Y-62200000D03*
G36*
G01*
X64475000Y-101875000D02*
X64475000Y-100925000D01*
G75*
G02*
X64725000Y-100675000I250000J0D01*
G01*
X65400000Y-100675000D01*
G75*
G02*
X65650000Y-100925000I0J-250000D01*
G01*
X65650000Y-101875000D01*
G75*
G02*
X65400000Y-102125000I-250000J0D01*
G01*
X64725000Y-102125000D01*
G75*
G02*
X64475000Y-101875000I0J250000D01*
G01*
G37*
G36*
G01*
X66550000Y-101875000D02*
X66550000Y-100925000D01*
G75*
G02*
X66800000Y-100675000I250000J0D01*
G01*
X67475000Y-100675000D01*
G75*
G02*
X67725000Y-100925000I0J-250000D01*
G01*
X67725000Y-101875000D01*
G75*
G02*
X67475000Y-102125000I-250000J0D01*
G01*
X66800000Y-102125000D01*
G75*
G02*
X66550000Y-101875000I0J250000D01*
G01*
G37*
G36*
G01*
X60400000Y-88975000D02*
X60400000Y-89625000D01*
G75*
G02*
X60125000Y-89900000I-275000J0D01*
G01*
X59575000Y-89900000D01*
G75*
G02*
X59300000Y-89625000I0J275000D01*
G01*
X59300000Y-88975000D01*
G75*
G02*
X59575000Y-88700000I275000J0D01*
G01*
X60125000Y-88700000D01*
G75*
G02*
X60400000Y-88975000I0J-275000D01*
G01*
G37*
G36*
G01*
X57100000Y-88975000D02*
X57100000Y-89625000D01*
G75*
G02*
X56825000Y-89900000I-275000J0D01*
G01*
X56275000Y-89900000D01*
G75*
G02*
X56000000Y-89625000I0J275000D01*
G01*
X56000000Y-88975000D01*
G75*
G02*
X56275000Y-88700000I275000J0D01*
G01*
X56825000Y-88700000D01*
G75*
G02*
X57100000Y-88975000I0J-275000D01*
G01*
G37*
G36*
G01*
X55975000Y-64475000D02*
X55975000Y-63525000D01*
G75*
G02*
X56225000Y-63275000I250000J0D01*
G01*
X56900000Y-63275000D01*
G75*
G02*
X57150000Y-63525000I0J-250000D01*
G01*
X57150000Y-64475000D01*
G75*
G02*
X56900000Y-64725000I-250000J0D01*
G01*
X56225000Y-64725000D01*
G75*
G02*
X55975000Y-64475000I0J250000D01*
G01*
G37*
G36*
G01*
X58050000Y-64475000D02*
X58050000Y-63525000D01*
G75*
G02*
X58300000Y-63275000I250000J0D01*
G01*
X58975000Y-63275000D01*
G75*
G02*
X59225000Y-63525000I0J-250000D01*
G01*
X59225000Y-64475000D01*
G75*
G02*
X58975000Y-64725000I-250000J0D01*
G01*
X58300000Y-64725000D01*
G75*
G02*
X58050000Y-64475000I0J250000D01*
G01*
G37*
G36*
G01*
X70600000Y-75450000D02*
X70600000Y-76350000D01*
G75*
G02*
X70350000Y-76600000I-250000J0D01*
G01*
X69650000Y-76600000D01*
G75*
G02*
X69400000Y-76350000I0J250000D01*
G01*
X69400000Y-75450000D01*
G75*
G02*
X69650000Y-75200000I250000J0D01*
G01*
X70350000Y-75200000D01*
G75*
G02*
X70600000Y-75450000I0J-250000D01*
G01*
G37*
G36*
G01*
X68600000Y-75450000D02*
X68600000Y-76350000D01*
G75*
G02*
X68350000Y-76600000I-250000J0D01*
G01*
X67650000Y-76600000D01*
G75*
G02*
X67400000Y-76350000I0J250000D01*
G01*
X67400000Y-75450000D01*
G75*
G02*
X67650000Y-75200000I250000J0D01*
G01*
X68350000Y-75200000D01*
G75*
G02*
X68600000Y-75450000I0J-250000D01*
G01*
G37*
G36*
G01*
X55500000Y-76950000D02*
X55500000Y-76050000D01*
G75*
G02*
X55750000Y-75800000I250000J0D01*
G01*
X56450000Y-75800000D01*
G75*
G02*
X56700000Y-76050000I0J-250000D01*
G01*
X56700000Y-76950000D01*
G75*
G02*
X56450000Y-77200000I-250000J0D01*
G01*
X55750000Y-77200000D01*
G75*
G02*
X55500000Y-76950000I0J250000D01*
G01*
G37*
G36*
G01*
X57500000Y-76950000D02*
X57500000Y-76050000D01*
G75*
G02*
X57750000Y-75800000I250000J0D01*
G01*
X58450000Y-75800000D01*
G75*
G02*
X58700000Y-76050000I0J-250000D01*
G01*
X58700000Y-76950000D01*
G75*
G02*
X58450000Y-77200000I-250000J0D01*
G01*
X57750000Y-77200000D01*
G75*
G02*
X57500000Y-76950000I0J250000D01*
G01*
G37*
G36*
G01*
X59775000Y-66140000D02*
X59775000Y-65840000D01*
G75*
G02*
X59925000Y-65690000I150000J0D01*
G01*
X61675000Y-65690000D01*
G75*
G02*
X61825000Y-65840000I0J-150000D01*
G01*
X61825000Y-66140000D01*
G75*
G02*
X61675000Y-66290000I-150000J0D01*
G01*
X59925000Y-66290000D01*
G75*
G02*
X59775000Y-66140000I0J150000D01*
G01*
G37*
G36*
G01*
X59775000Y-67410000D02*
X59775000Y-67110000D01*
G75*
G02*
X59925000Y-66960000I150000J0D01*
G01*
X61675000Y-66960000D01*
G75*
G02*
X61825000Y-67110000I0J-150000D01*
G01*
X61825000Y-67410000D01*
G75*
G02*
X61675000Y-67560000I-150000J0D01*
G01*
X59925000Y-67560000D01*
G75*
G02*
X59775000Y-67410000I0J150000D01*
G01*
G37*
G36*
G01*
X59775000Y-68680000D02*
X59775000Y-68380000D01*
G75*
G02*
X59925000Y-68230000I150000J0D01*
G01*
X61675000Y-68230000D01*
G75*
G02*
X61825000Y-68380000I0J-150000D01*
G01*
X61825000Y-68680000D01*
G75*
G02*
X61675000Y-68830000I-150000J0D01*
G01*
X59925000Y-68830000D01*
G75*
G02*
X59775000Y-68680000I0J150000D01*
G01*
G37*
G36*
G01*
X59775000Y-69950000D02*
X59775000Y-69650000D01*
G75*
G02*
X59925000Y-69500000I150000J0D01*
G01*
X61675000Y-69500000D01*
G75*
G02*
X61825000Y-69650000I0J-150000D01*
G01*
X61825000Y-69950000D01*
G75*
G02*
X61675000Y-70100000I-150000J0D01*
G01*
X59925000Y-70100000D01*
G75*
G02*
X59775000Y-69950000I0J150000D01*
G01*
G37*
G36*
G01*
X59775000Y-71220000D02*
X59775000Y-70920000D01*
G75*
G02*
X59925000Y-70770000I150000J0D01*
G01*
X61675000Y-70770000D01*
G75*
G02*
X61825000Y-70920000I0J-150000D01*
G01*
X61825000Y-71220000D01*
G75*
G02*
X61675000Y-71370000I-150000J0D01*
G01*
X59925000Y-71370000D01*
G75*
G02*
X59775000Y-71220000I0J150000D01*
G01*
G37*
G36*
G01*
X59775000Y-72490000D02*
X59775000Y-72190000D01*
G75*
G02*
X59925000Y-72040000I150000J0D01*
G01*
X61675000Y-72040000D01*
G75*
G02*
X61825000Y-72190000I0J-150000D01*
G01*
X61825000Y-72490000D01*
G75*
G02*
X61675000Y-72640000I-150000J0D01*
G01*
X59925000Y-72640000D01*
G75*
G02*
X59775000Y-72490000I0J150000D01*
G01*
G37*
G36*
G01*
X59775000Y-73760000D02*
X59775000Y-73460000D01*
G75*
G02*
X59925000Y-73310000I150000J0D01*
G01*
X61675000Y-73310000D01*
G75*
G02*
X61825000Y-73460000I0J-150000D01*
G01*
X61825000Y-73760000D01*
G75*
G02*
X61675000Y-73910000I-150000J0D01*
G01*
X59925000Y-73910000D01*
G75*
G02*
X59775000Y-73760000I0J150000D01*
G01*
G37*
G36*
G01*
X64775000Y-73760000D02*
X64775000Y-73460000D01*
G75*
G02*
X64925000Y-73310000I150000J0D01*
G01*
X66675000Y-73310000D01*
G75*
G02*
X66825000Y-73460000I0J-150000D01*
G01*
X66825000Y-73760000D01*
G75*
G02*
X66675000Y-73910000I-150000J0D01*
G01*
X64925000Y-73910000D01*
G75*
G02*
X64775000Y-73760000I0J150000D01*
G01*
G37*
G36*
G01*
X64775000Y-72490000D02*
X64775000Y-72190000D01*
G75*
G02*
X64925000Y-72040000I150000J0D01*
G01*
X66675000Y-72040000D01*
G75*
G02*
X66825000Y-72190000I0J-150000D01*
G01*
X66825000Y-72490000D01*
G75*
G02*
X66675000Y-72640000I-150000J0D01*
G01*
X64925000Y-72640000D01*
G75*
G02*
X64775000Y-72490000I0J150000D01*
G01*
G37*
G36*
G01*
X64775000Y-71220000D02*
X64775000Y-70920000D01*
G75*
G02*
X64925000Y-70770000I150000J0D01*
G01*
X66675000Y-70770000D01*
G75*
G02*
X66825000Y-70920000I0J-150000D01*
G01*
X66825000Y-71220000D01*
G75*
G02*
X66675000Y-71370000I-150000J0D01*
G01*
X64925000Y-71370000D01*
G75*
G02*
X64775000Y-71220000I0J150000D01*
G01*
G37*
G36*
G01*
X64775000Y-69950000D02*
X64775000Y-69650000D01*
G75*
G02*
X64925000Y-69500000I150000J0D01*
G01*
X66675000Y-69500000D01*
G75*
G02*
X66825000Y-69650000I0J-150000D01*
G01*
X66825000Y-69950000D01*
G75*
G02*
X66675000Y-70100000I-150000J0D01*
G01*
X64925000Y-70100000D01*
G75*
G02*
X64775000Y-69950000I0J150000D01*
G01*
G37*
G36*
G01*
X64775000Y-68680000D02*
X64775000Y-68380000D01*
G75*
G02*
X64925000Y-68230000I150000J0D01*
G01*
X66675000Y-68230000D01*
G75*
G02*
X66825000Y-68380000I0J-150000D01*
G01*
X66825000Y-68680000D01*
G75*
G02*
X66675000Y-68830000I-150000J0D01*
G01*
X64925000Y-68830000D01*
G75*
G02*
X64775000Y-68680000I0J150000D01*
G01*
G37*
G36*
G01*
X64775000Y-67410000D02*
X64775000Y-67110000D01*
G75*
G02*
X64925000Y-66960000I150000J0D01*
G01*
X66675000Y-66960000D01*
G75*
G02*
X66825000Y-67110000I0J-150000D01*
G01*
X66825000Y-67410000D01*
G75*
G02*
X66675000Y-67560000I-150000J0D01*
G01*
X64925000Y-67560000D01*
G75*
G02*
X64775000Y-67410000I0J150000D01*
G01*
G37*
G36*
G01*
X64775000Y-66140000D02*
X64775000Y-65840000D01*
G75*
G02*
X64925000Y-65690000I150000J0D01*
G01*
X66675000Y-65690000D01*
G75*
G02*
X66825000Y-65840000I0J-150000D01*
G01*
X66825000Y-66140000D01*
G75*
G02*
X66675000Y-66290000I-150000J0D01*
G01*
X64925000Y-66290000D01*
G75*
G02*
X64775000Y-66140000I0J150000D01*
G01*
G37*
G36*
G01*
X64475000Y-107975000D02*
X64475000Y-107025000D01*
G75*
G02*
X64725000Y-106775000I250000J0D01*
G01*
X65400000Y-106775000D01*
G75*
G02*
X65650000Y-107025000I0J-250000D01*
G01*
X65650000Y-107975000D01*
G75*
G02*
X65400000Y-108225000I-250000J0D01*
G01*
X64725000Y-108225000D01*
G75*
G02*
X64475000Y-107975000I0J250000D01*
G01*
G37*
G36*
G01*
X66550000Y-107975000D02*
X66550000Y-107025000D01*
G75*
G02*
X66800000Y-106775000I250000J0D01*
G01*
X67475000Y-106775000D01*
G75*
G02*
X67725000Y-107025000I0J-250000D01*
G01*
X67725000Y-107975000D01*
G75*
G02*
X67475000Y-108225000I-250000J0D01*
G01*
X66800000Y-108225000D01*
G75*
G02*
X66550000Y-107975000I0J250000D01*
G01*
G37*
G36*
G01*
X58125000Y-123225000D02*
X59075000Y-123225000D01*
G75*
G02*
X59325000Y-123475000I0J-250000D01*
G01*
X59325000Y-124150000D01*
G75*
G02*
X59075000Y-124400000I-250000J0D01*
G01*
X58125000Y-124400000D01*
G75*
G02*
X57875000Y-124150000I0J250000D01*
G01*
X57875000Y-123475000D01*
G75*
G02*
X58125000Y-123225000I250000J0D01*
G01*
G37*
G36*
G01*
X58125000Y-125300000D02*
X59075000Y-125300000D01*
G75*
G02*
X59325000Y-125550000I0J-250000D01*
G01*
X59325000Y-126225000D01*
G75*
G02*
X59075000Y-126475000I-250000J0D01*
G01*
X58125000Y-126475000D01*
G75*
G02*
X57875000Y-126225000I0J250000D01*
G01*
X57875000Y-125550000D01*
G75*
G02*
X58125000Y-125300000I250000J0D01*
G01*
G37*
G36*
G01*
X55500000Y-74950000D02*
X55500000Y-74050000D01*
G75*
G02*
X55750000Y-73800000I250000J0D01*
G01*
X56450000Y-73800000D01*
G75*
G02*
X56700000Y-74050000I0J-250000D01*
G01*
X56700000Y-74950000D01*
G75*
G02*
X56450000Y-75200000I-250000J0D01*
G01*
X55750000Y-75200000D01*
G75*
G02*
X55500000Y-74950000I0J250000D01*
G01*
G37*
G36*
G01*
X57500000Y-74950000D02*
X57500000Y-74050000D01*
G75*
G02*
X57750000Y-73800000I250000J0D01*
G01*
X58450000Y-73800000D01*
G75*
G02*
X58700000Y-74050000I0J-250000D01*
G01*
X58700000Y-74950000D01*
G75*
G02*
X58450000Y-75200000I-250000J0D01*
G01*
X57750000Y-75200000D01*
G75*
G02*
X57500000Y-74950000I0J250000D01*
G01*
G37*
G36*
G01*
X56000000Y-68450000D02*
X56000000Y-67550000D01*
G75*
G02*
X56250000Y-67300000I250000J0D01*
G01*
X56950000Y-67300000D01*
G75*
G02*
X57200000Y-67550000I0J-250000D01*
G01*
X57200000Y-68450000D01*
G75*
G02*
X56950000Y-68700000I-250000J0D01*
G01*
X56250000Y-68700000D01*
G75*
G02*
X56000000Y-68450000I0J250000D01*
G01*
G37*
G36*
G01*
X58000000Y-68450000D02*
X58000000Y-67550000D01*
G75*
G02*
X58250000Y-67300000I250000J0D01*
G01*
X58950000Y-67300000D01*
G75*
G02*
X59200000Y-67550000I0J-250000D01*
G01*
X59200000Y-68450000D01*
G75*
G02*
X58950000Y-68700000I-250000J0D01*
G01*
X58250000Y-68700000D01*
G75*
G02*
X58000000Y-68450000I0J250000D01*
G01*
G37*
G36*
G01*
X67400000Y-74350000D02*
X67400000Y-73450000D01*
G75*
G02*
X67650000Y-73200000I250000J0D01*
G01*
X68350000Y-73200000D01*
G75*
G02*
X68600000Y-73450000I0J-250000D01*
G01*
X68600000Y-74350000D01*
G75*
G02*
X68350000Y-74600000I-250000J0D01*
G01*
X67650000Y-74600000D01*
G75*
G02*
X67400000Y-74350000I0J250000D01*
G01*
G37*
G36*
G01*
X69400000Y-74350000D02*
X69400000Y-73450000D01*
G75*
G02*
X69650000Y-73200000I250000J0D01*
G01*
X70350000Y-73200000D01*
G75*
G02*
X70600000Y-73450000I0J-250000D01*
G01*
X70600000Y-74350000D01*
G75*
G02*
X70350000Y-74600000I-250000J0D01*
G01*
X69650000Y-74600000D01*
G75*
G02*
X69400000Y-74350000I0J250000D01*
G01*
G37*
G36*
G01*
X70625000Y-69225000D02*
X70625000Y-70175000D01*
G75*
G02*
X70375000Y-70425000I-250000J0D01*
G01*
X69700000Y-70425000D01*
G75*
G02*
X69450000Y-70175000I0J250000D01*
G01*
X69450000Y-69225000D01*
G75*
G02*
X69700000Y-68975000I250000J0D01*
G01*
X70375000Y-68975000D01*
G75*
G02*
X70625000Y-69225000I0J-250000D01*
G01*
G37*
G36*
G01*
X68550000Y-69225000D02*
X68550000Y-70175000D01*
G75*
G02*
X68300000Y-70425000I-250000J0D01*
G01*
X67625000Y-70425000D01*
G75*
G02*
X67375000Y-70175000I0J250000D01*
G01*
X67375000Y-69225000D01*
G75*
G02*
X67625000Y-68975000I250000J0D01*
G01*
X68300000Y-68975000D01*
G75*
G02*
X68550000Y-69225000I0J-250000D01*
G01*
G37*
D11*
X53300000Y-67800000D03*
D12*
X53300000Y-70340000D03*
X53300000Y-72880000D03*
X53300000Y-75420000D03*
X53300000Y-77960000D03*
X53300000Y-80500000D03*
X53300000Y-83040000D03*
X53300000Y-85580000D03*
G36*
G01*
X55312500Y-113475000D02*
X55312500Y-112525000D01*
G75*
G02*
X55562500Y-112275000I250000J0D01*
G01*
X56237500Y-112275000D01*
G75*
G02*
X56487500Y-112525000I0J-250000D01*
G01*
X56487500Y-113475000D01*
G75*
G02*
X56237500Y-113725000I-250000J0D01*
G01*
X55562500Y-113725000D01*
G75*
G02*
X55312500Y-113475000I0J250000D01*
G01*
G37*
G36*
G01*
X57387500Y-113475000D02*
X57387500Y-112525000D01*
G75*
G02*
X57637500Y-112275000I250000J0D01*
G01*
X58312500Y-112275000D01*
G75*
G02*
X58562500Y-112525000I0J-250000D01*
G01*
X58562500Y-113475000D01*
G75*
G02*
X58312500Y-113725000I-250000J0D01*
G01*
X57637500Y-113725000D01*
G75*
G02*
X57387500Y-113475000I0J250000D01*
G01*
G37*
G36*
G01*
X67500000Y-56650000D02*
X67500000Y-57550000D01*
G75*
G02*
X67250000Y-57800000I-250000J0D01*
G01*
X66550000Y-57800000D01*
G75*
G02*
X66300000Y-57550000I0J250000D01*
G01*
X66300000Y-56650000D01*
G75*
G02*
X66550000Y-56400000I250000J0D01*
G01*
X67250000Y-56400000D01*
G75*
G02*
X67500000Y-56650000I0J-250000D01*
G01*
G37*
G36*
G01*
X65500000Y-56650000D02*
X65500000Y-57550000D01*
G75*
G02*
X65250000Y-57800000I-250000J0D01*
G01*
X64550000Y-57800000D01*
G75*
G02*
X64300000Y-57550000I0J250000D01*
G01*
X64300000Y-56650000D01*
G75*
G02*
X64550000Y-56400000I250000J0D01*
G01*
X65250000Y-56400000D01*
G75*
G02*
X65500000Y-56650000I0J-250000D01*
G01*
G37*
G36*
G01*
X67200000Y-81375000D02*
X67200000Y-82025000D01*
G75*
G02*
X66925000Y-82300000I-275000J0D01*
G01*
X66375000Y-82300000D01*
G75*
G02*
X66100000Y-82025000I0J275000D01*
G01*
X66100000Y-81375000D01*
G75*
G02*
X66375000Y-81100000I275000J0D01*
G01*
X66925000Y-81100000D01*
G75*
G02*
X67200000Y-81375000I0J-275000D01*
G01*
G37*
G36*
G01*
X63900000Y-81375000D02*
X63900000Y-82025000D01*
G75*
G02*
X63625000Y-82300000I-275000J0D01*
G01*
X63075000Y-82300000D01*
G75*
G02*
X62800000Y-82025000I0J275000D01*
G01*
X62800000Y-81375000D01*
G75*
G02*
X63075000Y-81100000I275000J0D01*
G01*
X63625000Y-81100000D01*
G75*
G02*
X63900000Y-81375000I0J-275000D01*
G01*
G37*
G36*
G01*
X59900000Y-75950000D02*
X59900000Y-75050000D01*
G75*
G02*
X60150000Y-74800000I250000J0D01*
G01*
X60850000Y-74800000D01*
G75*
G02*
X61100000Y-75050000I0J-250000D01*
G01*
X61100000Y-75950000D01*
G75*
G02*
X60850000Y-76200000I-250000J0D01*
G01*
X60150000Y-76200000D01*
G75*
G02*
X59900000Y-75950000I0J250000D01*
G01*
G37*
G36*
G01*
X61900000Y-75950000D02*
X61900000Y-75050000D01*
G75*
G02*
X62150000Y-74800000I250000J0D01*
G01*
X62850000Y-74800000D01*
G75*
G02*
X63100000Y-75050000I0J-250000D01*
G01*
X63100000Y-75950000D01*
G75*
G02*
X62850000Y-76200000I-250000J0D01*
G01*
X62150000Y-76200000D01*
G75*
G02*
X61900000Y-75950000I0J250000D01*
G01*
G37*
G36*
G01*
X56000000Y-66450000D02*
X56000000Y-65550000D01*
G75*
G02*
X56250000Y-65300000I250000J0D01*
G01*
X56950000Y-65300000D01*
G75*
G02*
X57200000Y-65550000I0J-250000D01*
G01*
X57200000Y-66450000D01*
G75*
G02*
X56950000Y-66700000I-250000J0D01*
G01*
X56250000Y-66700000D01*
G75*
G02*
X56000000Y-66450000I0J250000D01*
G01*
G37*
G36*
G01*
X58000000Y-66450000D02*
X58000000Y-65550000D01*
G75*
G02*
X58250000Y-65300000I250000J0D01*
G01*
X58950000Y-65300000D01*
G75*
G02*
X59200000Y-65550000I0J-250000D01*
G01*
X59200000Y-66450000D01*
G75*
G02*
X58950000Y-66700000I-250000J0D01*
G01*
X58250000Y-66700000D01*
G75*
G02*
X58000000Y-66450000I0J250000D01*
G01*
G37*
G36*
G01*
X55375000Y-110975000D02*
X55375000Y-110025000D01*
G75*
G02*
X55625000Y-109775000I250000J0D01*
G01*
X56300000Y-109775000D01*
G75*
G02*
X56550000Y-110025000I0J-250000D01*
G01*
X56550000Y-110975000D01*
G75*
G02*
X56300000Y-111225000I-250000J0D01*
G01*
X55625000Y-111225000D01*
G75*
G02*
X55375000Y-110975000I0J250000D01*
G01*
G37*
G36*
G01*
X57450000Y-110975000D02*
X57450000Y-110025000D01*
G75*
G02*
X57700000Y-109775000I250000J0D01*
G01*
X58375000Y-109775000D01*
G75*
G02*
X58625000Y-110025000I0J-250000D01*
G01*
X58625000Y-110975000D01*
G75*
G02*
X58375000Y-111225000I-250000J0D01*
G01*
X57700000Y-111225000D01*
G75*
G02*
X57450000Y-110975000I0J250000D01*
G01*
G37*
G36*
G01*
X55275000Y-118575000D02*
X55275000Y-117625000D01*
G75*
G02*
X55525000Y-117375000I250000J0D01*
G01*
X56200000Y-117375000D01*
G75*
G02*
X56450000Y-117625000I0J-250000D01*
G01*
X56450000Y-118575000D01*
G75*
G02*
X56200000Y-118825000I-250000J0D01*
G01*
X55525000Y-118825000D01*
G75*
G02*
X55275000Y-118575000I0J250000D01*
G01*
G37*
G36*
G01*
X57350000Y-118575000D02*
X57350000Y-117625000D01*
G75*
G02*
X57600000Y-117375000I250000J0D01*
G01*
X58275000Y-117375000D01*
G75*
G02*
X58525000Y-117625000I0J-250000D01*
G01*
X58525000Y-118575000D01*
G75*
G02*
X58275000Y-118825000I-250000J0D01*
G01*
X57600000Y-118825000D01*
G75*
G02*
X57350000Y-118575000I0J250000D01*
G01*
G37*
G36*
G01*
X60400000Y-86575000D02*
X60400000Y-87225000D01*
G75*
G02*
X60125000Y-87500000I-275000J0D01*
G01*
X59575000Y-87500000D01*
G75*
G02*
X59300000Y-87225000I0J275000D01*
G01*
X59300000Y-86575000D01*
G75*
G02*
X59575000Y-86300000I275000J0D01*
G01*
X60125000Y-86300000D01*
G75*
G02*
X60400000Y-86575000I0J-275000D01*
G01*
G37*
G36*
G01*
X57100000Y-86575000D02*
X57100000Y-87225000D01*
G75*
G02*
X56825000Y-87500000I-275000J0D01*
G01*
X56275000Y-87500000D01*
G75*
G02*
X56000000Y-87225000I0J275000D01*
G01*
X56000000Y-86575000D01*
G75*
G02*
X56275000Y-86300000I275000J0D01*
G01*
X56825000Y-86300000D01*
G75*
G02*
X57100000Y-86575000I0J-275000D01*
G01*
G37*
G36*
G01*
X67500000Y-54150000D02*
X67500000Y-55050000D01*
G75*
G02*
X67250000Y-55300000I-250000J0D01*
G01*
X66550000Y-55300000D01*
G75*
G02*
X66300000Y-55050000I0J250000D01*
G01*
X66300000Y-54150000D01*
G75*
G02*
X66550000Y-53900000I250000J0D01*
G01*
X67250000Y-53900000D01*
G75*
G02*
X67500000Y-54150000I0J-250000D01*
G01*
G37*
G36*
G01*
X65500000Y-54150000D02*
X65500000Y-55050000D01*
G75*
G02*
X65250000Y-55300000I-250000J0D01*
G01*
X64550000Y-55300000D01*
G75*
G02*
X64300000Y-55050000I0J250000D01*
G01*
X64300000Y-54150000D01*
G75*
G02*
X64550000Y-53900000I250000J0D01*
G01*
X65250000Y-53900000D01*
G75*
G02*
X65500000Y-54150000I0J-250000D01*
G01*
G37*
G36*
G01*
X63925000Y-123225000D02*
X64875000Y-123225000D01*
G75*
G02*
X65125000Y-123475000I0J-250000D01*
G01*
X65125000Y-124150000D01*
G75*
G02*
X64875000Y-124400000I-250000J0D01*
G01*
X63925000Y-124400000D01*
G75*
G02*
X63675000Y-124150000I0J250000D01*
G01*
X63675000Y-123475000D01*
G75*
G02*
X63925000Y-123225000I250000J0D01*
G01*
G37*
G36*
G01*
X63925000Y-125300000D02*
X64875000Y-125300000D01*
G75*
G02*
X65125000Y-125550000I0J-250000D01*
G01*
X65125000Y-126225000D01*
G75*
G02*
X64875000Y-126475000I-250000J0D01*
G01*
X63925000Y-126475000D01*
G75*
G02*
X63675000Y-126225000I0J250000D01*
G01*
X63675000Y-125550000D01*
G75*
G02*
X63925000Y-125300000I250000J0D01*
G01*
G37*
G36*
G01*
X59225000Y-69725000D02*
X59225000Y-70675000D01*
G75*
G02*
X58975000Y-70925000I-250000J0D01*
G01*
X58300000Y-70925000D01*
G75*
G02*
X58050000Y-70675000I0J250000D01*
G01*
X58050000Y-69725000D01*
G75*
G02*
X58300000Y-69475000I250000J0D01*
G01*
X58975000Y-69475000D01*
G75*
G02*
X59225000Y-69725000I0J-250000D01*
G01*
G37*
G36*
G01*
X57150000Y-69725000D02*
X57150000Y-70675000D01*
G75*
G02*
X56900000Y-70925000I-250000J0D01*
G01*
X56225000Y-70925000D01*
G75*
G02*
X55975000Y-70675000I0J250000D01*
G01*
X55975000Y-69725000D01*
G75*
G02*
X56225000Y-69475000I250000J0D01*
G01*
X56900000Y-69475000D01*
G75*
G02*
X57150000Y-69725000I0J-250000D01*
G01*
G37*
G36*
G01*
X67500000Y-51650000D02*
X67500000Y-52550000D01*
G75*
G02*
X67250000Y-52800000I-250000J0D01*
G01*
X66550000Y-52800000D01*
G75*
G02*
X66300000Y-52550000I0J250000D01*
G01*
X66300000Y-51650000D01*
G75*
G02*
X66550000Y-51400000I250000J0D01*
G01*
X67250000Y-51400000D01*
G75*
G02*
X67500000Y-51650000I0J-250000D01*
G01*
G37*
G36*
G01*
X65500000Y-51650000D02*
X65500000Y-52550000D01*
G75*
G02*
X65250000Y-52800000I-250000J0D01*
G01*
X64550000Y-52800000D01*
G75*
G02*
X64300000Y-52550000I0J250000D01*
G01*
X64300000Y-51650000D01*
G75*
G02*
X64550000Y-51400000I250000J0D01*
G01*
X65250000Y-51400000D01*
G75*
G02*
X65500000Y-51650000I0J-250000D01*
G01*
G37*
G36*
G01*
X67725000Y-112525000D02*
X67725000Y-113475000D01*
G75*
G02*
X67475000Y-113725000I-250000J0D01*
G01*
X66800000Y-113725000D01*
G75*
G02*
X66550000Y-113475000I0J250000D01*
G01*
X66550000Y-112525000D01*
G75*
G02*
X66800000Y-112275000I250000J0D01*
G01*
X67475000Y-112275000D01*
G75*
G02*
X67725000Y-112525000I0J-250000D01*
G01*
G37*
G36*
G01*
X65650000Y-112525000D02*
X65650000Y-113475000D01*
G75*
G02*
X65400000Y-113725000I-250000J0D01*
G01*
X64725000Y-113725000D01*
G75*
G02*
X64475000Y-113475000I0J250000D01*
G01*
X64475000Y-112525000D01*
G75*
G02*
X64725000Y-112275000I250000J0D01*
G01*
X65400000Y-112275000D01*
G75*
G02*
X65650000Y-112525000I0J-250000D01*
G01*
G37*
D13*
X60550000Y-126300000D03*
X61500000Y-126300000D03*
X62450000Y-126300000D03*
X62450000Y-123800000D03*
X60550000Y-123800000D03*
G36*
G01*
X67400000Y-67850000D02*
X67400000Y-66950000D01*
G75*
G02*
X67650000Y-66700000I250000J0D01*
G01*
X68350000Y-66700000D01*
G75*
G02*
X68600000Y-66950000I0J-250000D01*
G01*
X68600000Y-67850000D01*
G75*
G02*
X68350000Y-68100000I-250000J0D01*
G01*
X67650000Y-68100000D01*
G75*
G02*
X67400000Y-67850000I0J250000D01*
G01*
G37*
G36*
G01*
X69400000Y-67850000D02*
X69400000Y-66950000D01*
G75*
G02*
X69650000Y-66700000I250000J0D01*
G01*
X70350000Y-66700000D01*
G75*
G02*
X70600000Y-66950000I0J-250000D01*
G01*
X70600000Y-67850000D01*
G75*
G02*
X70350000Y-68100000I-250000J0D01*
G01*
X69650000Y-68100000D01*
G75*
G02*
X69400000Y-67850000I0J250000D01*
G01*
G37*
G36*
G01*
X59450000Y-141480000D02*
X59450000Y-140280000D01*
G75*
G02*
X59700000Y-140030000I250000J0D01*
G01*
X60900000Y-140030000D01*
G75*
G02*
X61150000Y-140280000I0J-250000D01*
G01*
X61150000Y-141480000D01*
G75*
G02*
X60900000Y-141730000I-250000J0D01*
G01*
X59700000Y-141730000D01*
G75*
G02*
X59450000Y-141480000I0J250000D01*
G01*
G37*
D14*
X62840000Y-140880000D03*
X60300000Y-138340000D03*
X62840000Y-138340000D03*
X60300000Y-135800000D03*
X62840000Y-135800000D03*
X60300000Y-133260000D03*
X62840000Y-133260000D03*
X60300000Y-130720000D03*
X62840000Y-130720000D03*
D11*
X53880000Y-118120000D03*
D14*
X53880000Y-115580000D03*
X53880000Y-113040000D03*
X53880000Y-110500000D03*
X53880000Y-107960000D03*
X53880000Y-105420000D03*
X53880000Y-102880000D03*
X69120000Y-102880000D03*
X69120000Y-105420000D03*
X69120000Y-107960000D03*
X69120000Y-110500000D03*
X69120000Y-113040000D03*
X69120000Y-115580000D03*
X69120000Y-118120000D03*
M02*
