M48
; DRILL file {KiCad 7.0.1.1-36-gbcf78dbe24-dirty-deb11} date Sun Apr  9 19:39:45 2023
; FORMAT={-:-/ absolute / metric / decimal}
; #@! TF.CreationDate,2023-04-09T19:39:45+00:00
; #@! TF.GenerationSoftware,Kicad,Pcbnew,7.0.1.1-36-gbcf78dbe24-dirty-deb11
; #@! TF.FileFunction,Plated,1,2,PTH
FMAT,2
METRIC
; #@! TA.AperFunction,Plated,PTH,ViaDrill
T1C0.400
; #@! TA.AperFunction,Plated,PTH,ComponentDrill
T2C1.000
%
G90
G05
T1
X53.6Y-89.4
X53.6Y-90.3
X53.6Y-91.2
X54.0Y-98.5
X54.1Y-131.3
X55.0Y-49.3
X55.0Y-50.2
X55.2Y-70.2
X55.9Y-49.3
X55.9Y-50.2
X56.1Y-73.0
X56.2Y-91.4
X56.2Y-92.3
X56.2Y-93.2
X57.6Y-69.1
X58.6Y-71.4
X58.6Y-97.8
X58.6Y-98.8
X59.2Y-119.9
X59.4Y-98.3
X59.5Y-101.5
X59.7Y-120.7
X59.8Y-83.1
X59.8Y-84.0
X59.9Y-81.5
X60.2Y-119.9
X62.2Y-61.6
X62.2Y-62.5
X62.2Y-79.5
X62.3Y-68.5
X62.95Y-57.1
X63.6Y-54.6
X64.2Y-68.5
X64.349Y-69.8
X64.6Y-87.9
X64.6Y-88.8
X64.6Y-89.7
X65.5Y-59.6
X65.9Y-75.3
X65.9Y-76.2
X66.0Y-60.5
X66.1Y-84.5
X66.1Y-85.4
X66.1Y-86.3
X66.2Y-109.4
X66.5Y-59.6
X67.0Y-132.8
X67.1Y-109.4
X67.5Y-133.7
X68.0Y-132.8
X69.0Y-77.3
X69.0Y-131.2
X69.7Y-87.1
X69.7Y-88.0
X69.7Y-88.9
X70.0Y-64.1
T2
X53.3Y-67.8
X53.3Y-70.34
X53.3Y-72.88
X53.3Y-75.42
X53.3Y-77.96
X53.3Y-80.5
X53.3Y-83.04
X53.3Y-85.58
X53.88Y-102.88
X53.88Y-105.42
X53.88Y-107.96
X53.88Y-110.5
X53.88Y-113.04
X53.88Y-115.58
X53.88Y-118.12
X60.3Y-130.72
X60.3Y-133.26
X60.3Y-135.8
X60.3Y-138.34
X60.3Y-140.88
X62.84Y-130.72
X62.84Y-133.26
X62.84Y-135.8
X62.84Y-138.34
X62.84Y-140.88
X69.12Y-102.88
X69.12Y-105.42
X69.12Y-107.96
X69.12Y-110.5
X69.12Y-113.04
X69.12Y-115.58
X69.12Y-118.12
X69.7Y-49.5
X69.7Y-52.04
X69.7Y-54.58
X69.7Y-57.12
X69.7Y-59.66
X69.7Y-62.2
T0
M30
