G04 #@! TF.GenerationSoftware,KiCad,Pcbnew,7.0.1.1-36-gbcf78dbe24-dirty-deb11*
G04 #@! TF.CreationDate,2023-04-09T19:21:00+00:00*
G04 #@! TF.ProjectId,RP2040-VCO,52503230-3430-42d5-9643-4f2e6b696361,rev?*
G04 #@! TF.SameCoordinates,Original*
G04 #@! TF.FileFunction,Copper,L2,Bot*
G04 #@! TF.FilePolarity,Positive*
%FSLAX46Y46*%
G04 Gerber Fmt 4.6, Leading zero omitted, Abs format (unit mm)*
G04 Created by KiCad (PCBNEW 7.0.1.1-36-gbcf78dbe24-dirty-deb11) date 2023-04-09 19:21:00*
%MOMM*%
%LPD*%
G01*
G04 APERTURE LIST*
G04 #@! TA.AperFunction,ComponentPad*
%ADD10R,1.700000X1.700000*%
G04 #@! TD*
G04 #@! TA.AperFunction,ComponentPad*
%ADD11O,1.700000X1.700000*%
G04 #@! TD*
G04 #@! TA.AperFunction,ComponentPad*
%ADD12C,1.700000*%
G04 #@! TD*
G04 #@! TA.AperFunction,ViaPad*
%ADD13C,0.800000*%
G04 #@! TD*
G04 #@! TA.AperFunction,ViaPad*
%ADD14C,0.600000*%
G04 #@! TD*
G04 #@! TA.AperFunction,Conductor*
%ADD15C,0.300000*%
G04 #@! TD*
G04 APERTURE END LIST*
D10*
X69700000Y-49500000D03*
D11*
X69700000Y-52040000D03*
X69700000Y-54580000D03*
X69700000Y-57120000D03*
X69700000Y-59660000D03*
X69700000Y-62200000D03*
D10*
X53300000Y-67800000D03*
D11*
X53300000Y-70340000D03*
X53300000Y-72880000D03*
X53300000Y-75420000D03*
X53300000Y-77960000D03*
X53300000Y-80500000D03*
X53300000Y-83040000D03*
X53300000Y-85580000D03*
G04 #@! TA.AperFunction,ComponentPad*
G36*
G01*
X59450000Y-141480000D02*
X59450000Y-140280000D01*
G75*
G02*
X59700000Y-140030000I250000J0D01*
G01*
X60900000Y-140030000D01*
G75*
G02*
X61150000Y-140280000I0J-250000D01*
G01*
X61150000Y-141480000D01*
G75*
G02*
X60900000Y-141730000I-250000J0D01*
G01*
X59700000Y-141730000D01*
G75*
G02*
X59450000Y-141480000I0J250000D01*
G01*
G37*
G04 #@! TD.AperFunction*
D12*
X62840000Y-140880000D03*
X60300000Y-138340000D03*
X62840000Y-138340000D03*
X60300000Y-135800000D03*
X62840000Y-135800000D03*
X60300000Y-133260000D03*
X62840000Y-133260000D03*
X60300000Y-130720000D03*
X62840000Y-130720000D03*
D10*
X53880000Y-118120000D03*
D12*
X53880000Y-115580000D03*
X53880000Y-113040000D03*
X53880000Y-110500000D03*
X53880000Y-107960000D03*
X53880000Y-105420000D03*
X53880000Y-102880000D03*
X69120000Y-102880000D03*
X69120000Y-105420000D03*
X69120000Y-107960000D03*
X69120000Y-110500000D03*
X69120000Y-113040000D03*
X69120000Y-115580000D03*
X69120000Y-118120000D03*
D13*
X56200000Y-92300000D03*
X55900000Y-49300000D03*
X59400000Y-98300000D03*
X56200000Y-91400000D03*
X65900000Y-76200000D03*
X67000000Y-132800000D03*
X59200000Y-119900000D03*
X62200000Y-62500000D03*
X53600000Y-89400000D03*
X65500000Y-59600000D03*
X53600000Y-90300000D03*
X55200000Y-70200000D03*
X67500000Y-133700000D03*
X66000000Y-60500000D03*
X56200000Y-93200000D03*
X69700000Y-88000000D03*
X55900000Y-50200000D03*
X69700000Y-87100000D03*
D14*
X64700000Y-88500000D03*
D13*
X64200000Y-68500000D03*
X53600000Y-91200000D03*
X59700000Y-120700000D03*
X66100000Y-85400000D03*
X69700000Y-88900000D03*
D14*
X64700000Y-87800000D03*
D13*
X66100000Y-86300000D03*
X59800000Y-84000000D03*
X67100000Y-109400000D03*
X58600000Y-98800000D03*
X58600000Y-97800000D03*
X59800000Y-83100000D03*
X56100000Y-73000000D03*
X68000000Y-132800000D03*
X66500000Y-59600000D03*
X66200000Y-109400000D03*
X55000000Y-49300000D03*
X60200000Y-119900000D03*
X55000000Y-50200000D03*
X66100000Y-84500000D03*
X62300000Y-68500000D03*
X62200000Y-61600000D03*
X65900000Y-75300000D03*
X54100000Y-131300000D03*
X58600000Y-71400000D03*
X64349500Y-69800000D03*
X69000000Y-131200000D03*
X63600000Y-54600000D03*
X62949500Y-57100000D03*
X69000000Y-77300000D03*
X62200000Y-79500000D03*
X70000000Y-64100000D03*
X54000000Y-98500000D03*
X59500000Y-101500000D03*
X57600000Y-69100000D03*
X59900000Y-81500000D03*
D15*
X53900000Y-131300000D02*
X54100000Y-131300000D01*
X52450000Y-129850000D02*
X53900000Y-131300000D01*
X58600000Y-71400000D02*
X58600000Y-80280000D01*
X58600000Y-80280000D02*
X53300000Y-85580000D01*
X52450000Y-86430000D02*
X52450000Y-129850000D01*
X53300000Y-85580000D02*
X52450000Y-86430000D01*
X64349500Y-69800000D02*
X63600000Y-70549500D01*
X63600000Y-70549500D02*
X63600000Y-125800000D01*
X63600000Y-125800000D02*
X69000000Y-131200000D01*
X63700000Y-54700000D02*
X63700000Y-67539339D01*
X63700000Y-67539339D02*
X63050000Y-68189339D01*
X63050000Y-106410000D02*
X53880000Y-115580000D01*
X63600000Y-54600000D02*
X63700000Y-54700000D01*
X63050000Y-68189339D02*
X63050000Y-106410000D01*
X60800000Y-103580000D02*
X53880000Y-110500000D01*
X62949500Y-57100000D02*
X60800000Y-59249500D01*
X60800000Y-59249500D02*
X60800000Y-103580000D01*
X67920000Y-116920000D02*
X67920000Y-102382943D01*
X68250000Y-77610661D02*
X68250000Y-61110000D01*
X69120000Y-118120000D02*
X67920000Y-116920000D01*
X67920000Y-102382943D02*
X70700000Y-99602943D01*
X70700000Y-80060661D02*
X68250000Y-77610661D01*
X68250000Y-61110000D02*
X69700000Y-59660000D01*
X70700000Y-99602943D02*
X70700000Y-80060661D01*
X71200000Y-110960000D02*
X69120000Y-113040000D01*
X71200000Y-63700000D02*
X71200000Y-110960000D01*
X69700000Y-62200000D02*
X71200000Y-63700000D01*
X62200000Y-104720000D02*
X62200000Y-79500000D01*
X70000000Y-76300000D02*
X69000000Y-77300000D01*
X70000000Y-64100000D02*
X70000000Y-76300000D01*
X53880000Y-113040000D02*
X62200000Y-104720000D01*
X57000000Y-101500000D02*
X59500000Y-101500000D01*
X54000000Y-98500000D02*
X57000000Y-101500000D01*
X59700000Y-81100000D02*
X59700000Y-81300000D01*
X59700000Y-69700000D02*
X59700000Y-81100000D01*
X57600000Y-69100000D02*
X59100000Y-69100000D01*
X59700000Y-81300000D02*
X59900000Y-81500000D01*
X59100000Y-69100000D02*
X59700000Y-69700000D01*
G04 #@! TA.AperFunction,Conductor*
G36*
X71286500Y-36667381D02*
G01*
X71332619Y-36713500D01*
X71349500Y-36776500D01*
X71349500Y-62614051D01*
X71335767Y-62671254D01*
X71297561Y-62715987D01*
X71243211Y-62738500D01*
X71184564Y-62733884D01*
X71134405Y-62703146D01*
X71057010Y-62625751D01*
X71024626Y-62570105D01*
X71023961Y-62505725D01*
X71044564Y-62424368D01*
X71063156Y-62200000D01*
X71044564Y-61975632D01*
X70989296Y-61757384D01*
X70898860Y-61551209D01*
X70775722Y-61362732D01*
X70623240Y-61197094D01*
X70623239Y-61197093D01*
X70623237Y-61197091D01*
X70445579Y-61058813D01*
X70445577Y-61058812D01*
X70445576Y-61058811D01*
X70412317Y-61040812D01*
X70364047Y-60994498D01*
X70346288Y-60930000D01*
X70364047Y-60865502D01*
X70412317Y-60819187D01*
X70445576Y-60801189D01*
X70623240Y-60662906D01*
X70775722Y-60497268D01*
X70898860Y-60308791D01*
X70989296Y-60102616D01*
X71044564Y-59884368D01*
X71063156Y-59660000D01*
X71044564Y-59435632D01*
X70989296Y-59217384D01*
X70898860Y-59011209D01*
X70775722Y-58822732D01*
X70623240Y-58657094D01*
X70623239Y-58657093D01*
X70623237Y-58657091D01*
X70445579Y-58518813D01*
X70445577Y-58518812D01*
X70445576Y-58518811D01*
X70412317Y-58500812D01*
X70364047Y-58454498D01*
X70346288Y-58390000D01*
X70364047Y-58325502D01*
X70412317Y-58279187D01*
X70445576Y-58261189D01*
X70623240Y-58122906D01*
X70775722Y-57957268D01*
X70898860Y-57768791D01*
X70989296Y-57562616D01*
X71044564Y-57344368D01*
X71063156Y-57120000D01*
X71044564Y-56895632D01*
X70989296Y-56677384D01*
X70898860Y-56471209D01*
X70775722Y-56282732D01*
X70623240Y-56117094D01*
X70623239Y-56117093D01*
X70623237Y-56117091D01*
X70445579Y-55978813D01*
X70445577Y-55978812D01*
X70445576Y-55978811D01*
X70412317Y-55960812D01*
X70364047Y-55914498D01*
X70346288Y-55850000D01*
X70364047Y-55785502D01*
X70412317Y-55739187D01*
X70445576Y-55721189D01*
X70623240Y-55582906D01*
X70775722Y-55417268D01*
X70898860Y-55228791D01*
X70989296Y-55022616D01*
X71044564Y-54804368D01*
X71063156Y-54580000D01*
X71044564Y-54355632D01*
X70989296Y-54137384D01*
X70898860Y-53931209D01*
X70775722Y-53742732D01*
X70623240Y-53577094D01*
X70623239Y-53577093D01*
X70623237Y-53577091D01*
X70445578Y-53438812D01*
X70412317Y-53420812D01*
X70364046Y-53374495D01*
X70346288Y-53309997D01*
X70364049Y-53245499D01*
X70412317Y-53199187D01*
X70445576Y-53181189D01*
X70623240Y-53042906D01*
X70775722Y-52877268D01*
X70898860Y-52688791D01*
X70989296Y-52482616D01*
X71044564Y-52264368D01*
X71063156Y-52040000D01*
X71044564Y-51815632D01*
X70989296Y-51597384D01*
X70898860Y-51391209D01*
X70775722Y-51202732D01*
X70632157Y-51046780D01*
X70602921Y-50993178D01*
X70602318Y-50932122D01*
X70630493Y-50877951D01*
X70680827Y-50843388D01*
X70795963Y-50800445D01*
X70912904Y-50712904D01*
X71000445Y-50595962D01*
X71051494Y-50459093D01*
X71058000Y-50398589D01*
X71058000Y-49754000D01*
X68342000Y-49754000D01*
X68342000Y-50398589D01*
X68348505Y-50459093D01*
X68399554Y-50595962D01*
X68487095Y-50712904D01*
X68604037Y-50800445D01*
X68719172Y-50843388D01*
X68769506Y-50877952D01*
X68797681Y-50932122D01*
X68797078Y-50993178D01*
X68767841Y-51046782D01*
X68624278Y-51202731D01*
X68501139Y-51391209D01*
X68410702Y-51597388D01*
X68355437Y-51815627D01*
X68355436Y-51815632D01*
X68336844Y-52040000D01*
X68355436Y-52264368D01*
X68355436Y-52264371D01*
X68355437Y-52264372D01*
X68410702Y-52482611D01*
X68501139Y-52688790D01*
X68624278Y-52877268D01*
X68776762Y-53042908D01*
X68954418Y-53181185D01*
X68954420Y-53181186D01*
X68954424Y-53181189D01*
X68987682Y-53199187D01*
X69035952Y-53245503D01*
X69053711Y-53310000D01*
X69035952Y-53374497D01*
X68987682Y-53420812D01*
X68962794Y-53434281D01*
X68954418Y-53438814D01*
X68776762Y-53577091D01*
X68624278Y-53742731D01*
X68501139Y-53931209D01*
X68410702Y-54137388D01*
X68387644Y-54228444D01*
X68355436Y-54355632D01*
X68336844Y-54580000D01*
X68355436Y-54804368D01*
X68355436Y-54804371D01*
X68355437Y-54804372D01*
X68410702Y-55022611D01*
X68501139Y-55228790D01*
X68624278Y-55417268D01*
X68776762Y-55582908D01*
X68954418Y-55721185D01*
X68954420Y-55721186D01*
X68954424Y-55721189D01*
X68987682Y-55739187D01*
X69035952Y-55785503D01*
X69053711Y-55850000D01*
X69035952Y-55914497D01*
X68987682Y-55960812D01*
X68962794Y-55974281D01*
X68954418Y-55978814D01*
X68776762Y-56117091D01*
X68624278Y-56282731D01*
X68501139Y-56471209D01*
X68410702Y-56677388D01*
X68355437Y-56895627D01*
X68355436Y-56895632D01*
X68336844Y-57120000D01*
X68355436Y-57344368D01*
X68355436Y-57344371D01*
X68355437Y-57344372D01*
X68410702Y-57562611D01*
X68501139Y-57768790D01*
X68624278Y-57957268D01*
X68776762Y-58122908D01*
X68954418Y-58261185D01*
X68954420Y-58261186D01*
X68954424Y-58261189D01*
X68987682Y-58279187D01*
X69035952Y-58325503D01*
X69053711Y-58390000D01*
X69035952Y-58454497D01*
X68987682Y-58500812D01*
X68962794Y-58514281D01*
X68954418Y-58518814D01*
X68776762Y-58657091D01*
X68624278Y-58822731D01*
X68501139Y-59011209D01*
X68410702Y-59217388D01*
X68394707Y-59280553D01*
X68355436Y-59435632D01*
X68336844Y-59660000D01*
X68355436Y-59884368D01*
X68355436Y-59884371D01*
X68355437Y-59884372D01*
X68376038Y-59965723D01*
X68375373Y-60030103D01*
X68342989Y-60085749D01*
X67845611Y-60583127D01*
X67828742Y-60596643D01*
X67778394Y-60650257D01*
X67775644Y-60653095D01*
X67755070Y-60673670D01*
X67752343Y-60677185D01*
X67744650Y-60686191D01*
X67713027Y-60719868D01*
X67702690Y-60738668D01*
X67691844Y-60755179D01*
X67678695Y-60772131D01*
X67660350Y-60814524D01*
X67655130Y-60825179D01*
X67632876Y-60865660D01*
X67627542Y-60886435D01*
X67621139Y-60905135D01*
X67612620Y-60924820D01*
X67605393Y-60970452D01*
X67602986Y-60982073D01*
X67591500Y-61026811D01*
X67591500Y-61048259D01*
X67589949Y-61067970D01*
X67586594Y-61089152D01*
X67590941Y-61135138D01*
X67591500Y-61146996D01*
X67591500Y-77524050D01*
X67589128Y-77545535D01*
X67591438Y-77619030D01*
X67591500Y-77622988D01*
X67591500Y-77652097D01*
X67592055Y-77656493D01*
X67592986Y-77668317D01*
X67594437Y-77714492D01*
X67600421Y-77735088D01*
X67604429Y-77754443D01*
X67607117Y-77775722D01*
X67624124Y-77818678D01*
X67627967Y-77829905D01*
X67640854Y-77874261D01*
X67651770Y-77892719D01*
X67660467Y-77910471D01*
X67668364Y-77930417D01*
X67695514Y-77967784D01*
X67702033Y-77977707D01*
X67725549Y-78017471D01*
X67740710Y-78032632D01*
X67753550Y-78047665D01*
X67766157Y-78065016D01*
X67801751Y-78094462D01*
X67810531Y-78102452D01*
X70004595Y-80296516D01*
X70031909Y-80337393D01*
X70041500Y-80385611D01*
X70041500Y-95512578D01*
X70027204Y-95570872D01*
X69987561Y-95615938D01*
X69931566Y-95637550D01*
X69871925Y-95630803D01*
X69822172Y-95597230D01*
X69793597Y-95544448D01*
X69756072Y-95400912D01*
X69650130Y-95151610D01*
X69509018Y-94920390D01*
X69335745Y-94712180D01*
X69230759Y-94618112D01*
X69134006Y-94531421D01*
X69134003Y-94531419D01*
X69134002Y-94531418D01*
X68908090Y-94381956D01*
X68908086Y-94381954D01*
X68662828Y-94266981D01*
X68403425Y-94188938D01*
X68135442Y-94149500D01*
X68135439Y-94149500D01*
X67932369Y-94149500D01*
X67898614Y-94151970D01*
X67729839Y-94164323D01*
X67465449Y-94223219D01*
X67212441Y-94319985D01*
X66976225Y-94452557D01*
X66761820Y-94618114D01*
X66573815Y-94813117D01*
X66416200Y-95033422D01*
X66292342Y-95274328D01*
X66204882Y-95530693D01*
X66155681Y-95797065D01*
X66145787Y-96067766D01*
X66175413Y-96337015D01*
X66175414Y-96337018D01*
X66243928Y-96599088D01*
X66349870Y-96848390D01*
X66490982Y-97079610D01*
X66664255Y-97287820D01*
X66664256Y-97287821D01*
X66664258Y-97287823D01*
X66865993Y-97468578D01*
X66865995Y-97468579D01*
X66865998Y-97468582D01*
X67091910Y-97618044D01*
X67224104Y-97680014D01*
X67337171Y-97733018D01*
X67337173Y-97733018D01*
X67337176Y-97733020D01*
X67596569Y-97811060D01*
X67596572Y-97811060D01*
X67596574Y-97811061D01*
X67864558Y-97850500D01*
X67864561Y-97850500D01*
X68067630Y-97850500D01*
X68067631Y-97850500D01*
X68270156Y-97835677D01*
X68534553Y-97776780D01*
X68787558Y-97680014D01*
X69023777Y-97547441D01*
X69238177Y-97381888D01*
X69426186Y-97186881D01*
X69583799Y-96966579D01*
X69707656Y-96725675D01*
X69750842Y-96599087D01*
X69796249Y-96465991D01*
X69836325Y-96408657D01*
X69900805Y-96381534D01*
X69969814Y-96392981D01*
X70022082Y-96439471D01*
X70041500Y-96506674D01*
X70041500Y-99277993D01*
X70031909Y-99326211D01*
X70004595Y-99367088D01*
X67515611Y-101856070D01*
X67498742Y-101869586D01*
X67448394Y-101923200D01*
X67445644Y-101926038D01*
X67425070Y-101946613D01*
X67422343Y-101950128D01*
X67414650Y-101959134D01*
X67383027Y-101992811D01*
X67372690Y-102011611D01*
X67361844Y-102028122D01*
X67348695Y-102045074D01*
X67330350Y-102087467D01*
X67325130Y-102098122D01*
X67302876Y-102138603D01*
X67297542Y-102159378D01*
X67291139Y-102178078D01*
X67282620Y-102197763D01*
X67275393Y-102243395D01*
X67272986Y-102255016D01*
X67261500Y-102299754D01*
X67261500Y-102321202D01*
X67259949Y-102340913D01*
X67256594Y-102362095D01*
X67260941Y-102408081D01*
X67261500Y-102419939D01*
X67261500Y-116833389D01*
X67259128Y-116854874D01*
X67261438Y-116928369D01*
X67261500Y-116932327D01*
X67261500Y-116961436D01*
X67262055Y-116965832D01*
X67262986Y-116977656D01*
X67264437Y-117023831D01*
X67270421Y-117044427D01*
X67274429Y-117063782D01*
X67277117Y-117085061D01*
X67294124Y-117128017D01*
X67297967Y-117139244D01*
X67310854Y-117183600D01*
X67321770Y-117202058D01*
X67330467Y-117219810D01*
X67338364Y-117239756D01*
X67365514Y-117277123D01*
X67372033Y-117287046D01*
X67395549Y-117326810D01*
X67410710Y-117341971D01*
X67423550Y-117357004D01*
X67436157Y-117374355D01*
X67471752Y-117403802D01*
X67480532Y-117411792D01*
X67762988Y-117694248D01*
X67795372Y-117749893D01*
X67796038Y-117814272D01*
X67779582Y-117879257D01*
X67775436Y-117895632D01*
X67756844Y-118120000D01*
X67775436Y-118344368D01*
X67775436Y-118344371D01*
X67775437Y-118344372D01*
X67830702Y-118562611D01*
X67921139Y-118768790D01*
X67921140Y-118768791D01*
X68044278Y-118957268D01*
X68156525Y-119079200D01*
X68196762Y-119122908D01*
X68316629Y-119216205D01*
X68374424Y-119261189D01*
X68572426Y-119368342D01*
X68785365Y-119441444D01*
X69007431Y-119478500D01*
X69232566Y-119478500D01*
X69232569Y-119478500D01*
X69454635Y-119441444D01*
X69667574Y-119368342D01*
X69865576Y-119261189D01*
X70043240Y-119122906D01*
X70195722Y-118957268D01*
X70318860Y-118768791D01*
X70409296Y-118562616D01*
X70464564Y-118344368D01*
X70483156Y-118120000D01*
X70464564Y-117895632D01*
X70409296Y-117677384D01*
X70318860Y-117471209D01*
X70195722Y-117282732D01*
X70043240Y-117117094D01*
X70043239Y-117117093D01*
X70043237Y-117117091D01*
X69923372Y-117023796D01*
X69865576Y-116978811D01*
X69831792Y-116960528D01*
X69783521Y-116914212D01*
X69765762Y-116849715D01*
X69783521Y-116785217D01*
X69831793Y-116738901D01*
X69865303Y-116720765D01*
X69885688Y-116704899D01*
X69885689Y-116704898D01*
X68849885Y-115669094D01*
X68817273Y-115612610D01*
X68817273Y-115580001D01*
X69479210Y-115580001D01*
X70243076Y-116343867D01*
X70243077Y-116343866D01*
X70318418Y-116228551D01*
X70408819Y-116022457D01*
X70464068Y-115804283D01*
X70482653Y-115580000D01*
X70464068Y-115355716D01*
X70408819Y-115137543D01*
X70318417Y-114931446D01*
X70243076Y-114816132D01*
X69479210Y-115580000D01*
X69479210Y-115580001D01*
X68817273Y-115580001D01*
X68817273Y-115547388D01*
X68849885Y-115490903D01*
X69120000Y-115220789D01*
X69885689Y-114455100D01*
X69885688Y-114455099D01*
X69865300Y-114439230D01*
X69831792Y-114421097D01*
X69783521Y-114374781D01*
X69765762Y-114310282D01*
X69783522Y-114245785D01*
X69831791Y-114199471D01*
X69865576Y-114181189D01*
X70043240Y-114042906D01*
X70195722Y-113877268D01*
X70318860Y-113688791D01*
X70409296Y-113482616D01*
X70464564Y-113264368D01*
X70483156Y-113040000D01*
X70464564Y-112815632D01*
X70443961Y-112734274D01*
X70444626Y-112669895D01*
X70477008Y-112614250D01*
X71134404Y-111956855D01*
X71184564Y-111926118D01*
X71243211Y-111921502D01*
X71297561Y-111944015D01*
X71335767Y-111988748D01*
X71349500Y-112045951D01*
X71349500Y-146223500D01*
X71332619Y-146286500D01*
X71286500Y-146332619D01*
X71223500Y-146349500D01*
X51776500Y-146349500D01*
X51713500Y-146332619D01*
X51667381Y-146286500D01*
X51650500Y-146223500D01*
X51650500Y-141530540D01*
X58941500Y-141530540D01*
X58943693Y-141552006D01*
X58952113Y-141634426D01*
X59007885Y-141802738D01*
X59057335Y-141882908D01*
X59100972Y-141953655D01*
X59226344Y-142079027D01*
X59226346Y-142079028D01*
X59226348Y-142079030D01*
X59377262Y-142172115D01*
X59545574Y-142227887D01*
X59649455Y-142238500D01*
X60950544Y-142238499D01*
X61054426Y-142227887D01*
X61222738Y-142172115D01*
X61373652Y-142079030D01*
X61499030Y-141953652D01*
X61592115Y-141802738D01*
X61592115Y-141802735D01*
X61599846Y-141790203D01*
X61600835Y-141790813D01*
X61626619Y-141751426D01*
X61684262Y-141722017D01*
X61748900Y-141725098D01*
X61803482Y-141759855D01*
X61916760Y-141882906D01*
X61916762Y-141882908D01*
X62007653Y-141953652D01*
X62094424Y-142021189D01*
X62292426Y-142128342D01*
X62505365Y-142201444D01*
X62727431Y-142238500D01*
X62952566Y-142238500D01*
X62952569Y-142238500D01*
X63174635Y-142201444D01*
X63387574Y-142128342D01*
X63585576Y-142021189D01*
X63763240Y-141882906D01*
X63915722Y-141717268D01*
X64038860Y-141528791D01*
X64129296Y-141322616D01*
X64184564Y-141104368D01*
X64203156Y-140880000D01*
X64184564Y-140655632D01*
X64129296Y-140437384D01*
X64038860Y-140231209D01*
X63915722Y-140042732D01*
X63763240Y-139877094D01*
X63763239Y-139877093D01*
X63763237Y-139877091D01*
X63656641Y-139794124D01*
X63585576Y-139738811D01*
X63551792Y-139720528D01*
X63503521Y-139674212D01*
X63485762Y-139609715D01*
X63503521Y-139545217D01*
X63551793Y-139498901D01*
X63585303Y-139480765D01*
X63605688Y-139464899D01*
X63605689Y-139464898D01*
X62840001Y-138699210D01*
X62840000Y-138699210D01*
X62074310Y-139464899D01*
X62094697Y-139480767D01*
X62128206Y-139498901D01*
X62176478Y-139545217D01*
X62194237Y-139609714D01*
X62176478Y-139674212D01*
X62128207Y-139720528D01*
X62094423Y-139738811D01*
X61916762Y-139877091D01*
X61803484Y-140000143D01*
X61748900Y-140034901D01*
X61684263Y-140037983D01*
X61626621Y-140008575D01*
X61600835Y-139969186D01*
X61599846Y-139969797D01*
X61592115Y-139957264D01*
X61592115Y-139957262D01*
X61499030Y-139806348D01*
X61499028Y-139806346D01*
X61499027Y-139806344D01*
X61373655Y-139680972D01*
X61373652Y-139680970D01*
X61222738Y-139587885D01*
X61153511Y-139564945D01*
X61106561Y-139536880D01*
X61075928Y-139491562D01*
X61072844Y-139472053D01*
X60300001Y-138699210D01*
X60300000Y-138699210D01*
X59527152Y-139472056D01*
X59524068Y-139491564D01*
X59493435Y-139536881D01*
X59446486Y-139564946D01*
X59377264Y-139587884D01*
X59226344Y-139680972D01*
X59100972Y-139806344D01*
X59100970Y-139806348D01*
X59007885Y-139957262D01*
X58979564Y-140042731D01*
X58952113Y-140125574D01*
X58941500Y-140229459D01*
X58941500Y-141530540D01*
X51650500Y-141530540D01*
X51650500Y-138340000D01*
X58937346Y-138340000D01*
X58955931Y-138564283D01*
X59011180Y-138782456D01*
X59101580Y-138988548D01*
X59176922Y-139103866D01*
X59940789Y-138340001D01*
X60659210Y-138340001D01*
X61423076Y-139103867D01*
X61464516Y-139040439D01*
X61510030Y-138998541D01*
X61569999Y-138983355D01*
X61629968Y-138998541D01*
X61675482Y-139040439D01*
X61716922Y-139103866D01*
X62480789Y-138340001D01*
X63199210Y-138340001D01*
X63963076Y-139103867D01*
X63963077Y-139103866D01*
X64038418Y-138988551D01*
X64128819Y-138782457D01*
X64184068Y-138564283D01*
X64202653Y-138340000D01*
X64184068Y-138115716D01*
X64128819Y-137897543D01*
X64038417Y-137691446D01*
X63963076Y-137576132D01*
X63199210Y-138340000D01*
X63199210Y-138340001D01*
X62480789Y-138340001D01*
X62480790Y-138340000D01*
X61716921Y-137576132D01*
X61675482Y-137639560D01*
X61629968Y-137681458D01*
X61569999Y-137696644D01*
X61510030Y-137681458D01*
X61464516Y-137639560D01*
X61423076Y-137576132D01*
X60659210Y-138340000D01*
X60659210Y-138340001D01*
X59940789Y-138340001D01*
X59940790Y-138340000D01*
X59176922Y-137576133D01*
X59101580Y-137691451D01*
X59011180Y-137897543D01*
X58955931Y-138115716D01*
X58937346Y-138340000D01*
X51650500Y-138340000D01*
X51650500Y-137215101D01*
X59534310Y-137215101D01*
X60299999Y-137980790D01*
X60300000Y-137980790D01*
X61065688Y-137215101D01*
X62074310Y-137215101D01*
X62839999Y-137980790D01*
X62840000Y-137980790D01*
X63605689Y-137215100D01*
X63605688Y-137215099D01*
X63585302Y-137199232D01*
X63551265Y-137180812D01*
X63502994Y-137134495D01*
X63485236Y-137069997D01*
X63502996Y-137005500D01*
X63551268Y-136959184D01*
X63585306Y-136940763D01*
X63605688Y-136924899D01*
X63605689Y-136924898D01*
X62840001Y-136159210D01*
X62840000Y-136159210D01*
X62074310Y-136924899D01*
X62094699Y-136940768D01*
X62128733Y-136959187D01*
X62177004Y-137005503D01*
X62194763Y-137070000D01*
X62177004Y-137134497D01*
X62128733Y-137180813D01*
X62094702Y-137199229D01*
X62074310Y-137215099D01*
X62074310Y-137215101D01*
X61065688Y-137215101D01*
X61065689Y-137215100D01*
X61065688Y-137215099D01*
X61045302Y-137199232D01*
X61011265Y-137180812D01*
X60962994Y-137134495D01*
X60945236Y-137069997D01*
X60962996Y-137005500D01*
X61011268Y-136959184D01*
X61045306Y-136940763D01*
X61065688Y-136924899D01*
X61065689Y-136924898D01*
X60300001Y-136159210D01*
X60300000Y-136159210D01*
X59534310Y-136924899D01*
X59554699Y-136940768D01*
X59588733Y-136959187D01*
X59637004Y-137005503D01*
X59654763Y-137070000D01*
X59637004Y-137134497D01*
X59588733Y-137180813D01*
X59554702Y-137199229D01*
X59534310Y-137215099D01*
X59534310Y-137215101D01*
X51650500Y-137215101D01*
X51650500Y-135800000D01*
X58937346Y-135800000D01*
X58955931Y-136024283D01*
X59011180Y-136242456D01*
X59101580Y-136448548D01*
X59176922Y-136563866D01*
X59940789Y-135800001D01*
X60659210Y-135800001D01*
X61423076Y-136563867D01*
X61464516Y-136500439D01*
X61510030Y-136458541D01*
X61569999Y-136443355D01*
X61629968Y-136458541D01*
X61675482Y-136500439D01*
X61716922Y-136563866D01*
X62480789Y-135800001D01*
X63199210Y-135800001D01*
X63963076Y-136563867D01*
X63963077Y-136563866D01*
X64038418Y-136448551D01*
X64128819Y-136242457D01*
X64184068Y-136024283D01*
X64202653Y-135799999D01*
X64184068Y-135575716D01*
X64128819Y-135357543D01*
X64038417Y-135151446D01*
X63963076Y-135036132D01*
X63199210Y-135800000D01*
X63199210Y-135800001D01*
X62480789Y-135800001D01*
X62480790Y-135800000D01*
X61716921Y-135036132D01*
X61675482Y-135099560D01*
X61629968Y-135141458D01*
X61569999Y-135156644D01*
X61510030Y-135141458D01*
X61464516Y-135099560D01*
X61423076Y-135036132D01*
X60659210Y-135800000D01*
X60659210Y-135800001D01*
X59940789Y-135800001D01*
X59940790Y-135800000D01*
X59176922Y-135036133D01*
X59101580Y-135151451D01*
X59011180Y-135357543D01*
X58955931Y-135575716D01*
X58937346Y-135800000D01*
X51650500Y-135800000D01*
X51650500Y-134675101D01*
X59534310Y-134675101D01*
X60299999Y-135440790D01*
X60300000Y-135440790D01*
X61065688Y-134675101D01*
X62074310Y-134675101D01*
X62839999Y-135440790D01*
X62840000Y-135440790D01*
X63605689Y-134675100D01*
X63605688Y-134675099D01*
X63585302Y-134659232D01*
X63551265Y-134640812D01*
X63502994Y-134594495D01*
X63485236Y-134529997D01*
X63502996Y-134465500D01*
X63551268Y-134419184D01*
X63585306Y-134400763D01*
X63605688Y-134384899D01*
X63605689Y-134384898D01*
X62840001Y-133619210D01*
X62840000Y-133619210D01*
X62074310Y-134384899D01*
X62094699Y-134400768D01*
X62128733Y-134419187D01*
X62177004Y-134465503D01*
X62194763Y-134530000D01*
X62177004Y-134594497D01*
X62128733Y-134640813D01*
X62094702Y-134659229D01*
X62074310Y-134675099D01*
X62074310Y-134675101D01*
X61065688Y-134675101D01*
X61065689Y-134675100D01*
X61065688Y-134675099D01*
X61045302Y-134659232D01*
X61011265Y-134640812D01*
X60962994Y-134594495D01*
X60945236Y-134529997D01*
X60962996Y-134465500D01*
X61011268Y-134419184D01*
X61045306Y-134400763D01*
X61065688Y-134384899D01*
X61065689Y-134384898D01*
X60300001Y-133619210D01*
X60300000Y-133619210D01*
X59534310Y-134384899D01*
X59554699Y-134400768D01*
X59588733Y-134419187D01*
X59637004Y-134465503D01*
X59654763Y-134530000D01*
X59637004Y-134594497D01*
X59588733Y-134640813D01*
X59554702Y-134659229D01*
X59534310Y-134675099D01*
X59534310Y-134675101D01*
X51650500Y-134675101D01*
X51650500Y-133260000D01*
X58937346Y-133260000D01*
X58955931Y-133484283D01*
X59011180Y-133702456D01*
X59101580Y-133908548D01*
X59176922Y-134023866D01*
X59940789Y-133260001D01*
X60659210Y-133260001D01*
X61423076Y-134023867D01*
X61464516Y-133960439D01*
X61510030Y-133918541D01*
X61569999Y-133903355D01*
X61629968Y-133918541D01*
X61675482Y-133960439D01*
X61716922Y-134023866D01*
X62480789Y-133260001D01*
X63199210Y-133260001D01*
X63963076Y-134023867D01*
X63963077Y-134023866D01*
X64038418Y-133908551D01*
X64128819Y-133702457D01*
X64184068Y-133484283D01*
X64202653Y-133259999D01*
X64184068Y-133035716D01*
X64128819Y-132817543D01*
X64038417Y-132611446D01*
X63963076Y-132496132D01*
X63199210Y-133260000D01*
X63199210Y-133260001D01*
X62480789Y-133260001D01*
X62480790Y-133260000D01*
X61716921Y-132496132D01*
X61675482Y-132559560D01*
X61629968Y-132601458D01*
X61569999Y-132616644D01*
X61510030Y-132601458D01*
X61464516Y-132559560D01*
X61423076Y-132496132D01*
X60659210Y-133260000D01*
X60659210Y-133260001D01*
X59940789Y-133260001D01*
X59940790Y-133260000D01*
X59176922Y-132496133D01*
X59101580Y-132611451D01*
X59011180Y-132817543D01*
X58955931Y-133035716D01*
X58937346Y-133260000D01*
X51650500Y-133260000D01*
X51650500Y-130257678D01*
X51666085Y-130196977D01*
X51708986Y-130151293D01*
X51768588Y-130131927D01*
X51830148Y-130143670D01*
X51878436Y-130183617D01*
X51895515Y-130207124D01*
X51902033Y-130217046D01*
X51925549Y-130256810D01*
X51940710Y-130271971D01*
X51953550Y-130287004D01*
X51966157Y-130304355D01*
X52001751Y-130333801D01*
X52010531Y-130341791D01*
X53208068Y-131539328D01*
X53238806Y-131589486D01*
X53265473Y-131671557D01*
X53360958Y-131836942D01*
X53440953Y-131925785D01*
X53488747Y-131978866D01*
X53643248Y-132091118D01*
X53817712Y-132168794D01*
X54004513Y-132208500D01*
X54195485Y-132208500D01*
X54195487Y-132208500D01*
X54382288Y-132168794D01*
X54556752Y-132091118D01*
X54711253Y-131978866D01*
X54839040Y-131836944D01*
X54934527Y-131671556D01*
X54993542Y-131489928D01*
X55013504Y-131300000D01*
X54993542Y-131110072D01*
X54961049Y-131010070D01*
X54934527Y-130928443D01*
X54839041Y-130763057D01*
X54800272Y-130720000D01*
X58936844Y-130720000D01*
X58955436Y-130944368D01*
X58955436Y-130944371D01*
X58955437Y-130944372D01*
X59010702Y-131162611D01*
X59101139Y-131368790D01*
X59101140Y-131368791D01*
X59224278Y-131557268D01*
X59329489Y-131671557D01*
X59376762Y-131722908D01*
X59554422Y-131861188D01*
X59554424Y-131861189D01*
X59588205Y-131879470D01*
X59636477Y-131925785D01*
X59654237Y-131990282D01*
X59636479Y-132054780D01*
X59588208Y-132101097D01*
X59554700Y-132119230D01*
X59534310Y-132135099D01*
X59534310Y-132135101D01*
X60299999Y-132900790D01*
X60300000Y-132900790D01*
X61065689Y-132135100D01*
X61065688Y-132135099D01*
X61045300Y-132119230D01*
X61011792Y-132101097D01*
X60963521Y-132054781D01*
X60945762Y-131990282D01*
X60963522Y-131925785D01*
X61011791Y-131879471D01*
X61045576Y-131861189D01*
X61223240Y-131722906D01*
X61375722Y-131557268D01*
X61464518Y-131421354D01*
X61510030Y-131379457D01*
X61570000Y-131364271D01*
X61629970Y-131379457D01*
X61675481Y-131421354D01*
X61764278Y-131557268D01*
X61916760Y-131722906D01*
X61916762Y-131722908D01*
X62094422Y-131861188D01*
X62094424Y-131861189D01*
X62128205Y-131879470D01*
X62176477Y-131925785D01*
X62194237Y-131990282D01*
X62176479Y-132054780D01*
X62128208Y-132101097D01*
X62094700Y-132119230D01*
X62074310Y-132135099D01*
X62074310Y-132135101D01*
X62839999Y-132900790D01*
X62840000Y-132900790D01*
X63605689Y-132135100D01*
X63605688Y-132135099D01*
X63585300Y-132119230D01*
X63551792Y-132101097D01*
X63503521Y-132054781D01*
X63485762Y-131990282D01*
X63503522Y-131925785D01*
X63551791Y-131879471D01*
X63585576Y-131861189D01*
X63763240Y-131722906D01*
X63915722Y-131557268D01*
X64038860Y-131368791D01*
X64129296Y-131162616D01*
X64184564Y-130944368D01*
X64203156Y-130720000D01*
X64184564Y-130495632D01*
X64129296Y-130277384D01*
X64038860Y-130071209D01*
X63915722Y-129882732D01*
X63763240Y-129717094D01*
X63763239Y-129717093D01*
X63763237Y-129717091D01*
X63585578Y-129578812D01*
X63387573Y-129471657D01*
X63243427Y-129422172D01*
X63174635Y-129398556D01*
X62952569Y-129361500D01*
X62727431Y-129361500D01*
X62505365Y-129398556D01*
X62505362Y-129398556D01*
X62505362Y-129398557D01*
X62292426Y-129471657D01*
X62094421Y-129578812D01*
X61916762Y-129717091D01*
X61764278Y-129882731D01*
X61718677Y-129952528D01*
X61675481Y-130018645D01*
X61629969Y-130060542D01*
X61570000Y-130075728D01*
X61510031Y-130060542D01*
X61464518Y-130018645D01*
X61375722Y-129882732D01*
X61223240Y-129717094D01*
X61223239Y-129717093D01*
X61223237Y-129717091D01*
X61045578Y-129578812D01*
X60847573Y-129471657D01*
X60703427Y-129422172D01*
X60634635Y-129398556D01*
X60412569Y-129361500D01*
X60187431Y-129361500D01*
X59965365Y-129398556D01*
X59965362Y-129398556D01*
X59965362Y-129398557D01*
X59752426Y-129471657D01*
X59554421Y-129578812D01*
X59376762Y-129717091D01*
X59224278Y-129882731D01*
X59101139Y-130071209D01*
X59010702Y-130277388D01*
X58955437Y-130495627D01*
X58955436Y-130495632D01*
X58936844Y-130720000D01*
X54800272Y-130720000D01*
X54711252Y-130621133D01*
X54556753Y-130508883D01*
X54556752Y-130508882D01*
X54382288Y-130431206D01*
X54195487Y-130391500D01*
X54004513Y-130391500D01*
X54004506Y-130391500D01*
X54003998Y-130391608D01*
X54001252Y-130391500D01*
X53991270Y-130391500D01*
X53991270Y-130391107D01*
X53942020Y-130389170D01*
X53888715Y-130357455D01*
X53145405Y-129614145D01*
X53118091Y-129573268D01*
X53108500Y-129525050D01*
X53108500Y-119604500D01*
X53125381Y-119541500D01*
X53171500Y-119495381D01*
X53234500Y-119478500D01*
X54778638Y-119478500D01*
X54839201Y-119471989D01*
X54976204Y-119420889D01*
X55093261Y-119333261D01*
X55180889Y-119216204D01*
X55231989Y-119079201D01*
X55238500Y-119018638D01*
X55238500Y-117221362D01*
X55231989Y-117160799D01*
X55180889Y-117023796D01*
X55180888Y-117023794D01*
X55093261Y-116906738D01*
X54976205Y-116819111D01*
X54914670Y-116796159D01*
X54861191Y-116776213D01*
X54810858Y-116741650D01*
X54782684Y-116687480D01*
X54783287Y-116626424D01*
X54812522Y-116572822D01*
X54955722Y-116417268D01*
X55078860Y-116228791D01*
X55169296Y-116022616D01*
X55224564Y-115804368D01*
X55243156Y-115580000D01*
X55224564Y-115355632D01*
X55203961Y-115274273D01*
X55204626Y-115209894D01*
X55237008Y-115154250D01*
X62726405Y-107664854D01*
X62776564Y-107634116D01*
X62835211Y-107629500D01*
X62889561Y-107652013D01*
X62927767Y-107696746D01*
X62941500Y-107753949D01*
X62941500Y-125713389D01*
X62939128Y-125734874D01*
X62941438Y-125808369D01*
X62941500Y-125812327D01*
X62941500Y-125841436D01*
X62942055Y-125845832D01*
X62942986Y-125857656D01*
X62944437Y-125903831D01*
X62950421Y-125924427D01*
X62954429Y-125943782D01*
X62957117Y-125965061D01*
X62974124Y-126008017D01*
X62977967Y-126019244D01*
X62990854Y-126063600D01*
X63001770Y-126082058D01*
X63010467Y-126099810D01*
X63018364Y-126119756D01*
X63045514Y-126157123D01*
X63052033Y-126167046D01*
X63075549Y-126206810D01*
X63090710Y-126221971D01*
X63103550Y-126237004D01*
X63116157Y-126254355D01*
X63151752Y-126283802D01*
X63160532Y-126291792D01*
X68057029Y-131188288D01*
X68081659Y-131223138D01*
X68093244Y-131264211D01*
X68106458Y-131389929D01*
X68165472Y-131571556D01*
X68260958Y-131736942D01*
X68351000Y-131836944D01*
X68388747Y-131878866D01*
X68543248Y-131991118D01*
X68717712Y-132068794D01*
X68904513Y-132108500D01*
X69095485Y-132108500D01*
X69095487Y-132108500D01*
X69282288Y-132068794D01*
X69456752Y-131991118D01*
X69611253Y-131878866D01*
X69739040Y-131736944D01*
X69834527Y-131571556D01*
X69893542Y-131389928D01*
X69913504Y-131200000D01*
X69893542Y-131010072D01*
X69834527Y-130828444D01*
X69834527Y-130828443D01*
X69739041Y-130663057D01*
X69611252Y-130521133D01*
X69456753Y-130408883D01*
X69456752Y-130408882D01*
X69282288Y-130331206D01*
X69095487Y-130291500D01*
X69095485Y-130291500D01*
X69074949Y-130291500D01*
X69026731Y-130281909D01*
X68985854Y-130254595D01*
X64295405Y-125564145D01*
X64268091Y-125523268D01*
X64258500Y-125475050D01*
X64258500Y-70874450D01*
X64268091Y-70826232D01*
X64295405Y-70785355D01*
X64335355Y-70745405D01*
X64376232Y-70718091D01*
X64424450Y-70708500D01*
X64444985Y-70708500D01*
X64444987Y-70708500D01*
X64631788Y-70668794D01*
X64806252Y-70591118D01*
X64960753Y-70478866D01*
X65088540Y-70336944D01*
X65184027Y-70171556D01*
X65243042Y-69989928D01*
X65263004Y-69800000D01*
X65243042Y-69610072D01*
X65184027Y-69428444D01*
X65184027Y-69428443D01*
X65088541Y-69263057D01*
X64960752Y-69121133D01*
X64806253Y-69008883D01*
X64806252Y-69008882D01*
X64631788Y-68931206D01*
X64444987Y-68891500D01*
X64254013Y-68891500D01*
X64129479Y-68917970D01*
X64067211Y-68931206D01*
X64009246Y-68957014D01*
X63892748Y-69008882D01*
X63892745Y-69008884D01*
X63885749Y-69011999D01*
X63824614Y-69022504D01*
X63765876Y-69002565D01*
X63723769Y-68957014D01*
X63708500Y-68896892D01*
X63708500Y-68514290D01*
X63718091Y-68466072D01*
X63745404Y-68425195D01*
X63774682Y-68395915D01*
X64104388Y-68066209D01*
X64121252Y-68052701D01*
X64123078Y-68050755D01*
X64123080Y-68050755D01*
X64171606Y-67999078D01*
X64174328Y-67996269D01*
X64194927Y-67975672D01*
X64197648Y-67972162D01*
X64205346Y-67963148D01*
X64236972Y-67929472D01*
X64247303Y-67910678D01*
X64258159Y-67894153D01*
X64258384Y-67893863D01*
X64271304Y-67877207D01*
X64289652Y-67834804D01*
X64294877Y-67824142D01*
X64298250Y-67818007D01*
X64317124Y-67783676D01*
X64322458Y-67762897D01*
X64328856Y-67744208D01*
X64337380Y-67724515D01*
X64344609Y-67678860D01*
X64347010Y-67667271D01*
X64358500Y-67622527D01*
X64358500Y-67601080D01*
X64360051Y-67581369D01*
X64363406Y-67560187D01*
X64359058Y-67514198D01*
X64358500Y-67502343D01*
X64358500Y-55137000D01*
X64375381Y-55074000D01*
X64405050Y-55022611D01*
X64434527Y-54971556D01*
X64493542Y-54789928D01*
X64513504Y-54600000D01*
X64493542Y-54410072D01*
X64434527Y-54228444D01*
X64434527Y-54228443D01*
X64339041Y-54063057D01*
X64275146Y-53992094D01*
X64211253Y-53921134D01*
X64056752Y-53808882D01*
X63882288Y-53731206D01*
X63695487Y-53691500D01*
X63504513Y-53691500D01*
X63379979Y-53717970D01*
X63317711Y-53731206D01*
X63143246Y-53808883D01*
X62988747Y-53921133D01*
X62860958Y-54063057D01*
X62765472Y-54228443D01*
X62706458Y-54410070D01*
X62686496Y-54600000D01*
X62706458Y-54789929D01*
X62765472Y-54971556D01*
X62860958Y-55136942D01*
X62860960Y-55136944D01*
X62988747Y-55278866D01*
X62989560Y-55279457D01*
X62994751Y-55285534D01*
X62997608Y-55288707D01*
X62997524Y-55288781D01*
X63027766Y-55324188D01*
X63041500Y-55381393D01*
X63041500Y-56065500D01*
X63024619Y-56128500D01*
X62978500Y-56174619D01*
X62915500Y-56191500D01*
X62854013Y-56191500D01*
X62729478Y-56217970D01*
X62667211Y-56231206D01*
X62492746Y-56308883D01*
X62338247Y-56421133D01*
X62210458Y-56563057D01*
X62114972Y-56728443D01*
X62055958Y-56910070D01*
X62042745Y-57035784D01*
X62031161Y-57076858D01*
X62006530Y-57111708D01*
X60395611Y-58722627D01*
X60378742Y-58736143D01*
X60328394Y-58789757D01*
X60325644Y-58792595D01*
X60305070Y-58813170D01*
X60302343Y-58816685D01*
X60294650Y-58825691D01*
X60263027Y-58859368D01*
X60252690Y-58878168D01*
X60241844Y-58894679D01*
X60228695Y-58911631D01*
X60210350Y-58954024D01*
X60205130Y-58964679D01*
X60182876Y-59005160D01*
X60177542Y-59025935D01*
X60171139Y-59044635D01*
X60162620Y-59064320D01*
X60155393Y-59109952D01*
X60152986Y-59121573D01*
X60141500Y-59166311D01*
X60141500Y-59187759D01*
X60139949Y-59207470D01*
X60136594Y-59228652D01*
X60140941Y-59274638D01*
X60141500Y-59286496D01*
X60141500Y-68906050D01*
X60127767Y-68963253D01*
X60089561Y-69007986D01*
X60035211Y-69030499D01*
X59976564Y-69025883D01*
X59926405Y-68995145D01*
X59626874Y-68695614D01*
X59613356Y-68678742D01*
X59559742Y-68628395D01*
X59556930Y-68625670D01*
X59536333Y-68605073D01*
X59532828Y-68602354D01*
X59523803Y-68594646D01*
X59490131Y-68563026D01*
X59471338Y-68552694D01*
X59454817Y-68541842D01*
X59437870Y-68528697D01*
X59404578Y-68514290D01*
X59395459Y-68510343D01*
X59384818Y-68505130D01*
X59344337Y-68482876D01*
X59344334Y-68482875D01*
X59323568Y-68477543D01*
X59304864Y-68471139D01*
X59285178Y-68462620D01*
X59239552Y-68455394D01*
X59227928Y-68452987D01*
X59211180Y-68448687D01*
X59183188Y-68441500D01*
X59183187Y-68441500D01*
X59161741Y-68441500D01*
X59142032Y-68439949D01*
X59120848Y-68436594D01*
X59120847Y-68436594D01*
X59100770Y-68438491D01*
X59074859Y-68440941D01*
X59063004Y-68441500D01*
X58280223Y-68441500D01*
X58241287Y-68435333D01*
X58206165Y-68417437D01*
X58056752Y-68308882D01*
X57882288Y-68231206D01*
X57695487Y-68191500D01*
X57504513Y-68191500D01*
X57379978Y-68217970D01*
X57317711Y-68231206D01*
X57143246Y-68308883D01*
X56988747Y-68421133D01*
X56860958Y-68563057D01*
X56765472Y-68728443D01*
X56706458Y-68910070D01*
X56686496Y-69100000D01*
X56706458Y-69289929D01*
X56765472Y-69471556D01*
X56860958Y-69636942D01*
X56860960Y-69636944D01*
X56988747Y-69778866D01*
X57143248Y-69891118D01*
X57317712Y-69968794D01*
X57504513Y-70008500D01*
X57695485Y-70008500D01*
X57695487Y-70008500D01*
X57882288Y-69968794D01*
X58056752Y-69891118D01*
X58206165Y-69782562D01*
X58241287Y-69764667D01*
X58280223Y-69758500D01*
X58775050Y-69758500D01*
X58823268Y-69768091D01*
X58864145Y-69795405D01*
X59004595Y-69935855D01*
X59031909Y-69976732D01*
X59041500Y-70024950D01*
X59041500Y-70409451D01*
X59029226Y-70463695D01*
X58994794Y-70507372D01*
X58944914Y-70531970D01*
X58889303Y-70532698D01*
X58882291Y-70531207D01*
X58882288Y-70531206D01*
X58695487Y-70491500D01*
X58504513Y-70491500D01*
X58429842Y-70507372D01*
X58317711Y-70531206D01*
X58143246Y-70608883D01*
X57988747Y-70721133D01*
X57860958Y-70863057D01*
X57765472Y-71028443D01*
X57706458Y-71210070D01*
X57686496Y-71400000D01*
X57706458Y-71589929D01*
X57765472Y-71771556D01*
X57860958Y-71936942D01*
X57860960Y-71936944D01*
X57909137Y-71990451D01*
X57933131Y-72029604D01*
X57941500Y-72074759D01*
X57941500Y-79955050D01*
X57931909Y-80003268D01*
X57904595Y-80044145D01*
X54874165Y-83074574D01*
X54812200Y-83108524D01*
X54741704Y-83103781D01*
X54684844Y-83061838D01*
X54659500Y-82995884D01*
X54644564Y-82815632D01*
X54589296Y-82597384D01*
X54498860Y-82391209D01*
X54375722Y-82202732D01*
X54223240Y-82037094D01*
X54223239Y-82037093D01*
X54223237Y-82037091D01*
X54045579Y-81898813D01*
X54045577Y-81898812D01*
X54045576Y-81898811D01*
X54012317Y-81880812D01*
X53964047Y-81834498D01*
X53946288Y-81770000D01*
X53964047Y-81705502D01*
X54012317Y-81659187D01*
X54045576Y-81641189D01*
X54223240Y-81502906D01*
X54375722Y-81337268D01*
X54498860Y-81148791D01*
X54589296Y-80942616D01*
X54644564Y-80724368D01*
X54663156Y-80500000D01*
X54644564Y-80275632D01*
X54589296Y-80057384D01*
X54498860Y-79851209D01*
X54375722Y-79662732D01*
X54223240Y-79497094D01*
X54223239Y-79497093D01*
X54223237Y-79497091D01*
X54045578Y-79358812D01*
X54012317Y-79340812D01*
X53964046Y-79294495D01*
X53946288Y-79229997D01*
X53964049Y-79165499D01*
X54012317Y-79119187D01*
X54045576Y-79101189D01*
X54223240Y-78962906D01*
X54375722Y-78797268D01*
X54498860Y-78608791D01*
X54589296Y-78402616D01*
X54644564Y-78184368D01*
X54663156Y-77960000D01*
X54644564Y-77735632D01*
X54589296Y-77517384D01*
X54498860Y-77311209D01*
X54375722Y-77122732D01*
X54223240Y-76957094D01*
X54223239Y-76957093D01*
X54223237Y-76957091D01*
X54110700Y-76869500D01*
X54045576Y-76818811D01*
X54011792Y-76800528D01*
X53963521Y-76754212D01*
X53945762Y-76689715D01*
X53963521Y-76625217D01*
X54011793Y-76578901D01*
X54045300Y-76560768D01*
X54222903Y-76422533D01*
X54375321Y-76256962D01*
X54498419Y-76068548D01*
X54588822Y-75862451D01*
X54636544Y-75674000D01*
X51963455Y-75674000D01*
X52011177Y-75862451D01*
X52101580Y-76068548D01*
X52224678Y-76256962D01*
X52377096Y-76422533D01*
X52554702Y-76560769D01*
X52588207Y-76578902D01*
X52636478Y-76625218D01*
X52654237Y-76689715D01*
X52636478Y-76754212D01*
X52588207Y-76800528D01*
X52554423Y-76818811D01*
X52376762Y-76957091D01*
X52224278Y-77122731D01*
X52101139Y-77311209D01*
X52010702Y-77517388D01*
X51955437Y-77735627D01*
X51955436Y-77735632D01*
X51936844Y-77960000D01*
X51955436Y-78184368D01*
X51955436Y-78184371D01*
X51955437Y-78184372D01*
X52010702Y-78402611D01*
X52101139Y-78608790D01*
X52224278Y-78797268D01*
X52376762Y-78962908D01*
X52382427Y-78967317D01*
X52554424Y-79101189D01*
X52587682Y-79119187D01*
X52635951Y-79165500D01*
X52653711Y-79229997D01*
X52635953Y-79294494D01*
X52587683Y-79340811D01*
X52554423Y-79358810D01*
X52376762Y-79497091D01*
X52224278Y-79662731D01*
X52101139Y-79851209D01*
X52010702Y-80057388D01*
X51955437Y-80275627D01*
X51955436Y-80275632D01*
X51936844Y-80500000D01*
X51955436Y-80724368D01*
X51955436Y-80724371D01*
X51955437Y-80724372D01*
X52010702Y-80942611D01*
X52101139Y-81148790D01*
X52224278Y-81337268D01*
X52376762Y-81502908D01*
X52554418Y-81641185D01*
X52554420Y-81641186D01*
X52554424Y-81641189D01*
X52587682Y-81659187D01*
X52635952Y-81705503D01*
X52653711Y-81770000D01*
X52635952Y-81834497D01*
X52587682Y-81880812D01*
X52562794Y-81894281D01*
X52554418Y-81898814D01*
X52376762Y-82037091D01*
X52224278Y-82202731D01*
X52101139Y-82391209D01*
X52010702Y-82597388D01*
X51955437Y-82815627D01*
X51955436Y-82815632D01*
X51936844Y-83040000D01*
X51955436Y-83264368D01*
X51955436Y-83264371D01*
X51955437Y-83264372D01*
X52010702Y-83482611D01*
X52101139Y-83688790D01*
X52224278Y-83877268D01*
X52376762Y-84042908D01*
X52554418Y-84181185D01*
X52554420Y-84181186D01*
X52554424Y-84181189D01*
X52587682Y-84199187D01*
X52635952Y-84245503D01*
X52653711Y-84310000D01*
X52635952Y-84374497D01*
X52587682Y-84420812D01*
X52562794Y-84434281D01*
X52554418Y-84438814D01*
X52376762Y-84577091D01*
X52224278Y-84742731D01*
X52101139Y-84931209D01*
X52010702Y-85137388D01*
X51976038Y-85274275D01*
X51955436Y-85355632D01*
X51936843Y-85580000D01*
X51936844Y-85580000D01*
X51955436Y-85804368D01*
X51976396Y-85887137D01*
X51977589Y-85943830D01*
X51953801Y-85995306D01*
X51952347Y-85997180D01*
X51944650Y-86006191D01*
X51913027Y-86039868D01*
X51902690Y-86058668D01*
X51891844Y-86075178D01*
X51876064Y-86095524D01*
X51827272Y-86133622D01*
X51766224Y-86143884D01*
X51707657Y-86123834D01*
X51665707Y-86078311D01*
X51650500Y-86018304D01*
X51650500Y-72880000D01*
X51936844Y-72880000D01*
X51955436Y-73104368D01*
X51955436Y-73104371D01*
X51955437Y-73104372D01*
X52010702Y-73322611D01*
X52101139Y-73528790D01*
X52224278Y-73717268D01*
X52376762Y-73882908D01*
X52554422Y-74021188D01*
X52554424Y-74021189D01*
X52588205Y-74039470D01*
X52636477Y-74085785D01*
X52654237Y-74150282D01*
X52636479Y-74214779D01*
X52588209Y-74261096D01*
X52554702Y-74279229D01*
X52377096Y-74417466D01*
X52224678Y-74583037D01*
X52101580Y-74771451D01*
X52011177Y-74977548D01*
X51963455Y-75165999D01*
X51963456Y-75166000D01*
X54636544Y-75166000D01*
X54636544Y-75165999D01*
X54588822Y-74977548D01*
X54498419Y-74771451D01*
X54375321Y-74583037D01*
X54222903Y-74417466D01*
X54045299Y-74279231D01*
X54011791Y-74261097D01*
X53963520Y-74214780D01*
X53945762Y-74150282D01*
X53963522Y-74085785D01*
X54011791Y-74039471D01*
X54045576Y-74021189D01*
X54223240Y-73882906D01*
X54375722Y-73717268D01*
X54498860Y-73528791D01*
X54589296Y-73322616D01*
X54644564Y-73104368D01*
X54663156Y-72880000D01*
X54644564Y-72655632D01*
X54589296Y-72437384D01*
X54498860Y-72231209D01*
X54375722Y-72042732D01*
X54223240Y-71877094D01*
X54223239Y-71877093D01*
X54223237Y-71877091D01*
X54045579Y-71738813D01*
X54045577Y-71738812D01*
X54045576Y-71738811D01*
X54012317Y-71720812D01*
X53964047Y-71674498D01*
X53946288Y-71610000D01*
X53964047Y-71545502D01*
X54012317Y-71499187D01*
X54045576Y-71481189D01*
X54223240Y-71342906D01*
X54375722Y-71177268D01*
X54498860Y-70988791D01*
X54589296Y-70782616D01*
X54644564Y-70564368D01*
X54663156Y-70340000D01*
X54644564Y-70115632D01*
X54589296Y-69897384D01*
X54498860Y-69691209D01*
X54375722Y-69502732D01*
X54232523Y-69347178D01*
X54203287Y-69293575D01*
X54202684Y-69232519D01*
X54230859Y-69178348D01*
X54281188Y-69143787D01*
X54396204Y-69100889D01*
X54513261Y-69013261D01*
X54600889Y-68896204D01*
X54651989Y-68759201D01*
X54658500Y-68698638D01*
X54658500Y-66901362D01*
X54651989Y-66840799D01*
X54600889Y-66703796D01*
X54600888Y-66703794D01*
X54513261Y-66586738D01*
X54396205Y-66499111D01*
X54327702Y-66473560D01*
X54259201Y-66448011D01*
X54198638Y-66441500D01*
X52401362Y-66441500D01*
X52340799Y-66448011D01*
X52203794Y-66499111D01*
X52086738Y-66586738D01*
X51999111Y-66703794D01*
X51948011Y-66840799D01*
X51941500Y-66901362D01*
X51941500Y-68698638D01*
X51948011Y-68759200D01*
X51999111Y-68896205D01*
X52086738Y-69013261D01*
X52203794Y-69100888D01*
X52203795Y-69100888D01*
X52203796Y-69100889D01*
X52318809Y-69143787D01*
X52369140Y-69178348D01*
X52397315Y-69232519D01*
X52396712Y-69293574D01*
X52367475Y-69347178D01*
X52224281Y-69502728D01*
X52101139Y-69691209D01*
X52010702Y-69897388D01*
X51955437Y-70115627D01*
X51955436Y-70115632D01*
X51936844Y-70340000D01*
X51955436Y-70564368D01*
X51955436Y-70564371D01*
X51955437Y-70564372D01*
X52010702Y-70782611D01*
X52010703Y-70782614D01*
X52010704Y-70782616D01*
X52028093Y-70822260D01*
X52101139Y-70988790D01*
X52224278Y-71177268D01*
X52376762Y-71342908D01*
X52554418Y-71481185D01*
X52554420Y-71481186D01*
X52554424Y-71481189D01*
X52587682Y-71499187D01*
X52635952Y-71545503D01*
X52653711Y-71610000D01*
X52635952Y-71674497D01*
X52587682Y-71720812D01*
X52562794Y-71734281D01*
X52554418Y-71738814D01*
X52376762Y-71877091D01*
X52224278Y-72042731D01*
X52101139Y-72231209D01*
X52010702Y-72437388D01*
X51955437Y-72655627D01*
X51955436Y-72655632D01*
X51936844Y-72880000D01*
X51650500Y-72880000D01*
X51650500Y-49246000D01*
X68342000Y-49246000D01*
X69446000Y-49246000D01*
X69446000Y-48142000D01*
X69954000Y-48142000D01*
X69954000Y-49246000D01*
X71058000Y-49246000D01*
X71058000Y-48601411D01*
X71051494Y-48540906D01*
X71000445Y-48404037D01*
X70912904Y-48287095D01*
X70795962Y-48199554D01*
X70659093Y-48148505D01*
X70598589Y-48142000D01*
X69954000Y-48142000D01*
X69446000Y-48142000D01*
X68801411Y-48142000D01*
X68740906Y-48148505D01*
X68604037Y-48199554D01*
X68487095Y-48287095D01*
X68399554Y-48404037D01*
X68348505Y-48540906D01*
X68342000Y-48601411D01*
X68342000Y-49246000D01*
X51650500Y-49246000D01*
X51650500Y-36776500D01*
X51667381Y-36713500D01*
X51713500Y-36667381D01*
X51776500Y-36650500D01*
X71223500Y-36650500D01*
X71286500Y-36667381D01*
G37*
G04 #@! TD.AperFunction*
G04 #@! TA.AperFunction,Conductor*
G36*
X58989561Y-80972013D02*
G01*
X59027767Y-81016746D01*
X59041500Y-81073949D01*
X59041500Y-81182268D01*
X59035333Y-81221204D01*
X59006458Y-81310069D01*
X58986496Y-81499999D01*
X58986496Y-81500000D01*
X58986802Y-81502908D01*
X59006458Y-81689929D01*
X59065472Y-81871556D01*
X59160958Y-82036942D01*
X59160960Y-82036944D01*
X59288747Y-82178866D01*
X59443248Y-82291118D01*
X59617712Y-82368794D01*
X59804513Y-82408500D01*
X59804515Y-82408500D01*
X60008730Y-82408500D01*
X60008730Y-82410068D01*
X60044914Y-82410542D01*
X60094794Y-82435141D01*
X60129226Y-82478817D01*
X60141500Y-82533061D01*
X60141500Y-100597114D01*
X60126231Y-100657236D01*
X60084125Y-100702786D01*
X60025386Y-100722726D01*
X59964251Y-100712221D01*
X59956752Y-100708882D01*
X59782288Y-100631206D01*
X59595487Y-100591500D01*
X59404513Y-100591500D01*
X59279978Y-100617970D01*
X59217711Y-100631206D01*
X59043246Y-100708883D01*
X59038652Y-100712221D01*
X58893834Y-100817437D01*
X58858713Y-100835333D01*
X58819777Y-100841500D01*
X57324950Y-100841500D01*
X57276732Y-100831909D01*
X57235855Y-100804595D01*
X54942969Y-98511709D01*
X54918338Y-98476858D01*
X54906754Y-98435784D01*
X54893542Y-98310071D01*
X54834526Y-98128442D01*
X54739041Y-97963057D01*
X54637694Y-97850500D01*
X54611253Y-97821134D01*
X54597387Y-97811060D01*
X54456753Y-97708883D01*
X54456752Y-97708882D01*
X54282288Y-97631206D01*
X54095487Y-97591500D01*
X53904513Y-97591500D01*
X53779978Y-97617970D01*
X53717711Y-97631206D01*
X53543246Y-97708883D01*
X53388747Y-97821133D01*
X53328136Y-97888449D01*
X53278420Y-97922236D01*
X53218708Y-97929144D01*
X53162590Y-97907603D01*
X53122838Y-97862513D01*
X53108500Y-97804138D01*
X53108500Y-87064500D01*
X53125381Y-87001500D01*
X53171500Y-86955381D01*
X53234500Y-86938500D01*
X53412566Y-86938500D01*
X53412569Y-86938500D01*
X53634635Y-86901444D01*
X53847574Y-86828342D01*
X54045576Y-86721189D01*
X54223240Y-86582906D01*
X54375722Y-86417268D01*
X54498860Y-86228791D01*
X54589296Y-86022616D01*
X54644564Y-85804368D01*
X54663156Y-85580000D01*
X54644564Y-85355632D01*
X54623961Y-85274273D01*
X54624626Y-85209894D01*
X54657008Y-85154250D01*
X58826404Y-80984854D01*
X58876564Y-80954116D01*
X58935211Y-80949500D01*
X58989561Y-80972013D01*
G37*
G04 #@! TD.AperFunction*
G04 #@! TA.AperFunction,Conductor*
G36*
X62989561Y-58141514D02*
G01*
X63027767Y-58186247D01*
X63041500Y-58243450D01*
X63041500Y-67214388D01*
X63031909Y-67262606D01*
X63004595Y-67303484D01*
X62645609Y-67662468D01*
X62628741Y-67675982D01*
X62578394Y-67729596D01*
X62575644Y-67732434D01*
X62555070Y-67753009D01*
X62552343Y-67756524D01*
X62544650Y-67765530D01*
X62513027Y-67799207D01*
X62502690Y-67818007D01*
X62491844Y-67834518D01*
X62478695Y-67851470D01*
X62460350Y-67893863D01*
X62455130Y-67904518D01*
X62432876Y-67944999D01*
X62427542Y-67965774D01*
X62421139Y-67984474D01*
X62412620Y-68004159D01*
X62405393Y-68049791D01*
X62402986Y-68061412D01*
X62391500Y-68106150D01*
X62391500Y-68127598D01*
X62389949Y-68147309D01*
X62386594Y-68168491D01*
X62390941Y-68214477D01*
X62391500Y-68226335D01*
X62391500Y-78465500D01*
X62374619Y-78528500D01*
X62328500Y-78574619D01*
X62265500Y-78591500D01*
X62104513Y-78591500D01*
X61979978Y-78617970D01*
X61917711Y-78631206D01*
X61743246Y-78708883D01*
X61666164Y-78764886D01*
X61660988Y-78768648D01*
X61658561Y-78770411D01*
X61594386Y-78794087D01*
X61527297Y-78780742D01*
X61477067Y-78734310D01*
X61458500Y-78668475D01*
X61458500Y-59574450D01*
X61468091Y-59526232D01*
X61495405Y-59485355D01*
X62826405Y-58154355D01*
X62876564Y-58123617D01*
X62935211Y-58119001D01*
X62989561Y-58141514D01*
G37*
G04 #@! TD.AperFunction*
M02*
